G04 #@! TF.GenerationSoftware,KiCad,Pcbnew,7.0.6-0*
G04 #@! TF.CreationDate,2024-03-03T17:22:19+01:00*
G04 #@! TF.ProjectId,Z3660_v021d,5a333636-305f-4763-9032-31642e6b6963,v0.21d*
G04 #@! TF.SameCoordinates,Original*
G04 #@! TF.FileFunction,Legend,Bot*
G04 #@! TF.FilePolarity,Positive*
%FSLAX46Y46*%
G04 Gerber Fmt 4.6, Leading zero omitted, Abs format (unit mm)*
G04 Created by KiCad (PCBNEW 7.0.6-0) date 2024-03-03 17:22:19*
%MOMM*%
%LPD*%
G01*
G04 APERTURE LIST*
%ADD10C,0.120000*%
%ADD11C,0.400000*%
%ADD12C,0.250000*%
%ADD13C,0.150000*%
%ADD14C,0.200000*%
G04 APERTURE END LIST*
D10*
X213664800Y-55321200D02*
X213664800Y-47853600D01*
D11*
X220164000Y-55067200D02*
G75*
G03*
X220164000Y-55067200I-200000J0D01*
G01*
D10*
X213664800Y-47853600D02*
X219506800Y-47853600D01*
X219506800Y-47853600D02*
X219506800Y-55321200D01*
X241046000Y-75819000D02*
X238760000Y-75819000D01*
X219506800Y-51587400D02*
X213664800Y-51562000D01*
X238760000Y-75819000D02*
X238760000Y-78105000D01*
X219506800Y-55321200D02*
X213664800Y-55321200D01*
D12*
X102339827Y-121686528D02*
X103196970Y-121686528D01*
X102768399Y-121686528D02*
X102768399Y-120186528D01*
X102768399Y-120186528D02*
X102911256Y-120400814D01*
X102911256Y-120400814D02*
X103054113Y-120543671D01*
X103054113Y-120543671D02*
X103196970Y-120615100D01*
D13*
X248623057Y-113861580D02*
X248670676Y-113909200D01*
X248670676Y-113909200D02*
X248813533Y-113956819D01*
X248813533Y-113956819D02*
X248908771Y-113956819D01*
X248908771Y-113956819D02*
X249051628Y-113909200D01*
X249051628Y-113909200D02*
X249146866Y-113813961D01*
X249146866Y-113813961D02*
X249194485Y-113718723D01*
X249194485Y-113718723D02*
X249242104Y-113528247D01*
X249242104Y-113528247D02*
X249242104Y-113385390D01*
X249242104Y-113385390D02*
X249194485Y-113194914D01*
X249194485Y-113194914D02*
X249146866Y-113099676D01*
X249146866Y-113099676D02*
X249051628Y-113004438D01*
X249051628Y-113004438D02*
X248908771Y-112956819D01*
X248908771Y-112956819D02*
X248813533Y-112956819D01*
X248813533Y-112956819D02*
X248670676Y-113004438D01*
X248670676Y-113004438D02*
X248623057Y-113052057D01*
X247670676Y-113956819D02*
X248242104Y-113956819D01*
X247956390Y-113956819D02*
X247956390Y-112956819D01*
X247956390Y-112956819D02*
X248051628Y-113099676D01*
X248051628Y-113099676D02*
X248146866Y-113194914D01*
X248146866Y-113194914D02*
X248242104Y-113242533D01*
X247289723Y-113052057D02*
X247242104Y-113004438D01*
X247242104Y-113004438D02*
X247146866Y-112956819D01*
X247146866Y-112956819D02*
X246908771Y-112956819D01*
X246908771Y-112956819D02*
X246813533Y-113004438D01*
X246813533Y-113004438D02*
X246765914Y-113052057D01*
X246765914Y-113052057D02*
X246718295Y-113147295D01*
X246718295Y-113147295D02*
X246718295Y-113242533D01*
X246718295Y-113242533D02*
X246765914Y-113385390D01*
X246765914Y-113385390D02*
X247337342Y-113956819D01*
X247337342Y-113956819D02*
X246718295Y-113956819D01*
X162650466Y-47510419D02*
X162983799Y-47034228D01*
X163221894Y-47510419D02*
X163221894Y-46510419D01*
X163221894Y-46510419D02*
X162840942Y-46510419D01*
X162840942Y-46510419D02*
X162745704Y-46558038D01*
X162745704Y-46558038D02*
X162698085Y-46605657D01*
X162698085Y-46605657D02*
X162650466Y-46700895D01*
X162650466Y-46700895D02*
X162650466Y-46843752D01*
X162650466Y-46843752D02*
X162698085Y-46938990D01*
X162698085Y-46938990D02*
X162745704Y-46986609D01*
X162745704Y-46986609D02*
X162840942Y-47034228D01*
X162840942Y-47034228D02*
X163221894Y-47034228D01*
X162269513Y-46605657D02*
X162221894Y-46558038D01*
X162221894Y-46558038D02*
X162126656Y-46510419D01*
X162126656Y-46510419D02*
X161888561Y-46510419D01*
X161888561Y-46510419D02*
X161793323Y-46558038D01*
X161793323Y-46558038D02*
X161745704Y-46605657D01*
X161745704Y-46605657D02*
X161698085Y-46700895D01*
X161698085Y-46700895D02*
X161698085Y-46796133D01*
X161698085Y-46796133D02*
X161745704Y-46938990D01*
X161745704Y-46938990D02*
X162317132Y-47510419D01*
X162317132Y-47510419D02*
X161698085Y-47510419D01*
X163129838Y-50863219D02*
X163701266Y-50863219D01*
X163415552Y-50863219D02*
X163415552Y-49863219D01*
X163415552Y-49863219D02*
X163510790Y-50006076D01*
X163510790Y-50006076D02*
X163606028Y-50101314D01*
X163606028Y-50101314D02*
X163701266Y-50148933D01*
X162510790Y-49863219D02*
X162415552Y-49863219D01*
X162415552Y-49863219D02*
X162320314Y-49910838D01*
X162320314Y-49910838D02*
X162272695Y-49958457D01*
X162272695Y-49958457D02*
X162225076Y-50053695D01*
X162225076Y-50053695D02*
X162177457Y-50244171D01*
X162177457Y-50244171D02*
X162177457Y-50482266D01*
X162177457Y-50482266D02*
X162225076Y-50672742D01*
X162225076Y-50672742D02*
X162272695Y-50767980D01*
X162272695Y-50767980D02*
X162320314Y-50815600D01*
X162320314Y-50815600D02*
X162415552Y-50863219D01*
X162415552Y-50863219D02*
X162510790Y-50863219D01*
X162510790Y-50863219D02*
X162606028Y-50815600D01*
X162606028Y-50815600D02*
X162653647Y-50767980D01*
X162653647Y-50767980D02*
X162701266Y-50672742D01*
X162701266Y-50672742D02*
X162748885Y-50482266D01*
X162748885Y-50482266D02*
X162748885Y-50244171D01*
X162748885Y-50244171D02*
X162701266Y-50053695D01*
X162701266Y-50053695D02*
X162653647Y-49958457D01*
X162653647Y-49958457D02*
X162606028Y-49910838D01*
X162606028Y-49910838D02*
X162510790Y-49863219D01*
X161748885Y-50863219D02*
X161748885Y-49863219D01*
X161653647Y-50482266D02*
X161367933Y-50863219D01*
X161367933Y-50196552D02*
X161748885Y-50577504D01*
X228659580Y-45507142D02*
X228707200Y-45459523D01*
X228707200Y-45459523D02*
X228754819Y-45316666D01*
X228754819Y-45316666D02*
X228754819Y-45221428D01*
X228754819Y-45221428D02*
X228707200Y-45078571D01*
X228707200Y-45078571D02*
X228611961Y-44983333D01*
X228611961Y-44983333D02*
X228516723Y-44935714D01*
X228516723Y-44935714D02*
X228326247Y-44888095D01*
X228326247Y-44888095D02*
X228183390Y-44888095D01*
X228183390Y-44888095D02*
X227992914Y-44935714D01*
X227992914Y-44935714D02*
X227897676Y-44983333D01*
X227897676Y-44983333D02*
X227802438Y-45078571D01*
X227802438Y-45078571D02*
X227754819Y-45221428D01*
X227754819Y-45221428D02*
X227754819Y-45316666D01*
X227754819Y-45316666D02*
X227802438Y-45459523D01*
X227802438Y-45459523D02*
X227850057Y-45507142D01*
X228088152Y-46364285D02*
X228754819Y-46364285D01*
X227707200Y-46126190D02*
X228421485Y-45888095D01*
X228421485Y-45888095D02*
X228421485Y-46507142D01*
X227754819Y-46792857D02*
X227754819Y-47459523D01*
X227754819Y-47459523D02*
X228754819Y-47030952D01*
X105316257Y-108883180D02*
X105363876Y-108930800D01*
X105363876Y-108930800D02*
X105506733Y-108978419D01*
X105506733Y-108978419D02*
X105601971Y-108978419D01*
X105601971Y-108978419D02*
X105744828Y-108930800D01*
X105744828Y-108930800D02*
X105840066Y-108835561D01*
X105840066Y-108835561D02*
X105887685Y-108740323D01*
X105887685Y-108740323D02*
X105935304Y-108549847D01*
X105935304Y-108549847D02*
X105935304Y-108406990D01*
X105935304Y-108406990D02*
X105887685Y-108216514D01*
X105887685Y-108216514D02*
X105840066Y-108121276D01*
X105840066Y-108121276D02*
X105744828Y-108026038D01*
X105744828Y-108026038D02*
X105601971Y-107978419D01*
X105601971Y-107978419D02*
X105506733Y-107978419D01*
X105506733Y-107978419D02*
X105363876Y-108026038D01*
X105363876Y-108026038D02*
X105316257Y-108073657D01*
X104363876Y-108978419D02*
X104935304Y-108978419D01*
X104649590Y-108978419D02*
X104649590Y-107978419D01*
X104649590Y-107978419D02*
X104744828Y-108121276D01*
X104744828Y-108121276D02*
X104840066Y-108216514D01*
X104840066Y-108216514D02*
X104935304Y-108264133D01*
X103411495Y-108978419D02*
X103982923Y-108978419D01*
X103697209Y-108978419D02*
X103697209Y-107978419D01*
X103697209Y-107978419D02*
X103792447Y-108121276D01*
X103792447Y-108121276D02*
X103887685Y-108216514D01*
X103887685Y-108216514D02*
X103982923Y-108264133D01*
X209107066Y-53744019D02*
X209440399Y-53267828D01*
X209678494Y-53744019D02*
X209678494Y-52744019D01*
X209678494Y-52744019D02*
X209297542Y-52744019D01*
X209297542Y-52744019D02*
X209202304Y-52791638D01*
X209202304Y-52791638D02*
X209154685Y-52839257D01*
X209154685Y-52839257D02*
X209107066Y-52934495D01*
X209107066Y-52934495D02*
X209107066Y-53077352D01*
X209107066Y-53077352D02*
X209154685Y-53172590D01*
X209154685Y-53172590D02*
X209202304Y-53220209D01*
X209202304Y-53220209D02*
X209297542Y-53267828D01*
X209297542Y-53267828D02*
X209678494Y-53267828D01*
X208249923Y-52744019D02*
X208440399Y-52744019D01*
X208440399Y-52744019D02*
X208535637Y-52791638D01*
X208535637Y-52791638D02*
X208583256Y-52839257D01*
X208583256Y-52839257D02*
X208678494Y-52982114D01*
X208678494Y-52982114D02*
X208726113Y-53172590D01*
X208726113Y-53172590D02*
X208726113Y-53553542D01*
X208726113Y-53553542D02*
X208678494Y-53648780D01*
X208678494Y-53648780D02*
X208630875Y-53696400D01*
X208630875Y-53696400D02*
X208535637Y-53744019D01*
X208535637Y-53744019D02*
X208345161Y-53744019D01*
X208345161Y-53744019D02*
X208249923Y-53696400D01*
X208249923Y-53696400D02*
X208202304Y-53648780D01*
X208202304Y-53648780D02*
X208154685Y-53553542D01*
X208154685Y-53553542D02*
X208154685Y-53315447D01*
X208154685Y-53315447D02*
X208202304Y-53220209D01*
X208202304Y-53220209D02*
X208249923Y-53172590D01*
X208249923Y-53172590D02*
X208345161Y-53124971D01*
X208345161Y-53124971D02*
X208535637Y-53124971D01*
X208535637Y-53124971D02*
X208630875Y-53172590D01*
X208630875Y-53172590D02*
X208678494Y-53220209D01*
X208678494Y-53220209D02*
X208726113Y-53315447D01*
X209110247Y-54912419D02*
X209681675Y-54912419D01*
X209395961Y-54912419D02*
X209395961Y-53912419D01*
X209395961Y-53912419D02*
X209491199Y-54055276D01*
X209491199Y-54055276D02*
X209586437Y-54150514D01*
X209586437Y-54150514D02*
X209681675Y-54198133D01*
X208681675Y-54912419D02*
X208681675Y-53912419D01*
X208586437Y-54531466D02*
X208300723Y-54912419D01*
X208300723Y-54245752D02*
X208681675Y-54626704D01*
X208395866Y-48511619D02*
X208729199Y-48035428D01*
X208967294Y-48511619D02*
X208967294Y-47511619D01*
X208967294Y-47511619D02*
X208586342Y-47511619D01*
X208586342Y-47511619D02*
X208491104Y-47559238D01*
X208491104Y-47559238D02*
X208443485Y-47606857D01*
X208443485Y-47606857D02*
X208395866Y-47702095D01*
X208395866Y-47702095D02*
X208395866Y-47844952D01*
X208395866Y-47844952D02*
X208443485Y-47940190D01*
X208443485Y-47940190D02*
X208491104Y-47987809D01*
X208491104Y-47987809D02*
X208586342Y-48035428D01*
X208586342Y-48035428D02*
X208967294Y-48035428D01*
X208062532Y-47511619D02*
X207395866Y-47511619D01*
X207395866Y-47511619D02*
X207824437Y-48511619D01*
X208348247Y-49680019D02*
X208919675Y-49680019D01*
X208633961Y-49680019D02*
X208633961Y-48680019D01*
X208633961Y-48680019D02*
X208729199Y-48822876D01*
X208729199Y-48822876D02*
X208824437Y-48918114D01*
X208824437Y-48918114D02*
X208919675Y-48965733D01*
X207919675Y-49680019D02*
X207919675Y-48680019D01*
X207824437Y-49299066D02*
X207538723Y-49680019D01*
X207538723Y-49013352D02*
X207919675Y-49394304D01*
X213526666Y-46073219D02*
X213859999Y-45597028D01*
X214098094Y-46073219D02*
X214098094Y-45073219D01*
X214098094Y-45073219D02*
X213717142Y-45073219D01*
X213717142Y-45073219D02*
X213621904Y-45120838D01*
X213621904Y-45120838D02*
X213574285Y-45168457D01*
X213574285Y-45168457D02*
X213526666Y-45263695D01*
X213526666Y-45263695D02*
X213526666Y-45406552D01*
X213526666Y-45406552D02*
X213574285Y-45501790D01*
X213574285Y-45501790D02*
X213621904Y-45549409D01*
X213621904Y-45549409D02*
X213717142Y-45597028D01*
X213717142Y-45597028D02*
X214098094Y-45597028D01*
X212955237Y-45501790D02*
X213050475Y-45454171D01*
X213050475Y-45454171D02*
X213098094Y-45406552D01*
X213098094Y-45406552D02*
X213145713Y-45311314D01*
X213145713Y-45311314D02*
X213145713Y-45263695D01*
X213145713Y-45263695D02*
X213098094Y-45168457D01*
X213098094Y-45168457D02*
X213050475Y-45120838D01*
X213050475Y-45120838D02*
X212955237Y-45073219D01*
X212955237Y-45073219D02*
X212764761Y-45073219D01*
X212764761Y-45073219D02*
X212669523Y-45120838D01*
X212669523Y-45120838D02*
X212621904Y-45168457D01*
X212621904Y-45168457D02*
X212574285Y-45263695D01*
X212574285Y-45263695D02*
X212574285Y-45311314D01*
X212574285Y-45311314D02*
X212621904Y-45406552D01*
X212621904Y-45406552D02*
X212669523Y-45454171D01*
X212669523Y-45454171D02*
X212764761Y-45501790D01*
X212764761Y-45501790D02*
X212955237Y-45501790D01*
X212955237Y-45501790D02*
X213050475Y-45549409D01*
X213050475Y-45549409D02*
X213098094Y-45597028D01*
X213098094Y-45597028D02*
X213145713Y-45692266D01*
X213145713Y-45692266D02*
X213145713Y-45882742D01*
X213145713Y-45882742D02*
X213098094Y-45977980D01*
X213098094Y-45977980D02*
X213050475Y-46025600D01*
X213050475Y-46025600D02*
X212955237Y-46073219D01*
X212955237Y-46073219D02*
X212764761Y-46073219D01*
X212764761Y-46073219D02*
X212669523Y-46025600D01*
X212669523Y-46025600D02*
X212621904Y-45977980D01*
X212621904Y-45977980D02*
X212574285Y-45882742D01*
X212574285Y-45882742D02*
X212574285Y-45692266D01*
X212574285Y-45692266D02*
X212621904Y-45597028D01*
X212621904Y-45597028D02*
X212669523Y-45549409D01*
X212669523Y-45549409D02*
X212764761Y-45501790D01*
X213479047Y-47343219D02*
X214050475Y-47343219D01*
X213764761Y-47343219D02*
X213764761Y-46343219D01*
X213764761Y-46343219D02*
X213859999Y-46486076D01*
X213859999Y-46486076D02*
X213955237Y-46581314D01*
X213955237Y-46581314D02*
X214050475Y-46628933D01*
X213050475Y-47343219D02*
X213050475Y-46343219D01*
X212955237Y-46962266D02*
X212669523Y-47343219D01*
X212669523Y-46676552D02*
X213050475Y-47057504D01*
X113901457Y-109130819D02*
X114234790Y-108654628D01*
X114472885Y-109130819D02*
X114472885Y-108130819D01*
X114472885Y-108130819D02*
X114091933Y-108130819D01*
X114091933Y-108130819D02*
X113996695Y-108178438D01*
X113996695Y-108178438D02*
X113949076Y-108226057D01*
X113949076Y-108226057D02*
X113901457Y-108321295D01*
X113901457Y-108321295D02*
X113901457Y-108464152D01*
X113901457Y-108464152D02*
X113949076Y-108559390D01*
X113949076Y-108559390D02*
X113996695Y-108607009D01*
X113996695Y-108607009D02*
X114091933Y-108654628D01*
X114091933Y-108654628D02*
X114472885Y-108654628D01*
X112949076Y-109130819D02*
X113520504Y-109130819D01*
X113234790Y-109130819D02*
X113234790Y-108130819D01*
X113234790Y-108130819D02*
X113330028Y-108273676D01*
X113330028Y-108273676D02*
X113425266Y-108368914D01*
X113425266Y-108368914D02*
X113520504Y-108416533D01*
X112615742Y-108130819D02*
X111996695Y-108130819D01*
X111996695Y-108130819D02*
X112330028Y-108511771D01*
X112330028Y-108511771D02*
X112187171Y-108511771D01*
X112187171Y-108511771D02*
X112091933Y-108559390D01*
X112091933Y-108559390D02*
X112044314Y-108607009D01*
X112044314Y-108607009D02*
X111996695Y-108702247D01*
X111996695Y-108702247D02*
X111996695Y-108940342D01*
X111996695Y-108940342D02*
X112044314Y-109035580D01*
X112044314Y-109035580D02*
X112091933Y-109083200D01*
X112091933Y-109083200D02*
X112187171Y-109130819D01*
X112187171Y-109130819D02*
X112472885Y-109130819D01*
X112472885Y-109130819D02*
X112568123Y-109083200D01*
X112568123Y-109083200D02*
X112615742Y-109035580D01*
X113874466Y-112331219D02*
X114445894Y-112331219D01*
X114160180Y-112331219D02*
X114160180Y-111331219D01*
X114160180Y-111331219D02*
X114255418Y-111474076D01*
X114255418Y-111474076D02*
X114350656Y-111569314D01*
X114350656Y-111569314D02*
X114445894Y-111616933D01*
X113255418Y-111331219D02*
X113160180Y-111331219D01*
X113160180Y-111331219D02*
X113064942Y-111378838D01*
X113064942Y-111378838D02*
X113017323Y-111426457D01*
X113017323Y-111426457D02*
X112969704Y-111521695D01*
X112969704Y-111521695D02*
X112922085Y-111712171D01*
X112922085Y-111712171D02*
X112922085Y-111950266D01*
X112922085Y-111950266D02*
X112969704Y-112140742D01*
X112969704Y-112140742D02*
X113017323Y-112235980D01*
X113017323Y-112235980D02*
X113064942Y-112283600D01*
X113064942Y-112283600D02*
X113160180Y-112331219D01*
X113160180Y-112331219D02*
X113255418Y-112331219D01*
X113255418Y-112331219D02*
X113350656Y-112283600D01*
X113350656Y-112283600D02*
X113398275Y-112235980D01*
X113398275Y-112235980D02*
X113445894Y-112140742D01*
X113445894Y-112140742D02*
X113493513Y-111950266D01*
X113493513Y-111950266D02*
X113493513Y-111712171D01*
X113493513Y-111712171D02*
X113445894Y-111521695D01*
X113445894Y-111521695D02*
X113398275Y-111426457D01*
X113398275Y-111426457D02*
X113350656Y-111378838D01*
X113350656Y-111378838D02*
X113255418Y-111331219D01*
X112303037Y-111331219D02*
X112207799Y-111331219D01*
X112207799Y-111331219D02*
X112112561Y-111378838D01*
X112112561Y-111378838D02*
X112064942Y-111426457D01*
X112064942Y-111426457D02*
X112017323Y-111521695D01*
X112017323Y-111521695D02*
X111969704Y-111712171D01*
X111969704Y-111712171D02*
X111969704Y-111950266D01*
X111969704Y-111950266D02*
X112017323Y-112140742D01*
X112017323Y-112140742D02*
X112064942Y-112235980D01*
X112064942Y-112235980D02*
X112112561Y-112283600D01*
X112112561Y-112283600D02*
X112207799Y-112331219D01*
X112207799Y-112331219D02*
X112303037Y-112331219D01*
X112303037Y-112331219D02*
X112398275Y-112283600D01*
X112398275Y-112283600D02*
X112445894Y-112235980D01*
X112445894Y-112235980D02*
X112493513Y-112140742D01*
X112493513Y-112140742D02*
X112541132Y-111950266D01*
X112541132Y-111950266D02*
X112541132Y-111712171D01*
X112541132Y-111712171D02*
X112493513Y-111521695D01*
X112493513Y-111521695D02*
X112445894Y-111426457D01*
X112445894Y-111426457D02*
X112398275Y-111378838D01*
X112398275Y-111378838D02*
X112303037Y-111331219D01*
X228192857Y-48459580D02*
X228240476Y-48507200D01*
X228240476Y-48507200D02*
X228383333Y-48554819D01*
X228383333Y-48554819D02*
X228478571Y-48554819D01*
X228478571Y-48554819D02*
X228621428Y-48507200D01*
X228621428Y-48507200D02*
X228716666Y-48411961D01*
X228716666Y-48411961D02*
X228764285Y-48316723D01*
X228764285Y-48316723D02*
X228811904Y-48126247D01*
X228811904Y-48126247D02*
X228811904Y-47983390D01*
X228811904Y-47983390D02*
X228764285Y-47792914D01*
X228764285Y-47792914D02*
X228716666Y-47697676D01*
X228716666Y-47697676D02*
X228621428Y-47602438D01*
X228621428Y-47602438D02*
X228478571Y-47554819D01*
X228478571Y-47554819D02*
X228383333Y-47554819D01*
X228383333Y-47554819D02*
X228240476Y-47602438D01*
X228240476Y-47602438D02*
X228192857Y-47650057D01*
X227335714Y-47888152D02*
X227335714Y-48554819D01*
X227573809Y-47507200D02*
X227811904Y-48221485D01*
X227811904Y-48221485D02*
X227192857Y-48221485D01*
X226669047Y-47983390D02*
X226764285Y-47935771D01*
X226764285Y-47935771D02*
X226811904Y-47888152D01*
X226811904Y-47888152D02*
X226859523Y-47792914D01*
X226859523Y-47792914D02*
X226859523Y-47745295D01*
X226859523Y-47745295D02*
X226811904Y-47650057D01*
X226811904Y-47650057D02*
X226764285Y-47602438D01*
X226764285Y-47602438D02*
X226669047Y-47554819D01*
X226669047Y-47554819D02*
X226478571Y-47554819D01*
X226478571Y-47554819D02*
X226383333Y-47602438D01*
X226383333Y-47602438D02*
X226335714Y-47650057D01*
X226335714Y-47650057D02*
X226288095Y-47745295D01*
X226288095Y-47745295D02*
X226288095Y-47792914D01*
X226288095Y-47792914D02*
X226335714Y-47888152D01*
X226335714Y-47888152D02*
X226383333Y-47935771D01*
X226383333Y-47935771D02*
X226478571Y-47983390D01*
X226478571Y-47983390D02*
X226669047Y-47983390D01*
X226669047Y-47983390D02*
X226764285Y-48031009D01*
X226764285Y-48031009D02*
X226811904Y-48078628D01*
X226811904Y-48078628D02*
X226859523Y-48173866D01*
X226859523Y-48173866D02*
X226859523Y-48364342D01*
X226859523Y-48364342D02*
X226811904Y-48459580D01*
X226811904Y-48459580D02*
X226764285Y-48507200D01*
X226764285Y-48507200D02*
X226669047Y-48554819D01*
X226669047Y-48554819D02*
X226478571Y-48554819D01*
X226478571Y-48554819D02*
X226383333Y-48507200D01*
X226383333Y-48507200D02*
X226335714Y-48459580D01*
X226335714Y-48459580D02*
X226288095Y-48364342D01*
X226288095Y-48364342D02*
X226288095Y-48173866D01*
X226288095Y-48173866D02*
X226335714Y-48078628D01*
X226335714Y-48078628D02*
X226383333Y-48031009D01*
X226383333Y-48031009D02*
X226478571Y-47983390D01*
X105316257Y-105073180D02*
X105363876Y-105120800D01*
X105363876Y-105120800D02*
X105506733Y-105168419D01*
X105506733Y-105168419D02*
X105601971Y-105168419D01*
X105601971Y-105168419D02*
X105744828Y-105120800D01*
X105744828Y-105120800D02*
X105840066Y-105025561D01*
X105840066Y-105025561D02*
X105887685Y-104930323D01*
X105887685Y-104930323D02*
X105935304Y-104739847D01*
X105935304Y-104739847D02*
X105935304Y-104596990D01*
X105935304Y-104596990D02*
X105887685Y-104406514D01*
X105887685Y-104406514D02*
X105840066Y-104311276D01*
X105840066Y-104311276D02*
X105744828Y-104216038D01*
X105744828Y-104216038D02*
X105601971Y-104168419D01*
X105601971Y-104168419D02*
X105506733Y-104168419D01*
X105506733Y-104168419D02*
X105363876Y-104216038D01*
X105363876Y-104216038D02*
X105316257Y-104263657D01*
X104363876Y-105168419D02*
X104935304Y-105168419D01*
X104649590Y-105168419D02*
X104649590Y-104168419D01*
X104649590Y-104168419D02*
X104744828Y-104311276D01*
X104744828Y-104311276D02*
X104840066Y-104406514D01*
X104840066Y-104406514D02*
X104935304Y-104454133D01*
X104030542Y-104168419D02*
X103411495Y-104168419D01*
X103411495Y-104168419D02*
X103744828Y-104549371D01*
X103744828Y-104549371D02*
X103601971Y-104549371D01*
X103601971Y-104549371D02*
X103506733Y-104596990D01*
X103506733Y-104596990D02*
X103459114Y-104644609D01*
X103459114Y-104644609D02*
X103411495Y-104739847D01*
X103411495Y-104739847D02*
X103411495Y-104977942D01*
X103411495Y-104977942D02*
X103459114Y-105073180D01*
X103459114Y-105073180D02*
X103506733Y-105120800D01*
X103506733Y-105120800D02*
X103601971Y-105168419D01*
X103601971Y-105168419D02*
X103887685Y-105168419D01*
X103887685Y-105168419D02*
X103982923Y-105120800D01*
X103982923Y-105120800D02*
X104030542Y-105073180D01*
X248572257Y-117620780D02*
X248619876Y-117668400D01*
X248619876Y-117668400D02*
X248762733Y-117716019D01*
X248762733Y-117716019D02*
X248857971Y-117716019D01*
X248857971Y-117716019D02*
X249000828Y-117668400D01*
X249000828Y-117668400D02*
X249096066Y-117573161D01*
X249096066Y-117573161D02*
X249143685Y-117477923D01*
X249143685Y-117477923D02*
X249191304Y-117287447D01*
X249191304Y-117287447D02*
X249191304Y-117144590D01*
X249191304Y-117144590D02*
X249143685Y-116954114D01*
X249143685Y-116954114D02*
X249096066Y-116858876D01*
X249096066Y-116858876D02*
X249000828Y-116763638D01*
X249000828Y-116763638D02*
X248857971Y-116716019D01*
X248857971Y-116716019D02*
X248762733Y-116716019D01*
X248762733Y-116716019D02*
X248619876Y-116763638D01*
X248619876Y-116763638D02*
X248572257Y-116811257D01*
X247619876Y-117716019D02*
X248191304Y-117716019D01*
X247905590Y-117716019D02*
X247905590Y-116716019D01*
X247905590Y-116716019D02*
X248000828Y-116858876D01*
X248000828Y-116858876D02*
X248096066Y-116954114D01*
X248096066Y-116954114D02*
X248191304Y-117001733D01*
X246762733Y-117049352D02*
X246762733Y-117716019D01*
X247000828Y-116668400D02*
X247238923Y-117382685D01*
X247238923Y-117382685D02*
X246619876Y-117382685D01*
X206567066Y-44396819D02*
X206900399Y-43920628D01*
X207138494Y-44396819D02*
X207138494Y-43396819D01*
X207138494Y-43396819D02*
X206757542Y-43396819D01*
X206757542Y-43396819D02*
X206662304Y-43444438D01*
X206662304Y-43444438D02*
X206614685Y-43492057D01*
X206614685Y-43492057D02*
X206567066Y-43587295D01*
X206567066Y-43587295D02*
X206567066Y-43730152D01*
X206567066Y-43730152D02*
X206614685Y-43825390D01*
X206614685Y-43825390D02*
X206662304Y-43873009D01*
X206662304Y-43873009D02*
X206757542Y-43920628D01*
X206757542Y-43920628D02*
X207138494Y-43920628D01*
X205662304Y-43396819D02*
X206138494Y-43396819D01*
X206138494Y-43396819D02*
X206186113Y-43873009D01*
X206186113Y-43873009D02*
X206138494Y-43825390D01*
X206138494Y-43825390D02*
X206043256Y-43777771D01*
X206043256Y-43777771D02*
X205805161Y-43777771D01*
X205805161Y-43777771D02*
X205709923Y-43825390D01*
X205709923Y-43825390D02*
X205662304Y-43873009D01*
X205662304Y-43873009D02*
X205614685Y-43968247D01*
X205614685Y-43968247D02*
X205614685Y-44206342D01*
X205614685Y-44206342D02*
X205662304Y-44301580D01*
X205662304Y-44301580D02*
X205709923Y-44349200D01*
X205709923Y-44349200D02*
X205805161Y-44396819D01*
X205805161Y-44396819D02*
X206043256Y-44396819D01*
X206043256Y-44396819D02*
X206138494Y-44349200D01*
X206138494Y-44349200D02*
X206186113Y-44301580D01*
X206519447Y-45666819D02*
X207090875Y-45666819D01*
X206805161Y-45666819D02*
X206805161Y-44666819D01*
X206805161Y-44666819D02*
X206900399Y-44809676D01*
X206900399Y-44809676D02*
X206995637Y-44904914D01*
X206995637Y-44904914D02*
X207090875Y-44952533D01*
X206090875Y-45666819D02*
X206090875Y-44666819D01*
X205995637Y-45285866D02*
X205709923Y-45666819D01*
X205709923Y-45000152D02*
X206090875Y-45381104D01*
X219987057Y-111287819D02*
X220320390Y-110811628D01*
X220558485Y-111287819D02*
X220558485Y-110287819D01*
X220558485Y-110287819D02*
X220177533Y-110287819D01*
X220177533Y-110287819D02*
X220082295Y-110335438D01*
X220082295Y-110335438D02*
X220034676Y-110383057D01*
X220034676Y-110383057D02*
X219987057Y-110478295D01*
X219987057Y-110478295D02*
X219987057Y-110621152D01*
X219987057Y-110621152D02*
X220034676Y-110716390D01*
X220034676Y-110716390D02*
X220082295Y-110764009D01*
X220082295Y-110764009D02*
X220177533Y-110811628D01*
X220177533Y-110811628D02*
X220558485Y-110811628D01*
X219034676Y-111287819D02*
X219606104Y-111287819D01*
X219320390Y-111287819D02*
X219320390Y-110287819D01*
X219320390Y-110287819D02*
X219415628Y-110430676D01*
X219415628Y-110430676D02*
X219510866Y-110525914D01*
X219510866Y-110525914D02*
X219606104Y-110573533D01*
X218177533Y-110621152D02*
X218177533Y-111287819D01*
X218415628Y-110240200D02*
X218653723Y-110954485D01*
X218653723Y-110954485D02*
X218034676Y-110954485D01*
X219412447Y-107731819D02*
X219983875Y-107731819D01*
X219698161Y-107731819D02*
X219698161Y-106731819D01*
X219698161Y-106731819D02*
X219793399Y-106874676D01*
X219793399Y-106874676D02*
X219888637Y-106969914D01*
X219888637Y-106969914D02*
X219983875Y-107017533D01*
X218983875Y-107731819D02*
X218983875Y-106731819D01*
X218888637Y-107350866D02*
X218602923Y-107731819D01*
X218602923Y-107065152D02*
X218983875Y-107446104D01*
X134966666Y-31954819D02*
X135299999Y-31478628D01*
X135538094Y-31954819D02*
X135538094Y-30954819D01*
X135538094Y-30954819D02*
X135157142Y-30954819D01*
X135157142Y-30954819D02*
X135061904Y-31002438D01*
X135061904Y-31002438D02*
X135014285Y-31050057D01*
X135014285Y-31050057D02*
X134966666Y-31145295D01*
X134966666Y-31145295D02*
X134966666Y-31288152D01*
X134966666Y-31288152D02*
X135014285Y-31383390D01*
X135014285Y-31383390D02*
X135061904Y-31431009D01*
X135061904Y-31431009D02*
X135157142Y-31478628D01*
X135157142Y-31478628D02*
X135538094Y-31478628D01*
X134109523Y-31288152D02*
X134109523Y-31954819D01*
X134347618Y-30907200D02*
X134585713Y-31621485D01*
X134585713Y-31621485D02*
X133966666Y-31621485D01*
X135190476Y-33088152D02*
X135190476Y-33754819D01*
X135428571Y-32707200D02*
X135666666Y-33421485D01*
X135666666Y-33421485D02*
X135047619Y-33421485D01*
X134666666Y-33754819D02*
X134666666Y-32754819D01*
X134571428Y-33373866D02*
X134285714Y-33754819D01*
X134285714Y-33088152D02*
X134666666Y-33469104D01*
X133952380Y-32754819D02*
X133285714Y-32754819D01*
X133285714Y-32754819D02*
X133714285Y-33754819D01*
X127547666Y-58935580D02*
X127595285Y-58983200D01*
X127595285Y-58983200D02*
X127738142Y-59030819D01*
X127738142Y-59030819D02*
X127833380Y-59030819D01*
X127833380Y-59030819D02*
X127976237Y-58983200D01*
X127976237Y-58983200D02*
X128071475Y-58887961D01*
X128071475Y-58887961D02*
X128119094Y-58792723D01*
X128119094Y-58792723D02*
X128166713Y-58602247D01*
X128166713Y-58602247D02*
X128166713Y-58459390D01*
X128166713Y-58459390D02*
X128119094Y-58268914D01*
X128119094Y-58268914D02*
X128071475Y-58173676D01*
X128071475Y-58173676D02*
X127976237Y-58078438D01*
X127976237Y-58078438D02*
X127833380Y-58030819D01*
X127833380Y-58030819D02*
X127738142Y-58030819D01*
X127738142Y-58030819D02*
X127595285Y-58078438D01*
X127595285Y-58078438D02*
X127547666Y-58126057D01*
X127166713Y-58126057D02*
X127119094Y-58078438D01*
X127119094Y-58078438D02*
X127023856Y-58030819D01*
X127023856Y-58030819D02*
X126785761Y-58030819D01*
X126785761Y-58030819D02*
X126690523Y-58078438D01*
X126690523Y-58078438D02*
X126642904Y-58126057D01*
X126642904Y-58126057D02*
X126595285Y-58221295D01*
X126595285Y-58221295D02*
X126595285Y-58316533D01*
X126595285Y-58316533D02*
X126642904Y-58459390D01*
X126642904Y-58459390D02*
X127214332Y-59030819D01*
X127214332Y-59030819D02*
X126595285Y-59030819D01*
X120207066Y-67720380D02*
X120254685Y-67768000D01*
X120254685Y-67768000D02*
X120397542Y-67815619D01*
X120397542Y-67815619D02*
X120492780Y-67815619D01*
X120492780Y-67815619D02*
X120635637Y-67768000D01*
X120635637Y-67768000D02*
X120730875Y-67672761D01*
X120730875Y-67672761D02*
X120778494Y-67577523D01*
X120778494Y-67577523D02*
X120826113Y-67387047D01*
X120826113Y-67387047D02*
X120826113Y-67244190D01*
X120826113Y-67244190D02*
X120778494Y-67053714D01*
X120778494Y-67053714D02*
X120730875Y-66958476D01*
X120730875Y-66958476D02*
X120635637Y-66863238D01*
X120635637Y-66863238D02*
X120492780Y-66815619D01*
X120492780Y-66815619D02*
X120397542Y-66815619D01*
X120397542Y-66815619D02*
X120254685Y-66863238D01*
X120254685Y-66863238D02*
X120207066Y-66910857D01*
X119302304Y-66815619D02*
X119778494Y-66815619D01*
X119778494Y-66815619D02*
X119826113Y-67291809D01*
X119826113Y-67291809D02*
X119778494Y-67244190D01*
X119778494Y-67244190D02*
X119683256Y-67196571D01*
X119683256Y-67196571D02*
X119445161Y-67196571D01*
X119445161Y-67196571D02*
X119349923Y-67244190D01*
X119349923Y-67244190D02*
X119302304Y-67291809D01*
X119302304Y-67291809D02*
X119254685Y-67387047D01*
X119254685Y-67387047D02*
X119254685Y-67625142D01*
X119254685Y-67625142D02*
X119302304Y-67720380D01*
X119302304Y-67720380D02*
X119349923Y-67768000D01*
X119349923Y-67768000D02*
X119445161Y-67815619D01*
X119445161Y-67815619D02*
X119683256Y-67815619D01*
X119683256Y-67815619D02*
X119778494Y-67768000D01*
X119778494Y-67768000D02*
X119826113Y-67720380D01*
X127547666Y-67698580D02*
X127595285Y-67746200D01*
X127595285Y-67746200D02*
X127738142Y-67793819D01*
X127738142Y-67793819D02*
X127833380Y-67793819D01*
X127833380Y-67793819D02*
X127976237Y-67746200D01*
X127976237Y-67746200D02*
X128071475Y-67650961D01*
X128071475Y-67650961D02*
X128119094Y-67555723D01*
X128119094Y-67555723D02*
X128166713Y-67365247D01*
X128166713Y-67365247D02*
X128166713Y-67222390D01*
X128166713Y-67222390D02*
X128119094Y-67031914D01*
X128119094Y-67031914D02*
X128071475Y-66936676D01*
X128071475Y-66936676D02*
X127976237Y-66841438D01*
X127976237Y-66841438D02*
X127833380Y-66793819D01*
X127833380Y-66793819D02*
X127738142Y-66793819D01*
X127738142Y-66793819D02*
X127595285Y-66841438D01*
X127595285Y-66841438D02*
X127547666Y-66889057D01*
X126690523Y-66793819D02*
X126880999Y-66793819D01*
X126880999Y-66793819D02*
X126976237Y-66841438D01*
X126976237Y-66841438D02*
X127023856Y-66889057D01*
X127023856Y-66889057D02*
X127119094Y-67031914D01*
X127119094Y-67031914D02*
X127166713Y-67222390D01*
X127166713Y-67222390D02*
X127166713Y-67603342D01*
X127166713Y-67603342D02*
X127119094Y-67698580D01*
X127119094Y-67698580D02*
X127071475Y-67746200D01*
X127071475Y-67746200D02*
X126976237Y-67793819D01*
X126976237Y-67793819D02*
X126785761Y-67793819D01*
X126785761Y-67793819D02*
X126690523Y-67746200D01*
X126690523Y-67746200D02*
X126642904Y-67698580D01*
X126642904Y-67698580D02*
X126595285Y-67603342D01*
X126595285Y-67603342D02*
X126595285Y-67365247D01*
X126595285Y-67365247D02*
X126642904Y-67270009D01*
X126642904Y-67270009D02*
X126690523Y-67222390D01*
X126690523Y-67222390D02*
X126785761Y-67174771D01*
X126785761Y-67174771D02*
X126976237Y-67174771D01*
X126976237Y-67174771D02*
X127071475Y-67222390D01*
X127071475Y-67222390D02*
X127119094Y-67270009D01*
X127119094Y-67270009D02*
X127166713Y-67365247D01*
X134786666Y-67698580D02*
X134834285Y-67746200D01*
X134834285Y-67746200D02*
X134977142Y-67793819D01*
X134977142Y-67793819D02*
X135072380Y-67793819D01*
X135072380Y-67793819D02*
X135215237Y-67746200D01*
X135215237Y-67746200D02*
X135310475Y-67650961D01*
X135310475Y-67650961D02*
X135358094Y-67555723D01*
X135358094Y-67555723D02*
X135405713Y-67365247D01*
X135405713Y-67365247D02*
X135405713Y-67222390D01*
X135405713Y-67222390D02*
X135358094Y-67031914D01*
X135358094Y-67031914D02*
X135310475Y-66936676D01*
X135310475Y-66936676D02*
X135215237Y-66841438D01*
X135215237Y-66841438D02*
X135072380Y-66793819D01*
X135072380Y-66793819D02*
X134977142Y-66793819D01*
X134977142Y-66793819D02*
X134834285Y-66841438D01*
X134834285Y-66841438D02*
X134786666Y-66889057D01*
X134453332Y-66793819D02*
X133786666Y-66793819D01*
X133786666Y-66793819D02*
X134215237Y-67793819D01*
X120308666Y-77677180D02*
X120356285Y-77724800D01*
X120356285Y-77724800D02*
X120499142Y-77772419D01*
X120499142Y-77772419D02*
X120594380Y-77772419D01*
X120594380Y-77772419D02*
X120737237Y-77724800D01*
X120737237Y-77724800D02*
X120832475Y-77629561D01*
X120832475Y-77629561D02*
X120880094Y-77534323D01*
X120880094Y-77534323D02*
X120927713Y-77343847D01*
X120927713Y-77343847D02*
X120927713Y-77200990D01*
X120927713Y-77200990D02*
X120880094Y-77010514D01*
X120880094Y-77010514D02*
X120832475Y-76915276D01*
X120832475Y-76915276D02*
X120737237Y-76820038D01*
X120737237Y-76820038D02*
X120594380Y-76772419D01*
X120594380Y-76772419D02*
X120499142Y-76772419D01*
X120499142Y-76772419D02*
X120356285Y-76820038D01*
X120356285Y-76820038D02*
X120308666Y-76867657D01*
X119737237Y-77200990D02*
X119832475Y-77153371D01*
X119832475Y-77153371D02*
X119880094Y-77105752D01*
X119880094Y-77105752D02*
X119927713Y-77010514D01*
X119927713Y-77010514D02*
X119927713Y-76962895D01*
X119927713Y-76962895D02*
X119880094Y-76867657D01*
X119880094Y-76867657D02*
X119832475Y-76820038D01*
X119832475Y-76820038D02*
X119737237Y-76772419D01*
X119737237Y-76772419D02*
X119546761Y-76772419D01*
X119546761Y-76772419D02*
X119451523Y-76820038D01*
X119451523Y-76820038D02*
X119403904Y-76867657D01*
X119403904Y-76867657D02*
X119356285Y-76962895D01*
X119356285Y-76962895D02*
X119356285Y-77010514D01*
X119356285Y-77010514D02*
X119403904Y-77105752D01*
X119403904Y-77105752D02*
X119451523Y-77153371D01*
X119451523Y-77153371D02*
X119546761Y-77200990D01*
X119546761Y-77200990D02*
X119737237Y-77200990D01*
X119737237Y-77200990D02*
X119832475Y-77248609D01*
X119832475Y-77248609D02*
X119880094Y-77296228D01*
X119880094Y-77296228D02*
X119927713Y-77391466D01*
X119927713Y-77391466D02*
X119927713Y-77581942D01*
X119927713Y-77581942D02*
X119880094Y-77677180D01*
X119880094Y-77677180D02*
X119832475Y-77724800D01*
X119832475Y-77724800D02*
X119737237Y-77772419D01*
X119737237Y-77772419D02*
X119546761Y-77772419D01*
X119546761Y-77772419D02*
X119451523Y-77724800D01*
X119451523Y-77724800D02*
X119403904Y-77677180D01*
X119403904Y-77677180D02*
X119356285Y-77581942D01*
X119356285Y-77581942D02*
X119356285Y-77391466D01*
X119356285Y-77391466D02*
X119403904Y-77296228D01*
X119403904Y-77296228D02*
X119451523Y-77248609D01*
X119451523Y-77248609D02*
X119546761Y-77200990D01*
X127674666Y-77677180D02*
X127722285Y-77724800D01*
X127722285Y-77724800D02*
X127865142Y-77772419D01*
X127865142Y-77772419D02*
X127960380Y-77772419D01*
X127960380Y-77772419D02*
X128103237Y-77724800D01*
X128103237Y-77724800D02*
X128198475Y-77629561D01*
X128198475Y-77629561D02*
X128246094Y-77534323D01*
X128246094Y-77534323D02*
X128293713Y-77343847D01*
X128293713Y-77343847D02*
X128293713Y-77200990D01*
X128293713Y-77200990D02*
X128246094Y-77010514D01*
X128246094Y-77010514D02*
X128198475Y-76915276D01*
X128198475Y-76915276D02*
X128103237Y-76820038D01*
X128103237Y-76820038D02*
X127960380Y-76772419D01*
X127960380Y-76772419D02*
X127865142Y-76772419D01*
X127865142Y-76772419D02*
X127722285Y-76820038D01*
X127722285Y-76820038D02*
X127674666Y-76867657D01*
X127198475Y-77772419D02*
X127007999Y-77772419D01*
X127007999Y-77772419D02*
X126912761Y-77724800D01*
X126912761Y-77724800D02*
X126865142Y-77677180D01*
X126865142Y-77677180D02*
X126769904Y-77534323D01*
X126769904Y-77534323D02*
X126722285Y-77343847D01*
X126722285Y-77343847D02*
X126722285Y-76962895D01*
X126722285Y-76962895D02*
X126769904Y-76867657D01*
X126769904Y-76867657D02*
X126817523Y-76820038D01*
X126817523Y-76820038D02*
X126912761Y-76772419D01*
X126912761Y-76772419D02*
X127103237Y-76772419D01*
X127103237Y-76772419D02*
X127198475Y-76820038D01*
X127198475Y-76820038D02*
X127246094Y-76867657D01*
X127246094Y-76867657D02*
X127293713Y-76962895D01*
X127293713Y-76962895D02*
X127293713Y-77200990D01*
X127293713Y-77200990D02*
X127246094Y-77296228D01*
X127246094Y-77296228D02*
X127198475Y-77343847D01*
X127198475Y-77343847D02*
X127103237Y-77391466D01*
X127103237Y-77391466D02*
X126912761Y-77391466D01*
X126912761Y-77391466D02*
X126817523Y-77343847D01*
X126817523Y-77343847D02*
X126769904Y-77296228D01*
X126769904Y-77296228D02*
X126722285Y-77200990D01*
X227972857Y-65434380D02*
X228020476Y-65482000D01*
X228020476Y-65482000D02*
X228163333Y-65529619D01*
X228163333Y-65529619D02*
X228258571Y-65529619D01*
X228258571Y-65529619D02*
X228401428Y-65482000D01*
X228401428Y-65482000D02*
X228496666Y-65386761D01*
X228496666Y-65386761D02*
X228544285Y-65291523D01*
X228544285Y-65291523D02*
X228591904Y-65101047D01*
X228591904Y-65101047D02*
X228591904Y-64958190D01*
X228591904Y-64958190D02*
X228544285Y-64767714D01*
X228544285Y-64767714D02*
X228496666Y-64672476D01*
X228496666Y-64672476D02*
X228401428Y-64577238D01*
X228401428Y-64577238D02*
X228258571Y-64529619D01*
X228258571Y-64529619D02*
X228163333Y-64529619D01*
X228163333Y-64529619D02*
X228020476Y-64577238D01*
X228020476Y-64577238D02*
X227972857Y-64624857D01*
X227020476Y-65529619D02*
X227591904Y-65529619D01*
X227306190Y-65529619D02*
X227306190Y-64529619D01*
X227306190Y-64529619D02*
X227401428Y-64672476D01*
X227401428Y-64672476D02*
X227496666Y-64767714D01*
X227496666Y-64767714D02*
X227591904Y-64815333D01*
X226449047Y-64958190D02*
X226544285Y-64910571D01*
X226544285Y-64910571D02*
X226591904Y-64862952D01*
X226591904Y-64862952D02*
X226639523Y-64767714D01*
X226639523Y-64767714D02*
X226639523Y-64720095D01*
X226639523Y-64720095D02*
X226591904Y-64624857D01*
X226591904Y-64624857D02*
X226544285Y-64577238D01*
X226544285Y-64577238D02*
X226449047Y-64529619D01*
X226449047Y-64529619D02*
X226258571Y-64529619D01*
X226258571Y-64529619D02*
X226163333Y-64577238D01*
X226163333Y-64577238D02*
X226115714Y-64624857D01*
X226115714Y-64624857D02*
X226068095Y-64720095D01*
X226068095Y-64720095D02*
X226068095Y-64767714D01*
X226068095Y-64767714D02*
X226115714Y-64862952D01*
X226115714Y-64862952D02*
X226163333Y-64910571D01*
X226163333Y-64910571D02*
X226258571Y-64958190D01*
X226258571Y-64958190D02*
X226449047Y-64958190D01*
X226449047Y-64958190D02*
X226544285Y-65005809D01*
X226544285Y-65005809D02*
X226591904Y-65053428D01*
X226591904Y-65053428D02*
X226639523Y-65148666D01*
X226639523Y-65148666D02*
X226639523Y-65339142D01*
X226639523Y-65339142D02*
X226591904Y-65434380D01*
X226591904Y-65434380D02*
X226544285Y-65482000D01*
X226544285Y-65482000D02*
X226449047Y-65529619D01*
X226449047Y-65529619D02*
X226258571Y-65529619D01*
X226258571Y-65529619D02*
X226163333Y-65482000D01*
X226163333Y-65482000D02*
X226115714Y-65434380D01*
X226115714Y-65434380D02*
X226068095Y-65339142D01*
X226068095Y-65339142D02*
X226068095Y-65148666D01*
X226068095Y-65148666D02*
X226115714Y-65053428D01*
X226115714Y-65053428D02*
X226163333Y-65005809D01*
X226163333Y-65005809D02*
X226258571Y-64958190D01*
X213799657Y-65434380D02*
X213847276Y-65482000D01*
X213847276Y-65482000D02*
X213990133Y-65529619D01*
X213990133Y-65529619D02*
X214085371Y-65529619D01*
X214085371Y-65529619D02*
X214228228Y-65482000D01*
X214228228Y-65482000D02*
X214323466Y-65386761D01*
X214323466Y-65386761D02*
X214371085Y-65291523D01*
X214371085Y-65291523D02*
X214418704Y-65101047D01*
X214418704Y-65101047D02*
X214418704Y-64958190D01*
X214418704Y-64958190D02*
X214371085Y-64767714D01*
X214371085Y-64767714D02*
X214323466Y-64672476D01*
X214323466Y-64672476D02*
X214228228Y-64577238D01*
X214228228Y-64577238D02*
X214085371Y-64529619D01*
X214085371Y-64529619D02*
X213990133Y-64529619D01*
X213990133Y-64529619D02*
X213847276Y-64577238D01*
X213847276Y-64577238D02*
X213799657Y-64624857D01*
X212847276Y-65529619D02*
X213418704Y-65529619D01*
X213132990Y-65529619D02*
X213132990Y-64529619D01*
X213132990Y-64529619D02*
X213228228Y-64672476D01*
X213228228Y-64672476D02*
X213323466Y-64767714D01*
X213323466Y-64767714D02*
X213418704Y-64815333D01*
X212371085Y-65529619D02*
X212180609Y-65529619D01*
X212180609Y-65529619D02*
X212085371Y-65482000D01*
X212085371Y-65482000D02*
X212037752Y-65434380D01*
X212037752Y-65434380D02*
X211942514Y-65291523D01*
X211942514Y-65291523D02*
X211894895Y-65101047D01*
X211894895Y-65101047D02*
X211894895Y-64720095D01*
X211894895Y-64720095D02*
X211942514Y-64624857D01*
X211942514Y-64624857D02*
X211990133Y-64577238D01*
X211990133Y-64577238D02*
X212085371Y-64529619D01*
X212085371Y-64529619D02*
X212275847Y-64529619D01*
X212275847Y-64529619D02*
X212371085Y-64577238D01*
X212371085Y-64577238D02*
X212418704Y-64624857D01*
X212418704Y-64624857D02*
X212466323Y-64720095D01*
X212466323Y-64720095D02*
X212466323Y-64958190D01*
X212466323Y-64958190D02*
X212418704Y-65053428D01*
X212418704Y-65053428D02*
X212371085Y-65101047D01*
X212371085Y-65101047D02*
X212275847Y-65148666D01*
X212275847Y-65148666D02*
X212085371Y-65148666D01*
X212085371Y-65148666D02*
X211990133Y-65101047D01*
X211990133Y-65101047D02*
X211942514Y-65053428D01*
X211942514Y-65053428D02*
X211894895Y-64958190D01*
X218955857Y-65434380D02*
X219003476Y-65482000D01*
X219003476Y-65482000D02*
X219146333Y-65529619D01*
X219146333Y-65529619D02*
X219241571Y-65529619D01*
X219241571Y-65529619D02*
X219384428Y-65482000D01*
X219384428Y-65482000D02*
X219479666Y-65386761D01*
X219479666Y-65386761D02*
X219527285Y-65291523D01*
X219527285Y-65291523D02*
X219574904Y-65101047D01*
X219574904Y-65101047D02*
X219574904Y-64958190D01*
X219574904Y-64958190D02*
X219527285Y-64767714D01*
X219527285Y-64767714D02*
X219479666Y-64672476D01*
X219479666Y-64672476D02*
X219384428Y-64577238D01*
X219384428Y-64577238D02*
X219241571Y-64529619D01*
X219241571Y-64529619D02*
X219146333Y-64529619D01*
X219146333Y-64529619D02*
X219003476Y-64577238D01*
X219003476Y-64577238D02*
X218955857Y-64624857D01*
X218574904Y-64624857D02*
X218527285Y-64577238D01*
X218527285Y-64577238D02*
X218432047Y-64529619D01*
X218432047Y-64529619D02*
X218193952Y-64529619D01*
X218193952Y-64529619D02*
X218098714Y-64577238D01*
X218098714Y-64577238D02*
X218051095Y-64624857D01*
X218051095Y-64624857D02*
X218003476Y-64720095D01*
X218003476Y-64720095D02*
X218003476Y-64815333D01*
X218003476Y-64815333D02*
X218051095Y-64958190D01*
X218051095Y-64958190D02*
X218622523Y-65529619D01*
X218622523Y-65529619D02*
X218003476Y-65529619D01*
X217670142Y-64529619D02*
X217051095Y-64529619D01*
X217051095Y-64529619D02*
X217384428Y-64910571D01*
X217384428Y-64910571D02*
X217241571Y-64910571D01*
X217241571Y-64910571D02*
X217146333Y-64958190D01*
X217146333Y-64958190D02*
X217098714Y-65005809D01*
X217098714Y-65005809D02*
X217051095Y-65101047D01*
X217051095Y-65101047D02*
X217051095Y-65339142D01*
X217051095Y-65339142D02*
X217098714Y-65434380D01*
X217098714Y-65434380D02*
X217146333Y-65482000D01*
X217146333Y-65482000D02*
X217241571Y-65529619D01*
X217241571Y-65529619D02*
X217527285Y-65529619D01*
X217527285Y-65529619D02*
X217622523Y-65482000D01*
X217622523Y-65482000D02*
X217670142Y-65434380D01*
X224010457Y-65383580D02*
X224058076Y-65431200D01*
X224058076Y-65431200D02*
X224200933Y-65478819D01*
X224200933Y-65478819D02*
X224296171Y-65478819D01*
X224296171Y-65478819D02*
X224439028Y-65431200D01*
X224439028Y-65431200D02*
X224534266Y-65335961D01*
X224534266Y-65335961D02*
X224581885Y-65240723D01*
X224581885Y-65240723D02*
X224629504Y-65050247D01*
X224629504Y-65050247D02*
X224629504Y-64907390D01*
X224629504Y-64907390D02*
X224581885Y-64716914D01*
X224581885Y-64716914D02*
X224534266Y-64621676D01*
X224534266Y-64621676D02*
X224439028Y-64526438D01*
X224439028Y-64526438D02*
X224296171Y-64478819D01*
X224296171Y-64478819D02*
X224200933Y-64478819D01*
X224200933Y-64478819D02*
X224058076Y-64526438D01*
X224058076Y-64526438D02*
X224010457Y-64574057D01*
X223629504Y-64574057D02*
X223581885Y-64526438D01*
X223581885Y-64526438D02*
X223486647Y-64478819D01*
X223486647Y-64478819D02*
X223248552Y-64478819D01*
X223248552Y-64478819D02*
X223153314Y-64526438D01*
X223153314Y-64526438D02*
X223105695Y-64574057D01*
X223105695Y-64574057D02*
X223058076Y-64669295D01*
X223058076Y-64669295D02*
X223058076Y-64764533D01*
X223058076Y-64764533D02*
X223105695Y-64907390D01*
X223105695Y-64907390D02*
X223677123Y-65478819D01*
X223677123Y-65478819D02*
X223058076Y-65478819D01*
X222439028Y-64478819D02*
X222343790Y-64478819D01*
X222343790Y-64478819D02*
X222248552Y-64526438D01*
X222248552Y-64526438D02*
X222200933Y-64574057D01*
X222200933Y-64574057D02*
X222153314Y-64669295D01*
X222153314Y-64669295D02*
X222105695Y-64859771D01*
X222105695Y-64859771D02*
X222105695Y-65097866D01*
X222105695Y-65097866D02*
X222153314Y-65288342D01*
X222153314Y-65288342D02*
X222200933Y-65383580D01*
X222200933Y-65383580D02*
X222248552Y-65431200D01*
X222248552Y-65431200D02*
X222343790Y-65478819D01*
X222343790Y-65478819D02*
X222439028Y-65478819D01*
X222439028Y-65478819D02*
X222534266Y-65431200D01*
X222534266Y-65431200D02*
X222581885Y-65383580D01*
X222581885Y-65383580D02*
X222629504Y-65288342D01*
X222629504Y-65288342D02*
X222677123Y-65097866D01*
X222677123Y-65097866D02*
X222677123Y-64859771D01*
X222677123Y-64859771D02*
X222629504Y-64669295D01*
X222629504Y-64669295D02*
X222581885Y-64574057D01*
X222581885Y-64574057D02*
X222534266Y-64526438D01*
X222534266Y-64526438D02*
X222439028Y-64478819D01*
X227972857Y-58474780D02*
X228020476Y-58522400D01*
X228020476Y-58522400D02*
X228163333Y-58570019D01*
X228163333Y-58570019D02*
X228258571Y-58570019D01*
X228258571Y-58570019D02*
X228401428Y-58522400D01*
X228401428Y-58522400D02*
X228496666Y-58427161D01*
X228496666Y-58427161D02*
X228544285Y-58331923D01*
X228544285Y-58331923D02*
X228591904Y-58141447D01*
X228591904Y-58141447D02*
X228591904Y-57998590D01*
X228591904Y-57998590D02*
X228544285Y-57808114D01*
X228544285Y-57808114D02*
X228496666Y-57712876D01*
X228496666Y-57712876D02*
X228401428Y-57617638D01*
X228401428Y-57617638D02*
X228258571Y-57570019D01*
X228258571Y-57570019D02*
X228163333Y-57570019D01*
X228163333Y-57570019D02*
X228020476Y-57617638D01*
X228020476Y-57617638D02*
X227972857Y-57665257D01*
X227020476Y-58570019D02*
X227591904Y-58570019D01*
X227306190Y-58570019D02*
X227306190Y-57570019D01*
X227306190Y-57570019D02*
X227401428Y-57712876D01*
X227401428Y-57712876D02*
X227496666Y-57808114D01*
X227496666Y-57808114D02*
X227591904Y-57855733D01*
X226115714Y-57570019D02*
X226591904Y-57570019D01*
X226591904Y-57570019D02*
X226639523Y-58046209D01*
X226639523Y-58046209D02*
X226591904Y-57998590D01*
X226591904Y-57998590D02*
X226496666Y-57950971D01*
X226496666Y-57950971D02*
X226258571Y-57950971D01*
X226258571Y-57950971D02*
X226163333Y-57998590D01*
X226163333Y-57998590D02*
X226115714Y-58046209D01*
X226115714Y-58046209D02*
X226068095Y-58141447D01*
X226068095Y-58141447D02*
X226068095Y-58379542D01*
X226068095Y-58379542D02*
X226115714Y-58474780D01*
X226115714Y-58474780D02*
X226163333Y-58522400D01*
X226163333Y-58522400D02*
X226258571Y-58570019D01*
X226258571Y-58570019D02*
X226496666Y-58570019D01*
X226496666Y-58570019D02*
X226591904Y-58522400D01*
X226591904Y-58522400D02*
X226639523Y-58474780D01*
X230392857Y-55909580D02*
X230440476Y-55957200D01*
X230440476Y-55957200D02*
X230583333Y-56004819D01*
X230583333Y-56004819D02*
X230678571Y-56004819D01*
X230678571Y-56004819D02*
X230821428Y-55957200D01*
X230821428Y-55957200D02*
X230916666Y-55861961D01*
X230916666Y-55861961D02*
X230964285Y-55766723D01*
X230964285Y-55766723D02*
X231011904Y-55576247D01*
X231011904Y-55576247D02*
X231011904Y-55433390D01*
X231011904Y-55433390D02*
X230964285Y-55242914D01*
X230964285Y-55242914D02*
X230916666Y-55147676D01*
X230916666Y-55147676D02*
X230821428Y-55052438D01*
X230821428Y-55052438D02*
X230678571Y-55004819D01*
X230678571Y-55004819D02*
X230583333Y-55004819D01*
X230583333Y-55004819D02*
X230440476Y-55052438D01*
X230440476Y-55052438D02*
X230392857Y-55100057D01*
X230011904Y-55100057D02*
X229964285Y-55052438D01*
X229964285Y-55052438D02*
X229869047Y-55004819D01*
X229869047Y-55004819D02*
X229630952Y-55004819D01*
X229630952Y-55004819D02*
X229535714Y-55052438D01*
X229535714Y-55052438D02*
X229488095Y-55100057D01*
X229488095Y-55100057D02*
X229440476Y-55195295D01*
X229440476Y-55195295D02*
X229440476Y-55290533D01*
X229440476Y-55290533D02*
X229488095Y-55433390D01*
X229488095Y-55433390D02*
X230059523Y-56004819D01*
X230059523Y-56004819D02*
X229440476Y-56004819D01*
X228488095Y-56004819D02*
X229059523Y-56004819D01*
X228773809Y-56004819D02*
X228773809Y-55004819D01*
X228773809Y-55004819D02*
X228869047Y-55147676D01*
X228869047Y-55147676D02*
X228964285Y-55242914D01*
X228964285Y-55242914D02*
X229059523Y-55290533D01*
X208516457Y-65434380D02*
X208564076Y-65482000D01*
X208564076Y-65482000D02*
X208706933Y-65529619D01*
X208706933Y-65529619D02*
X208802171Y-65529619D01*
X208802171Y-65529619D02*
X208945028Y-65482000D01*
X208945028Y-65482000D02*
X209040266Y-65386761D01*
X209040266Y-65386761D02*
X209087885Y-65291523D01*
X209087885Y-65291523D02*
X209135504Y-65101047D01*
X209135504Y-65101047D02*
X209135504Y-64958190D01*
X209135504Y-64958190D02*
X209087885Y-64767714D01*
X209087885Y-64767714D02*
X209040266Y-64672476D01*
X209040266Y-64672476D02*
X208945028Y-64577238D01*
X208945028Y-64577238D02*
X208802171Y-64529619D01*
X208802171Y-64529619D02*
X208706933Y-64529619D01*
X208706933Y-64529619D02*
X208564076Y-64577238D01*
X208564076Y-64577238D02*
X208516457Y-64624857D01*
X208135504Y-64624857D02*
X208087885Y-64577238D01*
X208087885Y-64577238D02*
X207992647Y-64529619D01*
X207992647Y-64529619D02*
X207754552Y-64529619D01*
X207754552Y-64529619D02*
X207659314Y-64577238D01*
X207659314Y-64577238D02*
X207611695Y-64624857D01*
X207611695Y-64624857D02*
X207564076Y-64720095D01*
X207564076Y-64720095D02*
X207564076Y-64815333D01*
X207564076Y-64815333D02*
X207611695Y-64958190D01*
X207611695Y-64958190D02*
X208183123Y-65529619D01*
X208183123Y-65529619D02*
X207564076Y-65529619D01*
X207183123Y-64624857D02*
X207135504Y-64577238D01*
X207135504Y-64577238D02*
X207040266Y-64529619D01*
X207040266Y-64529619D02*
X206802171Y-64529619D01*
X206802171Y-64529619D02*
X206706933Y-64577238D01*
X206706933Y-64577238D02*
X206659314Y-64624857D01*
X206659314Y-64624857D02*
X206611695Y-64720095D01*
X206611695Y-64720095D02*
X206611695Y-64815333D01*
X206611695Y-64815333D02*
X206659314Y-64958190D01*
X206659314Y-64958190D02*
X207230742Y-65529619D01*
X207230742Y-65529619D02*
X206611695Y-65529619D01*
X228074457Y-63605580D02*
X228122076Y-63653200D01*
X228122076Y-63653200D02*
X228264933Y-63700819D01*
X228264933Y-63700819D02*
X228360171Y-63700819D01*
X228360171Y-63700819D02*
X228503028Y-63653200D01*
X228503028Y-63653200D02*
X228598266Y-63557961D01*
X228598266Y-63557961D02*
X228645885Y-63462723D01*
X228645885Y-63462723D02*
X228693504Y-63272247D01*
X228693504Y-63272247D02*
X228693504Y-63129390D01*
X228693504Y-63129390D02*
X228645885Y-62938914D01*
X228645885Y-62938914D02*
X228598266Y-62843676D01*
X228598266Y-62843676D02*
X228503028Y-62748438D01*
X228503028Y-62748438D02*
X228360171Y-62700819D01*
X228360171Y-62700819D02*
X228264933Y-62700819D01*
X228264933Y-62700819D02*
X228122076Y-62748438D01*
X228122076Y-62748438D02*
X228074457Y-62796057D01*
X227122076Y-63700819D02*
X227693504Y-63700819D01*
X227407790Y-63700819D02*
X227407790Y-62700819D01*
X227407790Y-62700819D02*
X227503028Y-62843676D01*
X227503028Y-62843676D02*
X227598266Y-62938914D01*
X227598266Y-62938914D02*
X227693504Y-62986533D01*
X226788742Y-62700819D02*
X226122076Y-62700819D01*
X226122076Y-62700819D02*
X226550647Y-63700819D01*
X208465657Y-60608380D02*
X208513276Y-60656000D01*
X208513276Y-60656000D02*
X208656133Y-60703619D01*
X208656133Y-60703619D02*
X208751371Y-60703619D01*
X208751371Y-60703619D02*
X208894228Y-60656000D01*
X208894228Y-60656000D02*
X208989466Y-60560761D01*
X208989466Y-60560761D02*
X209037085Y-60465523D01*
X209037085Y-60465523D02*
X209084704Y-60275047D01*
X209084704Y-60275047D02*
X209084704Y-60132190D01*
X209084704Y-60132190D02*
X209037085Y-59941714D01*
X209037085Y-59941714D02*
X208989466Y-59846476D01*
X208989466Y-59846476D02*
X208894228Y-59751238D01*
X208894228Y-59751238D02*
X208751371Y-59703619D01*
X208751371Y-59703619D02*
X208656133Y-59703619D01*
X208656133Y-59703619D02*
X208513276Y-59751238D01*
X208513276Y-59751238D02*
X208465657Y-59798857D01*
X207513276Y-60703619D02*
X208084704Y-60703619D01*
X207798990Y-60703619D02*
X207798990Y-59703619D01*
X207798990Y-59703619D02*
X207894228Y-59846476D01*
X207894228Y-59846476D02*
X207989466Y-59941714D01*
X207989466Y-59941714D02*
X208084704Y-59989333D01*
X206656133Y-59703619D02*
X206846609Y-59703619D01*
X206846609Y-59703619D02*
X206941847Y-59751238D01*
X206941847Y-59751238D02*
X206989466Y-59798857D01*
X206989466Y-59798857D02*
X207084704Y-59941714D01*
X207084704Y-59941714D02*
X207132323Y-60132190D01*
X207132323Y-60132190D02*
X207132323Y-60513142D01*
X207132323Y-60513142D02*
X207084704Y-60608380D01*
X207084704Y-60608380D02*
X207037085Y-60656000D01*
X207037085Y-60656000D02*
X206941847Y-60703619D01*
X206941847Y-60703619D02*
X206751371Y-60703619D01*
X206751371Y-60703619D02*
X206656133Y-60656000D01*
X206656133Y-60656000D02*
X206608514Y-60608380D01*
X206608514Y-60608380D02*
X206560895Y-60513142D01*
X206560895Y-60513142D02*
X206560895Y-60275047D01*
X206560895Y-60275047D02*
X206608514Y-60179809D01*
X206608514Y-60179809D02*
X206656133Y-60132190D01*
X206656133Y-60132190D02*
X206751371Y-60084571D01*
X206751371Y-60084571D02*
X206941847Y-60084571D01*
X206941847Y-60084571D02*
X207037085Y-60132190D01*
X207037085Y-60132190D02*
X207084704Y-60179809D01*
X207084704Y-60179809D02*
X207132323Y-60275047D01*
X134786666Y-58935580D02*
X134834285Y-58983200D01*
X134834285Y-58983200D02*
X134977142Y-59030819D01*
X134977142Y-59030819D02*
X135072380Y-59030819D01*
X135072380Y-59030819D02*
X135215237Y-58983200D01*
X135215237Y-58983200D02*
X135310475Y-58887961D01*
X135310475Y-58887961D02*
X135358094Y-58792723D01*
X135358094Y-58792723D02*
X135405713Y-58602247D01*
X135405713Y-58602247D02*
X135405713Y-58459390D01*
X135405713Y-58459390D02*
X135358094Y-58268914D01*
X135358094Y-58268914D02*
X135310475Y-58173676D01*
X135310475Y-58173676D02*
X135215237Y-58078438D01*
X135215237Y-58078438D02*
X135072380Y-58030819D01*
X135072380Y-58030819D02*
X134977142Y-58030819D01*
X134977142Y-58030819D02*
X134834285Y-58078438D01*
X134834285Y-58078438D02*
X134786666Y-58126057D01*
X134453332Y-58030819D02*
X133834285Y-58030819D01*
X133834285Y-58030819D02*
X134167618Y-58411771D01*
X134167618Y-58411771D02*
X134024761Y-58411771D01*
X134024761Y-58411771D02*
X133929523Y-58459390D01*
X133929523Y-58459390D02*
X133881904Y-58507009D01*
X133881904Y-58507009D02*
X133834285Y-58602247D01*
X133834285Y-58602247D02*
X133834285Y-58840342D01*
X133834285Y-58840342D02*
X133881904Y-58935580D01*
X133881904Y-58935580D02*
X133929523Y-58983200D01*
X133929523Y-58983200D02*
X134024761Y-59030819D01*
X134024761Y-59030819D02*
X134310475Y-59030819D01*
X134310475Y-59030819D02*
X134405713Y-58983200D01*
X134405713Y-58983200D02*
X134453332Y-58935580D01*
X120308666Y-58935580D02*
X120356285Y-58983200D01*
X120356285Y-58983200D02*
X120499142Y-59030819D01*
X120499142Y-59030819D02*
X120594380Y-59030819D01*
X120594380Y-59030819D02*
X120737237Y-58983200D01*
X120737237Y-58983200D02*
X120832475Y-58887961D01*
X120832475Y-58887961D02*
X120880094Y-58792723D01*
X120880094Y-58792723D02*
X120927713Y-58602247D01*
X120927713Y-58602247D02*
X120927713Y-58459390D01*
X120927713Y-58459390D02*
X120880094Y-58268914D01*
X120880094Y-58268914D02*
X120832475Y-58173676D01*
X120832475Y-58173676D02*
X120737237Y-58078438D01*
X120737237Y-58078438D02*
X120594380Y-58030819D01*
X120594380Y-58030819D02*
X120499142Y-58030819D01*
X120499142Y-58030819D02*
X120356285Y-58078438D01*
X120356285Y-58078438D02*
X120308666Y-58126057D01*
X119451523Y-58364152D02*
X119451523Y-59030819D01*
X119689618Y-57983200D02*
X119927713Y-58697485D01*
X119927713Y-58697485D02*
X119308666Y-58697485D01*
X189009257Y-49686380D02*
X189056876Y-49734000D01*
X189056876Y-49734000D02*
X189199733Y-49781619D01*
X189199733Y-49781619D02*
X189294971Y-49781619D01*
X189294971Y-49781619D02*
X189437828Y-49734000D01*
X189437828Y-49734000D02*
X189533066Y-49638761D01*
X189533066Y-49638761D02*
X189580685Y-49543523D01*
X189580685Y-49543523D02*
X189628304Y-49353047D01*
X189628304Y-49353047D02*
X189628304Y-49210190D01*
X189628304Y-49210190D02*
X189580685Y-49019714D01*
X189580685Y-49019714D02*
X189533066Y-48924476D01*
X189533066Y-48924476D02*
X189437828Y-48829238D01*
X189437828Y-48829238D02*
X189294971Y-48781619D01*
X189294971Y-48781619D02*
X189199733Y-48781619D01*
X189199733Y-48781619D02*
X189056876Y-48829238D01*
X189056876Y-48829238D02*
X189009257Y-48876857D01*
X188152114Y-49114952D02*
X188152114Y-49781619D01*
X188390209Y-48734000D02*
X188628304Y-49448285D01*
X188628304Y-49448285D02*
X188009257Y-49448285D01*
X187199733Y-49114952D02*
X187199733Y-49781619D01*
X187437828Y-48734000D02*
X187675923Y-49448285D01*
X187675923Y-49448285D02*
X187056876Y-49448285D01*
X178087257Y-49686380D02*
X178134876Y-49734000D01*
X178134876Y-49734000D02*
X178277733Y-49781619D01*
X178277733Y-49781619D02*
X178372971Y-49781619D01*
X178372971Y-49781619D02*
X178515828Y-49734000D01*
X178515828Y-49734000D02*
X178611066Y-49638761D01*
X178611066Y-49638761D02*
X178658685Y-49543523D01*
X178658685Y-49543523D02*
X178706304Y-49353047D01*
X178706304Y-49353047D02*
X178706304Y-49210190D01*
X178706304Y-49210190D02*
X178658685Y-49019714D01*
X178658685Y-49019714D02*
X178611066Y-48924476D01*
X178611066Y-48924476D02*
X178515828Y-48829238D01*
X178515828Y-48829238D02*
X178372971Y-48781619D01*
X178372971Y-48781619D02*
X178277733Y-48781619D01*
X178277733Y-48781619D02*
X178134876Y-48829238D01*
X178134876Y-48829238D02*
X178087257Y-48876857D01*
X177182495Y-48781619D02*
X177658685Y-48781619D01*
X177658685Y-48781619D02*
X177706304Y-49257809D01*
X177706304Y-49257809D02*
X177658685Y-49210190D01*
X177658685Y-49210190D02*
X177563447Y-49162571D01*
X177563447Y-49162571D02*
X177325352Y-49162571D01*
X177325352Y-49162571D02*
X177230114Y-49210190D01*
X177230114Y-49210190D02*
X177182495Y-49257809D01*
X177182495Y-49257809D02*
X177134876Y-49353047D01*
X177134876Y-49353047D02*
X177134876Y-49591142D01*
X177134876Y-49591142D02*
X177182495Y-49686380D01*
X177182495Y-49686380D02*
X177230114Y-49734000D01*
X177230114Y-49734000D02*
X177325352Y-49781619D01*
X177325352Y-49781619D02*
X177563447Y-49781619D01*
X177563447Y-49781619D02*
X177658685Y-49734000D01*
X177658685Y-49734000D02*
X177706304Y-49686380D01*
X176753923Y-48876857D02*
X176706304Y-48829238D01*
X176706304Y-48829238D02*
X176611066Y-48781619D01*
X176611066Y-48781619D02*
X176372971Y-48781619D01*
X176372971Y-48781619D02*
X176277733Y-48829238D01*
X176277733Y-48829238D02*
X176230114Y-48876857D01*
X176230114Y-48876857D02*
X176182495Y-48972095D01*
X176182495Y-48972095D02*
X176182495Y-49067333D01*
X176182495Y-49067333D02*
X176230114Y-49210190D01*
X176230114Y-49210190D02*
X176801542Y-49781619D01*
X176801542Y-49781619D02*
X176182495Y-49781619D01*
X226392857Y-46009580D02*
X226440476Y-46057200D01*
X226440476Y-46057200D02*
X226583333Y-46104819D01*
X226583333Y-46104819D02*
X226678571Y-46104819D01*
X226678571Y-46104819D02*
X226821428Y-46057200D01*
X226821428Y-46057200D02*
X226916666Y-45961961D01*
X226916666Y-45961961D02*
X226964285Y-45866723D01*
X226964285Y-45866723D02*
X227011904Y-45676247D01*
X227011904Y-45676247D02*
X227011904Y-45533390D01*
X227011904Y-45533390D02*
X226964285Y-45342914D01*
X226964285Y-45342914D02*
X226916666Y-45247676D01*
X226916666Y-45247676D02*
X226821428Y-45152438D01*
X226821428Y-45152438D02*
X226678571Y-45104819D01*
X226678571Y-45104819D02*
X226583333Y-45104819D01*
X226583333Y-45104819D02*
X226440476Y-45152438D01*
X226440476Y-45152438D02*
X226392857Y-45200057D01*
X225535714Y-45438152D02*
X225535714Y-46104819D01*
X225773809Y-45057200D02*
X226011904Y-45771485D01*
X226011904Y-45771485D02*
X225392857Y-45771485D01*
X224583333Y-45104819D02*
X224773809Y-45104819D01*
X224773809Y-45104819D02*
X224869047Y-45152438D01*
X224869047Y-45152438D02*
X224916666Y-45200057D01*
X224916666Y-45200057D02*
X225011904Y-45342914D01*
X225011904Y-45342914D02*
X225059523Y-45533390D01*
X225059523Y-45533390D02*
X225059523Y-45914342D01*
X225059523Y-45914342D02*
X225011904Y-46009580D01*
X225011904Y-46009580D02*
X224964285Y-46057200D01*
X224964285Y-46057200D02*
X224869047Y-46104819D01*
X224869047Y-46104819D02*
X224678571Y-46104819D01*
X224678571Y-46104819D02*
X224583333Y-46057200D01*
X224583333Y-46057200D02*
X224535714Y-46009580D01*
X224535714Y-46009580D02*
X224488095Y-45914342D01*
X224488095Y-45914342D02*
X224488095Y-45676247D01*
X224488095Y-45676247D02*
X224535714Y-45581009D01*
X224535714Y-45581009D02*
X224583333Y-45533390D01*
X224583333Y-45533390D02*
X224678571Y-45485771D01*
X224678571Y-45485771D02*
X224869047Y-45485771D01*
X224869047Y-45485771D02*
X224964285Y-45533390D01*
X224964285Y-45533390D02*
X225011904Y-45581009D01*
X225011904Y-45581009D02*
X225059523Y-45676247D01*
X208516457Y-58830380D02*
X208564076Y-58878000D01*
X208564076Y-58878000D02*
X208706933Y-58925619D01*
X208706933Y-58925619D02*
X208802171Y-58925619D01*
X208802171Y-58925619D02*
X208945028Y-58878000D01*
X208945028Y-58878000D02*
X209040266Y-58782761D01*
X209040266Y-58782761D02*
X209087885Y-58687523D01*
X209087885Y-58687523D02*
X209135504Y-58497047D01*
X209135504Y-58497047D02*
X209135504Y-58354190D01*
X209135504Y-58354190D02*
X209087885Y-58163714D01*
X209087885Y-58163714D02*
X209040266Y-58068476D01*
X209040266Y-58068476D02*
X208945028Y-57973238D01*
X208945028Y-57973238D02*
X208802171Y-57925619D01*
X208802171Y-57925619D02*
X208706933Y-57925619D01*
X208706933Y-57925619D02*
X208564076Y-57973238D01*
X208564076Y-57973238D02*
X208516457Y-58020857D01*
X207659314Y-58258952D02*
X207659314Y-58925619D01*
X207897409Y-57878000D02*
X208135504Y-58592285D01*
X208135504Y-58592285D02*
X207516457Y-58592285D01*
X207087885Y-58925619D02*
X206897409Y-58925619D01*
X206897409Y-58925619D02*
X206802171Y-58878000D01*
X206802171Y-58878000D02*
X206754552Y-58830380D01*
X206754552Y-58830380D02*
X206659314Y-58687523D01*
X206659314Y-58687523D02*
X206611695Y-58497047D01*
X206611695Y-58497047D02*
X206611695Y-58116095D01*
X206611695Y-58116095D02*
X206659314Y-58020857D01*
X206659314Y-58020857D02*
X206706933Y-57973238D01*
X206706933Y-57973238D02*
X206802171Y-57925619D01*
X206802171Y-57925619D02*
X206992647Y-57925619D01*
X206992647Y-57925619D02*
X207087885Y-57973238D01*
X207087885Y-57973238D02*
X207135504Y-58020857D01*
X207135504Y-58020857D02*
X207183123Y-58116095D01*
X207183123Y-58116095D02*
X207183123Y-58354190D01*
X207183123Y-58354190D02*
X207135504Y-58449428D01*
X207135504Y-58449428D02*
X207087885Y-58497047D01*
X207087885Y-58497047D02*
X206992647Y-58544666D01*
X206992647Y-58544666D02*
X206802171Y-58544666D01*
X206802171Y-58544666D02*
X206706933Y-58497047D01*
X206706933Y-58497047D02*
X206659314Y-58449428D01*
X206659314Y-58449428D02*
X206611695Y-58354190D01*
X135262857Y-77677180D02*
X135310476Y-77724800D01*
X135310476Y-77724800D02*
X135453333Y-77772419D01*
X135453333Y-77772419D02*
X135548571Y-77772419D01*
X135548571Y-77772419D02*
X135691428Y-77724800D01*
X135691428Y-77724800D02*
X135786666Y-77629561D01*
X135786666Y-77629561D02*
X135834285Y-77534323D01*
X135834285Y-77534323D02*
X135881904Y-77343847D01*
X135881904Y-77343847D02*
X135881904Y-77200990D01*
X135881904Y-77200990D02*
X135834285Y-77010514D01*
X135834285Y-77010514D02*
X135786666Y-76915276D01*
X135786666Y-76915276D02*
X135691428Y-76820038D01*
X135691428Y-76820038D02*
X135548571Y-76772419D01*
X135548571Y-76772419D02*
X135453333Y-76772419D01*
X135453333Y-76772419D02*
X135310476Y-76820038D01*
X135310476Y-76820038D02*
X135262857Y-76867657D01*
X134310476Y-77772419D02*
X134881904Y-77772419D01*
X134596190Y-77772419D02*
X134596190Y-76772419D01*
X134596190Y-76772419D02*
X134691428Y-76915276D01*
X134691428Y-76915276D02*
X134786666Y-77010514D01*
X134786666Y-77010514D02*
X134881904Y-77058133D01*
X133691428Y-76772419D02*
X133596190Y-76772419D01*
X133596190Y-76772419D02*
X133500952Y-76820038D01*
X133500952Y-76820038D02*
X133453333Y-76867657D01*
X133453333Y-76867657D02*
X133405714Y-76962895D01*
X133405714Y-76962895D02*
X133358095Y-77153371D01*
X133358095Y-77153371D02*
X133358095Y-77391466D01*
X133358095Y-77391466D02*
X133405714Y-77581942D01*
X133405714Y-77581942D02*
X133453333Y-77677180D01*
X133453333Y-77677180D02*
X133500952Y-77724800D01*
X133500952Y-77724800D02*
X133596190Y-77772419D01*
X133596190Y-77772419D02*
X133691428Y-77772419D01*
X133691428Y-77772419D02*
X133786666Y-77724800D01*
X133786666Y-77724800D02*
X133834285Y-77677180D01*
X133834285Y-77677180D02*
X133881904Y-77581942D01*
X133881904Y-77581942D02*
X133929523Y-77391466D01*
X133929523Y-77391466D02*
X133929523Y-77153371D01*
X133929523Y-77153371D02*
X133881904Y-76962895D01*
X133881904Y-76962895D02*
X133834285Y-76867657D01*
X133834285Y-76867657D02*
X133786666Y-76820038D01*
X133786666Y-76820038D02*
X133691428Y-76772419D01*
X218828857Y-46016080D02*
X218876476Y-46063700D01*
X218876476Y-46063700D02*
X219019333Y-46111319D01*
X219019333Y-46111319D02*
X219114571Y-46111319D01*
X219114571Y-46111319D02*
X219257428Y-46063700D01*
X219257428Y-46063700D02*
X219352666Y-45968461D01*
X219352666Y-45968461D02*
X219400285Y-45873223D01*
X219400285Y-45873223D02*
X219447904Y-45682747D01*
X219447904Y-45682747D02*
X219447904Y-45539890D01*
X219447904Y-45539890D02*
X219400285Y-45349414D01*
X219400285Y-45349414D02*
X219352666Y-45254176D01*
X219352666Y-45254176D02*
X219257428Y-45158938D01*
X219257428Y-45158938D02*
X219114571Y-45111319D01*
X219114571Y-45111319D02*
X219019333Y-45111319D01*
X219019333Y-45111319D02*
X218876476Y-45158938D01*
X218876476Y-45158938D02*
X218828857Y-45206557D01*
X217971714Y-45444652D02*
X217971714Y-46111319D01*
X218209809Y-45063700D02*
X218447904Y-45777985D01*
X218447904Y-45777985D02*
X217828857Y-45777985D01*
X216971714Y-45111319D02*
X217447904Y-45111319D01*
X217447904Y-45111319D02*
X217495523Y-45587509D01*
X217495523Y-45587509D02*
X217447904Y-45539890D01*
X217447904Y-45539890D02*
X217352666Y-45492271D01*
X217352666Y-45492271D02*
X217114571Y-45492271D01*
X217114571Y-45492271D02*
X217019333Y-45539890D01*
X217019333Y-45539890D02*
X216971714Y-45587509D01*
X216971714Y-45587509D02*
X216924095Y-45682747D01*
X216924095Y-45682747D02*
X216924095Y-45920842D01*
X216924095Y-45920842D02*
X216971714Y-46016080D01*
X216971714Y-46016080D02*
X217019333Y-46063700D01*
X217019333Y-46063700D02*
X217114571Y-46111319D01*
X217114571Y-46111319D02*
X217352666Y-46111319D01*
X217352666Y-46111319D02*
X217447904Y-46063700D01*
X217447904Y-46063700D02*
X217495523Y-46016080D01*
X244490476Y-40954819D02*
X244823809Y-40478628D01*
X245061904Y-40954819D02*
X245061904Y-39954819D01*
X245061904Y-39954819D02*
X244680952Y-39954819D01*
X244680952Y-39954819D02*
X244585714Y-40002438D01*
X244585714Y-40002438D02*
X244538095Y-40050057D01*
X244538095Y-40050057D02*
X244490476Y-40145295D01*
X244490476Y-40145295D02*
X244490476Y-40288152D01*
X244490476Y-40288152D02*
X244538095Y-40383390D01*
X244538095Y-40383390D02*
X244585714Y-40431009D01*
X244585714Y-40431009D02*
X244680952Y-40478628D01*
X244680952Y-40478628D02*
X245061904Y-40478628D01*
X244061904Y-40954819D02*
X244061904Y-39954819D01*
X244061904Y-39954819D02*
X243490476Y-40954819D01*
X243490476Y-40954819D02*
X243490476Y-39954819D01*
X243061904Y-40050057D02*
X243014285Y-40002438D01*
X243014285Y-40002438D02*
X242919047Y-39954819D01*
X242919047Y-39954819D02*
X242680952Y-39954819D01*
X242680952Y-39954819D02*
X242585714Y-40002438D01*
X242585714Y-40002438D02*
X242538095Y-40050057D01*
X242538095Y-40050057D02*
X242490476Y-40145295D01*
X242490476Y-40145295D02*
X242490476Y-40240533D01*
X242490476Y-40240533D02*
X242538095Y-40383390D01*
X242538095Y-40383390D02*
X243109523Y-40954819D01*
X243109523Y-40954819D02*
X242490476Y-40954819D01*
X246619047Y-36754819D02*
X247190475Y-36754819D01*
X246904761Y-36754819D02*
X246904761Y-35754819D01*
X246904761Y-35754819D02*
X246999999Y-35897676D01*
X246999999Y-35897676D02*
X247095237Y-35992914D01*
X247095237Y-35992914D02*
X247190475Y-36040533D01*
X246190475Y-36754819D02*
X246190475Y-35754819D01*
X246095237Y-36373866D02*
X245809523Y-36754819D01*
X245809523Y-36088152D02*
X246190475Y-36469104D01*
X143366666Y-82254819D02*
X143699999Y-81778628D01*
X143938094Y-82254819D02*
X143938094Y-81254819D01*
X143938094Y-81254819D02*
X143557142Y-81254819D01*
X143557142Y-81254819D02*
X143461904Y-81302438D01*
X143461904Y-81302438D02*
X143414285Y-81350057D01*
X143414285Y-81350057D02*
X143366666Y-81445295D01*
X143366666Y-81445295D02*
X143366666Y-81588152D01*
X143366666Y-81588152D02*
X143414285Y-81683390D01*
X143414285Y-81683390D02*
X143461904Y-81731009D01*
X143461904Y-81731009D02*
X143557142Y-81778628D01*
X143557142Y-81778628D02*
X143938094Y-81778628D01*
X142938094Y-82254819D02*
X142938094Y-81254819D01*
X142938094Y-81254819D02*
X142366666Y-82254819D01*
X142366666Y-82254819D02*
X142366666Y-81254819D01*
X141938094Y-81350057D02*
X141890475Y-81302438D01*
X141890475Y-81302438D02*
X141795237Y-81254819D01*
X141795237Y-81254819D02*
X141557142Y-81254819D01*
X141557142Y-81254819D02*
X141461904Y-81302438D01*
X141461904Y-81302438D02*
X141414285Y-81350057D01*
X141414285Y-81350057D02*
X141366666Y-81445295D01*
X141366666Y-81445295D02*
X141366666Y-81540533D01*
X141366666Y-81540533D02*
X141414285Y-81683390D01*
X141414285Y-81683390D02*
X141985713Y-82254819D01*
X141985713Y-82254819D02*
X141366666Y-82254819D01*
X140414285Y-82254819D02*
X140985713Y-82254819D01*
X140699999Y-82254819D02*
X140699999Y-81254819D01*
X140699999Y-81254819D02*
X140795237Y-81397676D01*
X140795237Y-81397676D02*
X140890475Y-81492914D01*
X140890475Y-81492914D02*
X140985713Y-81540533D01*
X141319047Y-84054819D02*
X141890475Y-84054819D01*
X141604761Y-84054819D02*
X141604761Y-83054819D01*
X141604761Y-83054819D02*
X141699999Y-83197676D01*
X141699999Y-83197676D02*
X141795237Y-83292914D01*
X141795237Y-83292914D02*
X141890475Y-83340533D01*
X140890475Y-84054819D02*
X140890475Y-83054819D01*
X140795237Y-83673866D02*
X140509523Y-84054819D01*
X140509523Y-83388152D02*
X140890475Y-83769104D01*
X223858057Y-57865180D02*
X223905676Y-57912800D01*
X223905676Y-57912800D02*
X224048533Y-57960419D01*
X224048533Y-57960419D02*
X224143771Y-57960419D01*
X224143771Y-57960419D02*
X224286628Y-57912800D01*
X224286628Y-57912800D02*
X224381866Y-57817561D01*
X224381866Y-57817561D02*
X224429485Y-57722323D01*
X224429485Y-57722323D02*
X224477104Y-57531847D01*
X224477104Y-57531847D02*
X224477104Y-57388990D01*
X224477104Y-57388990D02*
X224429485Y-57198514D01*
X224429485Y-57198514D02*
X224381866Y-57103276D01*
X224381866Y-57103276D02*
X224286628Y-57008038D01*
X224286628Y-57008038D02*
X224143771Y-56960419D01*
X224143771Y-56960419D02*
X224048533Y-56960419D01*
X224048533Y-56960419D02*
X223905676Y-57008038D01*
X223905676Y-57008038D02*
X223858057Y-57055657D01*
X223000914Y-56960419D02*
X223191390Y-56960419D01*
X223191390Y-56960419D02*
X223286628Y-57008038D01*
X223286628Y-57008038D02*
X223334247Y-57055657D01*
X223334247Y-57055657D02*
X223429485Y-57198514D01*
X223429485Y-57198514D02*
X223477104Y-57388990D01*
X223477104Y-57388990D02*
X223477104Y-57769942D01*
X223477104Y-57769942D02*
X223429485Y-57865180D01*
X223429485Y-57865180D02*
X223381866Y-57912800D01*
X223381866Y-57912800D02*
X223286628Y-57960419D01*
X223286628Y-57960419D02*
X223096152Y-57960419D01*
X223096152Y-57960419D02*
X223000914Y-57912800D01*
X223000914Y-57912800D02*
X222953295Y-57865180D01*
X222953295Y-57865180D02*
X222905676Y-57769942D01*
X222905676Y-57769942D02*
X222905676Y-57531847D01*
X222905676Y-57531847D02*
X222953295Y-57436609D01*
X222953295Y-57436609D02*
X223000914Y-57388990D01*
X223000914Y-57388990D02*
X223096152Y-57341371D01*
X223096152Y-57341371D02*
X223286628Y-57341371D01*
X223286628Y-57341371D02*
X223381866Y-57388990D01*
X223381866Y-57388990D02*
X223429485Y-57436609D01*
X223429485Y-57436609D02*
X223477104Y-57531847D01*
X222572342Y-56960419D02*
X221953295Y-56960419D01*
X221953295Y-56960419D02*
X222286628Y-57341371D01*
X222286628Y-57341371D02*
X222143771Y-57341371D01*
X222143771Y-57341371D02*
X222048533Y-57388990D01*
X222048533Y-57388990D02*
X222000914Y-57436609D01*
X222000914Y-57436609D02*
X221953295Y-57531847D01*
X221953295Y-57531847D02*
X221953295Y-57769942D01*
X221953295Y-57769942D02*
X222000914Y-57865180D01*
X222000914Y-57865180D02*
X222048533Y-57912800D01*
X222048533Y-57912800D02*
X222143771Y-57960419D01*
X222143771Y-57960419D02*
X222429485Y-57960419D01*
X222429485Y-57960419D02*
X222524723Y-57912800D01*
X222524723Y-57912800D02*
X222572342Y-57865180D01*
X201566666Y-107254819D02*
X201899999Y-106778628D01*
X202138094Y-107254819D02*
X202138094Y-106254819D01*
X202138094Y-106254819D02*
X201757142Y-106254819D01*
X201757142Y-106254819D02*
X201661904Y-106302438D01*
X201661904Y-106302438D02*
X201614285Y-106350057D01*
X201614285Y-106350057D02*
X201566666Y-106445295D01*
X201566666Y-106445295D02*
X201566666Y-106588152D01*
X201566666Y-106588152D02*
X201614285Y-106683390D01*
X201614285Y-106683390D02*
X201661904Y-106731009D01*
X201661904Y-106731009D02*
X201757142Y-106778628D01*
X201757142Y-106778628D02*
X202138094Y-106778628D01*
X201138094Y-107254819D02*
X201138094Y-106254819D01*
X201138094Y-106254819D02*
X200566666Y-107254819D01*
X200566666Y-107254819D02*
X200566666Y-106254819D01*
X199566666Y-107254819D02*
X200138094Y-107254819D01*
X199852380Y-107254819D02*
X199852380Y-106254819D01*
X199852380Y-106254819D02*
X199947618Y-106397676D01*
X199947618Y-106397676D02*
X200042856Y-106492914D01*
X200042856Y-106492914D02*
X200138094Y-106540533D01*
X198709523Y-106254819D02*
X198899999Y-106254819D01*
X198899999Y-106254819D02*
X198995237Y-106302438D01*
X198995237Y-106302438D02*
X199042856Y-106350057D01*
X199042856Y-106350057D02*
X199138094Y-106492914D01*
X199138094Y-106492914D02*
X199185713Y-106683390D01*
X199185713Y-106683390D02*
X199185713Y-107064342D01*
X199185713Y-107064342D02*
X199138094Y-107159580D01*
X199138094Y-107159580D02*
X199090475Y-107207200D01*
X199090475Y-107207200D02*
X198995237Y-107254819D01*
X198995237Y-107254819D02*
X198804761Y-107254819D01*
X198804761Y-107254819D02*
X198709523Y-107207200D01*
X198709523Y-107207200D02*
X198661904Y-107159580D01*
X198661904Y-107159580D02*
X198614285Y-107064342D01*
X198614285Y-107064342D02*
X198614285Y-106826247D01*
X198614285Y-106826247D02*
X198661904Y-106731009D01*
X198661904Y-106731009D02*
X198709523Y-106683390D01*
X198709523Y-106683390D02*
X198804761Y-106635771D01*
X198804761Y-106635771D02*
X198995237Y-106635771D01*
X198995237Y-106635771D02*
X199090475Y-106683390D01*
X199090475Y-106683390D02*
X199138094Y-106731009D01*
X199138094Y-106731009D02*
X199185713Y-106826247D01*
X201519047Y-108754819D02*
X202090475Y-108754819D01*
X201804761Y-108754819D02*
X201804761Y-107754819D01*
X201804761Y-107754819D02*
X201899999Y-107897676D01*
X201899999Y-107897676D02*
X201995237Y-107992914D01*
X201995237Y-107992914D02*
X202090475Y-108040533D01*
X201090475Y-108754819D02*
X201090475Y-107754819D01*
X200995237Y-108373866D02*
X200709523Y-108754819D01*
X200709523Y-108088152D02*
X201090475Y-108469104D01*
X249066666Y-104454819D02*
X249399999Y-103978628D01*
X249638094Y-104454819D02*
X249638094Y-103454819D01*
X249638094Y-103454819D02*
X249257142Y-103454819D01*
X249257142Y-103454819D02*
X249161904Y-103502438D01*
X249161904Y-103502438D02*
X249114285Y-103550057D01*
X249114285Y-103550057D02*
X249066666Y-103645295D01*
X249066666Y-103645295D02*
X249066666Y-103788152D01*
X249066666Y-103788152D02*
X249114285Y-103883390D01*
X249114285Y-103883390D02*
X249161904Y-103931009D01*
X249161904Y-103931009D02*
X249257142Y-103978628D01*
X249257142Y-103978628D02*
X249638094Y-103978628D01*
X248638094Y-104454819D02*
X248638094Y-103454819D01*
X248638094Y-103454819D02*
X248066666Y-104454819D01*
X248066666Y-104454819D02*
X248066666Y-103454819D01*
X247066666Y-104454819D02*
X247638094Y-104454819D01*
X247352380Y-104454819D02*
X247352380Y-103454819D01*
X247352380Y-103454819D02*
X247447618Y-103597676D01*
X247447618Y-103597676D02*
X247542856Y-103692914D01*
X247542856Y-103692914D02*
X247638094Y-103740533D01*
X246733332Y-103454819D02*
X246066666Y-103454819D01*
X246066666Y-103454819D02*
X246495237Y-104454819D01*
X246919047Y-105954819D02*
X247490475Y-105954819D01*
X247204761Y-105954819D02*
X247204761Y-104954819D01*
X247204761Y-104954819D02*
X247299999Y-105097676D01*
X247299999Y-105097676D02*
X247395237Y-105192914D01*
X247395237Y-105192914D02*
X247490475Y-105240533D01*
X246490475Y-105954819D02*
X246490475Y-104954819D01*
X246395237Y-105573866D02*
X246109523Y-105954819D01*
X246109523Y-105288152D02*
X246490475Y-105669104D01*
X157390476Y-93554819D02*
X157723809Y-93078628D01*
X157961904Y-93554819D02*
X157961904Y-92554819D01*
X157961904Y-92554819D02*
X157580952Y-92554819D01*
X157580952Y-92554819D02*
X157485714Y-92602438D01*
X157485714Y-92602438D02*
X157438095Y-92650057D01*
X157438095Y-92650057D02*
X157390476Y-92745295D01*
X157390476Y-92745295D02*
X157390476Y-92888152D01*
X157390476Y-92888152D02*
X157438095Y-92983390D01*
X157438095Y-92983390D02*
X157485714Y-93031009D01*
X157485714Y-93031009D02*
X157580952Y-93078628D01*
X157580952Y-93078628D02*
X157961904Y-93078628D01*
X156961904Y-93554819D02*
X156961904Y-92554819D01*
X156961904Y-92554819D02*
X156390476Y-93554819D01*
X156390476Y-93554819D02*
X156390476Y-92554819D01*
X156009523Y-92554819D02*
X155342857Y-92554819D01*
X155342857Y-92554819D02*
X155771428Y-93554819D01*
X157461904Y-97250057D02*
X157414285Y-97202438D01*
X157414285Y-97202438D02*
X157319047Y-97154819D01*
X157319047Y-97154819D02*
X157080952Y-97154819D01*
X157080952Y-97154819D02*
X156985714Y-97202438D01*
X156985714Y-97202438D02*
X156938095Y-97250057D01*
X156938095Y-97250057D02*
X156890476Y-97345295D01*
X156890476Y-97345295D02*
X156890476Y-97440533D01*
X156890476Y-97440533D02*
X156938095Y-97583390D01*
X156938095Y-97583390D02*
X157509523Y-98154819D01*
X157509523Y-98154819D02*
X156890476Y-98154819D01*
X156509523Y-97250057D02*
X156461904Y-97202438D01*
X156461904Y-97202438D02*
X156366666Y-97154819D01*
X156366666Y-97154819D02*
X156128571Y-97154819D01*
X156128571Y-97154819D02*
X156033333Y-97202438D01*
X156033333Y-97202438D02*
X155985714Y-97250057D01*
X155985714Y-97250057D02*
X155938095Y-97345295D01*
X155938095Y-97345295D02*
X155938095Y-97440533D01*
X155938095Y-97440533D02*
X155985714Y-97583390D01*
X155985714Y-97583390D02*
X156557142Y-98154819D01*
X156557142Y-98154819D02*
X155938095Y-98154819D01*
X244490476Y-31054819D02*
X244823809Y-30578628D01*
X245061904Y-31054819D02*
X245061904Y-30054819D01*
X245061904Y-30054819D02*
X244680952Y-30054819D01*
X244680952Y-30054819D02*
X244585714Y-30102438D01*
X244585714Y-30102438D02*
X244538095Y-30150057D01*
X244538095Y-30150057D02*
X244490476Y-30245295D01*
X244490476Y-30245295D02*
X244490476Y-30388152D01*
X244490476Y-30388152D02*
X244538095Y-30483390D01*
X244538095Y-30483390D02*
X244585714Y-30531009D01*
X244585714Y-30531009D02*
X244680952Y-30578628D01*
X244680952Y-30578628D02*
X245061904Y-30578628D01*
X244061904Y-31054819D02*
X244061904Y-30054819D01*
X244061904Y-30054819D02*
X243490476Y-31054819D01*
X243490476Y-31054819D02*
X243490476Y-30054819D01*
X242490476Y-31054819D02*
X243061904Y-31054819D01*
X242776190Y-31054819D02*
X242776190Y-30054819D01*
X242776190Y-30054819D02*
X242871428Y-30197676D01*
X242871428Y-30197676D02*
X242966666Y-30292914D01*
X242966666Y-30292914D02*
X243061904Y-30340533D01*
X246519047Y-32654819D02*
X247090475Y-32654819D01*
X246804761Y-32654819D02*
X246804761Y-31654819D01*
X246804761Y-31654819D02*
X246899999Y-31797676D01*
X246899999Y-31797676D02*
X246995237Y-31892914D01*
X246995237Y-31892914D02*
X247090475Y-31940533D01*
X246090475Y-32654819D02*
X246090475Y-31654819D01*
X245995237Y-32273866D02*
X245709523Y-32654819D01*
X245709523Y-31988152D02*
X246090475Y-32369104D01*
X146766666Y-99354819D02*
X147099999Y-98878628D01*
X147338094Y-99354819D02*
X147338094Y-98354819D01*
X147338094Y-98354819D02*
X146957142Y-98354819D01*
X146957142Y-98354819D02*
X146861904Y-98402438D01*
X146861904Y-98402438D02*
X146814285Y-98450057D01*
X146814285Y-98450057D02*
X146766666Y-98545295D01*
X146766666Y-98545295D02*
X146766666Y-98688152D01*
X146766666Y-98688152D02*
X146814285Y-98783390D01*
X146814285Y-98783390D02*
X146861904Y-98831009D01*
X146861904Y-98831009D02*
X146957142Y-98878628D01*
X146957142Y-98878628D02*
X147338094Y-98878628D01*
X146338094Y-99354819D02*
X146338094Y-98354819D01*
X146338094Y-98354819D02*
X145766666Y-99354819D01*
X145766666Y-99354819D02*
X145766666Y-98354819D01*
X144766666Y-99354819D02*
X145338094Y-99354819D01*
X145052380Y-99354819D02*
X145052380Y-98354819D01*
X145052380Y-98354819D02*
X145147618Y-98497676D01*
X145147618Y-98497676D02*
X145242856Y-98592914D01*
X145242856Y-98592914D02*
X145338094Y-98640533D01*
X144147618Y-98354819D02*
X144052380Y-98354819D01*
X144052380Y-98354819D02*
X143957142Y-98402438D01*
X143957142Y-98402438D02*
X143909523Y-98450057D01*
X143909523Y-98450057D02*
X143861904Y-98545295D01*
X143861904Y-98545295D02*
X143814285Y-98735771D01*
X143814285Y-98735771D02*
X143814285Y-98973866D01*
X143814285Y-98973866D02*
X143861904Y-99164342D01*
X143861904Y-99164342D02*
X143909523Y-99259580D01*
X143909523Y-99259580D02*
X143957142Y-99307200D01*
X143957142Y-99307200D02*
X144052380Y-99354819D01*
X144052380Y-99354819D02*
X144147618Y-99354819D01*
X144147618Y-99354819D02*
X144242856Y-99307200D01*
X144242856Y-99307200D02*
X144290475Y-99259580D01*
X144290475Y-99259580D02*
X144338094Y-99164342D01*
X144338094Y-99164342D02*
X144385713Y-98973866D01*
X144385713Y-98973866D02*
X144385713Y-98735771D01*
X144385713Y-98735771D02*
X144338094Y-98545295D01*
X144338094Y-98545295D02*
X144290475Y-98450057D01*
X144290475Y-98450057D02*
X144242856Y-98402438D01*
X144242856Y-98402438D02*
X144147618Y-98354819D01*
X146461904Y-103050057D02*
X146414285Y-103002438D01*
X146414285Y-103002438D02*
X146319047Y-102954819D01*
X146319047Y-102954819D02*
X146080952Y-102954819D01*
X146080952Y-102954819D02*
X145985714Y-103002438D01*
X145985714Y-103002438D02*
X145938095Y-103050057D01*
X145938095Y-103050057D02*
X145890476Y-103145295D01*
X145890476Y-103145295D02*
X145890476Y-103240533D01*
X145890476Y-103240533D02*
X145938095Y-103383390D01*
X145938095Y-103383390D02*
X146509523Y-103954819D01*
X146509523Y-103954819D02*
X145890476Y-103954819D01*
X145509523Y-103050057D02*
X145461904Y-103002438D01*
X145461904Y-103002438D02*
X145366666Y-102954819D01*
X145366666Y-102954819D02*
X145128571Y-102954819D01*
X145128571Y-102954819D02*
X145033333Y-103002438D01*
X145033333Y-103002438D02*
X144985714Y-103050057D01*
X144985714Y-103050057D02*
X144938095Y-103145295D01*
X144938095Y-103145295D02*
X144938095Y-103240533D01*
X144938095Y-103240533D02*
X144985714Y-103383390D01*
X144985714Y-103383390D02*
X145557142Y-103954819D01*
X145557142Y-103954819D02*
X144938095Y-103954819D01*
X97112057Y-112316419D02*
X97445390Y-111840228D01*
X97683485Y-112316419D02*
X97683485Y-111316419D01*
X97683485Y-111316419D02*
X97302533Y-111316419D01*
X97302533Y-111316419D02*
X97207295Y-111364038D01*
X97207295Y-111364038D02*
X97159676Y-111411657D01*
X97159676Y-111411657D02*
X97112057Y-111506895D01*
X97112057Y-111506895D02*
X97112057Y-111649752D01*
X97112057Y-111649752D02*
X97159676Y-111744990D01*
X97159676Y-111744990D02*
X97207295Y-111792609D01*
X97207295Y-111792609D02*
X97302533Y-111840228D01*
X97302533Y-111840228D02*
X97683485Y-111840228D01*
X96731104Y-111411657D02*
X96683485Y-111364038D01*
X96683485Y-111364038D02*
X96588247Y-111316419D01*
X96588247Y-111316419D02*
X96350152Y-111316419D01*
X96350152Y-111316419D02*
X96254914Y-111364038D01*
X96254914Y-111364038D02*
X96207295Y-111411657D01*
X96207295Y-111411657D02*
X96159676Y-111506895D01*
X96159676Y-111506895D02*
X96159676Y-111602133D01*
X96159676Y-111602133D02*
X96207295Y-111744990D01*
X96207295Y-111744990D02*
X96778723Y-112316419D01*
X96778723Y-112316419D02*
X96159676Y-112316419D01*
X95683485Y-112316419D02*
X95493009Y-112316419D01*
X95493009Y-112316419D02*
X95397771Y-112268800D01*
X95397771Y-112268800D02*
X95350152Y-112221180D01*
X95350152Y-112221180D02*
X95254914Y-112078323D01*
X95254914Y-112078323D02*
X95207295Y-111887847D01*
X95207295Y-111887847D02*
X95207295Y-111506895D01*
X95207295Y-111506895D02*
X95254914Y-111411657D01*
X95254914Y-111411657D02*
X95302533Y-111364038D01*
X95302533Y-111364038D02*
X95397771Y-111316419D01*
X95397771Y-111316419D02*
X95588247Y-111316419D01*
X95588247Y-111316419D02*
X95683485Y-111364038D01*
X95683485Y-111364038D02*
X95731104Y-111411657D01*
X95731104Y-111411657D02*
X95778723Y-111506895D01*
X95778723Y-111506895D02*
X95778723Y-111744990D01*
X95778723Y-111744990D02*
X95731104Y-111840228D01*
X95731104Y-111840228D02*
X95683485Y-111887847D01*
X95683485Y-111887847D02*
X95588247Y-111935466D01*
X95588247Y-111935466D02*
X95397771Y-111935466D01*
X95397771Y-111935466D02*
X95302533Y-111887847D01*
X95302533Y-111887847D02*
X95254914Y-111840228D01*
X95254914Y-111840228D02*
X95207295Y-111744990D01*
X97278723Y-114669219D02*
X96659676Y-114669219D01*
X96659676Y-114669219D02*
X96993009Y-115050171D01*
X96993009Y-115050171D02*
X96850152Y-115050171D01*
X96850152Y-115050171D02*
X96754914Y-115097790D01*
X96754914Y-115097790D02*
X96707295Y-115145409D01*
X96707295Y-115145409D02*
X96659676Y-115240647D01*
X96659676Y-115240647D02*
X96659676Y-115478742D01*
X96659676Y-115478742D02*
X96707295Y-115573980D01*
X96707295Y-115573980D02*
X96754914Y-115621600D01*
X96754914Y-115621600D02*
X96850152Y-115669219D01*
X96850152Y-115669219D02*
X97135866Y-115669219D01*
X97135866Y-115669219D02*
X97231104Y-115621600D01*
X97231104Y-115621600D02*
X97278723Y-115573980D01*
X96326342Y-114669219D02*
X95707295Y-114669219D01*
X95707295Y-114669219D02*
X96040628Y-115050171D01*
X96040628Y-115050171D02*
X95897771Y-115050171D01*
X95897771Y-115050171D02*
X95802533Y-115097790D01*
X95802533Y-115097790D02*
X95754914Y-115145409D01*
X95754914Y-115145409D02*
X95707295Y-115240647D01*
X95707295Y-115240647D02*
X95707295Y-115478742D01*
X95707295Y-115478742D02*
X95754914Y-115573980D01*
X95754914Y-115573980D02*
X95802533Y-115621600D01*
X95802533Y-115621600D02*
X95897771Y-115669219D01*
X95897771Y-115669219D02*
X96183485Y-115669219D01*
X96183485Y-115669219D02*
X96278723Y-115621600D01*
X96278723Y-115621600D02*
X96326342Y-115573980D01*
X150390476Y-99354819D02*
X150723809Y-98878628D01*
X150961904Y-99354819D02*
X150961904Y-98354819D01*
X150961904Y-98354819D02*
X150580952Y-98354819D01*
X150580952Y-98354819D02*
X150485714Y-98402438D01*
X150485714Y-98402438D02*
X150438095Y-98450057D01*
X150438095Y-98450057D02*
X150390476Y-98545295D01*
X150390476Y-98545295D02*
X150390476Y-98688152D01*
X150390476Y-98688152D02*
X150438095Y-98783390D01*
X150438095Y-98783390D02*
X150485714Y-98831009D01*
X150485714Y-98831009D02*
X150580952Y-98878628D01*
X150580952Y-98878628D02*
X150961904Y-98878628D01*
X149961904Y-99354819D02*
X149961904Y-98354819D01*
X149961904Y-98354819D02*
X149390476Y-99354819D01*
X149390476Y-99354819D02*
X149390476Y-98354819D01*
X148866666Y-99354819D02*
X148676190Y-99354819D01*
X148676190Y-99354819D02*
X148580952Y-99307200D01*
X148580952Y-99307200D02*
X148533333Y-99259580D01*
X148533333Y-99259580D02*
X148438095Y-99116723D01*
X148438095Y-99116723D02*
X148390476Y-98926247D01*
X148390476Y-98926247D02*
X148390476Y-98545295D01*
X148390476Y-98545295D02*
X148438095Y-98450057D01*
X148438095Y-98450057D02*
X148485714Y-98402438D01*
X148485714Y-98402438D02*
X148580952Y-98354819D01*
X148580952Y-98354819D02*
X148771428Y-98354819D01*
X148771428Y-98354819D02*
X148866666Y-98402438D01*
X148866666Y-98402438D02*
X148914285Y-98450057D01*
X148914285Y-98450057D02*
X148961904Y-98545295D01*
X148961904Y-98545295D02*
X148961904Y-98783390D01*
X148961904Y-98783390D02*
X148914285Y-98878628D01*
X148914285Y-98878628D02*
X148866666Y-98926247D01*
X148866666Y-98926247D02*
X148771428Y-98973866D01*
X148771428Y-98973866D02*
X148580952Y-98973866D01*
X148580952Y-98973866D02*
X148485714Y-98926247D01*
X148485714Y-98926247D02*
X148438095Y-98878628D01*
X148438095Y-98878628D02*
X148390476Y-98783390D01*
X150461904Y-103050057D02*
X150414285Y-103002438D01*
X150414285Y-103002438D02*
X150319047Y-102954819D01*
X150319047Y-102954819D02*
X150080952Y-102954819D01*
X150080952Y-102954819D02*
X149985714Y-103002438D01*
X149985714Y-103002438D02*
X149938095Y-103050057D01*
X149938095Y-103050057D02*
X149890476Y-103145295D01*
X149890476Y-103145295D02*
X149890476Y-103240533D01*
X149890476Y-103240533D02*
X149938095Y-103383390D01*
X149938095Y-103383390D02*
X150509523Y-103954819D01*
X150509523Y-103954819D02*
X149890476Y-103954819D01*
X149509523Y-103050057D02*
X149461904Y-103002438D01*
X149461904Y-103002438D02*
X149366666Y-102954819D01*
X149366666Y-102954819D02*
X149128571Y-102954819D01*
X149128571Y-102954819D02*
X149033333Y-103002438D01*
X149033333Y-103002438D02*
X148985714Y-103050057D01*
X148985714Y-103050057D02*
X148938095Y-103145295D01*
X148938095Y-103145295D02*
X148938095Y-103240533D01*
X148938095Y-103240533D02*
X148985714Y-103383390D01*
X148985714Y-103383390D02*
X149557142Y-103954819D01*
X149557142Y-103954819D02*
X148938095Y-103954819D01*
X201566666Y-103354819D02*
X201899999Y-102878628D01*
X202138094Y-103354819D02*
X202138094Y-102354819D01*
X202138094Y-102354819D02*
X201757142Y-102354819D01*
X201757142Y-102354819D02*
X201661904Y-102402438D01*
X201661904Y-102402438D02*
X201614285Y-102450057D01*
X201614285Y-102450057D02*
X201566666Y-102545295D01*
X201566666Y-102545295D02*
X201566666Y-102688152D01*
X201566666Y-102688152D02*
X201614285Y-102783390D01*
X201614285Y-102783390D02*
X201661904Y-102831009D01*
X201661904Y-102831009D02*
X201757142Y-102878628D01*
X201757142Y-102878628D02*
X202138094Y-102878628D01*
X201138094Y-103354819D02*
X201138094Y-102354819D01*
X201138094Y-102354819D02*
X200566666Y-103354819D01*
X200566666Y-103354819D02*
X200566666Y-102354819D01*
X199566666Y-103354819D02*
X200138094Y-103354819D01*
X199852380Y-103354819D02*
X199852380Y-102354819D01*
X199852380Y-102354819D02*
X199947618Y-102497676D01*
X199947618Y-102497676D02*
X200042856Y-102592914D01*
X200042856Y-102592914D02*
X200138094Y-102640533D01*
X198661904Y-102354819D02*
X199138094Y-102354819D01*
X199138094Y-102354819D02*
X199185713Y-102831009D01*
X199185713Y-102831009D02*
X199138094Y-102783390D01*
X199138094Y-102783390D02*
X199042856Y-102735771D01*
X199042856Y-102735771D02*
X198804761Y-102735771D01*
X198804761Y-102735771D02*
X198709523Y-102783390D01*
X198709523Y-102783390D02*
X198661904Y-102831009D01*
X198661904Y-102831009D02*
X198614285Y-102926247D01*
X198614285Y-102926247D02*
X198614285Y-103164342D01*
X198614285Y-103164342D02*
X198661904Y-103259580D01*
X198661904Y-103259580D02*
X198709523Y-103307200D01*
X198709523Y-103307200D02*
X198804761Y-103354819D01*
X198804761Y-103354819D02*
X199042856Y-103354819D01*
X199042856Y-103354819D02*
X199138094Y-103307200D01*
X199138094Y-103307200D02*
X199185713Y-103259580D01*
X201619047Y-105454819D02*
X202190475Y-105454819D01*
X201904761Y-105454819D02*
X201904761Y-104454819D01*
X201904761Y-104454819D02*
X201999999Y-104597676D01*
X201999999Y-104597676D02*
X202095237Y-104692914D01*
X202095237Y-104692914D02*
X202190475Y-104740533D01*
X201190475Y-105454819D02*
X201190475Y-104454819D01*
X201095237Y-105073866D02*
X200809523Y-105454819D01*
X200809523Y-104788152D02*
X201190475Y-105169104D01*
X181366666Y-55454819D02*
X181699999Y-54978628D01*
X181938094Y-55454819D02*
X181938094Y-54454819D01*
X181938094Y-54454819D02*
X181557142Y-54454819D01*
X181557142Y-54454819D02*
X181461904Y-54502438D01*
X181461904Y-54502438D02*
X181414285Y-54550057D01*
X181414285Y-54550057D02*
X181366666Y-54645295D01*
X181366666Y-54645295D02*
X181366666Y-54788152D01*
X181366666Y-54788152D02*
X181414285Y-54883390D01*
X181414285Y-54883390D02*
X181461904Y-54931009D01*
X181461904Y-54931009D02*
X181557142Y-54978628D01*
X181557142Y-54978628D02*
X181938094Y-54978628D01*
X180938094Y-55454819D02*
X180938094Y-54454819D01*
X180938094Y-54454819D02*
X180366666Y-55454819D01*
X180366666Y-55454819D02*
X180366666Y-54454819D01*
X179366666Y-55454819D02*
X179938094Y-55454819D01*
X179652380Y-55454819D02*
X179652380Y-54454819D01*
X179652380Y-54454819D02*
X179747618Y-54597676D01*
X179747618Y-54597676D02*
X179842856Y-54692914D01*
X179842856Y-54692914D02*
X179938094Y-54740533D01*
X178890475Y-55454819D02*
X178699999Y-55454819D01*
X178699999Y-55454819D02*
X178604761Y-55407200D01*
X178604761Y-55407200D02*
X178557142Y-55359580D01*
X178557142Y-55359580D02*
X178461904Y-55216723D01*
X178461904Y-55216723D02*
X178414285Y-55026247D01*
X178414285Y-55026247D02*
X178414285Y-54645295D01*
X178414285Y-54645295D02*
X178461904Y-54550057D01*
X178461904Y-54550057D02*
X178509523Y-54502438D01*
X178509523Y-54502438D02*
X178604761Y-54454819D01*
X178604761Y-54454819D02*
X178795237Y-54454819D01*
X178795237Y-54454819D02*
X178890475Y-54502438D01*
X178890475Y-54502438D02*
X178938094Y-54550057D01*
X178938094Y-54550057D02*
X178985713Y-54645295D01*
X178985713Y-54645295D02*
X178985713Y-54883390D01*
X178985713Y-54883390D02*
X178938094Y-54978628D01*
X178938094Y-54978628D02*
X178890475Y-55026247D01*
X178890475Y-55026247D02*
X178795237Y-55073866D01*
X178795237Y-55073866D02*
X178604761Y-55073866D01*
X178604761Y-55073866D02*
X178509523Y-55026247D01*
X178509523Y-55026247D02*
X178461904Y-54978628D01*
X178461904Y-54978628D02*
X178414285Y-54883390D01*
X179119047Y-54054819D02*
X179690475Y-54054819D01*
X179404761Y-54054819D02*
X179404761Y-53054819D01*
X179404761Y-53054819D02*
X179499999Y-53197676D01*
X179499999Y-53197676D02*
X179595237Y-53292914D01*
X179595237Y-53292914D02*
X179690475Y-53340533D01*
X178690475Y-54054819D02*
X178690475Y-53054819D01*
X178595237Y-53673866D02*
X178309523Y-54054819D01*
X178309523Y-53388152D02*
X178690475Y-53769104D01*
X131967266Y-92925619D02*
X132300599Y-92449428D01*
X132538694Y-92925619D02*
X132538694Y-91925619D01*
X132538694Y-91925619D02*
X132157742Y-91925619D01*
X132157742Y-91925619D02*
X132062504Y-91973238D01*
X132062504Y-91973238D02*
X132014885Y-92020857D01*
X132014885Y-92020857D02*
X131967266Y-92116095D01*
X131967266Y-92116095D02*
X131967266Y-92258952D01*
X131967266Y-92258952D02*
X132014885Y-92354190D01*
X132014885Y-92354190D02*
X132062504Y-92401809D01*
X132062504Y-92401809D02*
X132157742Y-92449428D01*
X132157742Y-92449428D02*
X132538694Y-92449428D01*
X131014885Y-92925619D02*
X131586313Y-92925619D01*
X131300599Y-92925619D02*
X131300599Y-91925619D01*
X131300599Y-91925619D02*
X131395837Y-92068476D01*
X131395837Y-92068476D02*
X131491075Y-92163714D01*
X131491075Y-92163714D02*
X131586313Y-92211333D01*
X132491076Y-95408552D02*
X132491076Y-96075219D01*
X132729171Y-95027600D02*
X132967266Y-95741885D01*
X132967266Y-95741885D02*
X132348219Y-95741885D01*
X131967266Y-96075219D02*
X131967266Y-95075219D01*
X131872028Y-95694266D02*
X131586314Y-96075219D01*
X131586314Y-95408552D02*
X131967266Y-95789504D01*
X131252980Y-95075219D02*
X130586314Y-95075219D01*
X130586314Y-95075219D02*
X131014885Y-96075219D01*
X249066666Y-100254819D02*
X249399999Y-99778628D01*
X249638094Y-100254819D02*
X249638094Y-99254819D01*
X249638094Y-99254819D02*
X249257142Y-99254819D01*
X249257142Y-99254819D02*
X249161904Y-99302438D01*
X249161904Y-99302438D02*
X249114285Y-99350057D01*
X249114285Y-99350057D02*
X249066666Y-99445295D01*
X249066666Y-99445295D02*
X249066666Y-99588152D01*
X249066666Y-99588152D02*
X249114285Y-99683390D01*
X249114285Y-99683390D02*
X249161904Y-99731009D01*
X249161904Y-99731009D02*
X249257142Y-99778628D01*
X249257142Y-99778628D02*
X249638094Y-99778628D01*
X248638094Y-100254819D02*
X248638094Y-99254819D01*
X248638094Y-99254819D02*
X248066666Y-100254819D01*
X248066666Y-100254819D02*
X248066666Y-99254819D01*
X247066666Y-100254819D02*
X247638094Y-100254819D01*
X247352380Y-100254819D02*
X247352380Y-99254819D01*
X247352380Y-99254819D02*
X247447618Y-99397676D01*
X247447618Y-99397676D02*
X247542856Y-99492914D01*
X247542856Y-99492914D02*
X247638094Y-99540533D01*
X246495237Y-99683390D02*
X246590475Y-99635771D01*
X246590475Y-99635771D02*
X246638094Y-99588152D01*
X246638094Y-99588152D02*
X246685713Y-99492914D01*
X246685713Y-99492914D02*
X246685713Y-99445295D01*
X246685713Y-99445295D02*
X246638094Y-99350057D01*
X246638094Y-99350057D02*
X246590475Y-99302438D01*
X246590475Y-99302438D02*
X246495237Y-99254819D01*
X246495237Y-99254819D02*
X246304761Y-99254819D01*
X246304761Y-99254819D02*
X246209523Y-99302438D01*
X246209523Y-99302438D02*
X246161904Y-99350057D01*
X246161904Y-99350057D02*
X246114285Y-99445295D01*
X246114285Y-99445295D02*
X246114285Y-99492914D01*
X246114285Y-99492914D02*
X246161904Y-99588152D01*
X246161904Y-99588152D02*
X246209523Y-99635771D01*
X246209523Y-99635771D02*
X246304761Y-99683390D01*
X246304761Y-99683390D02*
X246495237Y-99683390D01*
X246495237Y-99683390D02*
X246590475Y-99731009D01*
X246590475Y-99731009D02*
X246638094Y-99778628D01*
X246638094Y-99778628D02*
X246685713Y-99873866D01*
X246685713Y-99873866D02*
X246685713Y-100064342D01*
X246685713Y-100064342D02*
X246638094Y-100159580D01*
X246638094Y-100159580D02*
X246590475Y-100207200D01*
X246590475Y-100207200D02*
X246495237Y-100254819D01*
X246495237Y-100254819D02*
X246304761Y-100254819D01*
X246304761Y-100254819D02*
X246209523Y-100207200D01*
X246209523Y-100207200D02*
X246161904Y-100159580D01*
X246161904Y-100159580D02*
X246114285Y-100064342D01*
X246114285Y-100064342D02*
X246114285Y-99873866D01*
X246114285Y-99873866D02*
X246161904Y-99778628D01*
X246161904Y-99778628D02*
X246209523Y-99731009D01*
X246209523Y-99731009D02*
X246304761Y-99683390D01*
X246919047Y-101654819D02*
X247490475Y-101654819D01*
X247204761Y-101654819D02*
X247204761Y-100654819D01*
X247204761Y-100654819D02*
X247299999Y-100797676D01*
X247299999Y-100797676D02*
X247395237Y-100892914D01*
X247395237Y-100892914D02*
X247490475Y-100940533D01*
X246490475Y-101654819D02*
X246490475Y-100654819D01*
X246395237Y-101273866D02*
X246109523Y-101654819D01*
X246109523Y-100988152D02*
X246490475Y-101369104D01*
X169890476Y-93554819D02*
X170223809Y-93078628D01*
X170461904Y-93554819D02*
X170461904Y-92554819D01*
X170461904Y-92554819D02*
X170080952Y-92554819D01*
X170080952Y-92554819D02*
X169985714Y-92602438D01*
X169985714Y-92602438D02*
X169938095Y-92650057D01*
X169938095Y-92650057D02*
X169890476Y-92745295D01*
X169890476Y-92745295D02*
X169890476Y-92888152D01*
X169890476Y-92888152D02*
X169938095Y-92983390D01*
X169938095Y-92983390D02*
X169985714Y-93031009D01*
X169985714Y-93031009D02*
X170080952Y-93078628D01*
X170080952Y-93078628D02*
X170461904Y-93078628D01*
X169461904Y-93554819D02*
X169461904Y-92554819D01*
X169461904Y-92554819D02*
X168890476Y-93554819D01*
X168890476Y-93554819D02*
X168890476Y-92554819D01*
X168509523Y-92554819D02*
X167890476Y-92554819D01*
X167890476Y-92554819D02*
X168223809Y-92935771D01*
X168223809Y-92935771D02*
X168080952Y-92935771D01*
X168080952Y-92935771D02*
X167985714Y-92983390D01*
X167985714Y-92983390D02*
X167938095Y-93031009D01*
X167938095Y-93031009D02*
X167890476Y-93126247D01*
X167890476Y-93126247D02*
X167890476Y-93364342D01*
X167890476Y-93364342D02*
X167938095Y-93459580D01*
X167938095Y-93459580D02*
X167985714Y-93507200D01*
X167985714Y-93507200D02*
X168080952Y-93554819D01*
X168080952Y-93554819D02*
X168366666Y-93554819D01*
X168366666Y-93554819D02*
X168461904Y-93507200D01*
X168461904Y-93507200D02*
X168509523Y-93459580D01*
X169861904Y-97250057D02*
X169814285Y-97202438D01*
X169814285Y-97202438D02*
X169719047Y-97154819D01*
X169719047Y-97154819D02*
X169480952Y-97154819D01*
X169480952Y-97154819D02*
X169385714Y-97202438D01*
X169385714Y-97202438D02*
X169338095Y-97250057D01*
X169338095Y-97250057D02*
X169290476Y-97345295D01*
X169290476Y-97345295D02*
X169290476Y-97440533D01*
X169290476Y-97440533D02*
X169338095Y-97583390D01*
X169338095Y-97583390D02*
X169909523Y-98154819D01*
X169909523Y-98154819D02*
X169290476Y-98154819D01*
X168909523Y-97250057D02*
X168861904Y-97202438D01*
X168861904Y-97202438D02*
X168766666Y-97154819D01*
X168766666Y-97154819D02*
X168528571Y-97154819D01*
X168528571Y-97154819D02*
X168433333Y-97202438D01*
X168433333Y-97202438D02*
X168385714Y-97250057D01*
X168385714Y-97250057D02*
X168338095Y-97345295D01*
X168338095Y-97345295D02*
X168338095Y-97440533D01*
X168338095Y-97440533D02*
X168385714Y-97583390D01*
X168385714Y-97583390D02*
X168957142Y-98154819D01*
X168957142Y-98154819D02*
X168338095Y-98154819D01*
X101842857Y-33654819D02*
X102176190Y-33178628D01*
X102414285Y-33654819D02*
X102414285Y-32654819D01*
X102414285Y-32654819D02*
X102033333Y-32654819D01*
X102033333Y-32654819D02*
X101938095Y-32702438D01*
X101938095Y-32702438D02*
X101890476Y-32750057D01*
X101890476Y-32750057D02*
X101842857Y-32845295D01*
X101842857Y-32845295D02*
X101842857Y-32988152D01*
X101842857Y-32988152D02*
X101890476Y-33083390D01*
X101890476Y-33083390D02*
X101938095Y-33131009D01*
X101938095Y-33131009D02*
X102033333Y-33178628D01*
X102033333Y-33178628D02*
X102414285Y-33178628D01*
X100890476Y-33654819D02*
X101461904Y-33654819D01*
X101176190Y-33654819D02*
X101176190Y-32654819D01*
X101176190Y-32654819D02*
X101271428Y-32797676D01*
X101271428Y-32797676D02*
X101366666Y-32892914D01*
X101366666Y-32892914D02*
X101461904Y-32940533D01*
X100414285Y-33654819D02*
X100223809Y-33654819D01*
X100223809Y-33654819D02*
X100128571Y-33607200D01*
X100128571Y-33607200D02*
X100080952Y-33559580D01*
X100080952Y-33559580D02*
X99985714Y-33416723D01*
X99985714Y-33416723D02*
X99938095Y-33226247D01*
X99938095Y-33226247D02*
X99938095Y-32845295D01*
X99938095Y-32845295D02*
X99985714Y-32750057D01*
X99985714Y-32750057D02*
X100033333Y-32702438D01*
X100033333Y-32702438D02*
X100128571Y-32654819D01*
X100128571Y-32654819D02*
X100319047Y-32654819D01*
X100319047Y-32654819D02*
X100414285Y-32702438D01*
X100414285Y-32702438D02*
X100461904Y-32750057D01*
X100461904Y-32750057D02*
X100509523Y-32845295D01*
X100509523Y-32845295D02*
X100509523Y-33083390D01*
X100509523Y-33083390D02*
X100461904Y-33178628D01*
X100461904Y-33178628D02*
X100414285Y-33226247D01*
X100414285Y-33226247D02*
X100319047Y-33273866D01*
X100319047Y-33273866D02*
X100128571Y-33273866D01*
X100128571Y-33273866D02*
X100033333Y-33226247D01*
X100033333Y-33226247D02*
X99985714Y-33178628D01*
X99985714Y-33178628D02*
X99938095Y-33083390D01*
X100466666Y-35054819D02*
X101038094Y-35054819D01*
X100752380Y-35054819D02*
X100752380Y-34054819D01*
X100752380Y-34054819D02*
X100847618Y-34197676D01*
X100847618Y-34197676D02*
X100942856Y-34292914D01*
X100942856Y-34292914D02*
X101038094Y-34340533D01*
X100085713Y-34150057D02*
X100038094Y-34102438D01*
X100038094Y-34102438D02*
X99942856Y-34054819D01*
X99942856Y-34054819D02*
X99704761Y-34054819D01*
X99704761Y-34054819D02*
X99609523Y-34102438D01*
X99609523Y-34102438D02*
X99561904Y-34150057D01*
X99561904Y-34150057D02*
X99514285Y-34245295D01*
X99514285Y-34245295D02*
X99514285Y-34340533D01*
X99514285Y-34340533D02*
X99561904Y-34483390D01*
X99561904Y-34483390D02*
X100133332Y-35054819D01*
X100133332Y-35054819D02*
X99514285Y-35054819D01*
X98895237Y-34054819D02*
X98799999Y-34054819D01*
X98799999Y-34054819D02*
X98704761Y-34102438D01*
X98704761Y-34102438D02*
X98657142Y-34150057D01*
X98657142Y-34150057D02*
X98609523Y-34245295D01*
X98609523Y-34245295D02*
X98561904Y-34435771D01*
X98561904Y-34435771D02*
X98561904Y-34673866D01*
X98561904Y-34673866D02*
X98609523Y-34864342D01*
X98609523Y-34864342D02*
X98657142Y-34959580D01*
X98657142Y-34959580D02*
X98704761Y-35007200D01*
X98704761Y-35007200D02*
X98799999Y-35054819D01*
X98799999Y-35054819D02*
X98895237Y-35054819D01*
X98895237Y-35054819D02*
X98990475Y-35007200D01*
X98990475Y-35007200D02*
X99038094Y-34959580D01*
X99038094Y-34959580D02*
X99085713Y-34864342D01*
X99085713Y-34864342D02*
X99133332Y-34673866D01*
X99133332Y-34673866D02*
X99133332Y-34435771D01*
X99133332Y-34435771D02*
X99085713Y-34245295D01*
X99085713Y-34245295D02*
X99038094Y-34150057D01*
X99038094Y-34150057D02*
X98990475Y-34102438D01*
X98990475Y-34102438D02*
X98895237Y-34054819D01*
X220048057Y-58570019D02*
X220381390Y-58093828D01*
X220619485Y-58570019D02*
X220619485Y-57570019D01*
X220619485Y-57570019D02*
X220238533Y-57570019D01*
X220238533Y-57570019D02*
X220143295Y-57617638D01*
X220143295Y-57617638D02*
X220095676Y-57665257D01*
X220095676Y-57665257D02*
X220048057Y-57760495D01*
X220048057Y-57760495D02*
X220048057Y-57903352D01*
X220048057Y-57903352D02*
X220095676Y-57998590D01*
X220095676Y-57998590D02*
X220143295Y-58046209D01*
X220143295Y-58046209D02*
X220238533Y-58093828D01*
X220238533Y-58093828D02*
X220619485Y-58093828D01*
X219714723Y-57570019D02*
X219095676Y-57570019D01*
X219095676Y-57570019D02*
X219429009Y-57950971D01*
X219429009Y-57950971D02*
X219286152Y-57950971D01*
X219286152Y-57950971D02*
X219190914Y-57998590D01*
X219190914Y-57998590D02*
X219143295Y-58046209D01*
X219143295Y-58046209D02*
X219095676Y-58141447D01*
X219095676Y-58141447D02*
X219095676Y-58379542D01*
X219095676Y-58379542D02*
X219143295Y-58474780D01*
X219143295Y-58474780D02*
X219190914Y-58522400D01*
X219190914Y-58522400D02*
X219286152Y-58570019D01*
X219286152Y-58570019D02*
X219571866Y-58570019D01*
X219571866Y-58570019D02*
X219667104Y-58522400D01*
X219667104Y-58522400D02*
X219714723Y-58474780D01*
X218476628Y-57570019D02*
X218381390Y-57570019D01*
X218381390Y-57570019D02*
X218286152Y-57617638D01*
X218286152Y-57617638D02*
X218238533Y-57665257D01*
X218238533Y-57665257D02*
X218190914Y-57760495D01*
X218190914Y-57760495D02*
X218143295Y-57950971D01*
X218143295Y-57950971D02*
X218143295Y-58189066D01*
X218143295Y-58189066D02*
X218190914Y-58379542D01*
X218190914Y-58379542D02*
X218238533Y-58474780D01*
X218238533Y-58474780D02*
X218286152Y-58522400D01*
X218286152Y-58522400D02*
X218381390Y-58570019D01*
X218381390Y-58570019D02*
X218476628Y-58570019D01*
X218476628Y-58570019D02*
X218571866Y-58522400D01*
X218571866Y-58522400D02*
X218619485Y-58474780D01*
X218619485Y-58474780D02*
X218667104Y-58379542D01*
X218667104Y-58379542D02*
X218714723Y-58189066D01*
X218714723Y-58189066D02*
X218714723Y-57950971D01*
X218714723Y-57950971D02*
X218667104Y-57760495D01*
X218667104Y-57760495D02*
X218619485Y-57665257D01*
X218619485Y-57665257D02*
X218571866Y-57617638D01*
X218571866Y-57617638D02*
X218476628Y-57570019D01*
X220568494Y-59789219D02*
X220378018Y-59789219D01*
X220378018Y-59789219D02*
X220282780Y-59741600D01*
X220282780Y-59741600D02*
X220235161Y-59693980D01*
X220235161Y-59693980D02*
X220139923Y-59551123D01*
X220139923Y-59551123D02*
X220092304Y-59360647D01*
X220092304Y-59360647D02*
X220092304Y-58979695D01*
X220092304Y-58979695D02*
X220139923Y-58884457D01*
X220139923Y-58884457D02*
X220187542Y-58836838D01*
X220187542Y-58836838D02*
X220282780Y-58789219D01*
X220282780Y-58789219D02*
X220473256Y-58789219D01*
X220473256Y-58789219D02*
X220568494Y-58836838D01*
X220568494Y-58836838D02*
X220616113Y-58884457D01*
X220616113Y-58884457D02*
X220663732Y-58979695D01*
X220663732Y-58979695D02*
X220663732Y-59217790D01*
X220663732Y-59217790D02*
X220616113Y-59313028D01*
X220616113Y-59313028D02*
X220568494Y-59360647D01*
X220568494Y-59360647D02*
X220473256Y-59408266D01*
X220473256Y-59408266D02*
X220282780Y-59408266D01*
X220282780Y-59408266D02*
X220187542Y-59360647D01*
X220187542Y-59360647D02*
X220139923Y-59313028D01*
X220139923Y-59313028D02*
X220092304Y-59217790D01*
X219663732Y-59789219D02*
X219663732Y-58789219D01*
X219568494Y-59408266D02*
X219282780Y-59789219D01*
X219282780Y-59122552D02*
X219663732Y-59503504D01*
X217901827Y-58789219D02*
X217806589Y-58789219D01*
X217806589Y-58789219D02*
X217711351Y-58836838D01*
X217711351Y-58836838D02*
X217663732Y-58884457D01*
X217663732Y-58884457D02*
X217616113Y-58979695D01*
X217616113Y-58979695D02*
X217568494Y-59170171D01*
X217568494Y-59170171D02*
X217568494Y-59408266D01*
X217568494Y-59408266D02*
X217616113Y-59598742D01*
X217616113Y-59598742D02*
X217663732Y-59693980D01*
X217663732Y-59693980D02*
X217711351Y-59741600D01*
X217711351Y-59741600D02*
X217806589Y-59789219D01*
X217806589Y-59789219D02*
X217901827Y-59789219D01*
X217901827Y-59789219D02*
X217997065Y-59741600D01*
X217997065Y-59741600D02*
X218044684Y-59693980D01*
X218044684Y-59693980D02*
X218092303Y-59598742D01*
X218092303Y-59598742D02*
X218139922Y-59408266D01*
X218139922Y-59408266D02*
X218139922Y-59170171D01*
X218139922Y-59170171D02*
X218092303Y-58979695D01*
X218092303Y-58979695D02*
X218044684Y-58884457D01*
X218044684Y-58884457D02*
X217997065Y-58836838D01*
X217997065Y-58836838D02*
X217901827Y-58789219D01*
X217139922Y-59693980D02*
X217092303Y-59741600D01*
X217092303Y-59741600D02*
X217139922Y-59789219D01*
X217139922Y-59789219D02*
X217187541Y-59741600D01*
X217187541Y-59741600D02*
X217139922Y-59693980D01*
X217139922Y-59693980D02*
X217139922Y-59789219D01*
X216139923Y-59789219D02*
X216711351Y-59789219D01*
X216425637Y-59789219D02*
X216425637Y-58789219D01*
X216425637Y-58789219D02*
X216520875Y-58932076D01*
X216520875Y-58932076D02*
X216616113Y-59027314D01*
X216616113Y-59027314D02*
X216711351Y-59074933D01*
X215758970Y-59789219D02*
X214997066Y-58789219D01*
X215616113Y-58789219D02*
X215520875Y-58836838D01*
X215520875Y-58836838D02*
X215473256Y-58932076D01*
X215473256Y-58932076D02*
X215520875Y-59027314D01*
X215520875Y-59027314D02*
X215616113Y-59074933D01*
X215616113Y-59074933D02*
X215711351Y-59027314D01*
X215711351Y-59027314D02*
X215758970Y-58932076D01*
X215758970Y-58932076D02*
X215711351Y-58836838D01*
X215711351Y-58836838D02*
X215616113Y-58789219D01*
X215044685Y-59741600D02*
X214997066Y-59646361D01*
X214997066Y-59646361D02*
X215044685Y-59551123D01*
X215044685Y-59551123D02*
X215139923Y-59503504D01*
X215139923Y-59503504D02*
X215235161Y-59551123D01*
X215235161Y-59551123D02*
X215282780Y-59646361D01*
X215282780Y-59646361D02*
X215235161Y-59741600D01*
X215235161Y-59741600D02*
X215139923Y-59789219D01*
X215139923Y-59789219D02*
X215044685Y-59741600D01*
X131666666Y-82254819D02*
X131999999Y-81778628D01*
X132238094Y-82254819D02*
X132238094Y-81254819D01*
X132238094Y-81254819D02*
X131857142Y-81254819D01*
X131857142Y-81254819D02*
X131761904Y-81302438D01*
X131761904Y-81302438D02*
X131714285Y-81350057D01*
X131714285Y-81350057D02*
X131666666Y-81445295D01*
X131666666Y-81445295D02*
X131666666Y-81588152D01*
X131666666Y-81588152D02*
X131714285Y-81683390D01*
X131714285Y-81683390D02*
X131761904Y-81731009D01*
X131761904Y-81731009D02*
X131857142Y-81778628D01*
X131857142Y-81778628D02*
X132238094Y-81778628D01*
X131238094Y-82254819D02*
X131238094Y-81254819D01*
X131238094Y-81254819D02*
X130666666Y-82254819D01*
X130666666Y-82254819D02*
X130666666Y-81254819D01*
X130238094Y-81350057D02*
X130190475Y-81302438D01*
X130190475Y-81302438D02*
X130095237Y-81254819D01*
X130095237Y-81254819D02*
X129857142Y-81254819D01*
X129857142Y-81254819D02*
X129761904Y-81302438D01*
X129761904Y-81302438D02*
X129714285Y-81350057D01*
X129714285Y-81350057D02*
X129666666Y-81445295D01*
X129666666Y-81445295D02*
X129666666Y-81540533D01*
X129666666Y-81540533D02*
X129714285Y-81683390D01*
X129714285Y-81683390D02*
X130285713Y-82254819D01*
X130285713Y-82254819D02*
X129666666Y-82254819D01*
X129285713Y-81350057D02*
X129238094Y-81302438D01*
X129238094Y-81302438D02*
X129142856Y-81254819D01*
X129142856Y-81254819D02*
X128904761Y-81254819D01*
X128904761Y-81254819D02*
X128809523Y-81302438D01*
X128809523Y-81302438D02*
X128761904Y-81350057D01*
X128761904Y-81350057D02*
X128714285Y-81445295D01*
X128714285Y-81445295D02*
X128714285Y-81540533D01*
X128714285Y-81540533D02*
X128761904Y-81683390D01*
X128761904Y-81683390D02*
X129333332Y-82254819D01*
X129333332Y-82254819D02*
X128714285Y-82254819D01*
X131719047Y-84054819D02*
X132290475Y-84054819D01*
X132004761Y-84054819D02*
X132004761Y-83054819D01*
X132004761Y-83054819D02*
X132099999Y-83197676D01*
X132099999Y-83197676D02*
X132195237Y-83292914D01*
X132195237Y-83292914D02*
X132290475Y-83340533D01*
X131290475Y-84054819D02*
X131290475Y-83054819D01*
X131195237Y-83673866D02*
X130909523Y-84054819D01*
X130909523Y-83388152D02*
X131290475Y-83769104D01*
X212783657Y-55268019D02*
X213116990Y-54791828D01*
X213355085Y-55268019D02*
X213355085Y-54268019D01*
X213355085Y-54268019D02*
X212974133Y-54268019D01*
X212974133Y-54268019D02*
X212878895Y-54315638D01*
X212878895Y-54315638D02*
X212831276Y-54363257D01*
X212831276Y-54363257D02*
X212783657Y-54458495D01*
X212783657Y-54458495D02*
X212783657Y-54601352D01*
X212783657Y-54601352D02*
X212831276Y-54696590D01*
X212831276Y-54696590D02*
X212878895Y-54744209D01*
X212878895Y-54744209D02*
X212974133Y-54791828D01*
X212974133Y-54791828D02*
X213355085Y-54791828D01*
X212402704Y-54363257D02*
X212355085Y-54315638D01*
X212355085Y-54315638D02*
X212259847Y-54268019D01*
X212259847Y-54268019D02*
X212021752Y-54268019D01*
X212021752Y-54268019D02*
X211926514Y-54315638D01*
X211926514Y-54315638D02*
X211878895Y-54363257D01*
X211878895Y-54363257D02*
X211831276Y-54458495D01*
X211831276Y-54458495D02*
X211831276Y-54553733D01*
X211831276Y-54553733D02*
X211878895Y-54696590D01*
X211878895Y-54696590D02*
X212450323Y-55268019D01*
X212450323Y-55268019D02*
X211831276Y-55268019D01*
X211450323Y-54363257D02*
X211402704Y-54315638D01*
X211402704Y-54315638D02*
X211307466Y-54268019D01*
X211307466Y-54268019D02*
X211069371Y-54268019D01*
X211069371Y-54268019D02*
X210974133Y-54315638D01*
X210974133Y-54315638D02*
X210926514Y-54363257D01*
X210926514Y-54363257D02*
X210878895Y-54458495D01*
X210878895Y-54458495D02*
X210878895Y-54553733D01*
X210878895Y-54553733D02*
X210926514Y-54696590D01*
X210926514Y-54696590D02*
X211497942Y-55268019D01*
X211497942Y-55268019D02*
X210878895Y-55268019D01*
X216301294Y-56588819D02*
X216110818Y-56588819D01*
X216110818Y-56588819D02*
X216015580Y-56541200D01*
X216015580Y-56541200D02*
X215967961Y-56493580D01*
X215967961Y-56493580D02*
X215872723Y-56350723D01*
X215872723Y-56350723D02*
X215825104Y-56160247D01*
X215825104Y-56160247D02*
X215825104Y-55779295D01*
X215825104Y-55779295D02*
X215872723Y-55684057D01*
X215872723Y-55684057D02*
X215920342Y-55636438D01*
X215920342Y-55636438D02*
X216015580Y-55588819D01*
X216015580Y-55588819D02*
X216206056Y-55588819D01*
X216206056Y-55588819D02*
X216301294Y-55636438D01*
X216301294Y-55636438D02*
X216348913Y-55684057D01*
X216348913Y-55684057D02*
X216396532Y-55779295D01*
X216396532Y-55779295D02*
X216396532Y-56017390D01*
X216396532Y-56017390D02*
X216348913Y-56112628D01*
X216348913Y-56112628D02*
X216301294Y-56160247D01*
X216301294Y-56160247D02*
X216206056Y-56207866D01*
X216206056Y-56207866D02*
X216015580Y-56207866D01*
X216015580Y-56207866D02*
X215920342Y-56160247D01*
X215920342Y-56160247D02*
X215872723Y-56112628D01*
X215872723Y-56112628D02*
X215825104Y-56017390D01*
X215396532Y-56588819D02*
X215396532Y-55588819D01*
X215301294Y-56207866D02*
X215015580Y-56588819D01*
X215015580Y-55922152D02*
X215396532Y-56303104D01*
X213634627Y-55588819D02*
X213539389Y-55588819D01*
X213539389Y-55588819D02*
X213444151Y-55636438D01*
X213444151Y-55636438D02*
X213396532Y-55684057D01*
X213396532Y-55684057D02*
X213348913Y-55779295D01*
X213348913Y-55779295D02*
X213301294Y-55969771D01*
X213301294Y-55969771D02*
X213301294Y-56207866D01*
X213301294Y-56207866D02*
X213348913Y-56398342D01*
X213348913Y-56398342D02*
X213396532Y-56493580D01*
X213396532Y-56493580D02*
X213444151Y-56541200D01*
X213444151Y-56541200D02*
X213539389Y-56588819D01*
X213539389Y-56588819D02*
X213634627Y-56588819D01*
X213634627Y-56588819D02*
X213729865Y-56541200D01*
X213729865Y-56541200D02*
X213777484Y-56493580D01*
X213777484Y-56493580D02*
X213825103Y-56398342D01*
X213825103Y-56398342D02*
X213872722Y-56207866D01*
X213872722Y-56207866D02*
X213872722Y-55969771D01*
X213872722Y-55969771D02*
X213825103Y-55779295D01*
X213825103Y-55779295D02*
X213777484Y-55684057D01*
X213777484Y-55684057D02*
X213729865Y-55636438D01*
X213729865Y-55636438D02*
X213634627Y-55588819D01*
X212872722Y-56493580D02*
X212825103Y-56541200D01*
X212825103Y-56541200D02*
X212872722Y-56588819D01*
X212872722Y-56588819D02*
X212920341Y-56541200D01*
X212920341Y-56541200D02*
X212872722Y-56493580D01*
X212872722Y-56493580D02*
X212872722Y-56588819D01*
X211872723Y-56588819D02*
X212444151Y-56588819D01*
X212158437Y-56588819D02*
X212158437Y-55588819D01*
X212158437Y-55588819D02*
X212253675Y-55731676D01*
X212253675Y-55731676D02*
X212348913Y-55826914D01*
X212348913Y-55826914D02*
X212444151Y-55874533D01*
X211491770Y-56588819D02*
X210729866Y-55588819D01*
X211348913Y-55588819D02*
X211253675Y-55636438D01*
X211253675Y-55636438D02*
X211206056Y-55731676D01*
X211206056Y-55731676D02*
X211253675Y-55826914D01*
X211253675Y-55826914D02*
X211348913Y-55874533D01*
X211348913Y-55874533D02*
X211444151Y-55826914D01*
X211444151Y-55826914D02*
X211491770Y-55731676D01*
X211491770Y-55731676D02*
X211444151Y-55636438D01*
X211444151Y-55636438D02*
X211348913Y-55588819D01*
X210777485Y-56541200D02*
X210729866Y-56445961D01*
X210729866Y-56445961D02*
X210777485Y-56350723D01*
X210777485Y-56350723D02*
X210872723Y-56303104D01*
X210872723Y-56303104D02*
X210967961Y-56350723D01*
X210967961Y-56350723D02*
X211015580Y-56445961D01*
X211015580Y-56445961D02*
X210967961Y-56541200D01*
X210967961Y-56541200D02*
X210872723Y-56588819D01*
X210872723Y-56588819D02*
X210777485Y-56541200D01*
X228385523Y-48781619D02*
X228385523Y-49495904D01*
X228385523Y-49495904D02*
X228433142Y-49638761D01*
X228433142Y-49638761D02*
X228528380Y-49734000D01*
X228528380Y-49734000D02*
X228671237Y-49781619D01*
X228671237Y-49781619D02*
X228766475Y-49781619D01*
X227909332Y-49781619D02*
X227909332Y-48781619D01*
X227909332Y-48781619D02*
X227528380Y-48781619D01*
X227528380Y-48781619D02*
X227433142Y-48829238D01*
X227433142Y-48829238D02*
X227385523Y-48876857D01*
X227385523Y-48876857D02*
X227337904Y-48972095D01*
X227337904Y-48972095D02*
X227337904Y-49114952D01*
X227337904Y-49114952D02*
X227385523Y-49210190D01*
X227385523Y-49210190D02*
X227433142Y-49257809D01*
X227433142Y-49257809D02*
X227528380Y-49305428D01*
X227528380Y-49305428D02*
X227909332Y-49305428D01*
X226385523Y-49781619D02*
X226956951Y-49781619D01*
X226671237Y-49781619D02*
X226671237Y-48781619D01*
X226671237Y-48781619D02*
X226766475Y-48924476D01*
X226766475Y-48924476D02*
X226861713Y-49019714D01*
X226861713Y-49019714D02*
X226956951Y-49067333D01*
X226004570Y-48876857D02*
X225956951Y-48829238D01*
X225956951Y-48829238D02*
X225861713Y-48781619D01*
X225861713Y-48781619D02*
X225623618Y-48781619D01*
X225623618Y-48781619D02*
X225528380Y-48829238D01*
X225528380Y-48829238D02*
X225480761Y-48876857D01*
X225480761Y-48876857D02*
X225433142Y-48972095D01*
X225433142Y-48972095D02*
X225433142Y-49067333D01*
X225433142Y-49067333D02*
X225480761Y-49210190D01*
X225480761Y-49210190D02*
X226052189Y-49781619D01*
X226052189Y-49781619D02*
X225433142Y-49781619D01*
X226937219Y-49970267D02*
X226937219Y-50589314D01*
X226937219Y-50589314D02*
X227318171Y-50255981D01*
X227318171Y-50255981D02*
X227318171Y-50398838D01*
X227318171Y-50398838D02*
X227365790Y-50494076D01*
X227365790Y-50494076D02*
X227413409Y-50541695D01*
X227413409Y-50541695D02*
X227508647Y-50589314D01*
X227508647Y-50589314D02*
X227746742Y-50589314D01*
X227746742Y-50589314D02*
X227841980Y-50541695D01*
X227841980Y-50541695D02*
X227889600Y-50494076D01*
X227889600Y-50494076D02*
X227937219Y-50398838D01*
X227937219Y-50398838D02*
X227937219Y-50113124D01*
X227937219Y-50113124D02*
X227889600Y-50017886D01*
X227889600Y-50017886D02*
X227841980Y-49970267D01*
X227937219Y-55789314D02*
X227937219Y-55217886D01*
X227937219Y-55503600D02*
X226937219Y-55503600D01*
X226937219Y-55503600D02*
X227080076Y-55408362D01*
X227080076Y-55408362D02*
X227175314Y-55313124D01*
X227175314Y-55313124D02*
X227222933Y-55217886D01*
X97289857Y-50050419D02*
X97623190Y-49574228D01*
X97861285Y-50050419D02*
X97861285Y-49050419D01*
X97861285Y-49050419D02*
X97480333Y-49050419D01*
X97480333Y-49050419D02*
X97385095Y-49098038D01*
X97385095Y-49098038D02*
X97337476Y-49145657D01*
X97337476Y-49145657D02*
X97289857Y-49240895D01*
X97289857Y-49240895D02*
X97289857Y-49383752D01*
X97289857Y-49383752D02*
X97337476Y-49478990D01*
X97337476Y-49478990D02*
X97385095Y-49526609D01*
X97385095Y-49526609D02*
X97480333Y-49574228D01*
X97480333Y-49574228D02*
X97861285Y-49574228D01*
X96337476Y-50050419D02*
X96908904Y-50050419D01*
X96623190Y-50050419D02*
X96623190Y-49050419D01*
X96623190Y-49050419D02*
X96718428Y-49193276D01*
X96718428Y-49193276D02*
X96813666Y-49288514D01*
X96813666Y-49288514D02*
X96908904Y-49336133D01*
X96004142Y-49050419D02*
X95337476Y-49050419D01*
X95337476Y-49050419D02*
X95766047Y-50050419D01*
X97286676Y-52533352D02*
X97286676Y-53200019D01*
X97524771Y-52152400D02*
X97762866Y-52866685D01*
X97762866Y-52866685D02*
X97143819Y-52866685D01*
X96762866Y-53200019D02*
X96762866Y-52200019D01*
X96667628Y-52819066D02*
X96381914Y-53200019D01*
X96381914Y-52533352D02*
X96762866Y-52914304D01*
X96048580Y-52200019D02*
X95381914Y-52200019D01*
X95381914Y-52200019D02*
X95810485Y-53200019D01*
X153390476Y-93554819D02*
X153723809Y-93078628D01*
X153961904Y-93554819D02*
X153961904Y-92554819D01*
X153961904Y-92554819D02*
X153580952Y-92554819D01*
X153580952Y-92554819D02*
X153485714Y-92602438D01*
X153485714Y-92602438D02*
X153438095Y-92650057D01*
X153438095Y-92650057D02*
X153390476Y-92745295D01*
X153390476Y-92745295D02*
X153390476Y-92888152D01*
X153390476Y-92888152D02*
X153438095Y-92983390D01*
X153438095Y-92983390D02*
X153485714Y-93031009D01*
X153485714Y-93031009D02*
X153580952Y-93078628D01*
X153580952Y-93078628D02*
X153961904Y-93078628D01*
X152961904Y-93554819D02*
X152961904Y-92554819D01*
X152961904Y-92554819D02*
X152390476Y-93554819D01*
X152390476Y-93554819D02*
X152390476Y-92554819D01*
X151771428Y-92983390D02*
X151866666Y-92935771D01*
X151866666Y-92935771D02*
X151914285Y-92888152D01*
X151914285Y-92888152D02*
X151961904Y-92792914D01*
X151961904Y-92792914D02*
X151961904Y-92745295D01*
X151961904Y-92745295D02*
X151914285Y-92650057D01*
X151914285Y-92650057D02*
X151866666Y-92602438D01*
X151866666Y-92602438D02*
X151771428Y-92554819D01*
X151771428Y-92554819D02*
X151580952Y-92554819D01*
X151580952Y-92554819D02*
X151485714Y-92602438D01*
X151485714Y-92602438D02*
X151438095Y-92650057D01*
X151438095Y-92650057D02*
X151390476Y-92745295D01*
X151390476Y-92745295D02*
X151390476Y-92792914D01*
X151390476Y-92792914D02*
X151438095Y-92888152D01*
X151438095Y-92888152D02*
X151485714Y-92935771D01*
X151485714Y-92935771D02*
X151580952Y-92983390D01*
X151580952Y-92983390D02*
X151771428Y-92983390D01*
X151771428Y-92983390D02*
X151866666Y-93031009D01*
X151866666Y-93031009D02*
X151914285Y-93078628D01*
X151914285Y-93078628D02*
X151961904Y-93173866D01*
X151961904Y-93173866D02*
X151961904Y-93364342D01*
X151961904Y-93364342D02*
X151914285Y-93459580D01*
X151914285Y-93459580D02*
X151866666Y-93507200D01*
X151866666Y-93507200D02*
X151771428Y-93554819D01*
X151771428Y-93554819D02*
X151580952Y-93554819D01*
X151580952Y-93554819D02*
X151485714Y-93507200D01*
X151485714Y-93507200D02*
X151438095Y-93459580D01*
X151438095Y-93459580D02*
X151390476Y-93364342D01*
X151390476Y-93364342D02*
X151390476Y-93173866D01*
X151390476Y-93173866D02*
X151438095Y-93078628D01*
X151438095Y-93078628D02*
X151485714Y-93031009D01*
X151485714Y-93031009D02*
X151580952Y-92983390D01*
X153461904Y-97250057D02*
X153414285Y-97202438D01*
X153414285Y-97202438D02*
X153319047Y-97154819D01*
X153319047Y-97154819D02*
X153080952Y-97154819D01*
X153080952Y-97154819D02*
X152985714Y-97202438D01*
X152985714Y-97202438D02*
X152938095Y-97250057D01*
X152938095Y-97250057D02*
X152890476Y-97345295D01*
X152890476Y-97345295D02*
X152890476Y-97440533D01*
X152890476Y-97440533D02*
X152938095Y-97583390D01*
X152938095Y-97583390D02*
X153509523Y-98154819D01*
X153509523Y-98154819D02*
X152890476Y-98154819D01*
X152509523Y-97250057D02*
X152461904Y-97202438D01*
X152461904Y-97202438D02*
X152366666Y-97154819D01*
X152366666Y-97154819D02*
X152128571Y-97154819D01*
X152128571Y-97154819D02*
X152033333Y-97202438D01*
X152033333Y-97202438D02*
X151985714Y-97250057D01*
X151985714Y-97250057D02*
X151938095Y-97345295D01*
X151938095Y-97345295D02*
X151938095Y-97440533D01*
X151938095Y-97440533D02*
X151985714Y-97583390D01*
X151985714Y-97583390D02*
X152557142Y-98154819D01*
X152557142Y-98154819D02*
X151938095Y-98154819D01*
X223926304Y-49696019D02*
X223926304Y-50505542D01*
X223926304Y-50505542D02*
X223878685Y-50600780D01*
X223878685Y-50600780D02*
X223831066Y-50648400D01*
X223831066Y-50648400D02*
X223735828Y-50696019D01*
X223735828Y-50696019D02*
X223545352Y-50696019D01*
X223545352Y-50696019D02*
X223450114Y-50648400D01*
X223450114Y-50648400D02*
X223402495Y-50600780D01*
X223402495Y-50600780D02*
X223354876Y-50505542D01*
X223354876Y-50505542D02*
X223354876Y-49696019D01*
X222354876Y-50696019D02*
X222926304Y-50696019D01*
X222640590Y-50696019D02*
X222640590Y-49696019D01*
X222640590Y-49696019D02*
X222735828Y-49838876D01*
X222735828Y-49838876D02*
X222831066Y-49934114D01*
X222831066Y-49934114D02*
X222926304Y-49981733D01*
X186866666Y-55454819D02*
X187199999Y-54978628D01*
X187438094Y-55454819D02*
X187438094Y-54454819D01*
X187438094Y-54454819D02*
X187057142Y-54454819D01*
X187057142Y-54454819D02*
X186961904Y-54502438D01*
X186961904Y-54502438D02*
X186914285Y-54550057D01*
X186914285Y-54550057D02*
X186866666Y-54645295D01*
X186866666Y-54645295D02*
X186866666Y-54788152D01*
X186866666Y-54788152D02*
X186914285Y-54883390D01*
X186914285Y-54883390D02*
X186961904Y-54931009D01*
X186961904Y-54931009D02*
X187057142Y-54978628D01*
X187057142Y-54978628D02*
X187438094Y-54978628D01*
X186438094Y-55454819D02*
X186438094Y-54454819D01*
X186438094Y-54454819D02*
X185866666Y-55454819D01*
X185866666Y-55454819D02*
X185866666Y-54454819D01*
X185438094Y-54550057D02*
X185390475Y-54502438D01*
X185390475Y-54502438D02*
X185295237Y-54454819D01*
X185295237Y-54454819D02*
X185057142Y-54454819D01*
X185057142Y-54454819D02*
X184961904Y-54502438D01*
X184961904Y-54502438D02*
X184914285Y-54550057D01*
X184914285Y-54550057D02*
X184866666Y-54645295D01*
X184866666Y-54645295D02*
X184866666Y-54740533D01*
X184866666Y-54740533D02*
X184914285Y-54883390D01*
X184914285Y-54883390D02*
X185485713Y-55454819D01*
X185485713Y-55454819D02*
X184866666Y-55454819D01*
X184247618Y-54454819D02*
X184152380Y-54454819D01*
X184152380Y-54454819D02*
X184057142Y-54502438D01*
X184057142Y-54502438D02*
X184009523Y-54550057D01*
X184009523Y-54550057D02*
X183961904Y-54645295D01*
X183961904Y-54645295D02*
X183914285Y-54835771D01*
X183914285Y-54835771D02*
X183914285Y-55073866D01*
X183914285Y-55073866D02*
X183961904Y-55264342D01*
X183961904Y-55264342D02*
X184009523Y-55359580D01*
X184009523Y-55359580D02*
X184057142Y-55407200D01*
X184057142Y-55407200D02*
X184152380Y-55454819D01*
X184152380Y-55454819D02*
X184247618Y-55454819D01*
X184247618Y-55454819D02*
X184342856Y-55407200D01*
X184342856Y-55407200D02*
X184390475Y-55359580D01*
X184390475Y-55359580D02*
X184438094Y-55264342D01*
X184438094Y-55264342D02*
X184485713Y-55073866D01*
X184485713Y-55073866D02*
X184485713Y-54835771D01*
X184485713Y-54835771D02*
X184438094Y-54645295D01*
X184438094Y-54645295D02*
X184390475Y-54550057D01*
X184390475Y-54550057D02*
X184342856Y-54502438D01*
X184342856Y-54502438D02*
X184247618Y-54454819D01*
X188619047Y-54154819D02*
X189190475Y-54154819D01*
X188904761Y-54154819D02*
X188904761Y-53154819D01*
X188904761Y-53154819D02*
X188999999Y-53297676D01*
X188999999Y-53297676D02*
X189095237Y-53392914D01*
X189095237Y-53392914D02*
X189190475Y-53440533D01*
X188190475Y-54154819D02*
X188190475Y-53154819D01*
X188095237Y-53773866D02*
X187809523Y-54154819D01*
X187809523Y-53488152D02*
X188190475Y-53869104D01*
X212834457Y-49883219D02*
X213167790Y-49407028D01*
X213405885Y-49883219D02*
X213405885Y-48883219D01*
X213405885Y-48883219D02*
X213024933Y-48883219D01*
X213024933Y-48883219D02*
X212929695Y-48930838D01*
X212929695Y-48930838D02*
X212882076Y-48978457D01*
X212882076Y-48978457D02*
X212834457Y-49073695D01*
X212834457Y-49073695D02*
X212834457Y-49216552D01*
X212834457Y-49216552D02*
X212882076Y-49311790D01*
X212882076Y-49311790D02*
X212929695Y-49359409D01*
X212929695Y-49359409D02*
X213024933Y-49407028D01*
X213024933Y-49407028D02*
X213405885Y-49407028D01*
X212453504Y-48978457D02*
X212405885Y-48930838D01*
X212405885Y-48930838D02*
X212310647Y-48883219D01*
X212310647Y-48883219D02*
X212072552Y-48883219D01*
X212072552Y-48883219D02*
X211977314Y-48930838D01*
X211977314Y-48930838D02*
X211929695Y-48978457D01*
X211929695Y-48978457D02*
X211882076Y-49073695D01*
X211882076Y-49073695D02*
X211882076Y-49168933D01*
X211882076Y-49168933D02*
X211929695Y-49311790D01*
X211929695Y-49311790D02*
X212501123Y-49883219D01*
X212501123Y-49883219D02*
X211882076Y-49883219D01*
X211024933Y-49216552D02*
X211024933Y-49883219D01*
X211263028Y-48835600D02*
X211501123Y-49549885D01*
X211501123Y-49549885D02*
X210882076Y-49549885D01*
X212878704Y-51204019D02*
X213450132Y-51204019D01*
X213164418Y-51204019D02*
X213164418Y-50204019D01*
X213164418Y-50204019D02*
X213259656Y-50346876D01*
X213259656Y-50346876D02*
X213354894Y-50442114D01*
X213354894Y-50442114D02*
X213450132Y-50489733D01*
X212450132Y-51204019D02*
X212450132Y-50204019D01*
X212354894Y-50823066D02*
X212069180Y-51204019D01*
X212069180Y-50537352D02*
X212450132Y-50918304D01*
X210688227Y-50204019D02*
X210592989Y-50204019D01*
X210592989Y-50204019D02*
X210497751Y-50251638D01*
X210497751Y-50251638D02*
X210450132Y-50299257D01*
X210450132Y-50299257D02*
X210402513Y-50394495D01*
X210402513Y-50394495D02*
X210354894Y-50584971D01*
X210354894Y-50584971D02*
X210354894Y-50823066D01*
X210354894Y-50823066D02*
X210402513Y-51013542D01*
X210402513Y-51013542D02*
X210450132Y-51108780D01*
X210450132Y-51108780D02*
X210497751Y-51156400D01*
X210497751Y-51156400D02*
X210592989Y-51204019D01*
X210592989Y-51204019D02*
X210688227Y-51204019D01*
X210688227Y-51204019D02*
X210783465Y-51156400D01*
X210783465Y-51156400D02*
X210831084Y-51108780D01*
X210831084Y-51108780D02*
X210878703Y-51013542D01*
X210878703Y-51013542D02*
X210926322Y-50823066D01*
X210926322Y-50823066D02*
X210926322Y-50584971D01*
X210926322Y-50584971D02*
X210878703Y-50394495D01*
X210878703Y-50394495D02*
X210831084Y-50299257D01*
X210831084Y-50299257D02*
X210783465Y-50251638D01*
X210783465Y-50251638D02*
X210688227Y-50204019D01*
X209926322Y-51108780D02*
X209878703Y-51156400D01*
X209878703Y-51156400D02*
X209926322Y-51204019D01*
X209926322Y-51204019D02*
X209973941Y-51156400D01*
X209973941Y-51156400D02*
X209926322Y-51108780D01*
X209926322Y-51108780D02*
X209926322Y-51204019D01*
X208926323Y-51204019D02*
X209497751Y-51204019D01*
X209212037Y-51204019D02*
X209212037Y-50204019D01*
X209212037Y-50204019D02*
X209307275Y-50346876D01*
X209307275Y-50346876D02*
X209402513Y-50442114D01*
X209402513Y-50442114D02*
X209497751Y-50489733D01*
X208545370Y-51204019D02*
X207783466Y-50204019D01*
X208402513Y-50204019D02*
X208307275Y-50251638D01*
X208307275Y-50251638D02*
X208259656Y-50346876D01*
X208259656Y-50346876D02*
X208307275Y-50442114D01*
X208307275Y-50442114D02*
X208402513Y-50489733D01*
X208402513Y-50489733D02*
X208497751Y-50442114D01*
X208497751Y-50442114D02*
X208545370Y-50346876D01*
X208545370Y-50346876D02*
X208497751Y-50251638D01*
X208497751Y-50251638D02*
X208402513Y-50204019D01*
X207831085Y-51156400D02*
X207783466Y-51061161D01*
X207783466Y-51061161D02*
X207831085Y-50965923D01*
X207831085Y-50965923D02*
X207926323Y-50918304D01*
X207926323Y-50918304D02*
X208021561Y-50965923D01*
X208021561Y-50965923D02*
X208069180Y-51061161D01*
X208069180Y-51061161D02*
X208021561Y-51156400D01*
X208021561Y-51156400D02*
X207926323Y-51204019D01*
X207926323Y-51204019D02*
X207831085Y-51156400D01*
X213166666Y-107254819D02*
X213499999Y-106778628D01*
X213738094Y-107254819D02*
X213738094Y-106254819D01*
X213738094Y-106254819D02*
X213357142Y-106254819D01*
X213357142Y-106254819D02*
X213261904Y-106302438D01*
X213261904Y-106302438D02*
X213214285Y-106350057D01*
X213214285Y-106350057D02*
X213166666Y-106445295D01*
X213166666Y-106445295D02*
X213166666Y-106588152D01*
X213166666Y-106588152D02*
X213214285Y-106683390D01*
X213214285Y-106683390D02*
X213261904Y-106731009D01*
X213261904Y-106731009D02*
X213357142Y-106778628D01*
X213357142Y-106778628D02*
X213738094Y-106778628D01*
X212738094Y-107254819D02*
X212738094Y-106254819D01*
X212738094Y-106254819D02*
X212166666Y-107254819D01*
X212166666Y-107254819D02*
X212166666Y-106254819D01*
X211166666Y-107254819D02*
X211738094Y-107254819D01*
X211452380Y-107254819D02*
X211452380Y-106254819D01*
X211452380Y-106254819D02*
X211547618Y-106397676D01*
X211547618Y-106397676D02*
X211642856Y-106492914D01*
X211642856Y-106492914D02*
X211738094Y-106540533D01*
X210833332Y-106254819D02*
X210214285Y-106254819D01*
X210214285Y-106254819D02*
X210547618Y-106635771D01*
X210547618Y-106635771D02*
X210404761Y-106635771D01*
X210404761Y-106635771D02*
X210309523Y-106683390D01*
X210309523Y-106683390D02*
X210261904Y-106731009D01*
X210261904Y-106731009D02*
X210214285Y-106826247D01*
X210214285Y-106826247D02*
X210214285Y-107064342D01*
X210214285Y-107064342D02*
X210261904Y-107159580D01*
X210261904Y-107159580D02*
X210309523Y-107207200D01*
X210309523Y-107207200D02*
X210404761Y-107254819D01*
X210404761Y-107254819D02*
X210690475Y-107254819D01*
X210690475Y-107254819D02*
X210785713Y-107207200D01*
X210785713Y-107207200D02*
X210833332Y-107159580D01*
X211119047Y-108754819D02*
X211690475Y-108754819D01*
X211404761Y-108754819D02*
X211404761Y-107754819D01*
X211404761Y-107754819D02*
X211499999Y-107897676D01*
X211499999Y-107897676D02*
X211595237Y-107992914D01*
X211595237Y-107992914D02*
X211690475Y-108040533D01*
X210690475Y-108754819D02*
X210690475Y-107754819D01*
X210595237Y-108373866D02*
X210309523Y-108754819D01*
X210309523Y-108088152D02*
X210690475Y-108469104D01*
X174066666Y-69754819D02*
X174399999Y-69278628D01*
X174638094Y-69754819D02*
X174638094Y-68754819D01*
X174638094Y-68754819D02*
X174257142Y-68754819D01*
X174257142Y-68754819D02*
X174161904Y-68802438D01*
X174161904Y-68802438D02*
X174114285Y-68850057D01*
X174114285Y-68850057D02*
X174066666Y-68945295D01*
X174066666Y-68945295D02*
X174066666Y-69088152D01*
X174066666Y-69088152D02*
X174114285Y-69183390D01*
X174114285Y-69183390D02*
X174161904Y-69231009D01*
X174161904Y-69231009D02*
X174257142Y-69278628D01*
X174257142Y-69278628D02*
X174638094Y-69278628D01*
X173638094Y-69754819D02*
X173638094Y-68754819D01*
X173638094Y-68754819D02*
X173066666Y-69754819D01*
X173066666Y-69754819D02*
X173066666Y-68754819D01*
X172066666Y-69754819D02*
X172638094Y-69754819D01*
X172352380Y-69754819D02*
X172352380Y-68754819D01*
X172352380Y-68754819D02*
X172447618Y-68897676D01*
X172447618Y-68897676D02*
X172542856Y-68992914D01*
X172542856Y-68992914D02*
X172638094Y-69040533D01*
X171685713Y-68850057D02*
X171638094Y-68802438D01*
X171638094Y-68802438D02*
X171542856Y-68754819D01*
X171542856Y-68754819D02*
X171304761Y-68754819D01*
X171304761Y-68754819D02*
X171209523Y-68802438D01*
X171209523Y-68802438D02*
X171161904Y-68850057D01*
X171161904Y-68850057D02*
X171114285Y-68945295D01*
X171114285Y-68945295D02*
X171114285Y-69040533D01*
X171114285Y-69040533D02*
X171161904Y-69183390D01*
X171161904Y-69183390D02*
X171733332Y-69754819D01*
X171733332Y-69754819D02*
X171114285Y-69754819D01*
X174219047Y-71254819D02*
X174790475Y-71254819D01*
X174504761Y-71254819D02*
X174504761Y-70254819D01*
X174504761Y-70254819D02*
X174599999Y-70397676D01*
X174599999Y-70397676D02*
X174695237Y-70492914D01*
X174695237Y-70492914D02*
X174790475Y-70540533D01*
X173790475Y-71254819D02*
X173790475Y-70254819D01*
X173695237Y-70873866D02*
X173409523Y-71254819D01*
X173409523Y-70588152D02*
X173790475Y-70969104D01*
X213166666Y-103454819D02*
X213499999Y-102978628D01*
X213738094Y-103454819D02*
X213738094Y-102454819D01*
X213738094Y-102454819D02*
X213357142Y-102454819D01*
X213357142Y-102454819D02*
X213261904Y-102502438D01*
X213261904Y-102502438D02*
X213214285Y-102550057D01*
X213214285Y-102550057D02*
X213166666Y-102645295D01*
X213166666Y-102645295D02*
X213166666Y-102788152D01*
X213166666Y-102788152D02*
X213214285Y-102883390D01*
X213214285Y-102883390D02*
X213261904Y-102931009D01*
X213261904Y-102931009D02*
X213357142Y-102978628D01*
X213357142Y-102978628D02*
X213738094Y-102978628D01*
X212738094Y-103454819D02*
X212738094Y-102454819D01*
X212738094Y-102454819D02*
X212166666Y-103454819D01*
X212166666Y-103454819D02*
X212166666Y-102454819D01*
X211166666Y-103454819D02*
X211738094Y-103454819D01*
X211452380Y-103454819D02*
X211452380Y-102454819D01*
X211452380Y-102454819D02*
X211547618Y-102597676D01*
X211547618Y-102597676D02*
X211642856Y-102692914D01*
X211642856Y-102692914D02*
X211738094Y-102740533D01*
X210309523Y-102788152D02*
X210309523Y-103454819D01*
X210547618Y-102407200D02*
X210785713Y-103121485D01*
X210785713Y-103121485D02*
X210166666Y-103121485D01*
X210919047Y-104954819D02*
X211490475Y-104954819D01*
X211204761Y-104954819D02*
X211204761Y-103954819D01*
X211204761Y-103954819D02*
X211299999Y-104097676D01*
X211299999Y-104097676D02*
X211395237Y-104192914D01*
X211395237Y-104192914D02*
X211490475Y-104240533D01*
X210490475Y-104954819D02*
X210490475Y-103954819D01*
X210395237Y-104573866D02*
X210109523Y-104954819D01*
X210109523Y-104288152D02*
X210490475Y-104669104D01*
X185966666Y-69854819D02*
X186299999Y-69378628D01*
X186538094Y-69854819D02*
X186538094Y-68854819D01*
X186538094Y-68854819D02*
X186157142Y-68854819D01*
X186157142Y-68854819D02*
X186061904Y-68902438D01*
X186061904Y-68902438D02*
X186014285Y-68950057D01*
X186014285Y-68950057D02*
X185966666Y-69045295D01*
X185966666Y-69045295D02*
X185966666Y-69188152D01*
X185966666Y-69188152D02*
X186014285Y-69283390D01*
X186014285Y-69283390D02*
X186061904Y-69331009D01*
X186061904Y-69331009D02*
X186157142Y-69378628D01*
X186157142Y-69378628D02*
X186538094Y-69378628D01*
X185538094Y-69854819D02*
X185538094Y-68854819D01*
X185538094Y-68854819D02*
X184966666Y-69854819D01*
X184966666Y-69854819D02*
X184966666Y-68854819D01*
X183966666Y-69854819D02*
X184538094Y-69854819D01*
X184252380Y-69854819D02*
X184252380Y-68854819D01*
X184252380Y-68854819D02*
X184347618Y-68997676D01*
X184347618Y-68997676D02*
X184442856Y-69092914D01*
X184442856Y-69092914D02*
X184538094Y-69140533D01*
X183014285Y-69854819D02*
X183585713Y-69854819D01*
X183299999Y-69854819D02*
X183299999Y-68854819D01*
X183299999Y-68854819D02*
X183395237Y-68997676D01*
X183395237Y-68997676D02*
X183490475Y-69092914D01*
X183490475Y-69092914D02*
X183585713Y-69140533D01*
X184019047Y-71354819D02*
X184590475Y-71354819D01*
X184304761Y-71354819D02*
X184304761Y-70354819D01*
X184304761Y-70354819D02*
X184399999Y-70497676D01*
X184399999Y-70497676D02*
X184495237Y-70592914D01*
X184495237Y-70592914D02*
X184590475Y-70640533D01*
X183590475Y-71354819D02*
X183590475Y-70354819D01*
X183495237Y-70973866D02*
X183209523Y-71354819D01*
X183209523Y-70688152D02*
X183590475Y-71069104D01*
X165790476Y-93554819D02*
X166123809Y-93078628D01*
X166361904Y-93554819D02*
X166361904Y-92554819D01*
X166361904Y-92554819D02*
X165980952Y-92554819D01*
X165980952Y-92554819D02*
X165885714Y-92602438D01*
X165885714Y-92602438D02*
X165838095Y-92650057D01*
X165838095Y-92650057D02*
X165790476Y-92745295D01*
X165790476Y-92745295D02*
X165790476Y-92888152D01*
X165790476Y-92888152D02*
X165838095Y-92983390D01*
X165838095Y-92983390D02*
X165885714Y-93031009D01*
X165885714Y-93031009D02*
X165980952Y-93078628D01*
X165980952Y-93078628D02*
X166361904Y-93078628D01*
X165361904Y-93554819D02*
X165361904Y-92554819D01*
X165361904Y-92554819D02*
X164790476Y-93554819D01*
X164790476Y-93554819D02*
X164790476Y-92554819D01*
X163885714Y-92888152D02*
X163885714Y-93554819D01*
X164123809Y-92507200D02*
X164361904Y-93221485D01*
X164361904Y-93221485D02*
X163742857Y-93221485D01*
X165861904Y-97250057D02*
X165814285Y-97202438D01*
X165814285Y-97202438D02*
X165719047Y-97154819D01*
X165719047Y-97154819D02*
X165480952Y-97154819D01*
X165480952Y-97154819D02*
X165385714Y-97202438D01*
X165385714Y-97202438D02*
X165338095Y-97250057D01*
X165338095Y-97250057D02*
X165290476Y-97345295D01*
X165290476Y-97345295D02*
X165290476Y-97440533D01*
X165290476Y-97440533D02*
X165338095Y-97583390D01*
X165338095Y-97583390D02*
X165909523Y-98154819D01*
X165909523Y-98154819D02*
X165290476Y-98154819D01*
X164909523Y-97250057D02*
X164861904Y-97202438D01*
X164861904Y-97202438D02*
X164766666Y-97154819D01*
X164766666Y-97154819D02*
X164528571Y-97154819D01*
X164528571Y-97154819D02*
X164433333Y-97202438D01*
X164433333Y-97202438D02*
X164385714Y-97250057D01*
X164385714Y-97250057D02*
X164338095Y-97345295D01*
X164338095Y-97345295D02*
X164338095Y-97440533D01*
X164338095Y-97440533D02*
X164385714Y-97583390D01*
X164385714Y-97583390D02*
X164957142Y-98154819D01*
X164957142Y-98154819D02*
X164338095Y-98154819D01*
X158790476Y-99354819D02*
X159123809Y-98878628D01*
X159361904Y-99354819D02*
X159361904Y-98354819D01*
X159361904Y-98354819D02*
X158980952Y-98354819D01*
X158980952Y-98354819D02*
X158885714Y-98402438D01*
X158885714Y-98402438D02*
X158838095Y-98450057D01*
X158838095Y-98450057D02*
X158790476Y-98545295D01*
X158790476Y-98545295D02*
X158790476Y-98688152D01*
X158790476Y-98688152D02*
X158838095Y-98783390D01*
X158838095Y-98783390D02*
X158885714Y-98831009D01*
X158885714Y-98831009D02*
X158980952Y-98878628D01*
X158980952Y-98878628D02*
X159361904Y-98878628D01*
X158361904Y-99354819D02*
X158361904Y-98354819D01*
X158361904Y-98354819D02*
X157790476Y-99354819D01*
X157790476Y-99354819D02*
X157790476Y-98354819D01*
X156885714Y-98354819D02*
X157076190Y-98354819D01*
X157076190Y-98354819D02*
X157171428Y-98402438D01*
X157171428Y-98402438D02*
X157219047Y-98450057D01*
X157219047Y-98450057D02*
X157314285Y-98592914D01*
X157314285Y-98592914D02*
X157361904Y-98783390D01*
X157361904Y-98783390D02*
X157361904Y-99164342D01*
X157361904Y-99164342D02*
X157314285Y-99259580D01*
X157314285Y-99259580D02*
X157266666Y-99307200D01*
X157266666Y-99307200D02*
X157171428Y-99354819D01*
X157171428Y-99354819D02*
X156980952Y-99354819D01*
X156980952Y-99354819D02*
X156885714Y-99307200D01*
X156885714Y-99307200D02*
X156838095Y-99259580D01*
X156838095Y-99259580D02*
X156790476Y-99164342D01*
X156790476Y-99164342D02*
X156790476Y-98926247D01*
X156790476Y-98926247D02*
X156838095Y-98831009D01*
X156838095Y-98831009D02*
X156885714Y-98783390D01*
X156885714Y-98783390D02*
X156980952Y-98735771D01*
X156980952Y-98735771D02*
X157171428Y-98735771D01*
X157171428Y-98735771D02*
X157266666Y-98783390D01*
X157266666Y-98783390D02*
X157314285Y-98831009D01*
X157314285Y-98831009D02*
X157361904Y-98926247D01*
X158861904Y-103050057D02*
X158814285Y-103002438D01*
X158814285Y-103002438D02*
X158719047Y-102954819D01*
X158719047Y-102954819D02*
X158480952Y-102954819D01*
X158480952Y-102954819D02*
X158385714Y-103002438D01*
X158385714Y-103002438D02*
X158338095Y-103050057D01*
X158338095Y-103050057D02*
X158290476Y-103145295D01*
X158290476Y-103145295D02*
X158290476Y-103240533D01*
X158290476Y-103240533D02*
X158338095Y-103383390D01*
X158338095Y-103383390D02*
X158909523Y-103954819D01*
X158909523Y-103954819D02*
X158290476Y-103954819D01*
X157909523Y-103050057D02*
X157861904Y-103002438D01*
X157861904Y-103002438D02*
X157766666Y-102954819D01*
X157766666Y-102954819D02*
X157528571Y-102954819D01*
X157528571Y-102954819D02*
X157433333Y-103002438D01*
X157433333Y-103002438D02*
X157385714Y-103050057D01*
X157385714Y-103050057D02*
X157338095Y-103145295D01*
X157338095Y-103145295D02*
X157338095Y-103240533D01*
X157338095Y-103240533D02*
X157385714Y-103383390D01*
X157385714Y-103383390D02*
X157957142Y-103954819D01*
X157957142Y-103954819D02*
X157338095Y-103954819D01*
X223096057Y-46124019D02*
X223429390Y-45647828D01*
X223667485Y-46124019D02*
X223667485Y-45124019D01*
X223667485Y-45124019D02*
X223286533Y-45124019D01*
X223286533Y-45124019D02*
X223191295Y-45171638D01*
X223191295Y-45171638D02*
X223143676Y-45219257D01*
X223143676Y-45219257D02*
X223096057Y-45314495D01*
X223096057Y-45314495D02*
X223096057Y-45457352D01*
X223096057Y-45457352D02*
X223143676Y-45552590D01*
X223143676Y-45552590D02*
X223191295Y-45600209D01*
X223191295Y-45600209D02*
X223286533Y-45647828D01*
X223286533Y-45647828D02*
X223667485Y-45647828D01*
X222143676Y-46124019D02*
X222715104Y-46124019D01*
X222429390Y-46124019D02*
X222429390Y-45124019D01*
X222429390Y-45124019D02*
X222524628Y-45266876D01*
X222524628Y-45266876D02*
X222619866Y-45362114D01*
X222619866Y-45362114D02*
X222715104Y-45409733D01*
X221762723Y-45219257D02*
X221715104Y-45171638D01*
X221715104Y-45171638D02*
X221619866Y-45124019D01*
X221619866Y-45124019D02*
X221381771Y-45124019D01*
X221381771Y-45124019D02*
X221286533Y-45171638D01*
X221286533Y-45171638D02*
X221238914Y-45219257D01*
X221238914Y-45219257D02*
X221191295Y-45314495D01*
X221191295Y-45314495D02*
X221191295Y-45409733D01*
X221191295Y-45409733D02*
X221238914Y-45552590D01*
X221238914Y-45552590D02*
X221810342Y-46124019D01*
X221810342Y-46124019D02*
X221191295Y-46124019D01*
X223238913Y-47444819D02*
X223238913Y-46444819D01*
X223238913Y-46444819D02*
X222667485Y-47444819D01*
X222667485Y-47444819D02*
X222667485Y-46444819D01*
X221619866Y-47349580D02*
X221667485Y-47397200D01*
X221667485Y-47397200D02*
X221810342Y-47444819D01*
X221810342Y-47444819D02*
X221905580Y-47444819D01*
X221905580Y-47444819D02*
X222048437Y-47397200D01*
X222048437Y-47397200D02*
X222143675Y-47301961D01*
X222143675Y-47301961D02*
X222191294Y-47206723D01*
X222191294Y-47206723D02*
X222238913Y-47016247D01*
X222238913Y-47016247D02*
X222238913Y-46873390D01*
X222238913Y-46873390D02*
X222191294Y-46682914D01*
X222191294Y-46682914D02*
X222143675Y-46587676D01*
X222143675Y-46587676D02*
X222048437Y-46492438D01*
X222048437Y-46492438D02*
X221905580Y-46444819D01*
X221905580Y-46444819D02*
X221810342Y-46444819D01*
X221810342Y-46444819D02*
X221667485Y-46492438D01*
X221667485Y-46492438D02*
X221619866Y-46540057D01*
X162790476Y-99354819D02*
X163123809Y-98878628D01*
X163361904Y-99354819D02*
X163361904Y-98354819D01*
X163361904Y-98354819D02*
X162980952Y-98354819D01*
X162980952Y-98354819D02*
X162885714Y-98402438D01*
X162885714Y-98402438D02*
X162838095Y-98450057D01*
X162838095Y-98450057D02*
X162790476Y-98545295D01*
X162790476Y-98545295D02*
X162790476Y-98688152D01*
X162790476Y-98688152D02*
X162838095Y-98783390D01*
X162838095Y-98783390D02*
X162885714Y-98831009D01*
X162885714Y-98831009D02*
X162980952Y-98878628D01*
X162980952Y-98878628D02*
X163361904Y-98878628D01*
X162361904Y-99354819D02*
X162361904Y-98354819D01*
X162361904Y-98354819D02*
X161790476Y-99354819D01*
X161790476Y-99354819D02*
X161790476Y-98354819D01*
X160838095Y-98354819D02*
X161314285Y-98354819D01*
X161314285Y-98354819D02*
X161361904Y-98831009D01*
X161361904Y-98831009D02*
X161314285Y-98783390D01*
X161314285Y-98783390D02*
X161219047Y-98735771D01*
X161219047Y-98735771D02*
X160980952Y-98735771D01*
X160980952Y-98735771D02*
X160885714Y-98783390D01*
X160885714Y-98783390D02*
X160838095Y-98831009D01*
X160838095Y-98831009D02*
X160790476Y-98926247D01*
X160790476Y-98926247D02*
X160790476Y-99164342D01*
X160790476Y-99164342D02*
X160838095Y-99259580D01*
X160838095Y-99259580D02*
X160885714Y-99307200D01*
X160885714Y-99307200D02*
X160980952Y-99354819D01*
X160980952Y-99354819D02*
X161219047Y-99354819D01*
X161219047Y-99354819D02*
X161314285Y-99307200D01*
X161314285Y-99307200D02*
X161361904Y-99259580D01*
X162861904Y-103050057D02*
X162814285Y-103002438D01*
X162814285Y-103002438D02*
X162719047Y-102954819D01*
X162719047Y-102954819D02*
X162480952Y-102954819D01*
X162480952Y-102954819D02*
X162385714Y-103002438D01*
X162385714Y-103002438D02*
X162338095Y-103050057D01*
X162338095Y-103050057D02*
X162290476Y-103145295D01*
X162290476Y-103145295D02*
X162290476Y-103240533D01*
X162290476Y-103240533D02*
X162338095Y-103383390D01*
X162338095Y-103383390D02*
X162909523Y-103954819D01*
X162909523Y-103954819D02*
X162290476Y-103954819D01*
X161909523Y-103050057D02*
X161861904Y-103002438D01*
X161861904Y-103002438D02*
X161766666Y-102954819D01*
X161766666Y-102954819D02*
X161528571Y-102954819D01*
X161528571Y-102954819D02*
X161433333Y-103002438D01*
X161433333Y-103002438D02*
X161385714Y-103050057D01*
X161385714Y-103050057D02*
X161338095Y-103145295D01*
X161338095Y-103145295D02*
X161338095Y-103240533D01*
X161338095Y-103240533D02*
X161385714Y-103383390D01*
X161385714Y-103383390D02*
X161957142Y-103954819D01*
X161957142Y-103954819D02*
X161338095Y-103954819D01*
D14*
X241325000Y-78320900D02*
X241325000Y-32600900D01*
X241325000Y-32600900D02*
X238785000Y-35140900D01*
X241325000Y-32600900D02*
X195605000Y-32600900D01*
X195605000Y-78320900D02*
X241325000Y-78320900D01*
X195605000Y-32600900D02*
X195605000Y-78320900D01*
D10*
X247693548Y-114504800D02*
X248216052Y-114504800D01*
X247693548Y-115974800D02*
X248216052Y-115974800D01*
X162307536Y-47946200D02*
X162761664Y-47946200D01*
X162307536Y-49416200D02*
X162761664Y-49416200D01*
X230605000Y-44802248D02*
X230605000Y-45324752D01*
X229135000Y-44802248D02*
X229135000Y-45324752D01*
X104493448Y-109475600D02*
X105015952Y-109475600D01*
X104493448Y-110945600D02*
X105015952Y-110945600D01*
X207618000Y-52985936D02*
X207618000Y-53440064D01*
X206148000Y-52985936D02*
X206148000Y-53440064D01*
X209370664Y-47115400D02*
X208916536Y-47115400D01*
X209370664Y-45645400D02*
X208916536Y-45645400D01*
X213587064Y-44677000D02*
X213132936Y-44677000D01*
X213587064Y-43207000D02*
X213132936Y-43207000D01*
X113485664Y-110935000D02*
X113031536Y-110935000D01*
X113485664Y-109465000D02*
X113031536Y-109465000D01*
X229135000Y-49156252D02*
X229135000Y-48633748D01*
X230605000Y-49156252D02*
X230605000Y-48633748D01*
X104493448Y-105665600D02*
X105015952Y-105665600D01*
X104493448Y-107135600D02*
X105015952Y-107135600D01*
X247693548Y-118187800D02*
X248216052Y-118187800D01*
X247693548Y-119657800D02*
X248216052Y-119657800D01*
X209370664Y-44677000D02*
X208916536Y-44677000D01*
X209370664Y-43207000D02*
X208916536Y-43207000D01*
X219527064Y-109835000D02*
X219072936Y-109835000D01*
X219527064Y-108365000D02*
X219072936Y-108365000D01*
X136165000Y-32627064D02*
X136165000Y-32172936D01*
X137635000Y-32627064D02*
X137635000Y-32172936D01*
X127119748Y-56161000D02*
X127642252Y-56161000D01*
X127119748Y-57631000D02*
X127642252Y-57631000D01*
X120403252Y-66394000D02*
X119880748Y-66394000D01*
X120403252Y-64924000D02*
X119880748Y-64924000D01*
X127119748Y-64924000D02*
X127642252Y-64924000D01*
X127119748Y-66394000D02*
X127642252Y-66394000D01*
X134358748Y-64924000D02*
X134881252Y-64924000D01*
X134358748Y-66394000D02*
X134881252Y-66394000D01*
X120403252Y-76046000D02*
X119880748Y-76046000D01*
X120403252Y-74576000D02*
X119880748Y-74576000D01*
X127642252Y-76046000D02*
X127119748Y-76046000D01*
X127642252Y-74576000D02*
X127119748Y-74576000D01*
X229115252Y-67664000D02*
X228592748Y-67664000D01*
X229115252Y-66194000D02*
X228592748Y-66194000D01*
X212971748Y-66194000D02*
X213494252Y-66194000D01*
X212971748Y-67664000D02*
X213494252Y-67664000D01*
X218051748Y-66194000D02*
X218574252Y-66194000D01*
X218051748Y-67664000D02*
X218574252Y-67664000D01*
X223131748Y-66194000D02*
X223654252Y-66194000D01*
X223131748Y-67664000D02*
X223654252Y-67664000D01*
X230605000Y-57968248D02*
X230605000Y-58490752D01*
X229135000Y-57968248D02*
X229135000Y-58490752D01*
X230605000Y-52443748D02*
X230605000Y-52966252D01*
X229135000Y-52443748D02*
X229135000Y-52966252D01*
X207532748Y-66194000D02*
X208055252Y-66194000D01*
X207532748Y-67664000D02*
X208055252Y-67664000D01*
X230605000Y-63048248D02*
X230605000Y-63570752D01*
X229135000Y-63048248D02*
X229135000Y-63570752D01*
X207510748Y-61114000D02*
X208033252Y-61114000D01*
X207510748Y-62584000D02*
X208033252Y-62584000D01*
X134358748Y-56161000D02*
X134881252Y-56161000D01*
X134358748Y-57631000D02*
X134881252Y-57631000D01*
X119880748Y-56161000D02*
X120403252Y-56161000D01*
X119880748Y-57631000D02*
X120403252Y-57631000D01*
X184919252Y-50011000D02*
X184396748Y-50011000D01*
X184919252Y-48541000D02*
X184396748Y-48541000D01*
X180586748Y-48541000D02*
X181109252Y-48541000D01*
X180586748Y-50011000D02*
X181109252Y-50011000D01*
X226575252Y-44727800D02*
X226052748Y-44727800D01*
X226575252Y-43257800D02*
X226052748Y-43257800D01*
X207574248Y-55970500D02*
X208096752Y-55970500D01*
X207574248Y-57440500D02*
X208096752Y-57440500D01*
X139108000Y-44126500D02*
X139108000Y-44948970D01*
X89643000Y-44126500D02*
X139108000Y-44126500D01*
X89643000Y-44126500D02*
X89643000Y-44693029D01*
X88883000Y-44126500D02*
X88123000Y-44126500D01*
X88123000Y-44126500D02*
X88123000Y-45256500D01*
X139108000Y-45564030D02*
X139108000Y-46218970D01*
X89643000Y-45819971D02*
X89643000Y-45963029D01*
X89589529Y-46016500D02*
X89446471Y-46016500D01*
X88319529Y-46016500D02*
X88188000Y-46016500D01*
X88188000Y-46016500D02*
X88188000Y-46218970D01*
X139108000Y-46834030D02*
X139108000Y-47656500D01*
X88188000Y-46834030D02*
X88188000Y-47656500D01*
X88188000Y-47656500D02*
X139108000Y-47656500D01*
X139108000Y-97063000D02*
X139108000Y-97885470D01*
X89643000Y-97063000D02*
X139108000Y-97063000D01*
X89643000Y-97063000D02*
X89643000Y-97629529D01*
X88883000Y-97063000D02*
X88123000Y-97063000D01*
X88123000Y-97063000D02*
X88123000Y-98193000D01*
X139108000Y-98500530D02*
X139108000Y-99155470D01*
X89643000Y-98756471D02*
X89643000Y-98899529D01*
X89589529Y-98953000D02*
X89446471Y-98953000D01*
X88319529Y-98953000D02*
X88188000Y-98953000D01*
X88188000Y-98953000D02*
X88188000Y-99155470D01*
X139108000Y-99770530D02*
X139108000Y-100593000D01*
X88188000Y-99770530D02*
X88188000Y-100593000D01*
X88188000Y-100593000D02*
X139108000Y-100593000D01*
X104369000Y-114949500D02*
X104369000Y-121864500D01*
X104369000Y-121864500D02*
X235839000Y-121864500D01*
X105369000Y-113949500D02*
X104369000Y-114949500D01*
X235839000Y-113949500D02*
X105369000Y-113949500D01*
X235839000Y-121864500D02*
X235839000Y-113949500D01*
X134358748Y-74576000D02*
X134881252Y-74576000D01*
X134358748Y-76046000D02*
X134881252Y-76046000D01*
X217946748Y-43207000D02*
X218469252Y-43207000D01*
X217946748Y-44677000D02*
X218469252Y-44677000D01*
X243300000Y-39080000D02*
X244300000Y-39080000D01*
X243300000Y-35720000D02*
X244300000Y-35720000D01*
X140080000Y-83200000D02*
X140080000Y-82200000D01*
X136720000Y-83200000D02*
X136720000Y-82200000D01*
X223527252Y-56513400D02*
X223004748Y-56513400D01*
X223527252Y-55043400D02*
X223004748Y-55043400D01*
X203500000Y-109680000D02*
X204500000Y-109680000D01*
X203500000Y-106320000D02*
X204500000Y-106320000D01*
X243700000Y-106880000D02*
X244700000Y-106880000D01*
X243700000Y-103520000D02*
X244700000Y-103520000D01*
X155020000Y-94900000D02*
X155020000Y-95900000D01*
X158380000Y-94900000D02*
X158380000Y-95900000D01*
X243300000Y-35080000D02*
X244300000Y-35080000D01*
X243300000Y-31720000D02*
X244300000Y-31720000D01*
X144020000Y-100700000D02*
X144020000Y-101700000D01*
X147380000Y-100700000D02*
X147380000Y-101700000D01*
X96191336Y-112752200D02*
X96645464Y-112752200D01*
X96191336Y-114222200D02*
X96645464Y-114222200D01*
X148020000Y-100700000D02*
X148020000Y-101700000D01*
X151380000Y-100700000D02*
X151380000Y-101700000D01*
X203500000Y-105680000D02*
X204500000Y-105680000D01*
X203500000Y-102320000D02*
X204500000Y-102320000D01*
X217295400Y-49471336D02*
X217295400Y-49925464D01*
X215825400Y-49471336D02*
X215825400Y-49925464D01*
X183480000Y-53200000D02*
X183480000Y-52200000D01*
X180120000Y-53200000D02*
X180120000Y-52200000D01*
X132053064Y-94739000D02*
X131598936Y-94739000D01*
X132053064Y-93269000D02*
X131598936Y-93269000D01*
X243700000Y-102880000D02*
X244700000Y-102880000D01*
X243700000Y-99520000D02*
X244700000Y-99520000D01*
X167420000Y-94900000D02*
X167420000Y-95900000D01*
X170780000Y-94900000D02*
X170780000Y-95900000D01*
X101344464Y-32195000D02*
X100890336Y-32195000D01*
X101344464Y-30725000D02*
X100890336Y-30725000D01*
X219194136Y-55653000D02*
X219648264Y-55653000D01*
X219194136Y-57123000D02*
X219648264Y-57123000D01*
X136080000Y-83200000D02*
X136080000Y-82200000D01*
X132720000Y-83200000D02*
X132720000Y-82200000D01*
X215314200Y-53265336D02*
X215314200Y-53719464D01*
X213844200Y-53265336D02*
X213844200Y-53719464D01*
X227182400Y-54953600D02*
X227782400Y-54953600D01*
X228482400Y-54303600D02*
X228482400Y-51503600D01*
X226482400Y-51503600D02*
X226482400Y-54303600D01*
X227782400Y-50853600D02*
X227182400Y-50853600D01*
X226482400Y-54253600D02*
G75*
G03*
X227182400Y-54953600I699999J-1D01*
G01*
X227782400Y-54953600D02*
G75*
G03*
X228482400Y-54253600I1J699999D01*
G01*
X227182400Y-50853600D02*
G75*
G03*
X226482400Y-51553600I0J-700000D01*
G01*
X228482400Y-51553600D02*
G75*
G03*
X227782400Y-50853600I-700000J0D01*
G01*
X96445336Y-50369800D02*
X96899464Y-50369800D01*
X96445336Y-51839800D02*
X96899464Y-51839800D01*
X219276600Y-53281336D02*
X219276600Y-53735464D01*
X217806600Y-53281336D02*
X217806600Y-53735464D01*
X219276600Y-49471336D02*
X219276600Y-49925464D01*
X217806600Y-49471336D02*
X217806600Y-49925464D01*
X151020000Y-94900000D02*
X151020000Y-95900000D01*
X154380000Y-94900000D02*
X154380000Y-95900000D01*
D13*
X221321400Y-51173000D02*
X221321400Y-51473000D01*
X221321400Y-51173000D02*
X224671400Y-51173000D01*
X221321400Y-54298000D02*
X220096400Y-54298000D01*
X221321400Y-54523000D02*
X221321400Y-54298000D01*
X221321400Y-54523000D02*
X224671400Y-54523000D01*
X224671400Y-51173000D02*
X224671400Y-51473000D01*
X224671400Y-54523000D02*
X224671400Y-54223000D01*
D10*
X187480000Y-53200000D02*
X187480000Y-52200000D01*
X184120000Y-53200000D02*
X184120000Y-52200000D01*
X215314200Y-49455336D02*
X215314200Y-49909464D01*
X213844200Y-49455336D02*
X213844200Y-49909464D01*
X208800000Y-106320000D02*
X207800000Y-106320000D01*
X208800000Y-109680000D02*
X207800000Y-109680000D01*
X178580000Y-70600000D02*
X178580000Y-69600000D01*
X175220000Y-70600000D02*
X175220000Y-69600000D01*
X208800000Y-102320000D02*
X207800000Y-102320000D01*
X208800000Y-105680000D02*
X207800000Y-105680000D01*
X182580000Y-70600000D02*
X182580000Y-69600000D01*
X179220000Y-70600000D02*
X179220000Y-69600000D01*
X163420000Y-94900000D02*
X163420000Y-95900000D01*
X166780000Y-94900000D02*
X166780000Y-95900000D01*
X217295400Y-53265336D02*
X217295400Y-53719464D01*
X215825400Y-53265336D02*
X215825400Y-53719464D01*
X156420000Y-100700000D02*
X156420000Y-101700000D01*
X159780000Y-100700000D02*
X159780000Y-101700000D01*
X222124536Y-43257800D02*
X222578664Y-43257800D01*
X222124536Y-44727800D02*
X222578664Y-44727800D01*
X160420000Y-100700000D02*
X160420000Y-101700000D01*
X163780000Y-100700000D02*
X163780000Y-101700000D01*
M02*
