G04 #@! TF.GenerationSoftware,KiCad,Pcbnew,7.0.5-0*
G04 #@! TF.CreationDate,2023-07-16T23:29:11+02:00*
G04 #@! TF.ProjectId,Z3660_v02,5a333636-305f-4763-9032-2e6b69636164,rev?*
G04 #@! TF.SameCoordinates,Original*
G04 #@! TF.FileFunction,Legend,Bot*
G04 #@! TF.FilePolarity,Positive*
%FSLAX46Y46*%
G04 Gerber Fmt 4.6, Leading zero omitted, Abs format (unit mm)*
G04 Created by KiCad (PCBNEW 7.0.5-0) date 2023-07-16 23:29:11*
%MOMM*%
%LPD*%
G01*
G04 APERTURE LIST*
%ADD10C,0.120000*%
%ADD11C,0.400000*%
%ADD12C,0.250000*%
%ADD13C,0.150000*%
%ADD14C,0.200000*%
G04 APERTURE END LIST*
D10*
X213664800Y-55321200D02*
X213664800Y-47853600D01*
D11*
X220164000Y-55067200D02*
G75*
G03*
X220164000Y-55067200I-200000J0D01*
G01*
D10*
X213664800Y-47853600D02*
X219506800Y-47853600D01*
X219506800Y-47853600D02*
X219506800Y-55321200D01*
X241046000Y-75819000D02*
X238760000Y-75819000D01*
X219506800Y-51587400D02*
X213664800Y-51562000D01*
X238760000Y-75819000D02*
X238760000Y-78105000D01*
X219506800Y-55321200D02*
X213664800Y-55321200D01*
D12*
X102339827Y-121686528D02*
X103196970Y-121686528D01*
X102768399Y-121686528D02*
X102768399Y-120186528D01*
X102768399Y-120186528D02*
X102911256Y-120400814D01*
X102911256Y-120400814D02*
X103054113Y-120543671D01*
X103054113Y-120543671D02*
X103196970Y-120615100D01*
D13*
X248623057Y-113861580D02*
X248670676Y-113909200D01*
X248670676Y-113909200D02*
X248813533Y-113956819D01*
X248813533Y-113956819D02*
X248908771Y-113956819D01*
X248908771Y-113956819D02*
X249051628Y-113909200D01*
X249051628Y-113909200D02*
X249146866Y-113813961D01*
X249146866Y-113813961D02*
X249194485Y-113718723D01*
X249194485Y-113718723D02*
X249242104Y-113528247D01*
X249242104Y-113528247D02*
X249242104Y-113385390D01*
X249242104Y-113385390D02*
X249194485Y-113194914D01*
X249194485Y-113194914D02*
X249146866Y-113099676D01*
X249146866Y-113099676D02*
X249051628Y-113004438D01*
X249051628Y-113004438D02*
X248908771Y-112956819D01*
X248908771Y-112956819D02*
X248813533Y-112956819D01*
X248813533Y-112956819D02*
X248670676Y-113004438D01*
X248670676Y-113004438D02*
X248623057Y-113052057D01*
X247670676Y-113956819D02*
X248242104Y-113956819D01*
X247956390Y-113956819D02*
X247956390Y-112956819D01*
X247956390Y-112956819D02*
X248051628Y-113099676D01*
X248051628Y-113099676D02*
X248146866Y-113194914D01*
X248146866Y-113194914D02*
X248242104Y-113242533D01*
X247289723Y-113052057D02*
X247242104Y-113004438D01*
X247242104Y-113004438D02*
X247146866Y-112956819D01*
X247146866Y-112956819D02*
X246908771Y-112956819D01*
X246908771Y-112956819D02*
X246813533Y-113004438D01*
X246813533Y-113004438D02*
X246765914Y-113052057D01*
X246765914Y-113052057D02*
X246718295Y-113147295D01*
X246718295Y-113147295D02*
X246718295Y-113242533D01*
X246718295Y-113242533D02*
X246765914Y-113385390D01*
X246765914Y-113385390D02*
X247337342Y-113956819D01*
X247337342Y-113956819D02*
X246718295Y-113956819D01*
X162650466Y-47510419D02*
X162983799Y-47034228D01*
X163221894Y-47510419D02*
X163221894Y-46510419D01*
X163221894Y-46510419D02*
X162840942Y-46510419D01*
X162840942Y-46510419D02*
X162745704Y-46558038D01*
X162745704Y-46558038D02*
X162698085Y-46605657D01*
X162698085Y-46605657D02*
X162650466Y-46700895D01*
X162650466Y-46700895D02*
X162650466Y-46843752D01*
X162650466Y-46843752D02*
X162698085Y-46938990D01*
X162698085Y-46938990D02*
X162745704Y-46986609D01*
X162745704Y-46986609D02*
X162840942Y-47034228D01*
X162840942Y-47034228D02*
X163221894Y-47034228D01*
X162269513Y-46605657D02*
X162221894Y-46558038D01*
X162221894Y-46558038D02*
X162126656Y-46510419D01*
X162126656Y-46510419D02*
X161888561Y-46510419D01*
X161888561Y-46510419D02*
X161793323Y-46558038D01*
X161793323Y-46558038D02*
X161745704Y-46605657D01*
X161745704Y-46605657D02*
X161698085Y-46700895D01*
X161698085Y-46700895D02*
X161698085Y-46796133D01*
X161698085Y-46796133D02*
X161745704Y-46938990D01*
X161745704Y-46938990D02*
X162317132Y-47510419D01*
X162317132Y-47510419D02*
X161698085Y-47510419D01*
X163129838Y-50863219D02*
X163701266Y-50863219D01*
X163415552Y-50863219D02*
X163415552Y-49863219D01*
X163415552Y-49863219D02*
X163510790Y-50006076D01*
X163510790Y-50006076D02*
X163606028Y-50101314D01*
X163606028Y-50101314D02*
X163701266Y-50148933D01*
X162510790Y-49863219D02*
X162415552Y-49863219D01*
X162415552Y-49863219D02*
X162320314Y-49910838D01*
X162320314Y-49910838D02*
X162272695Y-49958457D01*
X162272695Y-49958457D02*
X162225076Y-50053695D01*
X162225076Y-50053695D02*
X162177457Y-50244171D01*
X162177457Y-50244171D02*
X162177457Y-50482266D01*
X162177457Y-50482266D02*
X162225076Y-50672742D01*
X162225076Y-50672742D02*
X162272695Y-50767980D01*
X162272695Y-50767980D02*
X162320314Y-50815600D01*
X162320314Y-50815600D02*
X162415552Y-50863219D01*
X162415552Y-50863219D02*
X162510790Y-50863219D01*
X162510790Y-50863219D02*
X162606028Y-50815600D01*
X162606028Y-50815600D02*
X162653647Y-50767980D01*
X162653647Y-50767980D02*
X162701266Y-50672742D01*
X162701266Y-50672742D02*
X162748885Y-50482266D01*
X162748885Y-50482266D02*
X162748885Y-50244171D01*
X162748885Y-50244171D02*
X162701266Y-50053695D01*
X162701266Y-50053695D02*
X162653647Y-49958457D01*
X162653647Y-49958457D02*
X162606028Y-49910838D01*
X162606028Y-49910838D02*
X162510790Y-49863219D01*
X161748885Y-50863219D02*
X161748885Y-49863219D01*
X161653647Y-50482266D02*
X161367933Y-50863219D01*
X161367933Y-50196552D02*
X161748885Y-50577504D01*
X205052466Y-102796819D02*
X205385799Y-102320628D01*
X205623894Y-102796819D02*
X205623894Y-101796819D01*
X205623894Y-101796819D02*
X205242942Y-101796819D01*
X205242942Y-101796819D02*
X205147704Y-101844438D01*
X205147704Y-101844438D02*
X205100085Y-101892057D01*
X205100085Y-101892057D02*
X205052466Y-101987295D01*
X205052466Y-101987295D02*
X205052466Y-102130152D01*
X205052466Y-102130152D02*
X205100085Y-102225390D01*
X205100085Y-102225390D02*
X205147704Y-102273009D01*
X205147704Y-102273009D02*
X205242942Y-102320628D01*
X205242942Y-102320628D02*
X205623894Y-102320628D01*
X204623894Y-102796819D02*
X204623894Y-101796819D01*
X204623894Y-101796819D02*
X204052466Y-102796819D01*
X204052466Y-102796819D02*
X204052466Y-101796819D01*
X203052466Y-102796819D02*
X203623894Y-102796819D01*
X203338180Y-102796819D02*
X203338180Y-101796819D01*
X203338180Y-101796819D02*
X203433418Y-101939676D01*
X203433418Y-101939676D02*
X203528656Y-102034914D01*
X203528656Y-102034914D02*
X203623894Y-102082533D01*
X202100085Y-102796819D02*
X202671513Y-102796819D01*
X202385799Y-102796819D02*
X202385799Y-101796819D01*
X202385799Y-101796819D02*
X202481037Y-101939676D01*
X202481037Y-101939676D02*
X202576275Y-102034914D01*
X202576275Y-102034914D02*
X202671513Y-102082533D01*
X204157247Y-108943619D02*
X204728675Y-108943619D01*
X204442961Y-108943619D02*
X204442961Y-107943619D01*
X204442961Y-107943619D02*
X204538199Y-108086476D01*
X204538199Y-108086476D02*
X204633437Y-108181714D01*
X204633437Y-108181714D02*
X204728675Y-108229333D01*
X203728675Y-108943619D02*
X203728675Y-107943619D01*
X203633437Y-108562666D02*
X203347723Y-108943619D01*
X203347723Y-108276952D02*
X203728675Y-108657904D01*
X245540066Y-101206019D02*
X245873399Y-100729828D01*
X246111494Y-101206019D02*
X246111494Y-100206019D01*
X246111494Y-100206019D02*
X245730542Y-100206019D01*
X245730542Y-100206019D02*
X245635304Y-100253638D01*
X245635304Y-100253638D02*
X245587685Y-100301257D01*
X245587685Y-100301257D02*
X245540066Y-100396495D01*
X245540066Y-100396495D02*
X245540066Y-100539352D01*
X245540066Y-100539352D02*
X245587685Y-100634590D01*
X245587685Y-100634590D02*
X245635304Y-100682209D01*
X245635304Y-100682209D02*
X245730542Y-100729828D01*
X245730542Y-100729828D02*
X246111494Y-100729828D01*
X245111494Y-101206019D02*
X245111494Y-100206019D01*
X245111494Y-100206019D02*
X244540066Y-101206019D01*
X244540066Y-101206019D02*
X244540066Y-100206019D01*
X243540066Y-101206019D02*
X244111494Y-101206019D01*
X243825780Y-101206019D02*
X243825780Y-100206019D01*
X243825780Y-100206019D02*
X243921018Y-100348876D01*
X243921018Y-100348876D02*
X244016256Y-100444114D01*
X244016256Y-100444114D02*
X244111494Y-100491733D01*
X243159113Y-100301257D02*
X243111494Y-100253638D01*
X243111494Y-100253638D02*
X243016256Y-100206019D01*
X243016256Y-100206019D02*
X242778161Y-100206019D01*
X242778161Y-100206019D02*
X242682923Y-100253638D01*
X242682923Y-100253638D02*
X242635304Y-100301257D01*
X242635304Y-100301257D02*
X242587685Y-100396495D01*
X242587685Y-100396495D02*
X242587685Y-100491733D01*
X242587685Y-100491733D02*
X242635304Y-100634590D01*
X242635304Y-100634590D02*
X243206732Y-101206019D01*
X243206732Y-101206019D02*
X242587685Y-101206019D01*
X244289247Y-107454419D02*
X244860675Y-107454419D01*
X244574961Y-107454419D02*
X244574961Y-106454419D01*
X244574961Y-106454419D02*
X244670199Y-106597276D01*
X244670199Y-106597276D02*
X244765437Y-106692514D01*
X244765437Y-106692514D02*
X244860675Y-106740133D01*
X243860675Y-107454419D02*
X243860675Y-106454419D01*
X243765437Y-107073466D02*
X243479723Y-107454419D01*
X243479723Y-106787752D02*
X243860675Y-107168704D01*
X185856476Y-51472819D02*
X186189809Y-50996628D01*
X186427904Y-51472819D02*
X186427904Y-50472819D01*
X186427904Y-50472819D02*
X186046952Y-50472819D01*
X186046952Y-50472819D02*
X185951714Y-50520438D01*
X185951714Y-50520438D02*
X185904095Y-50568057D01*
X185904095Y-50568057D02*
X185856476Y-50663295D01*
X185856476Y-50663295D02*
X185856476Y-50806152D01*
X185856476Y-50806152D02*
X185904095Y-50901390D01*
X185904095Y-50901390D02*
X185951714Y-50949009D01*
X185951714Y-50949009D02*
X186046952Y-50996628D01*
X186046952Y-50996628D02*
X186427904Y-50996628D01*
X185427904Y-51472819D02*
X185427904Y-50472819D01*
X185427904Y-50472819D02*
X184856476Y-51472819D01*
X184856476Y-51472819D02*
X184856476Y-50472819D01*
X184237428Y-50901390D02*
X184332666Y-50853771D01*
X184332666Y-50853771D02*
X184380285Y-50806152D01*
X184380285Y-50806152D02*
X184427904Y-50710914D01*
X184427904Y-50710914D02*
X184427904Y-50663295D01*
X184427904Y-50663295D02*
X184380285Y-50568057D01*
X184380285Y-50568057D02*
X184332666Y-50520438D01*
X184332666Y-50520438D02*
X184237428Y-50472819D01*
X184237428Y-50472819D02*
X184046952Y-50472819D01*
X184046952Y-50472819D02*
X183951714Y-50520438D01*
X183951714Y-50520438D02*
X183904095Y-50568057D01*
X183904095Y-50568057D02*
X183856476Y-50663295D01*
X183856476Y-50663295D02*
X183856476Y-50710914D01*
X183856476Y-50710914D02*
X183904095Y-50806152D01*
X183904095Y-50806152D02*
X183951714Y-50853771D01*
X183951714Y-50853771D02*
X184046952Y-50901390D01*
X184046952Y-50901390D02*
X184237428Y-50901390D01*
X184237428Y-50901390D02*
X184332666Y-50949009D01*
X184332666Y-50949009D02*
X184380285Y-50996628D01*
X184380285Y-50996628D02*
X184427904Y-51091866D01*
X184427904Y-51091866D02*
X184427904Y-51282342D01*
X184427904Y-51282342D02*
X184380285Y-51377580D01*
X184380285Y-51377580D02*
X184332666Y-51425200D01*
X184332666Y-51425200D02*
X184237428Y-51472819D01*
X184237428Y-51472819D02*
X184046952Y-51472819D01*
X184046952Y-51472819D02*
X183951714Y-51425200D01*
X183951714Y-51425200D02*
X183904095Y-51377580D01*
X183904095Y-51377580D02*
X183856476Y-51282342D01*
X183856476Y-51282342D02*
X183856476Y-51091866D01*
X183856476Y-51091866D02*
X183904095Y-50996628D01*
X183904095Y-50996628D02*
X183951714Y-50949009D01*
X183951714Y-50949009D02*
X184046952Y-50901390D01*
X185310447Y-55740019D02*
X185881875Y-55740019D01*
X185596161Y-55740019D02*
X185596161Y-54740019D01*
X185596161Y-54740019D02*
X185691399Y-54882876D01*
X185691399Y-54882876D02*
X185786637Y-54978114D01*
X185786637Y-54978114D02*
X185881875Y-55025733D01*
X184881875Y-55740019D02*
X184881875Y-54740019D01*
X184786637Y-55359066D02*
X184500923Y-55740019D01*
X184500923Y-55073352D02*
X184881875Y-55454304D01*
X241863476Y-31660819D02*
X242196809Y-31184628D01*
X242434904Y-31660819D02*
X242434904Y-30660819D01*
X242434904Y-30660819D02*
X242053952Y-30660819D01*
X242053952Y-30660819D02*
X241958714Y-30708438D01*
X241958714Y-30708438D02*
X241911095Y-30756057D01*
X241911095Y-30756057D02*
X241863476Y-30851295D01*
X241863476Y-30851295D02*
X241863476Y-30994152D01*
X241863476Y-30994152D02*
X241911095Y-31089390D01*
X241911095Y-31089390D02*
X241958714Y-31137009D01*
X241958714Y-31137009D02*
X242053952Y-31184628D01*
X242053952Y-31184628D02*
X242434904Y-31184628D01*
X241434904Y-31660819D02*
X241434904Y-30660819D01*
X241434904Y-30660819D02*
X240863476Y-31660819D01*
X240863476Y-31660819D02*
X240863476Y-30660819D01*
X239863476Y-31660819D02*
X240434904Y-31660819D01*
X240149190Y-31660819D02*
X240149190Y-30660819D01*
X240149190Y-30660819D02*
X240244428Y-30803676D01*
X240244428Y-30803676D02*
X240339666Y-30898914D01*
X240339666Y-30898914D02*
X240434904Y-30946533D01*
X244390847Y-36080419D02*
X244962275Y-36080419D01*
X244676561Y-36080419D02*
X244676561Y-35080419D01*
X244676561Y-35080419D02*
X244771799Y-35223276D01*
X244771799Y-35223276D02*
X244867037Y-35318514D01*
X244867037Y-35318514D02*
X244962275Y-35366133D01*
X243962275Y-36080419D02*
X243962275Y-35080419D01*
X243867037Y-35699466D02*
X243581323Y-36080419D01*
X243581323Y-35413752D02*
X243962275Y-35794704D01*
X185373876Y-68186019D02*
X185707209Y-67709828D01*
X185945304Y-68186019D02*
X185945304Y-67186019D01*
X185945304Y-67186019D02*
X185564352Y-67186019D01*
X185564352Y-67186019D02*
X185469114Y-67233638D01*
X185469114Y-67233638D02*
X185421495Y-67281257D01*
X185421495Y-67281257D02*
X185373876Y-67376495D01*
X185373876Y-67376495D02*
X185373876Y-67519352D01*
X185373876Y-67519352D02*
X185421495Y-67614590D01*
X185421495Y-67614590D02*
X185469114Y-67662209D01*
X185469114Y-67662209D02*
X185564352Y-67709828D01*
X185564352Y-67709828D02*
X185945304Y-67709828D01*
X184945304Y-68186019D02*
X184945304Y-67186019D01*
X184945304Y-67186019D02*
X184373876Y-68186019D01*
X184373876Y-68186019D02*
X184373876Y-67186019D01*
X183992923Y-67186019D02*
X183326257Y-67186019D01*
X183326257Y-67186019D02*
X183754828Y-68186019D01*
X184904047Y-74078819D02*
X185475475Y-74078819D01*
X185189761Y-74078819D02*
X185189761Y-73078819D01*
X185189761Y-73078819D02*
X185284999Y-73221676D01*
X185284999Y-73221676D02*
X185380237Y-73316914D01*
X185380237Y-73316914D02*
X185475475Y-73364533D01*
X184475475Y-74078819D02*
X184475475Y-73078819D01*
X184380237Y-73697866D02*
X184094523Y-74078819D01*
X184094523Y-73412152D02*
X184475475Y-73793104D01*
X233103657Y-46231980D02*
X233151276Y-46279600D01*
X233151276Y-46279600D02*
X233294133Y-46327219D01*
X233294133Y-46327219D02*
X233389371Y-46327219D01*
X233389371Y-46327219D02*
X233532228Y-46279600D01*
X233532228Y-46279600D02*
X233627466Y-46184361D01*
X233627466Y-46184361D02*
X233675085Y-46089123D01*
X233675085Y-46089123D02*
X233722704Y-45898647D01*
X233722704Y-45898647D02*
X233722704Y-45755790D01*
X233722704Y-45755790D02*
X233675085Y-45565314D01*
X233675085Y-45565314D02*
X233627466Y-45470076D01*
X233627466Y-45470076D02*
X233532228Y-45374838D01*
X233532228Y-45374838D02*
X233389371Y-45327219D01*
X233389371Y-45327219D02*
X233294133Y-45327219D01*
X233294133Y-45327219D02*
X233151276Y-45374838D01*
X233151276Y-45374838D02*
X233103657Y-45422457D01*
X232246514Y-45660552D02*
X232246514Y-46327219D01*
X232484609Y-45279600D02*
X232722704Y-45993885D01*
X232722704Y-45993885D02*
X232103657Y-45993885D01*
X231817942Y-45327219D02*
X231151276Y-45327219D01*
X231151276Y-45327219D02*
X231579847Y-46327219D01*
X105316257Y-108883180D02*
X105363876Y-108930800D01*
X105363876Y-108930800D02*
X105506733Y-108978419D01*
X105506733Y-108978419D02*
X105601971Y-108978419D01*
X105601971Y-108978419D02*
X105744828Y-108930800D01*
X105744828Y-108930800D02*
X105840066Y-108835561D01*
X105840066Y-108835561D02*
X105887685Y-108740323D01*
X105887685Y-108740323D02*
X105935304Y-108549847D01*
X105935304Y-108549847D02*
X105935304Y-108406990D01*
X105935304Y-108406990D02*
X105887685Y-108216514D01*
X105887685Y-108216514D02*
X105840066Y-108121276D01*
X105840066Y-108121276D02*
X105744828Y-108026038D01*
X105744828Y-108026038D02*
X105601971Y-107978419D01*
X105601971Y-107978419D02*
X105506733Y-107978419D01*
X105506733Y-107978419D02*
X105363876Y-108026038D01*
X105363876Y-108026038D02*
X105316257Y-108073657D01*
X104363876Y-108978419D02*
X104935304Y-108978419D01*
X104649590Y-108978419D02*
X104649590Y-107978419D01*
X104649590Y-107978419D02*
X104744828Y-108121276D01*
X104744828Y-108121276D02*
X104840066Y-108216514D01*
X104840066Y-108216514D02*
X104935304Y-108264133D01*
X103411495Y-108978419D02*
X103982923Y-108978419D01*
X103697209Y-108978419D02*
X103697209Y-107978419D01*
X103697209Y-107978419D02*
X103792447Y-108121276D01*
X103792447Y-108121276D02*
X103887685Y-108216514D01*
X103887685Y-108216514D02*
X103982923Y-108264133D01*
X209107066Y-53744019D02*
X209440399Y-53267828D01*
X209678494Y-53744019D02*
X209678494Y-52744019D01*
X209678494Y-52744019D02*
X209297542Y-52744019D01*
X209297542Y-52744019D02*
X209202304Y-52791638D01*
X209202304Y-52791638D02*
X209154685Y-52839257D01*
X209154685Y-52839257D02*
X209107066Y-52934495D01*
X209107066Y-52934495D02*
X209107066Y-53077352D01*
X209107066Y-53077352D02*
X209154685Y-53172590D01*
X209154685Y-53172590D02*
X209202304Y-53220209D01*
X209202304Y-53220209D02*
X209297542Y-53267828D01*
X209297542Y-53267828D02*
X209678494Y-53267828D01*
X208249923Y-52744019D02*
X208440399Y-52744019D01*
X208440399Y-52744019D02*
X208535637Y-52791638D01*
X208535637Y-52791638D02*
X208583256Y-52839257D01*
X208583256Y-52839257D02*
X208678494Y-52982114D01*
X208678494Y-52982114D02*
X208726113Y-53172590D01*
X208726113Y-53172590D02*
X208726113Y-53553542D01*
X208726113Y-53553542D02*
X208678494Y-53648780D01*
X208678494Y-53648780D02*
X208630875Y-53696400D01*
X208630875Y-53696400D02*
X208535637Y-53744019D01*
X208535637Y-53744019D02*
X208345161Y-53744019D01*
X208345161Y-53744019D02*
X208249923Y-53696400D01*
X208249923Y-53696400D02*
X208202304Y-53648780D01*
X208202304Y-53648780D02*
X208154685Y-53553542D01*
X208154685Y-53553542D02*
X208154685Y-53315447D01*
X208154685Y-53315447D02*
X208202304Y-53220209D01*
X208202304Y-53220209D02*
X208249923Y-53172590D01*
X208249923Y-53172590D02*
X208345161Y-53124971D01*
X208345161Y-53124971D02*
X208535637Y-53124971D01*
X208535637Y-53124971D02*
X208630875Y-53172590D01*
X208630875Y-53172590D02*
X208678494Y-53220209D01*
X208678494Y-53220209D02*
X208726113Y-53315447D01*
X209110247Y-54912419D02*
X209681675Y-54912419D01*
X209395961Y-54912419D02*
X209395961Y-53912419D01*
X209395961Y-53912419D02*
X209491199Y-54055276D01*
X209491199Y-54055276D02*
X209586437Y-54150514D01*
X209586437Y-54150514D02*
X209681675Y-54198133D01*
X208681675Y-54912419D02*
X208681675Y-53912419D01*
X208586437Y-54531466D02*
X208300723Y-54912419D01*
X208300723Y-54245752D02*
X208681675Y-54626704D01*
X208395866Y-48511619D02*
X208729199Y-48035428D01*
X208967294Y-48511619D02*
X208967294Y-47511619D01*
X208967294Y-47511619D02*
X208586342Y-47511619D01*
X208586342Y-47511619D02*
X208491104Y-47559238D01*
X208491104Y-47559238D02*
X208443485Y-47606857D01*
X208443485Y-47606857D02*
X208395866Y-47702095D01*
X208395866Y-47702095D02*
X208395866Y-47844952D01*
X208395866Y-47844952D02*
X208443485Y-47940190D01*
X208443485Y-47940190D02*
X208491104Y-47987809D01*
X208491104Y-47987809D02*
X208586342Y-48035428D01*
X208586342Y-48035428D02*
X208967294Y-48035428D01*
X208062532Y-47511619D02*
X207395866Y-47511619D01*
X207395866Y-47511619D02*
X207824437Y-48511619D01*
X208348247Y-49680019D02*
X208919675Y-49680019D01*
X208633961Y-49680019D02*
X208633961Y-48680019D01*
X208633961Y-48680019D02*
X208729199Y-48822876D01*
X208729199Y-48822876D02*
X208824437Y-48918114D01*
X208824437Y-48918114D02*
X208919675Y-48965733D01*
X207919675Y-49680019D02*
X207919675Y-48680019D01*
X207824437Y-49299066D02*
X207538723Y-49680019D01*
X207538723Y-49013352D02*
X207919675Y-49394304D01*
X213526666Y-46073219D02*
X213859999Y-45597028D01*
X214098094Y-46073219D02*
X214098094Y-45073219D01*
X214098094Y-45073219D02*
X213717142Y-45073219D01*
X213717142Y-45073219D02*
X213621904Y-45120838D01*
X213621904Y-45120838D02*
X213574285Y-45168457D01*
X213574285Y-45168457D02*
X213526666Y-45263695D01*
X213526666Y-45263695D02*
X213526666Y-45406552D01*
X213526666Y-45406552D02*
X213574285Y-45501790D01*
X213574285Y-45501790D02*
X213621904Y-45549409D01*
X213621904Y-45549409D02*
X213717142Y-45597028D01*
X213717142Y-45597028D02*
X214098094Y-45597028D01*
X212955237Y-45501790D02*
X213050475Y-45454171D01*
X213050475Y-45454171D02*
X213098094Y-45406552D01*
X213098094Y-45406552D02*
X213145713Y-45311314D01*
X213145713Y-45311314D02*
X213145713Y-45263695D01*
X213145713Y-45263695D02*
X213098094Y-45168457D01*
X213098094Y-45168457D02*
X213050475Y-45120838D01*
X213050475Y-45120838D02*
X212955237Y-45073219D01*
X212955237Y-45073219D02*
X212764761Y-45073219D01*
X212764761Y-45073219D02*
X212669523Y-45120838D01*
X212669523Y-45120838D02*
X212621904Y-45168457D01*
X212621904Y-45168457D02*
X212574285Y-45263695D01*
X212574285Y-45263695D02*
X212574285Y-45311314D01*
X212574285Y-45311314D02*
X212621904Y-45406552D01*
X212621904Y-45406552D02*
X212669523Y-45454171D01*
X212669523Y-45454171D02*
X212764761Y-45501790D01*
X212764761Y-45501790D02*
X212955237Y-45501790D01*
X212955237Y-45501790D02*
X213050475Y-45549409D01*
X213050475Y-45549409D02*
X213098094Y-45597028D01*
X213098094Y-45597028D02*
X213145713Y-45692266D01*
X213145713Y-45692266D02*
X213145713Y-45882742D01*
X213145713Y-45882742D02*
X213098094Y-45977980D01*
X213098094Y-45977980D02*
X213050475Y-46025600D01*
X213050475Y-46025600D02*
X212955237Y-46073219D01*
X212955237Y-46073219D02*
X212764761Y-46073219D01*
X212764761Y-46073219D02*
X212669523Y-46025600D01*
X212669523Y-46025600D02*
X212621904Y-45977980D01*
X212621904Y-45977980D02*
X212574285Y-45882742D01*
X212574285Y-45882742D02*
X212574285Y-45692266D01*
X212574285Y-45692266D02*
X212621904Y-45597028D01*
X212621904Y-45597028D02*
X212669523Y-45549409D01*
X212669523Y-45549409D02*
X212764761Y-45501790D01*
X213479047Y-47343219D02*
X214050475Y-47343219D01*
X213764761Y-47343219D02*
X213764761Y-46343219D01*
X213764761Y-46343219D02*
X213859999Y-46486076D01*
X213859999Y-46486076D02*
X213955237Y-46581314D01*
X213955237Y-46581314D02*
X214050475Y-46628933D01*
X213050475Y-47343219D02*
X213050475Y-46343219D01*
X212955237Y-46962266D02*
X212669523Y-47343219D01*
X212669523Y-46676552D02*
X213050475Y-47057504D01*
X113901457Y-109130819D02*
X114234790Y-108654628D01*
X114472885Y-109130819D02*
X114472885Y-108130819D01*
X114472885Y-108130819D02*
X114091933Y-108130819D01*
X114091933Y-108130819D02*
X113996695Y-108178438D01*
X113996695Y-108178438D02*
X113949076Y-108226057D01*
X113949076Y-108226057D02*
X113901457Y-108321295D01*
X113901457Y-108321295D02*
X113901457Y-108464152D01*
X113901457Y-108464152D02*
X113949076Y-108559390D01*
X113949076Y-108559390D02*
X113996695Y-108607009D01*
X113996695Y-108607009D02*
X114091933Y-108654628D01*
X114091933Y-108654628D02*
X114472885Y-108654628D01*
X112949076Y-109130819D02*
X113520504Y-109130819D01*
X113234790Y-109130819D02*
X113234790Y-108130819D01*
X113234790Y-108130819D02*
X113330028Y-108273676D01*
X113330028Y-108273676D02*
X113425266Y-108368914D01*
X113425266Y-108368914D02*
X113520504Y-108416533D01*
X112615742Y-108130819D02*
X111996695Y-108130819D01*
X111996695Y-108130819D02*
X112330028Y-108511771D01*
X112330028Y-108511771D02*
X112187171Y-108511771D01*
X112187171Y-108511771D02*
X112091933Y-108559390D01*
X112091933Y-108559390D02*
X112044314Y-108607009D01*
X112044314Y-108607009D02*
X111996695Y-108702247D01*
X111996695Y-108702247D02*
X111996695Y-108940342D01*
X111996695Y-108940342D02*
X112044314Y-109035580D01*
X112044314Y-109035580D02*
X112091933Y-109083200D01*
X112091933Y-109083200D02*
X112187171Y-109130819D01*
X112187171Y-109130819D02*
X112472885Y-109130819D01*
X112472885Y-109130819D02*
X112568123Y-109083200D01*
X112568123Y-109083200D02*
X112615742Y-109035580D01*
X113874466Y-112331219D02*
X114445894Y-112331219D01*
X114160180Y-112331219D02*
X114160180Y-111331219D01*
X114160180Y-111331219D02*
X114255418Y-111474076D01*
X114255418Y-111474076D02*
X114350656Y-111569314D01*
X114350656Y-111569314D02*
X114445894Y-111616933D01*
X113255418Y-111331219D02*
X113160180Y-111331219D01*
X113160180Y-111331219D02*
X113064942Y-111378838D01*
X113064942Y-111378838D02*
X113017323Y-111426457D01*
X113017323Y-111426457D02*
X112969704Y-111521695D01*
X112969704Y-111521695D02*
X112922085Y-111712171D01*
X112922085Y-111712171D02*
X112922085Y-111950266D01*
X112922085Y-111950266D02*
X112969704Y-112140742D01*
X112969704Y-112140742D02*
X113017323Y-112235980D01*
X113017323Y-112235980D02*
X113064942Y-112283600D01*
X113064942Y-112283600D02*
X113160180Y-112331219D01*
X113160180Y-112331219D02*
X113255418Y-112331219D01*
X113255418Y-112331219D02*
X113350656Y-112283600D01*
X113350656Y-112283600D02*
X113398275Y-112235980D01*
X113398275Y-112235980D02*
X113445894Y-112140742D01*
X113445894Y-112140742D02*
X113493513Y-111950266D01*
X113493513Y-111950266D02*
X113493513Y-111712171D01*
X113493513Y-111712171D02*
X113445894Y-111521695D01*
X113445894Y-111521695D02*
X113398275Y-111426457D01*
X113398275Y-111426457D02*
X113350656Y-111378838D01*
X113350656Y-111378838D02*
X113255418Y-111331219D01*
X112303037Y-111331219D02*
X112207799Y-111331219D01*
X112207799Y-111331219D02*
X112112561Y-111378838D01*
X112112561Y-111378838D02*
X112064942Y-111426457D01*
X112064942Y-111426457D02*
X112017323Y-111521695D01*
X112017323Y-111521695D02*
X111969704Y-111712171D01*
X111969704Y-111712171D02*
X111969704Y-111950266D01*
X111969704Y-111950266D02*
X112017323Y-112140742D01*
X112017323Y-112140742D02*
X112064942Y-112235980D01*
X112064942Y-112235980D02*
X112112561Y-112283600D01*
X112112561Y-112283600D02*
X112207799Y-112331219D01*
X112207799Y-112331219D02*
X112303037Y-112331219D01*
X112303037Y-112331219D02*
X112398275Y-112283600D01*
X112398275Y-112283600D02*
X112445894Y-112235980D01*
X112445894Y-112235980D02*
X112493513Y-112140742D01*
X112493513Y-112140742D02*
X112541132Y-111950266D01*
X112541132Y-111950266D02*
X112541132Y-111712171D01*
X112541132Y-111712171D02*
X112493513Y-111521695D01*
X112493513Y-111521695D02*
X112445894Y-111426457D01*
X112445894Y-111426457D02*
X112398275Y-111378838D01*
X112398275Y-111378838D02*
X112303037Y-111331219D01*
X209554676Y-102796819D02*
X209888009Y-102320628D01*
X210126104Y-102796819D02*
X210126104Y-101796819D01*
X210126104Y-101796819D02*
X209745152Y-101796819D01*
X209745152Y-101796819D02*
X209649914Y-101844438D01*
X209649914Y-101844438D02*
X209602295Y-101892057D01*
X209602295Y-101892057D02*
X209554676Y-101987295D01*
X209554676Y-101987295D02*
X209554676Y-102130152D01*
X209554676Y-102130152D02*
X209602295Y-102225390D01*
X209602295Y-102225390D02*
X209649914Y-102273009D01*
X209649914Y-102273009D02*
X209745152Y-102320628D01*
X209745152Y-102320628D02*
X210126104Y-102320628D01*
X209126104Y-102796819D02*
X209126104Y-101796819D01*
X209126104Y-101796819D02*
X208554676Y-102796819D01*
X208554676Y-102796819D02*
X208554676Y-101796819D01*
X208030866Y-102796819D02*
X207840390Y-102796819D01*
X207840390Y-102796819D02*
X207745152Y-102749200D01*
X207745152Y-102749200D02*
X207697533Y-102701580D01*
X207697533Y-102701580D02*
X207602295Y-102558723D01*
X207602295Y-102558723D02*
X207554676Y-102368247D01*
X207554676Y-102368247D02*
X207554676Y-101987295D01*
X207554676Y-101987295D02*
X207602295Y-101892057D01*
X207602295Y-101892057D02*
X207649914Y-101844438D01*
X207649914Y-101844438D02*
X207745152Y-101796819D01*
X207745152Y-101796819D02*
X207935628Y-101796819D01*
X207935628Y-101796819D02*
X208030866Y-101844438D01*
X208030866Y-101844438D02*
X208078485Y-101892057D01*
X208078485Y-101892057D02*
X208126104Y-101987295D01*
X208126104Y-101987295D02*
X208126104Y-102225390D01*
X208126104Y-102225390D02*
X208078485Y-102320628D01*
X208078485Y-102320628D02*
X208030866Y-102368247D01*
X208030866Y-102368247D02*
X207935628Y-102415866D01*
X207935628Y-102415866D02*
X207745152Y-102415866D01*
X207745152Y-102415866D02*
X207649914Y-102368247D01*
X207649914Y-102368247D02*
X207602295Y-102320628D01*
X207602295Y-102320628D02*
X207554676Y-102225390D01*
X208957847Y-108994419D02*
X209529275Y-108994419D01*
X209243561Y-108994419D02*
X209243561Y-107994419D01*
X209243561Y-107994419D02*
X209338799Y-108137276D01*
X209338799Y-108137276D02*
X209434037Y-108232514D01*
X209434037Y-108232514D02*
X209529275Y-108280133D01*
X208529275Y-108994419D02*
X208529275Y-107994419D01*
X208434037Y-108613466D02*
X208148323Y-108994419D01*
X208148323Y-108327752D02*
X208529275Y-108708704D01*
X137894866Y-82308419D02*
X138228199Y-81832228D01*
X138466294Y-82308419D02*
X138466294Y-81308419D01*
X138466294Y-81308419D02*
X138085342Y-81308419D01*
X138085342Y-81308419D02*
X137990104Y-81356038D01*
X137990104Y-81356038D02*
X137942485Y-81403657D01*
X137942485Y-81403657D02*
X137894866Y-81498895D01*
X137894866Y-81498895D02*
X137894866Y-81641752D01*
X137894866Y-81641752D02*
X137942485Y-81736990D01*
X137942485Y-81736990D02*
X137990104Y-81784609D01*
X137990104Y-81784609D02*
X138085342Y-81832228D01*
X138085342Y-81832228D02*
X138466294Y-81832228D01*
X137466294Y-82308419D02*
X137466294Y-81308419D01*
X137466294Y-81308419D02*
X136894866Y-82308419D01*
X136894866Y-82308419D02*
X136894866Y-81308419D01*
X135894866Y-82308419D02*
X136466294Y-82308419D01*
X136180580Y-82308419D02*
X136180580Y-81308419D01*
X136180580Y-81308419D02*
X136275818Y-81451276D01*
X136275818Y-81451276D02*
X136371056Y-81546514D01*
X136371056Y-81546514D02*
X136466294Y-81594133D01*
X135275818Y-81308419D02*
X135180580Y-81308419D01*
X135180580Y-81308419D02*
X135085342Y-81356038D01*
X135085342Y-81356038D02*
X135037723Y-81403657D01*
X135037723Y-81403657D02*
X134990104Y-81498895D01*
X134990104Y-81498895D02*
X134942485Y-81689371D01*
X134942485Y-81689371D02*
X134942485Y-81927466D01*
X134942485Y-81927466D02*
X134990104Y-82117942D01*
X134990104Y-82117942D02*
X135037723Y-82213180D01*
X135037723Y-82213180D02*
X135085342Y-82260800D01*
X135085342Y-82260800D02*
X135180580Y-82308419D01*
X135180580Y-82308419D02*
X135275818Y-82308419D01*
X135275818Y-82308419D02*
X135371056Y-82260800D01*
X135371056Y-82260800D02*
X135418675Y-82213180D01*
X135418675Y-82213180D02*
X135466294Y-82117942D01*
X135466294Y-82117942D02*
X135513913Y-81927466D01*
X135513913Y-81927466D02*
X135513913Y-81689371D01*
X135513913Y-81689371D02*
X135466294Y-81498895D01*
X135466294Y-81498895D02*
X135418675Y-81403657D01*
X135418675Y-81403657D02*
X135371056Y-81356038D01*
X135371056Y-81356038D02*
X135275818Y-81308419D01*
X136847247Y-86982019D02*
X137418675Y-86982019D01*
X137132961Y-86982019D02*
X137132961Y-85982019D01*
X137132961Y-85982019D02*
X137228199Y-86124876D01*
X137228199Y-86124876D02*
X137323437Y-86220114D01*
X137323437Y-86220114D02*
X137418675Y-86267733D01*
X136418675Y-86982019D02*
X136418675Y-85982019D01*
X136323437Y-86601066D02*
X136037723Y-86982019D01*
X136037723Y-86315352D02*
X136418675Y-86696304D01*
X164253276Y-97052019D02*
X164586609Y-96575828D01*
X164824704Y-97052019D02*
X164824704Y-96052019D01*
X164824704Y-96052019D02*
X164443752Y-96052019D01*
X164443752Y-96052019D02*
X164348514Y-96099638D01*
X164348514Y-96099638D02*
X164300895Y-96147257D01*
X164300895Y-96147257D02*
X164253276Y-96242495D01*
X164253276Y-96242495D02*
X164253276Y-96385352D01*
X164253276Y-96385352D02*
X164300895Y-96480590D01*
X164300895Y-96480590D02*
X164348514Y-96528209D01*
X164348514Y-96528209D02*
X164443752Y-96575828D01*
X164443752Y-96575828D02*
X164824704Y-96575828D01*
X163824704Y-97052019D02*
X163824704Y-96052019D01*
X163824704Y-96052019D02*
X163253276Y-97052019D01*
X163253276Y-97052019D02*
X163253276Y-96052019D01*
X162872323Y-96052019D02*
X162253276Y-96052019D01*
X162253276Y-96052019D02*
X162586609Y-96432971D01*
X162586609Y-96432971D02*
X162443752Y-96432971D01*
X162443752Y-96432971D02*
X162348514Y-96480590D01*
X162348514Y-96480590D02*
X162300895Y-96528209D01*
X162300895Y-96528209D02*
X162253276Y-96623447D01*
X162253276Y-96623447D02*
X162253276Y-96861542D01*
X162253276Y-96861542D02*
X162300895Y-96956780D01*
X162300895Y-96956780D02*
X162348514Y-97004400D01*
X162348514Y-97004400D02*
X162443752Y-97052019D01*
X162443752Y-97052019D02*
X162729466Y-97052019D01*
X162729466Y-97052019D02*
X162824704Y-97004400D01*
X162824704Y-97004400D02*
X162872323Y-96956780D01*
X164137504Y-100907857D02*
X164089885Y-100860238D01*
X164089885Y-100860238D02*
X163994647Y-100812619D01*
X163994647Y-100812619D02*
X163756552Y-100812619D01*
X163756552Y-100812619D02*
X163661314Y-100860238D01*
X163661314Y-100860238D02*
X163613695Y-100907857D01*
X163613695Y-100907857D02*
X163566076Y-101003095D01*
X163566076Y-101003095D02*
X163566076Y-101098333D01*
X163566076Y-101098333D02*
X163613695Y-101241190D01*
X163613695Y-101241190D02*
X164185123Y-101812619D01*
X164185123Y-101812619D02*
X163566076Y-101812619D01*
X163185123Y-100907857D02*
X163137504Y-100860238D01*
X163137504Y-100860238D02*
X163042266Y-100812619D01*
X163042266Y-100812619D02*
X162804171Y-100812619D01*
X162804171Y-100812619D02*
X162708933Y-100860238D01*
X162708933Y-100860238D02*
X162661314Y-100907857D01*
X162661314Y-100907857D02*
X162613695Y-101003095D01*
X162613695Y-101003095D02*
X162613695Y-101098333D01*
X162613695Y-101098333D02*
X162661314Y-101241190D01*
X162661314Y-101241190D02*
X163232742Y-101812619D01*
X163232742Y-101812619D02*
X162613695Y-101812619D01*
X152944876Y-97031819D02*
X153278209Y-96555628D01*
X153516304Y-97031819D02*
X153516304Y-96031819D01*
X153516304Y-96031819D02*
X153135352Y-96031819D01*
X153135352Y-96031819D02*
X153040114Y-96079438D01*
X153040114Y-96079438D02*
X152992495Y-96127057D01*
X152992495Y-96127057D02*
X152944876Y-96222295D01*
X152944876Y-96222295D02*
X152944876Y-96365152D01*
X152944876Y-96365152D02*
X152992495Y-96460390D01*
X152992495Y-96460390D02*
X153040114Y-96508009D01*
X153040114Y-96508009D02*
X153135352Y-96555628D01*
X153135352Y-96555628D02*
X153516304Y-96555628D01*
X152516304Y-97031819D02*
X152516304Y-96031819D01*
X152516304Y-96031819D02*
X151944876Y-97031819D01*
X151944876Y-97031819D02*
X151944876Y-96031819D01*
X150992495Y-96031819D02*
X151468685Y-96031819D01*
X151468685Y-96031819D02*
X151516304Y-96508009D01*
X151516304Y-96508009D02*
X151468685Y-96460390D01*
X151468685Y-96460390D02*
X151373447Y-96412771D01*
X151373447Y-96412771D02*
X151135352Y-96412771D01*
X151135352Y-96412771D02*
X151040114Y-96460390D01*
X151040114Y-96460390D02*
X150992495Y-96508009D01*
X150992495Y-96508009D02*
X150944876Y-96603247D01*
X150944876Y-96603247D02*
X150944876Y-96841342D01*
X150944876Y-96841342D02*
X150992495Y-96936580D01*
X150992495Y-96936580D02*
X151040114Y-96984200D01*
X151040114Y-96984200D02*
X151135352Y-97031819D01*
X151135352Y-97031819D02*
X151373447Y-97031819D01*
X151373447Y-97031819D02*
X151468685Y-96984200D01*
X151468685Y-96984200D02*
X151516304Y-96936580D01*
X152829104Y-100887657D02*
X152781485Y-100840038D01*
X152781485Y-100840038D02*
X152686247Y-100792419D01*
X152686247Y-100792419D02*
X152448152Y-100792419D01*
X152448152Y-100792419D02*
X152352914Y-100840038D01*
X152352914Y-100840038D02*
X152305295Y-100887657D01*
X152305295Y-100887657D02*
X152257676Y-100982895D01*
X152257676Y-100982895D02*
X152257676Y-101078133D01*
X152257676Y-101078133D02*
X152305295Y-101220990D01*
X152305295Y-101220990D02*
X152876723Y-101792419D01*
X152876723Y-101792419D02*
X152257676Y-101792419D01*
X151876723Y-100887657D02*
X151829104Y-100840038D01*
X151829104Y-100840038D02*
X151733866Y-100792419D01*
X151733866Y-100792419D02*
X151495771Y-100792419D01*
X151495771Y-100792419D02*
X151400533Y-100840038D01*
X151400533Y-100840038D02*
X151352914Y-100887657D01*
X151352914Y-100887657D02*
X151305295Y-100982895D01*
X151305295Y-100982895D02*
X151305295Y-101078133D01*
X151305295Y-101078133D02*
X151352914Y-101220990D01*
X151352914Y-101220990D02*
X151924342Y-101792419D01*
X151924342Y-101792419D02*
X151305295Y-101792419D01*
X147152476Y-97031819D02*
X147485809Y-96555628D01*
X147723904Y-97031819D02*
X147723904Y-96031819D01*
X147723904Y-96031819D02*
X147342952Y-96031819D01*
X147342952Y-96031819D02*
X147247714Y-96079438D01*
X147247714Y-96079438D02*
X147200095Y-96127057D01*
X147200095Y-96127057D02*
X147152476Y-96222295D01*
X147152476Y-96222295D02*
X147152476Y-96365152D01*
X147152476Y-96365152D02*
X147200095Y-96460390D01*
X147200095Y-96460390D02*
X147247714Y-96508009D01*
X147247714Y-96508009D02*
X147342952Y-96555628D01*
X147342952Y-96555628D02*
X147723904Y-96555628D01*
X146723904Y-97031819D02*
X146723904Y-96031819D01*
X146723904Y-96031819D02*
X146152476Y-97031819D01*
X146152476Y-97031819D02*
X146152476Y-96031819D01*
X145247714Y-96031819D02*
X145438190Y-96031819D01*
X145438190Y-96031819D02*
X145533428Y-96079438D01*
X145533428Y-96079438D02*
X145581047Y-96127057D01*
X145581047Y-96127057D02*
X145676285Y-96269914D01*
X145676285Y-96269914D02*
X145723904Y-96460390D01*
X145723904Y-96460390D02*
X145723904Y-96841342D01*
X145723904Y-96841342D02*
X145676285Y-96936580D01*
X145676285Y-96936580D02*
X145628666Y-96984200D01*
X145628666Y-96984200D02*
X145533428Y-97031819D01*
X145533428Y-97031819D02*
X145342952Y-97031819D01*
X145342952Y-97031819D02*
X145247714Y-96984200D01*
X145247714Y-96984200D02*
X145200095Y-96936580D01*
X145200095Y-96936580D02*
X145152476Y-96841342D01*
X145152476Y-96841342D02*
X145152476Y-96603247D01*
X145152476Y-96603247D02*
X145200095Y-96508009D01*
X145200095Y-96508009D02*
X145247714Y-96460390D01*
X145247714Y-96460390D02*
X145342952Y-96412771D01*
X145342952Y-96412771D02*
X145533428Y-96412771D01*
X145533428Y-96412771D02*
X145628666Y-96460390D01*
X145628666Y-96460390D02*
X145676285Y-96508009D01*
X145676285Y-96508009D02*
X145723904Y-96603247D01*
X147036704Y-100887657D02*
X146989085Y-100840038D01*
X146989085Y-100840038D02*
X146893847Y-100792419D01*
X146893847Y-100792419D02*
X146655752Y-100792419D01*
X146655752Y-100792419D02*
X146560514Y-100840038D01*
X146560514Y-100840038D02*
X146512895Y-100887657D01*
X146512895Y-100887657D02*
X146465276Y-100982895D01*
X146465276Y-100982895D02*
X146465276Y-101078133D01*
X146465276Y-101078133D02*
X146512895Y-101220990D01*
X146512895Y-101220990D02*
X147084323Y-101792419D01*
X147084323Y-101792419D02*
X146465276Y-101792419D01*
X146084323Y-100887657D02*
X146036704Y-100840038D01*
X146036704Y-100840038D02*
X145941466Y-100792419D01*
X145941466Y-100792419D02*
X145703371Y-100792419D01*
X145703371Y-100792419D02*
X145608133Y-100840038D01*
X145608133Y-100840038D02*
X145560514Y-100887657D01*
X145560514Y-100887657D02*
X145512895Y-100982895D01*
X145512895Y-100982895D02*
X145512895Y-101078133D01*
X145512895Y-101078133D02*
X145560514Y-101220990D01*
X145560514Y-101220990D02*
X146131942Y-101792419D01*
X146131942Y-101792419D02*
X145512895Y-101792419D01*
X228074457Y-48060780D02*
X228122076Y-48108400D01*
X228122076Y-48108400D02*
X228264933Y-48156019D01*
X228264933Y-48156019D02*
X228360171Y-48156019D01*
X228360171Y-48156019D02*
X228503028Y-48108400D01*
X228503028Y-48108400D02*
X228598266Y-48013161D01*
X228598266Y-48013161D02*
X228645885Y-47917923D01*
X228645885Y-47917923D02*
X228693504Y-47727447D01*
X228693504Y-47727447D02*
X228693504Y-47584590D01*
X228693504Y-47584590D02*
X228645885Y-47394114D01*
X228645885Y-47394114D02*
X228598266Y-47298876D01*
X228598266Y-47298876D02*
X228503028Y-47203638D01*
X228503028Y-47203638D02*
X228360171Y-47156019D01*
X228360171Y-47156019D02*
X228264933Y-47156019D01*
X228264933Y-47156019D02*
X228122076Y-47203638D01*
X228122076Y-47203638D02*
X228074457Y-47251257D01*
X227217314Y-47489352D02*
X227217314Y-48156019D01*
X227455409Y-47108400D02*
X227693504Y-47822685D01*
X227693504Y-47822685D02*
X227074457Y-47822685D01*
X226550647Y-47584590D02*
X226645885Y-47536971D01*
X226645885Y-47536971D02*
X226693504Y-47489352D01*
X226693504Y-47489352D02*
X226741123Y-47394114D01*
X226741123Y-47394114D02*
X226741123Y-47346495D01*
X226741123Y-47346495D02*
X226693504Y-47251257D01*
X226693504Y-47251257D02*
X226645885Y-47203638D01*
X226645885Y-47203638D02*
X226550647Y-47156019D01*
X226550647Y-47156019D02*
X226360171Y-47156019D01*
X226360171Y-47156019D02*
X226264933Y-47203638D01*
X226264933Y-47203638D02*
X226217314Y-47251257D01*
X226217314Y-47251257D02*
X226169695Y-47346495D01*
X226169695Y-47346495D02*
X226169695Y-47394114D01*
X226169695Y-47394114D02*
X226217314Y-47489352D01*
X226217314Y-47489352D02*
X226264933Y-47536971D01*
X226264933Y-47536971D02*
X226360171Y-47584590D01*
X226360171Y-47584590D02*
X226550647Y-47584590D01*
X226550647Y-47584590D02*
X226645885Y-47632209D01*
X226645885Y-47632209D02*
X226693504Y-47679828D01*
X226693504Y-47679828D02*
X226741123Y-47775066D01*
X226741123Y-47775066D02*
X226741123Y-47965542D01*
X226741123Y-47965542D02*
X226693504Y-48060780D01*
X226693504Y-48060780D02*
X226645885Y-48108400D01*
X226645885Y-48108400D02*
X226550647Y-48156019D01*
X226550647Y-48156019D02*
X226360171Y-48156019D01*
X226360171Y-48156019D02*
X226264933Y-48108400D01*
X226264933Y-48108400D02*
X226217314Y-48060780D01*
X226217314Y-48060780D02*
X226169695Y-47965542D01*
X226169695Y-47965542D02*
X226169695Y-47775066D01*
X226169695Y-47775066D02*
X226217314Y-47679828D01*
X226217314Y-47679828D02*
X226264933Y-47632209D01*
X226264933Y-47632209D02*
X226360171Y-47584590D01*
X105316257Y-105073180D02*
X105363876Y-105120800D01*
X105363876Y-105120800D02*
X105506733Y-105168419D01*
X105506733Y-105168419D02*
X105601971Y-105168419D01*
X105601971Y-105168419D02*
X105744828Y-105120800D01*
X105744828Y-105120800D02*
X105840066Y-105025561D01*
X105840066Y-105025561D02*
X105887685Y-104930323D01*
X105887685Y-104930323D02*
X105935304Y-104739847D01*
X105935304Y-104739847D02*
X105935304Y-104596990D01*
X105935304Y-104596990D02*
X105887685Y-104406514D01*
X105887685Y-104406514D02*
X105840066Y-104311276D01*
X105840066Y-104311276D02*
X105744828Y-104216038D01*
X105744828Y-104216038D02*
X105601971Y-104168419D01*
X105601971Y-104168419D02*
X105506733Y-104168419D01*
X105506733Y-104168419D02*
X105363876Y-104216038D01*
X105363876Y-104216038D02*
X105316257Y-104263657D01*
X104363876Y-105168419D02*
X104935304Y-105168419D01*
X104649590Y-105168419D02*
X104649590Y-104168419D01*
X104649590Y-104168419D02*
X104744828Y-104311276D01*
X104744828Y-104311276D02*
X104840066Y-104406514D01*
X104840066Y-104406514D02*
X104935304Y-104454133D01*
X104030542Y-104168419D02*
X103411495Y-104168419D01*
X103411495Y-104168419D02*
X103744828Y-104549371D01*
X103744828Y-104549371D02*
X103601971Y-104549371D01*
X103601971Y-104549371D02*
X103506733Y-104596990D01*
X103506733Y-104596990D02*
X103459114Y-104644609D01*
X103459114Y-104644609D02*
X103411495Y-104739847D01*
X103411495Y-104739847D02*
X103411495Y-104977942D01*
X103411495Y-104977942D02*
X103459114Y-105073180D01*
X103459114Y-105073180D02*
X103506733Y-105120800D01*
X103506733Y-105120800D02*
X103601971Y-105168419D01*
X103601971Y-105168419D02*
X103887685Y-105168419D01*
X103887685Y-105168419D02*
X103982923Y-105120800D01*
X103982923Y-105120800D02*
X104030542Y-105073180D01*
X248572257Y-117620780D02*
X248619876Y-117668400D01*
X248619876Y-117668400D02*
X248762733Y-117716019D01*
X248762733Y-117716019D02*
X248857971Y-117716019D01*
X248857971Y-117716019D02*
X249000828Y-117668400D01*
X249000828Y-117668400D02*
X249096066Y-117573161D01*
X249096066Y-117573161D02*
X249143685Y-117477923D01*
X249143685Y-117477923D02*
X249191304Y-117287447D01*
X249191304Y-117287447D02*
X249191304Y-117144590D01*
X249191304Y-117144590D02*
X249143685Y-116954114D01*
X249143685Y-116954114D02*
X249096066Y-116858876D01*
X249096066Y-116858876D02*
X249000828Y-116763638D01*
X249000828Y-116763638D02*
X248857971Y-116716019D01*
X248857971Y-116716019D02*
X248762733Y-116716019D01*
X248762733Y-116716019D02*
X248619876Y-116763638D01*
X248619876Y-116763638D02*
X248572257Y-116811257D01*
X247619876Y-117716019D02*
X248191304Y-117716019D01*
X247905590Y-117716019D02*
X247905590Y-116716019D01*
X247905590Y-116716019D02*
X248000828Y-116858876D01*
X248000828Y-116858876D02*
X248096066Y-116954114D01*
X248096066Y-116954114D02*
X248191304Y-117001733D01*
X246762733Y-117049352D02*
X246762733Y-117716019D01*
X247000828Y-116668400D02*
X247238923Y-117382685D01*
X247238923Y-117382685D02*
X246619876Y-117382685D01*
X206567066Y-44396819D02*
X206900399Y-43920628D01*
X207138494Y-44396819D02*
X207138494Y-43396819D01*
X207138494Y-43396819D02*
X206757542Y-43396819D01*
X206757542Y-43396819D02*
X206662304Y-43444438D01*
X206662304Y-43444438D02*
X206614685Y-43492057D01*
X206614685Y-43492057D02*
X206567066Y-43587295D01*
X206567066Y-43587295D02*
X206567066Y-43730152D01*
X206567066Y-43730152D02*
X206614685Y-43825390D01*
X206614685Y-43825390D02*
X206662304Y-43873009D01*
X206662304Y-43873009D02*
X206757542Y-43920628D01*
X206757542Y-43920628D02*
X207138494Y-43920628D01*
X205662304Y-43396819D02*
X206138494Y-43396819D01*
X206138494Y-43396819D02*
X206186113Y-43873009D01*
X206186113Y-43873009D02*
X206138494Y-43825390D01*
X206138494Y-43825390D02*
X206043256Y-43777771D01*
X206043256Y-43777771D02*
X205805161Y-43777771D01*
X205805161Y-43777771D02*
X205709923Y-43825390D01*
X205709923Y-43825390D02*
X205662304Y-43873009D01*
X205662304Y-43873009D02*
X205614685Y-43968247D01*
X205614685Y-43968247D02*
X205614685Y-44206342D01*
X205614685Y-44206342D02*
X205662304Y-44301580D01*
X205662304Y-44301580D02*
X205709923Y-44349200D01*
X205709923Y-44349200D02*
X205805161Y-44396819D01*
X205805161Y-44396819D02*
X206043256Y-44396819D01*
X206043256Y-44396819D02*
X206138494Y-44349200D01*
X206138494Y-44349200D02*
X206186113Y-44301580D01*
X206519447Y-45666819D02*
X207090875Y-45666819D01*
X206805161Y-45666819D02*
X206805161Y-44666819D01*
X206805161Y-44666819D02*
X206900399Y-44809676D01*
X206900399Y-44809676D02*
X206995637Y-44904914D01*
X206995637Y-44904914D02*
X207090875Y-44952533D01*
X206090875Y-45666819D02*
X206090875Y-44666819D01*
X205995637Y-45285866D02*
X205709923Y-45666819D01*
X205709923Y-45000152D02*
X206090875Y-45381104D01*
X158563676Y-97031819D02*
X158897009Y-96555628D01*
X159135104Y-97031819D02*
X159135104Y-96031819D01*
X159135104Y-96031819D02*
X158754152Y-96031819D01*
X158754152Y-96031819D02*
X158658914Y-96079438D01*
X158658914Y-96079438D02*
X158611295Y-96127057D01*
X158611295Y-96127057D02*
X158563676Y-96222295D01*
X158563676Y-96222295D02*
X158563676Y-96365152D01*
X158563676Y-96365152D02*
X158611295Y-96460390D01*
X158611295Y-96460390D02*
X158658914Y-96508009D01*
X158658914Y-96508009D02*
X158754152Y-96555628D01*
X158754152Y-96555628D02*
X159135104Y-96555628D01*
X158135104Y-97031819D02*
X158135104Y-96031819D01*
X158135104Y-96031819D02*
X157563676Y-97031819D01*
X157563676Y-97031819D02*
X157563676Y-96031819D01*
X156658914Y-96365152D02*
X156658914Y-97031819D01*
X156897009Y-95984200D02*
X157135104Y-96698485D01*
X157135104Y-96698485D02*
X156516057Y-96698485D01*
X158447904Y-100887657D02*
X158400285Y-100840038D01*
X158400285Y-100840038D02*
X158305047Y-100792419D01*
X158305047Y-100792419D02*
X158066952Y-100792419D01*
X158066952Y-100792419D02*
X157971714Y-100840038D01*
X157971714Y-100840038D02*
X157924095Y-100887657D01*
X157924095Y-100887657D02*
X157876476Y-100982895D01*
X157876476Y-100982895D02*
X157876476Y-101078133D01*
X157876476Y-101078133D02*
X157924095Y-101220990D01*
X157924095Y-101220990D02*
X158495523Y-101792419D01*
X158495523Y-101792419D02*
X157876476Y-101792419D01*
X157495523Y-100887657D02*
X157447904Y-100840038D01*
X157447904Y-100840038D02*
X157352666Y-100792419D01*
X157352666Y-100792419D02*
X157114571Y-100792419D01*
X157114571Y-100792419D02*
X157019333Y-100840038D01*
X157019333Y-100840038D02*
X156971714Y-100887657D01*
X156971714Y-100887657D02*
X156924095Y-100982895D01*
X156924095Y-100982895D02*
X156924095Y-101078133D01*
X156924095Y-101078133D02*
X156971714Y-101220990D01*
X156971714Y-101220990D02*
X157543142Y-101792419D01*
X157543142Y-101792419D02*
X156924095Y-101792419D01*
X216466657Y-108114819D02*
X216799990Y-107638628D01*
X217038085Y-108114819D02*
X217038085Y-107114819D01*
X217038085Y-107114819D02*
X216657133Y-107114819D01*
X216657133Y-107114819D02*
X216561895Y-107162438D01*
X216561895Y-107162438D02*
X216514276Y-107210057D01*
X216514276Y-107210057D02*
X216466657Y-107305295D01*
X216466657Y-107305295D02*
X216466657Y-107448152D01*
X216466657Y-107448152D02*
X216514276Y-107543390D01*
X216514276Y-107543390D02*
X216561895Y-107591009D01*
X216561895Y-107591009D02*
X216657133Y-107638628D01*
X216657133Y-107638628D02*
X217038085Y-107638628D01*
X215514276Y-108114819D02*
X216085704Y-108114819D01*
X215799990Y-108114819D02*
X215799990Y-107114819D01*
X215799990Y-107114819D02*
X215895228Y-107257676D01*
X215895228Y-107257676D02*
X215990466Y-107352914D01*
X215990466Y-107352914D02*
X216085704Y-107400533D01*
X214657133Y-107448152D02*
X214657133Y-108114819D01*
X214895228Y-107067200D02*
X215133323Y-107781485D01*
X215133323Y-107781485D02*
X214514276Y-107781485D01*
X215993647Y-111670819D02*
X216565075Y-111670819D01*
X216279361Y-111670819D02*
X216279361Y-110670819D01*
X216279361Y-110670819D02*
X216374599Y-110813676D01*
X216374599Y-110813676D02*
X216469837Y-110908914D01*
X216469837Y-110908914D02*
X216565075Y-110956533D01*
X215565075Y-111670819D02*
X215565075Y-110670819D01*
X215469837Y-111289866D02*
X215184123Y-111670819D01*
X215184123Y-111004152D02*
X215565075Y-111385104D01*
X137733066Y-31188819D02*
X138066399Y-30712628D01*
X138304494Y-31188819D02*
X138304494Y-30188819D01*
X138304494Y-30188819D02*
X137923542Y-30188819D01*
X137923542Y-30188819D02*
X137828304Y-30236438D01*
X137828304Y-30236438D02*
X137780685Y-30284057D01*
X137780685Y-30284057D02*
X137733066Y-30379295D01*
X137733066Y-30379295D02*
X137733066Y-30522152D01*
X137733066Y-30522152D02*
X137780685Y-30617390D01*
X137780685Y-30617390D02*
X137828304Y-30665009D01*
X137828304Y-30665009D02*
X137923542Y-30712628D01*
X137923542Y-30712628D02*
X138304494Y-30712628D01*
X136875923Y-30522152D02*
X136875923Y-31188819D01*
X137114018Y-30141200D02*
X137352113Y-30855485D01*
X137352113Y-30855485D02*
X136733066Y-30855485D01*
X144403676Y-30572952D02*
X144403676Y-31239619D01*
X144641771Y-30192000D02*
X144879866Y-30906285D01*
X144879866Y-30906285D02*
X144260819Y-30906285D01*
X143879866Y-31239619D02*
X143879866Y-30239619D01*
X143784628Y-30858666D02*
X143498914Y-31239619D01*
X143498914Y-30572952D02*
X143879866Y-30953904D01*
X143165580Y-30239619D02*
X142498914Y-30239619D01*
X142498914Y-30239619D02*
X142927485Y-31239619D01*
X127547666Y-58935580D02*
X127595285Y-58983200D01*
X127595285Y-58983200D02*
X127738142Y-59030819D01*
X127738142Y-59030819D02*
X127833380Y-59030819D01*
X127833380Y-59030819D02*
X127976237Y-58983200D01*
X127976237Y-58983200D02*
X128071475Y-58887961D01*
X128071475Y-58887961D02*
X128119094Y-58792723D01*
X128119094Y-58792723D02*
X128166713Y-58602247D01*
X128166713Y-58602247D02*
X128166713Y-58459390D01*
X128166713Y-58459390D02*
X128119094Y-58268914D01*
X128119094Y-58268914D02*
X128071475Y-58173676D01*
X128071475Y-58173676D02*
X127976237Y-58078438D01*
X127976237Y-58078438D02*
X127833380Y-58030819D01*
X127833380Y-58030819D02*
X127738142Y-58030819D01*
X127738142Y-58030819D02*
X127595285Y-58078438D01*
X127595285Y-58078438D02*
X127547666Y-58126057D01*
X127166713Y-58126057D02*
X127119094Y-58078438D01*
X127119094Y-58078438D02*
X127023856Y-58030819D01*
X127023856Y-58030819D02*
X126785761Y-58030819D01*
X126785761Y-58030819D02*
X126690523Y-58078438D01*
X126690523Y-58078438D02*
X126642904Y-58126057D01*
X126642904Y-58126057D02*
X126595285Y-58221295D01*
X126595285Y-58221295D02*
X126595285Y-58316533D01*
X126595285Y-58316533D02*
X126642904Y-58459390D01*
X126642904Y-58459390D02*
X127214332Y-59030819D01*
X127214332Y-59030819D02*
X126595285Y-59030819D01*
X120207066Y-67720380D02*
X120254685Y-67768000D01*
X120254685Y-67768000D02*
X120397542Y-67815619D01*
X120397542Y-67815619D02*
X120492780Y-67815619D01*
X120492780Y-67815619D02*
X120635637Y-67768000D01*
X120635637Y-67768000D02*
X120730875Y-67672761D01*
X120730875Y-67672761D02*
X120778494Y-67577523D01*
X120778494Y-67577523D02*
X120826113Y-67387047D01*
X120826113Y-67387047D02*
X120826113Y-67244190D01*
X120826113Y-67244190D02*
X120778494Y-67053714D01*
X120778494Y-67053714D02*
X120730875Y-66958476D01*
X120730875Y-66958476D02*
X120635637Y-66863238D01*
X120635637Y-66863238D02*
X120492780Y-66815619D01*
X120492780Y-66815619D02*
X120397542Y-66815619D01*
X120397542Y-66815619D02*
X120254685Y-66863238D01*
X120254685Y-66863238D02*
X120207066Y-66910857D01*
X119302304Y-66815619D02*
X119778494Y-66815619D01*
X119778494Y-66815619D02*
X119826113Y-67291809D01*
X119826113Y-67291809D02*
X119778494Y-67244190D01*
X119778494Y-67244190D02*
X119683256Y-67196571D01*
X119683256Y-67196571D02*
X119445161Y-67196571D01*
X119445161Y-67196571D02*
X119349923Y-67244190D01*
X119349923Y-67244190D02*
X119302304Y-67291809D01*
X119302304Y-67291809D02*
X119254685Y-67387047D01*
X119254685Y-67387047D02*
X119254685Y-67625142D01*
X119254685Y-67625142D02*
X119302304Y-67720380D01*
X119302304Y-67720380D02*
X119349923Y-67768000D01*
X119349923Y-67768000D02*
X119445161Y-67815619D01*
X119445161Y-67815619D02*
X119683256Y-67815619D01*
X119683256Y-67815619D02*
X119778494Y-67768000D01*
X119778494Y-67768000D02*
X119826113Y-67720380D01*
X127547666Y-67698580D02*
X127595285Y-67746200D01*
X127595285Y-67746200D02*
X127738142Y-67793819D01*
X127738142Y-67793819D02*
X127833380Y-67793819D01*
X127833380Y-67793819D02*
X127976237Y-67746200D01*
X127976237Y-67746200D02*
X128071475Y-67650961D01*
X128071475Y-67650961D02*
X128119094Y-67555723D01*
X128119094Y-67555723D02*
X128166713Y-67365247D01*
X128166713Y-67365247D02*
X128166713Y-67222390D01*
X128166713Y-67222390D02*
X128119094Y-67031914D01*
X128119094Y-67031914D02*
X128071475Y-66936676D01*
X128071475Y-66936676D02*
X127976237Y-66841438D01*
X127976237Y-66841438D02*
X127833380Y-66793819D01*
X127833380Y-66793819D02*
X127738142Y-66793819D01*
X127738142Y-66793819D02*
X127595285Y-66841438D01*
X127595285Y-66841438D02*
X127547666Y-66889057D01*
X126690523Y-66793819D02*
X126880999Y-66793819D01*
X126880999Y-66793819D02*
X126976237Y-66841438D01*
X126976237Y-66841438D02*
X127023856Y-66889057D01*
X127023856Y-66889057D02*
X127119094Y-67031914D01*
X127119094Y-67031914D02*
X127166713Y-67222390D01*
X127166713Y-67222390D02*
X127166713Y-67603342D01*
X127166713Y-67603342D02*
X127119094Y-67698580D01*
X127119094Y-67698580D02*
X127071475Y-67746200D01*
X127071475Y-67746200D02*
X126976237Y-67793819D01*
X126976237Y-67793819D02*
X126785761Y-67793819D01*
X126785761Y-67793819D02*
X126690523Y-67746200D01*
X126690523Y-67746200D02*
X126642904Y-67698580D01*
X126642904Y-67698580D02*
X126595285Y-67603342D01*
X126595285Y-67603342D02*
X126595285Y-67365247D01*
X126595285Y-67365247D02*
X126642904Y-67270009D01*
X126642904Y-67270009D02*
X126690523Y-67222390D01*
X126690523Y-67222390D02*
X126785761Y-67174771D01*
X126785761Y-67174771D02*
X126976237Y-67174771D01*
X126976237Y-67174771D02*
X127071475Y-67222390D01*
X127071475Y-67222390D02*
X127119094Y-67270009D01*
X127119094Y-67270009D02*
X127166713Y-67365247D01*
X134786666Y-67698580D02*
X134834285Y-67746200D01*
X134834285Y-67746200D02*
X134977142Y-67793819D01*
X134977142Y-67793819D02*
X135072380Y-67793819D01*
X135072380Y-67793819D02*
X135215237Y-67746200D01*
X135215237Y-67746200D02*
X135310475Y-67650961D01*
X135310475Y-67650961D02*
X135358094Y-67555723D01*
X135358094Y-67555723D02*
X135405713Y-67365247D01*
X135405713Y-67365247D02*
X135405713Y-67222390D01*
X135405713Y-67222390D02*
X135358094Y-67031914D01*
X135358094Y-67031914D02*
X135310475Y-66936676D01*
X135310475Y-66936676D02*
X135215237Y-66841438D01*
X135215237Y-66841438D02*
X135072380Y-66793819D01*
X135072380Y-66793819D02*
X134977142Y-66793819D01*
X134977142Y-66793819D02*
X134834285Y-66841438D01*
X134834285Y-66841438D02*
X134786666Y-66889057D01*
X134453332Y-66793819D02*
X133786666Y-66793819D01*
X133786666Y-66793819D02*
X134215237Y-67793819D01*
X120308666Y-77677180D02*
X120356285Y-77724800D01*
X120356285Y-77724800D02*
X120499142Y-77772419D01*
X120499142Y-77772419D02*
X120594380Y-77772419D01*
X120594380Y-77772419D02*
X120737237Y-77724800D01*
X120737237Y-77724800D02*
X120832475Y-77629561D01*
X120832475Y-77629561D02*
X120880094Y-77534323D01*
X120880094Y-77534323D02*
X120927713Y-77343847D01*
X120927713Y-77343847D02*
X120927713Y-77200990D01*
X120927713Y-77200990D02*
X120880094Y-77010514D01*
X120880094Y-77010514D02*
X120832475Y-76915276D01*
X120832475Y-76915276D02*
X120737237Y-76820038D01*
X120737237Y-76820038D02*
X120594380Y-76772419D01*
X120594380Y-76772419D02*
X120499142Y-76772419D01*
X120499142Y-76772419D02*
X120356285Y-76820038D01*
X120356285Y-76820038D02*
X120308666Y-76867657D01*
X119737237Y-77200990D02*
X119832475Y-77153371D01*
X119832475Y-77153371D02*
X119880094Y-77105752D01*
X119880094Y-77105752D02*
X119927713Y-77010514D01*
X119927713Y-77010514D02*
X119927713Y-76962895D01*
X119927713Y-76962895D02*
X119880094Y-76867657D01*
X119880094Y-76867657D02*
X119832475Y-76820038D01*
X119832475Y-76820038D02*
X119737237Y-76772419D01*
X119737237Y-76772419D02*
X119546761Y-76772419D01*
X119546761Y-76772419D02*
X119451523Y-76820038D01*
X119451523Y-76820038D02*
X119403904Y-76867657D01*
X119403904Y-76867657D02*
X119356285Y-76962895D01*
X119356285Y-76962895D02*
X119356285Y-77010514D01*
X119356285Y-77010514D02*
X119403904Y-77105752D01*
X119403904Y-77105752D02*
X119451523Y-77153371D01*
X119451523Y-77153371D02*
X119546761Y-77200990D01*
X119546761Y-77200990D02*
X119737237Y-77200990D01*
X119737237Y-77200990D02*
X119832475Y-77248609D01*
X119832475Y-77248609D02*
X119880094Y-77296228D01*
X119880094Y-77296228D02*
X119927713Y-77391466D01*
X119927713Y-77391466D02*
X119927713Y-77581942D01*
X119927713Y-77581942D02*
X119880094Y-77677180D01*
X119880094Y-77677180D02*
X119832475Y-77724800D01*
X119832475Y-77724800D02*
X119737237Y-77772419D01*
X119737237Y-77772419D02*
X119546761Y-77772419D01*
X119546761Y-77772419D02*
X119451523Y-77724800D01*
X119451523Y-77724800D02*
X119403904Y-77677180D01*
X119403904Y-77677180D02*
X119356285Y-77581942D01*
X119356285Y-77581942D02*
X119356285Y-77391466D01*
X119356285Y-77391466D02*
X119403904Y-77296228D01*
X119403904Y-77296228D02*
X119451523Y-77248609D01*
X119451523Y-77248609D02*
X119546761Y-77200990D01*
X127674666Y-77677180D02*
X127722285Y-77724800D01*
X127722285Y-77724800D02*
X127865142Y-77772419D01*
X127865142Y-77772419D02*
X127960380Y-77772419D01*
X127960380Y-77772419D02*
X128103237Y-77724800D01*
X128103237Y-77724800D02*
X128198475Y-77629561D01*
X128198475Y-77629561D02*
X128246094Y-77534323D01*
X128246094Y-77534323D02*
X128293713Y-77343847D01*
X128293713Y-77343847D02*
X128293713Y-77200990D01*
X128293713Y-77200990D02*
X128246094Y-77010514D01*
X128246094Y-77010514D02*
X128198475Y-76915276D01*
X128198475Y-76915276D02*
X128103237Y-76820038D01*
X128103237Y-76820038D02*
X127960380Y-76772419D01*
X127960380Y-76772419D02*
X127865142Y-76772419D01*
X127865142Y-76772419D02*
X127722285Y-76820038D01*
X127722285Y-76820038D02*
X127674666Y-76867657D01*
X127198475Y-77772419D02*
X127007999Y-77772419D01*
X127007999Y-77772419D02*
X126912761Y-77724800D01*
X126912761Y-77724800D02*
X126865142Y-77677180D01*
X126865142Y-77677180D02*
X126769904Y-77534323D01*
X126769904Y-77534323D02*
X126722285Y-77343847D01*
X126722285Y-77343847D02*
X126722285Y-76962895D01*
X126722285Y-76962895D02*
X126769904Y-76867657D01*
X126769904Y-76867657D02*
X126817523Y-76820038D01*
X126817523Y-76820038D02*
X126912761Y-76772419D01*
X126912761Y-76772419D02*
X127103237Y-76772419D01*
X127103237Y-76772419D02*
X127198475Y-76820038D01*
X127198475Y-76820038D02*
X127246094Y-76867657D01*
X127246094Y-76867657D02*
X127293713Y-76962895D01*
X127293713Y-76962895D02*
X127293713Y-77200990D01*
X127293713Y-77200990D02*
X127246094Y-77296228D01*
X127246094Y-77296228D02*
X127198475Y-77343847D01*
X127198475Y-77343847D02*
X127103237Y-77391466D01*
X127103237Y-77391466D02*
X126912761Y-77391466D01*
X126912761Y-77391466D02*
X126817523Y-77343847D01*
X126817523Y-77343847D02*
X126769904Y-77296228D01*
X126769904Y-77296228D02*
X126722285Y-77200990D01*
X227972857Y-65434380D02*
X228020476Y-65482000D01*
X228020476Y-65482000D02*
X228163333Y-65529619D01*
X228163333Y-65529619D02*
X228258571Y-65529619D01*
X228258571Y-65529619D02*
X228401428Y-65482000D01*
X228401428Y-65482000D02*
X228496666Y-65386761D01*
X228496666Y-65386761D02*
X228544285Y-65291523D01*
X228544285Y-65291523D02*
X228591904Y-65101047D01*
X228591904Y-65101047D02*
X228591904Y-64958190D01*
X228591904Y-64958190D02*
X228544285Y-64767714D01*
X228544285Y-64767714D02*
X228496666Y-64672476D01*
X228496666Y-64672476D02*
X228401428Y-64577238D01*
X228401428Y-64577238D02*
X228258571Y-64529619D01*
X228258571Y-64529619D02*
X228163333Y-64529619D01*
X228163333Y-64529619D02*
X228020476Y-64577238D01*
X228020476Y-64577238D02*
X227972857Y-64624857D01*
X227020476Y-65529619D02*
X227591904Y-65529619D01*
X227306190Y-65529619D02*
X227306190Y-64529619D01*
X227306190Y-64529619D02*
X227401428Y-64672476D01*
X227401428Y-64672476D02*
X227496666Y-64767714D01*
X227496666Y-64767714D02*
X227591904Y-64815333D01*
X226449047Y-64958190D02*
X226544285Y-64910571D01*
X226544285Y-64910571D02*
X226591904Y-64862952D01*
X226591904Y-64862952D02*
X226639523Y-64767714D01*
X226639523Y-64767714D02*
X226639523Y-64720095D01*
X226639523Y-64720095D02*
X226591904Y-64624857D01*
X226591904Y-64624857D02*
X226544285Y-64577238D01*
X226544285Y-64577238D02*
X226449047Y-64529619D01*
X226449047Y-64529619D02*
X226258571Y-64529619D01*
X226258571Y-64529619D02*
X226163333Y-64577238D01*
X226163333Y-64577238D02*
X226115714Y-64624857D01*
X226115714Y-64624857D02*
X226068095Y-64720095D01*
X226068095Y-64720095D02*
X226068095Y-64767714D01*
X226068095Y-64767714D02*
X226115714Y-64862952D01*
X226115714Y-64862952D02*
X226163333Y-64910571D01*
X226163333Y-64910571D02*
X226258571Y-64958190D01*
X226258571Y-64958190D02*
X226449047Y-64958190D01*
X226449047Y-64958190D02*
X226544285Y-65005809D01*
X226544285Y-65005809D02*
X226591904Y-65053428D01*
X226591904Y-65053428D02*
X226639523Y-65148666D01*
X226639523Y-65148666D02*
X226639523Y-65339142D01*
X226639523Y-65339142D02*
X226591904Y-65434380D01*
X226591904Y-65434380D02*
X226544285Y-65482000D01*
X226544285Y-65482000D02*
X226449047Y-65529619D01*
X226449047Y-65529619D02*
X226258571Y-65529619D01*
X226258571Y-65529619D02*
X226163333Y-65482000D01*
X226163333Y-65482000D02*
X226115714Y-65434380D01*
X226115714Y-65434380D02*
X226068095Y-65339142D01*
X226068095Y-65339142D02*
X226068095Y-65148666D01*
X226068095Y-65148666D02*
X226115714Y-65053428D01*
X226115714Y-65053428D02*
X226163333Y-65005809D01*
X226163333Y-65005809D02*
X226258571Y-64958190D01*
X213799657Y-65434380D02*
X213847276Y-65482000D01*
X213847276Y-65482000D02*
X213990133Y-65529619D01*
X213990133Y-65529619D02*
X214085371Y-65529619D01*
X214085371Y-65529619D02*
X214228228Y-65482000D01*
X214228228Y-65482000D02*
X214323466Y-65386761D01*
X214323466Y-65386761D02*
X214371085Y-65291523D01*
X214371085Y-65291523D02*
X214418704Y-65101047D01*
X214418704Y-65101047D02*
X214418704Y-64958190D01*
X214418704Y-64958190D02*
X214371085Y-64767714D01*
X214371085Y-64767714D02*
X214323466Y-64672476D01*
X214323466Y-64672476D02*
X214228228Y-64577238D01*
X214228228Y-64577238D02*
X214085371Y-64529619D01*
X214085371Y-64529619D02*
X213990133Y-64529619D01*
X213990133Y-64529619D02*
X213847276Y-64577238D01*
X213847276Y-64577238D02*
X213799657Y-64624857D01*
X212847276Y-65529619D02*
X213418704Y-65529619D01*
X213132990Y-65529619D02*
X213132990Y-64529619D01*
X213132990Y-64529619D02*
X213228228Y-64672476D01*
X213228228Y-64672476D02*
X213323466Y-64767714D01*
X213323466Y-64767714D02*
X213418704Y-64815333D01*
X212371085Y-65529619D02*
X212180609Y-65529619D01*
X212180609Y-65529619D02*
X212085371Y-65482000D01*
X212085371Y-65482000D02*
X212037752Y-65434380D01*
X212037752Y-65434380D02*
X211942514Y-65291523D01*
X211942514Y-65291523D02*
X211894895Y-65101047D01*
X211894895Y-65101047D02*
X211894895Y-64720095D01*
X211894895Y-64720095D02*
X211942514Y-64624857D01*
X211942514Y-64624857D02*
X211990133Y-64577238D01*
X211990133Y-64577238D02*
X212085371Y-64529619D01*
X212085371Y-64529619D02*
X212275847Y-64529619D01*
X212275847Y-64529619D02*
X212371085Y-64577238D01*
X212371085Y-64577238D02*
X212418704Y-64624857D01*
X212418704Y-64624857D02*
X212466323Y-64720095D01*
X212466323Y-64720095D02*
X212466323Y-64958190D01*
X212466323Y-64958190D02*
X212418704Y-65053428D01*
X212418704Y-65053428D02*
X212371085Y-65101047D01*
X212371085Y-65101047D02*
X212275847Y-65148666D01*
X212275847Y-65148666D02*
X212085371Y-65148666D01*
X212085371Y-65148666D02*
X211990133Y-65101047D01*
X211990133Y-65101047D02*
X211942514Y-65053428D01*
X211942514Y-65053428D02*
X211894895Y-64958190D01*
X218955857Y-65434380D02*
X219003476Y-65482000D01*
X219003476Y-65482000D02*
X219146333Y-65529619D01*
X219146333Y-65529619D02*
X219241571Y-65529619D01*
X219241571Y-65529619D02*
X219384428Y-65482000D01*
X219384428Y-65482000D02*
X219479666Y-65386761D01*
X219479666Y-65386761D02*
X219527285Y-65291523D01*
X219527285Y-65291523D02*
X219574904Y-65101047D01*
X219574904Y-65101047D02*
X219574904Y-64958190D01*
X219574904Y-64958190D02*
X219527285Y-64767714D01*
X219527285Y-64767714D02*
X219479666Y-64672476D01*
X219479666Y-64672476D02*
X219384428Y-64577238D01*
X219384428Y-64577238D02*
X219241571Y-64529619D01*
X219241571Y-64529619D02*
X219146333Y-64529619D01*
X219146333Y-64529619D02*
X219003476Y-64577238D01*
X219003476Y-64577238D02*
X218955857Y-64624857D01*
X218574904Y-64624857D02*
X218527285Y-64577238D01*
X218527285Y-64577238D02*
X218432047Y-64529619D01*
X218432047Y-64529619D02*
X218193952Y-64529619D01*
X218193952Y-64529619D02*
X218098714Y-64577238D01*
X218098714Y-64577238D02*
X218051095Y-64624857D01*
X218051095Y-64624857D02*
X218003476Y-64720095D01*
X218003476Y-64720095D02*
X218003476Y-64815333D01*
X218003476Y-64815333D02*
X218051095Y-64958190D01*
X218051095Y-64958190D02*
X218622523Y-65529619D01*
X218622523Y-65529619D02*
X218003476Y-65529619D01*
X217670142Y-64529619D02*
X217051095Y-64529619D01*
X217051095Y-64529619D02*
X217384428Y-64910571D01*
X217384428Y-64910571D02*
X217241571Y-64910571D01*
X217241571Y-64910571D02*
X217146333Y-64958190D01*
X217146333Y-64958190D02*
X217098714Y-65005809D01*
X217098714Y-65005809D02*
X217051095Y-65101047D01*
X217051095Y-65101047D02*
X217051095Y-65339142D01*
X217051095Y-65339142D02*
X217098714Y-65434380D01*
X217098714Y-65434380D02*
X217146333Y-65482000D01*
X217146333Y-65482000D02*
X217241571Y-65529619D01*
X217241571Y-65529619D02*
X217527285Y-65529619D01*
X217527285Y-65529619D02*
X217622523Y-65482000D01*
X217622523Y-65482000D02*
X217670142Y-65434380D01*
X224010457Y-65383580D02*
X224058076Y-65431200D01*
X224058076Y-65431200D02*
X224200933Y-65478819D01*
X224200933Y-65478819D02*
X224296171Y-65478819D01*
X224296171Y-65478819D02*
X224439028Y-65431200D01*
X224439028Y-65431200D02*
X224534266Y-65335961D01*
X224534266Y-65335961D02*
X224581885Y-65240723D01*
X224581885Y-65240723D02*
X224629504Y-65050247D01*
X224629504Y-65050247D02*
X224629504Y-64907390D01*
X224629504Y-64907390D02*
X224581885Y-64716914D01*
X224581885Y-64716914D02*
X224534266Y-64621676D01*
X224534266Y-64621676D02*
X224439028Y-64526438D01*
X224439028Y-64526438D02*
X224296171Y-64478819D01*
X224296171Y-64478819D02*
X224200933Y-64478819D01*
X224200933Y-64478819D02*
X224058076Y-64526438D01*
X224058076Y-64526438D02*
X224010457Y-64574057D01*
X223629504Y-64574057D02*
X223581885Y-64526438D01*
X223581885Y-64526438D02*
X223486647Y-64478819D01*
X223486647Y-64478819D02*
X223248552Y-64478819D01*
X223248552Y-64478819D02*
X223153314Y-64526438D01*
X223153314Y-64526438D02*
X223105695Y-64574057D01*
X223105695Y-64574057D02*
X223058076Y-64669295D01*
X223058076Y-64669295D02*
X223058076Y-64764533D01*
X223058076Y-64764533D02*
X223105695Y-64907390D01*
X223105695Y-64907390D02*
X223677123Y-65478819D01*
X223677123Y-65478819D02*
X223058076Y-65478819D01*
X222439028Y-64478819D02*
X222343790Y-64478819D01*
X222343790Y-64478819D02*
X222248552Y-64526438D01*
X222248552Y-64526438D02*
X222200933Y-64574057D01*
X222200933Y-64574057D02*
X222153314Y-64669295D01*
X222153314Y-64669295D02*
X222105695Y-64859771D01*
X222105695Y-64859771D02*
X222105695Y-65097866D01*
X222105695Y-65097866D02*
X222153314Y-65288342D01*
X222153314Y-65288342D02*
X222200933Y-65383580D01*
X222200933Y-65383580D02*
X222248552Y-65431200D01*
X222248552Y-65431200D02*
X222343790Y-65478819D01*
X222343790Y-65478819D02*
X222439028Y-65478819D01*
X222439028Y-65478819D02*
X222534266Y-65431200D01*
X222534266Y-65431200D02*
X222581885Y-65383580D01*
X222581885Y-65383580D02*
X222629504Y-65288342D01*
X222629504Y-65288342D02*
X222677123Y-65097866D01*
X222677123Y-65097866D02*
X222677123Y-64859771D01*
X222677123Y-64859771D02*
X222629504Y-64669295D01*
X222629504Y-64669295D02*
X222581885Y-64574057D01*
X222581885Y-64574057D02*
X222534266Y-64526438D01*
X222534266Y-64526438D02*
X222439028Y-64478819D01*
X227972857Y-58474780D02*
X228020476Y-58522400D01*
X228020476Y-58522400D02*
X228163333Y-58570019D01*
X228163333Y-58570019D02*
X228258571Y-58570019D01*
X228258571Y-58570019D02*
X228401428Y-58522400D01*
X228401428Y-58522400D02*
X228496666Y-58427161D01*
X228496666Y-58427161D02*
X228544285Y-58331923D01*
X228544285Y-58331923D02*
X228591904Y-58141447D01*
X228591904Y-58141447D02*
X228591904Y-57998590D01*
X228591904Y-57998590D02*
X228544285Y-57808114D01*
X228544285Y-57808114D02*
X228496666Y-57712876D01*
X228496666Y-57712876D02*
X228401428Y-57617638D01*
X228401428Y-57617638D02*
X228258571Y-57570019D01*
X228258571Y-57570019D02*
X228163333Y-57570019D01*
X228163333Y-57570019D02*
X228020476Y-57617638D01*
X228020476Y-57617638D02*
X227972857Y-57665257D01*
X227020476Y-58570019D02*
X227591904Y-58570019D01*
X227306190Y-58570019D02*
X227306190Y-57570019D01*
X227306190Y-57570019D02*
X227401428Y-57712876D01*
X227401428Y-57712876D02*
X227496666Y-57808114D01*
X227496666Y-57808114D02*
X227591904Y-57855733D01*
X226115714Y-57570019D02*
X226591904Y-57570019D01*
X226591904Y-57570019D02*
X226639523Y-58046209D01*
X226639523Y-58046209D02*
X226591904Y-57998590D01*
X226591904Y-57998590D02*
X226496666Y-57950971D01*
X226496666Y-57950971D02*
X226258571Y-57950971D01*
X226258571Y-57950971D02*
X226163333Y-57998590D01*
X226163333Y-57998590D02*
X226115714Y-58046209D01*
X226115714Y-58046209D02*
X226068095Y-58141447D01*
X226068095Y-58141447D02*
X226068095Y-58379542D01*
X226068095Y-58379542D02*
X226115714Y-58474780D01*
X226115714Y-58474780D02*
X226163333Y-58522400D01*
X226163333Y-58522400D02*
X226258571Y-58570019D01*
X226258571Y-58570019D02*
X226496666Y-58570019D01*
X226496666Y-58570019D02*
X226591904Y-58522400D01*
X226591904Y-58522400D02*
X226639523Y-58474780D01*
X233103657Y-54359980D02*
X233151276Y-54407600D01*
X233151276Y-54407600D02*
X233294133Y-54455219D01*
X233294133Y-54455219D02*
X233389371Y-54455219D01*
X233389371Y-54455219D02*
X233532228Y-54407600D01*
X233532228Y-54407600D02*
X233627466Y-54312361D01*
X233627466Y-54312361D02*
X233675085Y-54217123D01*
X233675085Y-54217123D02*
X233722704Y-54026647D01*
X233722704Y-54026647D02*
X233722704Y-53883790D01*
X233722704Y-53883790D02*
X233675085Y-53693314D01*
X233675085Y-53693314D02*
X233627466Y-53598076D01*
X233627466Y-53598076D02*
X233532228Y-53502838D01*
X233532228Y-53502838D02*
X233389371Y-53455219D01*
X233389371Y-53455219D02*
X233294133Y-53455219D01*
X233294133Y-53455219D02*
X233151276Y-53502838D01*
X233151276Y-53502838D02*
X233103657Y-53550457D01*
X232722704Y-53550457D02*
X232675085Y-53502838D01*
X232675085Y-53502838D02*
X232579847Y-53455219D01*
X232579847Y-53455219D02*
X232341752Y-53455219D01*
X232341752Y-53455219D02*
X232246514Y-53502838D01*
X232246514Y-53502838D02*
X232198895Y-53550457D01*
X232198895Y-53550457D02*
X232151276Y-53645695D01*
X232151276Y-53645695D02*
X232151276Y-53740933D01*
X232151276Y-53740933D02*
X232198895Y-53883790D01*
X232198895Y-53883790D02*
X232770323Y-54455219D01*
X232770323Y-54455219D02*
X232151276Y-54455219D01*
X231198895Y-54455219D02*
X231770323Y-54455219D01*
X231484609Y-54455219D02*
X231484609Y-53455219D01*
X231484609Y-53455219D02*
X231579847Y-53598076D01*
X231579847Y-53598076D02*
X231675085Y-53693314D01*
X231675085Y-53693314D02*
X231770323Y-53740933D01*
X208516457Y-65434380D02*
X208564076Y-65482000D01*
X208564076Y-65482000D02*
X208706933Y-65529619D01*
X208706933Y-65529619D02*
X208802171Y-65529619D01*
X208802171Y-65529619D02*
X208945028Y-65482000D01*
X208945028Y-65482000D02*
X209040266Y-65386761D01*
X209040266Y-65386761D02*
X209087885Y-65291523D01*
X209087885Y-65291523D02*
X209135504Y-65101047D01*
X209135504Y-65101047D02*
X209135504Y-64958190D01*
X209135504Y-64958190D02*
X209087885Y-64767714D01*
X209087885Y-64767714D02*
X209040266Y-64672476D01*
X209040266Y-64672476D02*
X208945028Y-64577238D01*
X208945028Y-64577238D02*
X208802171Y-64529619D01*
X208802171Y-64529619D02*
X208706933Y-64529619D01*
X208706933Y-64529619D02*
X208564076Y-64577238D01*
X208564076Y-64577238D02*
X208516457Y-64624857D01*
X208135504Y-64624857D02*
X208087885Y-64577238D01*
X208087885Y-64577238D02*
X207992647Y-64529619D01*
X207992647Y-64529619D02*
X207754552Y-64529619D01*
X207754552Y-64529619D02*
X207659314Y-64577238D01*
X207659314Y-64577238D02*
X207611695Y-64624857D01*
X207611695Y-64624857D02*
X207564076Y-64720095D01*
X207564076Y-64720095D02*
X207564076Y-64815333D01*
X207564076Y-64815333D02*
X207611695Y-64958190D01*
X207611695Y-64958190D02*
X208183123Y-65529619D01*
X208183123Y-65529619D02*
X207564076Y-65529619D01*
X207183123Y-64624857D02*
X207135504Y-64577238D01*
X207135504Y-64577238D02*
X207040266Y-64529619D01*
X207040266Y-64529619D02*
X206802171Y-64529619D01*
X206802171Y-64529619D02*
X206706933Y-64577238D01*
X206706933Y-64577238D02*
X206659314Y-64624857D01*
X206659314Y-64624857D02*
X206611695Y-64720095D01*
X206611695Y-64720095D02*
X206611695Y-64815333D01*
X206611695Y-64815333D02*
X206659314Y-64958190D01*
X206659314Y-64958190D02*
X207230742Y-65529619D01*
X207230742Y-65529619D02*
X206611695Y-65529619D01*
X228074457Y-63605580D02*
X228122076Y-63653200D01*
X228122076Y-63653200D02*
X228264933Y-63700819D01*
X228264933Y-63700819D02*
X228360171Y-63700819D01*
X228360171Y-63700819D02*
X228503028Y-63653200D01*
X228503028Y-63653200D02*
X228598266Y-63557961D01*
X228598266Y-63557961D02*
X228645885Y-63462723D01*
X228645885Y-63462723D02*
X228693504Y-63272247D01*
X228693504Y-63272247D02*
X228693504Y-63129390D01*
X228693504Y-63129390D02*
X228645885Y-62938914D01*
X228645885Y-62938914D02*
X228598266Y-62843676D01*
X228598266Y-62843676D02*
X228503028Y-62748438D01*
X228503028Y-62748438D02*
X228360171Y-62700819D01*
X228360171Y-62700819D02*
X228264933Y-62700819D01*
X228264933Y-62700819D02*
X228122076Y-62748438D01*
X228122076Y-62748438D02*
X228074457Y-62796057D01*
X227122076Y-63700819D02*
X227693504Y-63700819D01*
X227407790Y-63700819D02*
X227407790Y-62700819D01*
X227407790Y-62700819D02*
X227503028Y-62843676D01*
X227503028Y-62843676D02*
X227598266Y-62938914D01*
X227598266Y-62938914D02*
X227693504Y-62986533D01*
X226788742Y-62700819D02*
X226122076Y-62700819D01*
X226122076Y-62700819D02*
X226550647Y-63700819D01*
X208465657Y-60608380D02*
X208513276Y-60656000D01*
X208513276Y-60656000D02*
X208656133Y-60703619D01*
X208656133Y-60703619D02*
X208751371Y-60703619D01*
X208751371Y-60703619D02*
X208894228Y-60656000D01*
X208894228Y-60656000D02*
X208989466Y-60560761D01*
X208989466Y-60560761D02*
X209037085Y-60465523D01*
X209037085Y-60465523D02*
X209084704Y-60275047D01*
X209084704Y-60275047D02*
X209084704Y-60132190D01*
X209084704Y-60132190D02*
X209037085Y-59941714D01*
X209037085Y-59941714D02*
X208989466Y-59846476D01*
X208989466Y-59846476D02*
X208894228Y-59751238D01*
X208894228Y-59751238D02*
X208751371Y-59703619D01*
X208751371Y-59703619D02*
X208656133Y-59703619D01*
X208656133Y-59703619D02*
X208513276Y-59751238D01*
X208513276Y-59751238D02*
X208465657Y-59798857D01*
X207513276Y-60703619D02*
X208084704Y-60703619D01*
X207798990Y-60703619D02*
X207798990Y-59703619D01*
X207798990Y-59703619D02*
X207894228Y-59846476D01*
X207894228Y-59846476D02*
X207989466Y-59941714D01*
X207989466Y-59941714D02*
X208084704Y-59989333D01*
X206656133Y-59703619D02*
X206846609Y-59703619D01*
X206846609Y-59703619D02*
X206941847Y-59751238D01*
X206941847Y-59751238D02*
X206989466Y-59798857D01*
X206989466Y-59798857D02*
X207084704Y-59941714D01*
X207084704Y-59941714D02*
X207132323Y-60132190D01*
X207132323Y-60132190D02*
X207132323Y-60513142D01*
X207132323Y-60513142D02*
X207084704Y-60608380D01*
X207084704Y-60608380D02*
X207037085Y-60656000D01*
X207037085Y-60656000D02*
X206941847Y-60703619D01*
X206941847Y-60703619D02*
X206751371Y-60703619D01*
X206751371Y-60703619D02*
X206656133Y-60656000D01*
X206656133Y-60656000D02*
X206608514Y-60608380D01*
X206608514Y-60608380D02*
X206560895Y-60513142D01*
X206560895Y-60513142D02*
X206560895Y-60275047D01*
X206560895Y-60275047D02*
X206608514Y-60179809D01*
X206608514Y-60179809D02*
X206656133Y-60132190D01*
X206656133Y-60132190D02*
X206751371Y-60084571D01*
X206751371Y-60084571D02*
X206941847Y-60084571D01*
X206941847Y-60084571D02*
X207037085Y-60132190D01*
X207037085Y-60132190D02*
X207084704Y-60179809D01*
X207084704Y-60179809D02*
X207132323Y-60275047D01*
X134786666Y-58935580D02*
X134834285Y-58983200D01*
X134834285Y-58983200D02*
X134977142Y-59030819D01*
X134977142Y-59030819D02*
X135072380Y-59030819D01*
X135072380Y-59030819D02*
X135215237Y-58983200D01*
X135215237Y-58983200D02*
X135310475Y-58887961D01*
X135310475Y-58887961D02*
X135358094Y-58792723D01*
X135358094Y-58792723D02*
X135405713Y-58602247D01*
X135405713Y-58602247D02*
X135405713Y-58459390D01*
X135405713Y-58459390D02*
X135358094Y-58268914D01*
X135358094Y-58268914D02*
X135310475Y-58173676D01*
X135310475Y-58173676D02*
X135215237Y-58078438D01*
X135215237Y-58078438D02*
X135072380Y-58030819D01*
X135072380Y-58030819D02*
X134977142Y-58030819D01*
X134977142Y-58030819D02*
X134834285Y-58078438D01*
X134834285Y-58078438D02*
X134786666Y-58126057D01*
X134453332Y-58030819D02*
X133834285Y-58030819D01*
X133834285Y-58030819D02*
X134167618Y-58411771D01*
X134167618Y-58411771D02*
X134024761Y-58411771D01*
X134024761Y-58411771D02*
X133929523Y-58459390D01*
X133929523Y-58459390D02*
X133881904Y-58507009D01*
X133881904Y-58507009D02*
X133834285Y-58602247D01*
X133834285Y-58602247D02*
X133834285Y-58840342D01*
X133834285Y-58840342D02*
X133881904Y-58935580D01*
X133881904Y-58935580D02*
X133929523Y-58983200D01*
X133929523Y-58983200D02*
X134024761Y-59030819D01*
X134024761Y-59030819D02*
X134310475Y-59030819D01*
X134310475Y-59030819D02*
X134405713Y-58983200D01*
X134405713Y-58983200D02*
X134453332Y-58935580D01*
X120308666Y-58935580D02*
X120356285Y-58983200D01*
X120356285Y-58983200D02*
X120499142Y-59030819D01*
X120499142Y-59030819D02*
X120594380Y-59030819D01*
X120594380Y-59030819D02*
X120737237Y-58983200D01*
X120737237Y-58983200D02*
X120832475Y-58887961D01*
X120832475Y-58887961D02*
X120880094Y-58792723D01*
X120880094Y-58792723D02*
X120927713Y-58602247D01*
X120927713Y-58602247D02*
X120927713Y-58459390D01*
X120927713Y-58459390D02*
X120880094Y-58268914D01*
X120880094Y-58268914D02*
X120832475Y-58173676D01*
X120832475Y-58173676D02*
X120737237Y-58078438D01*
X120737237Y-58078438D02*
X120594380Y-58030819D01*
X120594380Y-58030819D02*
X120499142Y-58030819D01*
X120499142Y-58030819D02*
X120356285Y-58078438D01*
X120356285Y-58078438D02*
X120308666Y-58126057D01*
X119451523Y-58364152D02*
X119451523Y-59030819D01*
X119689618Y-57983200D02*
X119927713Y-58697485D01*
X119927713Y-58697485D02*
X119308666Y-58697485D01*
X189009257Y-49686380D02*
X189056876Y-49734000D01*
X189056876Y-49734000D02*
X189199733Y-49781619D01*
X189199733Y-49781619D02*
X189294971Y-49781619D01*
X189294971Y-49781619D02*
X189437828Y-49734000D01*
X189437828Y-49734000D02*
X189533066Y-49638761D01*
X189533066Y-49638761D02*
X189580685Y-49543523D01*
X189580685Y-49543523D02*
X189628304Y-49353047D01*
X189628304Y-49353047D02*
X189628304Y-49210190D01*
X189628304Y-49210190D02*
X189580685Y-49019714D01*
X189580685Y-49019714D02*
X189533066Y-48924476D01*
X189533066Y-48924476D02*
X189437828Y-48829238D01*
X189437828Y-48829238D02*
X189294971Y-48781619D01*
X189294971Y-48781619D02*
X189199733Y-48781619D01*
X189199733Y-48781619D02*
X189056876Y-48829238D01*
X189056876Y-48829238D02*
X189009257Y-48876857D01*
X188152114Y-49114952D02*
X188152114Y-49781619D01*
X188390209Y-48734000D02*
X188628304Y-49448285D01*
X188628304Y-49448285D02*
X188009257Y-49448285D01*
X187199733Y-49114952D02*
X187199733Y-49781619D01*
X187437828Y-48734000D02*
X187675923Y-49448285D01*
X187675923Y-49448285D02*
X187056876Y-49448285D01*
X178087257Y-49686380D02*
X178134876Y-49734000D01*
X178134876Y-49734000D02*
X178277733Y-49781619D01*
X178277733Y-49781619D02*
X178372971Y-49781619D01*
X178372971Y-49781619D02*
X178515828Y-49734000D01*
X178515828Y-49734000D02*
X178611066Y-49638761D01*
X178611066Y-49638761D02*
X178658685Y-49543523D01*
X178658685Y-49543523D02*
X178706304Y-49353047D01*
X178706304Y-49353047D02*
X178706304Y-49210190D01*
X178706304Y-49210190D02*
X178658685Y-49019714D01*
X178658685Y-49019714D02*
X178611066Y-48924476D01*
X178611066Y-48924476D02*
X178515828Y-48829238D01*
X178515828Y-48829238D02*
X178372971Y-48781619D01*
X178372971Y-48781619D02*
X178277733Y-48781619D01*
X178277733Y-48781619D02*
X178134876Y-48829238D01*
X178134876Y-48829238D02*
X178087257Y-48876857D01*
X177182495Y-48781619D02*
X177658685Y-48781619D01*
X177658685Y-48781619D02*
X177706304Y-49257809D01*
X177706304Y-49257809D02*
X177658685Y-49210190D01*
X177658685Y-49210190D02*
X177563447Y-49162571D01*
X177563447Y-49162571D02*
X177325352Y-49162571D01*
X177325352Y-49162571D02*
X177230114Y-49210190D01*
X177230114Y-49210190D02*
X177182495Y-49257809D01*
X177182495Y-49257809D02*
X177134876Y-49353047D01*
X177134876Y-49353047D02*
X177134876Y-49591142D01*
X177134876Y-49591142D02*
X177182495Y-49686380D01*
X177182495Y-49686380D02*
X177230114Y-49734000D01*
X177230114Y-49734000D02*
X177325352Y-49781619D01*
X177325352Y-49781619D02*
X177563447Y-49781619D01*
X177563447Y-49781619D02*
X177658685Y-49734000D01*
X177658685Y-49734000D02*
X177706304Y-49686380D01*
X176753923Y-48876857D02*
X176706304Y-48829238D01*
X176706304Y-48829238D02*
X176611066Y-48781619D01*
X176611066Y-48781619D02*
X176372971Y-48781619D01*
X176372971Y-48781619D02*
X176277733Y-48829238D01*
X176277733Y-48829238D02*
X176230114Y-48876857D01*
X176230114Y-48876857D02*
X176182495Y-48972095D01*
X176182495Y-48972095D02*
X176182495Y-49067333D01*
X176182495Y-49067333D02*
X176230114Y-49210190D01*
X176230114Y-49210190D02*
X176801542Y-49781619D01*
X176801542Y-49781619D02*
X176182495Y-49781619D01*
X227007657Y-46066880D02*
X227055276Y-46114500D01*
X227055276Y-46114500D02*
X227198133Y-46162119D01*
X227198133Y-46162119D02*
X227293371Y-46162119D01*
X227293371Y-46162119D02*
X227436228Y-46114500D01*
X227436228Y-46114500D02*
X227531466Y-46019261D01*
X227531466Y-46019261D02*
X227579085Y-45924023D01*
X227579085Y-45924023D02*
X227626704Y-45733547D01*
X227626704Y-45733547D02*
X227626704Y-45590690D01*
X227626704Y-45590690D02*
X227579085Y-45400214D01*
X227579085Y-45400214D02*
X227531466Y-45304976D01*
X227531466Y-45304976D02*
X227436228Y-45209738D01*
X227436228Y-45209738D02*
X227293371Y-45162119D01*
X227293371Y-45162119D02*
X227198133Y-45162119D01*
X227198133Y-45162119D02*
X227055276Y-45209738D01*
X227055276Y-45209738D02*
X227007657Y-45257357D01*
X226150514Y-45495452D02*
X226150514Y-46162119D01*
X226388609Y-45114500D02*
X226626704Y-45828785D01*
X226626704Y-45828785D02*
X226007657Y-45828785D01*
X225198133Y-45162119D02*
X225388609Y-45162119D01*
X225388609Y-45162119D02*
X225483847Y-45209738D01*
X225483847Y-45209738D02*
X225531466Y-45257357D01*
X225531466Y-45257357D02*
X225626704Y-45400214D01*
X225626704Y-45400214D02*
X225674323Y-45590690D01*
X225674323Y-45590690D02*
X225674323Y-45971642D01*
X225674323Y-45971642D02*
X225626704Y-46066880D01*
X225626704Y-46066880D02*
X225579085Y-46114500D01*
X225579085Y-46114500D02*
X225483847Y-46162119D01*
X225483847Y-46162119D02*
X225293371Y-46162119D01*
X225293371Y-46162119D02*
X225198133Y-46114500D01*
X225198133Y-46114500D02*
X225150514Y-46066880D01*
X225150514Y-46066880D02*
X225102895Y-45971642D01*
X225102895Y-45971642D02*
X225102895Y-45733547D01*
X225102895Y-45733547D02*
X225150514Y-45638309D01*
X225150514Y-45638309D02*
X225198133Y-45590690D01*
X225198133Y-45590690D02*
X225293371Y-45543071D01*
X225293371Y-45543071D02*
X225483847Y-45543071D01*
X225483847Y-45543071D02*
X225579085Y-45590690D01*
X225579085Y-45590690D02*
X225626704Y-45638309D01*
X225626704Y-45638309D02*
X225674323Y-45733547D01*
X208516457Y-58830380D02*
X208564076Y-58878000D01*
X208564076Y-58878000D02*
X208706933Y-58925619D01*
X208706933Y-58925619D02*
X208802171Y-58925619D01*
X208802171Y-58925619D02*
X208945028Y-58878000D01*
X208945028Y-58878000D02*
X209040266Y-58782761D01*
X209040266Y-58782761D02*
X209087885Y-58687523D01*
X209087885Y-58687523D02*
X209135504Y-58497047D01*
X209135504Y-58497047D02*
X209135504Y-58354190D01*
X209135504Y-58354190D02*
X209087885Y-58163714D01*
X209087885Y-58163714D02*
X209040266Y-58068476D01*
X209040266Y-58068476D02*
X208945028Y-57973238D01*
X208945028Y-57973238D02*
X208802171Y-57925619D01*
X208802171Y-57925619D02*
X208706933Y-57925619D01*
X208706933Y-57925619D02*
X208564076Y-57973238D01*
X208564076Y-57973238D02*
X208516457Y-58020857D01*
X207659314Y-58258952D02*
X207659314Y-58925619D01*
X207897409Y-57878000D02*
X208135504Y-58592285D01*
X208135504Y-58592285D02*
X207516457Y-58592285D01*
X207087885Y-58925619D02*
X206897409Y-58925619D01*
X206897409Y-58925619D02*
X206802171Y-58878000D01*
X206802171Y-58878000D02*
X206754552Y-58830380D01*
X206754552Y-58830380D02*
X206659314Y-58687523D01*
X206659314Y-58687523D02*
X206611695Y-58497047D01*
X206611695Y-58497047D02*
X206611695Y-58116095D01*
X206611695Y-58116095D02*
X206659314Y-58020857D01*
X206659314Y-58020857D02*
X206706933Y-57973238D01*
X206706933Y-57973238D02*
X206802171Y-57925619D01*
X206802171Y-57925619D02*
X206992647Y-57925619D01*
X206992647Y-57925619D02*
X207087885Y-57973238D01*
X207087885Y-57973238D02*
X207135504Y-58020857D01*
X207135504Y-58020857D02*
X207183123Y-58116095D01*
X207183123Y-58116095D02*
X207183123Y-58354190D01*
X207183123Y-58354190D02*
X207135504Y-58449428D01*
X207135504Y-58449428D02*
X207087885Y-58497047D01*
X207087885Y-58497047D02*
X206992647Y-58544666D01*
X206992647Y-58544666D02*
X206802171Y-58544666D01*
X206802171Y-58544666D02*
X206706933Y-58497047D01*
X206706933Y-58497047D02*
X206659314Y-58449428D01*
X206659314Y-58449428D02*
X206611695Y-58354190D01*
X135262857Y-77677180D02*
X135310476Y-77724800D01*
X135310476Y-77724800D02*
X135453333Y-77772419D01*
X135453333Y-77772419D02*
X135548571Y-77772419D01*
X135548571Y-77772419D02*
X135691428Y-77724800D01*
X135691428Y-77724800D02*
X135786666Y-77629561D01*
X135786666Y-77629561D02*
X135834285Y-77534323D01*
X135834285Y-77534323D02*
X135881904Y-77343847D01*
X135881904Y-77343847D02*
X135881904Y-77200990D01*
X135881904Y-77200990D02*
X135834285Y-77010514D01*
X135834285Y-77010514D02*
X135786666Y-76915276D01*
X135786666Y-76915276D02*
X135691428Y-76820038D01*
X135691428Y-76820038D02*
X135548571Y-76772419D01*
X135548571Y-76772419D02*
X135453333Y-76772419D01*
X135453333Y-76772419D02*
X135310476Y-76820038D01*
X135310476Y-76820038D02*
X135262857Y-76867657D01*
X134310476Y-77772419D02*
X134881904Y-77772419D01*
X134596190Y-77772419D02*
X134596190Y-76772419D01*
X134596190Y-76772419D02*
X134691428Y-76915276D01*
X134691428Y-76915276D02*
X134786666Y-77010514D01*
X134786666Y-77010514D02*
X134881904Y-77058133D01*
X133691428Y-76772419D02*
X133596190Y-76772419D01*
X133596190Y-76772419D02*
X133500952Y-76820038D01*
X133500952Y-76820038D02*
X133453333Y-76867657D01*
X133453333Y-76867657D02*
X133405714Y-76962895D01*
X133405714Y-76962895D02*
X133358095Y-77153371D01*
X133358095Y-77153371D02*
X133358095Y-77391466D01*
X133358095Y-77391466D02*
X133405714Y-77581942D01*
X133405714Y-77581942D02*
X133453333Y-77677180D01*
X133453333Y-77677180D02*
X133500952Y-77724800D01*
X133500952Y-77724800D02*
X133596190Y-77772419D01*
X133596190Y-77772419D02*
X133691428Y-77772419D01*
X133691428Y-77772419D02*
X133786666Y-77724800D01*
X133786666Y-77724800D02*
X133834285Y-77677180D01*
X133834285Y-77677180D02*
X133881904Y-77581942D01*
X133881904Y-77581942D02*
X133929523Y-77391466D01*
X133929523Y-77391466D02*
X133929523Y-77153371D01*
X133929523Y-77153371D02*
X133881904Y-76962895D01*
X133881904Y-76962895D02*
X133834285Y-76867657D01*
X133834285Y-76867657D02*
X133786666Y-76820038D01*
X133786666Y-76820038D02*
X133691428Y-76772419D01*
X218828857Y-46016080D02*
X218876476Y-46063700D01*
X218876476Y-46063700D02*
X219019333Y-46111319D01*
X219019333Y-46111319D02*
X219114571Y-46111319D01*
X219114571Y-46111319D02*
X219257428Y-46063700D01*
X219257428Y-46063700D02*
X219352666Y-45968461D01*
X219352666Y-45968461D02*
X219400285Y-45873223D01*
X219400285Y-45873223D02*
X219447904Y-45682747D01*
X219447904Y-45682747D02*
X219447904Y-45539890D01*
X219447904Y-45539890D02*
X219400285Y-45349414D01*
X219400285Y-45349414D02*
X219352666Y-45254176D01*
X219352666Y-45254176D02*
X219257428Y-45158938D01*
X219257428Y-45158938D02*
X219114571Y-45111319D01*
X219114571Y-45111319D02*
X219019333Y-45111319D01*
X219019333Y-45111319D02*
X218876476Y-45158938D01*
X218876476Y-45158938D02*
X218828857Y-45206557D01*
X217971714Y-45444652D02*
X217971714Y-46111319D01*
X218209809Y-45063700D02*
X218447904Y-45777985D01*
X218447904Y-45777985D02*
X217828857Y-45777985D01*
X216971714Y-45111319D02*
X217447904Y-45111319D01*
X217447904Y-45111319D02*
X217495523Y-45587509D01*
X217495523Y-45587509D02*
X217447904Y-45539890D01*
X217447904Y-45539890D02*
X217352666Y-45492271D01*
X217352666Y-45492271D02*
X217114571Y-45492271D01*
X217114571Y-45492271D02*
X217019333Y-45539890D01*
X217019333Y-45539890D02*
X216971714Y-45587509D01*
X216971714Y-45587509D02*
X216924095Y-45682747D01*
X216924095Y-45682747D02*
X216924095Y-45920842D01*
X216924095Y-45920842D02*
X216971714Y-46016080D01*
X216971714Y-46016080D02*
X217019333Y-46063700D01*
X217019333Y-46063700D02*
X217114571Y-46111319D01*
X217114571Y-46111319D02*
X217352666Y-46111319D01*
X217352666Y-46111319D02*
X217447904Y-46063700D01*
X217447904Y-46063700D02*
X217495523Y-46016080D01*
X223858057Y-57865180D02*
X223905676Y-57912800D01*
X223905676Y-57912800D02*
X224048533Y-57960419D01*
X224048533Y-57960419D02*
X224143771Y-57960419D01*
X224143771Y-57960419D02*
X224286628Y-57912800D01*
X224286628Y-57912800D02*
X224381866Y-57817561D01*
X224381866Y-57817561D02*
X224429485Y-57722323D01*
X224429485Y-57722323D02*
X224477104Y-57531847D01*
X224477104Y-57531847D02*
X224477104Y-57388990D01*
X224477104Y-57388990D02*
X224429485Y-57198514D01*
X224429485Y-57198514D02*
X224381866Y-57103276D01*
X224381866Y-57103276D02*
X224286628Y-57008038D01*
X224286628Y-57008038D02*
X224143771Y-56960419D01*
X224143771Y-56960419D02*
X224048533Y-56960419D01*
X224048533Y-56960419D02*
X223905676Y-57008038D01*
X223905676Y-57008038D02*
X223858057Y-57055657D01*
X223000914Y-56960419D02*
X223191390Y-56960419D01*
X223191390Y-56960419D02*
X223286628Y-57008038D01*
X223286628Y-57008038D02*
X223334247Y-57055657D01*
X223334247Y-57055657D02*
X223429485Y-57198514D01*
X223429485Y-57198514D02*
X223477104Y-57388990D01*
X223477104Y-57388990D02*
X223477104Y-57769942D01*
X223477104Y-57769942D02*
X223429485Y-57865180D01*
X223429485Y-57865180D02*
X223381866Y-57912800D01*
X223381866Y-57912800D02*
X223286628Y-57960419D01*
X223286628Y-57960419D02*
X223096152Y-57960419D01*
X223096152Y-57960419D02*
X223000914Y-57912800D01*
X223000914Y-57912800D02*
X222953295Y-57865180D01*
X222953295Y-57865180D02*
X222905676Y-57769942D01*
X222905676Y-57769942D02*
X222905676Y-57531847D01*
X222905676Y-57531847D02*
X222953295Y-57436609D01*
X222953295Y-57436609D02*
X223000914Y-57388990D01*
X223000914Y-57388990D02*
X223096152Y-57341371D01*
X223096152Y-57341371D02*
X223286628Y-57341371D01*
X223286628Y-57341371D02*
X223381866Y-57388990D01*
X223381866Y-57388990D02*
X223429485Y-57436609D01*
X223429485Y-57436609D02*
X223477104Y-57531847D01*
X222572342Y-56960419D02*
X221953295Y-56960419D01*
X221953295Y-56960419D02*
X222286628Y-57341371D01*
X222286628Y-57341371D02*
X222143771Y-57341371D01*
X222143771Y-57341371D02*
X222048533Y-57388990D01*
X222048533Y-57388990D02*
X222000914Y-57436609D01*
X222000914Y-57436609D02*
X221953295Y-57531847D01*
X221953295Y-57531847D02*
X221953295Y-57769942D01*
X221953295Y-57769942D02*
X222000914Y-57865180D01*
X222000914Y-57865180D02*
X222048533Y-57912800D01*
X222048533Y-57912800D02*
X222143771Y-57960419D01*
X222143771Y-57960419D02*
X222429485Y-57960419D01*
X222429485Y-57960419D02*
X222524723Y-57912800D01*
X222524723Y-57912800D02*
X222572342Y-57865180D01*
X97112057Y-112316419D02*
X97445390Y-111840228D01*
X97683485Y-112316419D02*
X97683485Y-111316419D01*
X97683485Y-111316419D02*
X97302533Y-111316419D01*
X97302533Y-111316419D02*
X97207295Y-111364038D01*
X97207295Y-111364038D02*
X97159676Y-111411657D01*
X97159676Y-111411657D02*
X97112057Y-111506895D01*
X97112057Y-111506895D02*
X97112057Y-111649752D01*
X97112057Y-111649752D02*
X97159676Y-111744990D01*
X97159676Y-111744990D02*
X97207295Y-111792609D01*
X97207295Y-111792609D02*
X97302533Y-111840228D01*
X97302533Y-111840228D02*
X97683485Y-111840228D01*
X96731104Y-111411657D02*
X96683485Y-111364038D01*
X96683485Y-111364038D02*
X96588247Y-111316419D01*
X96588247Y-111316419D02*
X96350152Y-111316419D01*
X96350152Y-111316419D02*
X96254914Y-111364038D01*
X96254914Y-111364038D02*
X96207295Y-111411657D01*
X96207295Y-111411657D02*
X96159676Y-111506895D01*
X96159676Y-111506895D02*
X96159676Y-111602133D01*
X96159676Y-111602133D02*
X96207295Y-111744990D01*
X96207295Y-111744990D02*
X96778723Y-112316419D01*
X96778723Y-112316419D02*
X96159676Y-112316419D01*
X95683485Y-112316419D02*
X95493009Y-112316419D01*
X95493009Y-112316419D02*
X95397771Y-112268800D01*
X95397771Y-112268800D02*
X95350152Y-112221180D01*
X95350152Y-112221180D02*
X95254914Y-112078323D01*
X95254914Y-112078323D02*
X95207295Y-111887847D01*
X95207295Y-111887847D02*
X95207295Y-111506895D01*
X95207295Y-111506895D02*
X95254914Y-111411657D01*
X95254914Y-111411657D02*
X95302533Y-111364038D01*
X95302533Y-111364038D02*
X95397771Y-111316419D01*
X95397771Y-111316419D02*
X95588247Y-111316419D01*
X95588247Y-111316419D02*
X95683485Y-111364038D01*
X95683485Y-111364038D02*
X95731104Y-111411657D01*
X95731104Y-111411657D02*
X95778723Y-111506895D01*
X95778723Y-111506895D02*
X95778723Y-111744990D01*
X95778723Y-111744990D02*
X95731104Y-111840228D01*
X95731104Y-111840228D02*
X95683485Y-111887847D01*
X95683485Y-111887847D02*
X95588247Y-111935466D01*
X95588247Y-111935466D02*
X95397771Y-111935466D01*
X95397771Y-111935466D02*
X95302533Y-111887847D01*
X95302533Y-111887847D02*
X95254914Y-111840228D01*
X95254914Y-111840228D02*
X95207295Y-111744990D01*
X97278723Y-114669219D02*
X96659676Y-114669219D01*
X96659676Y-114669219D02*
X96993009Y-115050171D01*
X96993009Y-115050171D02*
X96850152Y-115050171D01*
X96850152Y-115050171D02*
X96754914Y-115097790D01*
X96754914Y-115097790D02*
X96707295Y-115145409D01*
X96707295Y-115145409D02*
X96659676Y-115240647D01*
X96659676Y-115240647D02*
X96659676Y-115478742D01*
X96659676Y-115478742D02*
X96707295Y-115573980D01*
X96707295Y-115573980D02*
X96754914Y-115621600D01*
X96754914Y-115621600D02*
X96850152Y-115669219D01*
X96850152Y-115669219D02*
X97135866Y-115669219D01*
X97135866Y-115669219D02*
X97231104Y-115621600D01*
X97231104Y-115621600D02*
X97278723Y-115573980D01*
X96326342Y-114669219D02*
X95707295Y-114669219D01*
X95707295Y-114669219D02*
X96040628Y-115050171D01*
X96040628Y-115050171D02*
X95897771Y-115050171D01*
X95897771Y-115050171D02*
X95802533Y-115097790D01*
X95802533Y-115097790D02*
X95754914Y-115145409D01*
X95754914Y-115145409D02*
X95707295Y-115240647D01*
X95707295Y-115240647D02*
X95707295Y-115478742D01*
X95707295Y-115478742D02*
X95754914Y-115573980D01*
X95754914Y-115573980D02*
X95802533Y-115621600D01*
X95802533Y-115621600D02*
X95897771Y-115669219D01*
X95897771Y-115669219D02*
X96183485Y-115669219D01*
X96183485Y-115669219D02*
X96278723Y-115621600D01*
X96278723Y-115621600D02*
X96326342Y-115573980D01*
X131967266Y-92925619D02*
X132300599Y-92449428D01*
X132538694Y-92925619D02*
X132538694Y-91925619D01*
X132538694Y-91925619D02*
X132157742Y-91925619D01*
X132157742Y-91925619D02*
X132062504Y-91973238D01*
X132062504Y-91973238D02*
X132014885Y-92020857D01*
X132014885Y-92020857D02*
X131967266Y-92116095D01*
X131967266Y-92116095D02*
X131967266Y-92258952D01*
X131967266Y-92258952D02*
X132014885Y-92354190D01*
X132014885Y-92354190D02*
X132062504Y-92401809D01*
X132062504Y-92401809D02*
X132157742Y-92449428D01*
X132157742Y-92449428D02*
X132538694Y-92449428D01*
X131014885Y-92925619D02*
X131586313Y-92925619D01*
X131300599Y-92925619D02*
X131300599Y-91925619D01*
X131300599Y-91925619D02*
X131395837Y-92068476D01*
X131395837Y-92068476D02*
X131491075Y-92163714D01*
X131491075Y-92163714D02*
X131586313Y-92211333D01*
X132491076Y-95408552D02*
X132491076Y-96075219D01*
X132729171Y-95027600D02*
X132967266Y-95741885D01*
X132967266Y-95741885D02*
X132348219Y-95741885D01*
X131967266Y-96075219D02*
X131967266Y-95075219D01*
X131872028Y-95694266D02*
X131586314Y-96075219D01*
X131586314Y-95408552D02*
X131967266Y-95789504D01*
X131252980Y-95075219D02*
X130586314Y-95075219D01*
X130586314Y-95075219D02*
X131014885Y-96075219D01*
X220048057Y-58570019D02*
X220381390Y-58093828D01*
X220619485Y-58570019D02*
X220619485Y-57570019D01*
X220619485Y-57570019D02*
X220238533Y-57570019D01*
X220238533Y-57570019D02*
X220143295Y-57617638D01*
X220143295Y-57617638D02*
X220095676Y-57665257D01*
X220095676Y-57665257D02*
X220048057Y-57760495D01*
X220048057Y-57760495D02*
X220048057Y-57903352D01*
X220048057Y-57903352D02*
X220095676Y-57998590D01*
X220095676Y-57998590D02*
X220143295Y-58046209D01*
X220143295Y-58046209D02*
X220238533Y-58093828D01*
X220238533Y-58093828D02*
X220619485Y-58093828D01*
X219714723Y-57570019D02*
X219095676Y-57570019D01*
X219095676Y-57570019D02*
X219429009Y-57950971D01*
X219429009Y-57950971D02*
X219286152Y-57950971D01*
X219286152Y-57950971D02*
X219190914Y-57998590D01*
X219190914Y-57998590D02*
X219143295Y-58046209D01*
X219143295Y-58046209D02*
X219095676Y-58141447D01*
X219095676Y-58141447D02*
X219095676Y-58379542D01*
X219095676Y-58379542D02*
X219143295Y-58474780D01*
X219143295Y-58474780D02*
X219190914Y-58522400D01*
X219190914Y-58522400D02*
X219286152Y-58570019D01*
X219286152Y-58570019D02*
X219571866Y-58570019D01*
X219571866Y-58570019D02*
X219667104Y-58522400D01*
X219667104Y-58522400D02*
X219714723Y-58474780D01*
X218476628Y-57570019D02*
X218381390Y-57570019D01*
X218381390Y-57570019D02*
X218286152Y-57617638D01*
X218286152Y-57617638D02*
X218238533Y-57665257D01*
X218238533Y-57665257D02*
X218190914Y-57760495D01*
X218190914Y-57760495D02*
X218143295Y-57950971D01*
X218143295Y-57950971D02*
X218143295Y-58189066D01*
X218143295Y-58189066D02*
X218190914Y-58379542D01*
X218190914Y-58379542D02*
X218238533Y-58474780D01*
X218238533Y-58474780D02*
X218286152Y-58522400D01*
X218286152Y-58522400D02*
X218381390Y-58570019D01*
X218381390Y-58570019D02*
X218476628Y-58570019D01*
X218476628Y-58570019D02*
X218571866Y-58522400D01*
X218571866Y-58522400D02*
X218619485Y-58474780D01*
X218619485Y-58474780D02*
X218667104Y-58379542D01*
X218667104Y-58379542D02*
X218714723Y-58189066D01*
X218714723Y-58189066D02*
X218714723Y-57950971D01*
X218714723Y-57950971D02*
X218667104Y-57760495D01*
X218667104Y-57760495D02*
X218619485Y-57665257D01*
X218619485Y-57665257D02*
X218571866Y-57617638D01*
X218571866Y-57617638D02*
X218476628Y-57570019D01*
X220568494Y-59789219D02*
X220378018Y-59789219D01*
X220378018Y-59789219D02*
X220282780Y-59741600D01*
X220282780Y-59741600D02*
X220235161Y-59693980D01*
X220235161Y-59693980D02*
X220139923Y-59551123D01*
X220139923Y-59551123D02*
X220092304Y-59360647D01*
X220092304Y-59360647D02*
X220092304Y-58979695D01*
X220092304Y-58979695D02*
X220139923Y-58884457D01*
X220139923Y-58884457D02*
X220187542Y-58836838D01*
X220187542Y-58836838D02*
X220282780Y-58789219D01*
X220282780Y-58789219D02*
X220473256Y-58789219D01*
X220473256Y-58789219D02*
X220568494Y-58836838D01*
X220568494Y-58836838D02*
X220616113Y-58884457D01*
X220616113Y-58884457D02*
X220663732Y-58979695D01*
X220663732Y-58979695D02*
X220663732Y-59217790D01*
X220663732Y-59217790D02*
X220616113Y-59313028D01*
X220616113Y-59313028D02*
X220568494Y-59360647D01*
X220568494Y-59360647D02*
X220473256Y-59408266D01*
X220473256Y-59408266D02*
X220282780Y-59408266D01*
X220282780Y-59408266D02*
X220187542Y-59360647D01*
X220187542Y-59360647D02*
X220139923Y-59313028D01*
X220139923Y-59313028D02*
X220092304Y-59217790D01*
X219663732Y-59789219D02*
X219663732Y-58789219D01*
X219568494Y-59408266D02*
X219282780Y-59789219D01*
X219282780Y-59122552D02*
X219663732Y-59503504D01*
X217901827Y-58789219D02*
X217806589Y-58789219D01*
X217806589Y-58789219D02*
X217711351Y-58836838D01*
X217711351Y-58836838D02*
X217663732Y-58884457D01*
X217663732Y-58884457D02*
X217616113Y-58979695D01*
X217616113Y-58979695D02*
X217568494Y-59170171D01*
X217568494Y-59170171D02*
X217568494Y-59408266D01*
X217568494Y-59408266D02*
X217616113Y-59598742D01*
X217616113Y-59598742D02*
X217663732Y-59693980D01*
X217663732Y-59693980D02*
X217711351Y-59741600D01*
X217711351Y-59741600D02*
X217806589Y-59789219D01*
X217806589Y-59789219D02*
X217901827Y-59789219D01*
X217901827Y-59789219D02*
X217997065Y-59741600D01*
X217997065Y-59741600D02*
X218044684Y-59693980D01*
X218044684Y-59693980D02*
X218092303Y-59598742D01*
X218092303Y-59598742D02*
X218139922Y-59408266D01*
X218139922Y-59408266D02*
X218139922Y-59170171D01*
X218139922Y-59170171D02*
X218092303Y-58979695D01*
X218092303Y-58979695D02*
X218044684Y-58884457D01*
X218044684Y-58884457D02*
X217997065Y-58836838D01*
X217997065Y-58836838D02*
X217901827Y-58789219D01*
X217139922Y-59693980D02*
X217092303Y-59741600D01*
X217092303Y-59741600D02*
X217139922Y-59789219D01*
X217139922Y-59789219D02*
X217187541Y-59741600D01*
X217187541Y-59741600D02*
X217139922Y-59693980D01*
X217139922Y-59693980D02*
X217139922Y-59789219D01*
X216139923Y-59789219D02*
X216711351Y-59789219D01*
X216425637Y-59789219D02*
X216425637Y-58789219D01*
X216425637Y-58789219D02*
X216520875Y-58932076D01*
X216520875Y-58932076D02*
X216616113Y-59027314D01*
X216616113Y-59027314D02*
X216711351Y-59074933D01*
X215758970Y-59789219D02*
X214997066Y-58789219D01*
X215616113Y-58789219D02*
X215520875Y-58836838D01*
X215520875Y-58836838D02*
X215473256Y-58932076D01*
X215473256Y-58932076D02*
X215520875Y-59027314D01*
X215520875Y-59027314D02*
X215616113Y-59074933D01*
X215616113Y-59074933D02*
X215711351Y-59027314D01*
X215711351Y-59027314D02*
X215758970Y-58932076D01*
X215758970Y-58932076D02*
X215711351Y-58836838D01*
X215711351Y-58836838D02*
X215616113Y-58789219D01*
X215044685Y-59741600D02*
X214997066Y-59646361D01*
X214997066Y-59646361D02*
X215044685Y-59551123D01*
X215044685Y-59551123D02*
X215139923Y-59503504D01*
X215139923Y-59503504D02*
X215235161Y-59551123D01*
X215235161Y-59551123D02*
X215282780Y-59646361D01*
X215282780Y-59646361D02*
X215235161Y-59741600D01*
X215235161Y-59741600D02*
X215139923Y-59789219D01*
X215139923Y-59789219D02*
X215044685Y-59741600D01*
X212783657Y-55268019D02*
X213116990Y-54791828D01*
X213355085Y-55268019D02*
X213355085Y-54268019D01*
X213355085Y-54268019D02*
X212974133Y-54268019D01*
X212974133Y-54268019D02*
X212878895Y-54315638D01*
X212878895Y-54315638D02*
X212831276Y-54363257D01*
X212831276Y-54363257D02*
X212783657Y-54458495D01*
X212783657Y-54458495D02*
X212783657Y-54601352D01*
X212783657Y-54601352D02*
X212831276Y-54696590D01*
X212831276Y-54696590D02*
X212878895Y-54744209D01*
X212878895Y-54744209D02*
X212974133Y-54791828D01*
X212974133Y-54791828D02*
X213355085Y-54791828D01*
X212402704Y-54363257D02*
X212355085Y-54315638D01*
X212355085Y-54315638D02*
X212259847Y-54268019D01*
X212259847Y-54268019D02*
X212021752Y-54268019D01*
X212021752Y-54268019D02*
X211926514Y-54315638D01*
X211926514Y-54315638D02*
X211878895Y-54363257D01*
X211878895Y-54363257D02*
X211831276Y-54458495D01*
X211831276Y-54458495D02*
X211831276Y-54553733D01*
X211831276Y-54553733D02*
X211878895Y-54696590D01*
X211878895Y-54696590D02*
X212450323Y-55268019D01*
X212450323Y-55268019D02*
X211831276Y-55268019D01*
X211450323Y-54363257D02*
X211402704Y-54315638D01*
X211402704Y-54315638D02*
X211307466Y-54268019D01*
X211307466Y-54268019D02*
X211069371Y-54268019D01*
X211069371Y-54268019D02*
X210974133Y-54315638D01*
X210974133Y-54315638D02*
X210926514Y-54363257D01*
X210926514Y-54363257D02*
X210878895Y-54458495D01*
X210878895Y-54458495D02*
X210878895Y-54553733D01*
X210878895Y-54553733D02*
X210926514Y-54696590D01*
X210926514Y-54696590D02*
X211497942Y-55268019D01*
X211497942Y-55268019D02*
X210878895Y-55268019D01*
X216301294Y-56588819D02*
X216110818Y-56588819D01*
X216110818Y-56588819D02*
X216015580Y-56541200D01*
X216015580Y-56541200D02*
X215967961Y-56493580D01*
X215967961Y-56493580D02*
X215872723Y-56350723D01*
X215872723Y-56350723D02*
X215825104Y-56160247D01*
X215825104Y-56160247D02*
X215825104Y-55779295D01*
X215825104Y-55779295D02*
X215872723Y-55684057D01*
X215872723Y-55684057D02*
X215920342Y-55636438D01*
X215920342Y-55636438D02*
X216015580Y-55588819D01*
X216015580Y-55588819D02*
X216206056Y-55588819D01*
X216206056Y-55588819D02*
X216301294Y-55636438D01*
X216301294Y-55636438D02*
X216348913Y-55684057D01*
X216348913Y-55684057D02*
X216396532Y-55779295D01*
X216396532Y-55779295D02*
X216396532Y-56017390D01*
X216396532Y-56017390D02*
X216348913Y-56112628D01*
X216348913Y-56112628D02*
X216301294Y-56160247D01*
X216301294Y-56160247D02*
X216206056Y-56207866D01*
X216206056Y-56207866D02*
X216015580Y-56207866D01*
X216015580Y-56207866D02*
X215920342Y-56160247D01*
X215920342Y-56160247D02*
X215872723Y-56112628D01*
X215872723Y-56112628D02*
X215825104Y-56017390D01*
X215396532Y-56588819D02*
X215396532Y-55588819D01*
X215301294Y-56207866D02*
X215015580Y-56588819D01*
X215015580Y-55922152D02*
X215396532Y-56303104D01*
X213634627Y-55588819D02*
X213539389Y-55588819D01*
X213539389Y-55588819D02*
X213444151Y-55636438D01*
X213444151Y-55636438D02*
X213396532Y-55684057D01*
X213396532Y-55684057D02*
X213348913Y-55779295D01*
X213348913Y-55779295D02*
X213301294Y-55969771D01*
X213301294Y-55969771D02*
X213301294Y-56207866D01*
X213301294Y-56207866D02*
X213348913Y-56398342D01*
X213348913Y-56398342D02*
X213396532Y-56493580D01*
X213396532Y-56493580D02*
X213444151Y-56541200D01*
X213444151Y-56541200D02*
X213539389Y-56588819D01*
X213539389Y-56588819D02*
X213634627Y-56588819D01*
X213634627Y-56588819D02*
X213729865Y-56541200D01*
X213729865Y-56541200D02*
X213777484Y-56493580D01*
X213777484Y-56493580D02*
X213825103Y-56398342D01*
X213825103Y-56398342D02*
X213872722Y-56207866D01*
X213872722Y-56207866D02*
X213872722Y-55969771D01*
X213872722Y-55969771D02*
X213825103Y-55779295D01*
X213825103Y-55779295D02*
X213777484Y-55684057D01*
X213777484Y-55684057D02*
X213729865Y-55636438D01*
X213729865Y-55636438D02*
X213634627Y-55588819D01*
X212872722Y-56493580D02*
X212825103Y-56541200D01*
X212825103Y-56541200D02*
X212872722Y-56588819D01*
X212872722Y-56588819D02*
X212920341Y-56541200D01*
X212920341Y-56541200D02*
X212872722Y-56493580D01*
X212872722Y-56493580D02*
X212872722Y-56588819D01*
X211872723Y-56588819D02*
X212444151Y-56588819D01*
X212158437Y-56588819D02*
X212158437Y-55588819D01*
X212158437Y-55588819D02*
X212253675Y-55731676D01*
X212253675Y-55731676D02*
X212348913Y-55826914D01*
X212348913Y-55826914D02*
X212444151Y-55874533D01*
X211491770Y-56588819D02*
X210729866Y-55588819D01*
X211348913Y-55588819D02*
X211253675Y-55636438D01*
X211253675Y-55636438D02*
X211206056Y-55731676D01*
X211206056Y-55731676D02*
X211253675Y-55826914D01*
X211253675Y-55826914D02*
X211348913Y-55874533D01*
X211348913Y-55874533D02*
X211444151Y-55826914D01*
X211444151Y-55826914D02*
X211491770Y-55731676D01*
X211491770Y-55731676D02*
X211444151Y-55636438D01*
X211444151Y-55636438D02*
X211348913Y-55588819D01*
X210777485Y-56541200D02*
X210729866Y-56445961D01*
X210729866Y-56445961D02*
X210777485Y-56350723D01*
X210777485Y-56350723D02*
X210872723Y-56303104D01*
X210872723Y-56303104D02*
X210967961Y-56350723D01*
X210967961Y-56350723D02*
X211015580Y-56445961D01*
X211015580Y-56445961D02*
X210967961Y-56541200D01*
X210967961Y-56541200D02*
X210872723Y-56588819D01*
X210872723Y-56588819D02*
X210777485Y-56541200D01*
X228385523Y-48781619D02*
X228385523Y-49495904D01*
X228385523Y-49495904D02*
X228433142Y-49638761D01*
X228433142Y-49638761D02*
X228528380Y-49734000D01*
X228528380Y-49734000D02*
X228671237Y-49781619D01*
X228671237Y-49781619D02*
X228766475Y-49781619D01*
X227909332Y-49781619D02*
X227909332Y-48781619D01*
X227909332Y-48781619D02*
X227528380Y-48781619D01*
X227528380Y-48781619D02*
X227433142Y-48829238D01*
X227433142Y-48829238D02*
X227385523Y-48876857D01*
X227385523Y-48876857D02*
X227337904Y-48972095D01*
X227337904Y-48972095D02*
X227337904Y-49114952D01*
X227337904Y-49114952D02*
X227385523Y-49210190D01*
X227385523Y-49210190D02*
X227433142Y-49257809D01*
X227433142Y-49257809D02*
X227528380Y-49305428D01*
X227528380Y-49305428D02*
X227909332Y-49305428D01*
X226385523Y-49781619D02*
X226956951Y-49781619D01*
X226671237Y-49781619D02*
X226671237Y-48781619D01*
X226671237Y-48781619D02*
X226766475Y-48924476D01*
X226766475Y-48924476D02*
X226861713Y-49019714D01*
X226861713Y-49019714D02*
X226956951Y-49067333D01*
X226004570Y-48876857D02*
X225956951Y-48829238D01*
X225956951Y-48829238D02*
X225861713Y-48781619D01*
X225861713Y-48781619D02*
X225623618Y-48781619D01*
X225623618Y-48781619D02*
X225528380Y-48829238D01*
X225528380Y-48829238D02*
X225480761Y-48876857D01*
X225480761Y-48876857D02*
X225433142Y-48972095D01*
X225433142Y-48972095D02*
X225433142Y-49067333D01*
X225433142Y-49067333D02*
X225480761Y-49210190D01*
X225480761Y-49210190D02*
X226052189Y-49781619D01*
X226052189Y-49781619D02*
X225433142Y-49781619D01*
X226937219Y-49970267D02*
X226937219Y-50589314D01*
X226937219Y-50589314D02*
X227318171Y-50255981D01*
X227318171Y-50255981D02*
X227318171Y-50398838D01*
X227318171Y-50398838D02*
X227365790Y-50494076D01*
X227365790Y-50494076D02*
X227413409Y-50541695D01*
X227413409Y-50541695D02*
X227508647Y-50589314D01*
X227508647Y-50589314D02*
X227746742Y-50589314D01*
X227746742Y-50589314D02*
X227841980Y-50541695D01*
X227841980Y-50541695D02*
X227889600Y-50494076D01*
X227889600Y-50494076D02*
X227937219Y-50398838D01*
X227937219Y-50398838D02*
X227937219Y-50113124D01*
X227937219Y-50113124D02*
X227889600Y-50017886D01*
X227889600Y-50017886D02*
X227841980Y-49970267D01*
X227937219Y-55789314D02*
X227937219Y-55217886D01*
X227937219Y-55503600D02*
X226937219Y-55503600D01*
X226937219Y-55503600D02*
X227080076Y-55408362D01*
X227080076Y-55408362D02*
X227175314Y-55313124D01*
X227175314Y-55313124D02*
X227222933Y-55217886D01*
X97289857Y-50050419D02*
X97623190Y-49574228D01*
X97861285Y-50050419D02*
X97861285Y-49050419D01*
X97861285Y-49050419D02*
X97480333Y-49050419D01*
X97480333Y-49050419D02*
X97385095Y-49098038D01*
X97385095Y-49098038D02*
X97337476Y-49145657D01*
X97337476Y-49145657D02*
X97289857Y-49240895D01*
X97289857Y-49240895D02*
X97289857Y-49383752D01*
X97289857Y-49383752D02*
X97337476Y-49478990D01*
X97337476Y-49478990D02*
X97385095Y-49526609D01*
X97385095Y-49526609D02*
X97480333Y-49574228D01*
X97480333Y-49574228D02*
X97861285Y-49574228D01*
X96337476Y-50050419D02*
X96908904Y-50050419D01*
X96623190Y-50050419D02*
X96623190Y-49050419D01*
X96623190Y-49050419D02*
X96718428Y-49193276D01*
X96718428Y-49193276D02*
X96813666Y-49288514D01*
X96813666Y-49288514D02*
X96908904Y-49336133D01*
X96004142Y-49050419D02*
X95337476Y-49050419D01*
X95337476Y-49050419D02*
X95766047Y-50050419D01*
X97286676Y-52533352D02*
X97286676Y-53200019D01*
X97524771Y-52152400D02*
X97762866Y-52866685D01*
X97762866Y-52866685D02*
X97143819Y-52866685D01*
X96762866Y-53200019D02*
X96762866Y-52200019D01*
X96667628Y-52819066D02*
X96381914Y-53200019D01*
X96381914Y-52533352D02*
X96762866Y-52914304D01*
X96048580Y-52200019D02*
X95381914Y-52200019D01*
X95381914Y-52200019D02*
X95810485Y-53200019D01*
X223926304Y-49696019D02*
X223926304Y-50505542D01*
X223926304Y-50505542D02*
X223878685Y-50600780D01*
X223878685Y-50600780D02*
X223831066Y-50648400D01*
X223831066Y-50648400D02*
X223735828Y-50696019D01*
X223735828Y-50696019D02*
X223545352Y-50696019D01*
X223545352Y-50696019D02*
X223450114Y-50648400D01*
X223450114Y-50648400D02*
X223402495Y-50600780D01*
X223402495Y-50600780D02*
X223354876Y-50505542D01*
X223354876Y-50505542D02*
X223354876Y-49696019D01*
X222354876Y-50696019D02*
X222926304Y-50696019D01*
X222640590Y-50696019D02*
X222640590Y-49696019D01*
X222640590Y-49696019D02*
X222735828Y-49838876D01*
X222735828Y-49838876D02*
X222831066Y-49934114D01*
X222831066Y-49934114D02*
X222926304Y-49981733D01*
X212834457Y-49883219D02*
X213167790Y-49407028D01*
X213405885Y-49883219D02*
X213405885Y-48883219D01*
X213405885Y-48883219D02*
X213024933Y-48883219D01*
X213024933Y-48883219D02*
X212929695Y-48930838D01*
X212929695Y-48930838D02*
X212882076Y-48978457D01*
X212882076Y-48978457D02*
X212834457Y-49073695D01*
X212834457Y-49073695D02*
X212834457Y-49216552D01*
X212834457Y-49216552D02*
X212882076Y-49311790D01*
X212882076Y-49311790D02*
X212929695Y-49359409D01*
X212929695Y-49359409D02*
X213024933Y-49407028D01*
X213024933Y-49407028D02*
X213405885Y-49407028D01*
X212453504Y-48978457D02*
X212405885Y-48930838D01*
X212405885Y-48930838D02*
X212310647Y-48883219D01*
X212310647Y-48883219D02*
X212072552Y-48883219D01*
X212072552Y-48883219D02*
X211977314Y-48930838D01*
X211977314Y-48930838D02*
X211929695Y-48978457D01*
X211929695Y-48978457D02*
X211882076Y-49073695D01*
X211882076Y-49073695D02*
X211882076Y-49168933D01*
X211882076Y-49168933D02*
X211929695Y-49311790D01*
X211929695Y-49311790D02*
X212501123Y-49883219D01*
X212501123Y-49883219D02*
X211882076Y-49883219D01*
X211024933Y-49216552D02*
X211024933Y-49883219D01*
X211263028Y-48835600D02*
X211501123Y-49549885D01*
X211501123Y-49549885D02*
X210882076Y-49549885D01*
X212878704Y-51204019D02*
X213450132Y-51204019D01*
X213164418Y-51204019D02*
X213164418Y-50204019D01*
X213164418Y-50204019D02*
X213259656Y-50346876D01*
X213259656Y-50346876D02*
X213354894Y-50442114D01*
X213354894Y-50442114D02*
X213450132Y-50489733D01*
X212450132Y-51204019D02*
X212450132Y-50204019D01*
X212354894Y-50823066D02*
X212069180Y-51204019D01*
X212069180Y-50537352D02*
X212450132Y-50918304D01*
X210688227Y-50204019D02*
X210592989Y-50204019D01*
X210592989Y-50204019D02*
X210497751Y-50251638D01*
X210497751Y-50251638D02*
X210450132Y-50299257D01*
X210450132Y-50299257D02*
X210402513Y-50394495D01*
X210402513Y-50394495D02*
X210354894Y-50584971D01*
X210354894Y-50584971D02*
X210354894Y-50823066D01*
X210354894Y-50823066D02*
X210402513Y-51013542D01*
X210402513Y-51013542D02*
X210450132Y-51108780D01*
X210450132Y-51108780D02*
X210497751Y-51156400D01*
X210497751Y-51156400D02*
X210592989Y-51204019D01*
X210592989Y-51204019D02*
X210688227Y-51204019D01*
X210688227Y-51204019D02*
X210783465Y-51156400D01*
X210783465Y-51156400D02*
X210831084Y-51108780D01*
X210831084Y-51108780D02*
X210878703Y-51013542D01*
X210878703Y-51013542D02*
X210926322Y-50823066D01*
X210926322Y-50823066D02*
X210926322Y-50584971D01*
X210926322Y-50584971D02*
X210878703Y-50394495D01*
X210878703Y-50394495D02*
X210831084Y-50299257D01*
X210831084Y-50299257D02*
X210783465Y-50251638D01*
X210783465Y-50251638D02*
X210688227Y-50204019D01*
X209926322Y-51108780D02*
X209878703Y-51156400D01*
X209878703Y-51156400D02*
X209926322Y-51204019D01*
X209926322Y-51204019D02*
X209973941Y-51156400D01*
X209973941Y-51156400D02*
X209926322Y-51108780D01*
X209926322Y-51108780D02*
X209926322Y-51204019D01*
X208926323Y-51204019D02*
X209497751Y-51204019D01*
X209212037Y-51204019D02*
X209212037Y-50204019D01*
X209212037Y-50204019D02*
X209307275Y-50346876D01*
X209307275Y-50346876D02*
X209402513Y-50442114D01*
X209402513Y-50442114D02*
X209497751Y-50489733D01*
X208545370Y-51204019D02*
X207783466Y-50204019D01*
X208402513Y-50204019D02*
X208307275Y-50251638D01*
X208307275Y-50251638D02*
X208259656Y-50346876D01*
X208259656Y-50346876D02*
X208307275Y-50442114D01*
X208307275Y-50442114D02*
X208402513Y-50489733D01*
X208402513Y-50489733D02*
X208497751Y-50442114D01*
X208497751Y-50442114D02*
X208545370Y-50346876D01*
X208545370Y-50346876D02*
X208497751Y-50251638D01*
X208497751Y-50251638D02*
X208402513Y-50204019D01*
X207831085Y-51156400D02*
X207783466Y-51061161D01*
X207783466Y-51061161D02*
X207831085Y-50965923D01*
X207831085Y-50965923D02*
X207926323Y-50918304D01*
X207926323Y-50918304D02*
X208021561Y-50965923D01*
X208021561Y-50965923D02*
X208069180Y-51061161D01*
X208069180Y-51061161D02*
X208021561Y-51156400D01*
X208021561Y-51156400D02*
X207926323Y-51204019D01*
X207926323Y-51204019D02*
X207831085Y-51156400D01*
X223096057Y-46124019D02*
X223429390Y-45647828D01*
X223667485Y-46124019D02*
X223667485Y-45124019D01*
X223667485Y-45124019D02*
X223286533Y-45124019D01*
X223286533Y-45124019D02*
X223191295Y-45171638D01*
X223191295Y-45171638D02*
X223143676Y-45219257D01*
X223143676Y-45219257D02*
X223096057Y-45314495D01*
X223096057Y-45314495D02*
X223096057Y-45457352D01*
X223096057Y-45457352D02*
X223143676Y-45552590D01*
X223143676Y-45552590D02*
X223191295Y-45600209D01*
X223191295Y-45600209D02*
X223286533Y-45647828D01*
X223286533Y-45647828D02*
X223667485Y-45647828D01*
X222143676Y-46124019D02*
X222715104Y-46124019D01*
X222429390Y-46124019D02*
X222429390Y-45124019D01*
X222429390Y-45124019D02*
X222524628Y-45266876D01*
X222524628Y-45266876D02*
X222619866Y-45362114D01*
X222619866Y-45362114D02*
X222715104Y-45409733D01*
X221762723Y-45219257D02*
X221715104Y-45171638D01*
X221715104Y-45171638D02*
X221619866Y-45124019D01*
X221619866Y-45124019D02*
X221381771Y-45124019D01*
X221381771Y-45124019D02*
X221286533Y-45171638D01*
X221286533Y-45171638D02*
X221238914Y-45219257D01*
X221238914Y-45219257D02*
X221191295Y-45314495D01*
X221191295Y-45314495D02*
X221191295Y-45409733D01*
X221191295Y-45409733D02*
X221238914Y-45552590D01*
X221238914Y-45552590D02*
X221810342Y-46124019D01*
X221810342Y-46124019D02*
X221191295Y-46124019D01*
X223238913Y-47444819D02*
X223238913Y-46444819D01*
X223238913Y-46444819D02*
X222667485Y-47444819D01*
X222667485Y-47444819D02*
X222667485Y-46444819D01*
X221619866Y-47349580D02*
X221667485Y-47397200D01*
X221667485Y-47397200D02*
X221810342Y-47444819D01*
X221810342Y-47444819D02*
X221905580Y-47444819D01*
X221905580Y-47444819D02*
X222048437Y-47397200D01*
X222048437Y-47397200D02*
X222143675Y-47301961D01*
X222143675Y-47301961D02*
X222191294Y-47206723D01*
X222191294Y-47206723D02*
X222238913Y-47016247D01*
X222238913Y-47016247D02*
X222238913Y-46873390D01*
X222238913Y-46873390D02*
X222191294Y-46682914D01*
X222191294Y-46682914D02*
X222143675Y-46587676D01*
X222143675Y-46587676D02*
X222048437Y-46492438D01*
X222048437Y-46492438D02*
X221905580Y-46444819D01*
X221905580Y-46444819D02*
X221810342Y-46444819D01*
X221810342Y-46444819D02*
X221667485Y-46492438D01*
X221667485Y-46492438D02*
X221619866Y-46540057D01*
D14*
X241325000Y-78320900D02*
X241325000Y-32600900D01*
X241325000Y-32600900D02*
X238785000Y-35140900D01*
X241325000Y-32600900D02*
X195605000Y-32600900D01*
X195605000Y-78320900D02*
X241325000Y-78320900D01*
X195605000Y-32600900D02*
X195605000Y-78320900D01*
D10*
X247693548Y-114504800D02*
X248216052Y-114504800D01*
X247693548Y-115974800D02*
X248216052Y-115974800D01*
X162307536Y-47946200D02*
X162761664Y-47946200D01*
X162307536Y-49416200D02*
X162761664Y-49416200D01*
X203589000Y-107546000D02*
X204589000Y-107546000D01*
X203589000Y-103306000D02*
X204589000Y-103306000D01*
X244931000Y-101766000D02*
X243931000Y-101766000D01*
X244931000Y-106006000D02*
X243931000Y-106006000D01*
X187286000Y-53586000D02*
X187286000Y-52586000D01*
X183046000Y-53586000D02*
X183046000Y-52586000D01*
X243837000Y-34628000D02*
X244837000Y-34628000D01*
X243837000Y-30388000D02*
X244837000Y-30388000D01*
X185222000Y-68492000D02*
X184222000Y-68492000D01*
X185222000Y-72732000D02*
X184222000Y-72732000D01*
X230605000Y-44802248D02*
X230605000Y-45324752D01*
X229135000Y-44802248D02*
X229135000Y-45324752D01*
X104493448Y-109475600D02*
X105015952Y-109475600D01*
X104493448Y-110945600D02*
X105015952Y-110945600D01*
X207618000Y-52985936D02*
X207618000Y-53440064D01*
X206148000Y-52985936D02*
X206148000Y-53440064D01*
X209370664Y-47115400D02*
X208916536Y-47115400D01*
X209370664Y-45645400D02*
X208916536Y-45645400D01*
X213587064Y-44677000D02*
X213132936Y-44677000D01*
X213587064Y-43207000D02*
X213132936Y-43207000D01*
X113485664Y-110935000D02*
X113031536Y-110935000D01*
X113485664Y-109465000D02*
X113031536Y-109465000D01*
X209415000Y-103306000D02*
X208415000Y-103306000D01*
X209415000Y-107546000D02*
X208415000Y-107546000D01*
X138899000Y-84701000D02*
X138899000Y-83701000D01*
X134659000Y-84701000D02*
X134659000Y-83701000D01*
X161442800Y-98383200D02*
X161442800Y-99383200D01*
X165682800Y-98383200D02*
X165682800Y-99383200D01*
X150134400Y-98363000D02*
X150134400Y-99363000D01*
X154374400Y-98363000D02*
X154374400Y-99363000D01*
X144342000Y-98363000D02*
X144342000Y-99363000D01*
X148582000Y-98363000D02*
X148582000Y-99363000D01*
X229135000Y-49156252D02*
X229135000Y-48633748D01*
X230605000Y-49156252D02*
X230605000Y-48633748D01*
X104493448Y-105665600D02*
X105015952Y-105665600D01*
X104493448Y-107135600D02*
X105015952Y-107135600D01*
X247693548Y-118187800D02*
X248216052Y-118187800D01*
X247693548Y-119657800D02*
X248216052Y-119657800D01*
X209370664Y-44677000D02*
X208916536Y-44677000D01*
X209370664Y-43207000D02*
X208916536Y-43207000D01*
X155753200Y-98363000D02*
X155753200Y-99363000D01*
X159993200Y-98363000D02*
X159993200Y-99363000D01*
X215640936Y-108658000D02*
X216095064Y-108658000D01*
X215640936Y-110128000D02*
X216095064Y-110128000D01*
X140234936Y-29999000D02*
X140689064Y-29999000D01*
X140234936Y-31469000D02*
X140689064Y-31469000D01*
X127119748Y-56161000D02*
X127642252Y-56161000D01*
X127119748Y-57631000D02*
X127642252Y-57631000D01*
X120403252Y-66394000D02*
X119880748Y-66394000D01*
X120403252Y-64924000D02*
X119880748Y-64924000D01*
X127119748Y-64924000D02*
X127642252Y-64924000D01*
X127119748Y-66394000D02*
X127642252Y-66394000D01*
X134358748Y-64924000D02*
X134881252Y-64924000D01*
X134358748Y-66394000D02*
X134881252Y-66394000D01*
X120403252Y-76046000D02*
X119880748Y-76046000D01*
X120403252Y-74576000D02*
X119880748Y-74576000D01*
X127642252Y-76046000D02*
X127119748Y-76046000D01*
X127642252Y-74576000D02*
X127119748Y-74576000D01*
X229115252Y-67664000D02*
X228592748Y-67664000D01*
X229115252Y-66194000D02*
X228592748Y-66194000D01*
X212971748Y-66194000D02*
X213494252Y-66194000D01*
X212971748Y-67664000D02*
X213494252Y-67664000D01*
X218051748Y-66194000D02*
X218574252Y-66194000D01*
X218051748Y-67664000D02*
X218574252Y-67664000D01*
X223131748Y-66194000D02*
X223654252Y-66194000D01*
X223131748Y-67664000D02*
X223654252Y-67664000D01*
X230605000Y-57968248D02*
X230605000Y-58490752D01*
X229135000Y-57968248D02*
X229135000Y-58490752D01*
X230605000Y-52443748D02*
X230605000Y-52966252D01*
X229135000Y-52443748D02*
X229135000Y-52966252D01*
X207532748Y-66194000D02*
X208055252Y-66194000D01*
X207532748Y-67664000D02*
X208055252Y-67664000D01*
X230605000Y-63048248D02*
X230605000Y-63570752D01*
X229135000Y-63048248D02*
X229135000Y-63570752D01*
X207510748Y-61114000D02*
X208033252Y-61114000D01*
X207510748Y-62584000D02*
X208033252Y-62584000D01*
X134358748Y-56161000D02*
X134881252Y-56161000D01*
X134358748Y-57631000D02*
X134881252Y-57631000D01*
X119880748Y-56161000D02*
X120403252Y-56161000D01*
X119880748Y-57631000D02*
X120403252Y-57631000D01*
X184919252Y-50011000D02*
X184396748Y-50011000D01*
X184919252Y-48541000D02*
X184396748Y-48541000D01*
X180586748Y-48541000D02*
X181109252Y-48541000D01*
X180586748Y-50011000D02*
X181109252Y-50011000D01*
X226575252Y-44727800D02*
X226052748Y-44727800D01*
X226575252Y-43257800D02*
X226052748Y-43257800D01*
X207574248Y-55970500D02*
X208096752Y-55970500D01*
X207574248Y-57440500D02*
X208096752Y-57440500D01*
X139108000Y-44126500D02*
X139108000Y-44948970D01*
X89643000Y-44126500D02*
X139108000Y-44126500D01*
X89643000Y-44126500D02*
X89643000Y-44693029D01*
X88883000Y-44126500D02*
X88123000Y-44126500D01*
X88123000Y-44126500D02*
X88123000Y-45256500D01*
X139108000Y-45564030D02*
X139108000Y-46218970D01*
X89643000Y-45819971D02*
X89643000Y-45963029D01*
X89589529Y-46016500D02*
X89446471Y-46016500D01*
X88319529Y-46016500D02*
X88188000Y-46016500D01*
X88188000Y-46016500D02*
X88188000Y-46218970D01*
X139108000Y-46834030D02*
X139108000Y-47656500D01*
X88188000Y-46834030D02*
X88188000Y-47656500D01*
X88188000Y-47656500D02*
X139108000Y-47656500D01*
X139108000Y-97063000D02*
X139108000Y-97885470D01*
X89643000Y-97063000D02*
X139108000Y-97063000D01*
X89643000Y-97063000D02*
X89643000Y-97629529D01*
X88883000Y-97063000D02*
X88123000Y-97063000D01*
X88123000Y-97063000D02*
X88123000Y-98193000D01*
X139108000Y-98500530D02*
X139108000Y-99155470D01*
X89643000Y-98756471D02*
X89643000Y-98899529D01*
X89589529Y-98953000D02*
X89446471Y-98953000D01*
X88319529Y-98953000D02*
X88188000Y-98953000D01*
X88188000Y-98953000D02*
X88188000Y-99155470D01*
X139108000Y-99770530D02*
X139108000Y-100593000D01*
X88188000Y-99770530D02*
X88188000Y-100593000D01*
X88188000Y-100593000D02*
X139108000Y-100593000D01*
X104369000Y-114949500D02*
X104369000Y-121864500D01*
X104369000Y-121864500D02*
X235839000Y-121864500D01*
X105369000Y-113949500D02*
X104369000Y-114949500D01*
X235839000Y-113949500D02*
X105369000Y-113949500D01*
X235839000Y-121864500D02*
X235839000Y-113949500D01*
X134358748Y-74576000D02*
X134881252Y-74576000D01*
X134358748Y-76046000D02*
X134881252Y-76046000D01*
X217946748Y-43207000D02*
X218469252Y-43207000D01*
X217946748Y-44677000D02*
X218469252Y-44677000D01*
X223527252Y-56513400D02*
X223004748Y-56513400D01*
X223527252Y-55043400D02*
X223004748Y-55043400D01*
X96191336Y-112752200D02*
X96645464Y-112752200D01*
X96191336Y-114222200D02*
X96645464Y-114222200D01*
X217295400Y-49471336D02*
X217295400Y-49925464D01*
X215825400Y-49471336D02*
X215825400Y-49925464D01*
X132053064Y-94739000D02*
X131598936Y-94739000D01*
X132053064Y-93269000D02*
X131598936Y-93269000D01*
X219194136Y-55653000D02*
X219648264Y-55653000D01*
X219194136Y-57123000D02*
X219648264Y-57123000D01*
X215314200Y-53265336D02*
X215314200Y-53719464D01*
X213844200Y-53265336D02*
X213844200Y-53719464D01*
X227182400Y-54953600D02*
X227782400Y-54953600D01*
X228482400Y-54303600D02*
X228482400Y-51503600D01*
X226482400Y-51503600D02*
X226482400Y-54303600D01*
X227782400Y-50853600D02*
X227182400Y-50853600D01*
X226482400Y-54253600D02*
G75*
G03*
X227182400Y-54953600I699999J-1D01*
G01*
X227782400Y-54953600D02*
G75*
G03*
X228482400Y-54253600I1J699999D01*
G01*
X227182400Y-50853600D02*
G75*
G03*
X226482400Y-51553600I0J-700000D01*
G01*
X228482400Y-51553600D02*
G75*
G03*
X227782400Y-50853600I-700000J0D01*
G01*
X96445336Y-50369800D02*
X96899464Y-50369800D01*
X96445336Y-51839800D02*
X96899464Y-51839800D01*
X219276600Y-53281336D02*
X219276600Y-53735464D01*
X217806600Y-53281336D02*
X217806600Y-53735464D01*
X219276600Y-49471336D02*
X219276600Y-49925464D01*
X217806600Y-49471336D02*
X217806600Y-49925464D01*
D13*
X221321400Y-51173000D02*
X221321400Y-51473000D01*
X221321400Y-51173000D02*
X224671400Y-51173000D01*
X221321400Y-54298000D02*
X220096400Y-54298000D01*
X221321400Y-54523000D02*
X221321400Y-54298000D01*
X221321400Y-54523000D02*
X224671400Y-54523000D01*
X224671400Y-51173000D02*
X224671400Y-51473000D01*
X224671400Y-54523000D02*
X224671400Y-54223000D01*
D10*
X215314200Y-49455336D02*
X215314200Y-49909464D01*
X213844200Y-49455336D02*
X213844200Y-49909464D01*
X217295400Y-53265336D02*
X217295400Y-53719464D01*
X215825400Y-53265336D02*
X215825400Y-53719464D01*
X222124536Y-43257800D02*
X222578664Y-43257800D01*
X222124536Y-44727800D02*
X222578664Y-44727800D01*
M02*
