G04 #@! TF.GenerationSoftware,KiCad,Pcbnew,(6.0.5-0)*
G04 #@! TF.CreationDate,2022-07-01T16:01:09+02:00*
G04 #@! TF.ProjectId,Z3660_v02,5a333636-305f-4763-9032-2e6b69636164,rev?*
G04 #@! TF.SameCoordinates,Original*
G04 #@! TF.FileFunction,Legend,Bot*
G04 #@! TF.FilePolarity,Positive*
%FSLAX46Y46*%
G04 Gerber Fmt 4.6, Leading zero omitted, Abs format (unit mm)*
G04 Created by KiCad (PCBNEW (6.0.5-0)) date 2022-07-01 16:01:09*
%MOMM*%
%LPD*%
G01*
G04 APERTURE LIST*
%ADD10C,0.222000*%
%ADD11C,0.120000*%
%ADD12C,0.150000*%
%ADD13C,0.200000*%
G04 APERTURE END LIST*
D10*
X100338000Y-116697200D02*
X99671300Y-116030600D01*
D11*
X241046000Y-75819000D02*
X238760000Y-75819000D01*
X238760000Y-75819000D02*
X238760000Y-78105000D01*
D10*
X99671300Y-116030600D02*
X99671300Y-117808400D01*
D12*
X245244857Y-116943142D02*
X245292476Y-116990761D01*
X245435333Y-117038380D01*
X245530571Y-117038380D01*
X245673428Y-116990761D01*
X245768666Y-116895523D01*
X245816285Y-116800285D01*
X245863904Y-116609809D01*
X245863904Y-116466952D01*
X245816285Y-116276476D01*
X245768666Y-116181238D01*
X245673428Y-116086000D01*
X245530571Y-116038380D01*
X245435333Y-116038380D01*
X245292476Y-116086000D01*
X245244857Y-116133619D01*
X244292476Y-117038380D02*
X244863904Y-117038380D01*
X244578190Y-117038380D02*
X244578190Y-116038380D01*
X244673428Y-116181238D01*
X244768666Y-116276476D01*
X244863904Y-116324095D01*
X243911523Y-116133619D02*
X243863904Y-116086000D01*
X243768666Y-116038380D01*
X243530571Y-116038380D01*
X243435333Y-116086000D01*
X243387714Y-116133619D01*
X243340095Y-116228857D01*
X243340095Y-116324095D01*
X243387714Y-116466952D01*
X243959142Y-117038380D01*
X243340095Y-117038380D01*
X170600666Y-32202380D02*
X170934000Y-31726190D01*
X171172095Y-32202380D02*
X171172095Y-31202380D01*
X170791142Y-31202380D01*
X170695904Y-31250000D01*
X170648285Y-31297619D01*
X170600666Y-31392857D01*
X170600666Y-31535714D01*
X170648285Y-31630952D01*
X170695904Y-31678571D01*
X170791142Y-31726190D01*
X171172095Y-31726190D01*
X170267333Y-31202380D02*
X169648285Y-31202380D01*
X169981619Y-31583333D01*
X169838761Y-31583333D01*
X169743523Y-31630952D01*
X169695904Y-31678571D01*
X169648285Y-31773809D01*
X169648285Y-32011904D01*
X169695904Y-32107142D01*
X169743523Y-32154761D01*
X169838761Y-32202380D01*
X170124476Y-32202380D01*
X170219714Y-32154761D01*
X170267333Y-32107142D01*
X164266476Y-31535714D02*
X164266476Y-32202380D01*
X164504571Y-31154761D02*
X164742666Y-31869047D01*
X164123619Y-31869047D01*
X163742666Y-32202380D02*
X163742666Y-31202380D01*
X163647428Y-31821428D02*
X163361714Y-32202380D01*
X163361714Y-31535714D02*
X163742666Y-31916666D01*
X163028380Y-31202380D02*
X162361714Y-31202380D01*
X162790285Y-32202380D01*
X201572666Y-108605580D02*
X201906000Y-108129390D01*
X202144095Y-108605580D02*
X202144095Y-107605580D01*
X201763142Y-107605580D01*
X201667904Y-107653200D01*
X201620285Y-107700819D01*
X201572666Y-107796057D01*
X201572666Y-107938914D01*
X201620285Y-108034152D01*
X201667904Y-108081771D01*
X201763142Y-108129390D01*
X202144095Y-108129390D01*
X201144095Y-108605580D02*
X201144095Y-107605580D01*
X200572666Y-108605580D01*
X200572666Y-107605580D01*
X199572666Y-108605580D02*
X200144095Y-108605580D01*
X199858380Y-108605580D02*
X199858380Y-107605580D01*
X199953619Y-107748438D01*
X200048857Y-107843676D01*
X200144095Y-107891295D01*
X198620285Y-108605580D02*
X199191714Y-108605580D01*
X198906000Y-108605580D02*
X198906000Y-107605580D01*
X199001238Y-107748438D01*
X199096476Y-107843676D01*
X199191714Y-107891295D01*
X201541047Y-106776780D02*
X202112476Y-106776780D01*
X201826761Y-106776780D02*
X201826761Y-105776780D01*
X201922000Y-105919638D01*
X202017238Y-106014876D01*
X202112476Y-106062495D01*
X201112476Y-106776780D02*
X201112476Y-105776780D01*
X201017238Y-106395828D02*
X200731523Y-106776780D01*
X200731523Y-106110114D02*
X201112476Y-106491066D01*
X241958666Y-104287580D02*
X242292000Y-103811390D01*
X242530095Y-104287580D02*
X242530095Y-103287580D01*
X242149142Y-103287580D01*
X242053904Y-103335200D01*
X242006285Y-103382819D01*
X241958666Y-103478057D01*
X241958666Y-103620914D01*
X242006285Y-103716152D01*
X242053904Y-103763771D01*
X242149142Y-103811390D01*
X242530095Y-103811390D01*
X241530095Y-104287580D02*
X241530095Y-103287580D01*
X240958666Y-104287580D01*
X240958666Y-103287580D01*
X239958666Y-104287580D02*
X240530095Y-104287580D01*
X240244380Y-104287580D02*
X240244380Y-103287580D01*
X240339619Y-103430438D01*
X240434857Y-103525676D01*
X240530095Y-103573295D01*
X239577714Y-103382819D02*
X239530095Y-103335200D01*
X239434857Y-103287580D01*
X239196761Y-103287580D01*
X239101523Y-103335200D01*
X239053904Y-103382819D01*
X239006285Y-103478057D01*
X239006285Y-103573295D01*
X239053904Y-103716152D01*
X239625333Y-104287580D01*
X239006285Y-104287580D01*
X241876247Y-102763580D02*
X242447676Y-102763580D01*
X242161961Y-102763580D02*
X242161961Y-101763580D01*
X242257200Y-101906438D01*
X242352438Y-102001676D01*
X242447676Y-102049295D01*
X241447676Y-102763580D02*
X241447676Y-101763580D01*
X241352438Y-102382628D02*
X241066723Y-102763580D01*
X241066723Y-102096914D02*
X241447676Y-102477866D01*
X181919476Y-54173380D02*
X182252809Y-53697190D01*
X182490904Y-54173380D02*
X182490904Y-53173380D01*
X182109952Y-53173380D01*
X182014714Y-53221000D01*
X181967095Y-53268619D01*
X181919476Y-53363857D01*
X181919476Y-53506714D01*
X181967095Y-53601952D01*
X182014714Y-53649571D01*
X182109952Y-53697190D01*
X182490904Y-53697190D01*
X181490904Y-54173380D02*
X181490904Y-53173380D01*
X180919476Y-54173380D01*
X180919476Y-53173380D01*
X180300428Y-53601952D02*
X180395666Y-53554333D01*
X180443285Y-53506714D01*
X180490904Y-53411476D01*
X180490904Y-53363857D01*
X180443285Y-53268619D01*
X180395666Y-53221000D01*
X180300428Y-53173380D01*
X180109952Y-53173380D01*
X180014714Y-53221000D01*
X179967095Y-53268619D01*
X179919476Y-53363857D01*
X179919476Y-53411476D01*
X179967095Y-53506714D01*
X180014714Y-53554333D01*
X180109952Y-53601952D01*
X180300428Y-53601952D01*
X180395666Y-53649571D01*
X180443285Y-53697190D01*
X180490904Y-53792428D01*
X180490904Y-53982904D01*
X180443285Y-54078142D01*
X180395666Y-54125761D01*
X180300428Y-54173380D01*
X180109952Y-54173380D01*
X180014714Y-54125761D01*
X179967095Y-54078142D01*
X179919476Y-53982904D01*
X179919476Y-53792428D01*
X179967095Y-53697190D01*
X180014714Y-53649571D01*
X180109952Y-53601952D01*
X181983047Y-52522380D02*
X182554476Y-52522380D01*
X182268761Y-52522380D02*
X182268761Y-51522380D01*
X182364000Y-51665238D01*
X182459238Y-51760476D01*
X182554476Y-51808095D01*
X181554476Y-52522380D02*
X181554476Y-51522380D01*
X181459238Y-52141428D02*
X181173523Y-52522380D01*
X181173523Y-51855714D02*
X181554476Y-52236666D01*
X248329476Y-32960380D02*
X248662809Y-32484190D01*
X248900904Y-32960380D02*
X248900904Y-31960380D01*
X248519952Y-31960380D01*
X248424714Y-32008000D01*
X248377095Y-32055619D01*
X248329476Y-32150857D01*
X248329476Y-32293714D01*
X248377095Y-32388952D01*
X248424714Y-32436571D01*
X248519952Y-32484190D01*
X248900904Y-32484190D01*
X247900904Y-32960380D02*
X247900904Y-31960380D01*
X247329476Y-32960380D01*
X247329476Y-31960380D01*
X246329476Y-32960380D02*
X246900904Y-32960380D01*
X246615190Y-32960380D02*
X246615190Y-31960380D01*
X246710428Y-32103238D01*
X246805666Y-32198476D01*
X246900904Y-32246095D01*
X247123047Y-31436380D02*
X247694476Y-31436380D01*
X247408761Y-31436380D02*
X247408761Y-30436380D01*
X247504000Y-30579238D01*
X247599238Y-30674476D01*
X247694476Y-30722095D01*
X246694476Y-31436380D02*
X246694476Y-30436380D01*
X246599238Y-31055428D02*
X246313523Y-31436380D01*
X246313523Y-30769714D02*
X246694476Y-31150666D01*
X186237476Y-71191380D02*
X186570809Y-70715190D01*
X186808904Y-71191380D02*
X186808904Y-70191380D01*
X186427952Y-70191380D01*
X186332714Y-70239000D01*
X186285095Y-70286619D01*
X186237476Y-70381857D01*
X186237476Y-70524714D01*
X186285095Y-70619952D01*
X186332714Y-70667571D01*
X186427952Y-70715190D01*
X186808904Y-70715190D01*
X185808904Y-71191380D02*
X185808904Y-70191380D01*
X185237476Y-71191380D01*
X185237476Y-70191380D01*
X184856523Y-70191380D02*
X184189857Y-70191380D01*
X184618428Y-71191380D01*
X186301047Y-69540380D02*
X186872476Y-69540380D01*
X186586761Y-69540380D02*
X186586761Y-68540380D01*
X186682000Y-68683238D01*
X186777238Y-68778476D01*
X186872476Y-68826095D01*
X185872476Y-69540380D02*
X185872476Y-68540380D01*
X185777238Y-69159428D02*
X185491523Y-69540380D01*
X185491523Y-68873714D02*
X185872476Y-69254666D01*
X228036357Y-46140642D02*
X228083976Y-46188261D01*
X228226833Y-46235880D01*
X228322071Y-46235880D01*
X228464928Y-46188261D01*
X228560166Y-46093023D01*
X228607785Y-45997785D01*
X228655404Y-45807309D01*
X228655404Y-45664452D01*
X228607785Y-45473976D01*
X228560166Y-45378738D01*
X228464928Y-45283500D01*
X228322071Y-45235880D01*
X228226833Y-45235880D01*
X228083976Y-45283500D01*
X228036357Y-45331119D01*
X227179214Y-45569214D02*
X227179214Y-46235880D01*
X227417309Y-45188261D02*
X227655404Y-45902547D01*
X227036357Y-45902547D01*
X226750642Y-45235880D02*
X226083976Y-45235880D01*
X226512547Y-46235880D01*
X106560857Y-110593142D02*
X106608476Y-110640761D01*
X106751333Y-110688380D01*
X106846571Y-110688380D01*
X106989428Y-110640761D01*
X107084666Y-110545523D01*
X107132285Y-110450285D01*
X107179904Y-110259809D01*
X107179904Y-110116952D01*
X107132285Y-109926476D01*
X107084666Y-109831238D01*
X106989428Y-109736000D01*
X106846571Y-109688380D01*
X106751333Y-109688380D01*
X106608476Y-109736000D01*
X106560857Y-109783619D01*
X105608476Y-110688380D02*
X106179904Y-110688380D01*
X105894190Y-110688380D02*
X105894190Y-109688380D01*
X105989428Y-109831238D01*
X106084666Y-109926476D01*
X106179904Y-109974095D01*
X104656095Y-110688380D02*
X105227523Y-110688380D01*
X104941809Y-110688380D02*
X104941809Y-109688380D01*
X105037047Y-109831238D01*
X105132285Y-109926476D01*
X105227523Y-109974095D01*
X209107066Y-53639980D02*
X209440400Y-53163790D01*
X209678495Y-53639980D02*
X209678495Y-52639980D01*
X209297542Y-52639980D01*
X209202304Y-52687600D01*
X209154685Y-52735219D01*
X209107066Y-52830457D01*
X209107066Y-52973314D01*
X209154685Y-53068552D01*
X209202304Y-53116171D01*
X209297542Y-53163790D01*
X209678495Y-53163790D01*
X208249923Y-52639980D02*
X208440400Y-52639980D01*
X208535638Y-52687600D01*
X208583257Y-52735219D01*
X208678495Y-52878076D01*
X208726114Y-53068552D01*
X208726114Y-53449504D01*
X208678495Y-53544742D01*
X208630876Y-53592361D01*
X208535638Y-53639980D01*
X208345161Y-53639980D01*
X208249923Y-53592361D01*
X208202304Y-53544742D01*
X208154685Y-53449504D01*
X208154685Y-53211409D01*
X208202304Y-53116171D01*
X208249923Y-53068552D01*
X208345161Y-53020933D01*
X208535638Y-53020933D01*
X208630876Y-53068552D01*
X208678495Y-53116171D01*
X208726114Y-53211409D01*
X207002047Y-51125380D02*
X207573476Y-51125380D01*
X207287761Y-51125380D02*
X207287761Y-50125380D01*
X207383000Y-50268238D01*
X207478238Y-50363476D01*
X207573476Y-50411095D01*
X206573476Y-51125380D02*
X206573476Y-50125380D01*
X206478238Y-50744428D02*
X206192523Y-51125380D01*
X206192523Y-50458714D02*
X206573476Y-50839666D01*
X209310266Y-48559980D02*
X209643600Y-48083790D01*
X209881695Y-48559980D02*
X209881695Y-47559980D01*
X209500742Y-47559980D01*
X209405504Y-47607600D01*
X209357885Y-47655219D01*
X209310266Y-47750457D01*
X209310266Y-47893314D01*
X209357885Y-47988552D01*
X209405504Y-48036171D01*
X209500742Y-48083790D01*
X209881695Y-48083790D01*
X208976933Y-47559980D02*
X208310266Y-47559980D01*
X208738838Y-48559980D01*
X206468647Y-46832780D02*
X207040076Y-46832780D01*
X206754361Y-46832780D02*
X206754361Y-45832780D01*
X206849600Y-45975638D01*
X206944838Y-46070876D01*
X207040076Y-46118495D01*
X206040076Y-46832780D02*
X206040076Y-45832780D01*
X205944838Y-46451828D02*
X205659123Y-46832780D01*
X205659123Y-46166114D02*
X206040076Y-46547066D01*
X214669666Y-46172380D02*
X215003000Y-45696190D01*
X215241095Y-46172380D02*
X215241095Y-45172380D01*
X214860142Y-45172380D01*
X214764904Y-45220000D01*
X214717285Y-45267619D01*
X214669666Y-45362857D01*
X214669666Y-45505714D01*
X214717285Y-45600952D01*
X214764904Y-45648571D01*
X214860142Y-45696190D01*
X215241095Y-45696190D01*
X214098238Y-45600952D02*
X214193476Y-45553333D01*
X214241095Y-45505714D01*
X214288714Y-45410476D01*
X214288714Y-45362857D01*
X214241095Y-45267619D01*
X214193476Y-45220000D01*
X214098238Y-45172380D01*
X213907761Y-45172380D01*
X213812523Y-45220000D01*
X213764904Y-45267619D01*
X213717285Y-45362857D01*
X213717285Y-45410476D01*
X213764904Y-45505714D01*
X213812523Y-45553333D01*
X213907761Y-45600952D01*
X214098238Y-45600952D01*
X214193476Y-45648571D01*
X214241095Y-45696190D01*
X214288714Y-45791428D01*
X214288714Y-45981904D01*
X214241095Y-46077142D01*
X214193476Y-46124761D01*
X214098238Y-46172380D01*
X213907761Y-46172380D01*
X213812523Y-46124761D01*
X213764904Y-46077142D01*
X213717285Y-45981904D01*
X213717285Y-45791428D01*
X213764904Y-45696190D01*
X213812523Y-45648571D01*
X213907761Y-45600952D01*
X212463047Y-46172380D02*
X213034476Y-46172380D01*
X212748761Y-46172380D02*
X212748761Y-45172380D01*
X212844000Y-45315238D01*
X212939238Y-45410476D01*
X213034476Y-45458095D01*
X212034476Y-46172380D02*
X212034476Y-45172380D01*
X211939238Y-45791428D02*
X211653523Y-46172380D01*
X211653523Y-45505714D02*
X212034476Y-45886666D01*
X113545857Y-111831380D02*
X113879190Y-111355190D01*
X114117285Y-111831380D02*
X114117285Y-110831380D01*
X113736333Y-110831380D01*
X113641095Y-110879000D01*
X113593476Y-110926619D01*
X113545857Y-111021857D01*
X113545857Y-111164714D01*
X113593476Y-111259952D01*
X113641095Y-111307571D01*
X113736333Y-111355190D01*
X114117285Y-111355190D01*
X112593476Y-111831380D02*
X113164904Y-111831380D01*
X112879190Y-111831380D02*
X112879190Y-110831380D01*
X112974428Y-110974238D01*
X113069666Y-111069476D01*
X113164904Y-111117095D01*
X112260142Y-110831380D02*
X111641095Y-110831380D01*
X111974428Y-111212333D01*
X111831571Y-111212333D01*
X111736333Y-111259952D01*
X111688714Y-111307571D01*
X111641095Y-111402809D01*
X111641095Y-111640904D01*
X111688714Y-111736142D01*
X111736333Y-111783761D01*
X111831571Y-111831380D01*
X112117285Y-111831380D01*
X112212523Y-111783761D01*
X112260142Y-111736142D01*
X120681666Y-111831380D02*
X121253095Y-111831380D01*
X120967380Y-111831380D02*
X120967380Y-110831380D01*
X121062619Y-110974238D01*
X121157857Y-111069476D01*
X121253095Y-111117095D01*
X120062619Y-110831380D02*
X119967380Y-110831380D01*
X119872142Y-110879000D01*
X119824523Y-110926619D01*
X119776904Y-111021857D01*
X119729285Y-111212333D01*
X119729285Y-111450428D01*
X119776904Y-111640904D01*
X119824523Y-111736142D01*
X119872142Y-111783761D01*
X119967380Y-111831380D01*
X120062619Y-111831380D01*
X120157857Y-111783761D01*
X120205476Y-111736142D01*
X120253095Y-111640904D01*
X120300714Y-111450428D01*
X120300714Y-111212333D01*
X120253095Y-111021857D01*
X120205476Y-110926619D01*
X120157857Y-110879000D01*
X120062619Y-110831380D01*
X119110238Y-110831380D02*
X119015000Y-110831380D01*
X118919761Y-110879000D01*
X118872142Y-110926619D01*
X118824523Y-111021857D01*
X118776904Y-111212333D01*
X118776904Y-111450428D01*
X118824523Y-111640904D01*
X118872142Y-111736142D01*
X118919761Y-111783761D01*
X119015000Y-111831380D01*
X119110238Y-111831380D01*
X119205476Y-111783761D01*
X119253095Y-111736142D01*
X119300714Y-111640904D01*
X119348333Y-111450428D01*
X119348333Y-111212333D01*
X119300714Y-111021857D01*
X119253095Y-110926619D01*
X119205476Y-110879000D01*
X119110238Y-110831380D01*
X212831276Y-107386380D02*
X213164609Y-106910190D01*
X213402704Y-107386380D02*
X213402704Y-106386380D01*
X213021752Y-106386380D01*
X212926514Y-106434000D01*
X212878895Y-106481619D01*
X212831276Y-106576857D01*
X212831276Y-106719714D01*
X212878895Y-106814952D01*
X212926514Y-106862571D01*
X213021752Y-106910190D01*
X213402704Y-106910190D01*
X212402704Y-107386380D02*
X212402704Y-106386380D01*
X211831276Y-107386380D01*
X211831276Y-106386380D01*
X211307466Y-107386380D02*
X211116990Y-107386380D01*
X211021752Y-107338761D01*
X210974133Y-107291142D01*
X210878895Y-107148285D01*
X210831276Y-106957809D01*
X210831276Y-106576857D01*
X210878895Y-106481619D01*
X210926514Y-106434000D01*
X211021752Y-106386380D01*
X211212228Y-106386380D01*
X211307466Y-106434000D01*
X211355085Y-106481619D01*
X211402704Y-106576857D01*
X211402704Y-106814952D01*
X211355085Y-106910190D01*
X211307466Y-106957809D01*
X211212228Y-107005428D01*
X211021752Y-107005428D01*
X210926514Y-106957809D01*
X210878895Y-106910190D01*
X210831276Y-106814952D01*
X211828047Y-106116380D02*
X212399476Y-106116380D01*
X212113761Y-106116380D02*
X212113761Y-105116380D01*
X212209000Y-105259238D01*
X212304238Y-105354476D01*
X212399476Y-105402095D01*
X211399476Y-106116380D02*
X211399476Y-105116380D01*
X211304238Y-105735428D02*
X211018523Y-106116380D01*
X211018523Y-105449714D02*
X211399476Y-105830666D01*
X133500666Y-85415380D02*
X133834000Y-84939190D01*
X134072095Y-85415380D02*
X134072095Y-84415380D01*
X133691142Y-84415380D01*
X133595904Y-84463000D01*
X133548285Y-84510619D01*
X133500666Y-84605857D01*
X133500666Y-84748714D01*
X133548285Y-84843952D01*
X133595904Y-84891571D01*
X133691142Y-84939190D01*
X134072095Y-84939190D01*
X133072095Y-85415380D02*
X133072095Y-84415380D01*
X132500666Y-85415380D01*
X132500666Y-84415380D01*
X131500666Y-85415380D02*
X132072095Y-85415380D01*
X131786380Y-85415380D02*
X131786380Y-84415380D01*
X131881619Y-84558238D01*
X131976857Y-84653476D01*
X132072095Y-84701095D01*
X130881619Y-84415380D02*
X130786380Y-84415380D01*
X130691142Y-84463000D01*
X130643523Y-84510619D01*
X130595904Y-84605857D01*
X130548285Y-84796333D01*
X130548285Y-85034428D01*
X130595904Y-85224904D01*
X130643523Y-85320142D01*
X130691142Y-85367761D01*
X130786380Y-85415380D01*
X130881619Y-85415380D01*
X130976857Y-85367761D01*
X131024476Y-85320142D01*
X131072095Y-85224904D01*
X131119714Y-85034428D01*
X131119714Y-84796333D01*
X131072095Y-84605857D01*
X131024476Y-84510619D01*
X130976857Y-84463000D01*
X130881619Y-84415380D01*
X133469047Y-83764380D02*
X134040476Y-83764380D01*
X133754761Y-83764380D02*
X133754761Y-82764380D01*
X133850000Y-82907238D01*
X133945238Y-83002476D01*
X134040476Y-83050095D01*
X133040476Y-83764380D02*
X133040476Y-82764380D01*
X132945238Y-83383428D02*
X132659523Y-83764380D01*
X132659523Y-83097714D02*
X133040476Y-83478666D01*
X159916476Y-105029380D02*
X160249809Y-104553190D01*
X160487904Y-105029380D02*
X160487904Y-104029380D01*
X160106952Y-104029380D01*
X160011714Y-104077000D01*
X159964095Y-104124619D01*
X159916476Y-104219857D01*
X159916476Y-104362714D01*
X159964095Y-104457952D01*
X160011714Y-104505571D01*
X160106952Y-104553190D01*
X160487904Y-104553190D01*
X159487904Y-105029380D02*
X159487904Y-104029380D01*
X158916476Y-105029380D01*
X158916476Y-104029380D01*
X158535523Y-104029380D02*
X157916476Y-104029380D01*
X158249809Y-104410333D01*
X158106952Y-104410333D01*
X158011714Y-104457952D01*
X157964095Y-104505571D01*
X157916476Y-104600809D01*
X157916476Y-104838904D01*
X157964095Y-104934142D01*
X158011714Y-104981761D01*
X158106952Y-105029380D01*
X158392666Y-105029380D01*
X158487904Y-104981761D01*
X158535523Y-104934142D01*
X159987904Y-108885219D02*
X159940285Y-108837600D01*
X159845047Y-108789980D01*
X159606952Y-108789980D01*
X159511714Y-108837600D01*
X159464095Y-108885219D01*
X159416476Y-108980457D01*
X159416476Y-109075695D01*
X159464095Y-109218552D01*
X160035523Y-109789980D01*
X159416476Y-109789980D01*
X159035523Y-108885219D02*
X158987904Y-108837600D01*
X158892666Y-108789980D01*
X158654571Y-108789980D01*
X158559333Y-108837600D01*
X158511714Y-108885219D01*
X158464095Y-108980457D01*
X158464095Y-109075695D01*
X158511714Y-109218552D01*
X159083142Y-109789980D01*
X158464095Y-109789980D01*
X148705676Y-105014780D02*
X149039009Y-104538590D01*
X149277104Y-105014780D02*
X149277104Y-104014780D01*
X148896152Y-104014780D01*
X148800914Y-104062400D01*
X148753295Y-104110019D01*
X148705676Y-104205257D01*
X148705676Y-104348114D01*
X148753295Y-104443352D01*
X148800914Y-104490971D01*
X148896152Y-104538590D01*
X149277104Y-104538590D01*
X148277104Y-105014780D02*
X148277104Y-104014780D01*
X147705676Y-105014780D01*
X147705676Y-104014780D01*
X146753295Y-104014780D02*
X147229485Y-104014780D01*
X147277104Y-104490971D01*
X147229485Y-104443352D01*
X147134247Y-104395733D01*
X146896152Y-104395733D01*
X146800914Y-104443352D01*
X146753295Y-104490971D01*
X146705676Y-104586209D01*
X146705676Y-104824304D01*
X146753295Y-104919542D01*
X146800914Y-104967161D01*
X146896152Y-105014780D01*
X147134247Y-105014780D01*
X147229485Y-104967161D01*
X147277104Y-104919542D01*
X148811904Y-108910619D02*
X148764285Y-108863000D01*
X148669047Y-108815380D01*
X148430952Y-108815380D01*
X148335714Y-108863000D01*
X148288095Y-108910619D01*
X148240476Y-109005857D01*
X148240476Y-109101095D01*
X148288095Y-109243952D01*
X148859523Y-109815380D01*
X148240476Y-109815380D01*
X147859523Y-108910619D02*
X147811904Y-108863000D01*
X147716666Y-108815380D01*
X147478571Y-108815380D01*
X147383333Y-108863000D01*
X147335714Y-108910619D01*
X147288095Y-109005857D01*
X147288095Y-109101095D01*
X147335714Y-109243952D01*
X147907142Y-109815380D01*
X147288095Y-109815380D01*
X143117676Y-105014780D02*
X143451009Y-104538590D01*
X143689104Y-105014780D02*
X143689104Y-104014780D01*
X143308152Y-104014780D01*
X143212914Y-104062400D01*
X143165295Y-104110019D01*
X143117676Y-104205257D01*
X143117676Y-104348114D01*
X143165295Y-104443352D01*
X143212914Y-104490971D01*
X143308152Y-104538590D01*
X143689104Y-104538590D01*
X142689104Y-105014780D02*
X142689104Y-104014780D01*
X142117676Y-105014780D01*
X142117676Y-104014780D01*
X141212914Y-104014780D02*
X141403390Y-104014780D01*
X141498628Y-104062400D01*
X141546247Y-104110019D01*
X141641485Y-104252876D01*
X141689104Y-104443352D01*
X141689104Y-104824304D01*
X141641485Y-104919542D01*
X141593866Y-104967161D01*
X141498628Y-105014780D01*
X141308152Y-105014780D01*
X141212914Y-104967161D01*
X141165295Y-104919542D01*
X141117676Y-104824304D01*
X141117676Y-104586209D01*
X141165295Y-104490971D01*
X141212914Y-104443352D01*
X141308152Y-104395733D01*
X141498628Y-104395733D01*
X141593866Y-104443352D01*
X141641485Y-104490971D01*
X141689104Y-104586209D01*
X143223904Y-108910619D02*
X143176285Y-108863000D01*
X143081047Y-108815380D01*
X142842952Y-108815380D01*
X142747714Y-108863000D01*
X142700095Y-108910619D01*
X142652476Y-109005857D01*
X142652476Y-109101095D01*
X142700095Y-109243952D01*
X143271523Y-109815380D01*
X142652476Y-109815380D01*
X142271523Y-108910619D02*
X142223904Y-108863000D01*
X142128666Y-108815380D01*
X141890571Y-108815380D01*
X141795333Y-108863000D01*
X141747714Y-108910619D01*
X141700095Y-109005857D01*
X141700095Y-109101095D01*
X141747714Y-109243952D01*
X142319142Y-109815380D01*
X141700095Y-109815380D01*
X227909357Y-49252142D02*
X227956976Y-49299761D01*
X228099833Y-49347380D01*
X228195071Y-49347380D01*
X228337928Y-49299761D01*
X228433166Y-49204523D01*
X228480785Y-49109285D01*
X228528404Y-48918809D01*
X228528404Y-48775952D01*
X228480785Y-48585476D01*
X228433166Y-48490238D01*
X228337928Y-48395000D01*
X228195071Y-48347380D01*
X228099833Y-48347380D01*
X227956976Y-48395000D01*
X227909357Y-48442619D01*
X227052214Y-48680714D02*
X227052214Y-49347380D01*
X227290309Y-48299761D02*
X227528404Y-49014047D01*
X226909357Y-49014047D01*
X226385547Y-48775952D02*
X226480785Y-48728333D01*
X226528404Y-48680714D01*
X226576023Y-48585476D01*
X226576023Y-48537857D01*
X226528404Y-48442619D01*
X226480785Y-48395000D01*
X226385547Y-48347380D01*
X226195071Y-48347380D01*
X226099833Y-48395000D01*
X226052214Y-48442619D01*
X226004595Y-48537857D01*
X226004595Y-48585476D01*
X226052214Y-48680714D01*
X226099833Y-48728333D01*
X226195071Y-48775952D01*
X226385547Y-48775952D01*
X226480785Y-48823571D01*
X226528404Y-48871190D01*
X226576023Y-48966428D01*
X226576023Y-49156904D01*
X226528404Y-49252142D01*
X226480785Y-49299761D01*
X226385547Y-49347380D01*
X226195071Y-49347380D01*
X226099833Y-49299761D01*
X226052214Y-49252142D01*
X226004595Y-49156904D01*
X226004595Y-48966428D01*
X226052214Y-48871190D01*
X226099833Y-48823571D01*
X226195071Y-48775952D01*
X106560857Y-106783142D02*
X106608476Y-106830761D01*
X106751333Y-106878380D01*
X106846571Y-106878380D01*
X106989428Y-106830761D01*
X107084666Y-106735523D01*
X107132285Y-106640285D01*
X107179904Y-106449809D01*
X107179904Y-106306952D01*
X107132285Y-106116476D01*
X107084666Y-106021238D01*
X106989428Y-105926000D01*
X106846571Y-105878380D01*
X106751333Y-105878380D01*
X106608476Y-105926000D01*
X106560857Y-105973619D01*
X105608476Y-106878380D02*
X106179904Y-106878380D01*
X105894190Y-106878380D02*
X105894190Y-105878380D01*
X105989428Y-106021238D01*
X106084666Y-106116476D01*
X106179904Y-106164095D01*
X105275142Y-105878380D02*
X104656095Y-105878380D01*
X104989428Y-106259333D01*
X104846571Y-106259333D01*
X104751333Y-106306952D01*
X104703714Y-106354571D01*
X104656095Y-106449809D01*
X104656095Y-106687904D01*
X104703714Y-106783142D01*
X104751333Y-106830761D01*
X104846571Y-106878380D01*
X105132285Y-106878380D01*
X105227523Y-106830761D01*
X105275142Y-106783142D01*
X245371857Y-120499142D02*
X245419476Y-120546761D01*
X245562333Y-120594380D01*
X245657571Y-120594380D01*
X245800428Y-120546761D01*
X245895666Y-120451523D01*
X245943285Y-120356285D01*
X245990904Y-120165809D01*
X245990904Y-120022952D01*
X245943285Y-119832476D01*
X245895666Y-119737238D01*
X245800428Y-119642000D01*
X245657571Y-119594380D01*
X245562333Y-119594380D01*
X245419476Y-119642000D01*
X245371857Y-119689619D01*
X244419476Y-120594380D02*
X244990904Y-120594380D01*
X244705190Y-120594380D02*
X244705190Y-119594380D01*
X244800428Y-119737238D01*
X244895666Y-119832476D01*
X244990904Y-119880095D01*
X243562333Y-119927714D02*
X243562333Y-120594380D01*
X243800428Y-119546761D02*
X244038523Y-120261047D01*
X243419476Y-120261047D01*
X206516266Y-43835580D02*
X206849600Y-43359390D01*
X207087695Y-43835580D02*
X207087695Y-42835580D01*
X206706742Y-42835580D01*
X206611504Y-42883200D01*
X206563885Y-42930819D01*
X206516266Y-43026057D01*
X206516266Y-43168914D01*
X206563885Y-43264152D01*
X206611504Y-43311771D01*
X206706742Y-43359390D01*
X207087695Y-43359390D01*
X205611504Y-42835580D02*
X206087695Y-42835580D01*
X206135314Y-43311771D01*
X206087695Y-43264152D01*
X205992457Y-43216533D01*
X205754361Y-43216533D01*
X205659123Y-43264152D01*
X205611504Y-43311771D01*
X205563885Y-43407009D01*
X205563885Y-43645104D01*
X205611504Y-43740342D01*
X205659123Y-43787961D01*
X205754361Y-43835580D01*
X205992457Y-43835580D01*
X206087695Y-43787961D01*
X206135314Y-43740342D01*
X206468647Y-45105580D02*
X207040076Y-45105580D01*
X206754361Y-45105580D02*
X206754361Y-44105580D01*
X206849600Y-44248438D01*
X206944838Y-44343676D01*
X207040076Y-44391295D01*
X206040076Y-45105580D02*
X206040076Y-44105580D01*
X205944838Y-44724628D02*
X205659123Y-45105580D01*
X205659123Y-44438914D02*
X206040076Y-44819866D01*
X154328476Y-105029380D02*
X154661809Y-104553190D01*
X154899904Y-105029380D02*
X154899904Y-104029380D01*
X154518952Y-104029380D01*
X154423714Y-104077000D01*
X154376095Y-104124619D01*
X154328476Y-104219857D01*
X154328476Y-104362714D01*
X154376095Y-104457952D01*
X154423714Y-104505571D01*
X154518952Y-104553190D01*
X154899904Y-104553190D01*
X153899904Y-105029380D02*
X153899904Y-104029380D01*
X153328476Y-105029380D01*
X153328476Y-104029380D01*
X152423714Y-104362714D02*
X152423714Y-105029380D01*
X152661809Y-103981761D02*
X152899904Y-104696047D01*
X152280857Y-104696047D01*
X154212704Y-108885219D02*
X154165085Y-108837600D01*
X154069847Y-108789980D01*
X153831752Y-108789980D01*
X153736514Y-108837600D01*
X153688895Y-108885219D01*
X153641276Y-108980457D01*
X153641276Y-109075695D01*
X153688895Y-109218552D01*
X154260323Y-109789980D01*
X153641276Y-109789980D01*
X153260323Y-108885219D02*
X153212704Y-108837600D01*
X153117466Y-108789980D01*
X152879371Y-108789980D01*
X152784133Y-108837600D01*
X152736514Y-108885219D01*
X152688895Y-108980457D01*
X152688895Y-109075695D01*
X152736514Y-109218552D01*
X153307942Y-109789980D01*
X152688895Y-109789980D01*
X216606380Y-110355142D02*
X216130190Y-110021809D01*
X216606380Y-109783714D02*
X215606380Y-109783714D01*
X215606380Y-110164666D01*
X215654000Y-110259904D01*
X215701619Y-110307523D01*
X215796857Y-110355142D01*
X215939714Y-110355142D01*
X216034952Y-110307523D01*
X216082571Y-110259904D01*
X216130190Y-110164666D01*
X216130190Y-109783714D01*
X216606380Y-111307523D02*
X216606380Y-110736095D01*
X216606380Y-111021809D02*
X215606380Y-111021809D01*
X215749238Y-110926571D01*
X215844476Y-110831333D01*
X215892095Y-110736095D01*
X215939714Y-112164666D02*
X216606380Y-112164666D01*
X215558761Y-111926571D02*
X216273047Y-111688476D01*
X216273047Y-112307523D01*
X213177380Y-110878952D02*
X213177380Y-110307523D01*
X213177380Y-110593238D02*
X212177380Y-110593238D01*
X212320238Y-110498000D01*
X212415476Y-110402761D01*
X212463095Y-110307523D01*
X213177380Y-111307523D02*
X212177380Y-111307523D01*
X212796428Y-111402761D02*
X213177380Y-111688476D01*
X212510714Y-111688476D02*
X212891666Y-111307523D01*
X144311666Y-31186380D02*
X144645000Y-30710190D01*
X144883095Y-31186380D02*
X144883095Y-30186380D01*
X144502142Y-30186380D01*
X144406904Y-30234000D01*
X144359285Y-30281619D01*
X144311666Y-30376857D01*
X144311666Y-30519714D01*
X144359285Y-30614952D01*
X144406904Y-30662571D01*
X144502142Y-30710190D01*
X144883095Y-30710190D01*
X143454523Y-30519714D02*
X143454523Y-31186380D01*
X143692619Y-30138761D02*
X143930714Y-30853047D01*
X143311666Y-30853047D01*
X137723476Y-30519714D02*
X137723476Y-31186380D01*
X137961571Y-30138761D02*
X138199666Y-30853047D01*
X137580619Y-30853047D01*
X137199666Y-31186380D02*
X137199666Y-30186380D01*
X137104428Y-30805428D02*
X136818714Y-31186380D01*
X136818714Y-30519714D02*
X137199666Y-30900666D01*
X136485380Y-30186380D02*
X135818714Y-30186380D01*
X136247285Y-31186380D01*
X127547666Y-55602142D02*
X127595285Y-55649761D01*
X127738142Y-55697380D01*
X127833380Y-55697380D01*
X127976238Y-55649761D01*
X128071476Y-55554523D01*
X128119095Y-55459285D01*
X128166714Y-55268809D01*
X128166714Y-55125952D01*
X128119095Y-54935476D01*
X128071476Y-54840238D01*
X127976238Y-54745000D01*
X127833380Y-54697380D01*
X127738142Y-54697380D01*
X127595285Y-54745000D01*
X127547666Y-54792619D01*
X127166714Y-54792619D02*
X127119095Y-54745000D01*
X127023857Y-54697380D01*
X126785761Y-54697380D01*
X126690523Y-54745000D01*
X126642904Y-54792619D01*
X126595285Y-54887857D01*
X126595285Y-54983095D01*
X126642904Y-55125952D01*
X127214333Y-55697380D01*
X126595285Y-55697380D01*
X120308666Y-64365142D02*
X120356285Y-64412761D01*
X120499142Y-64460380D01*
X120594380Y-64460380D01*
X120737238Y-64412761D01*
X120832476Y-64317523D01*
X120880095Y-64222285D01*
X120927714Y-64031809D01*
X120927714Y-63888952D01*
X120880095Y-63698476D01*
X120832476Y-63603238D01*
X120737238Y-63508000D01*
X120594380Y-63460380D01*
X120499142Y-63460380D01*
X120356285Y-63508000D01*
X120308666Y-63555619D01*
X119403904Y-63460380D02*
X119880095Y-63460380D01*
X119927714Y-63936571D01*
X119880095Y-63888952D01*
X119784857Y-63841333D01*
X119546761Y-63841333D01*
X119451523Y-63888952D01*
X119403904Y-63936571D01*
X119356285Y-64031809D01*
X119356285Y-64269904D01*
X119403904Y-64365142D01*
X119451523Y-64412761D01*
X119546761Y-64460380D01*
X119784857Y-64460380D01*
X119880095Y-64412761D01*
X119927714Y-64365142D01*
X127547666Y-64365142D02*
X127595285Y-64412761D01*
X127738142Y-64460380D01*
X127833380Y-64460380D01*
X127976238Y-64412761D01*
X128071476Y-64317523D01*
X128119095Y-64222285D01*
X128166714Y-64031809D01*
X128166714Y-63888952D01*
X128119095Y-63698476D01*
X128071476Y-63603238D01*
X127976238Y-63508000D01*
X127833380Y-63460380D01*
X127738142Y-63460380D01*
X127595285Y-63508000D01*
X127547666Y-63555619D01*
X126690523Y-63460380D02*
X126881000Y-63460380D01*
X126976238Y-63508000D01*
X127023857Y-63555619D01*
X127119095Y-63698476D01*
X127166714Y-63888952D01*
X127166714Y-64269904D01*
X127119095Y-64365142D01*
X127071476Y-64412761D01*
X126976238Y-64460380D01*
X126785761Y-64460380D01*
X126690523Y-64412761D01*
X126642904Y-64365142D01*
X126595285Y-64269904D01*
X126595285Y-64031809D01*
X126642904Y-63936571D01*
X126690523Y-63888952D01*
X126785761Y-63841333D01*
X126976238Y-63841333D01*
X127071476Y-63888952D01*
X127119095Y-63936571D01*
X127166714Y-64031809D01*
X134786666Y-64365142D02*
X134834285Y-64412761D01*
X134977142Y-64460380D01*
X135072380Y-64460380D01*
X135215238Y-64412761D01*
X135310476Y-64317523D01*
X135358095Y-64222285D01*
X135405714Y-64031809D01*
X135405714Y-63888952D01*
X135358095Y-63698476D01*
X135310476Y-63603238D01*
X135215238Y-63508000D01*
X135072380Y-63460380D01*
X134977142Y-63460380D01*
X134834285Y-63508000D01*
X134786666Y-63555619D01*
X134453333Y-63460380D02*
X133786666Y-63460380D01*
X134215238Y-64460380D01*
X120308666Y-74017142D02*
X120356285Y-74064761D01*
X120499142Y-74112380D01*
X120594380Y-74112380D01*
X120737238Y-74064761D01*
X120832476Y-73969523D01*
X120880095Y-73874285D01*
X120927714Y-73683809D01*
X120927714Y-73540952D01*
X120880095Y-73350476D01*
X120832476Y-73255238D01*
X120737238Y-73160000D01*
X120594380Y-73112380D01*
X120499142Y-73112380D01*
X120356285Y-73160000D01*
X120308666Y-73207619D01*
X119737238Y-73540952D02*
X119832476Y-73493333D01*
X119880095Y-73445714D01*
X119927714Y-73350476D01*
X119927714Y-73302857D01*
X119880095Y-73207619D01*
X119832476Y-73160000D01*
X119737238Y-73112380D01*
X119546761Y-73112380D01*
X119451523Y-73160000D01*
X119403904Y-73207619D01*
X119356285Y-73302857D01*
X119356285Y-73350476D01*
X119403904Y-73445714D01*
X119451523Y-73493333D01*
X119546761Y-73540952D01*
X119737238Y-73540952D01*
X119832476Y-73588571D01*
X119880095Y-73636190D01*
X119927714Y-73731428D01*
X119927714Y-73921904D01*
X119880095Y-74017142D01*
X119832476Y-74064761D01*
X119737238Y-74112380D01*
X119546761Y-74112380D01*
X119451523Y-74064761D01*
X119403904Y-74017142D01*
X119356285Y-73921904D01*
X119356285Y-73731428D01*
X119403904Y-73636190D01*
X119451523Y-73588571D01*
X119546761Y-73540952D01*
X127547666Y-74017142D02*
X127595285Y-74064761D01*
X127738142Y-74112380D01*
X127833380Y-74112380D01*
X127976238Y-74064761D01*
X128071476Y-73969523D01*
X128119095Y-73874285D01*
X128166714Y-73683809D01*
X128166714Y-73540952D01*
X128119095Y-73350476D01*
X128071476Y-73255238D01*
X127976238Y-73160000D01*
X127833380Y-73112380D01*
X127738142Y-73112380D01*
X127595285Y-73160000D01*
X127547666Y-73207619D01*
X127071476Y-74112380D02*
X126881000Y-74112380D01*
X126785761Y-74064761D01*
X126738142Y-74017142D01*
X126642904Y-73874285D01*
X126595285Y-73683809D01*
X126595285Y-73302857D01*
X126642904Y-73207619D01*
X126690523Y-73160000D01*
X126785761Y-73112380D01*
X126976238Y-73112380D01*
X127071476Y-73160000D01*
X127119095Y-73207619D01*
X127166714Y-73302857D01*
X127166714Y-73540952D01*
X127119095Y-73636190D01*
X127071476Y-73683809D01*
X126976238Y-73731428D01*
X126785761Y-73731428D01*
X126690523Y-73683809D01*
X126642904Y-73636190D01*
X126595285Y-73540952D01*
X228036357Y-65571642D02*
X228083976Y-65619261D01*
X228226833Y-65666880D01*
X228322071Y-65666880D01*
X228464928Y-65619261D01*
X228560166Y-65524023D01*
X228607785Y-65428785D01*
X228655404Y-65238309D01*
X228655404Y-65095452D01*
X228607785Y-64904976D01*
X228560166Y-64809738D01*
X228464928Y-64714500D01*
X228322071Y-64666880D01*
X228226833Y-64666880D01*
X228083976Y-64714500D01*
X228036357Y-64762119D01*
X227083976Y-65666880D02*
X227655404Y-65666880D01*
X227369690Y-65666880D02*
X227369690Y-64666880D01*
X227464928Y-64809738D01*
X227560166Y-64904976D01*
X227655404Y-64952595D01*
X226512547Y-65095452D02*
X226607785Y-65047833D01*
X226655404Y-65000214D01*
X226703023Y-64904976D01*
X226703023Y-64857357D01*
X226655404Y-64762119D01*
X226607785Y-64714500D01*
X226512547Y-64666880D01*
X226322071Y-64666880D01*
X226226833Y-64714500D01*
X226179214Y-64762119D01*
X226131595Y-64857357D01*
X226131595Y-64904976D01*
X226179214Y-65000214D01*
X226226833Y-65047833D01*
X226322071Y-65095452D01*
X226512547Y-65095452D01*
X226607785Y-65143071D01*
X226655404Y-65190690D01*
X226703023Y-65285928D01*
X226703023Y-65476404D01*
X226655404Y-65571642D01*
X226607785Y-65619261D01*
X226512547Y-65666880D01*
X226322071Y-65666880D01*
X226226833Y-65619261D01*
X226179214Y-65571642D01*
X226131595Y-65476404D01*
X226131595Y-65285928D01*
X226179214Y-65190690D01*
X226226833Y-65143071D01*
X226322071Y-65095452D01*
X213939357Y-65571642D02*
X213986976Y-65619261D01*
X214129833Y-65666880D01*
X214225071Y-65666880D01*
X214367928Y-65619261D01*
X214463166Y-65524023D01*
X214510785Y-65428785D01*
X214558404Y-65238309D01*
X214558404Y-65095452D01*
X214510785Y-64904976D01*
X214463166Y-64809738D01*
X214367928Y-64714500D01*
X214225071Y-64666880D01*
X214129833Y-64666880D01*
X213986976Y-64714500D01*
X213939357Y-64762119D01*
X212986976Y-65666880D02*
X213558404Y-65666880D01*
X213272690Y-65666880D02*
X213272690Y-64666880D01*
X213367928Y-64809738D01*
X213463166Y-64904976D01*
X213558404Y-64952595D01*
X212510785Y-65666880D02*
X212320309Y-65666880D01*
X212225071Y-65619261D01*
X212177452Y-65571642D01*
X212082214Y-65428785D01*
X212034595Y-65238309D01*
X212034595Y-64857357D01*
X212082214Y-64762119D01*
X212129833Y-64714500D01*
X212225071Y-64666880D01*
X212415547Y-64666880D01*
X212510785Y-64714500D01*
X212558404Y-64762119D01*
X212606023Y-64857357D01*
X212606023Y-65095452D01*
X212558404Y-65190690D01*
X212510785Y-65238309D01*
X212415547Y-65285928D01*
X212225071Y-65285928D01*
X212129833Y-65238309D01*
X212082214Y-65190690D01*
X212034595Y-65095452D01*
X218955857Y-65508142D02*
X219003476Y-65555761D01*
X219146333Y-65603380D01*
X219241571Y-65603380D01*
X219384428Y-65555761D01*
X219479666Y-65460523D01*
X219527285Y-65365285D01*
X219574904Y-65174809D01*
X219574904Y-65031952D01*
X219527285Y-64841476D01*
X219479666Y-64746238D01*
X219384428Y-64651000D01*
X219241571Y-64603380D01*
X219146333Y-64603380D01*
X219003476Y-64651000D01*
X218955857Y-64698619D01*
X218574904Y-64698619D02*
X218527285Y-64651000D01*
X218432047Y-64603380D01*
X218193952Y-64603380D01*
X218098714Y-64651000D01*
X218051095Y-64698619D01*
X218003476Y-64793857D01*
X218003476Y-64889095D01*
X218051095Y-65031952D01*
X218622523Y-65603380D01*
X218003476Y-65603380D01*
X217670142Y-64603380D02*
X217051095Y-64603380D01*
X217384428Y-64984333D01*
X217241571Y-64984333D01*
X217146333Y-65031952D01*
X217098714Y-65079571D01*
X217051095Y-65174809D01*
X217051095Y-65412904D01*
X217098714Y-65508142D01*
X217146333Y-65555761D01*
X217241571Y-65603380D01*
X217527285Y-65603380D01*
X217622523Y-65555761D01*
X217670142Y-65508142D01*
X224099357Y-65508142D02*
X224146976Y-65555761D01*
X224289833Y-65603380D01*
X224385071Y-65603380D01*
X224527928Y-65555761D01*
X224623166Y-65460523D01*
X224670785Y-65365285D01*
X224718404Y-65174809D01*
X224718404Y-65031952D01*
X224670785Y-64841476D01*
X224623166Y-64746238D01*
X224527928Y-64651000D01*
X224385071Y-64603380D01*
X224289833Y-64603380D01*
X224146976Y-64651000D01*
X224099357Y-64698619D01*
X223718404Y-64698619D02*
X223670785Y-64651000D01*
X223575547Y-64603380D01*
X223337452Y-64603380D01*
X223242214Y-64651000D01*
X223194595Y-64698619D01*
X223146976Y-64793857D01*
X223146976Y-64889095D01*
X223194595Y-65031952D01*
X223766023Y-65603380D01*
X223146976Y-65603380D01*
X222527928Y-64603380D02*
X222432690Y-64603380D01*
X222337452Y-64651000D01*
X222289833Y-64698619D01*
X222242214Y-64793857D01*
X222194595Y-64984333D01*
X222194595Y-65222428D01*
X222242214Y-65412904D01*
X222289833Y-65508142D01*
X222337452Y-65555761D01*
X222432690Y-65603380D01*
X222527928Y-65603380D01*
X222623166Y-65555761D01*
X222670785Y-65508142D01*
X222718404Y-65412904D01*
X222766023Y-65222428D01*
X222766023Y-64984333D01*
X222718404Y-64793857D01*
X222670785Y-64698619D01*
X222623166Y-64651000D01*
X222527928Y-64603380D01*
X227972857Y-58586642D02*
X228020476Y-58634261D01*
X228163333Y-58681880D01*
X228258571Y-58681880D01*
X228401428Y-58634261D01*
X228496666Y-58539023D01*
X228544285Y-58443785D01*
X228591904Y-58253309D01*
X228591904Y-58110452D01*
X228544285Y-57919976D01*
X228496666Y-57824738D01*
X228401428Y-57729500D01*
X228258571Y-57681880D01*
X228163333Y-57681880D01*
X228020476Y-57729500D01*
X227972857Y-57777119D01*
X227020476Y-58681880D02*
X227591904Y-58681880D01*
X227306190Y-58681880D02*
X227306190Y-57681880D01*
X227401428Y-57824738D01*
X227496666Y-57919976D01*
X227591904Y-57967595D01*
X226115714Y-57681880D02*
X226591904Y-57681880D01*
X226639523Y-58158071D01*
X226591904Y-58110452D01*
X226496666Y-58062833D01*
X226258571Y-58062833D01*
X226163333Y-58110452D01*
X226115714Y-58158071D01*
X226068095Y-58253309D01*
X226068095Y-58491404D01*
X226115714Y-58586642D01*
X226163333Y-58634261D01*
X226258571Y-58681880D01*
X226496666Y-58681880D01*
X226591904Y-58634261D01*
X226639523Y-58586642D01*
X227718857Y-53189142D02*
X227766476Y-53236761D01*
X227909333Y-53284380D01*
X228004571Y-53284380D01*
X228147428Y-53236761D01*
X228242666Y-53141523D01*
X228290285Y-53046285D01*
X228337904Y-52855809D01*
X228337904Y-52712952D01*
X228290285Y-52522476D01*
X228242666Y-52427238D01*
X228147428Y-52332000D01*
X228004571Y-52284380D01*
X227909333Y-52284380D01*
X227766476Y-52332000D01*
X227718857Y-52379619D01*
X227337904Y-52379619D02*
X227290285Y-52332000D01*
X227195047Y-52284380D01*
X226956952Y-52284380D01*
X226861714Y-52332000D01*
X226814095Y-52379619D01*
X226766476Y-52474857D01*
X226766476Y-52570095D01*
X226814095Y-52712952D01*
X227385523Y-53284380D01*
X226766476Y-53284380D01*
X225814095Y-53284380D02*
X226385523Y-53284380D01*
X226099809Y-53284380D02*
X226099809Y-52284380D01*
X226195047Y-52427238D01*
X226290285Y-52522476D01*
X226385523Y-52570095D01*
X208795857Y-65508142D02*
X208843476Y-65555761D01*
X208986333Y-65603380D01*
X209081571Y-65603380D01*
X209224428Y-65555761D01*
X209319666Y-65460523D01*
X209367285Y-65365285D01*
X209414904Y-65174809D01*
X209414904Y-65031952D01*
X209367285Y-64841476D01*
X209319666Y-64746238D01*
X209224428Y-64651000D01*
X209081571Y-64603380D01*
X208986333Y-64603380D01*
X208843476Y-64651000D01*
X208795857Y-64698619D01*
X208414904Y-64698619D02*
X208367285Y-64651000D01*
X208272047Y-64603380D01*
X208033952Y-64603380D01*
X207938714Y-64651000D01*
X207891095Y-64698619D01*
X207843476Y-64793857D01*
X207843476Y-64889095D01*
X207891095Y-65031952D01*
X208462523Y-65603380D01*
X207843476Y-65603380D01*
X207462523Y-64698619D02*
X207414904Y-64651000D01*
X207319666Y-64603380D01*
X207081571Y-64603380D01*
X206986333Y-64651000D01*
X206938714Y-64698619D01*
X206891095Y-64793857D01*
X206891095Y-64889095D01*
X206938714Y-65031952D01*
X207510142Y-65603380D01*
X206891095Y-65603380D01*
X227972857Y-63730142D02*
X228020476Y-63777761D01*
X228163333Y-63825380D01*
X228258571Y-63825380D01*
X228401428Y-63777761D01*
X228496666Y-63682523D01*
X228544285Y-63587285D01*
X228591904Y-63396809D01*
X228591904Y-63253952D01*
X228544285Y-63063476D01*
X228496666Y-62968238D01*
X228401428Y-62873000D01*
X228258571Y-62825380D01*
X228163333Y-62825380D01*
X228020476Y-62873000D01*
X227972857Y-62920619D01*
X227020476Y-63825380D02*
X227591904Y-63825380D01*
X227306190Y-63825380D02*
X227306190Y-62825380D01*
X227401428Y-62968238D01*
X227496666Y-63063476D01*
X227591904Y-63111095D01*
X226687142Y-62825380D02*
X226020476Y-62825380D01*
X226449047Y-63825380D01*
X208478357Y-60555142D02*
X208525976Y-60602761D01*
X208668833Y-60650380D01*
X208764071Y-60650380D01*
X208906928Y-60602761D01*
X209002166Y-60507523D01*
X209049785Y-60412285D01*
X209097404Y-60221809D01*
X209097404Y-60078952D01*
X209049785Y-59888476D01*
X209002166Y-59793238D01*
X208906928Y-59698000D01*
X208764071Y-59650380D01*
X208668833Y-59650380D01*
X208525976Y-59698000D01*
X208478357Y-59745619D01*
X207525976Y-60650380D02*
X208097404Y-60650380D01*
X207811690Y-60650380D02*
X207811690Y-59650380D01*
X207906928Y-59793238D01*
X208002166Y-59888476D01*
X208097404Y-59936095D01*
X206668833Y-59650380D02*
X206859309Y-59650380D01*
X206954547Y-59698000D01*
X207002166Y-59745619D01*
X207097404Y-59888476D01*
X207145023Y-60078952D01*
X207145023Y-60459904D01*
X207097404Y-60555142D01*
X207049785Y-60602761D01*
X206954547Y-60650380D01*
X206764071Y-60650380D01*
X206668833Y-60602761D01*
X206621214Y-60555142D01*
X206573595Y-60459904D01*
X206573595Y-60221809D01*
X206621214Y-60126571D01*
X206668833Y-60078952D01*
X206764071Y-60031333D01*
X206954547Y-60031333D01*
X207049785Y-60078952D01*
X207097404Y-60126571D01*
X207145023Y-60221809D01*
X134786666Y-55602142D02*
X134834285Y-55649761D01*
X134977142Y-55697380D01*
X135072380Y-55697380D01*
X135215238Y-55649761D01*
X135310476Y-55554523D01*
X135358095Y-55459285D01*
X135405714Y-55268809D01*
X135405714Y-55125952D01*
X135358095Y-54935476D01*
X135310476Y-54840238D01*
X135215238Y-54745000D01*
X135072380Y-54697380D01*
X134977142Y-54697380D01*
X134834285Y-54745000D01*
X134786666Y-54792619D01*
X134453333Y-54697380D02*
X133834285Y-54697380D01*
X134167619Y-55078333D01*
X134024761Y-55078333D01*
X133929523Y-55125952D01*
X133881904Y-55173571D01*
X133834285Y-55268809D01*
X133834285Y-55506904D01*
X133881904Y-55602142D01*
X133929523Y-55649761D01*
X134024761Y-55697380D01*
X134310476Y-55697380D01*
X134405714Y-55649761D01*
X134453333Y-55602142D01*
X120308666Y-55602142D02*
X120356285Y-55649761D01*
X120499142Y-55697380D01*
X120594380Y-55697380D01*
X120737238Y-55649761D01*
X120832476Y-55554523D01*
X120880095Y-55459285D01*
X120927714Y-55268809D01*
X120927714Y-55125952D01*
X120880095Y-54935476D01*
X120832476Y-54840238D01*
X120737238Y-54745000D01*
X120594380Y-54697380D01*
X120499142Y-54697380D01*
X120356285Y-54745000D01*
X120308666Y-54792619D01*
X119451523Y-55030714D02*
X119451523Y-55697380D01*
X119689619Y-54649761D02*
X119927714Y-55364047D01*
X119308666Y-55364047D01*
X188729857Y-49633142D02*
X188777476Y-49680761D01*
X188920333Y-49728380D01*
X189015571Y-49728380D01*
X189158428Y-49680761D01*
X189253666Y-49585523D01*
X189301285Y-49490285D01*
X189348904Y-49299809D01*
X189348904Y-49156952D01*
X189301285Y-48966476D01*
X189253666Y-48871238D01*
X189158428Y-48776000D01*
X189015571Y-48728380D01*
X188920333Y-48728380D01*
X188777476Y-48776000D01*
X188729857Y-48823619D01*
X187872714Y-49061714D02*
X187872714Y-49728380D01*
X188110809Y-48680761D02*
X188348904Y-49395047D01*
X187729857Y-49395047D01*
X186920333Y-49061714D02*
X186920333Y-49728380D01*
X187158428Y-48680761D02*
X187396523Y-49395047D01*
X186777476Y-49395047D01*
X178061857Y-49633142D02*
X178109476Y-49680761D01*
X178252333Y-49728380D01*
X178347571Y-49728380D01*
X178490428Y-49680761D01*
X178585666Y-49585523D01*
X178633285Y-49490285D01*
X178680904Y-49299809D01*
X178680904Y-49156952D01*
X178633285Y-48966476D01*
X178585666Y-48871238D01*
X178490428Y-48776000D01*
X178347571Y-48728380D01*
X178252333Y-48728380D01*
X178109476Y-48776000D01*
X178061857Y-48823619D01*
X177157095Y-48728380D02*
X177633285Y-48728380D01*
X177680904Y-49204571D01*
X177633285Y-49156952D01*
X177538047Y-49109333D01*
X177299952Y-49109333D01*
X177204714Y-49156952D01*
X177157095Y-49204571D01*
X177109476Y-49299809D01*
X177109476Y-49537904D01*
X177157095Y-49633142D01*
X177204714Y-49680761D01*
X177299952Y-49728380D01*
X177538047Y-49728380D01*
X177633285Y-49680761D01*
X177680904Y-49633142D01*
X176728523Y-48823619D02*
X176680904Y-48776000D01*
X176585666Y-48728380D01*
X176347571Y-48728380D01*
X176252333Y-48776000D01*
X176204714Y-48823619D01*
X176157095Y-48918857D01*
X176157095Y-49014095D01*
X176204714Y-49156952D01*
X176776142Y-49728380D01*
X176157095Y-49728380D01*
X223654857Y-45061142D02*
X223702476Y-45108761D01*
X223845333Y-45156380D01*
X223940571Y-45156380D01*
X224083428Y-45108761D01*
X224178666Y-45013523D01*
X224226285Y-44918285D01*
X224273904Y-44727809D01*
X224273904Y-44584952D01*
X224226285Y-44394476D01*
X224178666Y-44299238D01*
X224083428Y-44204000D01*
X223940571Y-44156380D01*
X223845333Y-44156380D01*
X223702476Y-44204000D01*
X223654857Y-44251619D01*
X222797714Y-44489714D02*
X222797714Y-45156380D01*
X223035809Y-44108761D02*
X223273904Y-44823047D01*
X222654857Y-44823047D01*
X221845333Y-44156380D02*
X222035809Y-44156380D01*
X222131047Y-44204000D01*
X222178666Y-44251619D01*
X222273904Y-44394476D01*
X222321523Y-44584952D01*
X222321523Y-44965904D01*
X222273904Y-45061142D01*
X222226285Y-45108761D01*
X222131047Y-45156380D01*
X221940571Y-45156380D01*
X221845333Y-45108761D01*
X221797714Y-45061142D01*
X221750095Y-44965904D01*
X221750095Y-44727809D01*
X221797714Y-44632571D01*
X221845333Y-44584952D01*
X221940571Y-44537333D01*
X222131047Y-44537333D01*
X222226285Y-44584952D01*
X222273904Y-44632571D01*
X222321523Y-44727809D01*
X208414857Y-58777142D02*
X208462476Y-58824761D01*
X208605333Y-58872380D01*
X208700571Y-58872380D01*
X208843428Y-58824761D01*
X208938666Y-58729523D01*
X208986285Y-58634285D01*
X209033904Y-58443809D01*
X209033904Y-58300952D01*
X208986285Y-58110476D01*
X208938666Y-58015238D01*
X208843428Y-57920000D01*
X208700571Y-57872380D01*
X208605333Y-57872380D01*
X208462476Y-57920000D01*
X208414857Y-57967619D01*
X207557714Y-58205714D02*
X207557714Y-58872380D01*
X207795809Y-57824761D02*
X208033904Y-58539047D01*
X207414857Y-58539047D01*
X206986285Y-58872380D02*
X206795809Y-58872380D01*
X206700571Y-58824761D01*
X206652952Y-58777142D01*
X206557714Y-58634285D01*
X206510095Y-58443809D01*
X206510095Y-58062857D01*
X206557714Y-57967619D01*
X206605333Y-57920000D01*
X206700571Y-57872380D01*
X206891047Y-57872380D01*
X206986285Y-57920000D01*
X207033904Y-57967619D01*
X207081523Y-58062857D01*
X207081523Y-58300952D01*
X207033904Y-58396190D01*
X206986285Y-58443809D01*
X206891047Y-58491428D01*
X206700571Y-58491428D01*
X206605333Y-58443809D01*
X206557714Y-58396190D01*
X206510095Y-58300952D01*
X135389857Y-74017142D02*
X135437476Y-74064761D01*
X135580333Y-74112380D01*
X135675571Y-74112380D01*
X135818428Y-74064761D01*
X135913666Y-73969523D01*
X135961285Y-73874285D01*
X136008904Y-73683809D01*
X136008904Y-73540952D01*
X135961285Y-73350476D01*
X135913666Y-73255238D01*
X135818428Y-73160000D01*
X135675571Y-73112380D01*
X135580333Y-73112380D01*
X135437476Y-73160000D01*
X135389857Y-73207619D01*
X134437476Y-74112380D02*
X135008904Y-74112380D01*
X134723190Y-74112380D02*
X134723190Y-73112380D01*
X134818428Y-73255238D01*
X134913666Y-73350476D01*
X135008904Y-73398095D01*
X133818428Y-73112380D02*
X133723190Y-73112380D01*
X133627952Y-73160000D01*
X133580333Y-73207619D01*
X133532714Y-73302857D01*
X133485095Y-73493333D01*
X133485095Y-73731428D01*
X133532714Y-73921904D01*
X133580333Y-74017142D01*
X133627952Y-74064761D01*
X133723190Y-74112380D01*
X133818428Y-74112380D01*
X133913666Y-74064761D01*
X133961285Y-74017142D01*
X134008904Y-73921904D01*
X134056523Y-73731428D01*
X134056523Y-73493333D01*
X134008904Y-73302857D01*
X133961285Y-73207619D01*
X133913666Y-73160000D01*
X133818428Y-73112380D01*
X222130857Y-43791142D02*
X222178476Y-43838761D01*
X222321333Y-43886380D01*
X222416571Y-43886380D01*
X222559428Y-43838761D01*
X222654666Y-43743523D01*
X222702285Y-43648285D01*
X222749904Y-43457809D01*
X222749904Y-43314952D01*
X222702285Y-43124476D01*
X222654666Y-43029238D01*
X222559428Y-42934000D01*
X222416571Y-42886380D01*
X222321333Y-42886380D01*
X222178476Y-42934000D01*
X222130857Y-42981619D01*
X221273714Y-43219714D02*
X221273714Y-43886380D01*
X221511809Y-42838761D02*
X221749904Y-43553047D01*
X221130857Y-43553047D01*
X220273714Y-42886380D02*
X220749904Y-42886380D01*
X220797523Y-43362571D01*
X220749904Y-43314952D01*
X220654666Y-43267333D01*
X220416571Y-43267333D01*
X220321333Y-43314952D01*
X220273714Y-43362571D01*
X220226095Y-43457809D01*
X220226095Y-43695904D01*
X220273714Y-43791142D01*
X220321333Y-43838761D01*
X220416571Y-43886380D01*
X220654666Y-43886380D01*
X220749904Y-43838761D01*
X220797523Y-43791142D01*
X219844857Y-48077380D02*
X220178190Y-47601190D01*
X220416285Y-48077380D02*
X220416285Y-47077380D01*
X220035333Y-47077380D01*
X219940095Y-47125000D01*
X219892476Y-47172619D01*
X219844857Y-47267857D01*
X219844857Y-47410714D01*
X219892476Y-47505952D01*
X219940095Y-47553571D01*
X220035333Y-47601190D01*
X220416285Y-47601190D01*
X218892476Y-48077380D02*
X219463904Y-48077380D01*
X219178190Y-48077380D02*
X219178190Y-47077380D01*
X219273428Y-47220238D01*
X219368666Y-47315476D01*
X219463904Y-47363095D01*
X218511523Y-47172619D02*
X218463904Y-47125000D01*
X218368666Y-47077380D01*
X218130571Y-47077380D01*
X218035333Y-47125000D01*
X217987714Y-47172619D01*
X217940095Y-47267857D01*
X217940095Y-47363095D01*
X217987714Y-47505952D01*
X218559142Y-48077380D01*
X217940095Y-48077380D01*
X217701714Y-48077380D02*
X217701714Y-47077380D01*
X217130285Y-48077380D01*
X217130285Y-47077380D01*
X216082666Y-47982142D02*
X216130285Y-48029761D01*
X216273142Y-48077380D01*
X216368380Y-48077380D01*
X216511238Y-48029761D01*
X216606476Y-47934523D01*
X216654095Y-47839285D01*
X216701714Y-47648809D01*
X216701714Y-47505952D01*
X216654095Y-47315476D01*
X216606476Y-47220238D01*
X216511238Y-47125000D01*
X216368380Y-47077380D01*
X216273142Y-47077380D01*
X216130285Y-47125000D01*
X216082666Y-47172619D01*
D13*
X195605000Y-32600900D02*
X195605000Y-78320900D01*
X241325000Y-32600900D02*
X238785000Y-35140900D01*
X241325000Y-78320900D02*
X241325000Y-32600900D01*
X195605000Y-78320900D02*
X241325000Y-78320900D01*
X241325000Y-32600900D02*
X195605000Y-32600900D01*
D11*
X247896748Y-117194000D02*
X248419252Y-117194000D01*
X247896748Y-115724000D02*
X248419252Y-115724000D01*
X166777936Y-32485000D02*
X167232064Y-32485000D01*
X166777936Y-31015000D02*
X167232064Y-31015000D01*
X203589000Y-108546000D02*
X204589000Y-108546000D01*
X203589000Y-104306000D02*
X204589000Y-104306000D01*
X244931000Y-101766000D02*
X243931000Y-101766000D01*
X244931000Y-106006000D02*
X243931000Y-106006000D01*
X183046000Y-53586000D02*
X183046000Y-52586000D01*
X187286000Y-53586000D02*
X187286000Y-52586000D01*
X243837000Y-30388000D02*
X244837000Y-30388000D01*
X243837000Y-34628000D02*
X244837000Y-34628000D01*
X189222000Y-72732000D02*
X188222000Y-72732000D01*
X189222000Y-68492000D02*
X188222000Y-68492000D01*
X230605000Y-44802248D02*
X230605000Y-45324752D01*
X229135000Y-44802248D02*
X229135000Y-45324752D01*
X102100748Y-109501000D02*
X102623252Y-109501000D01*
X102100748Y-110971000D02*
X102623252Y-110971000D01*
X206148000Y-52985936D02*
X206148000Y-53440064D01*
X207618000Y-52985936D02*
X207618000Y-53440064D01*
X209370664Y-47115400D02*
X208916536Y-47115400D01*
X209370664Y-45645400D02*
X208916536Y-45645400D01*
X213587064Y-44677000D02*
X213132936Y-44677000D01*
X213587064Y-43207000D02*
X213132936Y-43207000D01*
X116686064Y-110644000D02*
X116231936Y-110644000D01*
X116686064Y-112114000D02*
X116231936Y-112114000D01*
X209415000Y-108546000D02*
X208415000Y-108546000D01*
X209415000Y-104306000D02*
X208415000Y-104306000D01*
X134659000Y-84701000D02*
X134659000Y-83701000D01*
X138899000Y-84701000D02*
X138899000Y-83701000D01*
X161346000Y-106363000D02*
X161346000Y-107363000D01*
X157106000Y-106363000D02*
X157106000Y-107363000D01*
X150170000Y-106363000D02*
X150170000Y-107363000D01*
X145930000Y-106363000D02*
X145930000Y-107363000D01*
X144582000Y-106363000D02*
X144582000Y-107363000D01*
X140342000Y-106363000D02*
X140342000Y-107363000D01*
X229135000Y-49156252D02*
X229135000Y-48633748D01*
X230605000Y-49156252D02*
X230605000Y-48633748D01*
X102100748Y-107161000D02*
X102623252Y-107161000D01*
X102100748Y-105691000D02*
X102623252Y-105691000D01*
X247896748Y-119407000D02*
X248419252Y-119407000D01*
X247896748Y-120877000D02*
X248419252Y-120877000D01*
X209370664Y-44677000D02*
X208916536Y-44677000D01*
X209370664Y-43207000D02*
X208916536Y-43207000D01*
X151518000Y-106363000D02*
X151518000Y-107363000D01*
X155758000Y-106363000D02*
X155758000Y-107363000D01*
X213640936Y-109828000D02*
X214095064Y-109828000D01*
X213640936Y-108358000D02*
X214095064Y-108358000D01*
X140234936Y-29999000D02*
X140689064Y-29999000D01*
X140234936Y-31469000D02*
X140689064Y-31469000D01*
X127119748Y-57631000D02*
X127642252Y-57631000D01*
X127119748Y-56161000D02*
X127642252Y-56161000D01*
X120403252Y-64924000D02*
X119880748Y-64924000D01*
X120403252Y-66394000D02*
X119880748Y-66394000D01*
X127119748Y-66394000D02*
X127642252Y-66394000D01*
X127119748Y-64924000D02*
X127642252Y-64924000D01*
X134358748Y-64924000D02*
X134881252Y-64924000D01*
X134358748Y-66394000D02*
X134881252Y-66394000D01*
X120403252Y-74576000D02*
X119880748Y-74576000D01*
X120403252Y-76046000D02*
X119880748Y-76046000D01*
X127642252Y-74576000D02*
X127119748Y-74576000D01*
X127642252Y-76046000D02*
X127119748Y-76046000D01*
X229115252Y-67664000D02*
X228592748Y-67664000D01*
X229115252Y-66194000D02*
X228592748Y-66194000D01*
X212971748Y-66194000D02*
X213494252Y-66194000D01*
X212971748Y-67664000D02*
X213494252Y-67664000D01*
X218051748Y-66194000D02*
X218574252Y-66194000D01*
X218051748Y-67664000D02*
X218574252Y-67664000D01*
X223131748Y-66194000D02*
X223654252Y-66194000D01*
X223131748Y-67664000D02*
X223654252Y-67664000D01*
X229135000Y-57968248D02*
X229135000Y-58490752D01*
X230605000Y-57968248D02*
X230605000Y-58490752D01*
X229135000Y-52443748D02*
X229135000Y-52966252D01*
X230605000Y-52443748D02*
X230605000Y-52966252D01*
X207532748Y-66194000D02*
X208055252Y-66194000D01*
X207532748Y-67664000D02*
X208055252Y-67664000D01*
X230605000Y-63048248D02*
X230605000Y-63570752D01*
X229135000Y-63048248D02*
X229135000Y-63570752D01*
X207510748Y-62584000D02*
X208033252Y-62584000D01*
X207510748Y-61114000D02*
X208033252Y-61114000D01*
X134358748Y-57631000D02*
X134881252Y-57631000D01*
X134358748Y-56161000D02*
X134881252Y-56161000D01*
X119880748Y-56161000D02*
X120403252Y-56161000D01*
X119880748Y-57631000D02*
X120403252Y-57631000D01*
X184919252Y-50011000D02*
X184396748Y-50011000D01*
X184919252Y-48541000D02*
X184396748Y-48541000D01*
X180586748Y-50011000D02*
X181109252Y-50011000D01*
X180586748Y-48541000D02*
X181109252Y-48541000D01*
X226575252Y-43270500D02*
X226052748Y-43270500D01*
X226575252Y-44740500D02*
X226052748Y-44740500D01*
X207574248Y-55970500D02*
X208096752Y-55970500D01*
X207574248Y-57440500D02*
X208096752Y-57440500D01*
X88188000Y-46834030D02*
X88188000Y-47656500D01*
X89643000Y-44126500D02*
X139108000Y-44126500D01*
X88319529Y-46016500D02*
X88188000Y-46016500D01*
X88188000Y-46016500D02*
X88188000Y-46218970D01*
X89643000Y-44126500D02*
X89643000Y-44693029D01*
X88883000Y-44126500D02*
X88123000Y-44126500D01*
X89643000Y-45819971D02*
X89643000Y-45963029D01*
X139108000Y-45564030D02*
X139108000Y-46218970D01*
X139108000Y-44126500D02*
X139108000Y-44948970D01*
X88123000Y-44126500D02*
X88123000Y-45256500D01*
X88188000Y-47656500D02*
X139108000Y-47656500D01*
X139108000Y-46834030D02*
X139108000Y-47656500D01*
X89589529Y-46016500D02*
X89446471Y-46016500D01*
X89589529Y-98953000D02*
X89446471Y-98953000D01*
X88188000Y-100593000D02*
X139108000Y-100593000D01*
X89643000Y-98756471D02*
X89643000Y-98899529D01*
X89643000Y-97063000D02*
X89643000Y-97629529D01*
X88883000Y-97063000D02*
X88123000Y-97063000D01*
X88188000Y-99770530D02*
X88188000Y-100593000D01*
X89643000Y-97063000D02*
X139108000Y-97063000D01*
X139108000Y-99770530D02*
X139108000Y-100593000D01*
X139108000Y-98500530D02*
X139108000Y-99155470D01*
X88319529Y-98953000D02*
X88188000Y-98953000D01*
X139108000Y-97063000D02*
X139108000Y-97885470D01*
X88188000Y-98953000D02*
X88188000Y-99155470D01*
X88123000Y-97063000D02*
X88123000Y-98193000D01*
X105369000Y-113949500D02*
X104369000Y-114949500D01*
X104369000Y-114949500D02*
X104369000Y-121864500D01*
X235839000Y-113949500D02*
X105369000Y-113949500D01*
X104369000Y-121864500D02*
X235839000Y-121864500D01*
X235839000Y-121864500D02*
X235839000Y-113949500D01*
X134881252Y-76046000D02*
X134358748Y-76046000D01*
X134881252Y-74576000D02*
X134358748Y-74576000D01*
X217946748Y-43270500D02*
X218469252Y-43270500D01*
X217946748Y-44740500D02*
X218469252Y-44740500D01*
X217958936Y-45239000D02*
X218413064Y-45239000D01*
X217958936Y-46709000D02*
X218413064Y-46709000D01*
M02*
