G04 #@! TF.GenerationSoftware,KiCad,Pcbnew,(6.0.5-0)*
G04 #@! TF.CreationDate,2022-07-01T16:01:09+02:00*
G04 #@! TF.ProjectId,Z3660_v02,5a333636-305f-4763-9032-2e6b69636164,rev?*
G04 #@! TF.SameCoordinates,Original*
G04 #@! TF.FileFunction,Paste,Bot*
G04 #@! TF.FilePolarity,Positive*
%FSLAX46Y46*%
G04 Gerber Fmt 4.6, Leading zero omitted, Abs format (unit mm)*
G04 Created by KiCad (PCBNEW (6.0.5-0)) date 2022-07-01 16:01:09*
%MOMM*%
%LPD*%
G01*
G04 APERTURE LIST*
G04 Aperture macros list*
%AMRoundRect*
0 Rectangle with rounded corners*
0 $1 Rounding radius*
0 $2 $3 $4 $5 $6 $7 $8 $9 X,Y pos of 4 corners*
0 Add a 4 corners polygon primitive as box body*
4,1,4,$2,$3,$4,$5,$6,$7,$8,$9,$2,$3,0*
0 Add four circle primitives for the rounded corners*
1,1,$1+$1,$2,$3*
1,1,$1+$1,$4,$5*
1,1,$1+$1,$6,$7*
1,1,$1+$1,$8,$9*
0 Add four rect primitives between the rounded corners*
20,1,$1+$1,$2,$3,$4,$5,0*
20,1,$1+$1,$4,$5,$6,$7,0*
20,1,$1+$1,$6,$7,$8,$9,0*
20,1,$1+$1,$8,$9,$2,$3,0*%
G04 Aperture macros list end*
%ADD10RoundRect,0.250000X-0.337500X-0.475000X0.337500X-0.475000X0.337500X0.475000X-0.337500X0.475000X0*%
%ADD11RoundRect,0.249999X-0.350001X-0.450001X0.350001X-0.450001X0.350001X0.450001X-0.350001X0.450001X0*%
%ADD12R,0.800000X0.300000*%
%ADD13R,0.300000X0.800000*%
%ADD14RoundRect,0.250000X-0.475000X0.337500X-0.475000X-0.337500X0.475000X-0.337500X0.475000X0.337500X0*%
%ADD15RoundRect,0.249999X-0.450001X0.350001X-0.450001X-0.350001X0.450001X-0.350001X0.450001X0.350001X0*%
%ADD16RoundRect,0.249999X0.350001X0.450001X-0.350001X0.450001X-0.350001X-0.450001X0.350001X-0.450001X0*%
%ADD17RoundRect,0.250000X0.475000X-0.337500X0.475000X0.337500X-0.475000X0.337500X-0.475000X-0.337500X0*%
%ADD18RoundRect,0.250000X0.337500X0.475000X-0.337500X0.475000X-0.337500X-0.475000X0.337500X-0.475000X0*%
%ADD19RoundRect,0.250000X-0.350000X-0.450000X0.350000X-0.450000X0.350000X0.450000X-0.350000X0.450000X0*%
G04 APERTURE END LIST*
D10*
X247120500Y-116459000D03*
X249195500Y-116459000D03*
D11*
X166005000Y-31750000D03*
X168005000Y-31750000D03*
D12*
X204989000Y-104676000D03*
X204989000Y-105176000D03*
X204989000Y-105676000D03*
X204989000Y-106176000D03*
X204989000Y-106676000D03*
X204989000Y-107176000D03*
X204989000Y-107676000D03*
X204989000Y-108176000D03*
X203189000Y-108176000D03*
X203189000Y-107676000D03*
X203189000Y-107176000D03*
X203189000Y-106676000D03*
X203189000Y-106176000D03*
X203189000Y-105676000D03*
X203189000Y-105176000D03*
X203189000Y-104676000D03*
X243531000Y-105636000D03*
X243531000Y-105136000D03*
X243531000Y-104636000D03*
X243531000Y-104136000D03*
X243531000Y-103636000D03*
X243531000Y-103136000D03*
X243531000Y-102636000D03*
X243531000Y-102136000D03*
X245331000Y-102136000D03*
X245331000Y-102636000D03*
X245331000Y-103136000D03*
X245331000Y-103636000D03*
X245331000Y-104136000D03*
X245331000Y-104636000D03*
X245331000Y-105136000D03*
X245331000Y-105636000D03*
D13*
X183416000Y-52186000D03*
X183916000Y-52186000D03*
X184416000Y-52186000D03*
X184916000Y-52186000D03*
X185416000Y-52186000D03*
X185916000Y-52186000D03*
X186416000Y-52186000D03*
X186916000Y-52186000D03*
X186916000Y-53986000D03*
X186416000Y-53986000D03*
X185916000Y-53986000D03*
X185416000Y-53986000D03*
X184916000Y-53986000D03*
X184416000Y-53986000D03*
X183916000Y-53986000D03*
X183416000Y-53986000D03*
D12*
X245237000Y-30758000D03*
X245237000Y-31258000D03*
X245237000Y-31758000D03*
X245237000Y-32258000D03*
X245237000Y-32758000D03*
X245237000Y-33258000D03*
X245237000Y-33758000D03*
X245237000Y-34258000D03*
X243437000Y-34258000D03*
X243437000Y-33758000D03*
X243437000Y-33258000D03*
X243437000Y-32758000D03*
X243437000Y-32258000D03*
X243437000Y-31758000D03*
X243437000Y-31258000D03*
X243437000Y-30758000D03*
X187822000Y-72362000D03*
X187822000Y-71862000D03*
X187822000Y-71362000D03*
X187822000Y-70862000D03*
X187822000Y-70362000D03*
X187822000Y-69862000D03*
X187822000Y-69362000D03*
X187822000Y-68862000D03*
X189622000Y-68862000D03*
X189622000Y-69362000D03*
X189622000Y-69862000D03*
X189622000Y-70362000D03*
X189622000Y-70862000D03*
X189622000Y-71362000D03*
X189622000Y-71862000D03*
X189622000Y-72362000D03*
D14*
X229870000Y-44026000D03*
X229870000Y-46101000D03*
D10*
X101324500Y-110236000D03*
X103399500Y-110236000D03*
D15*
X206883000Y-52213000D03*
X206883000Y-54213000D03*
D16*
X210143600Y-46380400D03*
X208143600Y-46380400D03*
X214360000Y-43942000D03*
X212360000Y-43942000D03*
X117459000Y-111379000D03*
X115459000Y-111379000D03*
D12*
X208015000Y-108176000D03*
X208015000Y-107676000D03*
X208015000Y-107176000D03*
X208015000Y-106676000D03*
X208015000Y-106176000D03*
X208015000Y-105676000D03*
X208015000Y-105176000D03*
X208015000Y-104676000D03*
X209815000Y-104676000D03*
X209815000Y-105176000D03*
X209815000Y-105676000D03*
X209815000Y-106176000D03*
X209815000Y-106676000D03*
X209815000Y-107176000D03*
X209815000Y-107676000D03*
X209815000Y-108176000D03*
D13*
X135029000Y-83301000D03*
X135529000Y-83301000D03*
X136029000Y-83301000D03*
X136529000Y-83301000D03*
X137029000Y-83301000D03*
X137529000Y-83301000D03*
X138029000Y-83301000D03*
X138529000Y-83301000D03*
X138529000Y-85101000D03*
X138029000Y-85101000D03*
X137529000Y-85101000D03*
X137029000Y-85101000D03*
X136529000Y-85101000D03*
X136029000Y-85101000D03*
X135529000Y-85101000D03*
X135029000Y-85101000D03*
X160976000Y-107763000D03*
X160476000Y-107763000D03*
X159976000Y-107763000D03*
X159476000Y-107763000D03*
X158976000Y-107763000D03*
X158476000Y-107763000D03*
X157976000Y-107763000D03*
X157476000Y-107763000D03*
X157476000Y-105963000D03*
X157976000Y-105963000D03*
X158476000Y-105963000D03*
X158976000Y-105963000D03*
X159476000Y-105963000D03*
X159976000Y-105963000D03*
X160476000Y-105963000D03*
X160976000Y-105963000D03*
X149800000Y-107763000D03*
X149300000Y-107763000D03*
X148800000Y-107763000D03*
X148300000Y-107763000D03*
X147800000Y-107763000D03*
X147300000Y-107763000D03*
X146800000Y-107763000D03*
X146300000Y-107763000D03*
X146300000Y-105963000D03*
X146800000Y-105963000D03*
X147300000Y-105963000D03*
X147800000Y-105963000D03*
X148300000Y-105963000D03*
X148800000Y-105963000D03*
X149300000Y-105963000D03*
X149800000Y-105963000D03*
X144212000Y-107763000D03*
X143712000Y-107763000D03*
X143212000Y-107763000D03*
X142712000Y-107763000D03*
X142212000Y-107763000D03*
X141712000Y-107763000D03*
X141212000Y-107763000D03*
X140712000Y-107763000D03*
X140712000Y-105963000D03*
X141212000Y-105963000D03*
X141712000Y-105963000D03*
X142212000Y-105963000D03*
X142712000Y-105963000D03*
X143212000Y-105963000D03*
X143712000Y-105963000D03*
X144212000Y-105963000D03*
D17*
X229870000Y-49932500D03*
X229870000Y-47857500D03*
D10*
X101324500Y-106426000D03*
X103399500Y-106426000D03*
X247120500Y-120142000D03*
X249195500Y-120142000D03*
D16*
X210143600Y-43942000D03*
X208143600Y-43942000D03*
D13*
X155388000Y-107763000D03*
X154888000Y-107763000D03*
X154388000Y-107763000D03*
X153888000Y-107763000D03*
X153388000Y-107763000D03*
X152888000Y-107763000D03*
X152388000Y-107763000D03*
X151888000Y-107763000D03*
X151888000Y-105963000D03*
X152388000Y-105963000D03*
X152888000Y-105963000D03*
X153388000Y-105963000D03*
X153888000Y-105963000D03*
X154388000Y-105963000D03*
X154888000Y-105963000D03*
X155388000Y-105963000D03*
D11*
X212868000Y-109093000D03*
X214868000Y-109093000D03*
X139462000Y-30734000D03*
X141462000Y-30734000D03*
D10*
X126343500Y-56896000D03*
X128418500Y-56896000D03*
D18*
X121179500Y-65659000D03*
X119104500Y-65659000D03*
D10*
X126343500Y-65659000D03*
X128418500Y-65659000D03*
X133582500Y-65659000D03*
X135657500Y-65659000D03*
D18*
X121179500Y-75311000D03*
X119104500Y-75311000D03*
X128418500Y-75311000D03*
X126343500Y-75311000D03*
X229891500Y-66929000D03*
X227816500Y-66929000D03*
D10*
X212195500Y-66929000D03*
X214270500Y-66929000D03*
X217275500Y-66929000D03*
X219350500Y-66929000D03*
X222355500Y-66929000D03*
X224430500Y-66929000D03*
D14*
X229870000Y-57192000D03*
X229870000Y-59267000D03*
X229870000Y-51667500D03*
X229870000Y-53742500D03*
D10*
X206756500Y-66929000D03*
X208831500Y-66929000D03*
D14*
X229870000Y-62272000D03*
X229870000Y-64347000D03*
D10*
X206734500Y-61849000D03*
X208809500Y-61849000D03*
X133582500Y-56896000D03*
X135657500Y-56896000D03*
X119104500Y-56896000D03*
X121179500Y-56896000D03*
D18*
X185695500Y-49276000D03*
X183620500Y-49276000D03*
D10*
X179810500Y-49276000D03*
X181885500Y-49276000D03*
D18*
X227351500Y-44005500D03*
X225276500Y-44005500D03*
D10*
X206798000Y-56705500D03*
X208873000Y-56705500D03*
D18*
X135657500Y-75311000D03*
X133582500Y-75311000D03*
D10*
X217170500Y-44005500D03*
X219245500Y-44005500D03*
D19*
X217186000Y-45974000D03*
X219186000Y-45974000D03*
M02*
