M48
; DRILL file {KiCad (6.0.5-0)} date Friday, 01 July 2022 at 16:01:17
; FORMAT={-:-/ absolute / inch / decimal}
; #@! TF.CreationDate,2022-07-01T16:01:17+02:00
; #@! TF.GenerationSoftware,Kicad,Pcbnew,(6.0.5-0)
; #@! TF.FileFunction,Plated,1,4,PTH
FMAT,2
INCH
; #@! TA.AperFunction,Plated,PTH,ViaDrill
T1C0.0118
; #@! TA.AperFunction,Plated,PTH,ViaDrill
T2C0.0157
; #@! TA.AperFunction,Plated,PTH,ComponentDrill
T3C0.0236
; #@! TA.AperFunction,Plated,PTH,ComponentDrill
T4C0.0300
; #@! TA.AperFunction,Plated,PTH,ComponentDrill
T5C0.0315
; #@! TA.AperFunction,Plated,PTH,ComponentDrill
T6C0.0394
; #@! TA.AperFunction,Plated,PTH,ComponentDrill
T7C0.0433
%
G90
G05
T1
X3.925Y-1.705
X3.9686Y-2.3247
X3.9946Y-2.3507
X4.0186Y-2.3267
X4.0422Y-3.09
X4.0446Y-2.3507
X4.0556Y-3.1163
X4.0665Y-3.1437
X4.07Y-1.47
X4.0706Y-2.3247
X4.0774Y-3.1711
X4.0937Y-3.1957
X4.0966Y-2.3507
X4.101Y-1.471
X4.107Y-3.2221
X4.1226Y-2.3247
X4.1242Y-3.246
X4.1305Y-1.47
X4.1389Y-3.2716
X4.1466Y-2.3507
X4.161Y-1.4706
X4.1905Y-1.47
X4.205Y-2.875
X4.22Y-1.47
X4.23Y-2.85
X4.245Y-3.445
X4.245Y-3.485
X4.25Y-1.47
X4.255Y-2.825
X4.2618Y-3.02
X4.28Y-1.47
X4.2906Y-3.2826
X4.35Y-2.595
X4.35Y-3.2674
X4.3762Y-2.5224
X4.445Y-2.985
X4.4787Y-2.3874
X4.48Y-2.355
X4.5155Y-2.8737
X4.53Y-3.3127
X4.53Y-1.515
X4.53Y-3.345
X4.5393Y-2.2166
X4.5615Y-1.5155
X4.5946Y-1.5149
X4.6037Y-1.9826
X4.625Y-1.515
X4.645Y-2.775
X4.6476Y-1.8701
X4.6487Y-2.41
X4.6492Y-2.8642
X4.65Y-2.895
X4.65Y-2.8347
X4.6562Y-1.515
X4.6865Y-1.515
X4.6997Y-2.6952
X4.716Y-1.515
X4.717Y-2.1093
X4.7191Y-2.8635
X4.725Y-2.68
X4.73Y-2.545
X4.7341Y-2.8889
X4.7455Y-1.515
X4.75Y-2.11
X4.7515Y-2.4265
X4.7674Y-2.52
X4.7689Y-1.9989
X4.7898Y-3.0991
X4.8053Y-2.1128
X4.81Y-2.4
X4.815Y-2.67
X4.82Y-2.0118
X4.8212Y-3.0974
X4.84Y-2.96
X4.845Y-2.92
X4.8744Y-2.14
X4.895Y-2.4745
X4.9039Y-2.1398
X4.935Y-2.14
X4.98Y-2.4
X4.995Y-1.525
X5.025Y-1.525
X5.055Y-1.525
X5.065Y-3.29
X5.0722Y-2.6568
X5.0875Y-1.5249
X5.095Y-3.3
X5.1012Y-2.6513
X5.12Y-1.525
X5.13Y-2.425
X5.13Y-2.645
X5.135Y-3.4145
X5.135Y-3.444
X5.15Y-1.525
X5.15Y-2.9477
X5.1502Y-2.98
X5.1635Y-2.6341
X5.175Y-3.575
X5.1791Y-2.5198
X5.18Y-1.525
X5.1804Y-2.5652
X5.185Y-2.9477
X5.185Y-2.98
X5.1863Y-3.5083
X5.1949Y-1.9262
X5.2003Y-2.5403
X5.21Y-1.525
X5.2244Y-1.9262
X5.2349Y-4.1526
X5.2539Y-1.9262
X5.26Y-4.13
X5.305Y-3.4606
X5.305Y-3.4901
X5.32Y-2.385
X5.3268Y-1.9
X5.34Y-3.455
X5.3436Y-3.5761
X5.3626Y-3.4341
X5.3906Y-3.4509
X5.415Y-2.16
X5.4158Y-3.4343
X5.43Y-4.555
X5.435Y-4.24
X5.44Y-2.18
X5.4648Y-2.16
X5.485Y-2.605
X5.4867Y-2.1818
X5.51Y-4.295
X5.5105Y-2.1644
X5.515Y-2.385
X5.52Y-3.055
X5.522Y-2.948
X5.5233Y-2.9813
X5.5353Y-4.3102
X5.5506Y-1.7076
X5.5513Y-1.8128
X5.5555Y-2.9495
X5.5606Y-4.3254
X5.575Y-2.01
X5.5806Y-1.7076
X5.585Y-2.95
X5.59Y-4.34
X5.595Y-3.1
X5.6105Y-1.7076
X5.6145Y-2.95
X5.615Y-3.015
X5.62Y-4.355
X5.63Y-2.035
X5.6409Y-4.3341
X5.644Y-2.95
X5.6478Y-2.6179
X5.6626Y-4.31
X5.6735Y-2.95
X5.685Y-4.285
X5.69Y-2.6183
X5.6959Y-2.0794
X5.72Y-2.06
X5.7286Y-1.8605
X5.7445Y-1.605
X5.75Y-1.78
X5.7648Y-1.58
X5.79Y-1.6048
X5.79Y-1.78
X5.81Y-1.58
X5.8356Y-1.6046
X5.855Y-1.785
X5.8595Y-1.5802
X5.8848Y-1.605
X5.885Y-3.09
X5.89Y-1.93
X5.9021Y-2.955
X5.905Y-1.58
X5.91Y-1.8313
X5.91Y-4.35
X5.92Y-4.405
X5.93Y-1.605
X5.9433Y-2.0187
X5.955Y-1.58
X5.9591Y-2.09
X5.9769Y-1.6048
X5.9987Y-3.0424
X6.0Y-1.58
X6.0032Y-2.7704
X6.0128Y-4.3141
X6.015Y-4.4474
X6.0199Y-2.2272
X6.0221Y-2.2566
X6.0221Y-1.605
X6.03Y-2.75
X6.035Y-2.8334
X6.0361Y-2.8039
X6.0367Y-4.3314
X6.045Y-1.58
X6.045Y-2.5067
X6.045Y-2.97
X6.05Y-4.47
X6.0509Y-2.7291
X6.055Y-2.6659
X6.0596Y-4.35
X6.065Y-2.305
X6.0674Y-1.605
X6.075Y-2.5224
X6.085Y-4.365
X6.09Y-1.58
X6.1049Y-2.3235
X6.105Y-2.535
X6.1107Y-4.3843
X6.1146Y-1.9801
X6.119Y-2.4359
X6.127Y-3.0217
X6.13Y-2.85
X6.1307Y-2.3387
X6.1349Y-2.0015
X6.1415Y-1.5932
X6.1427Y-3.065
X6.145Y-4.495
X6.1583Y-2.0196
X6.16Y-2.355
X6.1625Y-1.5725
X6.165Y-4.38
X6.1816Y-2.0377
X6.1834Y-1.5516
X6.19Y-2.3707
X6.19Y-4.4
X6.2043Y-1.5307
X6.2054Y-2.055
X6.215Y-4.38
X6.22Y-2.38
X6.2251Y-1.5099
X6.2289Y-2.073
X6.2398Y-4.4
X6.2415Y-2.75
X6.2415Y-2.935
X6.2461Y-1.4891
X6.2557Y-2.0853
X6.26Y-4.575
X6.2624Y-4.38
X6.265Y-3.065
X6.2664Y-1.4677
X6.2852Y-2.085
X6.2852Y-4.4297
X6.2852Y-2.78
X6.29Y-1.45
X6.305Y-4.405
X6.3304Y-4.43
X6.3629Y-3.0429
X6.37Y-2.86
X6.41Y-2.67
X6.415Y-2.94
X6.415Y-2.985
X6.4237Y-4.2505
X6.4249Y-4.2052
X6.425Y-4.16
X6.425Y-4.3
X6.4397Y-2.88
X6.441Y-2.671
X6.4434Y-4.1366
X6.445Y-4.23
X6.445Y-4.2752
X6.4459Y-4.1826
X6.48Y-1.275
X6.5Y-3.86
X6.53Y-1.91
X6.5432Y-2.4013
X6.5685Y-2.4171
X6.594Y-2.4328
X6.6192Y-2.4485
X6.63Y-4.145
X6.635Y-2.76
X6.6444Y-2.4643
X6.6697Y-2.4798
X6.675Y-4.18
X6.6946Y-2.4957
X6.7Y-4.155
X6.7197Y-2.5113
X6.726Y-4.7667
X6.735Y-3.565
X6.76Y-4.105
X6.7626Y-2.865
X6.785Y-3.5124
X6.785Y-4.235
X6.805Y-1.24
X6.81Y-2.865
X6.81Y-3.5626
X6.81Y-4.105
X6.835Y-4.215
X6.8351Y-3.5124
X6.86Y-2.865
X6.86Y-3.5626
X6.86Y-4.105
X6.885Y-3.5124
X6.885Y-4.2
X6.91Y-2.865
X6.91Y-4.105
X6.9104Y-3.5626
X6.935Y-3.5124
X6.935Y-4.185
X6.945Y-2.23
X6.96Y-2.865
X6.96Y-3.5626
X6.96Y-4.105
X6.9706Y-2.5394
X6.985Y-3.5124
X6.985Y-4.17
X7.01Y-2.865
X7.01Y-3.5626
X7.01Y-4.105
X7.035Y-2.3402
X7.035Y-3.5124
X7.035Y-4.155
X7.045Y-2.23
X7.0572Y-3.5626
X7.06Y-2.865
X7.06Y-4.105
X7.0802Y-3.5124
X7.085Y-4.14
X7.105Y-2.32
X7.11Y-3.5626
X7.11Y-4.105
X7.1121Y-2.863
X7.135Y-3.5124
X7.135Y-4.125
X7.155Y-2.32
X7.1595Y-3.5626
X7.185Y-4.3674
X7.22Y-2.585
X7.235Y-3.505
X7.26Y-2.18
X7.2641Y-3.7724
X7.2645Y-3.9199
X7.265Y-3.82
X7.265Y-3.87
X7.28Y-3.945
X7.2823Y-3.895
X7.285Y-3.795
X7.285Y-3.845
X7.3Y-2.19
X7.3149Y-3.184
X7.315Y-3.2802
X7.315Y-3.235
X7.3349Y-3.1623
X7.335Y-2.2011
X7.335Y-3.21
X7.3352Y-3.2576
X7.36Y-3.1466
X7.3736Y-2.6787
X7.375Y-2.3
X7.375Y-4.305
X7.39Y-3.1309
X7.3992Y-2.6641
X7.42Y-3.905
X7.42Y-4.285
X7.4231Y-2.6467
X7.4482Y-2.6312
X7.4728Y-2.615
X7.4993Y-2.6002
X7.5247Y-2.5852
X7.53Y-3.63
X7.53Y-4.09
X7.55Y-2.57
X7.555Y-4.03
X7.555Y-4.27
X7.5632Y-2.1833
X7.575Y-2.5501
X7.5794Y-3.6174
X7.58Y-3.7903
X7.58Y-4.2489
X7.6Y-1.215
X7.605Y-2.255
X7.605Y-3.472
X7.6275Y-2.1545
X7.63Y-3.6007
X7.63Y-3.8061
X7.63Y-4.2332
X7.655Y-3.4563
X7.6561Y-2.1311
X7.675Y-2.0801
X7.68Y-3.5819
X7.68Y-3.8218
X7.68Y-4.2174
X7.7Y-1.6471
X7.7003Y-1.6176
X7.705Y-3.4405
X7.73Y-3.5662
X7.73Y-3.8375
X7.73Y-4.2017
X7.755Y-3.4248
X7.78Y-3.5504
X7.78Y-3.8533
X7.78Y-4.186
X7.805Y-3.4091
X7.83Y-3.5347
X7.83Y-3.869
X7.83Y-4.1702
X7.855Y-3.3933
X7.88Y-3.885
X7.88Y-4.155
X7.8801Y-3.519
X7.9031Y-3.3776
X7.92Y-4.545
X7.925Y-4.5
X7.93Y-3.5032
X7.93Y-3.9004
X7.93Y-4.14
X7.9503Y-4.4848
X7.9548Y-3.3611
X7.9805Y-4.3674
X7.985Y-4.485
X8.0165Y-4.4986
X8.02Y-4.545
X8.03Y-4.09
X8.11Y-3.505
X8.18Y-4.63
X8.275Y-4.625
X8.295Y-3.8903
X8.295Y-4.47
X8.32Y-4.27
X8.335Y-3.8746
X8.345Y-3.625
X8.37Y-3.25
X8.37Y-3.37
X8.37Y-4.085
X8.3712Y-4.1157
X8.395Y-3.61
X8.401Y-2.3734
X8.4188Y-4.1026
X8.42Y-3.25
X8.42Y-3.385
X8.4207Y-4.1326
X8.4305Y-2.3744
X8.445Y-3.595
X8.46Y-2.375
X8.4688Y-4.1183
X8.47Y-3.25
X8.4701Y-3.4
X8.4707Y-4.1484
X8.49Y-2.374
X8.495Y-3.58
X8.5191Y-4.1341
X8.5195Y-2.375
X8.52Y-3.25
X8.52Y-3.415
X8.5201Y-4.1636
X8.545Y-3.565
X8.549Y-2.374
X8.565Y-4.475
X8.57Y-3.25
X8.57Y-3.43
X8.57Y-4.1793
X8.57Y-4.1498
X8.58Y-2.375
X8.595Y-3.55
X8.62Y-3.25
X8.62Y-3.445
X8.62Y-4.1655
X8.6216Y-4.195
X8.645Y-3.535
X8.6676Y-3.46
X8.6696Y-4.1813
X8.67Y-1.905
X8.6701Y-4.2108
X8.6717Y-3.25
X8.695Y-3.52
X8.7188Y-4.197
X8.72Y-3.25
X8.72Y-3.485
X8.7201Y-4.2265
X8.77Y-4.3674
X8.795Y-3.8746
X8.7957Y-4.4057
X8.874Y-3.5407
X8.8987Y-3.5245
X8.9233Y-3.5082
X8.9469Y-3.4905
X8.9719Y-3.4748
X8.9969Y-3.4592
X9.0214Y-3.4427
X9.045Y-3.425
X9.05Y-1.215
X9.0504Y-1.245
X9.06Y-4.4219
X9.085Y-4.44
X9.105Y-2.965
X9.11Y-4.245
X9.1113Y-3.8746
X9.135Y-4.39
X9.14Y-3.895
X9.16Y-4.088
X9.165Y-3.554
X9.165Y-3.735
X9.185Y-4.055
X9.2Y-1.665
X9.21Y-4.1037
X9.215Y-3.5382
X9.215Y-3.75
X9.235Y-4.07
X9.259Y-4.1195
X9.265Y-3.5205
X9.265Y-3.765
X9.29Y-4.085
X9.31Y-4.1352
X9.315Y-3.505
X9.315Y-3.78
X9.33Y-4.44
X9.3352Y-4.1
X9.36Y-4.1509
X9.365Y-3.49
X9.365Y-3.795
X9.375Y-4.44
X9.3846Y-4.115
X9.41Y-4.1667
X9.415Y-3.4733
X9.415Y-3.81
X9.435Y-3.15
X9.435Y-4.13
X9.46Y-4.1824
X9.465Y-3.4576
X9.465Y-3.825
X9.485Y-3.175
X9.485Y-4.145
X9.5098Y-4.1979
X9.515Y-3.44
X9.515Y-3.84
X9.535Y-4.1619
X9.54Y-3.2
X9.56Y-4.38
X9.59Y-3.84
X9.61Y-4.235
T2
X3.34Y-1.915
X3.345Y-4.56
X3.3654Y-2.41
X3.53Y-3.545
X3.545Y-1.275
X3.6394Y-4.56
X3.695Y-1.67
X3.705Y-1.275
X3.706Y-2.042
X3.8099Y-2.288
X3.865Y-4.265
X3.9Y-2.095
X3.9Y-2.21
X4.0Y-3.01
X4.01Y-1.37
X4.018Y-3.5
X4.174Y-2.318
X4.19Y-4.265
X4.418Y-3.566
X4.4846Y-2.5027
X4.5037Y-2.7976
X4.61Y-3.01
X4.62Y-2.2549
X4.635Y-2.965
X4.6387Y-2.5913
X4.6437Y-2.1417
X4.72Y-3.0926
X4.7734Y-2.9242
X4.82Y-2.585
X4.84Y-2.24
X4.9077Y-2.2422
X4.93Y-2.585
X4.935Y-2.965
X4.9783Y-2.2479
X5.1Y-2.585
X5.1Y-2.965
X5.1516Y-2.2403
X5.2143Y-2.5891
X5.215Y-2.245
X5.235Y-2.965
X5.36Y-2.3884
X5.36Y-2.59
X5.3769Y-2.2412
X5.395Y-2.985
X5.395Y-3.03
X6.4728Y-2.7147
X6.4735Y-2.795
X6.499Y-3.374
X6.595Y-3.275
X6.615Y-1.345
X6.615Y-4.095
X6.64Y-3.905
X6.735Y-2.045
X6.775Y-1.97
X6.855Y-2.095
X6.9299Y-1.4555
X6.9334Y-1.2083
X6.935Y-1.54
X6.9712Y-1.4555
X6.975Y-1.54
X7.0042Y-1.2083
X7.0109Y-1.4555
X7.015Y-1.54
X7.0445Y-1.2083
X7.0521Y-1.4555
X7.055Y-1.54
X7.085Y-1.2083
X7.0923Y-1.4555
X7.095Y-1.54
X7.105Y-2.5676
X7.1245Y-1.2083
X7.165Y-1.2083
X7.185Y-4.025
X7.1855Y-3.2611
X7.205Y-1.2083
X7.235Y-3.745
X7.245Y-1.2083
X7.28Y-4.335
X7.285Y-1.2083
X7.305Y-3.325
X7.325Y-1.2083
X7.365Y-1.2083
X7.4025Y-2.035
X7.4026Y-2.0701
X7.4042Y-1.2083
X7.42Y-3.3068
X7.42Y-3.962
X7.42Y-4.04
X7.44Y-2.07
X7.44Y-2.035
X7.4442Y-1.2083
X7.475Y-2.07
X7.475Y-2.035
X7.4842Y-1.2083
X7.51Y-2.07
X7.51Y-2.035
X7.5245Y-1.2083
X7.62Y-1.7478
X7.685Y-2.735
X7.9816Y-4.0266
X8.035Y-4.275
X8.08Y-3.3414
X8.15Y-4.085
X8.1522Y-3.9074
X8.215Y-3.275
X8.22Y-2.385
X8.22Y-2.69
X8.24Y-1.735
X8.2684Y-4.02
X8.2684Y-4.29
X8.32Y-1.86
X8.7684Y-4.0284
X8.7709Y-3.2441
X8.8169Y-4.27
X8.82Y-3.62
X8.93Y-3.905
X8.93Y-4.0683
X9.0Y-3.385
X9.005Y-3.305
X9.0616Y-4.035
X9.5616Y-3.895
X9.5666Y-3.245
X9.59Y-4.655
X9.61Y-4.395
X9.6166Y-3.7277
X9.655Y-1.3918
X9.7196Y-1.2198
X9.75Y-3.03
X9.755Y-2.095
X9.755Y-2.61
X9.755Y-2.5625
X9.805Y-2.095
X9.805Y-3.03
X9.805Y-2.5625
X9.805Y-2.61
X9.855Y-2.095
X9.855Y-2.5625
X9.855Y-2.61
X9.8575Y-3.03
X9.915Y-4.655
T3
X3.4993Y-1.7818
X3.4993Y-1.8318
X3.4993Y-3.8659
X3.4993Y-3.9159
X3.5493Y-1.7818
X3.5493Y-1.8318
X3.5493Y-3.8659
X3.5493Y-3.9159
X3.5993Y-1.7818
X3.5993Y-1.8318
X3.5993Y-3.8659
X3.5993Y-3.9159
X3.6493Y-1.7818
X3.6493Y-1.8318
X3.6493Y-3.8659
X3.6493Y-3.9159
X3.6993Y-1.7818
X3.6993Y-1.8318
X3.6993Y-3.8659
X3.6993Y-3.9159
X3.7493Y-1.7818
X3.7493Y-1.8318
X3.7493Y-3.8659
X3.7493Y-3.9159
X3.7993Y-1.7818
X3.7993Y-1.8318
X3.7993Y-3.8659
X3.7993Y-3.9159
X3.8493Y-1.7818
X3.8493Y-1.8318
X3.8493Y-3.8659
X3.8493Y-3.9159
X3.8993Y-1.7818
X3.8993Y-1.8318
X3.8993Y-3.8659
X3.8993Y-3.9159
X3.9493Y-1.7818
X3.9493Y-1.8318
X3.9493Y-3.8659
X3.9493Y-3.9159
X3.9993Y-1.7818
X3.9993Y-1.8318
X3.9993Y-3.8659
X3.9993Y-3.9159
X4.0493Y-1.7818
X4.0493Y-1.8318
X4.0493Y-3.8659
X4.0493Y-3.9159
X4.0993Y-1.7818
X4.0993Y-1.8318
X4.0993Y-3.8659
X4.0993Y-3.9159
X4.1493Y-1.7818
X4.1493Y-1.8318
X4.1493Y-3.8659
X4.1493Y-3.9159
X4.1993Y-1.7818
X4.1993Y-1.8318
X4.1993Y-3.8659
X4.1993Y-3.9159
X4.2493Y-1.7818
X4.2493Y-1.8318
X4.2493Y-3.8659
X4.2493Y-3.9159
X4.2993Y-1.7818
X4.2993Y-1.8318
X4.2993Y-3.8659
X4.2993Y-3.9159
X4.3493Y-1.7818
X4.3493Y-1.8318
X4.3493Y-3.8659
X4.3493Y-3.9159
X4.3993Y-1.7818
X4.3993Y-1.8318
X4.3993Y-3.8659
X4.3993Y-3.9159
X4.4493Y-1.7818
X4.4493Y-1.8318
X4.4493Y-3.8659
X4.4493Y-3.9159
X4.4993Y-1.7818
X4.4993Y-1.8318
X4.4993Y-3.8659
X4.4993Y-3.9159
X4.5493Y-1.7818
X4.5493Y-1.8318
X4.5493Y-3.8659
X4.5493Y-3.9159
X4.5993Y-1.7818
X4.5993Y-1.8318
X4.5993Y-3.8659
X4.5993Y-3.9159
X4.6493Y-1.7818
X4.6493Y-1.8318
X4.6493Y-3.8659
X4.6493Y-3.9159
X4.6993Y-1.7818
X4.6993Y-1.8318
X4.6993Y-3.8659
X4.6993Y-3.9159
X4.7493Y-1.7818
X4.7493Y-1.8318
X4.7493Y-3.8659
X4.7493Y-3.9159
X4.7993Y-1.7818
X4.7993Y-1.8318
X4.7993Y-3.8659
X4.7993Y-3.9159
X4.8493Y-1.7818
X4.8493Y-1.8318
X4.8493Y-3.8659
X4.8493Y-3.9159
X4.8993Y-1.7818
X4.8993Y-1.8318
X4.8993Y-3.8659
X4.8993Y-3.9159
X4.9493Y-1.7818
X4.9493Y-1.8318
X4.9493Y-3.8659
X4.9493Y-3.9159
X4.9993Y-1.7818
X4.9993Y-1.8318
X4.9993Y-3.8659
X4.9993Y-3.9159
X5.0493Y-1.7818
X5.0493Y-1.8318
X5.0493Y-3.8659
X5.0493Y-3.9159
X5.0993Y-1.7818
X5.0993Y-1.8318
X5.0993Y-3.8659
X5.0993Y-3.9159
X5.1493Y-1.7818
X5.1493Y-1.8318
X5.1493Y-3.8659
X5.1493Y-3.9159
X5.1993Y-1.7818
X5.1993Y-1.8318
X5.1993Y-3.8659
X5.1993Y-3.9159
X5.2493Y-1.7818
X5.2493Y-1.8318
X5.2493Y-3.8659
X5.2493Y-3.9159
X5.2993Y-1.7818
X5.2993Y-1.8318
X5.2993Y-3.8659
X5.2993Y-3.9159
X5.3493Y-1.7818
X5.3493Y-1.8318
X5.3493Y-3.8659
X5.3493Y-3.9159
X5.3993Y-1.7818
X5.3993Y-1.8318
X5.3993Y-3.8659
X5.3993Y-3.9159
X5.4493Y-1.7818
X5.4493Y-1.8318
X5.4493Y-3.8659
X5.4493Y-3.9159
T4
X7.751Y-1.3335
X7.751Y-1.4335
X7.751Y-1.5335
X7.751Y-1.6335
X7.751Y-1.7335
X7.751Y-1.8335
X7.751Y-1.9335
X7.751Y-2.0335
X7.751Y-2.1335
X7.751Y-2.2335
X7.751Y-2.3335
X7.751Y-2.4335
X7.751Y-2.5335
X7.751Y-2.6335
X7.751Y-2.7335
X7.751Y-2.8335
X7.751Y-2.9335
X7.751Y-3.0335
X7.851Y-1.3335
X7.851Y-1.4335
X7.851Y-1.5335
X7.851Y-1.6335
X7.851Y-1.7335
X7.851Y-1.8335
X7.851Y-1.9335
X7.851Y-2.0335
X7.851Y-2.1335
X7.851Y-2.2335
X7.851Y-2.3335
X7.851Y-2.4335
X7.851Y-2.5335
X7.851Y-2.6335
X7.851Y-2.7335
X7.851Y-2.8335
X7.851Y-2.9335
X7.851Y-3.0335
X7.951Y-1.3335
X7.951Y-1.4335
X7.951Y-1.5335
X7.951Y-1.6335
X7.951Y-1.7335
X7.951Y-1.8335
X7.951Y-1.9335
X7.951Y-2.0335
X7.951Y-2.1335
X7.951Y-2.2335
X7.951Y-2.3335
X7.951Y-2.4335
X7.951Y-2.5335
X7.951Y-2.6335
X7.951Y-2.7335
X7.951Y-2.8335
X7.951Y-2.9335
X7.951Y-3.0335
X8.051Y-1.3335
X8.051Y-1.4335
X8.051Y-1.5335
X8.051Y-1.6335
X8.051Y-1.7335
X8.051Y-1.8335
X8.051Y-1.9335
X8.051Y-2.0335
X8.051Y-2.1335
X8.051Y-2.2335
X8.051Y-2.3335
X8.051Y-2.4335
X8.051Y-2.5335
X8.051Y-2.6335
X8.051Y-2.7335
X8.051Y-2.8335
X8.051Y-2.9335
X8.051Y-3.0335
X8.151Y-1.3335
X8.151Y-1.4335
X8.151Y-1.5335
X8.151Y-1.6335
X8.151Y-2.8335
X8.151Y-2.9335
X8.151Y-3.0335
X8.251Y-1.3335
X8.251Y-1.4335
X8.251Y-1.5335
X8.251Y-1.6335
X8.251Y-2.8335
X8.251Y-2.9335
X8.251Y-3.0335
X8.351Y-1.3335
X8.351Y-1.4335
X8.351Y-1.5335
X8.351Y-1.6335
X8.351Y-2.7335
X8.351Y-2.8335
X8.351Y-2.9335
X8.351Y-3.0335
X8.451Y-1.3335
X8.451Y-1.4335
X8.451Y-1.5335
X8.451Y-1.6335
X8.451Y-2.8335
X8.451Y-2.9335
X8.451Y-3.0335
X8.551Y-1.3335
X8.551Y-1.4335
X8.551Y-1.5335
X8.551Y-1.6335
X8.551Y-2.7335
X8.551Y-2.8335
X8.551Y-2.9335
X8.551Y-3.0335
X8.651Y-1.3335
X8.651Y-1.4335
X8.651Y-1.5335
X8.651Y-1.6335
X8.651Y-2.8335
X8.651Y-2.9335
X8.651Y-3.0335
X8.751Y-1.3335
X8.751Y-1.4335
X8.751Y-1.5335
X8.751Y-1.6335
X8.751Y-2.7335
X8.751Y-2.8335
X8.751Y-2.9335
X8.751Y-3.0335
X8.851Y-1.3335
X8.851Y-1.4335
X8.851Y-1.5335
X8.851Y-1.6335
X8.851Y-2.8335
X8.851Y-2.9335
X8.851Y-3.0335
X8.951Y-1.3335
X8.951Y-1.4335
X8.951Y-1.5335
X8.951Y-1.6335
X8.951Y-2.8335
X8.951Y-2.9335
X8.951Y-3.0335
X9.051Y-1.3335
X9.051Y-1.4335
X9.051Y-1.5335
X9.051Y-1.6335
X9.051Y-2.8335
X9.051Y-2.9335
X9.051Y-3.0335
X9.151Y-1.3335
X9.151Y-1.4335
X9.151Y-1.5335
X9.151Y-1.6335
X9.151Y-1.7335
X9.151Y-2.0335
X9.151Y-2.2335
X9.151Y-2.3335
X9.151Y-2.4335
X9.151Y-2.5335
X9.151Y-2.6335
X9.151Y-2.8335
X9.151Y-2.9335
X9.151Y-3.0335
X9.251Y-1.3335
X9.251Y-1.4335
X9.251Y-1.5335
X9.251Y-1.6335
X9.251Y-1.7335
X9.251Y-1.8335
X9.251Y-1.9335
X9.251Y-2.0335
X9.251Y-2.1335
X9.251Y-2.2335
X9.251Y-2.3335
X9.251Y-2.4335
X9.251Y-2.5335
X9.251Y-2.6335
X9.251Y-2.7335
X9.251Y-2.8335
X9.251Y-2.9335
X9.251Y-3.0335
X9.351Y-1.3335
X9.351Y-1.4335
X9.351Y-1.5335
X9.351Y-1.6335
X9.351Y-1.7335
X9.351Y-1.8335
X9.351Y-1.9335
X9.351Y-2.0335
X9.351Y-2.1335
X9.351Y-2.2335
X9.351Y-2.3335
X9.351Y-2.4335
X9.351Y-2.5335
X9.351Y-2.6335
X9.351Y-2.7335
X9.351Y-2.8335
X9.351Y-2.9335
X9.351Y-3.0335
X9.451Y-1.4335
X9.451Y-1.5335
X9.451Y-1.6335
X9.451Y-1.7335
X9.451Y-1.8335
X9.451Y-1.9335
X9.451Y-2.0335
X9.451Y-2.1335
X9.451Y-2.2335
X9.451Y-2.3335
X9.451Y-2.4335
X9.451Y-2.5335
X9.451Y-2.6335
X9.451Y-2.7335
X9.451Y-2.8335
X9.451Y-2.9335
X9.451Y-3.0335
T5
X4.1718Y-4.5285
X4.1718Y-4.6795
X4.2218Y-4.7535
X4.222Y-4.6045
X4.2718Y-4.5285
X4.2718Y-4.6795
X4.3218Y-4.6045
X4.3218Y-4.7535
X4.3718Y-4.5285
X4.3718Y-4.6795
X4.4218Y-4.6035
X4.4218Y-4.7535
X4.4718Y-4.5285
X4.4718Y-4.6785
X4.5218Y-4.6045
X4.5218Y-4.7535
X4.5718Y-4.5285
X4.5718Y-4.6795
X4.6218Y-4.6045
X4.6218Y-4.7535
X4.6718Y-4.5285
X4.6718Y-4.6795
X4.7218Y-4.6045
X4.7218Y-4.7535
X4.7718Y-4.5285
X4.7718Y-4.6785
X4.8218Y-4.6045
X4.8218Y-4.7535
X4.8718Y-4.5285
X4.8718Y-4.6795
X4.9218Y-4.6045
X4.9218Y-4.7535
X4.9718Y-4.5285
X4.9718Y-4.6785
X5.0218Y-4.6045
X5.0218Y-4.7535
X5.0718Y-4.5285
X5.0718Y-4.6795
X5.1218Y-4.6045
X5.1218Y-4.7535
X5.1718Y-4.5285
X5.1718Y-4.6785
X5.2218Y-4.6035
X5.2218Y-4.7535
X5.2718Y-4.5285
X5.2718Y-4.6795
X5.3218Y-4.6045
X5.3218Y-4.7535
X5.3718Y-4.5285
X5.3718Y-4.6795
X5.4218Y-4.6035
X5.4218Y-4.7535
X5.4718Y-4.5285
X5.4718Y-4.6795
X5.5218Y-4.6045
X5.5218Y-4.7535
X5.5718Y-4.5285
X5.5718Y-4.6785
X5.6218Y-4.6045
X5.6218Y-4.7535
X5.6718Y-4.5285
X5.6718Y-4.6795
X5.7218Y-4.6045
X5.7218Y-4.7535
X5.7718Y-4.5285
X5.7718Y-4.6795
X5.8218Y-4.6045
X5.8218Y-4.7535
X5.8718Y-4.5285
X5.8718Y-4.6785
X5.9218Y-4.6045
X5.9218Y-4.7535
X5.9718Y-4.5285
X5.9718Y-4.6795
X6.0218Y-4.6045
X6.0218Y-4.7535
X6.0718Y-4.5285
X6.0718Y-4.6785
X6.1218Y-4.6045
X6.1218Y-4.7535
X6.1718Y-4.5285
X6.1718Y-4.6795
X6.2218Y-4.6045
X6.2218Y-4.7535
X6.2718Y-4.5285
X6.2718Y-4.6785
X6.3218Y-4.6045
X6.3218Y-4.7535
X6.3718Y-4.5285
X6.3718Y-4.6795
X6.4218Y-4.6045
X6.4218Y-4.7535
X6.4718Y-4.5285
X6.4718Y-4.6785
X6.5218Y-4.6045
X6.5218Y-4.7535
X6.5718Y-4.5285
X6.5718Y-4.6795
X6.6218Y-4.6035
X6.6218Y-4.7535
X6.7718Y-4.5285
X6.7718Y-4.6795
X6.8218Y-4.6035
X6.8218Y-4.7535
X6.8718Y-4.5285
X6.8718Y-4.6785
X6.9218Y-4.6035
X6.9218Y-4.7535
X6.9718Y-4.5285
X6.9718Y-4.6795
X7.0218Y-4.6035
X7.0218Y-4.7535
X7.0718Y-4.5285
X7.0718Y-4.6795
X7.1218Y-4.6045
X7.1218Y-4.7535
X7.1718Y-4.5285
X7.1718Y-4.6785
X7.2218Y-4.6045
X7.2218Y-4.7535
X7.2718Y-4.5285
X7.2718Y-4.6795
X7.3218Y-4.6035
X7.3218Y-4.7535
X7.3718Y-4.5285
X7.3718Y-4.6795
X7.4218Y-4.6045
X7.4218Y-4.7535
X7.4718Y-4.5285
X7.4718Y-4.6795
X7.5218Y-4.6035
X7.5218Y-4.7535
X7.5718Y-4.5285
X7.5718Y-4.6785
X7.6218Y-4.6035
X7.6218Y-4.7535
X7.6718Y-4.5285
X7.6718Y-4.6795
X7.7218Y-4.6035
X7.7218Y-4.7535
X7.7718Y-4.5285
X7.7718Y-4.6795
X7.8218Y-4.6045
X7.8218Y-4.7535
X7.8718Y-4.5285
X7.8718Y-4.6795
X7.9218Y-4.7535
X7.922Y-4.6045
X7.9718Y-4.5285
X7.9718Y-4.6795
X8.0218Y-4.6035
X8.0218Y-4.7535
X8.0718Y-4.5285
X8.0718Y-4.6785
X8.1218Y-4.6045
X8.1218Y-4.7535
X8.1718Y-4.5285
X8.1718Y-4.6795
X8.2218Y-4.6045
X8.2218Y-4.7535
X8.2718Y-4.5285
X8.2718Y-4.6795
X8.3218Y-4.7535
X8.322Y-4.6045
X8.3718Y-4.5285
X8.3718Y-4.6795
X8.4218Y-4.7535
X8.422Y-4.6045
X8.4718Y-4.5285
X8.4718Y-4.6795
X8.5218Y-4.6045
X8.5218Y-4.7535
X8.5718Y-4.5285
X8.5718Y-4.6795
X8.6218Y-4.6045
X8.6218Y-4.7535
X8.6718Y-4.5285
X8.6718Y-4.6795
X8.7218Y-4.6045
X8.7218Y-4.7535
X8.7718Y-4.5285
X8.7718Y-4.6795
X8.8218Y-4.6045
X8.8218Y-4.7535
X8.8718Y-4.5285
X8.8718Y-4.6795
X8.9218Y-4.6045
X8.9218Y-4.7535
X8.9718Y-4.5285
X8.9718Y-4.6785
X9.0218Y-4.6045
X9.0218Y-4.7535
X9.0718Y-4.5285
X9.0718Y-4.6785
X9.1218Y-4.6045
X9.1218Y-4.7535
X9.1718Y-4.5285
X9.1718Y-4.6795
X9.2218Y-4.6045
X9.2218Y-4.7535
T6
X3.655Y-4.255
X3.95Y-2.745
X4.015Y-1.25
X4.115Y-1.25
X4.346Y-2.118
X4.61Y-4.265
X4.71Y-4.265
X4.92Y-1.26
X5.49Y-1.295
X5.49Y-1.395
X5.59Y-1.295
X5.59Y-1.395
X5.69Y-1.295
X5.69Y-1.395
X5.79Y-1.295
X5.79Y-1.395
X5.89Y-1.295
X5.89Y-1.395
X5.99Y-1.295
X5.99Y-1.395
X6.09Y-1.295
X6.09Y-1.395
X6.335Y-2.665
X6.335Y-2.9689
X6.405Y-1.41
X6.505Y-1.41
X9.78Y-3.155
X9.88Y-3.155
T7
X7.095Y-1.84
X7.195Y-1.84
X7.295Y-1.84
X7.395Y-1.84
T0
M30
