%TF.GenerationSoftware,KiCad,Pcbnew,7.0.6-0*%
%TF.CreationDate,2024-10-04T12:35:45+02:00*%
%TF.ProjectId,Z3660_v022,5a333636-305f-4763-9032-322e6b696361,v0.22*%
%TF.SameCoordinates,Original*%
%TF.FileFunction,Paste,Top*%
%TF.FilePolarity,Positive*%
%FSLAX46Y46*%
G04 Gerber Fmt 4.6, Leading zero omitted, Abs format (unit mm)*
G04 Created by KiCad (PCBNEW 7.0.6-0) date 2024-10-04 12:35:45*
%MOMM*%
%LPD*%
G01*
G04 APERTURE LIST*
G04 Aperture macros list*
%AMRoundRect*
0 Rectangle with rounded corners*
0 $1 Rounding radius*
0 $2 $3 $4 $5 $6 $7 $8 $9 X,Y pos of 4 corners*
0 Add a 4 corners polygon primitive as box body*
4,1,4,$2,$3,$4,$5,$6,$7,$8,$9,$2,$3,0*
0 Add four circle primitives for the rounded corners*
1,1,$1+$1,$2,$3*
1,1,$1+$1,$4,$5*
1,1,$1+$1,$6,$7*
1,1,$1+$1,$8,$9*
0 Add four rect primitives between the rounded corners*
20,1,$1+$1,$2,$3,$4,$5,0*
20,1,$1+$1,$4,$5,$6,$7,0*
20,1,$1+$1,$6,$7,$8,$9,0*
20,1,$1+$1,$8,$9,$2,$3,0*%
%AMFreePoly0*
4,1,9,5.362500,-0.866500,1.237500,-0.866500,1.237500,-0.450000,-1.237500,-0.450000,-1.237500,0.450000,1.237500,0.450000,1.237500,0.866500,5.362500,0.866500,5.362500,-0.866500,5.362500,-0.866500,$1*%
G04 Aperture macros list end*
%ADD10RoundRect,0.150000X0.150000X-0.825000X0.150000X0.825000X-0.150000X0.825000X-0.150000X-0.825000X0*%
%ADD11RoundRect,0.075000X0.662500X0.075000X-0.662500X0.075000X-0.662500X-0.075000X0.662500X-0.075000X0*%
%ADD12RoundRect,0.075000X0.075000X0.662500X-0.075000X0.662500X-0.075000X-0.662500X0.075000X-0.662500X0*%
%ADD13RoundRect,0.250000X-1.500000X-0.550000X1.500000X-0.550000X1.500000X0.550000X-1.500000X0.550000X0*%
%ADD14RoundRect,0.250000X0.550000X-1.500000X0.550000X1.500000X-0.550000X1.500000X-0.550000X-1.500000X0*%
%ADD15RoundRect,0.250000X0.475000X-0.337500X0.475000X0.337500X-0.475000X0.337500X-0.475000X-0.337500X0*%
%ADD16RoundRect,0.250000X-0.475000X0.337500X-0.475000X-0.337500X0.475000X-0.337500X0.475000X0.337500X0*%
%ADD17RoundRect,0.250000X-1.450000X0.537500X-1.450000X-0.537500X1.450000X-0.537500X1.450000X0.537500X0*%
%ADD18R,2.300000X0.900000*%
%ADD19FreePoly0,0.000000*%
%ADD20RoundRect,0.250000X-0.337500X-0.475000X0.337500X-0.475000X0.337500X0.475000X-0.337500X0.475000X0*%
%ADD21RoundRect,0.250000X-0.350000X-0.450000X0.350000X-0.450000X0.350000X0.450000X-0.350000X0.450000X0*%
%ADD22RoundRect,0.150000X0.150000X-0.875000X0.150000X0.875000X-0.150000X0.875000X-0.150000X-0.875000X0*%
%ADD23R,1.800000X2.000000*%
%ADD24RoundRect,0.250000X0.337500X0.475000X-0.337500X0.475000X-0.337500X-0.475000X0.337500X-0.475000X0*%
%ADD25RoundRect,0.250000X-0.550000X1.500000X-0.550000X-1.500000X0.550000X-1.500000X0.550000X1.500000X0*%
%ADD26RoundRect,0.250000X0.412500X0.650000X-0.412500X0.650000X-0.412500X-0.650000X0.412500X-0.650000X0*%
%ADD27RoundRect,0.250000X-0.412500X-0.650000X0.412500X-0.650000X0.412500X0.650000X-0.412500X0.650000X0*%
%ADD28RoundRect,0.250001X0.462499X0.624999X-0.462499X0.624999X-0.462499X-0.624999X0.462499X-0.624999X0*%
%ADD29RoundRect,0.249998X-0.537502X-0.650002X0.537502X-0.650002X0.537502X0.650002X-0.537502X0.650002X0*%
%ADD30RoundRect,0.200000X-0.200000X-0.275000X0.200000X-0.275000X0.200000X0.275000X-0.200000X0.275000X0*%
%ADD31RoundRect,0.100000X0.100000X-0.637500X0.100000X0.637500X-0.100000X0.637500X-0.100000X-0.637500X0*%
%ADD32RoundRect,0.100000X-0.100000X0.637500X-0.100000X-0.637500X0.100000X-0.637500X0.100000X0.637500X0*%
%ADD33RoundRect,0.200000X0.200000X0.275000X-0.200000X0.275000X-0.200000X-0.275000X0.200000X-0.275000X0*%
%ADD34RoundRect,0.225000X0.250000X-0.225000X0.250000X0.225000X-0.250000X0.225000X-0.250000X-0.225000X0*%
%ADD35RoundRect,0.250000X0.350000X0.450000X-0.350000X0.450000X-0.350000X-0.450000X0.350000X-0.450000X0*%
%ADD36RoundRect,0.250000X0.250000X0.475000X-0.250000X0.475000X-0.250000X-0.475000X0.250000X-0.475000X0*%
%ADD37RoundRect,0.250000X-0.250000X-0.475000X0.250000X-0.475000X0.250000X0.475000X-0.250000X0.475000X0*%
%ADD38R,0.400000X1.000000*%
%ADD39R,0.510000X0.700000*%
%ADD40RoundRect,0.150000X-0.150000X0.662500X-0.150000X-0.662500X0.150000X-0.662500X0.150000X0.662500X0*%
%ADD41R,3.500000X2.950000*%
%ADD42RoundRect,0.225000X-0.225000X-0.250000X0.225000X-0.250000X0.225000X0.250000X-0.225000X0.250000X0*%
G04 APERTURE END LIST*
D10*
%TO.C,U5*%
X169774000Y-61927000D03*
X171044000Y-61927000D03*
X172314000Y-61927000D03*
X173584000Y-61927000D03*
X174854000Y-61927000D03*
X176124000Y-61927000D03*
X177394000Y-61927000D03*
X177394000Y-56977000D03*
X176124000Y-56977000D03*
X174854000Y-56977000D03*
X173584000Y-56977000D03*
X172314000Y-56977000D03*
X171044000Y-56977000D03*
X169774000Y-56977000D03*
%TD*%
D11*
%TO.C,U2*%
X137535500Y-75044000D03*
X137535500Y-74544000D03*
X137535500Y-74044000D03*
X137535500Y-73544000D03*
X137535500Y-73044000D03*
X137535500Y-72544000D03*
X137535500Y-72044000D03*
X137535500Y-71544000D03*
X137535500Y-71044000D03*
X137535500Y-70544000D03*
X137535500Y-70044000D03*
X137535500Y-69544000D03*
X137535500Y-69044000D03*
X137535500Y-68544000D03*
X137535500Y-68044000D03*
X137535500Y-67544000D03*
X137535500Y-67044000D03*
X137535500Y-66544000D03*
X137535500Y-66044000D03*
X137535500Y-65544000D03*
X137535500Y-65044000D03*
X137535500Y-64544000D03*
X137535500Y-64044000D03*
X137535500Y-63544000D03*
X137535500Y-63044000D03*
X137535500Y-62544000D03*
X137535500Y-62044000D03*
X137535500Y-61544000D03*
X137535500Y-61044000D03*
X137535500Y-60544000D03*
X137535500Y-60044000D03*
X137535500Y-59544000D03*
X137535500Y-59044000D03*
X137535500Y-58544000D03*
X137535500Y-58044000D03*
X137535500Y-57544000D03*
D12*
X135623000Y-55631500D03*
X135123000Y-55631500D03*
X134623000Y-55631500D03*
X134123000Y-55631500D03*
X133623000Y-55631500D03*
X133123000Y-55631500D03*
X132623000Y-55631500D03*
X132123000Y-55631500D03*
X131623000Y-55631500D03*
X131123000Y-55631500D03*
X130623000Y-55631500D03*
X130123000Y-55631500D03*
X129623000Y-55631500D03*
X129123000Y-55631500D03*
X128623000Y-55631500D03*
X128123000Y-55631500D03*
X127623000Y-55631500D03*
X127123000Y-55631500D03*
X126623000Y-55631500D03*
X126123000Y-55631500D03*
X125623000Y-55631500D03*
X125123000Y-55631500D03*
X124623000Y-55631500D03*
X124123000Y-55631500D03*
X123623000Y-55631500D03*
X123123000Y-55631500D03*
X122623000Y-55631500D03*
X122123000Y-55631500D03*
X121623000Y-55631500D03*
X121123000Y-55631500D03*
X120623000Y-55631500D03*
X120123000Y-55631500D03*
X119623000Y-55631500D03*
X119123000Y-55631500D03*
X118623000Y-55631500D03*
X118123000Y-55631500D03*
D11*
X116210500Y-57544000D03*
X116210500Y-58044000D03*
X116210500Y-58544000D03*
X116210500Y-59044000D03*
X116210500Y-59544000D03*
X116210500Y-60044000D03*
X116210500Y-60544000D03*
X116210500Y-61044000D03*
X116210500Y-61544000D03*
X116210500Y-62044000D03*
X116210500Y-62544000D03*
X116210500Y-63044000D03*
X116210500Y-63544000D03*
X116210500Y-64044000D03*
X116210500Y-64544000D03*
X116210500Y-65044000D03*
X116210500Y-65544000D03*
X116210500Y-66044000D03*
X116210500Y-66544000D03*
X116210500Y-67044000D03*
X116210500Y-67544000D03*
X116210500Y-68044000D03*
X116210500Y-68544000D03*
X116210500Y-69044000D03*
X116210500Y-69544000D03*
X116210500Y-70044000D03*
X116210500Y-70544000D03*
X116210500Y-71044000D03*
X116210500Y-71544000D03*
X116210500Y-72044000D03*
X116210500Y-72544000D03*
X116210500Y-73044000D03*
X116210500Y-73544000D03*
X116210500Y-74044000D03*
X116210500Y-74544000D03*
X116210500Y-75044000D03*
D12*
X118123000Y-76956500D03*
X118623000Y-76956500D03*
X119123000Y-76956500D03*
X119623000Y-76956500D03*
X120123000Y-76956500D03*
X120623000Y-76956500D03*
X121123000Y-76956500D03*
X121623000Y-76956500D03*
X122123000Y-76956500D03*
X122623000Y-76956500D03*
X123123000Y-76956500D03*
X123623000Y-76956500D03*
X124123000Y-76956500D03*
X124623000Y-76956500D03*
X125123000Y-76956500D03*
X125623000Y-76956500D03*
X126123000Y-76956500D03*
X126623000Y-76956500D03*
X127123000Y-76956500D03*
X127623000Y-76956500D03*
X128123000Y-76956500D03*
X128623000Y-76956500D03*
X129123000Y-76956500D03*
X129623000Y-76956500D03*
X130123000Y-76956500D03*
X130623000Y-76956500D03*
X131123000Y-76956500D03*
X131623000Y-76956500D03*
X132123000Y-76956500D03*
X132623000Y-76956500D03*
X133123000Y-76956500D03*
X133623000Y-76956500D03*
X134123000Y-76956500D03*
X134623000Y-76956500D03*
X135123000Y-76956500D03*
X135623000Y-76956500D03*
%TD*%
D13*
%TO.C,C26*%
X101927700Y-108305600D03*
X107327700Y-108305600D03*
%TD*%
%TO.C,C27*%
X82694800Y-53238398D03*
X88094800Y-53238398D03*
%TD*%
%TO.C,C62*%
X186784000Y-33300000D03*
X192184000Y-33300000D03*
%TD*%
%TO.C,C28*%
X244873800Y-117017800D03*
X250273800Y-117017800D03*
%TD*%
D14*
%TO.C,C61*%
X249047000Y-74328000D03*
X249047000Y-68928000D03*
%TD*%
D15*
%TO.C,C25*%
X87274400Y-63318300D03*
X87274400Y-61243300D03*
%TD*%
D16*
%TO.C,C37*%
X206883000Y-100435500D03*
X206883000Y-102510500D03*
%TD*%
D17*
%TO.C,C400A1*%
X159766000Y-47697300D03*
X159766000Y-51972300D03*
%TD*%
D18*
%TO.C,U1A1*%
X165083600Y-50112800D03*
D19*
X165171100Y-51612800D03*
D18*
X165083600Y-53112800D03*
%TD*%
D20*
%TO.C,C24*%
X172063500Y-54245000D03*
X174138500Y-54245000D03*
%TD*%
D16*
%TO.C,C29*%
X166624000Y-68939500D03*
X166624000Y-71014500D03*
%TD*%
%TO.C,C30*%
X166624000Y-83925500D03*
X166624000Y-86000500D03*
%TD*%
%TO.C,C31*%
X206883000Y-83925500D03*
X206883000Y-86000500D03*
%TD*%
%TO.C,C32*%
X166624000Y-100435500D03*
X166624000Y-102510500D03*
%TD*%
%TO.C,C34*%
X227076000Y-83925500D03*
X227076000Y-86000500D03*
%TD*%
%TO.C,C35*%
X186817000Y-83925500D03*
X186817000Y-86000500D03*
%TD*%
%TO.C,C36*%
X186817000Y-100435500D03*
X186817000Y-102510500D03*
%TD*%
D21*
%TO.C,R9*%
X191627000Y-58801000D03*
X189627000Y-58801000D03*
%TD*%
%TO.C,R10*%
X191611000Y-56769000D03*
X189611000Y-56769000D03*
%TD*%
D22*
%TO.C,U12*%
X189992000Y-93423000D03*
X191262000Y-93423000D03*
X192532000Y-93423000D03*
X193802000Y-93423000D03*
X195072000Y-93423000D03*
X196342000Y-93423000D03*
X197612000Y-93423000D03*
X198882000Y-93423000D03*
X200152000Y-93423000D03*
X201422000Y-93423000D03*
X202692000Y-93423000D03*
X203962000Y-93423000D03*
X203962000Y-84123000D03*
X202692000Y-84123000D03*
X201422000Y-84123000D03*
X200152000Y-84123000D03*
X198882000Y-84123000D03*
X197612000Y-84123000D03*
X196342000Y-84123000D03*
X195072000Y-84123000D03*
X193802000Y-84123000D03*
X192532000Y-84123000D03*
X191262000Y-84123000D03*
X189992000Y-84123000D03*
%TD*%
%TO.C,U7*%
X169799000Y-93423000D03*
X171069000Y-93423000D03*
X172339000Y-93423000D03*
X173609000Y-93423000D03*
X174879000Y-93423000D03*
X176149000Y-93423000D03*
X177419000Y-93423000D03*
X178689000Y-93423000D03*
X179959000Y-93423000D03*
X181229000Y-93423000D03*
X182499000Y-93423000D03*
X183769000Y-93423000D03*
X183769000Y-84123000D03*
X182499000Y-84123000D03*
X181229000Y-84123000D03*
X179959000Y-84123000D03*
X178689000Y-84123000D03*
X177419000Y-84123000D03*
X176149000Y-84123000D03*
X174879000Y-84123000D03*
X173609000Y-84123000D03*
X172339000Y-84123000D03*
X171069000Y-84123000D03*
X169799000Y-84123000D03*
%TD*%
%TO.C,U8*%
X210058000Y-93423000D03*
X211328000Y-93423000D03*
X212598000Y-93423000D03*
X213868000Y-93423000D03*
X215138000Y-93423000D03*
X216408000Y-93423000D03*
X217678000Y-93423000D03*
X218948000Y-93423000D03*
X220218000Y-93423000D03*
X221488000Y-93423000D03*
X222758000Y-93423000D03*
X224028000Y-93423000D03*
X224028000Y-84123000D03*
X222758000Y-84123000D03*
X221488000Y-84123000D03*
X220218000Y-84123000D03*
X218948000Y-84123000D03*
X217678000Y-84123000D03*
X216408000Y-84123000D03*
X215138000Y-84123000D03*
X213868000Y-84123000D03*
X212598000Y-84123000D03*
X211328000Y-84123000D03*
X210058000Y-84123000D03*
%TD*%
%TO.C,U11*%
X230251000Y-93423000D03*
X231521000Y-93423000D03*
X232791000Y-93423000D03*
X234061000Y-93423000D03*
X235331000Y-93423000D03*
X236601000Y-93423000D03*
X237871000Y-93423000D03*
X239141000Y-93423000D03*
X240411000Y-93423000D03*
X241681000Y-93423000D03*
X242951000Y-93423000D03*
X244221000Y-93423000D03*
X244221000Y-84123000D03*
X242951000Y-84123000D03*
X241681000Y-84123000D03*
X240411000Y-84123000D03*
X239141000Y-84123000D03*
X237871000Y-84123000D03*
X236601000Y-84123000D03*
X235331000Y-84123000D03*
X234061000Y-84123000D03*
X232791000Y-84123000D03*
X231521000Y-84123000D03*
X230251000Y-84123000D03*
%TD*%
D16*
%TO.C,C33*%
X227076000Y-100435500D03*
X227076000Y-102510500D03*
%TD*%
D23*
%TO.C,X1*%
X96012000Y-61247600D03*
X90932000Y-61247600D03*
X90932000Y-65447600D03*
X96012000Y-65447600D03*
%TD*%
D24*
%TO.C,C38*%
X178075500Y-34594800D03*
X176000500Y-34594800D03*
%TD*%
D25*
%TO.C,C41*%
X249047000Y-56990000D03*
X249047000Y-62390000D03*
%TD*%
D26*
%TO.C,C39*%
X179197000Y-32359600D03*
X176072000Y-32359600D03*
%TD*%
D27*
%TO.C,C40*%
X190359500Y-40132000D03*
X193484500Y-40132000D03*
%TD*%
D26*
%TO.C,C42*%
X185331500Y-38354000D03*
X182206500Y-38354000D03*
%TD*%
%TO.C,C43*%
X185331500Y-40894000D03*
X182206500Y-40894000D03*
%TD*%
D20*
%TO.C,C50*%
X191409500Y-43180000D03*
X193484500Y-43180000D03*
%TD*%
%TO.C,C51*%
X191062500Y-37900000D03*
X193137500Y-37900000D03*
%TD*%
D16*
%TO.C,C53*%
X84836000Y-44809500D03*
X84836000Y-46884500D03*
%TD*%
D15*
%TO.C,C55*%
X87613000Y-93620500D03*
X87613000Y-91545500D03*
%TD*%
%TO.C,C54*%
X89645000Y-93599000D03*
X89645000Y-91524000D03*
%TD*%
D22*
%TO.C,U6*%
X169799000Y-78437000D03*
X171069000Y-78437000D03*
X172339000Y-78437000D03*
X173609000Y-78437000D03*
X174879000Y-78437000D03*
X176149000Y-78437000D03*
X177419000Y-78437000D03*
X178689000Y-78437000D03*
X179959000Y-78437000D03*
X181229000Y-78437000D03*
X182499000Y-78437000D03*
X183769000Y-78437000D03*
X183769000Y-69137000D03*
X182499000Y-69137000D03*
X181229000Y-69137000D03*
X179959000Y-69137000D03*
X178689000Y-69137000D03*
X177419000Y-69137000D03*
X176149000Y-69137000D03*
X174879000Y-69137000D03*
X173609000Y-69137000D03*
X172339000Y-69137000D03*
X171069000Y-69137000D03*
X169799000Y-69137000D03*
%TD*%
%TO.C,U10*%
X230251000Y-109933000D03*
X231521000Y-109933000D03*
X232791000Y-109933000D03*
X234061000Y-109933000D03*
X235331000Y-109933000D03*
X236601000Y-109933000D03*
X237871000Y-109933000D03*
X239141000Y-109933000D03*
X240411000Y-109933000D03*
X241681000Y-109933000D03*
X242951000Y-109933000D03*
X244221000Y-109933000D03*
X244221000Y-100633000D03*
X242951000Y-100633000D03*
X241681000Y-100633000D03*
X240411000Y-100633000D03*
X239141000Y-100633000D03*
X237871000Y-100633000D03*
X236601000Y-100633000D03*
X235331000Y-100633000D03*
X234061000Y-100633000D03*
X232791000Y-100633000D03*
X231521000Y-100633000D03*
X230251000Y-100633000D03*
%TD*%
%TO.C,U14*%
X210058000Y-109933000D03*
X211328000Y-109933000D03*
X212598000Y-109933000D03*
X213868000Y-109933000D03*
X215138000Y-109933000D03*
X216408000Y-109933000D03*
X217678000Y-109933000D03*
X218948000Y-109933000D03*
X220218000Y-109933000D03*
X221488000Y-109933000D03*
X222758000Y-109933000D03*
X224028000Y-109933000D03*
X224028000Y-100633000D03*
X222758000Y-100633000D03*
X221488000Y-100633000D03*
X220218000Y-100633000D03*
X218948000Y-100633000D03*
X217678000Y-100633000D03*
X216408000Y-100633000D03*
X215138000Y-100633000D03*
X213868000Y-100633000D03*
X212598000Y-100633000D03*
X211328000Y-100633000D03*
X210058000Y-100633000D03*
%TD*%
%TO.C,U13*%
X189992000Y-109933000D03*
X191262000Y-109933000D03*
X192532000Y-109933000D03*
X193802000Y-109933000D03*
X195072000Y-109933000D03*
X196342000Y-109933000D03*
X197612000Y-109933000D03*
X198882000Y-109933000D03*
X200152000Y-109933000D03*
X201422000Y-109933000D03*
X202692000Y-109933000D03*
X203962000Y-109933000D03*
X203962000Y-100633000D03*
X202692000Y-100633000D03*
X201422000Y-100633000D03*
X200152000Y-100633000D03*
X198882000Y-100633000D03*
X197612000Y-100633000D03*
X196342000Y-100633000D03*
X195072000Y-100633000D03*
X193802000Y-100633000D03*
X192532000Y-100633000D03*
X191262000Y-100633000D03*
X189992000Y-100633000D03*
%TD*%
%TO.C,U9*%
X169799000Y-109933000D03*
X171069000Y-109933000D03*
X172339000Y-109933000D03*
X173609000Y-109933000D03*
X174879000Y-109933000D03*
X176149000Y-109933000D03*
X177419000Y-109933000D03*
X178689000Y-109933000D03*
X179959000Y-109933000D03*
X181229000Y-109933000D03*
X182499000Y-109933000D03*
X183769000Y-109933000D03*
X183769000Y-100633000D03*
X182499000Y-100633000D03*
X181229000Y-100633000D03*
X179959000Y-100633000D03*
X178689000Y-100633000D03*
X177419000Y-100633000D03*
X176149000Y-100633000D03*
X174879000Y-100633000D03*
X173609000Y-100633000D03*
X172339000Y-100633000D03*
X171069000Y-100633000D03*
X169799000Y-100633000D03*
%TD*%
D28*
%TO.C,D1*%
X87926500Y-114300000D03*
X84951500Y-114300000D03*
%TD*%
D21*
%TO.C,R15*%
X92424000Y-114300000D03*
X90424000Y-114300000D03*
%TD*%
D28*
%TO.C,D2*%
X87953487Y-117348000D03*
X84978487Y-117348000D03*
%TD*%
D21*
%TO.C,R16*%
X92424000Y-117348000D03*
X90424000Y-117348000D03*
%TD*%
D29*
%TO.C,FB1*%
X168662500Y-32350000D03*
X172837500Y-32350000D03*
%TD*%
D20*
%TO.C,C56*%
X90119200Y-41300400D03*
X92194200Y-41300400D03*
%TD*%
D16*
%TO.C,C1*%
X104057200Y-84916100D03*
X104057200Y-86991100D03*
%TD*%
D30*
%TO.C,R34*%
X83305000Y-76895000D03*
X84955000Y-76895000D03*
%TD*%
D20*
%TO.C,C58*%
X110849500Y-40452800D03*
X112924500Y-40452800D03*
%TD*%
D31*
%TO.C,U3*%
X107075800Y-88441700D03*
X107725800Y-88441700D03*
X108375800Y-88441700D03*
X109025800Y-88441700D03*
X109675800Y-88441700D03*
X110325800Y-88441700D03*
X110975800Y-88441700D03*
X111625800Y-88441700D03*
X112275800Y-88441700D03*
X112925800Y-88441700D03*
X112925800Y-82716700D03*
X112275800Y-82716700D03*
X111625800Y-82716700D03*
X110975800Y-82716700D03*
X110325800Y-82716700D03*
X109675800Y-82716700D03*
X109025800Y-82716700D03*
X108375800Y-82716700D03*
X107725800Y-82716700D03*
X107075800Y-82716700D03*
%TD*%
D32*
%TO.C,U16*%
X109097000Y-34729500D03*
X108447000Y-34729500D03*
X107797000Y-34729500D03*
X107147000Y-34729500D03*
X106497000Y-34729500D03*
X105847000Y-34729500D03*
X105197000Y-34729500D03*
X104547000Y-34729500D03*
X103897000Y-34729500D03*
X103247000Y-34729500D03*
X103247000Y-40454500D03*
X103897000Y-40454500D03*
X104547000Y-40454500D03*
X105197000Y-40454500D03*
X105847000Y-40454500D03*
X106497000Y-40454500D03*
X107147000Y-40454500D03*
X107797000Y-40454500D03*
X108447000Y-40454500D03*
X109097000Y-40454500D03*
%TD*%
D33*
%TO.C,R33*%
X86915000Y-79865000D03*
X85265000Y-79865000D03*
%TD*%
D34*
%TO.C,C66*%
X86380000Y-78420000D03*
X86380000Y-76870000D03*
%TD*%
D35*
%TO.C,R28*%
X97907600Y-115112800D03*
X99907600Y-115112800D03*
%TD*%
D34*
%TO.C,C67*%
X88190000Y-78420000D03*
X88190000Y-76870000D03*
%TD*%
D35*
%TO.C,R18*%
X130826000Y-93929200D03*
X132826000Y-93929200D03*
%TD*%
D20*
%TO.C,C60*%
X134293700Y-40503600D03*
X136368700Y-40503600D03*
%TD*%
D24*
%TO.C,C57*%
X97929100Y-51834800D03*
X95854100Y-51834800D03*
%TD*%
D36*
%TO.C,C68*%
X98850000Y-70200000D03*
X96950000Y-70200000D03*
%TD*%
D35*
%TO.C,R21*%
X246065800Y-34101600D03*
X248065800Y-34101600D03*
%TD*%
D37*
%TO.C,C69*%
X96380000Y-79455000D03*
X98280000Y-79455000D03*
%TD*%
D38*
%TO.C,U19*%
X161050000Y-37050000D03*
X161700000Y-37050000D03*
X162350000Y-37050000D03*
X163000000Y-37050000D03*
X163650000Y-37050000D03*
X164300000Y-37050000D03*
X164950000Y-37050000D03*
X165600000Y-37050000D03*
X166250000Y-37050000D03*
X166900000Y-37050000D03*
X166900000Y-31250000D03*
X166250000Y-31250000D03*
X165600000Y-31250000D03*
X164950000Y-31250000D03*
X164300000Y-31250000D03*
X163650000Y-31250000D03*
X163000000Y-31250000D03*
X162350000Y-31250000D03*
X161700000Y-31250000D03*
X161050000Y-31250000D03*
%TD*%
D35*
%TO.C,R20*%
X165640000Y-56692800D03*
X167640000Y-56692800D03*
%TD*%
D39*
%TO.C,U1B1*%
X162734000Y-46060800D03*
X163684000Y-46060800D03*
X164634000Y-46060800D03*
X164634000Y-43740800D03*
X162734000Y-43740800D03*
%TD*%
D30*
%TO.C,R31*%
X92825000Y-79685000D03*
X94475000Y-79685000D03*
%TD*%
D24*
%TO.C,C64*%
X170937500Y-35400000D03*
X168862500Y-35400000D03*
%TD*%
D31*
%TO.C,U15*%
X100144000Y-57567500D03*
X100794000Y-57567500D03*
X101444000Y-57567500D03*
X102094000Y-57567500D03*
X102744000Y-57567500D03*
X103394000Y-57567500D03*
X104044000Y-57567500D03*
X104694000Y-57567500D03*
X105344000Y-57567500D03*
X105994000Y-57567500D03*
X105994000Y-51842500D03*
X105344000Y-51842500D03*
X104694000Y-51842500D03*
X104044000Y-51842500D03*
X103394000Y-51842500D03*
X102744000Y-51842500D03*
X102094000Y-51842500D03*
X101444000Y-51842500D03*
X100794000Y-51842500D03*
X100144000Y-51842500D03*
%TD*%
D40*
%TO.C,U20*%
X87275000Y-69827500D03*
X86005000Y-69827500D03*
X84735000Y-69827500D03*
X83465000Y-69827500D03*
X83465000Y-75102500D03*
X84735000Y-75102500D03*
X86005000Y-75102500D03*
X87275000Y-75102500D03*
%TD*%
D41*
%TO.C,L1*%
X92500000Y-75800000D03*
X92500000Y-70350000D03*
%TD*%
D32*
%TO.C,U18*%
X132465000Y-34745500D03*
X131815000Y-34745500D03*
X131165000Y-34745500D03*
X130515000Y-34745500D03*
X129865000Y-34745500D03*
X129215000Y-34745500D03*
X128565000Y-34745500D03*
X127915000Y-34745500D03*
X127265000Y-34745500D03*
X126615000Y-34745500D03*
X126615000Y-40470500D03*
X127265000Y-40470500D03*
X127915000Y-40470500D03*
X128565000Y-40470500D03*
X129215000Y-40470500D03*
X129865000Y-40470500D03*
X130515000Y-40470500D03*
X131165000Y-40470500D03*
X131815000Y-40470500D03*
X132465000Y-40470500D03*
%TD*%
%TO.C,U17*%
X120781000Y-34745500D03*
X120131000Y-34745500D03*
X119481000Y-34745500D03*
X118831000Y-34745500D03*
X118181000Y-34745500D03*
X117531000Y-34745500D03*
X116881000Y-34745500D03*
X116231000Y-34745500D03*
X115581000Y-34745500D03*
X114931000Y-34745500D03*
X114931000Y-40470500D03*
X115581000Y-40470500D03*
X116231000Y-40470500D03*
X116881000Y-40470500D03*
X117531000Y-40470500D03*
X118181000Y-40470500D03*
X118831000Y-40470500D03*
X119481000Y-40470500D03*
X120131000Y-40470500D03*
X120781000Y-40470500D03*
%TD*%
D42*
%TO.C,C65*%
X89635000Y-79685000D03*
X91185000Y-79685000D03*
%TD*%
D20*
%TO.C,C59*%
X122558900Y-40503600D03*
X124633900Y-40503600D03*
%TD*%
M02*
