%TF.GenerationSoftware,KiCad,Pcbnew,7.0.6-0*%
%TF.CreationDate,2024-10-04T12:35:45+02:00*%
%TF.ProjectId,Z3660_v022,5a333636-305f-4763-9032-322e6b696361,v0.22*%
%TF.SameCoordinates,Original*%
%TF.FileFunction,Paste,Bot*%
%TF.FilePolarity,Positive*%
%FSLAX46Y46*%
G04 Gerber Fmt 4.6, Leading zero omitted, Abs format (unit mm)*
G04 Created by KiCad (PCBNEW 7.0.6-0) date 2024-10-04 12:35:45*
%MOMM*%
%LPD*%
G01*
G04 APERTURE LIST*
G04 Aperture macros list*
%AMRoundRect*
0 Rectangle with rounded corners*
0 $1 Rounding radius*
0 $2 $3 $4 $5 $6 $7 $8 $9 X,Y pos of 4 corners*
0 Add a 4 corners polygon primitive as box body*
4,1,4,$2,$3,$4,$5,$6,$7,$8,$9,$2,$3,0*
0 Add four circle primitives for the rounded corners*
1,1,$1+$1,$2,$3*
1,1,$1+$1,$4,$5*
1,1,$1+$1,$6,$7*
1,1,$1+$1,$8,$9*
0 Add four rect primitives between the rounded corners*
20,1,$1+$1,$2,$3,$4,$5,0*
20,1,$1+$1,$4,$5,$6,$7,0*
20,1,$1+$1,$6,$7,$8,$9,0*
20,1,$1+$1,$8,$9,$2,$3,0*%
G04 Aperture macros list end*
%ADD10RoundRect,0.250000X-0.337500X-0.475000X0.337500X-0.475000X0.337500X0.475000X-0.337500X0.475000X0*%
%ADD11RoundRect,0.250000X0.350000X0.450000X-0.350000X0.450000X-0.350000X-0.450000X0.350000X-0.450000X0*%
%ADD12RoundRect,0.250000X-0.350000X-0.450000X0.350000X-0.450000X0.350000X0.450000X-0.350000X0.450000X0*%
%ADD13RoundRect,0.250000X-0.475000X0.337500X-0.475000X-0.337500X0.475000X-0.337500X0.475000X0.337500X0*%
%ADD14RoundRect,0.250000X0.450000X-0.350000X0.450000X0.350000X-0.450000X0.350000X-0.450000X-0.350000X0*%
%ADD15RoundRect,0.250000X0.475000X-0.337500X0.475000X0.337500X-0.475000X0.337500X-0.475000X-0.337500X0*%
%ADD16RoundRect,0.250000X-0.450000X0.350000X-0.450000X-0.350000X0.450000X-0.350000X0.450000X0.350000X0*%
%ADD17RoundRect,0.250000X0.337500X0.475000X-0.337500X0.475000X-0.337500X-0.475000X0.337500X-0.475000X0*%
%ADD18RoundRect,0.200000X-0.200000X-0.275000X0.200000X-0.275000X0.200000X0.275000X-0.200000X0.275000X0*%
%ADD19R,0.800000X0.500000*%
%ADD20R,0.800000X0.400000*%
%ADD21R,0.500000X0.800000*%
%ADD22R,0.400000X0.800000*%
%ADD23R,1.400000X0.300000*%
G04 APERTURE END LIST*
D10*
%TO.C,C12*%
X246917300Y-115239800D03*
X248992300Y-115239800D03*
%TD*%
D11*
%TO.C,R2*%
X161534600Y-48681200D03*
X163534600Y-48681200D03*
%TD*%
D12*
%TO.C,R3*%
X165950000Y-37900000D03*
X163950000Y-37900000D03*
%TD*%
D13*
%TO.C,C47*%
X229870000Y-44026000D03*
X229870000Y-46101000D03*
%TD*%
D10*
%TO.C,C11*%
X103717200Y-110210600D03*
X105792200Y-110210600D03*
%TD*%
D14*
%TO.C,R6*%
X206883000Y-52213000D03*
X206883000Y-54213000D03*
%TD*%
D12*
%TO.C,R7*%
X210143600Y-46380400D03*
X208143600Y-46380400D03*
%TD*%
%TO.C,R8*%
X214360000Y-43942000D03*
X212360000Y-43942000D03*
%TD*%
%TO.C,R13*%
X114258600Y-110200000D03*
X112258600Y-110200000D03*
%TD*%
D15*
%TO.C,C48*%
X229870000Y-49932500D03*
X229870000Y-47857500D03*
%TD*%
D10*
%TO.C,C13*%
X103717200Y-106400600D03*
X105792200Y-106400600D03*
%TD*%
%TO.C,C14*%
X246917300Y-118922800D03*
X248992300Y-118922800D03*
%TD*%
D12*
%TO.C,R5*%
X210143600Y-43942000D03*
X208143600Y-43942000D03*
%TD*%
%TO.C,R14*%
X220300000Y-109100000D03*
X218300000Y-109100000D03*
%TD*%
D16*
%TO.C,R4*%
X136900000Y-33400000D03*
X136900000Y-31400000D03*
%TD*%
D10*
%TO.C,C2*%
X126343500Y-56896000D03*
X128418500Y-56896000D03*
%TD*%
D17*
%TO.C,C5*%
X121179500Y-65659000D03*
X119104500Y-65659000D03*
%TD*%
D10*
%TO.C,C6*%
X126343500Y-65659000D03*
X128418500Y-65659000D03*
%TD*%
%TO.C,C7*%
X133582500Y-65659000D03*
X135657500Y-65659000D03*
%TD*%
D17*
%TO.C,C8*%
X121179500Y-75311000D03*
X119104500Y-75311000D03*
%TD*%
%TO.C,C9*%
X128418500Y-75311000D03*
X126343500Y-75311000D03*
%TD*%
%TO.C,C18*%
X229891500Y-66929000D03*
X227816500Y-66929000D03*
%TD*%
D10*
%TO.C,C19*%
X212195500Y-66929000D03*
X214270500Y-66929000D03*
%TD*%
%TO.C,C23*%
X217275500Y-66929000D03*
X219350500Y-66929000D03*
%TD*%
%TO.C,C20*%
X222355500Y-66929000D03*
X224430500Y-66929000D03*
%TD*%
D13*
%TO.C,C15*%
X229870000Y-57192000D03*
X229870000Y-59267000D03*
%TD*%
%TO.C,C21*%
X229870000Y-51667500D03*
X229870000Y-53742500D03*
%TD*%
D10*
%TO.C,C22*%
X206756500Y-66929000D03*
X208831500Y-66929000D03*
%TD*%
D13*
%TO.C,C17*%
X229870000Y-62272000D03*
X229870000Y-64347000D03*
%TD*%
D10*
%TO.C,C16*%
X206734500Y-61849000D03*
X208809500Y-61849000D03*
%TD*%
%TO.C,C3*%
X133582500Y-56896000D03*
X135657500Y-56896000D03*
%TD*%
%TO.C,C4*%
X119104500Y-56896000D03*
X121179500Y-56896000D03*
%TD*%
D17*
%TO.C,C44*%
X185695500Y-49276000D03*
X183620500Y-49276000D03*
%TD*%
D10*
%TO.C,C52*%
X179810500Y-49276000D03*
X181885500Y-49276000D03*
%TD*%
D17*
%TO.C,C46*%
X227351500Y-43992800D03*
X225276500Y-43992800D03*
%TD*%
D10*
%TO.C,C49*%
X206798000Y-56705500D03*
X208873000Y-56705500D03*
%TD*%
%TO.C,C10*%
X133582500Y-75311000D03*
X135657500Y-75311000D03*
%TD*%
%TO.C,C45*%
X217170500Y-43942000D03*
X219245500Y-43942000D03*
%TD*%
D16*
%TO.C,R11*%
X157550000Y-33400000D03*
X157550000Y-31400000D03*
%TD*%
D18*
%TO.C,R32*%
X83225000Y-81750000D03*
X84875000Y-81750000D03*
%TD*%
D19*
%TO.C,RN2*%
X244700000Y-36200000D03*
D20*
X244700000Y-37000000D03*
X244700000Y-37800000D03*
D19*
X244700000Y-38600000D03*
X242900000Y-38600000D03*
D20*
X242900000Y-37800000D03*
X242900000Y-37000000D03*
D19*
X242900000Y-36200000D03*
%TD*%
D21*
%TO.C,RN21*%
X137200000Y-81800000D03*
D22*
X138000000Y-81800000D03*
X138800000Y-81800000D03*
D21*
X139600000Y-81800000D03*
X139600000Y-83600000D03*
D22*
X138800000Y-83600000D03*
X138000000Y-83600000D03*
D21*
X137200000Y-83600000D03*
%TD*%
D17*
%TO.C,C63*%
X224303500Y-55778400D03*
X222228500Y-55778400D03*
%TD*%
D19*
%TO.C,RN16*%
X204900000Y-106800000D03*
D20*
X204900000Y-107600000D03*
X204900000Y-108400000D03*
D19*
X204900000Y-109200000D03*
X203100000Y-109200000D03*
D20*
X203100000Y-108400000D03*
X203100000Y-107600000D03*
D19*
X203100000Y-106800000D03*
%TD*%
%TO.C,RN17*%
X245100000Y-104000000D03*
D20*
X245100000Y-104800000D03*
X245100000Y-105600000D03*
D19*
X245100000Y-106400000D03*
X243300000Y-106400000D03*
D20*
X243300000Y-105600000D03*
X243300000Y-104800000D03*
D19*
X243300000Y-104000000D03*
%TD*%
D21*
%TO.C,RN7*%
X157900000Y-96300000D03*
D22*
X157100000Y-96300000D03*
X156300000Y-96300000D03*
D21*
X155500000Y-96300000D03*
X155500000Y-94500000D03*
D22*
X156300000Y-94500000D03*
X157100000Y-94500000D03*
D21*
X157900000Y-94500000D03*
%TD*%
D19*
%TO.C,RN1*%
X244700000Y-32200000D03*
D20*
X244700000Y-33000000D03*
X244700000Y-33800000D03*
D19*
X244700000Y-34600000D03*
X242900000Y-34600000D03*
D20*
X242900000Y-33800000D03*
X242900000Y-33000000D03*
D19*
X242900000Y-32200000D03*
%TD*%
D21*
%TO.C,RN10*%
X146900000Y-102100000D03*
D22*
X146100000Y-102100000D03*
X145300000Y-102100000D03*
D21*
X144500000Y-102100000D03*
X144500000Y-100300000D03*
D22*
X145300000Y-100300000D03*
X146100000Y-100300000D03*
D21*
X146900000Y-100300000D03*
%TD*%
D11*
%TO.C,R29*%
X95418400Y-113487200D03*
X97418400Y-113487200D03*
%TD*%
D21*
%TO.C,RN9*%
X150900000Y-102100000D03*
D22*
X150100000Y-102100000D03*
X149300000Y-102100000D03*
D21*
X148500000Y-102100000D03*
X148500000Y-100300000D03*
D22*
X149300000Y-100300000D03*
X150100000Y-100300000D03*
D21*
X150900000Y-100300000D03*
%TD*%
D19*
%TO.C,RN15*%
X204900000Y-102800000D03*
D20*
X204900000Y-103600000D03*
X204900000Y-104400000D03*
D19*
X204900000Y-105200000D03*
X203100000Y-105200000D03*
D20*
X203100000Y-104400000D03*
X203100000Y-103600000D03*
D19*
X203100000Y-102800000D03*
%TD*%
D18*
%TO.C,R35*%
X83225000Y-83850000D03*
X84875000Y-83850000D03*
%TD*%
D14*
%TO.C,R23*%
X216560400Y-48698400D03*
X216560400Y-50698400D03*
%TD*%
D18*
%TO.C,R37*%
X83275000Y-88150000D03*
X84925000Y-88150000D03*
%TD*%
D21*
%TO.C,RN19*%
X180600000Y-51800000D03*
D22*
X181400000Y-51800000D03*
X182200000Y-51800000D03*
D21*
X183000000Y-51800000D03*
X183000000Y-53600000D03*
D22*
X182200000Y-53600000D03*
X181400000Y-53600000D03*
D21*
X180600000Y-53600000D03*
%TD*%
D12*
%TO.C,R1*%
X132826000Y-94004000D03*
X130826000Y-94004000D03*
%TD*%
D19*
%TO.C,RN18*%
X245100000Y-100000000D03*
D20*
X245100000Y-100800000D03*
X245100000Y-101600000D03*
D19*
X245100000Y-102400000D03*
X243300000Y-102400000D03*
D20*
X243300000Y-101600000D03*
X243300000Y-100800000D03*
D19*
X243300000Y-100000000D03*
%TD*%
D21*
%TO.C,RN3*%
X170300000Y-96300000D03*
D22*
X169500000Y-96300000D03*
X168700000Y-96300000D03*
D21*
X167900000Y-96300000D03*
X167900000Y-94500000D03*
D22*
X168700000Y-94500000D03*
X169500000Y-94500000D03*
D21*
X170300000Y-94500000D03*
%TD*%
D12*
%TO.C,R19*%
X102117400Y-31460000D03*
X100117400Y-31460000D03*
%TD*%
D11*
%TO.C,R30*%
X218421200Y-56388000D03*
X220421200Y-56388000D03*
%TD*%
D18*
%TO.C,R36*%
X83250000Y-86000000D03*
X84900000Y-86000000D03*
%TD*%
D21*
%TO.C,RN22*%
X133200000Y-81800000D03*
D22*
X134000000Y-81800000D03*
X134800000Y-81800000D03*
D21*
X135600000Y-81800000D03*
X135600000Y-83600000D03*
D22*
X134800000Y-83600000D03*
X134000000Y-83600000D03*
D21*
X133200000Y-83600000D03*
%TD*%
D14*
%TO.C,R22*%
X214579200Y-52492400D03*
X214579200Y-54492400D03*
%TD*%
D11*
%TO.C,R17*%
X95672400Y-51104800D03*
X97672400Y-51104800D03*
%TD*%
D14*
%TO.C,R26*%
X218541600Y-52508400D03*
X218541600Y-54508400D03*
%TD*%
%TO.C,R25*%
X218541600Y-48698400D03*
X218541600Y-50698400D03*
%TD*%
D21*
%TO.C,RN8*%
X153900000Y-96300000D03*
D22*
X153100000Y-96300000D03*
X152300000Y-96300000D03*
D21*
X151500000Y-96300000D03*
X151500000Y-94500000D03*
D22*
X152300000Y-94500000D03*
X153100000Y-94500000D03*
D21*
X153900000Y-94500000D03*
%TD*%
D23*
%TO.C,U1*%
X220796400Y-53848000D03*
X220796400Y-53348000D03*
X220796400Y-52848000D03*
X220796400Y-52348000D03*
X220796400Y-51848000D03*
X225196400Y-51848000D03*
X225196400Y-52348000D03*
X225196400Y-52848000D03*
X225196400Y-53348000D03*
X225196400Y-53848000D03*
%TD*%
D21*
%TO.C,RN20*%
X184600000Y-51800000D03*
D22*
X185400000Y-51800000D03*
X186200000Y-51800000D03*
D21*
X187000000Y-51800000D03*
X187000000Y-53600000D03*
D22*
X186200000Y-53600000D03*
X185400000Y-53600000D03*
D21*
X184600000Y-53600000D03*
%TD*%
D14*
%TO.C,R24*%
X214579200Y-48682400D03*
X214579200Y-50682400D03*
%TD*%
D19*
%TO.C,RN13*%
X207400000Y-109200000D03*
D20*
X207400000Y-108400000D03*
X207400000Y-107600000D03*
D19*
X207400000Y-106800000D03*
X209200000Y-106800000D03*
D20*
X209200000Y-107600000D03*
X209200000Y-108400000D03*
D19*
X209200000Y-109200000D03*
%TD*%
D21*
%TO.C,RN12*%
X175700000Y-69200000D03*
D22*
X176500000Y-69200000D03*
X177300000Y-69200000D03*
D21*
X178100000Y-69200000D03*
X178100000Y-71000000D03*
D22*
X177300000Y-71000000D03*
X176500000Y-71000000D03*
D21*
X175700000Y-71000000D03*
%TD*%
D19*
%TO.C,RN14*%
X207400000Y-105200000D03*
D20*
X207400000Y-104400000D03*
X207400000Y-103600000D03*
D19*
X207400000Y-102800000D03*
X209200000Y-102800000D03*
D20*
X209200000Y-103600000D03*
X209200000Y-104400000D03*
D19*
X209200000Y-105200000D03*
%TD*%
D21*
%TO.C,RN11*%
X179700000Y-69200000D03*
D22*
X180500000Y-69200000D03*
X181300000Y-69200000D03*
D21*
X182100000Y-69200000D03*
X182100000Y-71000000D03*
D22*
X181300000Y-71000000D03*
X180500000Y-71000000D03*
D21*
X179700000Y-71000000D03*
%TD*%
%TO.C,RN4*%
X166300000Y-96300000D03*
D22*
X165500000Y-96300000D03*
X164700000Y-96300000D03*
D21*
X163900000Y-96300000D03*
X163900000Y-94500000D03*
D22*
X164700000Y-94500000D03*
X165500000Y-94500000D03*
D21*
X166300000Y-94500000D03*
%TD*%
D14*
%TO.C,R27*%
X216560400Y-52492400D03*
X216560400Y-54492400D03*
%TD*%
D21*
%TO.C,RN6*%
X159300000Y-102100000D03*
D22*
X158500000Y-102100000D03*
X157700000Y-102100000D03*
D21*
X156900000Y-102100000D03*
X156900000Y-100300000D03*
D22*
X157700000Y-100300000D03*
X158500000Y-100300000D03*
D21*
X159300000Y-100300000D03*
%TD*%
D11*
%TO.C,R12*%
X221351600Y-43992800D03*
X223351600Y-43992800D03*
%TD*%
D21*
%TO.C,RN5*%
X163300000Y-102100000D03*
D22*
X162500000Y-102100000D03*
X161700000Y-102100000D03*
D21*
X160900000Y-102100000D03*
X160900000Y-100300000D03*
D22*
X161700000Y-100300000D03*
X162500000Y-100300000D03*
D21*
X163300000Y-100300000D03*
%TD*%
M02*
