%TF.GenerationSoftware,KiCad,Pcbnew,7.0.6-0*%
%TF.CreationDate,2024-10-04T20:33:39+02:00*%
%TF.ProjectId,Z3660_CPLD_prog,5a333636-305f-4435-904c-445f70726f67,rev?*%
%TF.SameCoordinates,Original*%
%TF.FileFunction,Copper,L1,Top*%
%TF.FilePolarity,Positive*%
%FSLAX46Y46*%
G04 Gerber Fmt 4.6, Leading zero omitted, Abs format (unit mm)*
G04 Created by KiCad (PCBNEW 7.0.6-0) date 2024-10-04 20:33:39*
%MOMM*%
%LPD*%
G01*
G04 APERTURE LIST*
G04 Aperture macros list*
%AMRoundRect*
0 Rectangle with rounded corners*
0 $1 Rounding radius*
0 $2 $3 $4 $5 $6 $7 $8 $9 X,Y pos of 4 corners*
0 Add a 4 corners polygon primitive as box body*
4,1,4,$2,$3,$4,$5,$6,$7,$8,$9,$2,$3,0*
0 Add four circle primitives for the rounded corners*
1,1,$1+$1,$2,$3*
1,1,$1+$1,$4,$5*
1,1,$1+$1,$6,$7*
1,1,$1+$1,$8,$9*
0 Add four rect primitives between the rounded corners*
20,1,$1+$1,$2,$3,$4,$5,0*
20,1,$1+$1,$4,$5,$6,$7,0*
20,1,$1+$1,$6,$7,$8,$9,0*
20,1,$1+$1,$8,$9,$2,$3,0*%
G04 Aperture macros list end*
%TA.AperFunction,SMDPad,CuDef*%
%ADD10R,0.400000X1.000000*%
%TD*%
%TA.AperFunction,SMDPad,CuDef*%
%ADD11RoundRect,0.250000X-0.450000X0.350000X-0.450000X-0.350000X0.450000X-0.350000X0.450000X0.350000X0*%
%TD*%
%TA.AperFunction,ComponentPad*%
%ADD12C,1.605000*%
%TD*%
%TA.AperFunction,SMDPad,CuDef*%
%ADD13RoundRect,0.250000X0.337500X0.475000X-0.337500X0.475000X-0.337500X-0.475000X0.337500X-0.475000X0*%
%TD*%
%TA.AperFunction,ComponentPad*%
%ADD14R,1.700000X1.700000*%
%TD*%
%TA.AperFunction,ComponentPad*%
%ADD15O,1.700000X1.700000*%
%TD*%
%TA.AperFunction,ViaPad*%
%ADD16C,0.800000*%
%TD*%
%TA.AperFunction,Conductor*%
%ADD17C,0.250000*%
%TD*%
%TA.AperFunction,Conductor*%
%ADD18C,0.400000*%
%TD*%
G04 APERTURE END LIST*
D10*
%TO.P,U1,1,~{INT}*%
%TO.N,unconnected-(U1-~{INT}-Pad1)*%
X153625000Y-48850000D03*
%TO.P,U1,2,SCL*%
%TO.N,I2C0_CLK*%
X152975000Y-48850000D03*
%TO.P,U1,3,NC*%
%TO.N,unconnected-(U1-NC-Pad3)*%
X152325000Y-48850000D03*
%TO.P,U1,4,SDA*%
%TO.N,I2C0_SDA*%
X151675000Y-48850000D03*
%TO.P,U1,5,VDD*%
%TO.N,+3V3*%
X151025000Y-48850000D03*
%TO.P,U1,6,A0*%
%TO.N,Earth*%
X150375000Y-48850000D03*
%TO.P,U1,7,A1*%
X149725000Y-48850000D03*
%TO.P,U1,8,NC*%
%TO.N,unconnected-(U1-NC-Pad8)*%
X149075000Y-48850000D03*
%TO.P,U1,9,A2*%
%TO.N,Earth*%
X148425000Y-48850000D03*
%TO.P,U1,10,P0*%
%TO.N,unconnected-(U1-P0-Pad10)*%
X147775000Y-48850000D03*
%TO.P,U1,11,P1*%
%TO.N,unconnected-(U1-P1-Pad11)*%
X147775000Y-54650000D03*
%TO.P,U1,12,P2*%
%TO.N,unconnected-(U1-P2-Pad12)*%
X148425000Y-54650000D03*
%TO.P,U1,13,NC*%
%TO.N,unconnected-(U1-NC-Pad13)*%
X149075000Y-54650000D03*
%TO.P,U1,14,P3*%
%TO.N,unconnected-(U1-P3-Pad14)*%
X149725000Y-54650000D03*
%TO.P,U1,15,VSS*%
%TO.N,Earth*%
X150375000Y-54650000D03*
%TO.P,U1,16,P4*%
%TO.N,TMS*%
X151025000Y-54650000D03*
%TO.P,U1,17,P5*%
%TO.N,TCK*%
X151675000Y-54650000D03*
%TO.P,U1,18,NC*%
%TO.N,unconnected-(U1-NC-Pad18)*%
X152325000Y-54650000D03*
%TO.P,U1,19,P6*%
%TO.N,TDO*%
X152975000Y-54650000D03*
%TO.P,U1,20,P7*%
%TO.N,TDI*%
X153625000Y-54650000D03*
%TD*%
D11*
%TO.P,R1,1*%
%TO.N,+3V3*%
X132960000Y-52870000D03*
%TO.P,R1,2*%
%TO.N,I2C0_CLK*%
X132960000Y-54870000D03*
%TD*%
D12*
%TO.P,J1,1,1*%
%TO.N,Earth*%
X144650000Y-50540000D03*
%TO.P,J1,2,2*%
%TO.N,I2C0_CLK*%
X142110000Y-50540000D03*
%TO.P,J1,3,3*%
%TO.N,+3V3*%
X139570000Y-50540000D03*
%TO.P,J1,4,4*%
%TO.N,I2C0_SDA*%
X137030000Y-50540000D03*
%TD*%
D11*
%TO.P,R2,2*%
%TO.N,I2C0_SDA*%
X132960000Y-51120000D03*
%TO.P,R2,1*%
%TO.N,+3V3*%
X132960000Y-49120000D03*
%TD*%
D13*
%TO.P,C1,1*%
%TO.N,+3V3*%
X153637500Y-46900000D03*
%TO.P,C1,2*%
%TO.N,Earth*%
X151562500Y-46900000D03*
%TD*%
D14*
%TO.P,J3,1,Pin_1*%
%TO.N,Earth*%
X133480000Y-46100000D03*
D15*
%TO.P,J3,2,Pin_2*%
%TO.N,unconnected-(J3-Pin_2-Pad2)*%
X133480000Y-43560000D03*
%TO.P,J3,3,Pin_3*%
%TO.N,Earth*%
X136020000Y-46100000D03*
%TO.P,J3,4,Pin_4*%
%TO.N,TMS*%
X136020000Y-43560000D03*
%TO.P,J3,5,Pin_5*%
%TO.N,Earth*%
X138560000Y-46100000D03*
%TO.P,J3,6,Pin_6*%
%TO.N,TCK*%
X138560000Y-43560000D03*
%TO.P,J3,7,Pin_7*%
%TO.N,Earth*%
X141100000Y-46100000D03*
%TO.P,J3,8,Pin_8*%
%TO.N,TDO*%
X141100000Y-43560000D03*
%TO.P,J3,9,Pin_9*%
%TO.N,Earth*%
X143640000Y-46100000D03*
%TO.P,J3,10,Pin_10*%
%TO.N,TDI*%
X143640000Y-43560000D03*
%TO.P,J3,11,Pin_11*%
%TO.N,Earth*%
X146180000Y-46100000D03*
%TO.P,J3,12,Pin_12*%
%TO.N,unconnected-(J3-Pin_12-Pad12)*%
X146180000Y-43560000D03*
%TO.P,J3,13,Pin_13*%
%TO.N,Earth*%
X148720000Y-46100000D03*
%TO.P,J3,14,Pin_14*%
%TO.N,unconnected-(J3-Pin_14-Pad14)*%
X148720000Y-43560000D03*
%TD*%
D16*
%TO.N,+3V3*%
X149930445Y-49969555D03*
%TO.N,I2C0_CLK*%
X152950000Y-50000000D03*
%TO.N,I2C0_SDA*%
X151723922Y-50945000D03*
%TD*%
D17*
%TO.N,+3V3*%
X151025000Y-48850000D02*
X151025000Y-49600000D01*
X153637500Y-46900000D02*
X153637500Y-46962500D01*
X132960000Y-49120000D02*
X138150000Y-49120000D01*
X152600000Y-48000000D02*
X151125000Y-48000000D01*
X132960000Y-52870000D02*
X133360000Y-52470000D01*
X137640000Y-52470000D02*
X139570000Y-50540000D01*
X151025000Y-49600000D02*
X150655445Y-49969555D01*
X133360000Y-52470000D02*
X137640000Y-52470000D01*
X150655445Y-49969555D02*
X149930445Y-49969555D01*
X151025000Y-48100000D02*
X151025000Y-48850000D01*
X138150000Y-49120000D02*
X139570000Y-50540000D01*
X153637500Y-46962500D02*
X152600000Y-48000000D01*
X151125000Y-48000000D02*
X151025000Y-48100000D01*
%TO.N,Earth*%
X138882500Y-48962500D02*
X136020000Y-46100000D01*
X151562500Y-46900000D02*
X150762500Y-46100000D01*
X150662500Y-47800000D02*
X150650000Y-47800000D01*
X151562500Y-46900000D02*
X150662500Y-47800000D01*
D18*
X149531142Y-52970000D02*
X147080000Y-52970000D01*
D17*
X148425000Y-48100000D02*
X148725000Y-47800000D01*
X149725000Y-48850000D02*
X149725000Y-47825000D01*
X148425000Y-48850000D02*
X148425000Y-48100000D01*
D18*
X147080000Y-52970000D02*
X144650000Y-50540000D01*
D17*
X149725000Y-47825000D02*
X149750000Y-47800000D01*
X148725000Y-47800000D02*
X149750000Y-47800000D01*
X143072500Y-48962500D02*
X138882500Y-48962500D01*
X150375000Y-48850000D02*
X150375000Y-47800000D01*
X150762500Y-46100000D02*
X148720000Y-46100000D01*
D18*
X150375000Y-54650000D02*
X150375000Y-53813858D01*
X150375000Y-53813858D02*
X149531142Y-52970000D01*
D17*
X144650000Y-50540000D02*
X143072500Y-48962500D01*
X149750000Y-47800000D02*
X150650000Y-47800000D01*
%TO.N,I2C0_CLK*%
X152975000Y-48850000D02*
X152975000Y-49975000D01*
X139730000Y-52920000D02*
X142110000Y-50540000D01*
X132960000Y-54870000D02*
X134910000Y-52920000D01*
X152975000Y-49975000D02*
X152950000Y-50000000D01*
X134910000Y-52920000D02*
X139730000Y-52920000D01*
%TO.N,I2C0_SDA*%
X151675000Y-50896078D02*
X151723922Y-50945000D01*
X151675000Y-48850000D02*
X151675000Y-50896078D01*
X132960000Y-51120000D02*
X133540000Y-50540000D01*
X133540000Y-50540000D02*
X137030000Y-50540000D01*
%TO.N,TDI*%
X151681396Y-51970000D02*
X151720000Y-51970000D01*
X143640000Y-43560000D02*
X145005000Y-44925000D01*
X148708714Y-51095000D02*
X150806396Y-51095000D01*
X150806396Y-51095000D02*
X151681396Y-51970000D01*
X145005000Y-47391286D02*
X148708714Y-51095000D01*
X153625000Y-53875000D02*
X153625000Y-54650000D01*
X145005000Y-44925000D02*
X145005000Y-47391286D01*
X151720000Y-51970000D02*
X153625000Y-53875000D01*
%TO.N,TDO*%
X142465000Y-44925000D02*
X142465000Y-46586701D01*
X141100000Y-43560000D02*
X142465000Y-44925000D01*
X144402318Y-47425000D02*
X148522318Y-51545000D01*
X150620000Y-51545000D02*
X152975000Y-53900000D01*
X152975000Y-53900000D02*
X152975000Y-54650000D01*
X143303299Y-47425000D02*
X144402318Y-47425000D01*
X142465000Y-46586701D02*
X143303299Y-47425000D01*
X148522318Y-51545000D02*
X150620000Y-51545000D01*
%TO.N,TMS*%
X139123299Y-48325000D02*
X144029526Y-48325000D01*
X136020000Y-43560000D02*
X137385000Y-44925000D01*
X151025000Y-53721396D02*
X151025000Y-54650000D01*
X149748604Y-52445000D02*
X151025000Y-53721396D01*
X144029526Y-48325000D02*
X148149526Y-52445000D01*
X137385000Y-46586701D02*
X139123299Y-48325000D01*
X148149526Y-52445000D02*
X149748604Y-52445000D01*
X137385000Y-44925000D02*
X137385000Y-46586701D01*
%TO.N,TCK*%
X139925000Y-46675000D02*
X141125000Y-47875000D01*
X149935000Y-51995000D02*
X151675000Y-53735000D01*
X151675000Y-53735000D02*
X151675000Y-54650000D01*
X148335922Y-51995000D02*
X149935000Y-51995000D01*
X144215922Y-47875000D02*
X148335922Y-51995000D01*
X139925000Y-44925000D02*
X139925000Y-46675000D01*
X138560000Y-43560000D02*
X139925000Y-44925000D01*
X141125000Y-47875000D02*
X144215922Y-47875000D01*
%TD*%
%TA.AperFunction,Conductor*%
%TO.N,+3V3*%
G36*
X151093039Y-48744685D02*
G01*
X151138794Y-48797489D01*
X151150000Y-48849000D01*
X151150000Y-49600000D01*
X151175500Y-49600000D01*
X151242539Y-49619685D01*
X151288294Y-49672489D01*
X151299500Y-49724000D01*
X151299500Y-50396137D01*
X151279815Y-50463176D01*
X151257728Y-50488952D01*
X151233439Y-50510469D01*
X151233437Y-50510472D01*
X151143703Y-50640475D01*
X151143701Y-50640478D01*
X151128969Y-50679323D01*
X151086791Y-50735025D01*
X151021193Y-50759081D01*
X150977647Y-50754195D01*
X150920993Y-50737329D01*
X150869054Y-50719499D01*
X150861319Y-50718208D01*
X150853481Y-50717231D01*
X150798640Y-50719500D01*
X148915613Y-50719500D01*
X148848574Y-50699815D01*
X148827932Y-50683181D01*
X147951502Y-49806751D01*
X147918017Y-49745428D01*
X147923001Y-49675736D01*
X147964873Y-49619803D01*
X148014992Y-49597453D01*
X148075809Y-49585356D01*
X148124192Y-49585356D01*
X148200323Y-49600500D01*
X148200326Y-49600500D01*
X148649676Y-49600500D01*
X148725808Y-49585356D01*
X148774192Y-49585356D01*
X148850323Y-49600500D01*
X148850326Y-49600500D01*
X149299676Y-49600500D01*
X149375807Y-49585356D01*
X149424191Y-49585356D01*
X149500323Y-49600500D01*
X149500326Y-49600500D01*
X149949676Y-49600500D01*
X150025808Y-49585356D01*
X150074192Y-49585356D01*
X150150323Y-49600500D01*
X150150326Y-49600500D01*
X150599676Y-49600500D01*
X150677089Y-49585101D01*
X150725473Y-49585101D01*
X150800373Y-49600000D01*
X150900000Y-49600000D01*
X150900000Y-48849000D01*
X150919685Y-48781961D01*
X150972489Y-48736206D01*
X151024000Y-48725000D01*
X151026000Y-48725000D01*
X151093039Y-48744685D01*
G37*
%TD.AperFunction*%
%TA.AperFunction,Conductor*%
G36*
X155692539Y-42170185D02*
G01*
X155738294Y-42222989D01*
X155749500Y-42274500D01*
X155749500Y-55845500D01*
X155729815Y-55912539D01*
X155677011Y-55958294D01*
X155625500Y-55969500D01*
X126634000Y-55969500D01*
X126566961Y-55949815D01*
X126521206Y-55897011D01*
X126510000Y-55845500D01*
X126510000Y-55267870D01*
X132009500Y-55267870D01*
X132009501Y-55267876D01*
X132015908Y-55327483D01*
X132066202Y-55462328D01*
X132066206Y-55462335D01*
X132152452Y-55577544D01*
X132152455Y-55577547D01*
X132267664Y-55663793D01*
X132267671Y-55663797D01*
X132402517Y-55714091D01*
X132402516Y-55714091D01*
X132409444Y-55714835D01*
X132462127Y-55720500D01*
X133457872Y-55720499D01*
X133517483Y-55714091D01*
X133652331Y-55663796D01*
X133767546Y-55577546D01*
X133853796Y-55462331D01*
X133904091Y-55327483D01*
X133910500Y-55267873D01*
X133910499Y-54501897D01*
X133930183Y-54434859D01*
X133946813Y-54414222D01*
X135029217Y-53331819D01*
X135090541Y-53298334D01*
X135116899Y-53295500D01*
X136167187Y-53295500D01*
X136234226Y-53315185D01*
X136279981Y-53367989D01*
X136289925Y-53437147D01*
X136260900Y-53500703D01*
X136258824Y-53503038D01*
X136115963Y-53659749D01*
X136004691Y-53839459D01*
X136004690Y-53839460D01*
X135936041Y-54016666D01*
X135928338Y-54036550D01*
X135889500Y-54244317D01*
X135889500Y-54455683D01*
X135928338Y-54663450D01*
X135928339Y-54663452D01*
X136004690Y-54860539D01*
X136004691Y-54860540D01*
X136115963Y-55040250D01*
X136258355Y-55196448D01*
X136258358Y-55196450D01*
X136427032Y-55323827D01*
X136550599Y-55385356D01*
X136616237Y-55418040D01*
X136616243Y-55418043D01*
X136771902Y-55462331D01*
X136819536Y-55475884D01*
X136977271Y-55490500D01*
X136977275Y-55490500D01*
X137082725Y-55490500D01*
X137082729Y-55490500D01*
X137240464Y-55475884D01*
X137327350Y-55451162D01*
X137443756Y-55418043D01*
X137443758Y-55418041D01*
X137443761Y-55418041D01*
X137632968Y-55323827D01*
X137801642Y-55196450D01*
X137944038Y-55040249D01*
X138055308Y-54860542D01*
X138131662Y-54663450D01*
X138170500Y-54455683D01*
X138170500Y-54244317D01*
X138131662Y-54036550D01*
X138063904Y-53861647D01*
X138055309Y-53839460D01*
X138055308Y-53839459D01*
X138055308Y-53839458D01*
X137944038Y-53659751D01*
X137868771Y-53577187D01*
X137801176Y-53503038D01*
X137770559Y-53440234D01*
X137778757Y-53370847D01*
X137823166Y-53316907D01*
X137889689Y-53295539D01*
X137892813Y-53295500D01*
X138707187Y-53295500D01*
X138774226Y-53315185D01*
X138819981Y-53367989D01*
X138829925Y-53437147D01*
X138800900Y-53500703D01*
X138798824Y-53503038D01*
X138655963Y-53659749D01*
X138544691Y-53839459D01*
X138544690Y-53839460D01*
X138476041Y-54016666D01*
X138468338Y-54036550D01*
X138429500Y-54244317D01*
X138429500Y-54455683D01*
X138468338Y-54663450D01*
X138468339Y-54663452D01*
X138544690Y-54860539D01*
X138544691Y-54860540D01*
X138655963Y-55040250D01*
X138798355Y-55196448D01*
X138798358Y-55196450D01*
X138967032Y-55323827D01*
X139090599Y-55385356D01*
X139156237Y-55418040D01*
X139156243Y-55418043D01*
X139311902Y-55462331D01*
X139359536Y-55475884D01*
X139517271Y-55490500D01*
X139517275Y-55490500D01*
X139622725Y-55490500D01*
X139622729Y-55490500D01*
X139780464Y-55475884D01*
X139867350Y-55451162D01*
X139983756Y-55418043D01*
X139983758Y-55418041D01*
X139983761Y-55418041D01*
X140172968Y-55323827D01*
X140341642Y-55196450D01*
X140484038Y-55040249D01*
X140595308Y-54860542D01*
X140671662Y-54663450D01*
X140710500Y-54455683D01*
X140969500Y-54455683D01*
X141008338Y-54663450D01*
X141008339Y-54663452D01*
X141084690Y-54860539D01*
X141084691Y-54860540D01*
X141195963Y-55040250D01*
X141338355Y-55196448D01*
X141338358Y-55196450D01*
X141507032Y-55323827D01*
X141630599Y-55385356D01*
X141696237Y-55418040D01*
X141696243Y-55418043D01*
X141851902Y-55462331D01*
X141899536Y-55475884D01*
X142057271Y-55490500D01*
X142057275Y-55490500D01*
X142162725Y-55490500D01*
X142162729Y-55490500D01*
X142320464Y-55475884D01*
X142407350Y-55451162D01*
X142523756Y-55418043D01*
X142523758Y-55418041D01*
X142523761Y-55418041D01*
X142712968Y-55323827D01*
X142881642Y-55196450D01*
X143024038Y-55040249D01*
X143135308Y-54860542D01*
X143211662Y-54663450D01*
X143250500Y-54455683D01*
X143509500Y-54455683D01*
X143548338Y-54663450D01*
X143548339Y-54663452D01*
X143624690Y-54860539D01*
X143624691Y-54860540D01*
X143735963Y-55040250D01*
X143878355Y-55196448D01*
X143878358Y-55196450D01*
X144047032Y-55323827D01*
X144170599Y-55385356D01*
X144236237Y-55418040D01*
X144236243Y-55418043D01*
X144391902Y-55462331D01*
X144439536Y-55475884D01*
X144597271Y-55490500D01*
X144597275Y-55490500D01*
X144702725Y-55490500D01*
X144702729Y-55490500D01*
X144860464Y-55475884D01*
X144947350Y-55451162D01*
X145063756Y-55418043D01*
X145063758Y-55418041D01*
X145063761Y-55418041D01*
X145252968Y-55323827D01*
X145421642Y-55196450D01*
X145564038Y-55040249D01*
X145675308Y-54860542D01*
X145751662Y-54663450D01*
X145790500Y-54455683D01*
X145790500Y-54244317D01*
X145751662Y-54036550D01*
X145683904Y-53861647D01*
X145675309Y-53839460D01*
X145675308Y-53839459D01*
X145675308Y-53839458D01*
X145564038Y-53659751D01*
X145488771Y-53577187D01*
X145421644Y-53503551D01*
X145252968Y-53376173D01*
X145063762Y-53281959D01*
X145063756Y-53281956D01*
X144860466Y-53224116D01*
X144860463Y-53224115D01*
X144748472Y-53213738D01*
X144702729Y-53209500D01*
X144597271Y-53209500D01*
X144554619Y-53213452D01*
X144439536Y-53224115D01*
X144439533Y-53224116D01*
X144236243Y-53281956D01*
X144236237Y-53281959D01*
X144047031Y-53376173D01*
X143878355Y-53503551D01*
X143735963Y-53659749D01*
X143624691Y-53839459D01*
X143624690Y-53839460D01*
X143556041Y-54016666D01*
X143548338Y-54036550D01*
X143509500Y-54244317D01*
X143509500Y-54455683D01*
X143250500Y-54455683D01*
X143250500Y-54244317D01*
X143211662Y-54036550D01*
X143143904Y-53861647D01*
X143135309Y-53839460D01*
X143135308Y-53839459D01*
X143135308Y-53839458D01*
X143024038Y-53659751D01*
X142948771Y-53577187D01*
X142881644Y-53503551D01*
X142712968Y-53376173D01*
X142523762Y-53281959D01*
X142523756Y-53281956D01*
X142320466Y-53224116D01*
X142320463Y-53224115D01*
X142208472Y-53213738D01*
X142162729Y-53209500D01*
X142057271Y-53209500D01*
X142014619Y-53213452D01*
X141899536Y-53224115D01*
X141899533Y-53224116D01*
X141696243Y-53281956D01*
X141696237Y-53281959D01*
X141507031Y-53376173D01*
X141338355Y-53503551D01*
X141195963Y-53659749D01*
X141084691Y-53839459D01*
X141084690Y-53839460D01*
X141016041Y-54016666D01*
X141008338Y-54036550D01*
X140969500Y-54244317D01*
X140969500Y-54455683D01*
X140710500Y-54455683D01*
X140710500Y-54244317D01*
X140671662Y-54036550D01*
X140603904Y-53861647D01*
X140595309Y-53839460D01*
X140595308Y-53839459D01*
X140595308Y-53839458D01*
X140484038Y-53659751D01*
X140408771Y-53577187D01*
X140341644Y-53503551D01*
X140172968Y-53376173D01*
X140081499Y-53330626D01*
X140030262Y-53283122D01*
X140012841Y-53215459D01*
X140034767Y-53149119D01*
X140049084Y-53131951D01*
X141620614Y-51560421D01*
X141681935Y-51526938D01*
X141744287Y-51529443D01*
X141901954Y-51577272D01*
X141903573Y-51577763D01*
X141903575Y-51577764D01*
X141918125Y-51579197D01*
X142110000Y-51598095D01*
X142316424Y-51577764D01*
X142514915Y-51517552D01*
X142697846Y-51419774D01*
X142858186Y-51288186D01*
X142989774Y-51127846D01*
X143087552Y-50944915D01*
X143147764Y-50746424D01*
X143168095Y-50540000D01*
X143147764Y-50333576D01*
X143087552Y-50135085D01*
X143035988Y-50038615D01*
X142989775Y-49952155D01*
X142989773Y-49952152D01*
X142858186Y-49791813D01*
X142697847Y-49660226D01*
X142697844Y-49660224D01*
X142531586Y-49571358D01*
X142481742Y-49522396D01*
X142466281Y-49454258D01*
X142490113Y-49388579D01*
X142545670Y-49346210D01*
X142590039Y-49338000D01*
X142865601Y-49338000D01*
X142932640Y-49357685D01*
X142953282Y-49374319D01*
X143629576Y-50050613D01*
X143663061Y-50111936D01*
X143660555Y-50174290D01*
X143612236Y-50333573D01*
X143612235Y-50333575D01*
X143591905Y-50540000D01*
X143612235Y-50746424D01*
X143612236Y-50746426D01*
X143672448Y-50944916D01*
X143770224Y-51127844D01*
X143770226Y-51127847D01*
X143901813Y-51288186D01*
X144062152Y-51419773D01*
X144062155Y-51419775D01*
X144217974Y-51503061D01*
X144245085Y-51517552D01*
X144386411Y-51560423D01*
X144443573Y-51577763D01*
X144443575Y-51577764D01*
X144458125Y-51579197D01*
X144650000Y-51598095D01*
X144856424Y-51577764D01*
X144934330Y-51554130D01*
X145004195Y-51553506D01*
X145058006Y-51585110D01*
X146741090Y-53268193D01*
X146745726Y-53273380D01*
X146770121Y-53303970D01*
X146770121Y-53303971D01*
X146819271Y-53337480D01*
X146867118Y-53372793D01*
X146874654Y-53376776D01*
X146882319Y-53380467D01*
X146882327Y-53380472D01*
X146939177Y-53398007D01*
X146995297Y-53417645D01*
X146995299Y-53417645D01*
X146995301Y-53417646D01*
X146995302Y-53417646D01*
X147003679Y-53419230D01*
X147012096Y-53420499D01*
X147012098Y-53420500D01*
X147071574Y-53420500D01*
X147131009Y-53422724D01*
X147131009Y-53422723D01*
X147131010Y-53422724D01*
X147131010Y-53422723D01*
X147140244Y-53421684D01*
X147140337Y-53422513D01*
X147155636Y-53420500D01*
X149293176Y-53420500D01*
X149360215Y-53440185D01*
X149380857Y-53456819D01*
X149611857Y-53687819D01*
X149645342Y-53749142D01*
X149640358Y-53818834D01*
X149598486Y-53874767D01*
X149533022Y-53899184D01*
X149524176Y-53899500D01*
X149500326Y-53899500D01*
X149424190Y-53914644D01*
X149375810Y-53914644D01*
X149299674Y-53899500D01*
X148850326Y-53899500D01*
X148774190Y-53914644D01*
X148725810Y-53914644D01*
X148649674Y-53899500D01*
X148200326Y-53899500D01*
X148124190Y-53914644D01*
X148075810Y-53914644D01*
X147999674Y-53899500D01*
X147550326Y-53899500D01*
X147550323Y-53899500D01*
X147477264Y-53914032D01*
X147477260Y-53914033D01*
X147394399Y-53969399D01*
X147339033Y-54052260D01*
X147339032Y-54052264D01*
X147324500Y-54125321D01*
X147324500Y-55174678D01*
X147339032Y-55247735D01*
X147339033Y-55247739D01*
X147352486Y-55267873D01*
X147394399Y-55330601D01*
X147449999Y-55367751D01*
X147477260Y-55385966D01*
X147477264Y-55385967D01*
X147550321Y-55400499D01*
X147550324Y-55400500D01*
X147550326Y-55400500D01*
X147999676Y-55400500D01*
X148075807Y-55385356D01*
X148124191Y-55385356D01*
X148200323Y-55400500D01*
X148200326Y-55400500D01*
X148649676Y-55400500D01*
X148725808Y-55385356D01*
X148774192Y-55385356D01*
X148850323Y-55400500D01*
X148850326Y-55400500D01*
X149299676Y-55400500D01*
X149375808Y-55385356D01*
X149424192Y-55385356D01*
X149500323Y-55400500D01*
X149500326Y-55400500D01*
X149949676Y-55400500D01*
X150025808Y-55385356D01*
X150074192Y-55385356D01*
X150150323Y-55400500D01*
X150150326Y-55400500D01*
X150599676Y-55400500D01*
X150675808Y-55385356D01*
X150724192Y-55385356D01*
X150800323Y-55400500D01*
X150800326Y-55400500D01*
X151249676Y-55400500D01*
X151325808Y-55385356D01*
X151374192Y-55385356D01*
X151450323Y-55400500D01*
X151450326Y-55400500D01*
X151899676Y-55400500D01*
X151975807Y-55385356D01*
X152024191Y-55385356D01*
X152100323Y-55400500D01*
X152100326Y-55400500D01*
X152549676Y-55400500D01*
X152625808Y-55385356D01*
X152674192Y-55385356D01*
X152750323Y-55400500D01*
X152750326Y-55400500D01*
X153199676Y-55400500D01*
X153275807Y-55385356D01*
X153324191Y-55385356D01*
X153400323Y-55400500D01*
X153400326Y-55400500D01*
X153849676Y-55400500D01*
X153849677Y-55400499D01*
X153922740Y-55385966D01*
X154005601Y-55330601D01*
X154060966Y-55247740D01*
X154075500Y-55174674D01*
X154075500Y-54125326D01*
X154075500Y-54125323D01*
X154075499Y-54125321D01*
X154060967Y-54052264D01*
X154060966Y-54052260D01*
X154043358Y-54025908D01*
X154021819Y-53993672D01*
X154000943Y-53926995D01*
X154003561Y-53899345D01*
X154005367Y-53890732D01*
X154001742Y-53861647D01*
X154000977Y-53855507D01*
X154000500Y-53847831D01*
X154000500Y-53843889D01*
X154000498Y-53843876D01*
X153996657Y-53820859D01*
X153993121Y-53792489D01*
X153989866Y-53766374D01*
X153989864Y-53766370D01*
X153987622Y-53758840D01*
X153985065Y-53751392D01*
X153985065Y-53751390D01*
X153958944Y-53703122D01*
X153934826Y-53653789D01*
X153934824Y-53653787D01*
X153934824Y-53653786D01*
X153930276Y-53647416D01*
X153925420Y-53641176D01*
X153925419Y-53641174D01*
X153885029Y-53603992D01*
X152022149Y-51741111D01*
X152006022Y-51721252D01*
X152000086Y-51712167D01*
X152000085Y-51712166D01*
X152000084Y-51712164D01*
X152000081Y-51712161D01*
X151999268Y-51711278D01*
X151998534Y-51709791D01*
X151994465Y-51703563D01*
X151995217Y-51703071D01*
X151968347Y-51648623D01*
X151976208Y-51579197D01*
X152020355Y-51525042D01*
X152032859Y-51517507D01*
X152096162Y-51484283D01*
X152214405Y-51379530D01*
X152304142Y-51249523D01*
X152360159Y-51101818D01*
X152379200Y-50945000D01*
X152360192Y-50788449D01*
X152360159Y-50788181D01*
X152318874Y-50679323D01*
X152304142Y-50640477D01*
X152273781Y-50596492D01*
X152251900Y-50530141D01*
X152252261Y-50528741D01*
X152220017Y-50515282D01*
X152215861Y-50511760D01*
X152190116Y-50488952D01*
X152096162Y-50405717D01*
X152096161Y-50405716D01*
X152092273Y-50402272D01*
X152055147Y-50343083D01*
X152050500Y-50309456D01*
X152050500Y-50038615D01*
X152061527Y-50001058D01*
X152052179Y-49981723D01*
X152050500Y-49961384D01*
X152050500Y-49724500D01*
X152070185Y-49657461D01*
X152122989Y-49611706D01*
X152174500Y-49600500D01*
X152226155Y-49600500D01*
X152293194Y-49620185D01*
X152338949Y-49672989D01*
X152348893Y-49742147D01*
X152342097Y-49768471D01*
X152313763Y-49843181D01*
X152297596Y-49976330D01*
X152288893Y-49996548D01*
X152293477Y-50003680D01*
X152297595Y-50023667D01*
X152304264Y-50078588D01*
X152313763Y-50156818D01*
X152369780Y-50304523D01*
X152369780Y-50304524D01*
X152400138Y-50348504D01*
X152422021Y-50414858D01*
X152421659Y-50416257D01*
X152453903Y-50429717D01*
X152458060Y-50433239D01*
X152459516Y-50434529D01*
X152459517Y-50434530D01*
X152577760Y-50539283D01*
X152577762Y-50539284D01*
X152717634Y-50612696D01*
X152871014Y-50650500D01*
X152871015Y-50650500D01*
X153028985Y-50650500D01*
X153182365Y-50612696D01*
X153250657Y-50576853D01*
X153322240Y-50539283D01*
X153440483Y-50434530D01*
X153530220Y-50304523D01*
X153586237Y-50156818D01*
X153605278Y-50000000D01*
X153586237Y-49843182D01*
X153557903Y-49768471D01*
X153552536Y-49698808D01*
X153585683Y-49637302D01*
X153646822Y-49603480D01*
X153673845Y-49600500D01*
X153849676Y-49600500D01*
X153849677Y-49600499D01*
X153922740Y-49585966D01*
X154005601Y-49530601D01*
X154060966Y-49447740D01*
X154075500Y-49374674D01*
X154075500Y-48325326D01*
X154075500Y-48325325D01*
X154075500Y-48325323D01*
X154075499Y-48325321D01*
X154060967Y-48252264D01*
X154060966Y-48252260D01*
X154060965Y-48252259D01*
X154005601Y-48169399D01*
X153922740Y-48114034D01*
X153922738Y-48114033D01*
X153922736Y-48114032D01*
X153921597Y-48113560D01*
X153919495Y-48111866D01*
X153912585Y-48107249D01*
X153912998Y-48106630D01*
X153867195Y-48069718D01*
X153845131Y-48003424D01*
X153862411Y-47935725D01*
X153913549Y-47888115D01*
X153969052Y-47875000D01*
X154022828Y-47875000D01*
X154022844Y-47874999D01*
X154082372Y-47868598D01*
X154082379Y-47868596D01*
X154217086Y-47818354D01*
X154217093Y-47818350D01*
X154332187Y-47732190D01*
X154332190Y-47732187D01*
X154418350Y-47617093D01*
X154418354Y-47617086D01*
X154468596Y-47482379D01*
X154468598Y-47482372D01*
X154474999Y-47422844D01*
X154475000Y-47422827D01*
X154475000Y-47025000D01*
X152800000Y-47025000D01*
X152800000Y-47422844D01*
X152806401Y-47482372D01*
X152806403Y-47482379D01*
X152856645Y-47617086D01*
X152856649Y-47617093D01*
X152942809Y-47732187D01*
X152942812Y-47732190D01*
X153057906Y-47818350D01*
X153057913Y-47818354D01*
X153167743Y-47859318D01*
X153223677Y-47901189D01*
X153248094Y-47966653D01*
X153233242Y-48034926D01*
X153183837Y-48084332D01*
X153124410Y-48099500D01*
X152750326Y-48099500D01*
X152674190Y-48114644D01*
X152625810Y-48114644D01*
X152549674Y-48099500D01*
X152100326Y-48099500D01*
X152100325Y-48099500D01*
X152088528Y-48101846D01*
X152018937Y-48095615D01*
X151963762Y-48052749D01*
X151940520Y-47986858D01*
X151956592Y-47918862D01*
X152006873Y-47870349D01*
X152021005Y-47864047D01*
X152139331Y-47819915D01*
X152142326Y-47818798D01*
X152142326Y-47818797D01*
X152142331Y-47818796D01*
X152257546Y-47732546D01*
X152343796Y-47617331D01*
X152394091Y-47482483D01*
X152400500Y-47422873D01*
X152400499Y-46775000D01*
X152800000Y-46775000D01*
X153512500Y-46775000D01*
X153512500Y-45925000D01*
X153762500Y-45925000D01*
X153762500Y-46775000D01*
X154475000Y-46775000D01*
X154475000Y-46377172D01*
X154474999Y-46377155D01*
X154468598Y-46317627D01*
X154468596Y-46317620D01*
X154418354Y-46182913D01*
X154418350Y-46182906D01*
X154332190Y-46067812D01*
X154332187Y-46067809D01*
X154217093Y-45981649D01*
X154217086Y-45981645D01*
X154082379Y-45931403D01*
X154082372Y-45931401D01*
X154022844Y-45925000D01*
X153762500Y-45925000D01*
X153512500Y-45925000D01*
X153252155Y-45925000D01*
X153192627Y-45931401D01*
X153192620Y-45931403D01*
X153057913Y-45981645D01*
X153057906Y-45981649D01*
X152942812Y-46067809D01*
X152942809Y-46067812D01*
X152856649Y-46182906D01*
X152856645Y-46182913D01*
X152806403Y-46317620D01*
X152806401Y-46317627D01*
X152800000Y-46377155D01*
X152800000Y-46775000D01*
X152400499Y-46775000D01*
X152400499Y-46377128D01*
X152394091Y-46317517D01*
X152388707Y-46303083D01*
X152343797Y-46182671D01*
X152343793Y-46182664D01*
X152257547Y-46067455D01*
X152257544Y-46067452D01*
X152142335Y-45981206D01*
X152142328Y-45981202D01*
X152007486Y-45930910D01*
X152007485Y-45930909D01*
X152007483Y-45930909D01*
X151947873Y-45924500D01*
X151947863Y-45924500D01*
X151177105Y-45924500D01*
X151176224Y-45924548D01*
X151176025Y-45924500D01*
X151173808Y-45924501D01*
X151173808Y-45923976D01*
X151108232Y-45908460D01*
X151081943Y-45888405D01*
X151064649Y-45871111D01*
X151048522Y-45851252D01*
X151042586Y-45842167D01*
X151042583Y-45842163D01*
X151014574Y-45820363D01*
X151008810Y-45815272D01*
X151006015Y-45812477D01*
X150987005Y-45798906D01*
X150943689Y-45765190D01*
X150936774Y-45761448D01*
X150929700Y-45757990D01*
X150877096Y-45742329D01*
X150825158Y-45724499D01*
X150817423Y-45723208D01*
X150809585Y-45722231D01*
X150754744Y-45724500D01*
X149839185Y-45724500D01*
X149772146Y-45704815D01*
X149728186Y-45655774D01*
X149659673Y-45518179D01*
X149536764Y-45355421D01*
X149536762Y-45355418D01*
X149386041Y-45218019D01*
X149386039Y-45218017D01*
X149212642Y-45110655D01*
X149212635Y-45110651D01*
X149041147Y-45044217D01*
X149022456Y-45036976D01*
X148821976Y-44999500D01*
X148618024Y-44999500D01*
X148417544Y-45036976D01*
X148417541Y-45036976D01*
X148417541Y-45036977D01*
X148227364Y-45110651D01*
X148227357Y-45110655D01*
X148053960Y-45218017D01*
X148053958Y-45218019D01*
X147903237Y-45355418D01*
X147780327Y-45518178D01*
X147689422Y-45700739D01*
X147689417Y-45700752D01*
X147633602Y-45896917D01*
X147614785Y-46099999D01*
X147614785Y-46100000D01*
X147633602Y-46303082D01*
X147689417Y-46499247D01*
X147689422Y-46499260D01*
X147780327Y-46681821D01*
X147903237Y-46844581D01*
X148053958Y-46981980D01*
X148053960Y-46981982D01*
X148097879Y-47009175D01*
X148227363Y-47089348D01*
X148417544Y-47163024D01*
X148596688Y-47196511D01*
X148658966Y-47228178D01*
X148694239Y-47288490D01*
X148691306Y-47358298D01*
X148651097Y-47415439D01*
X148624167Y-47429484D01*
X148624883Y-47430972D01*
X148624727Y-47431047D01*
X148615529Y-47433989D01*
X148611017Y-47436342D01*
X148611106Y-47436599D01*
X148609408Y-47437181D01*
X148609301Y-47437238D01*
X148608878Y-47437363D01*
X148601387Y-47439936D01*
X148553122Y-47466055D01*
X148503792Y-47490171D01*
X148497375Y-47494753D01*
X148491175Y-47499579D01*
X148453993Y-47539969D01*
X148196108Y-47797852D01*
X148176254Y-47813976D01*
X148167165Y-47819914D01*
X148167164Y-47819915D01*
X148145363Y-47847923D01*
X148140286Y-47853674D01*
X148137484Y-47856477D01*
X148137474Y-47856488D01*
X148123905Y-47875495D01*
X148090192Y-47918808D01*
X148086447Y-47925729D01*
X148082988Y-47932804D01*
X148067329Y-47985402D01*
X148063715Y-47995929D01*
X148056907Y-48015760D01*
X148016525Y-48072776D01*
X147951726Y-48098908D01*
X147939626Y-48099500D01*
X147550323Y-48099500D01*
X147477264Y-48114032D01*
X147477260Y-48114033D01*
X147394399Y-48169399D01*
X147339033Y-48252260D01*
X147339032Y-48252264D01*
X147324500Y-48325321D01*
X147324500Y-48880386D01*
X147304815Y-48947425D01*
X147252011Y-48993180D01*
X147182853Y-49003124D01*
X147119297Y-48974099D01*
X147112819Y-48968067D01*
X145416819Y-47272067D01*
X145383334Y-47210744D01*
X145380500Y-47184386D01*
X145380500Y-47121969D01*
X145400185Y-47054930D01*
X145452989Y-47009175D01*
X145522147Y-46999231D01*
X145569775Y-47016541D01*
X145687363Y-47089348D01*
X145877544Y-47163024D01*
X146078024Y-47200500D01*
X146078026Y-47200500D01*
X146281974Y-47200500D01*
X146281976Y-47200500D01*
X146482456Y-47163024D01*
X146672637Y-47089348D01*
X146846041Y-46981981D01*
X146996764Y-46844579D01*
X147119673Y-46681821D01*
X147210582Y-46499250D01*
X147266397Y-46303083D01*
X147285215Y-46100000D01*
X147266397Y-45896917D01*
X147210582Y-45700750D01*
X147119673Y-45518179D01*
X146996764Y-45355421D01*
X146996762Y-45355418D01*
X146846041Y-45218019D01*
X146846039Y-45218017D01*
X146672642Y-45110655D01*
X146672635Y-45110651D01*
X146501147Y-45044217D01*
X146482456Y-45036976D01*
X146281976Y-44999500D01*
X146078024Y-44999500D01*
X145877544Y-45036976D01*
X145877541Y-45036976D01*
X145877541Y-45036977D01*
X145687364Y-45110651D01*
X145687357Y-45110655D01*
X145569777Y-45183457D01*
X145502416Y-45202012D01*
X145435717Y-45181204D01*
X145390856Y-45127639D01*
X145380500Y-45078030D01*
X145380500Y-44976803D01*
X145383139Y-44951358D01*
X145383177Y-44951175D01*
X145385367Y-44940732D01*
X145383325Y-44924353D01*
X145380977Y-44905507D01*
X145380500Y-44897831D01*
X145380500Y-44893890D01*
X145380499Y-44893881D01*
X145376657Y-44870856D01*
X145369866Y-44816376D01*
X145367621Y-44808837D01*
X145365066Y-44801392D01*
X145338941Y-44753118D01*
X145338940Y-44753117D01*
X145314826Y-44703789D01*
X145314823Y-44703786D01*
X145314823Y-44703785D01*
X145310280Y-44697421D01*
X145305420Y-44691176D01*
X145305419Y-44691174D01*
X145272098Y-44660500D01*
X145265029Y-44653992D01*
X144699709Y-44088672D01*
X144666224Y-44027349D01*
X144670666Y-43965234D01*
X144669013Y-43964764D01*
X144726397Y-43763082D01*
X144745215Y-43560000D01*
X145074785Y-43560000D01*
X145093602Y-43763082D01*
X145149417Y-43959247D01*
X145149422Y-43959260D01*
X145240327Y-44141821D01*
X145363237Y-44304581D01*
X145513958Y-44441980D01*
X145513960Y-44441982D01*
X145613141Y-44503392D01*
X145687363Y-44549348D01*
X145877544Y-44623024D01*
X146078024Y-44660500D01*
X146078026Y-44660500D01*
X146281974Y-44660500D01*
X146281976Y-44660500D01*
X146482456Y-44623024D01*
X146672637Y-44549348D01*
X146846041Y-44441981D01*
X146996764Y-44304579D01*
X147119673Y-44141821D01*
X147210582Y-43959250D01*
X147266397Y-43763083D01*
X147285215Y-43560000D01*
X147614785Y-43560000D01*
X147633602Y-43763082D01*
X147689417Y-43959247D01*
X147689422Y-43959260D01*
X147780327Y-44141821D01*
X147903237Y-44304581D01*
X148053958Y-44441980D01*
X148053960Y-44441982D01*
X148153141Y-44503392D01*
X148227363Y-44549348D01*
X148417544Y-44623024D01*
X148618024Y-44660500D01*
X148618026Y-44660500D01*
X148821974Y-44660500D01*
X148821976Y-44660500D01*
X149022456Y-44623024D01*
X149212637Y-44549348D01*
X149386041Y-44441981D01*
X149536764Y-44304579D01*
X149659673Y-44141821D01*
X149750582Y-43959250D01*
X149806397Y-43763083D01*
X149825215Y-43560000D01*
X149806397Y-43356917D01*
X149750582Y-43160750D01*
X149659673Y-42978179D01*
X149536764Y-42815421D01*
X149536762Y-42815418D01*
X149386041Y-42678019D01*
X149386039Y-42678017D01*
X149212642Y-42570655D01*
X149212635Y-42570651D01*
X149117546Y-42533814D01*
X149022456Y-42496976D01*
X148821976Y-42459500D01*
X148618024Y-42459500D01*
X148417544Y-42496976D01*
X148417541Y-42496976D01*
X148417541Y-42496977D01*
X148227364Y-42570651D01*
X148227357Y-42570655D01*
X148053960Y-42678017D01*
X148053958Y-42678019D01*
X147903237Y-42815418D01*
X147780327Y-42978178D01*
X147689422Y-43160739D01*
X147689417Y-43160752D01*
X147633602Y-43356917D01*
X147614785Y-43559999D01*
X147614785Y-43560000D01*
X147285215Y-43560000D01*
X147266397Y-43356917D01*
X147210582Y-43160750D01*
X147119673Y-42978179D01*
X146996764Y-42815421D01*
X146996762Y-42815418D01*
X146846041Y-42678019D01*
X146846039Y-42678017D01*
X146672642Y-42570655D01*
X146672635Y-42570651D01*
X146577546Y-42533814D01*
X146482456Y-42496976D01*
X146281976Y-42459500D01*
X146078024Y-42459500D01*
X145877544Y-42496976D01*
X145877541Y-42496976D01*
X145877541Y-42496977D01*
X145687364Y-42570651D01*
X145687357Y-42570655D01*
X145513960Y-42678017D01*
X145513958Y-42678019D01*
X145363237Y-42815418D01*
X145240327Y-42978178D01*
X145149422Y-43160739D01*
X145149417Y-43160752D01*
X145093602Y-43356917D01*
X145074785Y-43559999D01*
X145074785Y-43560000D01*
X144745215Y-43560000D01*
X144745215Y-43559999D01*
X144726397Y-43356917D01*
X144670582Y-43160750D01*
X144579673Y-42978179D01*
X144456764Y-42815421D01*
X144456762Y-42815418D01*
X144306041Y-42678019D01*
X144306039Y-42678017D01*
X144132642Y-42570655D01*
X144132635Y-42570651D01*
X144037546Y-42533814D01*
X143942456Y-42496976D01*
X143741976Y-42459500D01*
X143538024Y-42459500D01*
X143337544Y-42496976D01*
X143337541Y-42496976D01*
X143337541Y-42496977D01*
X143147364Y-42570651D01*
X143147357Y-42570655D01*
X142973960Y-42678017D01*
X142973958Y-42678019D01*
X142823237Y-42815418D01*
X142700327Y-42978178D01*
X142609422Y-43160739D01*
X142609417Y-43160752D01*
X142553602Y-43356917D01*
X142534785Y-43559999D01*
X142534785Y-43560000D01*
X142553602Y-43763082D01*
X142609417Y-43959247D01*
X142609422Y-43959260D01*
X142700327Y-44141821D01*
X142823237Y-44304581D01*
X142973958Y-44441980D01*
X142973960Y-44441982D01*
X143073141Y-44503392D01*
X143147363Y-44549348D01*
X143337544Y-44623024D01*
X143538024Y-44660500D01*
X143538026Y-44660500D01*
X143741974Y-44660500D01*
X143741976Y-44660500D01*
X143942456Y-44623024D01*
X144032556Y-44588118D01*
X144102174Y-44582256D01*
X144163914Y-44614965D01*
X144165026Y-44616064D01*
X144593182Y-45044219D01*
X144626666Y-45105540D01*
X144629500Y-45131898D01*
X144629500Y-45232057D01*
X144609815Y-45299096D01*
X144557011Y-45344851D01*
X144487853Y-45354795D01*
X144424297Y-45325770D01*
X144421962Y-45323694D01*
X144306041Y-45218019D01*
X144306039Y-45218017D01*
X144132642Y-45110655D01*
X144132635Y-45110651D01*
X143961147Y-45044217D01*
X143942456Y-45036976D01*
X143741976Y-44999500D01*
X143538024Y-44999500D01*
X143337544Y-45036976D01*
X143337541Y-45036976D01*
X143337541Y-45036977D01*
X143147364Y-45110651D01*
X143147357Y-45110655D01*
X143029777Y-45183457D01*
X142962416Y-45202012D01*
X142895717Y-45181204D01*
X142850856Y-45127639D01*
X142840500Y-45078030D01*
X142840500Y-44976803D01*
X142843139Y-44951358D01*
X142843177Y-44951175D01*
X142845367Y-44940732D01*
X142843325Y-44924353D01*
X142840977Y-44905507D01*
X142840500Y-44897831D01*
X142840500Y-44893890D01*
X142840499Y-44893881D01*
X142836657Y-44870856D01*
X142829866Y-44816376D01*
X142827621Y-44808837D01*
X142825066Y-44801392D01*
X142798941Y-44753118D01*
X142774826Y-44703789D01*
X142774823Y-44703786D01*
X142774823Y-44703785D01*
X142770280Y-44697421D01*
X142765420Y-44691176D01*
X142765419Y-44691174D01*
X142732098Y-44660500D01*
X142725029Y-44653992D01*
X142159709Y-44088672D01*
X142126224Y-44027349D01*
X142130666Y-43965234D01*
X142129013Y-43964764D01*
X142186397Y-43763082D01*
X142205215Y-43560000D01*
X142205215Y-43559999D01*
X142186397Y-43356917D01*
X142186397Y-43356916D01*
X142130582Y-43160750D01*
X142039673Y-42978179D01*
X141916764Y-42815421D01*
X141916762Y-42815418D01*
X141766041Y-42678019D01*
X141766039Y-42678017D01*
X141592642Y-42570655D01*
X141592635Y-42570651D01*
X141497546Y-42533814D01*
X141402456Y-42496976D01*
X141201976Y-42459500D01*
X140998024Y-42459500D01*
X140797544Y-42496976D01*
X140797541Y-42496976D01*
X140797541Y-42496977D01*
X140607364Y-42570651D01*
X140607357Y-42570655D01*
X140433960Y-42678017D01*
X140433958Y-42678019D01*
X140283237Y-42815418D01*
X140160327Y-42978178D01*
X140069422Y-43160739D01*
X140069417Y-43160752D01*
X140013602Y-43356917D01*
X139994785Y-43559999D01*
X139994785Y-43560000D01*
X140013602Y-43763082D01*
X140069417Y-43959247D01*
X140069422Y-43959260D01*
X140160327Y-44141821D01*
X140283237Y-44304581D01*
X140433958Y-44441980D01*
X140433960Y-44441982D01*
X140533141Y-44503392D01*
X140607363Y-44549348D01*
X140797544Y-44623024D01*
X140998024Y-44660500D01*
X140998026Y-44660500D01*
X141201974Y-44660500D01*
X141201976Y-44660500D01*
X141402456Y-44623024D01*
X141492556Y-44588118D01*
X141562174Y-44582256D01*
X141623914Y-44614965D01*
X141625027Y-44616064D01*
X142053181Y-45044217D01*
X142086666Y-45105540D01*
X142089500Y-45131898D01*
X142089500Y-45232057D01*
X142069815Y-45299096D01*
X142017011Y-45344851D01*
X141947853Y-45354795D01*
X141884297Y-45325770D01*
X141881962Y-45323694D01*
X141766041Y-45218019D01*
X141766039Y-45218017D01*
X141592642Y-45110655D01*
X141592635Y-45110651D01*
X141421147Y-45044217D01*
X141402456Y-45036976D01*
X141201976Y-44999500D01*
X140998024Y-44999500D01*
X140797544Y-45036976D01*
X140797541Y-45036976D01*
X140797541Y-45036977D01*
X140607364Y-45110651D01*
X140607357Y-45110655D01*
X140489777Y-45183457D01*
X140422416Y-45202012D01*
X140355717Y-45181204D01*
X140310856Y-45127639D01*
X140300500Y-45078030D01*
X140300500Y-44976803D01*
X140303139Y-44951358D01*
X140303177Y-44951175D01*
X140305367Y-44940732D01*
X140303325Y-44924353D01*
X140300977Y-44905507D01*
X140300500Y-44897831D01*
X140300500Y-44893890D01*
X140300499Y-44893881D01*
X140296657Y-44870856D01*
X140289866Y-44816376D01*
X140287621Y-44808837D01*
X140285066Y-44801392D01*
X140258941Y-44753118D01*
X140258941Y-44753117D01*
X140234826Y-44703789D01*
X140234823Y-44703786D01*
X140234823Y-44703785D01*
X140230280Y-44697421D01*
X140225420Y-44691176D01*
X140225419Y-44691174D01*
X140192098Y-44660500D01*
X140185029Y-44653992D01*
X139619709Y-44088672D01*
X139586224Y-44027349D01*
X139590666Y-43965234D01*
X139589013Y-43964764D01*
X139646397Y-43763082D01*
X139665215Y-43560000D01*
X139665215Y-43559999D01*
X139646397Y-43356917D01*
X139646396Y-43356916D01*
X139590582Y-43160750D01*
X139499673Y-42978179D01*
X139376764Y-42815421D01*
X139376762Y-42815418D01*
X139226041Y-42678019D01*
X139226039Y-42678017D01*
X139052642Y-42570655D01*
X139052635Y-42570651D01*
X138957546Y-42533814D01*
X138862456Y-42496976D01*
X138661976Y-42459500D01*
X138458024Y-42459500D01*
X138257544Y-42496976D01*
X138257541Y-42496976D01*
X138257541Y-42496977D01*
X138067364Y-42570651D01*
X138067357Y-42570655D01*
X137893960Y-42678017D01*
X137893958Y-42678019D01*
X137743237Y-42815418D01*
X137620327Y-42978178D01*
X137529422Y-43160739D01*
X137529417Y-43160752D01*
X137473602Y-43356917D01*
X137454785Y-43559999D01*
X137454785Y-43560000D01*
X137473602Y-43763082D01*
X137529417Y-43959247D01*
X137529422Y-43959260D01*
X137620327Y-44141821D01*
X137743237Y-44304581D01*
X137893958Y-44441980D01*
X137893960Y-44441982D01*
X137993141Y-44503392D01*
X138067363Y-44549348D01*
X138257544Y-44623024D01*
X138458024Y-44660500D01*
X138458026Y-44660500D01*
X138661974Y-44660500D01*
X138661976Y-44660500D01*
X138862456Y-44623024D01*
X138952556Y-44588118D01*
X139022174Y-44582256D01*
X139083914Y-44614965D01*
X139085027Y-44616064D01*
X139513181Y-45044217D01*
X139546666Y-45105540D01*
X139549500Y-45131898D01*
X139549500Y-45232057D01*
X139529815Y-45299096D01*
X139477011Y-45344851D01*
X139407853Y-45354795D01*
X139344297Y-45325770D01*
X139341962Y-45323694D01*
X139226041Y-45218019D01*
X139226039Y-45218017D01*
X139052642Y-45110655D01*
X139052635Y-45110651D01*
X138881147Y-45044217D01*
X138862456Y-45036976D01*
X138661976Y-44999500D01*
X138458024Y-44999500D01*
X138257544Y-45036976D01*
X138257541Y-45036976D01*
X138257541Y-45036977D01*
X138067364Y-45110651D01*
X138067357Y-45110655D01*
X137949777Y-45183457D01*
X137882416Y-45202012D01*
X137815717Y-45181204D01*
X137770856Y-45127639D01*
X137760500Y-45078030D01*
X137760500Y-44976803D01*
X137763139Y-44951358D01*
X137763177Y-44951175D01*
X137765367Y-44940732D01*
X137763325Y-44924353D01*
X137760977Y-44905507D01*
X137760500Y-44897831D01*
X137760500Y-44893890D01*
X137760499Y-44893881D01*
X137756657Y-44870856D01*
X137749866Y-44816376D01*
X137747621Y-44808837D01*
X137745066Y-44801392D01*
X137718941Y-44753118D01*
X137718941Y-44753117D01*
X137694826Y-44703789D01*
X137694823Y-44703786D01*
X137694823Y-44703785D01*
X137690280Y-44697421D01*
X137685420Y-44691176D01*
X137685419Y-44691174D01*
X137652098Y-44660500D01*
X137645029Y-44653992D01*
X137079709Y-44088672D01*
X137046224Y-44027349D01*
X137050666Y-43965234D01*
X137049013Y-43964764D01*
X137106397Y-43763082D01*
X137125215Y-43560000D01*
X137125215Y-43559999D01*
X137106397Y-43356917D01*
X137106396Y-43356916D01*
X137050582Y-43160750D01*
X136959673Y-42978179D01*
X136836764Y-42815421D01*
X136836762Y-42815418D01*
X136686041Y-42678019D01*
X136686039Y-42678017D01*
X136512642Y-42570655D01*
X136512635Y-42570651D01*
X136417546Y-42533814D01*
X136322456Y-42496976D01*
X136121976Y-42459500D01*
X135918024Y-42459500D01*
X135717544Y-42496976D01*
X135717541Y-42496976D01*
X135717541Y-42496977D01*
X135527364Y-42570651D01*
X135527357Y-42570655D01*
X135353960Y-42678017D01*
X135353958Y-42678019D01*
X135203237Y-42815418D01*
X135080327Y-42978178D01*
X134989422Y-43160739D01*
X134989417Y-43160752D01*
X134933602Y-43356917D01*
X134914785Y-43559999D01*
X134914785Y-43560000D01*
X134933602Y-43763082D01*
X134989417Y-43959247D01*
X134989422Y-43959260D01*
X135080327Y-44141821D01*
X135203237Y-44304581D01*
X135353958Y-44441980D01*
X135353960Y-44441982D01*
X135453141Y-44503392D01*
X135527363Y-44549348D01*
X135717544Y-44623024D01*
X135918024Y-44660500D01*
X135918026Y-44660500D01*
X136121974Y-44660500D01*
X136121976Y-44660500D01*
X136322456Y-44623024D01*
X136412556Y-44588118D01*
X136482174Y-44582256D01*
X136543914Y-44614965D01*
X136545027Y-44616064D01*
X136973181Y-45044217D01*
X137006666Y-45105540D01*
X137009500Y-45131898D01*
X137009500Y-45232057D01*
X136989815Y-45299096D01*
X136937011Y-45344851D01*
X136867853Y-45354795D01*
X136804297Y-45325770D01*
X136801962Y-45323694D01*
X136686041Y-45218019D01*
X136686039Y-45218017D01*
X136512642Y-45110655D01*
X136512635Y-45110651D01*
X136341147Y-45044217D01*
X136322456Y-45036976D01*
X136121976Y-44999500D01*
X135918024Y-44999500D01*
X135717544Y-45036976D01*
X135717541Y-45036976D01*
X135717541Y-45036977D01*
X135527364Y-45110651D01*
X135527357Y-45110655D01*
X135353960Y-45218017D01*
X135353958Y-45218019D01*
X135203237Y-45355418D01*
X135080327Y-45518178D01*
X134989422Y-45700739D01*
X134989417Y-45700752D01*
X134933602Y-45896917D01*
X134914785Y-46099999D01*
X134914785Y-46100000D01*
X134933602Y-46303082D01*
X134989417Y-46499247D01*
X134989422Y-46499260D01*
X135080327Y-46681821D01*
X135203237Y-46844581D01*
X135353958Y-46981980D01*
X135353960Y-46981982D01*
X135397879Y-47009175D01*
X135527363Y-47089348D01*
X135717544Y-47163024D01*
X135918024Y-47200500D01*
X135918026Y-47200500D01*
X136121974Y-47200500D01*
X136121976Y-47200500D01*
X136322456Y-47163024D01*
X136412556Y-47128118D01*
X136482174Y-47122256D01*
X136543914Y-47154965D01*
X136545027Y-47156064D01*
X138580349Y-49191386D01*
X138596477Y-49211245D01*
X138602416Y-49220336D01*
X138630432Y-49242141D01*
X138636193Y-49247230D01*
X138638982Y-49250019D01*
X138657983Y-49263585D01*
X138701310Y-49297309D01*
X138701311Y-49297309D01*
X138708222Y-49301049D01*
X138715300Y-49304510D01*
X138767904Y-49320171D01*
X138767905Y-49320171D01*
X138819840Y-49338000D01*
X138819842Y-49338000D01*
X138827579Y-49339291D01*
X138835409Y-49340267D01*
X138835411Y-49340268D01*
X138835412Y-49340267D01*
X138835413Y-49340268D01*
X138890255Y-49338000D01*
X139091020Y-49338000D01*
X139158059Y-49357685D01*
X139203814Y-49410489D01*
X139213758Y-49479647D01*
X139184733Y-49543203D01*
X139149474Y-49571358D01*
X138982430Y-49660646D01*
X138919262Y-49712485D01*
X138919262Y-49712486D01*
X139287178Y-50080402D01*
X139175327Y-50171401D01*
X139112967Y-50259743D01*
X138742486Y-49889262D01*
X138742485Y-49889262D01*
X138690646Y-49952430D01*
X138592912Y-50135274D01*
X138532727Y-50333675D01*
X138512407Y-50540000D01*
X138532727Y-50746324D01*
X138592912Y-50944725D01*
X138690643Y-51127564D01*
X138690645Y-51127568D01*
X138742486Y-51190736D01*
X138742487Y-51190736D01*
X139112765Y-50820457D01*
X139128812Y-50851425D01*
X139229194Y-50958907D01*
X139290554Y-50996221D01*
X138919263Y-51367512D01*
X138919263Y-51367513D01*
X138982431Y-51419354D01*
X138982435Y-51419356D01*
X139165274Y-51517087D01*
X139363675Y-51577272D01*
X139570000Y-51597592D01*
X139776324Y-51577272D01*
X139974725Y-51517087D01*
X140157570Y-51419353D01*
X140220735Y-51367513D01*
X140220735Y-51367512D01*
X139852821Y-50999597D01*
X139964673Y-50908599D01*
X140027032Y-50820255D01*
X140397512Y-51190735D01*
X140397513Y-51190735D01*
X140449353Y-51127570D01*
X140547087Y-50944725D01*
X140607272Y-50746324D01*
X140627592Y-50539999D01*
X140607272Y-50333675D01*
X140547087Y-50135274D01*
X140449356Y-49952435D01*
X140449354Y-49952431D01*
X140397512Y-49889263D01*
X140027233Y-50259541D01*
X140011188Y-50228575D01*
X139910806Y-50121093D01*
X139849445Y-50083778D01*
X140220736Y-49712487D01*
X140220736Y-49712486D01*
X140157568Y-49660645D01*
X140157564Y-49660643D01*
X139990526Y-49571358D01*
X139940682Y-49522395D01*
X139925222Y-49454257D01*
X139949054Y-49388578D01*
X140004612Y-49346209D01*
X140048980Y-49338000D01*
X141629961Y-49338000D01*
X141697000Y-49357685D01*
X141742755Y-49410489D01*
X141752699Y-49479647D01*
X141723674Y-49543203D01*
X141688414Y-49571358D01*
X141522155Y-49660224D01*
X141522152Y-49660226D01*
X141361813Y-49791813D01*
X141230226Y-49952152D01*
X141230224Y-49952155D01*
X141132448Y-50135083D01*
X141072236Y-50333573D01*
X141072235Y-50333575D01*
X141051905Y-50540000D01*
X141072235Y-50746422D01*
X141120555Y-50905710D01*
X141121178Y-50975577D01*
X141089575Y-51029386D01*
X139610781Y-52508181D01*
X139549458Y-52541666D01*
X139523100Y-52544500D01*
X134961804Y-52544500D01*
X134936357Y-52541861D01*
X134933713Y-52541306D01*
X134925729Y-52539632D01*
X134890509Y-52544023D01*
X134882832Y-52544500D01*
X134878886Y-52544500D01*
X134861606Y-52547383D01*
X134855846Y-52548344D01*
X134801368Y-52555135D01*
X134793844Y-52557375D01*
X134786392Y-52559934D01*
X134738119Y-52586057D01*
X134688790Y-52610172D01*
X134682398Y-52614735D01*
X134676174Y-52619580D01*
X134639003Y-52659958D01*
X134121681Y-53177279D01*
X134060358Y-53210764D01*
X133990666Y-53205780D01*
X133934733Y-53163908D01*
X133910316Y-53098444D01*
X133910000Y-53089598D01*
X133910000Y-52995000D01*
X133085000Y-52995000D01*
X133085000Y-53720000D01*
X133279599Y-53720000D01*
X133346638Y-53739685D01*
X133392393Y-53792489D01*
X133402337Y-53861647D01*
X133373312Y-53925203D01*
X133367279Y-53931682D01*
X133315778Y-53983182D01*
X133254455Y-54016666D01*
X133228098Y-54019500D01*
X132462129Y-54019500D01*
X132462123Y-54019501D01*
X132402516Y-54025908D01*
X132267671Y-54076202D01*
X132267664Y-54076206D01*
X132152455Y-54162452D01*
X132152452Y-54162455D01*
X132066206Y-54277664D01*
X132066202Y-54277671D01*
X132015908Y-54412517D01*
X132009501Y-54472116D01*
X132009500Y-54472135D01*
X132009500Y-55267870D01*
X126510000Y-55267870D01*
X126510000Y-52995000D01*
X132010000Y-52995000D01*
X132010000Y-53267844D01*
X132016401Y-53327372D01*
X132016403Y-53327379D01*
X132066645Y-53462086D01*
X132066649Y-53462093D01*
X132152809Y-53577187D01*
X132152812Y-53577190D01*
X132267906Y-53663350D01*
X132267913Y-53663354D01*
X132402620Y-53713596D01*
X132402627Y-53713598D01*
X132462155Y-53719999D01*
X132462172Y-53720000D01*
X132835000Y-53720000D01*
X132835000Y-52995000D01*
X132010000Y-52995000D01*
X126510000Y-52995000D01*
X126510000Y-51517870D01*
X132009500Y-51517870D01*
X132009501Y-51517876D01*
X132015908Y-51577483D01*
X132066202Y-51712328D01*
X132066206Y-51712335D01*
X132152452Y-51827544D01*
X132152455Y-51827547D01*
X132243957Y-51896046D01*
X132285828Y-51951980D01*
X132290812Y-52021671D01*
X132257326Y-52082994D01*
X132243958Y-52094578D01*
X132152809Y-52162812D01*
X132066649Y-52277906D01*
X132066645Y-52277913D01*
X132016403Y-52412620D01*
X132016401Y-52412627D01*
X132010000Y-52472155D01*
X132010000Y-52745000D01*
X133909999Y-52745000D01*
X133910000Y-52472172D01*
X133909999Y-52472155D01*
X133903598Y-52412627D01*
X133903596Y-52412620D01*
X133853354Y-52277913D01*
X133853350Y-52277906D01*
X133767190Y-52162813D01*
X133676042Y-52094579D01*
X133634171Y-52038645D01*
X133629187Y-51968953D01*
X133662672Y-51907630D01*
X133676034Y-51896051D01*
X133767546Y-51827546D01*
X133853796Y-51712331D01*
X133904091Y-51577483D01*
X133910500Y-51517873D01*
X133910499Y-51039499D01*
X133930183Y-50972461D01*
X133982987Y-50926706D01*
X134034499Y-50915500D01*
X135962402Y-50915500D01*
X136029441Y-50935185D01*
X136071760Y-50981047D01*
X136150224Y-51127844D01*
X136150226Y-51127847D01*
X136281813Y-51288186D01*
X136442152Y-51419773D01*
X136442155Y-51419775D01*
X136597974Y-51503061D01*
X136625085Y-51517552D01*
X136766411Y-51560423D01*
X136823573Y-51577763D01*
X136823575Y-51577764D01*
X136838125Y-51579197D01*
X137030000Y-51598095D01*
X137236424Y-51577764D01*
X137434915Y-51517552D01*
X137617846Y-51419774D01*
X137778186Y-51288186D01*
X137909774Y-51127846D01*
X138007552Y-50944915D01*
X138067764Y-50746424D01*
X138088095Y-50540000D01*
X138067764Y-50333576D01*
X138007552Y-50135085D01*
X137955988Y-50038615D01*
X137909775Y-49952155D01*
X137909773Y-49952152D01*
X137778186Y-49791813D01*
X137617847Y-49660226D01*
X137617844Y-49660224D01*
X137434916Y-49562448D01*
X137236426Y-49502236D01*
X137236424Y-49502235D01*
X137030000Y-49481905D01*
X136823575Y-49502235D01*
X136823573Y-49502236D01*
X136625083Y-49562448D01*
X136442155Y-49660224D01*
X136442152Y-49660226D01*
X136281813Y-49791813D01*
X136150226Y-49952152D01*
X136150224Y-49952155D01*
X136071760Y-50098953D01*
X136022798Y-50148797D01*
X135962402Y-50164500D01*
X133666025Y-50164500D01*
X133598986Y-50144815D01*
X133553231Y-50092011D01*
X133543287Y-50022853D01*
X133572312Y-49959297D01*
X133622691Y-49924318D01*
X133652088Y-49913353D01*
X133652093Y-49913350D01*
X133767187Y-49827190D01*
X133767190Y-49827187D01*
X133853350Y-49712093D01*
X133853354Y-49712086D01*
X133903596Y-49577379D01*
X133903598Y-49577372D01*
X133909999Y-49517844D01*
X133910000Y-49517827D01*
X133910000Y-49245000D01*
X133085000Y-49245000D01*
X133085000Y-49970000D01*
X133314648Y-49970000D01*
X133381687Y-49989685D01*
X133427442Y-50042489D01*
X133437386Y-50111647D01*
X133408361Y-50175203D01*
X133373668Y-50203054D01*
X133368125Y-50206053D01*
X133318792Y-50230171D01*
X133312376Y-50234752D01*
X133301330Y-50243351D01*
X133236337Y-50268996D01*
X133225165Y-50269500D01*
X132462129Y-50269500D01*
X132462123Y-50269501D01*
X132402516Y-50275908D01*
X132267671Y-50326202D01*
X132267664Y-50326206D01*
X132152455Y-50412452D01*
X132152452Y-50412455D01*
X132066206Y-50527664D01*
X132066202Y-50527671D01*
X132015908Y-50662517D01*
X132009501Y-50722116D01*
X132009500Y-50722135D01*
X132009500Y-51517870D01*
X126510000Y-51517870D01*
X126510000Y-49245000D01*
X132010000Y-49245000D01*
X132010000Y-49517844D01*
X132016401Y-49577372D01*
X132016403Y-49577379D01*
X132066645Y-49712086D01*
X132066649Y-49712093D01*
X132152809Y-49827187D01*
X132152812Y-49827190D01*
X132267906Y-49913350D01*
X132267913Y-49913354D01*
X132402620Y-49963596D01*
X132402627Y-49963598D01*
X132462155Y-49969999D01*
X132462172Y-49970000D01*
X132835000Y-49970000D01*
X132835000Y-49245000D01*
X132010000Y-49245000D01*
X126510000Y-49245000D01*
X126510000Y-48995000D01*
X132010000Y-48995000D01*
X132835000Y-48995000D01*
X132835000Y-48270000D01*
X133085000Y-48270000D01*
X133085000Y-48995000D01*
X133909999Y-48995000D01*
X133910000Y-48722172D01*
X133909999Y-48722155D01*
X133903598Y-48662627D01*
X133903596Y-48662620D01*
X133853354Y-48527913D01*
X133853350Y-48527906D01*
X133767190Y-48412812D01*
X133767187Y-48412809D01*
X133652093Y-48326649D01*
X133652086Y-48326645D01*
X133517379Y-48276403D01*
X133517372Y-48276401D01*
X133457844Y-48270000D01*
X133085000Y-48270000D01*
X132835000Y-48270000D01*
X132462155Y-48270000D01*
X132402627Y-48276401D01*
X132402620Y-48276403D01*
X132267913Y-48326645D01*
X132267906Y-48326649D01*
X132152812Y-48412809D01*
X132152809Y-48412812D01*
X132066649Y-48527906D01*
X132066645Y-48527913D01*
X132016403Y-48662620D01*
X132016401Y-48662627D01*
X132010000Y-48722155D01*
X132010000Y-48995000D01*
X126510000Y-48995000D01*
X126510000Y-46974678D01*
X132379500Y-46974678D01*
X132394032Y-47047735D01*
X132394033Y-47047739D01*
X132394034Y-47047740D01*
X132449399Y-47130601D01*
X132529895Y-47184386D01*
X132532260Y-47185966D01*
X132532264Y-47185967D01*
X132605321Y-47200499D01*
X132605324Y-47200500D01*
X132605326Y-47200500D01*
X134354676Y-47200500D01*
X134354677Y-47200499D01*
X134427740Y-47185966D01*
X134510601Y-47130601D01*
X134565966Y-47047740D01*
X134580500Y-46974674D01*
X134580500Y-45225326D01*
X134580500Y-45225325D01*
X134580500Y-45225323D01*
X134580499Y-45225321D01*
X134565967Y-45152264D01*
X134565966Y-45152260D01*
X134549515Y-45127639D01*
X134510601Y-45069399D01*
X134427740Y-45014034D01*
X134427739Y-45014033D01*
X134427735Y-45014032D01*
X134354677Y-44999500D01*
X134354674Y-44999500D01*
X132605326Y-44999500D01*
X132605323Y-44999500D01*
X132532264Y-45014032D01*
X132532260Y-45014033D01*
X132449399Y-45069399D01*
X132394033Y-45152260D01*
X132394032Y-45152264D01*
X132379500Y-45225321D01*
X132379500Y-46974678D01*
X126510000Y-46974678D01*
X126510000Y-43560000D01*
X132374785Y-43560000D01*
X132393602Y-43763082D01*
X132449417Y-43959247D01*
X132449422Y-43959260D01*
X132540327Y-44141821D01*
X132663237Y-44304581D01*
X132813958Y-44441980D01*
X132813960Y-44441982D01*
X132913141Y-44503392D01*
X132987363Y-44549348D01*
X133177544Y-44623024D01*
X133378024Y-44660500D01*
X133378026Y-44660500D01*
X133581974Y-44660500D01*
X133581976Y-44660500D01*
X133782456Y-44623024D01*
X133972637Y-44549348D01*
X134146041Y-44441981D01*
X134296764Y-44304579D01*
X134419673Y-44141821D01*
X134510582Y-43959250D01*
X134566397Y-43763083D01*
X134585215Y-43560000D01*
X134566397Y-43356917D01*
X134510582Y-43160750D01*
X134419673Y-42978179D01*
X134296764Y-42815421D01*
X134296762Y-42815418D01*
X134146041Y-42678019D01*
X134146039Y-42678017D01*
X133972642Y-42570655D01*
X133972635Y-42570651D01*
X133877546Y-42533814D01*
X133782456Y-42496976D01*
X133581976Y-42459500D01*
X133378024Y-42459500D01*
X133177544Y-42496976D01*
X133177541Y-42496976D01*
X133177541Y-42496977D01*
X132987364Y-42570651D01*
X132987357Y-42570655D01*
X132813960Y-42678017D01*
X132813958Y-42678019D01*
X132663237Y-42815418D01*
X132540327Y-42978178D01*
X132449422Y-43160739D01*
X132449417Y-43160752D01*
X132393602Y-43356917D01*
X132374785Y-43559999D01*
X132374785Y-43560000D01*
X126510000Y-43560000D01*
X126510000Y-42274500D01*
X126529685Y-42207461D01*
X126582489Y-42161706D01*
X126634000Y-42150500D01*
X155625500Y-42150500D01*
X155692539Y-42170185D01*
G37*
%TD.AperFunction*%
%TD*%
M02*
