M48
; DRILL file {KiCad 7.0.6-0} date 2024 October 04, Friday 20:33:39
; FORMAT={-:-/ absolute / inch / decimal}
; #@! TF.CreationDate,2024-10-04T20:33:39+02:00
; #@! TF.GenerationSoftware,Kicad,Pcbnew,7.0.6-0
; #@! TF.FileFunction,Plated,1,2,PTH
FMAT,2
INCH
; #@! TA.AperFunction,Plated,PTH,ViaDrill
T1C0.0157
; #@! TA.AperFunction,Plated,PTH,ComponentDrill
T2C0.0394
; #@! TA.AperFunction,Plated,PTH,ComponentDrill
T3C0.0421
%
G90
G05
T1
X5.9028Y-1.9673
X5.9734Y-2.0057
X6.0217Y-1.9685
T2
X5.2551Y-1.715
X5.2551Y-1.815
X5.3551Y-1.715
X5.3551Y-1.815
X5.4551Y-1.715
X5.4551Y-1.815
X5.5551Y-1.715
X5.5551Y-1.815
X5.6551Y-1.715
X5.6551Y-1.815
X5.7551Y-1.715
X5.7551Y-1.815
X5.8551Y-1.715
X5.8551Y-1.815
T3
X5.3949Y-1.9898
X5.4949Y-1.9898
X5.5949Y-1.9898
X5.6949Y-1.9898
T0
M30
