%TF.GenerationSoftware,KiCad,Pcbnew,7.0.6-0*%
%TF.CreationDate,2024-10-04T20:33:39+02:00*%
%TF.ProjectId,Z3660_CPLD_prog,5a333636-305f-4435-904c-445f70726f67,rev?*%
%TF.SameCoordinates,Original*%
%TF.FileFunction,Legend,Bot*%
%TF.FilePolarity,Positive*%
%FSLAX46Y46*%
G04 Gerber Fmt 4.6, Leading zero omitted, Abs format (unit mm)*
G04 Created by KiCad (PCBNEW 7.0.6-0) date 2024-10-04 20:33:39*
%MOMM*%
%LPD*%
G01*
G04 APERTURE LIST*
%ADD10C,0.150000*%
%ADD11C,0.120000*%
%ADD12C,1.780000*%
%ADD13C,1.605000*%
%ADD14R,1.700000X1.700000*%
%ADD15O,1.700000X1.700000*%
G04 APERTURE END LIST*
D10*
X151583333Y-42554819D02*
X151583333Y-43269104D01*
X151583333Y-43269104D02*
X151630952Y-43411961D01*
X151630952Y-43411961D02*
X151726190Y-43507200D01*
X151726190Y-43507200D02*
X151869047Y-43554819D01*
X151869047Y-43554819D02*
X151964285Y-43554819D01*
X151202380Y-42554819D02*
X150583333Y-42554819D01*
X150583333Y-42554819D02*
X150916666Y-42935771D01*
X150916666Y-42935771D02*
X150773809Y-42935771D01*
X150773809Y-42935771D02*
X150678571Y-42983390D01*
X150678571Y-42983390D02*
X150630952Y-43031009D01*
X150630952Y-43031009D02*
X150583333Y-43126247D01*
X150583333Y-43126247D02*
X150583333Y-43364342D01*
X150583333Y-43364342D02*
X150630952Y-43459580D01*
X150630952Y-43459580D02*
X150678571Y-43507200D01*
X150678571Y-43507200D02*
X150773809Y-43554819D01*
X150773809Y-43554819D02*
X151059523Y-43554819D01*
X151059523Y-43554819D02*
X151154761Y-43507200D01*
X151154761Y-43507200D02*
X151202380Y-43459580D01*
D11*
%TO.C,J3*%
X150050000Y-42230000D02*
X150050000Y-47430000D01*
X132150000Y-42230000D02*
X150050000Y-42230000D01*
X132150000Y-42230000D02*
X132150000Y-44830000D01*
X134750000Y-44830000D02*
X134750000Y-47430000D01*
X132150000Y-44830000D02*
X134750000Y-44830000D01*
X132150000Y-46100000D02*
X132150000Y-47430000D01*
X134750000Y-47430000D02*
X150050000Y-47430000D01*
X132150000Y-47430000D02*
X133480000Y-47430000D01*
%TD*%
%LPC*%
D12*
%TO.C,J1*%
X144650000Y-54350000D03*
X142110000Y-54350000D03*
X139570000Y-54350000D03*
X137030000Y-54350000D03*
D13*
X144650000Y-50540000D03*
X142110000Y-50540000D03*
X139570000Y-50540000D03*
X137030000Y-50540000D03*
%TD*%
D14*
%TO.C,J3*%
X133480000Y-46100000D03*
D15*
X133480000Y-43560000D03*
X136020000Y-46100000D03*
X136020000Y-43560000D03*
X138560000Y-46100000D03*
X138560000Y-43560000D03*
X141100000Y-46100000D03*
X141100000Y-43560000D03*
X143640000Y-46100000D03*
X143640000Y-43560000D03*
X146180000Y-46100000D03*
X146180000Y-43560000D03*
X148720000Y-46100000D03*
X148720000Y-43560000D03*
%TD*%
%LPD*%
M02*
