%TF.GenerationSoftware,KiCad,Pcbnew,7.0.6-0*%
%TF.CreationDate,2024-10-04T12:43:47+02:00*%
%TF.ProjectId,Z3660_CPLD_prog,5a333636-305f-4435-904c-445f70726f67,rev?*%
%TF.SameCoordinates,Original*%
%TF.FileFunction,Soldermask,Top*%
%TF.FilePolarity,Negative*%
%FSLAX46Y46*%
G04 Gerber Fmt 4.6, Leading zero omitted, Abs format (unit mm)*
G04 Created by KiCad (PCBNEW 7.0.6-0) date 2024-10-04 12:43:47*
%MOMM*%
%LPD*%
G01*
G04 APERTURE LIST*
G04 Aperture macros list*
%AMRoundRect*
0 Rectangle with rounded corners*
0 $1 Rounding radius*
0 $2 $3 $4 $5 $6 $7 $8 $9 X,Y pos of 4 corners*
0 Add a 4 corners polygon primitive as box body*
4,1,4,$2,$3,$4,$5,$6,$7,$8,$9,$2,$3,0*
0 Add four circle primitives for the rounded corners*
1,1,$1+$1,$2,$3*
1,1,$1+$1,$4,$5*
1,1,$1+$1,$6,$7*
1,1,$1+$1,$8,$9*
0 Add four rect primitives between the rounded corners*
20,1,$1+$1,$2,$3,$4,$5,0*
20,1,$1+$1,$4,$5,$6,$7,0*
20,1,$1+$1,$6,$7,$8,$9,0*
20,1,$1+$1,$8,$9,$2,$3,0*%
G04 Aperture macros list end*
%ADD10R,0.400000X1.000000*%
%ADD11RoundRect,0.250000X-0.450000X0.350000X-0.450000X-0.350000X0.450000X-0.350000X0.450000X0.350000X0*%
%ADD12R,1.700000X1.700000*%
%ADD13O,1.700000X1.700000*%
%ADD14RoundRect,0.250000X0.337500X0.475000X-0.337500X0.475000X-0.337500X-0.475000X0.337500X-0.475000X0*%
G04 APERTURE END LIST*
D10*
%TO.C,U1*%
X153625000Y-48850000D03*
X152975000Y-48850000D03*
X152325000Y-48850000D03*
X151675000Y-48850000D03*
X151025000Y-48850000D03*
X150375000Y-48850000D03*
X149725000Y-48850000D03*
X149075000Y-48850000D03*
X148425000Y-48850000D03*
X147775000Y-48850000D03*
X147775000Y-54650000D03*
X148425000Y-54650000D03*
X149075000Y-54650000D03*
X149725000Y-54650000D03*
X150375000Y-54650000D03*
X151025000Y-54650000D03*
X151675000Y-54650000D03*
X152325000Y-54650000D03*
X152975000Y-54650000D03*
X153625000Y-54650000D03*
%TD*%
D11*
%TO.C,R1*%
X142450000Y-49250000D03*
X142450000Y-51250000D03*
%TD*%
%TO.C,R2*%
X136650000Y-49250000D03*
X136650000Y-51250000D03*
%TD*%
D12*
%TO.C,J2*%
X136650000Y-54350000D03*
D13*
X139190000Y-54350000D03*
%TD*%
D14*
%TO.C,C1*%
X153637500Y-46900000D03*
X151562500Y-46900000D03*
%TD*%
D12*
%TO.C,J1*%
X142490000Y-54350000D03*
D13*
X145030000Y-54350000D03*
%TD*%
D12*
%TO.C,J3*%
X133480000Y-46100000D03*
D13*
X133480000Y-43560000D03*
X136020000Y-46100000D03*
X136020000Y-43560000D03*
X138560000Y-46100000D03*
X138560000Y-43560000D03*
X141100000Y-46100000D03*
X141100000Y-43560000D03*
X143640000Y-46100000D03*
X143640000Y-43560000D03*
X146180000Y-46100000D03*
X146180000Y-43560000D03*
X148720000Y-46100000D03*
X148720000Y-43560000D03*
%TD*%
M02*
