%TF.GenerationSoftware,KiCad,Pcbnew,7.0.6-0*%
%TF.CreationDate,2024-10-04T12:43:47+02:00*%
%TF.ProjectId,Z3660_CPLD_prog,5a333636-305f-4435-904c-445f70726f67,rev?*%
%TF.SameCoordinates,Original*%
%TF.FileFunction,Copper,L2,Bot*%
%TF.FilePolarity,Positive*%
%FSLAX46Y46*%
G04 Gerber Fmt 4.6, Leading zero omitted, Abs format (unit mm)*
G04 Created by KiCad (PCBNEW 7.0.6-0) date 2024-10-04 12:43:47*
%MOMM*%
%LPD*%
G01*
G04 APERTURE LIST*
%TA.AperFunction,ComponentPad*%
%ADD10R,1.700000X1.700000*%
%TD*%
%TA.AperFunction,ComponentPad*%
%ADD11O,1.700000X1.700000*%
%TD*%
%TA.AperFunction,ViaPad*%
%ADD12C,0.800000*%
%TD*%
%TA.AperFunction,Conductor*%
%ADD13C,0.250000*%
%TD*%
G04 APERTURE END LIST*
D10*
%TO.P,J2,1,Pin_1*%
%TO.N,I2C0_SDA*%
X136650000Y-54350000D03*
D11*
%TO.P,J2,2,Pin_2*%
%TO.N,+3V3*%
X139190000Y-54350000D03*
%TD*%
D10*
%TO.P,J1,1,Pin_1*%
%TO.N,I2C0_CLK*%
X142490000Y-54350000D03*
D11*
%TO.P,J1,2,Pin_2*%
%TO.N,Earth*%
X145030000Y-54350000D03*
%TD*%
D10*
%TO.P,J3,1,Pin_1*%
%TO.N,Earth*%
X133480000Y-46100000D03*
D11*
%TO.P,J3,2,Pin_2*%
%TO.N,unconnected-(J3-Pin_2-Pad2)*%
X133480000Y-43560000D03*
%TO.P,J3,3,Pin_3*%
%TO.N,Earth*%
X136020000Y-46100000D03*
%TO.P,J3,4,Pin_4*%
%TO.N,TDI*%
X136020000Y-43560000D03*
%TO.P,J3,5,Pin_5*%
%TO.N,Earth*%
X138560000Y-46100000D03*
%TO.P,J3,6,Pin_6*%
%TO.N,TDO*%
X138560000Y-43560000D03*
%TO.P,J3,7,Pin_7*%
%TO.N,Earth*%
X141100000Y-46100000D03*
%TO.P,J3,8,Pin_8*%
%TO.N,TMS*%
X141100000Y-43560000D03*
%TO.P,J3,9,Pin_9*%
%TO.N,Earth*%
X143640000Y-46100000D03*
%TO.P,J3,10,Pin_10*%
%TO.N,TCK*%
X143640000Y-43560000D03*
%TO.P,J3,11,Pin_11*%
%TO.N,Earth*%
X146180000Y-46100000D03*
%TO.P,J3,12,Pin_12*%
%TO.N,unconnected-(J3-Pin_12-Pad12)*%
X146180000Y-43560000D03*
%TO.P,J3,13,Pin_13*%
%TO.N,Earth*%
X148720000Y-46100000D03*
%TO.P,J3,14,Pin_14*%
%TO.N,unconnected-(J3-Pin_14-Pad14)*%
X148720000Y-43560000D03*
%TD*%
D12*
%TO.N,+3V3*%
X139200000Y-49200000D03*
X149900000Y-50000000D03*
%TO.N,I2C0_CLK*%
X152950000Y-50000000D03*
%TO.N,I2C0_SDA*%
X151699998Y-50000000D03*
%TD*%
D13*
%TO.N,+3V3*%
X139200000Y-49200000D02*
X149100000Y-49200000D01*
X149100000Y-49200000D02*
X149900000Y-50000000D01*
%TO.N,Earth*%
X144250000Y-55950000D02*
X145030000Y-55170000D01*
X133480000Y-53980000D02*
X135450000Y-55950000D01*
X145030000Y-55170000D02*
X145030000Y-54350000D01*
X133480000Y-46100000D02*
X133480000Y-53980000D01*
X135450000Y-55950000D02*
X144250000Y-55950000D01*
X133480000Y-46100000D02*
X148720000Y-46100000D01*
%TO.N,I2C0_CLK*%
X142490000Y-54350000D02*
X142490000Y-53250000D01*
X143840000Y-51900000D02*
X151050000Y-51900000D01*
X151050000Y-51900000D02*
X152950000Y-50000000D01*
X142490000Y-53250000D02*
X143840000Y-51900000D01*
%TO.N,I2C0_SDA*%
X136650000Y-54350000D02*
X139550000Y-51450000D01*
X151699998Y-50550002D02*
X151699998Y-50000000D01*
X139550000Y-51450000D02*
X150800000Y-51450000D01*
X150800000Y-51450000D02*
X151699998Y-50550002D01*
%TD*%
%TA.AperFunction,Conductor*%
%TO.N,Earth*%
G36*
X155292539Y-42170185D02*
G01*
X155338294Y-42222989D01*
X155349500Y-42274500D01*
X155349500Y-56275500D01*
X155329815Y-56342539D01*
X155277011Y-56388294D01*
X155225500Y-56399500D01*
X131824500Y-56399500D01*
X131757461Y-56379815D01*
X131711706Y-56327011D01*
X131700500Y-56275500D01*
X131700500Y-55224678D01*
X135549500Y-55224678D01*
X135564032Y-55297735D01*
X135564033Y-55297739D01*
X135564034Y-55297740D01*
X135619399Y-55380601D01*
X135702259Y-55435965D01*
X135702260Y-55435966D01*
X135702264Y-55435967D01*
X135775321Y-55450499D01*
X135775324Y-55450500D01*
X135775326Y-55450500D01*
X137524676Y-55450500D01*
X137524677Y-55450499D01*
X137597740Y-55435966D01*
X137680601Y-55380601D01*
X137735966Y-55297740D01*
X137750500Y-55224674D01*
X137750500Y-54350000D01*
X138084785Y-54350000D01*
X138103602Y-54553082D01*
X138159417Y-54749247D01*
X138159422Y-54749260D01*
X138250327Y-54931821D01*
X138373237Y-55094581D01*
X138523958Y-55231980D01*
X138523960Y-55231982D01*
X138623141Y-55293392D01*
X138697363Y-55339348D01*
X138887544Y-55413024D01*
X139088024Y-55450500D01*
X139088026Y-55450500D01*
X139291974Y-55450500D01*
X139291976Y-55450500D01*
X139492456Y-55413024D01*
X139682637Y-55339348D01*
X139856041Y-55231981D01*
X140006764Y-55094579D01*
X140129673Y-54931821D01*
X140220582Y-54749250D01*
X140276397Y-54553083D01*
X140295215Y-54350000D01*
X140276397Y-54146917D01*
X140220582Y-53950750D01*
X140215221Y-53939984D01*
X140129804Y-53768443D01*
X140129673Y-53768179D01*
X140006764Y-53605421D01*
X140006762Y-53605418D01*
X139856041Y-53468019D01*
X139856039Y-53468017D01*
X139682642Y-53360655D01*
X139682635Y-53360651D01*
X139493705Y-53287460D01*
X139492456Y-53286976D01*
X139291976Y-53249500D01*
X139088024Y-53249500D01*
X138887544Y-53286976D01*
X138887541Y-53286976D01*
X138887541Y-53286977D01*
X138697364Y-53360651D01*
X138697357Y-53360655D01*
X138523960Y-53468017D01*
X138523958Y-53468019D01*
X138373237Y-53605418D01*
X138250327Y-53768178D01*
X138159422Y-53950739D01*
X138159417Y-53950752D01*
X138103602Y-54146917D01*
X138084785Y-54349999D01*
X138084785Y-54350000D01*
X137750500Y-54350000D01*
X137750500Y-53831898D01*
X137770185Y-53764859D01*
X137786819Y-53744217D01*
X139669218Y-51861819D01*
X139730541Y-51828334D01*
X139756899Y-51825500D01*
X143084100Y-51825500D01*
X143151139Y-51845185D01*
X143196894Y-51897989D01*
X143206838Y-51967147D01*
X143177813Y-52030703D01*
X143171781Y-52037181D01*
X142261108Y-52947852D01*
X142241254Y-52963976D01*
X142232165Y-52969914D01*
X142232164Y-52969915D01*
X142210363Y-52997923D01*
X142205286Y-53003674D01*
X142202484Y-53006477D01*
X142202474Y-53006488D01*
X142188905Y-53025495D01*
X142155192Y-53068808D01*
X142151447Y-53075729D01*
X142147988Y-53082804D01*
X142140531Y-53107853D01*
X142132329Y-53135403D01*
X142121907Y-53165760D01*
X142081525Y-53222776D01*
X142016726Y-53248908D01*
X142004626Y-53249500D01*
X141615323Y-53249500D01*
X141542264Y-53264032D01*
X141542260Y-53264033D01*
X141459399Y-53319399D01*
X141404033Y-53402260D01*
X141404032Y-53402264D01*
X141389500Y-53475321D01*
X141389499Y-53475323D01*
X141389499Y-55224676D01*
X141389500Y-55224678D01*
X141404032Y-55297735D01*
X141404033Y-55297739D01*
X141404034Y-55297740D01*
X141459399Y-55380601D01*
X141542259Y-55435965D01*
X141542260Y-55435966D01*
X141542264Y-55435967D01*
X141615321Y-55450499D01*
X141615324Y-55450500D01*
X141615326Y-55450500D01*
X143364676Y-55450500D01*
X143364677Y-55450499D01*
X143437740Y-55435966D01*
X143520601Y-55380601D01*
X143575966Y-55297740D01*
X143590500Y-55224674D01*
X143590500Y-54224999D01*
X143936869Y-54224999D01*
X143936870Y-54225000D01*
X144596958Y-54225000D01*
X144576190Y-54315992D01*
X144586327Y-54451265D01*
X144595642Y-54475000D01*
X143936870Y-54475000D01*
X143944097Y-54552989D01*
X143944097Y-54552992D01*
X143999883Y-54749063D01*
X143999886Y-54749069D01*
X144090754Y-54931556D01*
X144213608Y-55094242D01*
X144364260Y-55231578D01*
X144537584Y-55338897D01*
X144727678Y-55412539D01*
X144905000Y-55445686D01*
X144905000Y-54782364D01*
X144962173Y-54800000D01*
X145063724Y-54800000D01*
X145155000Y-54786242D01*
X145155000Y-55445686D01*
X145332321Y-55412539D01*
X145522415Y-55338897D01*
X145695739Y-55231578D01*
X145846391Y-55094242D01*
X145969245Y-54931556D01*
X146060113Y-54749069D01*
X146060116Y-54749063D01*
X146115902Y-54552992D01*
X146115902Y-54552989D01*
X146123130Y-54475000D01*
X145463042Y-54475000D01*
X145483810Y-54384008D01*
X145473673Y-54248735D01*
X145464358Y-54225000D01*
X146123130Y-54225000D01*
X146123130Y-54224999D01*
X146115902Y-54147010D01*
X146115902Y-54147007D01*
X146060116Y-53950936D01*
X146060113Y-53950930D01*
X145969245Y-53768443D01*
X145846391Y-53605757D01*
X145695739Y-53468421D01*
X145522415Y-53361102D01*
X145332321Y-53287460D01*
X145155000Y-53254312D01*
X145155000Y-53917635D01*
X145097827Y-53900000D01*
X144996276Y-53900000D01*
X144905000Y-53913757D01*
X144905000Y-53254312D01*
X144727678Y-53287460D01*
X144537584Y-53361102D01*
X144364260Y-53468421D01*
X144213608Y-53605757D01*
X144090754Y-53768443D01*
X143999886Y-53950930D01*
X143999883Y-53950936D01*
X143944097Y-54147007D01*
X143944097Y-54147010D01*
X143936869Y-54224999D01*
X143590500Y-54224999D01*
X143590500Y-53475326D01*
X143590500Y-53475325D01*
X143590500Y-53475323D01*
X143590499Y-53475321D01*
X143575967Y-53402264D01*
X143575966Y-53402260D01*
X143575965Y-53402259D01*
X143520601Y-53319399D01*
X143437740Y-53264034D01*
X143437739Y-53264033D01*
X143437735Y-53264032D01*
X143364677Y-53249500D01*
X143364674Y-53249500D01*
X143320899Y-53249500D01*
X143253860Y-53229815D01*
X143208105Y-53177011D01*
X143198161Y-53107853D01*
X143227186Y-53044297D01*
X143233218Y-53037819D01*
X143959218Y-52311819D01*
X144020541Y-52278334D01*
X144046899Y-52275500D01*
X150998196Y-52275500D01*
X151023641Y-52278139D01*
X151027440Y-52278935D01*
X151034268Y-52280367D01*
X151055225Y-52277754D01*
X151069492Y-52275977D01*
X151077168Y-52275500D01*
X151081112Y-52275500D01*
X151081114Y-52275500D01*
X151081116Y-52275499D01*
X151081122Y-52275499D01*
X151096487Y-52272934D01*
X151104140Y-52271657D01*
X151158626Y-52264866D01*
X151158627Y-52264865D01*
X151158629Y-52264865D01*
X151166141Y-52262628D01*
X151173606Y-52260066D01*
X151173606Y-52260065D01*
X151173610Y-52260065D01*
X151221877Y-52233944D01*
X151271211Y-52209826D01*
X151271213Y-52209823D01*
X151277594Y-52205268D01*
X151283819Y-52200422D01*
X151283826Y-52200419D01*
X151321007Y-52160029D01*
X152794217Y-50686819D01*
X152855541Y-50653334D01*
X152881899Y-50650500D01*
X153028985Y-50650500D01*
X153182365Y-50612696D01*
X153182365Y-50612695D01*
X153322240Y-50539283D01*
X153440483Y-50434530D01*
X153530220Y-50304523D01*
X153586237Y-50156818D01*
X153605278Y-50000000D01*
X153586237Y-49843182D01*
X153530220Y-49695477D01*
X153440483Y-49565470D01*
X153322240Y-49460717D01*
X153322238Y-49460716D01*
X153322237Y-49460715D01*
X153182365Y-49387303D01*
X153028986Y-49349500D01*
X153028985Y-49349500D01*
X152871015Y-49349500D01*
X152871014Y-49349500D01*
X152717634Y-49387303D01*
X152577762Y-49460715D01*
X152459516Y-49565471D01*
X152427049Y-49612508D01*
X152372766Y-49656498D01*
X152303317Y-49664158D01*
X152240753Y-49633055D01*
X152222949Y-49612508D01*
X152210992Y-49595185D01*
X152190481Y-49565470D01*
X152072238Y-49460717D01*
X152072236Y-49460716D01*
X152072235Y-49460715D01*
X151932363Y-49387303D01*
X151778984Y-49349500D01*
X151778983Y-49349500D01*
X151621013Y-49349500D01*
X151621012Y-49349500D01*
X151467632Y-49387303D01*
X151327760Y-49460715D01*
X151209514Y-49565471D01*
X151119779Y-49695475D01*
X151119778Y-49695476D01*
X151063760Y-49843181D01*
X151044720Y-49999999D01*
X151044720Y-50000000D01*
X151063760Y-50156818D01*
X151119778Y-50304523D01*
X151119779Y-50304524D01*
X151181404Y-50393804D01*
X151203287Y-50460159D01*
X151185822Y-50527810D01*
X151167035Y-50551925D01*
X150680781Y-51038181D01*
X150619458Y-51071666D01*
X150593100Y-51074500D01*
X139601804Y-51074500D01*
X139576357Y-51071861D01*
X139573713Y-51071306D01*
X139565729Y-51069632D01*
X139530509Y-51074023D01*
X139522832Y-51074500D01*
X139518886Y-51074500D01*
X139501606Y-51077383D01*
X139495846Y-51078344D01*
X139441368Y-51085135D01*
X139433844Y-51087375D01*
X139426392Y-51089934D01*
X139378119Y-51116057D01*
X139328790Y-51140172D01*
X139322398Y-51144735D01*
X139316174Y-51149580D01*
X139279003Y-51189958D01*
X138259136Y-52209826D01*
X137255781Y-53213181D01*
X137194458Y-53246666D01*
X137168100Y-53249500D01*
X135775323Y-53249500D01*
X135702264Y-53264032D01*
X135702260Y-53264033D01*
X135619399Y-53319399D01*
X135564033Y-53402260D01*
X135564032Y-53402264D01*
X135549500Y-53475321D01*
X135549500Y-55224678D01*
X131700500Y-55224678D01*
X131700500Y-49200000D01*
X138544722Y-49200000D01*
X138563762Y-49356818D01*
X138619780Y-49504523D01*
X138709517Y-49634530D01*
X138827760Y-49739283D01*
X138827762Y-49739284D01*
X138967634Y-49812696D01*
X139121014Y-49850500D01*
X139121015Y-49850500D01*
X139278985Y-49850500D01*
X139432365Y-49812696D01*
X139432364Y-49812695D01*
X139572240Y-49739283D01*
X139690483Y-49634530D01*
X139694257Y-49629061D01*
X139748537Y-49585071D01*
X139796308Y-49575500D01*
X148893101Y-49575500D01*
X148960140Y-49595185D01*
X148980782Y-49611819D01*
X149215481Y-49846518D01*
X149248966Y-49907841D01*
X149250896Y-49949143D01*
X149244722Y-49999997D01*
X149244722Y-50000000D01*
X149263762Y-50156818D01*
X149319780Y-50304523D01*
X149409517Y-50434530D01*
X149527760Y-50539283D01*
X149527762Y-50539284D01*
X149667634Y-50612696D01*
X149821014Y-50650500D01*
X149821015Y-50650500D01*
X149978985Y-50650500D01*
X150132365Y-50612696D01*
X150132364Y-50612695D01*
X150272240Y-50539283D01*
X150390483Y-50434530D01*
X150480220Y-50304523D01*
X150536237Y-50156818D01*
X150555278Y-50000000D01*
X150536237Y-49843182D01*
X150480220Y-49695477D01*
X150390483Y-49565470D01*
X150272240Y-49460717D01*
X150272238Y-49460716D01*
X150272237Y-49460715D01*
X150132365Y-49387303D01*
X149978986Y-49349500D01*
X149978985Y-49349500D01*
X149831900Y-49349500D01*
X149764861Y-49329815D01*
X149744219Y-49313181D01*
X149402149Y-48971111D01*
X149386022Y-48951252D01*
X149380086Y-48942167D01*
X149380083Y-48942163D01*
X149352074Y-48920363D01*
X149346310Y-48915272D01*
X149343515Y-48912477D01*
X149324505Y-48898906D01*
X149281189Y-48865190D01*
X149274274Y-48861448D01*
X149267200Y-48857990D01*
X149214596Y-48842329D01*
X149162658Y-48824499D01*
X149154923Y-48823208D01*
X149147085Y-48822231D01*
X149092244Y-48824500D01*
X139796308Y-48824500D01*
X139729269Y-48804815D01*
X139694257Y-48770938D01*
X139690483Y-48765470D01*
X139572240Y-48660717D01*
X139572238Y-48660716D01*
X139572237Y-48660715D01*
X139432365Y-48587303D01*
X139278986Y-48549500D01*
X139278985Y-48549500D01*
X139121015Y-48549500D01*
X139121014Y-48549500D01*
X138967634Y-48587303D01*
X138827762Y-48660715D01*
X138709516Y-48765471D01*
X138619781Y-48895475D01*
X138619780Y-48895476D01*
X138563762Y-49043181D01*
X138544722Y-49199999D01*
X138544722Y-49200000D01*
X131700500Y-49200000D01*
X131700500Y-46974628D01*
X132380000Y-46974628D01*
X132394503Y-47047540D01*
X132394505Y-47047544D01*
X132449760Y-47130239D01*
X132532455Y-47185494D01*
X132532459Y-47185496D01*
X132605371Y-47199999D01*
X132605374Y-47200000D01*
X133355000Y-47200000D01*
X133355000Y-46587169D01*
X133444237Y-46600000D01*
X133515763Y-46600000D01*
X133605000Y-46587169D01*
X133605000Y-47200000D01*
X134354626Y-47200000D01*
X134354628Y-47199999D01*
X134427540Y-47185496D01*
X134427544Y-47185494D01*
X134510239Y-47130239D01*
X134565494Y-47047544D01*
X134565496Y-47047540D01*
X134579999Y-46974628D01*
X134580000Y-46974626D01*
X134580000Y-46225000D01*
X133964405Y-46225000D01*
X133980000Y-46171889D01*
X133980000Y-46028111D01*
X133964405Y-45975000D01*
X134580000Y-45975000D01*
X134580000Y-45974999D01*
X134926869Y-45974999D01*
X134926870Y-45975000D01*
X135535595Y-45975000D01*
X135520000Y-46028111D01*
X135520000Y-46171889D01*
X135535595Y-46225000D01*
X134926870Y-46225000D01*
X134934097Y-46302989D01*
X134934097Y-46302992D01*
X134989883Y-46499063D01*
X134989886Y-46499069D01*
X135080754Y-46681556D01*
X135203608Y-46844242D01*
X135354260Y-46981578D01*
X135527584Y-47088897D01*
X135717678Y-47162539D01*
X135895000Y-47195686D01*
X135895000Y-46587169D01*
X135984237Y-46600000D01*
X136055763Y-46600000D01*
X136145000Y-46587169D01*
X136145000Y-47195686D01*
X136322321Y-47162539D01*
X136512415Y-47088897D01*
X136685739Y-46981578D01*
X136836391Y-46844242D01*
X136959245Y-46681556D01*
X137050113Y-46499069D01*
X137050116Y-46499063D01*
X137105902Y-46302992D01*
X137105902Y-46302989D01*
X137113130Y-46225000D01*
X136504405Y-46225000D01*
X136520000Y-46171889D01*
X136520000Y-46028111D01*
X136504405Y-45975000D01*
X137113130Y-45975000D01*
X137113130Y-45974999D01*
X137466869Y-45974999D01*
X137466870Y-45975000D01*
X138075595Y-45975000D01*
X138060000Y-46028111D01*
X138060000Y-46171889D01*
X138075595Y-46225000D01*
X137466870Y-46225000D01*
X137474097Y-46302989D01*
X137474097Y-46302992D01*
X137529883Y-46499063D01*
X137529886Y-46499069D01*
X137620754Y-46681556D01*
X137743608Y-46844242D01*
X137894260Y-46981578D01*
X138067584Y-47088897D01*
X138257678Y-47162539D01*
X138435000Y-47195686D01*
X138435000Y-46587169D01*
X138524237Y-46600000D01*
X138595763Y-46600000D01*
X138685000Y-46587169D01*
X138685000Y-47195686D01*
X138862321Y-47162539D01*
X139052415Y-47088897D01*
X139225739Y-46981578D01*
X139376391Y-46844242D01*
X139499245Y-46681556D01*
X139590113Y-46499069D01*
X139590116Y-46499063D01*
X139645902Y-46302992D01*
X139645902Y-46302989D01*
X139653130Y-46225000D01*
X139044405Y-46225000D01*
X139060000Y-46171889D01*
X139060000Y-46028111D01*
X139044405Y-45975000D01*
X139653130Y-45975000D01*
X139653130Y-45974999D01*
X140006869Y-45974999D01*
X140006870Y-45975000D01*
X140615595Y-45975000D01*
X140600000Y-46028111D01*
X140600000Y-46171889D01*
X140615595Y-46225000D01*
X140006870Y-46225000D01*
X140014097Y-46302989D01*
X140014097Y-46302992D01*
X140069883Y-46499063D01*
X140069886Y-46499069D01*
X140160754Y-46681556D01*
X140283608Y-46844242D01*
X140434260Y-46981578D01*
X140607584Y-47088897D01*
X140797678Y-47162539D01*
X140975000Y-47195686D01*
X140975000Y-46587169D01*
X141064237Y-46600000D01*
X141135763Y-46600000D01*
X141225000Y-46587169D01*
X141225000Y-47195686D01*
X141402321Y-47162539D01*
X141592415Y-47088897D01*
X141765739Y-46981578D01*
X141916391Y-46844242D01*
X142039245Y-46681556D01*
X142130113Y-46499069D01*
X142130116Y-46499063D01*
X142185902Y-46302992D01*
X142185902Y-46302989D01*
X142193130Y-46225000D01*
X141584405Y-46225000D01*
X141600000Y-46171889D01*
X141600000Y-46028111D01*
X141584405Y-45975000D01*
X142193130Y-45975000D01*
X142193130Y-45974999D01*
X142546869Y-45974999D01*
X142546870Y-45975000D01*
X143155595Y-45975000D01*
X143140000Y-46028111D01*
X143140000Y-46171889D01*
X143155595Y-46225000D01*
X142546870Y-46225000D01*
X142554097Y-46302989D01*
X142554097Y-46302992D01*
X142609883Y-46499063D01*
X142609886Y-46499069D01*
X142700754Y-46681556D01*
X142823608Y-46844242D01*
X142974260Y-46981578D01*
X143147584Y-47088897D01*
X143337678Y-47162539D01*
X143515000Y-47195686D01*
X143515000Y-46587169D01*
X143604237Y-46600000D01*
X143675763Y-46600000D01*
X143765000Y-46587169D01*
X143765000Y-47195686D01*
X143942321Y-47162539D01*
X144132415Y-47088897D01*
X144305739Y-46981578D01*
X144456391Y-46844242D01*
X144579245Y-46681556D01*
X144670113Y-46499069D01*
X144670116Y-46499063D01*
X144725902Y-46302992D01*
X144725902Y-46302989D01*
X144733130Y-46225000D01*
X144124405Y-46225000D01*
X144140000Y-46171889D01*
X144140000Y-46028111D01*
X144124405Y-45975000D01*
X144733130Y-45975000D01*
X144733130Y-45974999D01*
X145086869Y-45974999D01*
X145086870Y-45975000D01*
X145695595Y-45975000D01*
X145680000Y-46028111D01*
X145680000Y-46171889D01*
X145695595Y-46225000D01*
X145086870Y-46225000D01*
X145094097Y-46302989D01*
X145094097Y-46302992D01*
X145149883Y-46499063D01*
X145149886Y-46499069D01*
X145240754Y-46681556D01*
X145363608Y-46844242D01*
X145514260Y-46981578D01*
X145687584Y-47088897D01*
X145877678Y-47162539D01*
X146055000Y-47195686D01*
X146055000Y-46587169D01*
X146144237Y-46600000D01*
X146215763Y-46600000D01*
X146305000Y-46587169D01*
X146305000Y-47195686D01*
X146482321Y-47162539D01*
X146672415Y-47088897D01*
X146845739Y-46981578D01*
X146996391Y-46844242D01*
X147119245Y-46681556D01*
X147210113Y-46499069D01*
X147210116Y-46499063D01*
X147265902Y-46302992D01*
X147265902Y-46302989D01*
X147273130Y-46225000D01*
X146664405Y-46225000D01*
X146680000Y-46171889D01*
X146680000Y-46028111D01*
X146664405Y-45975000D01*
X147273130Y-45975000D01*
X147273130Y-45974999D01*
X147626869Y-45974999D01*
X147626870Y-45975000D01*
X148235595Y-45975000D01*
X148220000Y-46028111D01*
X148220000Y-46171889D01*
X148235595Y-46225000D01*
X147626870Y-46225000D01*
X147634097Y-46302989D01*
X147634097Y-46302992D01*
X147689883Y-46499063D01*
X147689886Y-46499069D01*
X147780754Y-46681556D01*
X147903608Y-46844242D01*
X148054260Y-46981578D01*
X148227584Y-47088897D01*
X148417678Y-47162539D01*
X148595000Y-47195686D01*
X148595000Y-46587169D01*
X148684237Y-46600000D01*
X148755763Y-46600000D01*
X148845000Y-46587169D01*
X148845000Y-47195686D01*
X149022321Y-47162539D01*
X149212415Y-47088897D01*
X149385739Y-46981578D01*
X149536391Y-46844242D01*
X149659245Y-46681556D01*
X149750113Y-46499069D01*
X149750116Y-46499063D01*
X149805902Y-46302992D01*
X149805902Y-46302989D01*
X149813130Y-46225000D01*
X149204405Y-46225000D01*
X149220000Y-46171889D01*
X149220000Y-46028111D01*
X149204405Y-45975000D01*
X149813130Y-45975000D01*
X149813130Y-45974999D01*
X149805902Y-45897010D01*
X149805902Y-45897007D01*
X149750116Y-45700936D01*
X149750113Y-45700930D01*
X149659245Y-45518443D01*
X149536391Y-45355757D01*
X149385739Y-45218421D01*
X149212415Y-45111102D01*
X149022321Y-45037460D01*
X148845000Y-45004312D01*
X148845000Y-45612830D01*
X148755763Y-45600000D01*
X148684237Y-45600000D01*
X148595000Y-45612830D01*
X148595000Y-45004312D01*
X148417678Y-45037460D01*
X148227584Y-45111102D01*
X148054260Y-45218421D01*
X147903608Y-45355757D01*
X147780754Y-45518443D01*
X147689886Y-45700930D01*
X147689883Y-45700936D01*
X147634097Y-45897007D01*
X147634097Y-45897010D01*
X147626869Y-45974999D01*
X147273130Y-45974999D01*
X147265902Y-45897010D01*
X147265902Y-45897007D01*
X147210116Y-45700936D01*
X147210113Y-45700930D01*
X147119245Y-45518443D01*
X146996391Y-45355757D01*
X146845739Y-45218421D01*
X146672415Y-45111102D01*
X146482321Y-45037460D01*
X146305000Y-45004312D01*
X146305000Y-45612830D01*
X146215763Y-45600000D01*
X146144237Y-45600000D01*
X146055000Y-45612830D01*
X146055000Y-45004312D01*
X145877678Y-45037460D01*
X145687584Y-45111102D01*
X145514260Y-45218421D01*
X145363608Y-45355757D01*
X145240754Y-45518443D01*
X145149886Y-45700930D01*
X145149883Y-45700936D01*
X145094097Y-45897007D01*
X145094097Y-45897010D01*
X145086869Y-45974999D01*
X144733130Y-45974999D01*
X144725902Y-45897010D01*
X144725902Y-45897007D01*
X144670116Y-45700936D01*
X144670113Y-45700930D01*
X144579245Y-45518443D01*
X144456391Y-45355757D01*
X144305739Y-45218421D01*
X144132415Y-45111102D01*
X143942321Y-45037460D01*
X143765000Y-45004312D01*
X143765000Y-45612830D01*
X143675763Y-45600000D01*
X143604237Y-45600000D01*
X143515000Y-45612830D01*
X143515000Y-45004312D01*
X143337678Y-45037460D01*
X143147584Y-45111102D01*
X142974260Y-45218421D01*
X142823608Y-45355757D01*
X142700754Y-45518443D01*
X142609886Y-45700930D01*
X142609883Y-45700936D01*
X142554097Y-45897007D01*
X142554097Y-45897010D01*
X142546869Y-45974999D01*
X142193130Y-45974999D01*
X142185902Y-45897010D01*
X142185902Y-45897007D01*
X142130116Y-45700936D01*
X142130113Y-45700930D01*
X142039245Y-45518443D01*
X141916391Y-45355757D01*
X141765739Y-45218421D01*
X141592415Y-45111102D01*
X141402321Y-45037460D01*
X141225000Y-45004312D01*
X141225000Y-45612830D01*
X141135763Y-45600000D01*
X141064237Y-45600000D01*
X140975000Y-45612830D01*
X140975000Y-45004312D01*
X140797678Y-45037460D01*
X140607584Y-45111102D01*
X140434260Y-45218421D01*
X140283608Y-45355757D01*
X140160754Y-45518443D01*
X140069886Y-45700930D01*
X140069883Y-45700936D01*
X140014097Y-45897007D01*
X140014097Y-45897010D01*
X140006869Y-45974999D01*
X139653130Y-45974999D01*
X139645902Y-45897010D01*
X139645902Y-45897007D01*
X139590116Y-45700936D01*
X139590113Y-45700930D01*
X139499245Y-45518443D01*
X139376391Y-45355757D01*
X139225739Y-45218421D01*
X139052415Y-45111102D01*
X138862321Y-45037460D01*
X138685000Y-45004312D01*
X138685000Y-45612830D01*
X138595763Y-45600000D01*
X138524237Y-45600000D01*
X138435000Y-45612830D01*
X138435000Y-45004312D01*
X138257678Y-45037460D01*
X138067584Y-45111102D01*
X137894260Y-45218421D01*
X137743608Y-45355757D01*
X137620754Y-45518443D01*
X137529886Y-45700930D01*
X137529883Y-45700936D01*
X137474097Y-45897007D01*
X137474097Y-45897010D01*
X137466869Y-45974999D01*
X137113130Y-45974999D01*
X137105902Y-45897010D01*
X137105902Y-45897007D01*
X137050116Y-45700936D01*
X137050113Y-45700930D01*
X136959245Y-45518443D01*
X136836391Y-45355757D01*
X136685739Y-45218421D01*
X136512415Y-45111102D01*
X136322321Y-45037460D01*
X136145000Y-45004312D01*
X136145000Y-45612830D01*
X136055763Y-45600000D01*
X135984237Y-45600000D01*
X135895000Y-45612830D01*
X135895000Y-45004312D01*
X135717678Y-45037460D01*
X135527584Y-45111102D01*
X135354260Y-45218421D01*
X135203608Y-45355757D01*
X135080754Y-45518443D01*
X134989886Y-45700930D01*
X134989883Y-45700936D01*
X134934097Y-45897007D01*
X134934097Y-45897010D01*
X134926869Y-45974999D01*
X134580000Y-45974999D01*
X134580000Y-45225373D01*
X134579999Y-45225371D01*
X134565496Y-45152459D01*
X134565494Y-45152455D01*
X134510239Y-45069760D01*
X134427544Y-45014505D01*
X134427540Y-45014503D01*
X134354627Y-45000000D01*
X133605000Y-45000000D01*
X133605000Y-45612830D01*
X133515763Y-45600000D01*
X133444237Y-45600000D01*
X133355000Y-45612830D01*
X133355000Y-45000000D01*
X132605373Y-45000000D01*
X132532459Y-45014503D01*
X132532455Y-45014505D01*
X132449760Y-45069760D01*
X132394505Y-45152455D01*
X132394503Y-45152459D01*
X132380000Y-45225371D01*
X132380000Y-45975000D01*
X132995595Y-45975000D01*
X132980000Y-46028111D01*
X132980000Y-46171889D01*
X132995595Y-46225000D01*
X132380000Y-46225000D01*
X132380000Y-46974628D01*
X131700500Y-46974628D01*
X131700500Y-43560000D01*
X132374785Y-43560000D01*
X132393602Y-43763082D01*
X132449417Y-43959247D01*
X132449422Y-43959260D01*
X132540327Y-44141821D01*
X132663237Y-44304581D01*
X132813958Y-44441980D01*
X132813960Y-44441982D01*
X132913141Y-44503392D01*
X132987363Y-44549348D01*
X133177544Y-44623024D01*
X133378024Y-44660500D01*
X133378026Y-44660500D01*
X133581974Y-44660500D01*
X133581976Y-44660500D01*
X133782456Y-44623024D01*
X133972637Y-44549348D01*
X134146041Y-44441981D01*
X134296764Y-44304579D01*
X134419673Y-44141821D01*
X134510582Y-43959250D01*
X134566397Y-43763083D01*
X134585215Y-43560000D01*
X134914785Y-43560000D01*
X134933602Y-43763082D01*
X134989417Y-43959247D01*
X134989422Y-43959260D01*
X135080327Y-44141821D01*
X135203237Y-44304581D01*
X135353958Y-44441980D01*
X135353960Y-44441982D01*
X135453141Y-44503392D01*
X135527363Y-44549348D01*
X135717544Y-44623024D01*
X135918024Y-44660500D01*
X135918026Y-44660500D01*
X136121974Y-44660500D01*
X136121976Y-44660500D01*
X136322456Y-44623024D01*
X136512637Y-44549348D01*
X136686041Y-44441981D01*
X136836764Y-44304579D01*
X136959673Y-44141821D01*
X137050582Y-43959250D01*
X137106397Y-43763083D01*
X137125215Y-43560000D01*
X137454785Y-43560000D01*
X137473602Y-43763082D01*
X137529417Y-43959247D01*
X137529422Y-43959260D01*
X137620327Y-44141821D01*
X137743237Y-44304581D01*
X137893958Y-44441980D01*
X137893960Y-44441982D01*
X137993141Y-44503392D01*
X138067363Y-44549348D01*
X138257544Y-44623024D01*
X138458024Y-44660500D01*
X138458026Y-44660500D01*
X138661974Y-44660500D01*
X138661976Y-44660500D01*
X138862456Y-44623024D01*
X139052637Y-44549348D01*
X139226041Y-44441981D01*
X139376764Y-44304579D01*
X139499673Y-44141821D01*
X139590582Y-43959250D01*
X139646397Y-43763083D01*
X139665215Y-43560000D01*
X139994785Y-43560000D01*
X140013602Y-43763082D01*
X140069417Y-43959247D01*
X140069422Y-43959260D01*
X140160327Y-44141821D01*
X140283237Y-44304581D01*
X140433958Y-44441980D01*
X140433960Y-44441982D01*
X140533141Y-44503392D01*
X140607363Y-44549348D01*
X140797544Y-44623024D01*
X140998024Y-44660500D01*
X140998026Y-44660500D01*
X141201974Y-44660500D01*
X141201976Y-44660500D01*
X141402456Y-44623024D01*
X141592637Y-44549348D01*
X141766041Y-44441981D01*
X141916764Y-44304579D01*
X142039673Y-44141821D01*
X142130582Y-43959250D01*
X142186397Y-43763083D01*
X142205215Y-43560000D01*
X142534785Y-43560000D01*
X142553602Y-43763082D01*
X142609417Y-43959247D01*
X142609422Y-43959260D01*
X142700327Y-44141821D01*
X142823237Y-44304581D01*
X142973958Y-44441980D01*
X142973960Y-44441982D01*
X143073141Y-44503392D01*
X143147363Y-44549348D01*
X143337544Y-44623024D01*
X143538024Y-44660500D01*
X143538026Y-44660500D01*
X143741974Y-44660500D01*
X143741976Y-44660500D01*
X143942456Y-44623024D01*
X144132637Y-44549348D01*
X144306041Y-44441981D01*
X144456764Y-44304579D01*
X144579673Y-44141821D01*
X144670582Y-43959250D01*
X144726397Y-43763083D01*
X144745215Y-43560000D01*
X145074785Y-43560000D01*
X145093602Y-43763082D01*
X145149417Y-43959247D01*
X145149422Y-43959260D01*
X145240327Y-44141821D01*
X145363237Y-44304581D01*
X145513958Y-44441980D01*
X145513960Y-44441982D01*
X145613141Y-44503392D01*
X145687363Y-44549348D01*
X145877544Y-44623024D01*
X146078024Y-44660500D01*
X146078026Y-44660500D01*
X146281974Y-44660500D01*
X146281976Y-44660500D01*
X146482456Y-44623024D01*
X146672637Y-44549348D01*
X146846041Y-44441981D01*
X146996764Y-44304579D01*
X147119673Y-44141821D01*
X147210582Y-43959250D01*
X147266397Y-43763083D01*
X147285215Y-43560000D01*
X147614785Y-43560000D01*
X147633602Y-43763082D01*
X147689417Y-43959247D01*
X147689422Y-43959260D01*
X147780327Y-44141821D01*
X147903237Y-44304581D01*
X148053958Y-44441980D01*
X148053960Y-44441982D01*
X148153141Y-44503392D01*
X148227363Y-44549348D01*
X148417544Y-44623024D01*
X148618024Y-44660500D01*
X148618026Y-44660500D01*
X148821974Y-44660500D01*
X148821976Y-44660500D01*
X149022456Y-44623024D01*
X149212637Y-44549348D01*
X149386041Y-44441981D01*
X149536764Y-44304579D01*
X149659673Y-44141821D01*
X149750582Y-43959250D01*
X149806397Y-43763083D01*
X149825215Y-43560000D01*
X149806397Y-43356917D01*
X149750582Y-43160750D01*
X149659673Y-42978179D01*
X149536764Y-42815421D01*
X149536762Y-42815418D01*
X149386041Y-42678019D01*
X149386039Y-42678017D01*
X149212642Y-42570655D01*
X149212635Y-42570651D01*
X149117546Y-42533814D01*
X149022456Y-42496976D01*
X148821976Y-42459500D01*
X148618024Y-42459500D01*
X148417544Y-42496976D01*
X148417541Y-42496976D01*
X148417541Y-42496977D01*
X148227364Y-42570651D01*
X148227357Y-42570655D01*
X148053960Y-42678017D01*
X148053958Y-42678019D01*
X147903237Y-42815418D01*
X147780327Y-42978178D01*
X147689422Y-43160739D01*
X147689417Y-43160752D01*
X147633602Y-43356917D01*
X147614785Y-43559999D01*
X147614785Y-43560000D01*
X147285215Y-43560000D01*
X147266397Y-43356917D01*
X147210582Y-43160750D01*
X147119673Y-42978179D01*
X146996764Y-42815421D01*
X146996762Y-42815418D01*
X146846041Y-42678019D01*
X146846039Y-42678017D01*
X146672642Y-42570655D01*
X146672635Y-42570651D01*
X146577546Y-42533814D01*
X146482456Y-42496976D01*
X146281976Y-42459500D01*
X146078024Y-42459500D01*
X145877544Y-42496976D01*
X145877541Y-42496976D01*
X145877541Y-42496977D01*
X145687364Y-42570651D01*
X145687357Y-42570655D01*
X145513960Y-42678017D01*
X145513958Y-42678019D01*
X145363237Y-42815418D01*
X145240327Y-42978178D01*
X145149422Y-43160739D01*
X145149417Y-43160752D01*
X145093602Y-43356917D01*
X145074785Y-43559999D01*
X145074785Y-43560000D01*
X144745215Y-43560000D01*
X144726397Y-43356917D01*
X144670582Y-43160750D01*
X144579673Y-42978179D01*
X144456764Y-42815421D01*
X144456762Y-42815418D01*
X144306041Y-42678019D01*
X144306039Y-42678017D01*
X144132642Y-42570655D01*
X144132635Y-42570651D01*
X144037546Y-42533814D01*
X143942456Y-42496976D01*
X143741976Y-42459500D01*
X143538024Y-42459500D01*
X143337544Y-42496976D01*
X143337541Y-42496976D01*
X143337541Y-42496977D01*
X143147364Y-42570651D01*
X143147357Y-42570655D01*
X142973960Y-42678017D01*
X142973958Y-42678019D01*
X142823237Y-42815418D01*
X142700327Y-42978178D01*
X142609422Y-43160739D01*
X142609417Y-43160752D01*
X142553602Y-43356917D01*
X142534785Y-43559999D01*
X142534785Y-43560000D01*
X142205215Y-43560000D01*
X142186397Y-43356917D01*
X142130582Y-43160750D01*
X142039673Y-42978179D01*
X141916764Y-42815421D01*
X141916762Y-42815418D01*
X141766041Y-42678019D01*
X141766039Y-42678017D01*
X141592642Y-42570655D01*
X141592635Y-42570651D01*
X141497546Y-42533814D01*
X141402456Y-42496976D01*
X141201976Y-42459500D01*
X140998024Y-42459500D01*
X140797544Y-42496976D01*
X140797541Y-42496976D01*
X140797541Y-42496977D01*
X140607364Y-42570651D01*
X140607357Y-42570655D01*
X140433960Y-42678017D01*
X140433958Y-42678019D01*
X140283237Y-42815418D01*
X140160327Y-42978178D01*
X140069422Y-43160739D01*
X140069417Y-43160752D01*
X140013602Y-43356917D01*
X139994785Y-43559999D01*
X139994785Y-43560000D01*
X139665215Y-43560000D01*
X139646397Y-43356917D01*
X139590582Y-43160750D01*
X139499673Y-42978179D01*
X139376764Y-42815421D01*
X139376762Y-42815418D01*
X139226041Y-42678019D01*
X139226039Y-42678017D01*
X139052642Y-42570655D01*
X139052635Y-42570651D01*
X138957546Y-42533814D01*
X138862456Y-42496976D01*
X138661976Y-42459500D01*
X138458024Y-42459500D01*
X138257544Y-42496976D01*
X138257541Y-42496976D01*
X138257541Y-42496977D01*
X138067364Y-42570651D01*
X138067357Y-42570655D01*
X137893960Y-42678017D01*
X137893958Y-42678019D01*
X137743237Y-42815418D01*
X137620327Y-42978178D01*
X137529422Y-43160739D01*
X137529417Y-43160752D01*
X137473602Y-43356917D01*
X137454785Y-43559999D01*
X137454785Y-43560000D01*
X137125215Y-43560000D01*
X137106397Y-43356917D01*
X137050582Y-43160750D01*
X136959673Y-42978179D01*
X136836764Y-42815421D01*
X136836762Y-42815418D01*
X136686041Y-42678019D01*
X136686039Y-42678017D01*
X136512642Y-42570655D01*
X136512635Y-42570651D01*
X136417546Y-42533814D01*
X136322456Y-42496976D01*
X136121976Y-42459500D01*
X135918024Y-42459500D01*
X135717544Y-42496976D01*
X135717541Y-42496976D01*
X135717541Y-42496977D01*
X135527364Y-42570651D01*
X135527357Y-42570655D01*
X135353960Y-42678017D01*
X135353958Y-42678019D01*
X135203237Y-42815418D01*
X135080327Y-42978178D01*
X134989422Y-43160739D01*
X134989417Y-43160752D01*
X134933602Y-43356917D01*
X134914785Y-43559999D01*
X134914785Y-43560000D01*
X134585215Y-43560000D01*
X134566397Y-43356917D01*
X134510582Y-43160750D01*
X134419673Y-42978179D01*
X134296764Y-42815421D01*
X134296762Y-42815418D01*
X134146041Y-42678019D01*
X134146039Y-42678017D01*
X133972642Y-42570655D01*
X133972635Y-42570651D01*
X133877546Y-42533814D01*
X133782456Y-42496976D01*
X133581976Y-42459500D01*
X133378024Y-42459500D01*
X133177544Y-42496976D01*
X133177541Y-42496976D01*
X133177541Y-42496977D01*
X132987364Y-42570651D01*
X132987357Y-42570655D01*
X132813960Y-42678017D01*
X132813958Y-42678019D01*
X132663237Y-42815418D01*
X132540327Y-42978178D01*
X132449422Y-43160739D01*
X132449417Y-43160752D01*
X132393602Y-43356917D01*
X132374785Y-43559999D01*
X132374785Y-43560000D01*
X131700500Y-43560000D01*
X131700500Y-42274500D01*
X131720185Y-42207461D01*
X131772989Y-42161706D01*
X131824500Y-42150500D01*
X155225500Y-42150500D01*
X155292539Y-42170185D01*
G37*
%TD.AperFunction*%
%TD*%
M02*
