%TF.GenerationSoftware,KiCad,Pcbnew,7.0.6-0*%
%TF.CreationDate,2024-10-04T20:33:39+02:00*%
%TF.ProjectId,Z3660_CPLD_prog,5a333636-305f-4435-904c-445f70726f67,rev?*%
%TF.SameCoordinates,Original*%
%TF.FileFunction,Legend,Top*%
%TF.FilePolarity,Positive*%
%FSLAX46Y46*%
G04 Gerber Fmt 4.6, Leading zero omitted, Abs format (unit mm)*
G04 Created by KiCad (PCBNEW 7.0.6-0) date 2024-10-04 20:33:39*
%MOMM*%
%LPD*%
G01*
G04 APERTURE LIST*
G04 Aperture macros list*
%AMRoundRect*
0 Rectangle with rounded corners*
0 $1 Rounding radius*
0 $2 $3 $4 $5 $6 $7 $8 $9 X,Y pos of 4 corners*
0 Add a 4 corners polygon primitive as box body*
4,1,4,$2,$3,$4,$5,$6,$7,$8,$9,$2,$3,0*
0 Add four circle primitives for the rounded corners*
1,1,$1+$1,$2,$3*
1,1,$1+$1,$4,$5*
1,1,$1+$1,$6,$7*
1,1,$1+$1,$8,$9*
0 Add four rect primitives between the rounded corners*
20,1,$1+$1,$2,$3,$4,$5,0*
20,1,$1+$1,$4,$5,$6,$7,0*
20,1,$1+$1,$6,$7,$8,$9,0*
20,1,$1+$1,$8,$9,$2,$3,0*%
G04 Aperture macros list end*
%ADD10C,0.225000*%
%ADD11C,0.150000*%
%ADD12C,0.120000*%
%ADD13C,0.200000*%
%ADD14R,0.400000X1.000000*%
%ADD15RoundRect,0.250000X-0.450000X0.350000X-0.450000X-0.350000X0.450000X-0.350000X0.450000X0.350000X0*%
%ADD16C,1.780000*%
%ADD17C,1.605000*%
%ADD18RoundRect,0.250000X0.337500X0.475000X-0.337500X0.475000X-0.337500X-0.475000X0.337500X-0.475000X0*%
%ADD19R,1.700000X1.700000*%
%ADD20O,1.700000X1.700000*%
G04 APERTURE END LIST*
D10*
X154662500Y-47900000D02*
G75*
G03*
X154662500Y-47900000I-112500J0D01*
G01*
D11*
X146848095Y-46974819D02*
X146848095Y-47784342D01*
X146848095Y-47784342D02*
X146895714Y-47879580D01*
X146895714Y-47879580D02*
X146943333Y-47927200D01*
X146943333Y-47927200D02*
X147038571Y-47974819D01*
X147038571Y-47974819D02*
X147229047Y-47974819D01*
X147229047Y-47974819D02*
X147324285Y-47927200D01*
X147324285Y-47927200D02*
X147371904Y-47879580D01*
X147371904Y-47879580D02*
X147419523Y-47784342D01*
X147419523Y-47784342D02*
X147419523Y-46974819D01*
X148419523Y-47974819D02*
X147848095Y-47974819D01*
X148133809Y-47974819D02*
X148133809Y-46974819D01*
X148133809Y-46974819D02*
X148038571Y-47117676D01*
X148038571Y-47117676D02*
X147943333Y-47212914D01*
X147943333Y-47212914D02*
X147848095Y-47260533D01*
X134743333Y-54274819D02*
X134410000Y-53798628D01*
X134171905Y-54274819D02*
X134171905Y-53274819D01*
X134171905Y-53274819D02*
X134552857Y-53274819D01*
X134552857Y-53274819D02*
X134648095Y-53322438D01*
X134648095Y-53322438D02*
X134695714Y-53370057D01*
X134695714Y-53370057D02*
X134743333Y-53465295D01*
X134743333Y-53465295D02*
X134743333Y-53608152D01*
X134743333Y-53608152D02*
X134695714Y-53703390D01*
X134695714Y-53703390D02*
X134648095Y-53751009D01*
X134648095Y-53751009D02*
X134552857Y-53798628D01*
X134552857Y-53798628D02*
X134171905Y-53798628D01*
X135695714Y-54274819D02*
X135124286Y-54274819D01*
X135410000Y-54274819D02*
X135410000Y-53274819D01*
X135410000Y-53274819D02*
X135314762Y-53417676D01*
X135314762Y-53417676D02*
X135219524Y-53512914D01*
X135219524Y-53512914D02*
X135124286Y-53560533D01*
X129921904Y-53324819D02*
X129445714Y-53324819D01*
X129445714Y-53324819D02*
X129398095Y-53801009D01*
X129398095Y-53801009D02*
X129445714Y-53753390D01*
X129445714Y-53753390D02*
X129540952Y-53705771D01*
X129540952Y-53705771D02*
X129779047Y-53705771D01*
X129779047Y-53705771D02*
X129874285Y-53753390D01*
X129874285Y-53753390D02*
X129921904Y-53801009D01*
X129921904Y-53801009D02*
X129969523Y-53896247D01*
X129969523Y-53896247D02*
X129969523Y-54134342D01*
X129969523Y-54134342D02*
X129921904Y-54229580D01*
X129921904Y-54229580D02*
X129874285Y-54277200D01*
X129874285Y-54277200D02*
X129779047Y-54324819D01*
X129779047Y-54324819D02*
X129540952Y-54324819D01*
X129540952Y-54324819D02*
X129445714Y-54277200D01*
X129445714Y-54277200D02*
X129398095Y-54229580D01*
X130398095Y-54324819D02*
X130398095Y-53324819D01*
X130969523Y-54324819D02*
X130540952Y-53753390D01*
X130969523Y-53324819D02*
X130398095Y-53896247D01*
X131921904Y-54324819D02*
X131350476Y-54324819D01*
X131636190Y-54324819D02*
X131636190Y-53324819D01*
X131636190Y-53324819D02*
X131540952Y-53467676D01*
X131540952Y-53467676D02*
X131445714Y-53562914D01*
X131445714Y-53562914D02*
X131350476Y-53610533D01*
X134726666Y-47374819D02*
X134726666Y-48089104D01*
X134726666Y-48089104D02*
X134679047Y-48231961D01*
X134679047Y-48231961D02*
X134583809Y-48327200D01*
X134583809Y-48327200D02*
X134440952Y-48374819D01*
X134440952Y-48374819D02*
X134345714Y-48374819D01*
X135726666Y-48374819D02*
X135155238Y-48374819D01*
X135440952Y-48374819D02*
X135440952Y-47374819D01*
X135440952Y-47374819D02*
X135345714Y-47517676D01*
X135345714Y-47517676D02*
X135250476Y-47612914D01*
X135250476Y-47612914D02*
X135155238Y-47660533D01*
X134643333Y-50674819D02*
X134310000Y-50198628D01*
X134071905Y-50674819D02*
X134071905Y-49674819D01*
X134071905Y-49674819D02*
X134452857Y-49674819D01*
X134452857Y-49674819D02*
X134548095Y-49722438D01*
X134548095Y-49722438D02*
X134595714Y-49770057D01*
X134595714Y-49770057D02*
X134643333Y-49865295D01*
X134643333Y-49865295D02*
X134643333Y-50008152D01*
X134643333Y-50008152D02*
X134595714Y-50103390D01*
X134595714Y-50103390D02*
X134548095Y-50151009D01*
X134548095Y-50151009D02*
X134452857Y-50198628D01*
X134452857Y-50198628D02*
X134071905Y-50198628D01*
X135024286Y-49770057D02*
X135071905Y-49722438D01*
X135071905Y-49722438D02*
X135167143Y-49674819D01*
X135167143Y-49674819D02*
X135405238Y-49674819D01*
X135405238Y-49674819D02*
X135500476Y-49722438D01*
X135500476Y-49722438D02*
X135548095Y-49770057D01*
X135548095Y-49770057D02*
X135595714Y-49865295D01*
X135595714Y-49865295D02*
X135595714Y-49960533D01*
X135595714Y-49960533D02*
X135548095Y-50103390D01*
X135548095Y-50103390D02*
X134976667Y-50674819D01*
X134976667Y-50674819D02*
X135595714Y-50674819D01*
X129821904Y-49724819D02*
X129345714Y-49724819D01*
X129345714Y-49724819D02*
X129298095Y-50201009D01*
X129298095Y-50201009D02*
X129345714Y-50153390D01*
X129345714Y-50153390D02*
X129440952Y-50105771D01*
X129440952Y-50105771D02*
X129679047Y-50105771D01*
X129679047Y-50105771D02*
X129774285Y-50153390D01*
X129774285Y-50153390D02*
X129821904Y-50201009D01*
X129821904Y-50201009D02*
X129869523Y-50296247D01*
X129869523Y-50296247D02*
X129869523Y-50534342D01*
X129869523Y-50534342D02*
X129821904Y-50629580D01*
X129821904Y-50629580D02*
X129774285Y-50677200D01*
X129774285Y-50677200D02*
X129679047Y-50724819D01*
X129679047Y-50724819D02*
X129440952Y-50724819D01*
X129440952Y-50724819D02*
X129345714Y-50677200D01*
X129345714Y-50677200D02*
X129298095Y-50629580D01*
X130298095Y-50724819D02*
X130298095Y-49724819D01*
X130869523Y-50724819D02*
X130440952Y-50153390D01*
X130869523Y-49724819D02*
X130298095Y-50296247D01*
X131821904Y-50724819D02*
X131250476Y-50724819D01*
X131536190Y-50724819D02*
X131536190Y-49724819D01*
X131536190Y-49724819D02*
X131440952Y-49867676D01*
X131440952Y-49867676D02*
X131345714Y-49962914D01*
X131345714Y-49962914D02*
X131250476Y-50010533D01*
X152433333Y-45659580D02*
X152385714Y-45707200D01*
X152385714Y-45707200D02*
X152242857Y-45754819D01*
X152242857Y-45754819D02*
X152147619Y-45754819D01*
X152147619Y-45754819D02*
X152004762Y-45707200D01*
X152004762Y-45707200D02*
X151909524Y-45611961D01*
X151909524Y-45611961D02*
X151861905Y-45516723D01*
X151861905Y-45516723D02*
X151814286Y-45326247D01*
X151814286Y-45326247D02*
X151814286Y-45183390D01*
X151814286Y-45183390D02*
X151861905Y-44992914D01*
X151861905Y-44992914D02*
X151909524Y-44897676D01*
X151909524Y-44897676D02*
X152004762Y-44802438D01*
X152004762Y-44802438D02*
X152147619Y-44754819D01*
X152147619Y-44754819D02*
X152242857Y-44754819D01*
X152242857Y-44754819D02*
X152385714Y-44802438D01*
X152385714Y-44802438D02*
X152433333Y-44850057D01*
X153385714Y-45754819D02*
X152814286Y-45754819D01*
X153100000Y-45754819D02*
X153100000Y-44754819D01*
X153100000Y-44754819D02*
X153004762Y-44897676D01*
X153004762Y-44897676D02*
X152909524Y-44992914D01*
X152909524Y-44992914D02*
X152814286Y-45040533D01*
%TO.C,U1*%
X154150000Y-48350000D02*
X154150000Y-54075000D01*
X147325000Y-49425000D02*
X147350000Y-49425000D01*
X147325000Y-49425000D02*
X147325000Y-54075000D01*
X154150000Y-54075000D02*
X154050000Y-54075000D01*
X147325000Y-54075000D02*
X147350000Y-54075000D01*
D12*
%TO.C,R1*%
X133695000Y-53642936D02*
X133695000Y-54097064D01*
X132225000Y-53642936D02*
X132225000Y-54097064D01*
D13*
%TO.C,J1*%
X145870000Y-55790000D02*
X145870000Y-55790000D01*
X145870000Y-55790000D02*
X135810000Y-55790000D01*
X145870000Y-53040000D02*
X145870000Y-53040000D01*
X145870000Y-53040000D02*
X145870000Y-51540000D01*
X145870000Y-51540000D02*
X145870000Y-53040000D01*
X145870000Y-51540000D02*
X145870000Y-51540000D01*
X144650000Y-49240000D02*
X144650000Y-49240000D01*
X144650000Y-49140000D02*
X144650000Y-49140000D01*
X144650000Y-49140000D02*
X144650000Y-49140000D01*
X135810000Y-55790000D02*
X135810000Y-55790000D01*
X135810000Y-53290000D02*
X135810000Y-53290000D01*
X135810000Y-53290000D02*
X135810000Y-51540000D01*
X135810000Y-51540000D02*
X135810000Y-53290000D01*
X135810000Y-51540000D02*
X135810000Y-51540000D01*
X144650000Y-49140000D02*
G75*
G03*
X144650000Y-49240000I0J-50000D01*
G01*
X144650000Y-49140000D02*
G75*
G03*
X144650000Y-49240000I0J-50000D01*
G01*
X144650000Y-49240000D02*
G75*
G03*
X144650000Y-49140000I0J50000D01*
G01*
D12*
%TO.C,R2*%
X132225000Y-49892936D02*
X132225000Y-50347064D01*
X133695000Y-49892936D02*
X133695000Y-50347064D01*
%TO.C,C1*%
X152861252Y-47635000D02*
X152338748Y-47635000D01*
X152861252Y-46165000D02*
X152338748Y-46165000D01*
%TD*%
%LPC*%
D14*
%TO.C,U1*%
X153625000Y-48850000D03*
X152975000Y-48850000D03*
X152325000Y-48850000D03*
X151675000Y-48850000D03*
X151025000Y-48850000D03*
X150375000Y-48850000D03*
X149725000Y-48850000D03*
X149075000Y-48850000D03*
X148425000Y-48850000D03*
X147775000Y-48850000D03*
X147775000Y-54650000D03*
X148425000Y-54650000D03*
X149075000Y-54650000D03*
X149725000Y-54650000D03*
X150375000Y-54650000D03*
X151025000Y-54650000D03*
X151675000Y-54650000D03*
X152325000Y-54650000D03*
X152975000Y-54650000D03*
X153625000Y-54650000D03*
%TD*%
D15*
%TO.C,R1*%
X132960000Y-52870000D03*
X132960000Y-54870000D03*
%TD*%
D16*
%TO.C,J1*%
X144650000Y-54350000D03*
X142110000Y-54350000D03*
X139570000Y-54350000D03*
X137030000Y-54350000D03*
D17*
X144650000Y-50540000D03*
X142110000Y-50540000D03*
X139570000Y-50540000D03*
X137030000Y-50540000D03*
%TD*%
D15*
%TO.C,R2*%
X132960000Y-51120000D03*
X132960000Y-49120000D03*
%TD*%
D18*
%TO.C,C1*%
X153637500Y-46900000D03*
X151562500Y-46900000D03*
%TD*%
D19*
%TO.C,J3*%
X133480000Y-46100000D03*
D20*
X133480000Y-43560000D03*
X136020000Y-46100000D03*
X136020000Y-43560000D03*
X138560000Y-46100000D03*
X138560000Y-43560000D03*
X141100000Y-46100000D03*
X141100000Y-43560000D03*
X143640000Y-46100000D03*
X143640000Y-43560000D03*
X146180000Y-46100000D03*
X146180000Y-43560000D03*
X148720000Y-46100000D03*
X148720000Y-43560000D03*
%TD*%
%LPD*%
M02*
