M48
; DRILL file {KiCad 9.0.7} date 2026-05-12T20:19:32-0400
; FORMAT={-:-/ absolute / inch / decimal}
; #@! TF.CreationDate,2026-05-12T20:19:32-04:00
; #@! TF.GenerationSoftware,Kicad,Pcbnew,9.0.7
; #@! TF.FileFunction,Plated,1,4,PTH
FMAT,2
INCH
; #@! TA.AperFunction,Plated,PTH,ViaDrill
T1C0.0118
; #@! TA.AperFunction,Plated,PTH,ViaDrill
T2C0.0157
; #@! TA.AperFunction,Plated,PTH,ComponentDrill
T3C0.0236
; #@! TA.AperFunction,Plated,PTH,ComponentDrill
T4C0.0300
; #@! TA.AperFunction,Plated,PTH,ComponentDrill
T5C0.0315
; #@! TA.AperFunction,Plated,PTH,ComponentDrill
T6C0.0394
; #@! TA.AperFunction,Plated,PTH,ComponentDrill
T7C0.0433
%
G90
G05
T1
X3.7Y-3.6012
X3.7008Y-3.6362
X3.9686Y-2.3247
X3.9946Y-2.3507
X4.0186Y-2.3267
X4.0422Y-3.09
X4.0446Y-2.3507
X4.0493Y-1.5896
X4.0556Y-3.1163
X4.0665Y-3.1437
X4.0706Y-2.3247
X4.0774Y-3.1711
X4.0937Y-3.1957
X4.0966Y-2.3507
X4.107Y-3.2221
X4.1226Y-2.3247
X4.1242Y-3.246
X4.1389Y-3.2716
X4.1466Y-2.3507
X4.237Y-3.0997
X4.2402Y-2.9138
X4.2642Y-2.8578
X4.2668Y-3.0168
X4.2689Y-2.0925
X4.27Y-1.47
X4.2961Y-2.4398
X4.301Y-1.471
X4.3305Y-1.47
X4.361Y-1.4706
X4.3905Y-1.47
X4.42Y-1.47
X4.45Y-1.47
X4.4692Y-2.3873
X4.471Y-2.511
X4.48Y-1.47
X4.5025Y-2.5105
X4.5099Y-2.3866
X4.5206Y-2.938
X4.5217Y-2.9083
X4.522Y-2.8766
X4.523Y-2.8386
X4.6378Y-2.648
X4.64Y-2.372
X4.6533Y-2.8087
X4.6549Y-2.8391
X4.6594Y-2.4059
X4.6613Y-2.9044
X4.67Y-2.76
X4.685Y-2.6835
X4.6923Y-2.3709
X4.7056Y-2.6401
X4.7122Y-3.2786
X4.73Y-1.515
X4.7383Y-2.4275
X4.7392Y-2.3868
X4.748Y-2.846
X4.7615Y-1.5155
X4.7628Y-2.8726
X4.764Y-2.538
X4.7924Y-2.5224
X4.7946Y-1.5149
X4.8091Y-3.5541
X4.8101Y-2.3936
X4.825Y-1.515
X4.8325Y-2.9778
X4.8327Y-3.5768
X4.8327Y-2.9473
X4.834Y-2.914
X4.8562Y-1.515
X4.8716Y-2.6821
X4.876Y-3.2559
X4.882Y-2.9
X4.8865Y-1.515
X4.8867Y-2.1307
X4.8884Y-2.4481
X4.9075Y-3.2707
X4.911Y-2.4706
X4.916Y-1.515
X4.935Y-3.2884
X4.9433Y-3.3504
X4.9441Y-3.3193
X4.9455Y-1.515
X4.9647Y-3.4622
X4.9668Y-2.0399
X4.9724Y-3.3701
X4.9949Y-3.4898
X4.9961Y-3.2552
X5.0157Y-3.3937
X5.0161Y-3.4303
X5.0179Y-3.5762
X5.0287Y-3.4657
X5.0516Y-3.2555
X5.0773Y-2.0035
X5.081Y-2.6726
X5.0967Y-2.982
X5.0968Y-2.95
X5.1073Y-2.6572
X5.1248Y-2.115
X5.1303Y-2.3871
X5.1307Y-2.951
X5.1319Y-2.635
X5.1437Y-3.3543
X5.1439Y-2.481
X5.1495Y-2.0974
X5.1569Y-2.6181
X5.1603Y-2.5056
X5.1677Y-3.3716
X5.172Y-2.98
X5.177Y-2.5299
X5.1781Y-2.0816
X5.179Y-2.5986
X5.1819Y-2.3871
X5.195Y-1.525
X5.1954Y-2.9531
X5.1969Y-3.3819
X5.2039Y-2.0656
X5.2166Y-3.4045
X5.218Y-2.98
X5.225Y-1.525
X5.237Y-2.0482
X5.2469Y-3.42
X5.2531Y-3.5191
X5.255Y-1.525
X5.2677Y-3.4409
X5.2717Y-2.0309
X5.276Y-2.37
X5.2875Y-1.5249
X5.2894Y-3.4646
X5.3051Y-3.4909
X5.3071Y-3.3589
X5.32Y-1.525
X5.3386Y-3.3431
X5.35Y-1.525
X5.3588Y-2.3688
X5.38Y-1.525
X5.4013Y-3.331
X5.4021Y-1.9277
X5.4031Y-4.1142
X5.4035Y-3.5774
X5.41Y-1.525
X5.4331Y-3.3307
X5.4343Y-1.9276
X5.4673Y-1.9279
X5.482Y-2.5866
X5.4899Y-2.9441
X5.5068Y-2.5434
X5.526Y-2.944
X5.5291Y-2.3697
X5.5294Y-2.567
X5.5311Y-1.8961
X5.5441Y-2.1489
X5.5598Y-2.9434
X5.5709Y-2.5429
X5.5709Y-3.044
X5.5724Y-2.1402
X5.5748Y-2.1106
X5.5765Y-2.3685
X5.5894Y-2.9434
X5.5998Y-4.2967
X5.6051Y-2.1076
X5.6195Y-2.9434
X5.621Y-4.3172
X5.6276Y-1.7
X5.6358Y-3.0079
X5.6371Y-2.1076
X5.642Y-4.338
X5.6492Y-2.9432
X5.664Y-4.358
X5.67Y-2.566
X5.6787Y-2.9434
X5.69Y-3.054
X5.6987Y-1.5157
X5.7Y-2.5704
X5.7301Y-1.5152
X5.7482Y-4.2139
X5.7508Y-1.6978
X5.7547Y-4.1838
X5.7621Y-4.1527
X5.7642Y-1.5152
X5.7667Y-4.1236
X5.785Y-1.6752
X5.7953Y-1.5152
X5.8104Y-3.0541
X5.8112Y-2.7564
X5.8124Y-1.8016
X5.8228Y-2.9783
X5.829Y-1.5152
X5.835Y-1.7748
X5.837Y-2.7421
X5.861Y-1.5152
X5.862Y-2.7578
X5.862Y-2.7874
X5.8626Y-1.7508
X5.8717Y-1.2372
X5.8921Y-1.7661
X5.893Y-1.5152
X5.8968Y-2.8132
X5.9195Y-3.0079
X5.9224Y-2.5521
X5.925Y-1.5152
X5.9531Y-2.5392
X5.9659Y-1.9186
X5.9666Y-3.0197
X5.973Y-2.0025
X5.9902Y-1.4922
X6.0088Y-1.9986
X6.0091Y-1.4695
X6.0127Y-1.8039
X6.0222Y-1.936
X6.0281Y-1.4469
X6.0356Y-1.7813
X6.047Y-1.4242
X6.0474Y-4.2347
X6.0506Y-4.2962
X6.066Y-1.4016
X6.0683Y-1.8722
X6.075Y-4.337
X6.0849Y-1.3789
X6.0933Y-2.192
X6.0983Y-4.3842
X6.1039Y-1.3563
X6.1067Y-1.2799
X6.1079Y-2.4733
X6.115Y-2.8495
X6.1236Y-1.3343
X6.1256Y-2.9434
X6.1311Y-1.7681
X6.1371Y-2.4798
X6.1461Y-2.5079
X6.15Y-2.9902
X6.1545Y-1.7915
X6.1554Y-2.7312
X6.1563Y-1.3337
X6.1564Y-2.3119
X6.1623Y-4.1682
X6.1634Y-4.2087
X6.166Y-4.248
X6.1805Y-2.7156
X6.1859Y-2.3103
X6.1869Y-1.824
X6.1874Y-4.2715
X6.1931Y-1.3654
X6.196Y-4.412
X6.2054Y-2.6997
X6.21Y-4.2954
X6.2134Y-1.9358
X6.2189Y-2.3087
X6.2309Y-1.8679
X6.2314Y-2.6839
X6.2319Y-2.1925
X6.2326Y-4.3144
X6.2394Y-2.2431
X6.246Y-4.438
X6.2461Y-2.2913
X6.2535Y-4.3355
X6.2574Y-2.6682
X6.262Y-2.846
X6.263Y-2.959
X6.2728Y-2.0616
X6.2752Y-4.3555
X6.2756Y-2.272
X6.2822Y-2.3478
X6.2962Y-4.3763
X6.2962Y-2.0149
X6.3001Y-3.0621
X6.312Y-2.926
X6.3173Y-4.397
X6.3174Y-2.861
X6.3174Y-3.0025
X6.339Y-4.417
X6.3875Y-4.4428
X6.3888Y-2.5192
X6.4102Y-4.4638
X6.42Y-2.68
X6.421Y-2.715
X6.4547Y-2.1969
X6.4778Y-2.3735
X6.5007Y-2.3927
X6.526Y-2.0472
X6.5296Y-2.4056
X6.5393Y-4.2723
X6.5404Y-4.3196
X6.5418Y-4.3688
X6.5431Y-4.4181
X6.5517Y-1.7648
X6.5578Y-2.4218
X6.5609Y-2.2029
X6.563Y-4.2966
X6.563Y-4.3452
X6.5631Y-4.3933
X6.5858Y-2.4378
X6.5965Y-1.437
X6.6117Y-2.4537
X6.624Y-1.2175
X6.6347Y-2.7726
X6.6376Y-2.4694
X6.6602Y-2.4891
X6.6886Y-1.437
X6.6969Y-4.1732
X6.7293Y-3.8622
X6.7352Y-3.565
X6.7376Y-4.1412
X6.7559Y-4.2677
X6.76Y-4.105
X6.7632Y-2.8656
X6.785Y-3.5124
X6.785Y-4.1426
X6.7866Y-1.7225
X6.8031Y-1.2224
X6.81Y-2.865
X6.81Y-3.5626
X6.81Y-4.105
X6.8102Y-1.6998
X6.8134Y-1.7451
X6.835Y-4.1426
X6.8351Y-3.5124
X6.838Y-1.6772
X6.839Y-1.7678
X6.8554Y-2.0729
X6.86Y-2.865
X6.86Y-3.5626
X6.86Y-4.105
X6.8647Y-1.7904
X6.885Y-3.5124
X6.885Y-4.1426
X6.8909Y-1.813
X6.91Y-2.8661
X6.91Y-4.105
X6.9104Y-3.5626
X6.9169Y-1.8357
X6.935Y-3.5124
X6.935Y-4.1426
X6.954Y-2.53
X6.96Y-3.5626
X6.96Y-4.105
X6.9616Y-2.8884
X6.985Y-3.5124
X6.985Y-4.1426
X6.9941Y-2.3189
X7.01Y-3.5626
X7.01Y-4.105
X7.0108Y-2.8898
X7.0276Y-2.3189
X7.035Y-3.5124
X7.035Y-4.1406
X7.0572Y-3.5626
X7.06Y-4.105
X7.06Y-2.878
X7.061Y-2.3189
X7.0802Y-3.5124
X7.085Y-4.14
X7.088Y-2.562
X7.11Y-3.5626
X7.11Y-4.105
X7.1121Y-2.8626
X7.1161Y-2.0748
X7.135Y-3.5124
X7.135Y-4.125
X7.1496Y-2.0748
X7.1595Y-3.5626
X7.174Y-2.86
X7.1814Y-2.1395
X7.1976Y-4.0861
X7.2226Y-3.2535
X7.2244Y-2.1772
X7.235Y-3.2267
X7.235Y-3.505
X7.2362Y-2.0079
X7.2636Y-3.9179
X7.2641Y-3.7724
X7.265Y-3.82
X7.265Y-3.87
X7.2673Y-2.2037
X7.2754Y-3.945
X7.2823Y-3.895
X7.2836Y-3.795
X7.2836Y-3.845
X7.2953Y-2.2205
X7.2975Y-2.2527
X7.3146Y-3.194
X7.3146Y-3.2393
X7.3303Y-4.3157
X7.3328Y-3.1707
X7.3345Y-3.2174
X7.3366Y-2.2195
X7.3554Y-3.1514
X7.3716Y-2.664
X7.3763Y-3.1288
X7.3976Y-2.1762
X7.3984Y-2.6514
X7.3994Y-4.309
X7.4057Y-2.3119
X7.4152Y-2.2224
X7.42Y-4.285
X7.4239Y-2.6356
X7.437Y-2.1762
X7.443Y-3.3026
X7.4475Y-2.6178
X7.4738Y-2.6019
X7.4922Y-4.0838
X7.5058Y-2.5841
X7.538Y-2.568
X7.5551Y-4.0276
X7.5629Y-4.2609
X7.5634Y-2.5511
X7.5794Y-3.62
X7.5795Y-3.7926
X7.581Y-4.2006
X7.586Y-2.7707
X7.6Y-1.215
X7.6Y-2.5226
X7.604Y-3.478
X7.628Y-3.6043
X7.63Y-3.8086
X7.63Y-4.1886
X7.636Y-2.146
X7.6526Y-3.4621
X7.68Y-3.5885
X7.68Y-3.8244
X7.681Y-4.1706
X7.7Y-1.6479
X7.7011Y-1.6184
X7.7012Y-2.0848
X7.7018Y-2.1483
X7.7033Y-3.4461
X7.73Y-3.5728
X7.73Y-3.8401
X7.731Y-4.1606
X7.7526Y-3.4301
X7.778Y-3.557
X7.779Y-4.1406
X7.78Y-3.8559
X7.8064Y-3.4172
X7.83Y-3.5413
X7.83Y-3.8716
X7.831Y-4.1299
X7.8543Y-3.3984
X7.88Y-3.5255
X7.88Y-3.8874
X7.88Y-4.1142
X7.905Y-4.461
X7.9077Y-3.3826
X7.92Y-4.545
X7.9276Y-4.0967
X7.93Y-3.5098
X7.93Y-3.9031
X7.9539Y-4.012
X7.9543Y-4.438
X7.956Y-3.37
X7.98Y-3.752
X7.9832Y-3.9987
X8.0Y-1.516
X8.03Y-4.0157
X8.0471Y-4.4357
X8.0666Y-4.4597
X8.074Y-3.3264
X8.083Y-4.4843
X8.102Y-1.516
X8.18Y-4.63
X8.272Y-4.628
X8.295Y-4.1654
X8.32Y-2.0
X8.32Y-3.722
X8.32Y-3.896
X8.3205Y-4.2653
X8.345Y-3.625
X8.37Y-3.25
X8.37Y-3.37
X8.37Y-4.0861
X8.3718Y-4.1163
X8.392Y-2.034
X8.395Y-3.61
X8.401Y-2.3735
X8.4188Y-4.1026
X8.42Y-3.25
X8.42Y-3.385
X8.4207Y-4.1326
X8.4305Y-2.3744
X8.445Y-3.595
X8.4601Y-2.375
X8.4688Y-4.1183
X8.47Y-3.25
X8.4701Y-3.4
X8.4707Y-4.1484
X8.4896Y-2.3744
X8.495Y-3.58
X8.5191Y-4.1341
X8.5195Y-2.375
X8.52Y-3.25
X8.52Y-3.415
X8.5201Y-4.1636
X8.541Y-2.211
X8.545Y-3.565
X8.549Y-2.374
X8.565Y-4.475
X8.57Y-3.25
X8.57Y-3.43
X8.57Y-4.1807
X8.57Y-4.1512
X8.58Y-2.375
X8.595Y-3.55
X8.62Y-3.25
X8.62Y-3.445
X8.62Y-4.167
X8.6217Y-4.1964
X8.645Y-3.535
X8.6676Y-3.46
X8.6696Y-4.1827
X8.6701Y-4.2122
X8.6717Y-3.25
X8.688Y-2.154
X8.695Y-3.52
X8.7188Y-4.1985
X8.72Y-3.25
X8.72Y-3.485
X8.7201Y-4.228
X8.726Y-1.958
X8.77Y-3.606
X8.795Y-4.3946
X8.8419Y-1.9521
X8.8498Y-3.7078
X8.874Y-3.5407
X8.884Y-1.824
X8.8987Y-3.5245
X8.9064Y-1.9264
X8.9233Y-3.5082
X8.936Y-1.7974
X8.9469Y-3.4905
X8.9719Y-3.4748
X8.9969Y-3.4592
X9.0214Y-3.4427
X9.045Y-3.425
X9.054Y-1.2533
X9.0607Y-4.3975
X9.09Y-3.888
X9.091Y-4.4206
X9.1Y-2.966
X9.104Y-2.154
X9.115Y-4.2638
X9.116Y-3.584
X9.1392Y-4.3907
X9.165Y-3.554
X9.165Y-3.7349
X9.165Y-4.0833
X9.1876Y-4.055
X9.2Y-1.612
X9.21Y-4.1037
X9.215Y-3.5382
X9.215Y-3.75
X9.2376Y-4.0706
X9.2602Y-4.1196
X9.265Y-3.5205
X9.265Y-3.765
X9.29Y-4.085
X9.31Y-4.1352
X9.315Y-3.505
X9.315Y-3.78
X9.3376Y-4.1
X9.339Y-4.4069
X9.36Y-4.1509
X9.365Y-3.49
X9.365Y-3.795
X9.3876Y-4.115
X9.391Y-4.4086
X9.41Y-4.1667
X9.415Y-3.4733
X9.415Y-3.81
X9.435Y-3.15
X9.4376Y-4.1308
X9.46Y-4.1824
X9.465Y-3.4576
X9.465Y-3.825
X9.485Y-3.175
X9.4876Y-4.1535
X9.5098Y-4.1979
X9.515Y-3.44
X9.515Y-3.84
X9.5376Y-4.1811
X9.54Y-3.2
X9.5636Y-3.878
X9.566Y-3.618
X9.586Y-3.552
X9.618Y-4.2461
T2
X3.282Y-1.844
X3.282Y-2.156
X3.2827Y-3.0819
X3.3303Y-2.8368
X3.3303Y-2.8766
X3.3354Y-2.6654
X3.345Y-4.56
X3.3453Y-3.0695
X3.3819Y-3.1201
X3.3858Y-2.6654
X3.3886Y-2.8368
X3.3886Y-2.8766
X3.3996Y-3.5571
X3.437Y-2.3566
X3.444Y-2.156
X3.472Y-3.1447
X3.5031Y-2.9567
X3.515Y-2.7691
X3.5189Y-2.8333
X3.5228Y-2.9156
X3.5378Y-2.2674
X3.5819Y-2.8943
X3.6154Y-2.8565
X3.6173Y-3.075
X3.6358Y-2.8959
X3.6394Y-4.56
X3.6567Y-3.0742
X3.6996Y-3.0742
X3.7118Y-3.6819
X3.7559Y-2.9232
X3.77Y-1.962
X3.7756Y-2.7638
X3.813Y-2.8344
X3.813Y-2.872
X3.8504Y-3.0669
X3.8858Y-3.0669
X3.896Y-1.626
X3.897Y-2.244
X3.8976Y-2.9035
X3.8976Y-2.9386
X3.8976Y-2.9724
X3.8976Y-3.0079
X3.9Y-2.0294
X4.0Y-3.01
X4.0453Y-4.2638
X4.097Y-3.502
X4.1531Y-1.3705
X4.1731Y-2.3189
X4.2255Y-4.264
X4.3346Y-4.1693
X4.505Y-3.5306
X4.5689Y-2.9886
X4.6102Y-2.2398
X4.622Y-3.01
X4.6291Y-2.6937
X4.636Y-2.5017
X4.6387Y-2.5913
X4.6413Y-2.1533
X4.72Y-3.0926
X4.77Y-2.906
X4.82Y-2.585
X4.8631Y-2.2528
X4.93Y-2.585
X4.935Y-2.965
X4.979Y-2.2486
X5.02Y-2.9522
X5.101Y-2.5846
X5.1516Y-2.2403
X5.215Y-2.245
X5.2251Y-2.585
X5.296Y-2.96
X5.314Y-2.3674
X5.36Y-2.59
X5.395Y-3.03
X5.424Y-2.2398
X6.2028Y-1.1831
X6.5015Y-3.3756
X6.5817Y-4.0862
X6.582Y-3.9188
X6.6028Y-2.794
X6.609Y-3.2666
X6.6146Y-1.8839
X6.628Y-2.7219
X6.6693Y-1.9386
X6.7768Y-2.0012
X6.813Y-2.0866
X6.9299Y-1.4555
X6.9334Y-1.2083
X6.934Y-1.5339
X6.9712Y-1.4555
X6.974Y-1.5339
X7.0042Y-1.2083
X7.0109Y-1.4555
X7.0126Y-2.527
X7.014Y-1.5339
X7.0445Y-1.2083
X7.0521Y-1.4555
X7.054Y-1.5339
X7.085Y-1.2083
X7.0923Y-1.4555
X7.094Y-1.5339
X7.1245Y-1.2083
X7.165Y-1.2083
X7.1843Y-3.2621
X7.185Y-4.025
X7.205Y-1.2083
X7.235Y-3.745
X7.245Y-1.2083
X7.28Y-4.335
X7.285Y-1.2083
X7.325Y-1.2083
X7.365Y-1.2083
X7.3828Y-3.4968
X7.4016Y-2.0709
X7.4025Y-2.035
X7.4042Y-1.2083
X7.413Y-3.3306
X7.42Y-3.962
X7.42Y-4.04
X7.44Y-2.07
X7.44Y-2.035
X7.4442Y-1.2083
X7.475Y-2.07
X7.475Y-2.035
X7.4842Y-1.2083
X7.51Y-2.07
X7.51Y-2.035
X7.5245Y-1.2083
X7.618Y-1.746
X7.6827Y-2.7293
X8.0039Y-4.4386
X8.03Y-3.7414
X8.0974Y-3.3503
X8.147Y-4.0
X8.15Y-3.902
X8.215Y-3.275
X8.2219Y-2.5978
X8.24Y-1.735
X8.2684Y-3.9
X8.274Y-1.876
X8.29Y-4.4468
X8.769Y-4.0231
X8.819Y-4.2446
X8.8207Y-3.6099
X8.93Y-4.0683
X8.9416Y-3.9091
X9.0Y-3.385
X9.005Y-3.305
X9.0634Y-4.0446
X9.5666Y-3.245
X9.582Y-4.607
X9.616Y-3.75
X9.616Y-4.406
X9.6457Y-1.5512
X9.6654Y-1.2165
X9.75Y-3.03
X9.755Y-2.095
X9.755Y-2.61
X9.755Y-2.5625
X9.805Y-2.095
X9.805Y-3.03
X9.805Y-2.5625
X9.805Y-2.61
X9.855Y-2.095
X9.855Y-2.5625
X9.855Y-2.61
X9.8575Y-3.03
X9.907Y-4.607
T3
X3.6993Y-1.7815
X3.6993Y-1.8315
X3.6993Y-3.8659
X3.6993Y-3.9159
X3.7493Y-1.7815
X3.7493Y-1.8315
X3.7493Y-3.8659
X3.7493Y-3.9159
X3.7993Y-1.7815
X3.7993Y-1.8315
X3.7993Y-3.8659
X3.7993Y-3.9159
X3.8493Y-1.7815
X3.8493Y-1.8315
X3.8493Y-3.8659
X3.8493Y-3.9159
X3.8993Y-1.7815
X3.8993Y-1.8315
X3.8993Y-3.8659
X3.8993Y-3.9159
X3.9493Y-1.7815
X3.9493Y-1.8315
X3.9493Y-3.8659
X3.9493Y-3.9159
X3.9993Y-1.7815
X3.9993Y-1.8315
X3.9993Y-3.8659
X3.9993Y-3.9159
X4.0493Y-1.7815
X4.0493Y-1.8315
X4.0493Y-3.8659
X4.0493Y-3.9159
X4.0993Y-1.7815
X4.0993Y-1.8315
X4.0993Y-3.8659
X4.0993Y-3.9159
X4.1493Y-1.7815
X4.1493Y-1.8315
X4.1493Y-3.8659
X4.1493Y-3.9159
X4.1993Y-1.7815
X4.1993Y-1.8315
X4.1993Y-3.8659
X4.1993Y-3.9159
X4.2493Y-1.7815
X4.2493Y-1.8315
X4.2493Y-3.8659
X4.2493Y-3.9159
X4.2993Y-1.7815
X4.2993Y-1.8315
X4.2993Y-3.8659
X4.2993Y-3.9159
X4.3493Y-1.7815
X4.3493Y-1.8315
X4.3493Y-3.8659
X4.3493Y-3.9159
X4.3993Y-1.7815
X4.3993Y-1.8315
X4.3993Y-3.8659
X4.3993Y-3.9159
X4.4493Y-1.7815
X4.4493Y-1.8315
X4.4493Y-3.8659
X4.4493Y-3.9159
X4.4993Y-1.7815
X4.4993Y-1.8315
X4.4993Y-3.8659
X4.4993Y-3.9159
X4.5493Y-1.7815
X4.5493Y-1.8315
X4.5493Y-3.8659
X4.5493Y-3.9159
X4.5993Y-1.7815
X4.5993Y-1.8315
X4.5993Y-3.8659
X4.5993Y-3.9159
X4.6493Y-1.7815
X4.6493Y-1.8315
X4.6493Y-3.8659
X4.6493Y-3.9159
X4.6993Y-1.7815
X4.6993Y-1.8315
X4.6993Y-3.8659
X4.6993Y-3.9159
X4.7493Y-1.7815
X4.7493Y-1.8315
X4.7493Y-3.8659
X4.7493Y-3.9159
X4.7993Y-1.7815
X4.7993Y-1.8315
X4.7993Y-3.8659
X4.7993Y-3.9159
X4.8493Y-1.7815
X4.8493Y-1.8315
X4.8493Y-3.8659
X4.8493Y-3.9159
X4.8993Y-1.7815
X4.8993Y-1.8315
X4.8993Y-3.8659
X4.8993Y-3.9159
X4.9493Y-1.7815
X4.9493Y-1.8315
X4.9493Y-3.8659
X4.9493Y-3.9159
X4.9993Y-1.7815
X4.9993Y-1.8315
X4.9993Y-3.8659
X4.9993Y-3.9159
X5.0493Y-1.7815
X5.0493Y-1.8315
X5.0493Y-3.8659
X5.0493Y-3.9159
X5.0993Y-1.7815
X5.0993Y-1.8315
X5.0993Y-3.8659
X5.0993Y-3.9159
X5.1493Y-1.7815
X5.1493Y-1.8315
X5.1493Y-3.8659
X5.1493Y-3.9159
X5.1993Y-1.7815
X5.1993Y-1.8315
X5.1993Y-3.8659
X5.1993Y-3.9159
X5.2493Y-1.7815
X5.2493Y-1.8315
X5.2493Y-3.8659
X5.2493Y-3.9159
X5.2993Y-1.7815
X5.2993Y-1.8315
X5.2993Y-3.8659
X5.2993Y-3.9159
X5.3493Y-1.7815
X5.3493Y-1.8315
X5.3493Y-3.8659
X5.3493Y-3.9159
X5.3993Y-1.7815
X5.3993Y-1.8315
X5.3993Y-3.8659
X5.3993Y-3.9159
X5.4493Y-1.7815
X5.4493Y-1.8315
X5.4493Y-3.8659
X5.4493Y-3.9159
X5.4993Y-1.7815
X5.4993Y-1.8315
X5.4993Y-3.8659
X5.4993Y-3.9159
X5.5493Y-1.7815
X5.5493Y-1.8315
X5.5493Y-3.8659
X5.5493Y-3.9159
X5.5993Y-1.7815
X5.5993Y-1.8315
X5.5993Y-3.8659
X5.5993Y-3.9159
X5.6493Y-1.7815
X5.6493Y-1.8315
X5.6493Y-3.8659
X5.6493Y-3.9159
T4
X7.751Y-1.3335
X7.751Y-1.4335
X7.751Y-1.5335
X7.751Y-1.6335
X7.751Y-1.7335
X7.751Y-1.8335
X7.751Y-1.9335
X7.751Y-2.0335
X7.751Y-2.1335
X7.751Y-2.2335
X7.751Y-2.3335
X7.751Y-2.4335
X7.751Y-2.5335
X7.751Y-2.6335
X7.751Y-2.7335
X7.751Y-2.8335
X7.751Y-2.9335
X7.751Y-3.0335
X7.851Y-1.3335
X7.851Y-1.4335
X7.851Y-1.5335
X7.851Y-1.6335
X7.851Y-1.7335
X7.851Y-1.8335
X7.851Y-1.9335
X7.851Y-2.0335
X7.851Y-2.1335
X7.851Y-2.2335
X7.851Y-2.3335
X7.851Y-2.4335
X7.851Y-2.5335
X7.851Y-2.6335
X7.851Y-2.7335
X7.851Y-2.8335
X7.851Y-2.9335
X7.851Y-3.0335
X7.951Y-1.3335
X7.951Y-1.4335
X7.951Y-1.5335
X7.951Y-1.6335
X7.951Y-1.7335
X7.951Y-1.8335
X7.951Y-1.9335
X7.951Y-2.0335
X7.951Y-2.1335
X7.951Y-2.2335
X7.951Y-2.3335
X7.951Y-2.4335
X7.951Y-2.5335
X7.951Y-2.6335
X7.951Y-2.7335
X7.951Y-2.8335
X7.951Y-2.9335
X7.951Y-3.0335
X8.051Y-1.3335
X8.051Y-1.4335
X8.051Y-1.5335
X8.051Y-1.6335
X8.051Y-1.7335
X8.051Y-1.8335
X8.051Y-1.9335
X8.051Y-2.0335
X8.051Y-2.1335
X8.051Y-2.2335
X8.051Y-2.3335
X8.051Y-2.4335
X8.051Y-2.5335
X8.051Y-2.6335
X8.051Y-2.7335
X8.051Y-2.8335
X8.051Y-2.9335
X8.051Y-3.0335
X8.151Y-1.3335
X8.151Y-1.4335
X8.151Y-1.5335
X8.151Y-1.6335
X8.151Y-2.7335
X8.151Y-2.8335
X8.151Y-2.9335
X8.151Y-3.0335
X8.251Y-1.3335
X8.251Y-1.4335
X8.251Y-1.5335
X8.251Y-1.6335
X8.251Y-2.7335
X8.251Y-2.8335
X8.251Y-2.9335
X8.251Y-3.0335
X8.351Y-1.3335
X8.351Y-1.4335
X8.351Y-1.5335
X8.351Y-1.6335
X8.351Y-2.7335
X8.351Y-2.8335
X8.351Y-2.9335
X8.351Y-3.0335
X8.451Y-1.3335
X8.451Y-1.4335
X8.451Y-1.5335
X8.451Y-1.6335
X8.451Y-2.7335
X8.451Y-2.8335
X8.451Y-2.9335
X8.451Y-3.0335
X8.551Y-1.3335
X8.551Y-1.4335
X8.551Y-1.5335
X8.551Y-1.6335
X8.551Y-2.7335
X8.551Y-2.8335
X8.551Y-2.9335
X8.551Y-3.0335
X8.651Y-1.3335
X8.651Y-1.4335
X8.651Y-1.5335
X8.651Y-1.6335
X8.651Y-2.7335
X8.651Y-2.8335
X8.651Y-2.9335
X8.651Y-3.0335
X8.751Y-1.3335
X8.751Y-1.4335
X8.751Y-1.5335
X8.751Y-1.6335
X8.751Y-2.7335
X8.751Y-2.8335
X8.751Y-2.9335
X8.751Y-3.0335
X8.851Y-1.3335
X8.851Y-1.4335
X8.851Y-1.5335
X8.851Y-1.6335
X8.851Y-2.7335
X8.851Y-2.8335
X8.851Y-2.9335
X8.851Y-3.0335
X8.951Y-1.3335
X8.951Y-1.4335
X8.951Y-1.5335
X8.951Y-1.6335
X8.951Y-2.7335
X8.951Y-2.8335
X8.951Y-2.9335
X8.951Y-3.0335
X9.051Y-1.3335
X9.051Y-1.4335
X9.051Y-1.5335
X9.051Y-1.6335
X9.051Y-2.7335
X9.051Y-2.8335
X9.051Y-2.9335
X9.051Y-3.0335
X9.151Y-1.3335
X9.151Y-1.4335
X9.151Y-1.5335
X9.151Y-1.6335
X9.151Y-1.7335
X9.151Y-1.8335
X9.151Y-1.9335
X9.151Y-2.0335
X9.151Y-2.1335
X9.151Y-2.2335
X9.151Y-2.3335
X9.151Y-2.4335
X9.151Y-2.5335
X9.151Y-2.6335
X9.151Y-2.7335
X9.151Y-2.8335
X9.151Y-2.9335
X9.151Y-3.0335
X9.251Y-1.3335
X9.251Y-1.4335
X9.251Y-1.5335
X9.251Y-1.6335
X9.251Y-1.7335
X9.251Y-1.8335
X9.251Y-1.9335
X9.251Y-2.0335
X9.251Y-2.1335
X9.251Y-2.2335
X9.251Y-2.3335
X9.251Y-2.4335
X9.251Y-2.5335
X9.251Y-2.6335
X9.251Y-2.7335
X9.251Y-2.8335
X9.251Y-2.9335
X9.251Y-3.0335
X9.351Y-1.3335
X9.351Y-1.4335
X9.351Y-1.5335
X9.351Y-1.6335
X9.351Y-1.7335
X9.351Y-1.8335
X9.351Y-1.9335
X9.351Y-2.0335
X9.351Y-2.1335
X9.351Y-2.2335
X9.351Y-2.3335
X9.351Y-2.4335
X9.351Y-2.5335
X9.351Y-2.6335
X9.351Y-2.7335
X9.351Y-2.8335
X9.351Y-2.9335
X9.351Y-3.0335
X9.451Y-1.4335
X9.451Y-1.5335
X9.451Y-1.6335
X9.451Y-1.7335
X9.451Y-1.8335
X9.451Y-1.9335
X9.451Y-2.0335
X9.451Y-2.1335
X9.451Y-2.2335
X9.451Y-2.3335
X9.451Y-2.4335
X9.451Y-2.5335
X9.451Y-2.6335
X9.451Y-2.7335
X9.451Y-2.8335
X9.451Y-2.9335
X9.451Y-3.0335
T5
X4.1718Y-4.5285
X4.1718Y-4.6795
X4.2218Y-4.7535
X4.222Y-4.6045
X4.2718Y-4.5285
X4.2718Y-4.6795
X4.3218Y-4.6045
X4.3218Y-4.7535
X4.3718Y-4.5285
X4.3718Y-4.6795
X4.4218Y-4.6035
X4.4218Y-4.7535
X4.4718Y-4.5285
X4.4718Y-4.6785
X4.5218Y-4.6045
X4.5218Y-4.7535
X4.5718Y-4.5285
X4.5718Y-4.6795
X4.6218Y-4.6045
X4.6218Y-4.7535
X4.6718Y-4.5285
X4.6718Y-4.6795
X4.7218Y-4.6045
X4.7218Y-4.7535
X4.7718Y-4.5285
X4.7718Y-4.6785
X4.8218Y-4.6045
X4.8218Y-4.7535
X4.8718Y-4.5285
X4.8718Y-4.6795
X4.9218Y-4.6045
X4.9218Y-4.7535
X4.9718Y-4.5285
X4.9718Y-4.6785
X5.0218Y-4.6045
X5.0218Y-4.7535
X5.0718Y-4.5285
X5.0718Y-4.6795
X5.1218Y-4.6045
X5.1218Y-4.7535
X5.1718Y-4.5285
X5.1718Y-4.6785
X5.2218Y-4.6035
X5.2218Y-4.7535
X5.2718Y-4.5285
X5.2718Y-4.6795
X5.3218Y-4.6045
X5.3218Y-4.7535
X5.3718Y-4.5285
X5.3718Y-4.6795
X5.4218Y-4.6035
X5.4218Y-4.7535
X5.4718Y-4.5285
X5.4718Y-4.6795
X5.5218Y-4.6045
X5.5218Y-4.7535
X5.5718Y-4.5285
X5.5718Y-4.6785
X5.6218Y-4.6045
X5.6218Y-4.7535
X5.6718Y-4.5285
X5.6718Y-4.6795
X5.7218Y-4.6045
X5.7218Y-4.7535
X5.7718Y-4.5285
X5.7718Y-4.6795
X5.8218Y-4.6045
X5.8218Y-4.7535
X5.8718Y-4.5285
X5.8718Y-4.6785
X5.9218Y-4.6045
X5.9218Y-4.7535
X5.9718Y-4.5285
X5.9718Y-4.6795
X6.0218Y-4.6045
X6.0218Y-4.7535
X6.0718Y-4.5285
X6.0718Y-4.6785
X6.1218Y-4.6045
X6.1218Y-4.7535
X6.1718Y-4.5285
X6.1718Y-4.6795
X6.2218Y-4.6045
X6.2218Y-4.7535
X6.2718Y-4.5285
X6.2718Y-4.6785
X6.3218Y-4.6045
X6.3218Y-4.7535
X6.3718Y-4.5285
X6.3718Y-4.6795
X6.4218Y-4.6045
X6.4218Y-4.7535
X6.4718Y-4.5285
X6.4718Y-4.6785
X6.5218Y-4.6045
X6.5218Y-4.7535
X6.5718Y-4.5285
X6.5718Y-4.6795
X6.6218Y-4.6035
X6.6218Y-4.7535
X6.7718Y-4.5285
X6.7718Y-4.6795
X6.8218Y-4.6035
X6.8218Y-4.7535
X6.8718Y-4.5285
X6.8718Y-4.6785
X6.9218Y-4.6035
X6.9218Y-4.7535
X6.9718Y-4.5285
X6.9718Y-4.6795
X7.0218Y-4.6035
X7.0218Y-4.7535
X7.0718Y-4.5285
X7.0718Y-4.6795
X7.1218Y-4.6045
X7.1218Y-4.7535
X7.1718Y-4.5285
X7.1718Y-4.6785
X7.2218Y-4.6045
X7.2218Y-4.7535
X7.2718Y-4.5285
X7.2718Y-4.6795
X7.3218Y-4.6035
X7.3218Y-4.7535
X7.3718Y-4.5285
X7.3718Y-4.6795
X7.4218Y-4.6045
X7.4218Y-4.7535
X7.4718Y-4.5285
X7.4718Y-4.6795
X7.5218Y-4.6035
X7.5218Y-4.7535
X7.5718Y-4.5285
X7.5718Y-4.6785
X7.6218Y-4.6035
X7.6218Y-4.7535
X7.6718Y-4.5285
X7.6718Y-4.6795
X7.7218Y-4.6035
X7.7218Y-4.7535
X7.7718Y-4.5285
X7.7718Y-4.6795
X7.8218Y-4.6045
X7.8218Y-4.7535
X7.8718Y-4.5285
X7.8718Y-4.6795
X7.9218Y-4.7535
X7.922Y-4.6045
X7.9718Y-4.5285
X7.9718Y-4.6795
X8.0218Y-4.6035
X8.0218Y-4.7535
X8.0718Y-4.5285
X8.0718Y-4.6785
X8.1218Y-4.6045
X8.1218Y-4.7535
X8.1718Y-4.5285
X8.1718Y-4.6795
X8.2218Y-4.6045
X8.2218Y-4.7535
X8.2718Y-4.5285
X8.2718Y-4.6795
X8.3218Y-4.7535
X8.322Y-4.6045
X8.3718Y-4.5285
X8.3718Y-4.6795
X8.4218Y-4.7535
X8.422Y-4.6045
X8.4718Y-4.5285
X8.4718Y-4.6795
X8.5218Y-4.6045
X8.5218Y-4.7535
X8.5718Y-4.5285
X8.5718Y-4.6795
X8.6218Y-4.6045
X8.6218Y-4.7535
X8.6718Y-4.5285
X8.6718Y-4.6795
X8.7218Y-4.6045
X8.7218Y-4.7535
X8.7718Y-4.5285
X8.7718Y-4.6795
X8.8218Y-4.6045
X8.8218Y-4.7535
X8.8718Y-4.5285
X8.8718Y-4.6795
X8.9218Y-4.6045
X8.9218Y-4.7535
X8.9718Y-4.5285
X8.9718Y-4.6785
X9.0218Y-4.6045
X9.0218Y-4.7535
X9.0718Y-4.5285
X9.0718Y-4.6785
X9.1218Y-4.6045
X9.1218Y-4.7535
X9.1718Y-4.5285
X9.1718Y-4.6795
X9.2218Y-4.6045
X9.2218Y-4.7535
T6
X3.2636Y-1.2741
X3.3636Y-1.2741
X3.4636Y-1.2741
X3.6171Y-4.1687
X3.6291Y-4.3327
X3.6296Y-1.2741
X3.7296Y-1.2741
X3.7371Y-4.1687
X3.8296Y-1.2741
X3.8431Y-4.3327
X3.8571Y-4.1687
X4.1406Y-1.25
X4.2406Y-1.25
X4.3406Y-1.25
X4.346Y-2.118
X4.61Y-4.165
X4.61Y-4.265
X4.61Y-4.365
X5.0728Y-1.26
X5.522Y-1.2654
X5.622Y-1.2654
X5.722Y-1.2654
X5.822Y-1.2654
X5.922Y-1.2654
X6.022Y-1.2654
X6.406Y-2.83
X6.406Y-2.978
X6.6868Y-1.4898
X6.7868Y-1.4898
X9.7331Y-3.155
X9.8331Y-3.155
X9.9331Y-3.155
T7
X7.095Y-1.84
X7.195Y-1.84
X7.295Y-1.84
X7.395Y-1.84
M30
