G04 #@! TF.GenerationSoftware,KiCad,Pcbnew,(5.1.10-1-10_14)*
G04 #@! TF.CreationDate,2021-08-09T19:17:03+02:00*
G04 #@! TF.ProjectId,A3660_shanshe_mod2,41333636-305f-4736-9861-6e7368655f6d,rev?*
G04 #@! TF.SameCoordinates,Original*
G04 #@! TF.FileFunction,Legend,Bot*
G04 #@! TF.FilePolarity,Positive*
%FSLAX46Y46*%
G04 Gerber Fmt 4.6, Leading zero omitted, Abs format (unit mm)*
G04 Created by KiCad (PCBNEW (5.1.10-1-10_14)) date 2021-08-09 19:17:03*
%MOMM*%
%LPD*%
G01*
G04 APERTURE LIST*
%ADD10C,0.120000*%
%ADD11C,0.222000*%
%ADD12C,0.200000*%
%ADD13C,0.150000*%
G04 APERTURE END LIST*
D10*
X238760000Y-75819000D02*
X238760000Y-78359000D01*
X241300000Y-75819000D02*
X238760000Y-75819000D01*
D11*
X100338000Y-116697200D02*
X99671300Y-116030600D01*
X99671300Y-116030600D02*
X99671300Y-117808400D01*
D12*
X241325000Y-32600900D02*
X238785000Y-35140900D01*
X241325000Y-78320900D02*
X241325000Y-32600900D01*
X195605000Y-78320900D02*
X241325000Y-78320900D01*
X195605000Y-32600900D02*
X195605000Y-78320900D01*
X241325000Y-32600900D02*
X195605000Y-32600900D01*
D10*
X229135000Y-57968248D02*
X229135000Y-58490752D01*
X230605000Y-57968248D02*
X230605000Y-58490752D01*
X80503000Y-44126500D02*
X80503000Y-45256500D01*
X81263000Y-44126500D02*
X80503000Y-44126500D01*
X80568000Y-46834030D02*
X80568000Y-47656500D01*
X80568000Y-46016500D02*
X80568000Y-46218970D01*
X80699529Y-46016500D02*
X80568000Y-46016500D01*
X81969529Y-46016500D02*
X81826471Y-46016500D01*
X82023000Y-45819971D02*
X82023000Y-45963029D01*
X82023000Y-44126500D02*
X82023000Y-44693029D01*
X80568000Y-47656500D02*
X131488000Y-47656500D01*
X82023000Y-44126500D02*
X131488000Y-44126500D01*
X131488000Y-45564030D02*
X131488000Y-46218970D01*
X131488000Y-46834030D02*
X131488000Y-47656500D01*
X131488000Y-44126500D02*
X131488000Y-44948970D01*
X80503000Y-97063000D02*
X80503000Y-98193000D01*
X81263000Y-97063000D02*
X80503000Y-97063000D01*
X80568000Y-99770530D02*
X80568000Y-100593000D01*
X80568000Y-98953000D02*
X80568000Y-99155470D01*
X80699529Y-98953000D02*
X80568000Y-98953000D01*
X81969529Y-98953000D02*
X81826471Y-98953000D01*
X82023000Y-98756471D02*
X82023000Y-98899529D01*
X82023000Y-97063000D02*
X82023000Y-97629529D01*
X80568000Y-100593000D02*
X131488000Y-100593000D01*
X82023000Y-97063000D02*
X131488000Y-97063000D01*
X131488000Y-98500530D02*
X131488000Y-99155470D01*
X131488000Y-99770530D02*
X131488000Y-100593000D01*
X131488000Y-97063000D02*
X131488000Y-97885470D01*
X209415000Y-108546000D02*
X208415000Y-108546000D01*
X209415000Y-104306000D02*
X208415000Y-104306000D01*
X118264000Y-74323752D02*
X118264000Y-73801248D01*
X119734000Y-74323752D02*
X119734000Y-73801248D01*
X134865000Y-110609000D02*
X134865000Y-111609000D01*
X139105000Y-110609000D02*
X139105000Y-111609000D01*
X129374000Y-110609000D02*
X129374000Y-111609000D01*
X125134000Y-110609000D02*
X125134000Y-111609000D01*
X105369000Y-113949500D02*
X104369000Y-114949500D01*
X104369000Y-114949500D02*
X104369000Y-121864500D01*
X104369000Y-121864500D02*
X235839000Y-121864500D01*
X235839000Y-121864500D02*
X235839000Y-113949500D01*
X235839000Y-113949500D02*
X105369000Y-113949500D01*
X244931000Y-106006000D02*
X243931000Y-106006000D01*
X244931000Y-101766000D02*
X243931000Y-101766000D01*
X203589000Y-108546000D02*
X204589000Y-108546000D01*
X203589000Y-104306000D02*
X204589000Y-104306000D01*
X193890000Y-53078000D02*
X193890000Y-52078000D01*
X189650000Y-53078000D02*
X189650000Y-52078000D01*
X242832000Y-29884000D02*
X243832000Y-29884000D01*
X242832000Y-34124000D02*
X243832000Y-34124000D01*
X187317000Y-71159000D02*
X186317000Y-71159000D01*
X187317000Y-75399000D02*
X186317000Y-75399000D01*
X230605000Y-44802248D02*
X230605000Y-45324752D01*
X229135000Y-44802248D02*
X229135000Y-45324752D01*
X212624936Y-58393000D02*
X213079064Y-58393000D01*
X212624936Y-56923000D02*
X213079064Y-56923000D01*
X212640936Y-56107000D02*
X213095064Y-56107000D01*
X212640936Y-54637000D02*
X213095064Y-54637000D01*
X212640936Y-52351000D02*
X213095064Y-52351000D01*
X212640936Y-53821000D02*
X213095064Y-53821000D01*
X112622064Y-113384000D02*
X112167936Y-113384000D01*
X112622064Y-111914000D02*
X112167936Y-111914000D01*
X138899000Y-84701000D02*
X138899000Y-83701000D01*
X134659000Y-84701000D02*
X134659000Y-83701000D01*
X192132000Y-47582000D02*
X191132000Y-47582000D01*
X192132000Y-43342000D02*
X191132000Y-43342000D01*
X152058000Y-106863000D02*
X152058000Y-107863000D01*
X156298000Y-106863000D02*
X156298000Y-107863000D01*
X150964000Y-106863000D02*
X150964000Y-107863000D01*
X146724000Y-106863000D02*
X146724000Y-107863000D01*
X229135000Y-49156252D02*
X229135000Y-48633748D01*
X230605000Y-49156252D02*
X230605000Y-48633748D01*
X212624936Y-50065000D02*
X213079064Y-50065000D01*
X212624936Y-51535000D02*
X213079064Y-51535000D01*
X128389748Y-56923000D02*
X128912252Y-56923000D01*
X128389748Y-58393000D02*
X128912252Y-58393000D01*
X134358748Y-56923000D02*
X134881252Y-56923000D01*
X134358748Y-58393000D02*
X134881252Y-58393000D01*
X120769748Y-58393000D02*
X121292252Y-58393000D01*
X120769748Y-56923000D02*
X121292252Y-56923000D01*
X118391000Y-64614248D02*
X118391000Y-65136752D01*
X119861000Y-64614248D02*
X119861000Y-65136752D01*
X128116000Y-64508748D02*
X128116000Y-65031252D01*
X126646000Y-64508748D02*
X126646000Y-65031252D01*
X134647000Y-64487248D02*
X134647000Y-65009752D01*
X136117000Y-64487248D02*
X136117000Y-65009752D01*
X127227000Y-74280752D02*
X127227000Y-73758248D01*
X125757000Y-74280752D02*
X125757000Y-73758248D01*
X229115252Y-67664000D02*
X228592748Y-67664000D01*
X229115252Y-66194000D02*
X228592748Y-66194000D01*
X212971748Y-67664000D02*
X213494252Y-67664000D01*
X212971748Y-66194000D02*
X213494252Y-66194000D01*
X218051748Y-67664000D02*
X218574252Y-67664000D01*
X218051748Y-66194000D02*
X218574252Y-66194000D01*
X223131748Y-66194000D02*
X223654252Y-66194000D01*
X223131748Y-67664000D02*
X223654252Y-67664000D01*
X229135000Y-52443748D02*
X229135000Y-52966252D01*
X230605000Y-52443748D02*
X230605000Y-52966252D01*
X207532748Y-66194000D02*
X208055252Y-66194000D01*
X207532748Y-67664000D02*
X208055252Y-67664000D01*
X230605000Y-63048248D02*
X230605000Y-63570752D01*
X229135000Y-63048248D02*
X229135000Y-63570752D01*
X207510748Y-62584000D02*
X208033252Y-62584000D01*
X207510748Y-61114000D02*
X208033252Y-61114000D01*
X217946748Y-44740500D02*
X218469252Y-44740500D01*
X217946748Y-43270500D02*
X218469252Y-43270500D01*
X226575252Y-44740500D02*
X226052748Y-44740500D01*
X226575252Y-43270500D02*
X226052748Y-43270500D01*
X207574248Y-57440500D02*
X208096752Y-57440500D01*
X207574248Y-55970500D02*
X208096752Y-55970500D01*
X140308064Y-30834000D02*
X139853936Y-30834000D01*
X140308064Y-29364000D02*
X139853936Y-29364000D01*
X144298936Y-30834000D02*
X144753064Y-30834000D01*
X144298936Y-29364000D02*
X144753064Y-29364000D01*
X207364000Y-48540936D02*
X207364000Y-48995064D01*
X205894000Y-48540936D02*
X205894000Y-48995064D01*
X209322936Y-46582000D02*
X209777064Y-46582000D01*
X209322936Y-45112000D02*
X209777064Y-45112000D01*
X209396000Y-48540936D02*
X209396000Y-48995064D01*
X207926000Y-48540936D02*
X207926000Y-48995064D01*
X207528936Y-52424000D02*
X207983064Y-52424000D01*
X207528936Y-50954000D02*
X207983064Y-50954000D01*
X134647000Y-74302252D02*
X134647000Y-73779748D01*
X136117000Y-74302252D02*
X136117000Y-73779748D01*
D13*
X227972857Y-58586642D02*
X228020476Y-58634261D01*
X228163333Y-58681880D01*
X228258571Y-58681880D01*
X228401428Y-58634261D01*
X228496666Y-58539023D01*
X228544285Y-58443785D01*
X228591904Y-58253309D01*
X228591904Y-58110452D01*
X228544285Y-57919976D01*
X228496666Y-57824738D01*
X228401428Y-57729500D01*
X228258571Y-57681880D01*
X228163333Y-57681880D01*
X228020476Y-57729500D01*
X227972857Y-57777119D01*
X227020476Y-58681880D02*
X227591904Y-58681880D01*
X227306190Y-58681880D02*
X227306190Y-57681880D01*
X227401428Y-57824738D01*
X227496666Y-57919976D01*
X227591904Y-57967595D01*
X226401428Y-57681880D02*
X226306190Y-57681880D01*
X226210952Y-57729500D01*
X226163333Y-57777119D01*
X226115714Y-57872357D01*
X226068095Y-58062833D01*
X226068095Y-58300928D01*
X226115714Y-58491404D01*
X226163333Y-58586642D01*
X226210952Y-58634261D01*
X226306190Y-58681880D01*
X226401428Y-58681880D01*
X226496666Y-58634261D01*
X226544285Y-58586642D01*
X226591904Y-58491404D01*
X226639523Y-58300928D01*
X226639523Y-58062833D01*
X226591904Y-57872357D01*
X226544285Y-57777119D01*
X226496666Y-57729500D01*
X226401428Y-57681880D01*
X212970976Y-106878380D02*
X213304309Y-106402190D01*
X213542404Y-106878380D02*
X213542404Y-105878380D01*
X213161452Y-105878380D01*
X213066214Y-105926000D01*
X213018595Y-105973619D01*
X212970976Y-106068857D01*
X212970976Y-106211714D01*
X213018595Y-106306952D01*
X213066214Y-106354571D01*
X213161452Y-106402190D01*
X213542404Y-106402190D01*
X212542404Y-106878380D02*
X212542404Y-105878380D01*
X211970976Y-106878380D01*
X211970976Y-105878380D01*
X211447166Y-106878380D02*
X211256690Y-106878380D01*
X211161452Y-106830761D01*
X211113833Y-106783142D01*
X211018595Y-106640285D01*
X210970976Y-106449809D01*
X210970976Y-106068857D01*
X211018595Y-105973619D01*
X211066214Y-105926000D01*
X211161452Y-105878380D01*
X211351928Y-105878380D01*
X211447166Y-105926000D01*
X211494785Y-105973619D01*
X211542404Y-106068857D01*
X211542404Y-106306952D01*
X211494785Y-106402190D01*
X211447166Y-106449809D01*
X211351928Y-106497428D01*
X211161452Y-106497428D01*
X211066214Y-106449809D01*
X211018595Y-106402190D01*
X210970976Y-106306952D01*
X119705357Y-77192142D02*
X119752976Y-77239761D01*
X119895833Y-77287380D01*
X119991071Y-77287380D01*
X120133928Y-77239761D01*
X120229166Y-77144523D01*
X120276785Y-77049285D01*
X120324404Y-76858809D01*
X120324404Y-76715952D01*
X120276785Y-76525476D01*
X120229166Y-76430238D01*
X120133928Y-76335000D01*
X119991071Y-76287380D01*
X119895833Y-76287380D01*
X119752976Y-76335000D01*
X119705357Y-76382619D01*
X119372023Y-76287380D02*
X118752976Y-76287380D01*
X119086309Y-76668333D01*
X118943452Y-76668333D01*
X118848214Y-76715952D01*
X118800595Y-76763571D01*
X118752976Y-76858809D01*
X118752976Y-77096904D01*
X118800595Y-77192142D01*
X118848214Y-77239761D01*
X118943452Y-77287380D01*
X119229166Y-77287380D01*
X119324404Y-77239761D01*
X119372023Y-77192142D01*
X118372023Y-76382619D02*
X118324404Y-76335000D01*
X118229166Y-76287380D01*
X117991071Y-76287380D01*
X117895833Y-76335000D01*
X117848214Y-76382619D01*
X117800595Y-76477857D01*
X117800595Y-76573095D01*
X117848214Y-76715952D01*
X118419642Y-77287380D01*
X117800595Y-77287380D01*
X137548476Y-109148380D02*
X137881809Y-108672190D01*
X138119904Y-109148380D02*
X138119904Y-108148380D01*
X137738952Y-108148380D01*
X137643714Y-108196000D01*
X137596095Y-108243619D01*
X137548476Y-108338857D01*
X137548476Y-108481714D01*
X137596095Y-108576952D01*
X137643714Y-108624571D01*
X137738952Y-108672190D01*
X138119904Y-108672190D01*
X137119904Y-109148380D02*
X137119904Y-108148380D01*
X136548476Y-109148380D01*
X136548476Y-108148380D01*
X135596095Y-108148380D02*
X136072285Y-108148380D01*
X136119904Y-108624571D01*
X136072285Y-108576952D01*
X135977047Y-108529333D01*
X135738952Y-108529333D01*
X135643714Y-108576952D01*
X135596095Y-108624571D01*
X135548476Y-108719809D01*
X135548476Y-108957904D01*
X135596095Y-109053142D01*
X135643714Y-109100761D01*
X135738952Y-109148380D01*
X135977047Y-109148380D01*
X136072285Y-109100761D01*
X136119904Y-109053142D01*
X127817476Y-109148380D02*
X128150809Y-108672190D01*
X128388904Y-109148380D02*
X128388904Y-108148380D01*
X128007952Y-108148380D01*
X127912714Y-108196000D01*
X127865095Y-108243619D01*
X127817476Y-108338857D01*
X127817476Y-108481714D01*
X127865095Y-108576952D01*
X127912714Y-108624571D01*
X128007952Y-108672190D01*
X128388904Y-108672190D01*
X127388904Y-109148380D02*
X127388904Y-108148380D01*
X126817476Y-109148380D01*
X126817476Y-108148380D01*
X125912714Y-108148380D02*
X126103190Y-108148380D01*
X126198428Y-108196000D01*
X126246047Y-108243619D01*
X126341285Y-108386476D01*
X126388904Y-108576952D01*
X126388904Y-108957904D01*
X126341285Y-109053142D01*
X126293666Y-109100761D01*
X126198428Y-109148380D01*
X126007952Y-109148380D01*
X125912714Y-109100761D01*
X125865095Y-109053142D01*
X125817476Y-108957904D01*
X125817476Y-108719809D01*
X125865095Y-108624571D01*
X125912714Y-108576952D01*
X126007952Y-108529333D01*
X126198428Y-108529333D01*
X126293666Y-108576952D01*
X126341285Y-108624571D01*
X126388904Y-108719809D01*
X249324666Y-104338380D02*
X249658000Y-103862190D01*
X249896095Y-104338380D02*
X249896095Y-103338380D01*
X249515142Y-103338380D01*
X249419904Y-103386000D01*
X249372285Y-103433619D01*
X249324666Y-103528857D01*
X249324666Y-103671714D01*
X249372285Y-103766952D01*
X249419904Y-103814571D01*
X249515142Y-103862190D01*
X249896095Y-103862190D01*
X248896095Y-104338380D02*
X248896095Y-103338380D01*
X248324666Y-104338380D01*
X248324666Y-103338380D01*
X247324666Y-104338380D02*
X247896095Y-104338380D01*
X247610380Y-104338380D02*
X247610380Y-103338380D01*
X247705619Y-103481238D01*
X247800857Y-103576476D01*
X247896095Y-103624095D01*
X246943714Y-103433619D02*
X246896095Y-103386000D01*
X246800857Y-103338380D01*
X246562761Y-103338380D01*
X246467523Y-103386000D01*
X246419904Y-103433619D01*
X246372285Y-103528857D01*
X246372285Y-103624095D01*
X246419904Y-103766952D01*
X246991333Y-104338380D01*
X246372285Y-104338380D01*
X201572666Y-106878380D02*
X201906000Y-106402190D01*
X202144095Y-106878380D02*
X202144095Y-105878380D01*
X201763142Y-105878380D01*
X201667904Y-105926000D01*
X201620285Y-105973619D01*
X201572666Y-106068857D01*
X201572666Y-106211714D01*
X201620285Y-106306952D01*
X201667904Y-106354571D01*
X201763142Y-106402190D01*
X202144095Y-106402190D01*
X201144095Y-106878380D02*
X201144095Y-105878380D01*
X200572666Y-106878380D01*
X200572666Y-105878380D01*
X199572666Y-106878380D02*
X200144095Y-106878380D01*
X199858380Y-106878380D02*
X199858380Y-105878380D01*
X199953619Y-106021238D01*
X200048857Y-106116476D01*
X200144095Y-106164095D01*
X198620285Y-106878380D02*
X199191714Y-106878380D01*
X198906000Y-106878380D02*
X198906000Y-105878380D01*
X199001238Y-106021238D01*
X199096476Y-106116476D01*
X199191714Y-106164095D01*
X192460476Y-55570380D02*
X192793809Y-55094190D01*
X193031904Y-55570380D02*
X193031904Y-54570380D01*
X192650952Y-54570380D01*
X192555714Y-54618000D01*
X192508095Y-54665619D01*
X192460476Y-54760857D01*
X192460476Y-54903714D01*
X192508095Y-54998952D01*
X192555714Y-55046571D01*
X192650952Y-55094190D01*
X193031904Y-55094190D01*
X192031904Y-55570380D02*
X192031904Y-54570380D01*
X191460476Y-55570380D01*
X191460476Y-54570380D01*
X190841428Y-54998952D02*
X190936666Y-54951333D01*
X190984285Y-54903714D01*
X191031904Y-54808476D01*
X191031904Y-54760857D01*
X190984285Y-54665619D01*
X190936666Y-54618000D01*
X190841428Y-54570380D01*
X190650952Y-54570380D01*
X190555714Y-54618000D01*
X190508095Y-54665619D01*
X190460476Y-54760857D01*
X190460476Y-54808476D01*
X190508095Y-54903714D01*
X190555714Y-54951333D01*
X190650952Y-54998952D01*
X190841428Y-54998952D01*
X190936666Y-55046571D01*
X190984285Y-55094190D01*
X191031904Y-55189428D01*
X191031904Y-55379904D01*
X190984285Y-55475142D01*
X190936666Y-55522761D01*
X190841428Y-55570380D01*
X190650952Y-55570380D01*
X190555714Y-55522761D01*
X190508095Y-55475142D01*
X190460476Y-55379904D01*
X190460476Y-55189428D01*
X190508095Y-55094190D01*
X190555714Y-55046571D01*
X190650952Y-54998952D01*
X243958976Y-36266380D02*
X244292309Y-35790190D01*
X244530404Y-36266380D02*
X244530404Y-35266380D01*
X244149452Y-35266380D01*
X244054214Y-35314000D01*
X244006595Y-35361619D01*
X243958976Y-35456857D01*
X243958976Y-35599714D01*
X244006595Y-35694952D01*
X244054214Y-35742571D01*
X244149452Y-35790190D01*
X244530404Y-35790190D01*
X243530404Y-36266380D02*
X243530404Y-35266380D01*
X242958976Y-36266380D01*
X242958976Y-35266380D01*
X241958976Y-36266380D02*
X242530404Y-36266380D01*
X242244690Y-36266380D02*
X242244690Y-35266380D01*
X242339928Y-35409238D01*
X242435166Y-35504476D01*
X242530404Y-35552095D01*
X184332476Y-73858380D02*
X184665809Y-73382190D01*
X184903904Y-73858380D02*
X184903904Y-72858380D01*
X184522952Y-72858380D01*
X184427714Y-72906000D01*
X184380095Y-72953619D01*
X184332476Y-73048857D01*
X184332476Y-73191714D01*
X184380095Y-73286952D01*
X184427714Y-73334571D01*
X184522952Y-73382190D01*
X184903904Y-73382190D01*
X183903904Y-73858380D02*
X183903904Y-72858380D01*
X183332476Y-73858380D01*
X183332476Y-72858380D01*
X182951523Y-72858380D02*
X182284857Y-72858380D01*
X182713428Y-73858380D01*
X228036357Y-46140642D02*
X228083976Y-46188261D01*
X228226833Y-46235880D01*
X228322071Y-46235880D01*
X228464928Y-46188261D01*
X228560166Y-46093023D01*
X228607785Y-45997785D01*
X228655404Y-45807309D01*
X228655404Y-45664452D01*
X228607785Y-45473976D01*
X228560166Y-45378738D01*
X228464928Y-45283500D01*
X228322071Y-45235880D01*
X228226833Y-45235880D01*
X228083976Y-45283500D01*
X228036357Y-45331119D01*
X227179214Y-45569214D02*
X227179214Y-46235880D01*
X227417309Y-45188261D02*
X227655404Y-45902547D01*
X227036357Y-45902547D01*
X226512547Y-45664452D02*
X226607785Y-45616833D01*
X226655404Y-45569214D01*
X226703023Y-45473976D01*
X226703023Y-45426357D01*
X226655404Y-45331119D01*
X226607785Y-45283500D01*
X226512547Y-45235880D01*
X226322071Y-45235880D01*
X226226833Y-45283500D01*
X226179214Y-45331119D01*
X226131595Y-45426357D01*
X226131595Y-45473976D01*
X226179214Y-45569214D01*
X226226833Y-45616833D01*
X226322071Y-45664452D01*
X226512547Y-45664452D01*
X226607785Y-45712071D01*
X226655404Y-45759690D01*
X226703023Y-45854928D01*
X226703023Y-46045404D01*
X226655404Y-46140642D01*
X226607785Y-46188261D01*
X226512547Y-46235880D01*
X226322071Y-46235880D01*
X226226833Y-46188261D01*
X226179214Y-46140642D01*
X226131595Y-46045404D01*
X226131595Y-45854928D01*
X226179214Y-45759690D01*
X226226833Y-45712071D01*
X226322071Y-45664452D01*
X216066666Y-58110380D02*
X216400000Y-57634190D01*
X216638095Y-58110380D02*
X216638095Y-57110380D01*
X216257142Y-57110380D01*
X216161904Y-57158000D01*
X216114285Y-57205619D01*
X216066666Y-57300857D01*
X216066666Y-57443714D01*
X216114285Y-57538952D01*
X216161904Y-57586571D01*
X216257142Y-57634190D01*
X216638095Y-57634190D01*
X215733333Y-57110380D02*
X215114285Y-57110380D01*
X215447619Y-57491333D01*
X215304761Y-57491333D01*
X215209523Y-57538952D01*
X215161904Y-57586571D01*
X215114285Y-57681809D01*
X215114285Y-57919904D01*
X215161904Y-58015142D01*
X215209523Y-58062761D01*
X215304761Y-58110380D01*
X215590476Y-58110380D01*
X215685714Y-58062761D01*
X215733333Y-58015142D01*
X216066666Y-55824380D02*
X216400000Y-55348190D01*
X216638095Y-55824380D02*
X216638095Y-54824380D01*
X216257142Y-54824380D01*
X216161904Y-54872000D01*
X216114285Y-54919619D01*
X216066666Y-55014857D01*
X216066666Y-55157714D01*
X216114285Y-55252952D01*
X216161904Y-55300571D01*
X216257142Y-55348190D01*
X216638095Y-55348190D01*
X215209523Y-55157714D02*
X215209523Y-55824380D01*
X215447619Y-54776761D02*
X215685714Y-55491047D01*
X215066666Y-55491047D01*
X216066666Y-53538380D02*
X216400000Y-53062190D01*
X216638095Y-53538380D02*
X216638095Y-52538380D01*
X216257142Y-52538380D01*
X216161904Y-52586000D01*
X216114285Y-52633619D01*
X216066666Y-52728857D01*
X216066666Y-52871714D01*
X216114285Y-52966952D01*
X216161904Y-53014571D01*
X216257142Y-53062190D01*
X216638095Y-53062190D01*
X215161904Y-52538380D02*
X215638095Y-52538380D01*
X215685714Y-53014571D01*
X215638095Y-52966952D01*
X215542857Y-52919333D01*
X215304761Y-52919333D01*
X215209523Y-52966952D01*
X215161904Y-53014571D01*
X215114285Y-53109809D01*
X215114285Y-53347904D01*
X215161904Y-53443142D01*
X215209523Y-53490761D01*
X215304761Y-53538380D01*
X215542857Y-53538380D01*
X215638095Y-53490761D01*
X215685714Y-53443142D01*
X109481857Y-113101380D02*
X109815190Y-112625190D01*
X110053285Y-113101380D02*
X110053285Y-112101380D01*
X109672333Y-112101380D01*
X109577095Y-112149000D01*
X109529476Y-112196619D01*
X109481857Y-112291857D01*
X109481857Y-112434714D01*
X109529476Y-112529952D01*
X109577095Y-112577571D01*
X109672333Y-112625190D01*
X110053285Y-112625190D01*
X109148523Y-112101380D02*
X108529476Y-112101380D01*
X108862809Y-112482333D01*
X108719952Y-112482333D01*
X108624714Y-112529952D01*
X108577095Y-112577571D01*
X108529476Y-112672809D01*
X108529476Y-112910904D01*
X108577095Y-113006142D01*
X108624714Y-113053761D01*
X108719952Y-113101380D01*
X109005666Y-113101380D01*
X109100904Y-113053761D01*
X109148523Y-113006142D01*
X107672333Y-112434714D02*
X107672333Y-113101380D01*
X107910428Y-112053761D02*
X108148523Y-112768047D01*
X107529476Y-112768047D01*
X138072666Y-86939380D02*
X138406000Y-86463190D01*
X138644095Y-86939380D02*
X138644095Y-85939380D01*
X138263142Y-85939380D01*
X138167904Y-85987000D01*
X138120285Y-86034619D01*
X138072666Y-86129857D01*
X138072666Y-86272714D01*
X138120285Y-86367952D01*
X138167904Y-86415571D01*
X138263142Y-86463190D01*
X138644095Y-86463190D01*
X137644095Y-86939380D02*
X137644095Y-85939380D01*
X137072666Y-86939380D01*
X137072666Y-85939380D01*
X136072666Y-86939380D02*
X136644095Y-86939380D01*
X136358380Y-86939380D02*
X136358380Y-85939380D01*
X136453619Y-86082238D01*
X136548857Y-86177476D01*
X136644095Y-86225095D01*
X135453619Y-85939380D02*
X135358380Y-85939380D01*
X135263142Y-85987000D01*
X135215523Y-86034619D01*
X135167904Y-86129857D01*
X135120285Y-86320333D01*
X135120285Y-86558428D01*
X135167904Y-86748904D01*
X135215523Y-86844142D01*
X135263142Y-86891761D01*
X135358380Y-86939380D01*
X135453619Y-86939380D01*
X135548857Y-86891761D01*
X135596476Y-86844142D01*
X135644095Y-86748904D01*
X135691714Y-86558428D01*
X135691714Y-86320333D01*
X135644095Y-86129857D01*
X135596476Y-86034619D01*
X135548857Y-85987000D01*
X135453619Y-85939380D01*
X192798666Y-49093380D02*
X193132000Y-48617190D01*
X193370095Y-49093380D02*
X193370095Y-48093380D01*
X192989142Y-48093380D01*
X192893904Y-48141000D01*
X192846285Y-48188619D01*
X192798666Y-48283857D01*
X192798666Y-48426714D01*
X192846285Y-48521952D01*
X192893904Y-48569571D01*
X192989142Y-48617190D01*
X193370095Y-48617190D01*
X192370095Y-49093380D02*
X192370095Y-48093380D01*
X191798666Y-49093380D01*
X191798666Y-48093380D01*
X190798666Y-49093380D02*
X191370095Y-49093380D01*
X191084380Y-49093380D02*
X191084380Y-48093380D01*
X191179619Y-48236238D01*
X191274857Y-48331476D01*
X191370095Y-48379095D01*
X190465333Y-48093380D02*
X189846285Y-48093380D01*
X190179619Y-48474333D01*
X190036761Y-48474333D01*
X189941523Y-48521952D01*
X189893904Y-48569571D01*
X189846285Y-48664809D01*
X189846285Y-48902904D01*
X189893904Y-48998142D01*
X189941523Y-49045761D01*
X190036761Y-49093380D01*
X190322476Y-49093380D01*
X190417714Y-49045761D01*
X190465333Y-48998142D01*
X154868476Y-105529380D02*
X155201809Y-105053190D01*
X155439904Y-105529380D02*
X155439904Y-104529380D01*
X155058952Y-104529380D01*
X154963714Y-104577000D01*
X154916095Y-104624619D01*
X154868476Y-104719857D01*
X154868476Y-104862714D01*
X154916095Y-104957952D01*
X154963714Y-105005571D01*
X155058952Y-105053190D01*
X155439904Y-105053190D01*
X154439904Y-105529380D02*
X154439904Y-104529380D01*
X153868476Y-105529380D01*
X153868476Y-104529380D01*
X153487523Y-104529380D02*
X152868476Y-104529380D01*
X153201809Y-104910333D01*
X153058952Y-104910333D01*
X152963714Y-104957952D01*
X152916095Y-105005571D01*
X152868476Y-105100809D01*
X152868476Y-105338904D01*
X152916095Y-105434142D01*
X152963714Y-105481761D01*
X153058952Y-105529380D01*
X153344666Y-105529380D01*
X153439904Y-105481761D01*
X153487523Y-105434142D01*
X149534476Y-105529380D02*
X149867809Y-105053190D01*
X150105904Y-105529380D02*
X150105904Y-104529380D01*
X149724952Y-104529380D01*
X149629714Y-104577000D01*
X149582095Y-104624619D01*
X149534476Y-104719857D01*
X149534476Y-104862714D01*
X149582095Y-104957952D01*
X149629714Y-105005571D01*
X149724952Y-105053190D01*
X150105904Y-105053190D01*
X149105904Y-105529380D02*
X149105904Y-104529380D01*
X148534476Y-105529380D01*
X148534476Y-104529380D01*
X147629714Y-104862714D02*
X147629714Y-105529380D01*
X147867809Y-104481761D02*
X148105904Y-105196047D01*
X147486857Y-105196047D01*
X227909357Y-49252142D02*
X227956976Y-49299761D01*
X228099833Y-49347380D01*
X228195071Y-49347380D01*
X228337928Y-49299761D01*
X228433166Y-49204523D01*
X228480785Y-49109285D01*
X228528404Y-48918809D01*
X228528404Y-48775952D01*
X228480785Y-48585476D01*
X228433166Y-48490238D01*
X228337928Y-48395000D01*
X228195071Y-48347380D01*
X228099833Y-48347380D01*
X227956976Y-48395000D01*
X227909357Y-48442619D01*
X227052214Y-48680714D02*
X227052214Y-49347380D01*
X227290309Y-48299761D02*
X227528404Y-49014047D01*
X226909357Y-49014047D01*
X226480785Y-49347380D02*
X226290309Y-49347380D01*
X226195071Y-49299761D01*
X226147452Y-49252142D01*
X226052214Y-49109285D01*
X226004595Y-48918809D01*
X226004595Y-48537857D01*
X226052214Y-48442619D01*
X226099833Y-48395000D01*
X226195071Y-48347380D01*
X226385547Y-48347380D01*
X226480785Y-48395000D01*
X226528404Y-48442619D01*
X226576023Y-48537857D01*
X226576023Y-48775952D01*
X226528404Y-48871190D01*
X226480785Y-48918809D01*
X226385547Y-48966428D01*
X226195071Y-48966428D01*
X226099833Y-48918809D01*
X226052214Y-48871190D01*
X226004595Y-48775952D01*
X216066666Y-51252380D02*
X216400000Y-50776190D01*
X216638095Y-51252380D02*
X216638095Y-50252380D01*
X216257142Y-50252380D01*
X216161904Y-50300000D01*
X216114285Y-50347619D01*
X216066666Y-50442857D01*
X216066666Y-50585714D01*
X216114285Y-50680952D01*
X216161904Y-50728571D01*
X216257142Y-50776190D01*
X216638095Y-50776190D01*
X215685714Y-50347619D02*
X215638095Y-50300000D01*
X215542857Y-50252380D01*
X215304761Y-50252380D01*
X215209523Y-50300000D01*
X215161904Y-50347619D01*
X215114285Y-50442857D01*
X215114285Y-50538095D01*
X215161904Y-50680952D01*
X215733333Y-51252380D01*
X215114285Y-51252380D01*
X129293857Y-59695142D02*
X129341476Y-59742761D01*
X129484333Y-59790380D01*
X129579571Y-59790380D01*
X129722428Y-59742761D01*
X129817666Y-59647523D01*
X129865285Y-59552285D01*
X129912904Y-59361809D01*
X129912904Y-59218952D01*
X129865285Y-59028476D01*
X129817666Y-58933238D01*
X129722428Y-58838000D01*
X129579571Y-58790380D01*
X129484333Y-58790380D01*
X129341476Y-58838000D01*
X129293857Y-58885619D01*
X128912904Y-58885619D02*
X128865285Y-58838000D01*
X128770047Y-58790380D01*
X128531952Y-58790380D01*
X128436714Y-58838000D01*
X128389095Y-58885619D01*
X128341476Y-58980857D01*
X128341476Y-59076095D01*
X128389095Y-59218952D01*
X128960523Y-59790380D01*
X128341476Y-59790380D01*
X127484333Y-58790380D02*
X127674809Y-58790380D01*
X127770047Y-58838000D01*
X127817666Y-58885619D01*
X127912904Y-59028476D01*
X127960523Y-59218952D01*
X127960523Y-59599904D01*
X127912904Y-59695142D01*
X127865285Y-59742761D01*
X127770047Y-59790380D01*
X127579571Y-59790380D01*
X127484333Y-59742761D01*
X127436714Y-59695142D01*
X127389095Y-59599904D01*
X127389095Y-59361809D01*
X127436714Y-59266571D01*
X127484333Y-59218952D01*
X127579571Y-59171333D01*
X127770047Y-59171333D01*
X127865285Y-59218952D01*
X127912904Y-59266571D01*
X127960523Y-59361809D01*
X135262857Y-59695142D02*
X135310476Y-59742761D01*
X135453333Y-59790380D01*
X135548571Y-59790380D01*
X135691428Y-59742761D01*
X135786666Y-59647523D01*
X135834285Y-59552285D01*
X135881904Y-59361809D01*
X135881904Y-59218952D01*
X135834285Y-59028476D01*
X135786666Y-58933238D01*
X135691428Y-58838000D01*
X135548571Y-58790380D01*
X135453333Y-58790380D01*
X135310476Y-58838000D01*
X135262857Y-58885619D01*
X134881904Y-58885619D02*
X134834285Y-58838000D01*
X134739047Y-58790380D01*
X134500952Y-58790380D01*
X134405714Y-58838000D01*
X134358095Y-58885619D01*
X134310476Y-58980857D01*
X134310476Y-59076095D01*
X134358095Y-59218952D01*
X134929523Y-59790380D01*
X134310476Y-59790380D01*
X133977142Y-58790380D02*
X133310476Y-58790380D01*
X133739047Y-59790380D01*
X121673857Y-59695142D02*
X121721476Y-59742761D01*
X121864333Y-59790380D01*
X121959571Y-59790380D01*
X122102428Y-59742761D01*
X122197666Y-59647523D01*
X122245285Y-59552285D01*
X122292904Y-59361809D01*
X122292904Y-59218952D01*
X122245285Y-59028476D01*
X122197666Y-58933238D01*
X122102428Y-58838000D01*
X121959571Y-58790380D01*
X121864333Y-58790380D01*
X121721476Y-58838000D01*
X121673857Y-58885619D01*
X121292904Y-58885619D02*
X121245285Y-58838000D01*
X121150047Y-58790380D01*
X120911952Y-58790380D01*
X120816714Y-58838000D01*
X120769095Y-58885619D01*
X120721476Y-58980857D01*
X120721476Y-59076095D01*
X120769095Y-59218952D01*
X121340523Y-59790380D01*
X120721476Y-59790380D01*
X120150047Y-59218952D02*
X120245285Y-59171333D01*
X120292904Y-59123714D01*
X120340523Y-59028476D01*
X120340523Y-58980857D01*
X120292904Y-58885619D01*
X120245285Y-58838000D01*
X120150047Y-58790380D01*
X119959571Y-58790380D01*
X119864333Y-58838000D01*
X119816714Y-58885619D01*
X119769095Y-58980857D01*
X119769095Y-59028476D01*
X119816714Y-59123714D01*
X119864333Y-59171333D01*
X119959571Y-59218952D01*
X120150047Y-59218952D01*
X120245285Y-59266571D01*
X120292904Y-59314190D01*
X120340523Y-59409428D01*
X120340523Y-59599904D01*
X120292904Y-59695142D01*
X120245285Y-59742761D01*
X120150047Y-59790380D01*
X119959571Y-59790380D01*
X119864333Y-59742761D01*
X119816714Y-59695142D01*
X119769095Y-59599904D01*
X119769095Y-59409428D01*
X119816714Y-59314190D01*
X119864333Y-59266571D01*
X119959571Y-59218952D01*
X119768857Y-68048142D02*
X119816476Y-68095761D01*
X119959333Y-68143380D01*
X120054571Y-68143380D01*
X120197428Y-68095761D01*
X120292666Y-68000523D01*
X120340285Y-67905285D01*
X120387904Y-67714809D01*
X120387904Y-67571952D01*
X120340285Y-67381476D01*
X120292666Y-67286238D01*
X120197428Y-67191000D01*
X120054571Y-67143380D01*
X119959333Y-67143380D01*
X119816476Y-67191000D01*
X119768857Y-67238619D01*
X119387904Y-67238619D02*
X119340285Y-67191000D01*
X119245047Y-67143380D01*
X119006952Y-67143380D01*
X118911714Y-67191000D01*
X118864095Y-67238619D01*
X118816476Y-67333857D01*
X118816476Y-67429095D01*
X118864095Y-67571952D01*
X119435523Y-68143380D01*
X118816476Y-68143380D01*
X118340285Y-68143380D02*
X118149809Y-68143380D01*
X118054571Y-68095761D01*
X118006952Y-68048142D01*
X117911714Y-67905285D01*
X117864095Y-67714809D01*
X117864095Y-67333857D01*
X117911714Y-67238619D01*
X117959333Y-67191000D01*
X118054571Y-67143380D01*
X118245047Y-67143380D01*
X118340285Y-67191000D01*
X118387904Y-67238619D01*
X118435523Y-67333857D01*
X118435523Y-67571952D01*
X118387904Y-67667190D01*
X118340285Y-67714809D01*
X118245047Y-67762428D01*
X118054571Y-67762428D01*
X117959333Y-67714809D01*
X117911714Y-67667190D01*
X117864095Y-67571952D01*
X128087357Y-68048142D02*
X128134976Y-68095761D01*
X128277833Y-68143380D01*
X128373071Y-68143380D01*
X128515928Y-68095761D01*
X128611166Y-68000523D01*
X128658785Y-67905285D01*
X128706404Y-67714809D01*
X128706404Y-67571952D01*
X128658785Y-67381476D01*
X128611166Y-67286238D01*
X128515928Y-67191000D01*
X128373071Y-67143380D01*
X128277833Y-67143380D01*
X128134976Y-67191000D01*
X128087357Y-67238619D01*
X127754023Y-67143380D02*
X127134976Y-67143380D01*
X127468309Y-67524333D01*
X127325452Y-67524333D01*
X127230214Y-67571952D01*
X127182595Y-67619571D01*
X127134976Y-67714809D01*
X127134976Y-67952904D01*
X127182595Y-68048142D01*
X127230214Y-68095761D01*
X127325452Y-68143380D01*
X127611166Y-68143380D01*
X127706404Y-68095761D01*
X127754023Y-68048142D01*
X126515928Y-67143380D02*
X126420690Y-67143380D01*
X126325452Y-67191000D01*
X126277833Y-67238619D01*
X126230214Y-67333857D01*
X126182595Y-67524333D01*
X126182595Y-67762428D01*
X126230214Y-67952904D01*
X126277833Y-68048142D01*
X126325452Y-68095761D01*
X126420690Y-68143380D01*
X126515928Y-68143380D01*
X126611166Y-68095761D01*
X126658785Y-68048142D01*
X126706404Y-67952904D01*
X126754023Y-67762428D01*
X126754023Y-67524333D01*
X126706404Y-67333857D01*
X126658785Y-67238619D01*
X126611166Y-67191000D01*
X126515928Y-67143380D01*
X136024857Y-67984642D02*
X136072476Y-68032261D01*
X136215333Y-68079880D01*
X136310571Y-68079880D01*
X136453428Y-68032261D01*
X136548666Y-67937023D01*
X136596285Y-67841785D01*
X136643904Y-67651309D01*
X136643904Y-67508452D01*
X136596285Y-67317976D01*
X136548666Y-67222738D01*
X136453428Y-67127500D01*
X136310571Y-67079880D01*
X136215333Y-67079880D01*
X136072476Y-67127500D01*
X136024857Y-67175119D01*
X135691523Y-67079880D02*
X135072476Y-67079880D01*
X135405809Y-67460833D01*
X135262952Y-67460833D01*
X135167714Y-67508452D01*
X135120095Y-67556071D01*
X135072476Y-67651309D01*
X135072476Y-67889404D01*
X135120095Y-67984642D01*
X135167714Y-68032261D01*
X135262952Y-68079880D01*
X135548666Y-68079880D01*
X135643904Y-68032261D01*
X135691523Y-67984642D01*
X134120095Y-68079880D02*
X134691523Y-68079880D01*
X134405809Y-68079880D02*
X134405809Y-67079880D01*
X134501047Y-67222738D01*
X134596285Y-67317976D01*
X134691523Y-67365595D01*
X127134857Y-77192142D02*
X127182476Y-77239761D01*
X127325333Y-77287380D01*
X127420571Y-77287380D01*
X127563428Y-77239761D01*
X127658666Y-77144523D01*
X127706285Y-77049285D01*
X127753904Y-76858809D01*
X127753904Y-76715952D01*
X127706285Y-76525476D01*
X127658666Y-76430238D01*
X127563428Y-76335000D01*
X127420571Y-76287380D01*
X127325333Y-76287380D01*
X127182476Y-76335000D01*
X127134857Y-76382619D01*
X126801523Y-76287380D02*
X126182476Y-76287380D01*
X126515809Y-76668333D01*
X126372952Y-76668333D01*
X126277714Y-76715952D01*
X126230095Y-76763571D01*
X126182476Y-76858809D01*
X126182476Y-77096904D01*
X126230095Y-77192142D01*
X126277714Y-77239761D01*
X126372952Y-77287380D01*
X126658666Y-77287380D01*
X126753904Y-77239761D01*
X126801523Y-77192142D01*
X125849142Y-76287380D02*
X125230095Y-76287380D01*
X125563428Y-76668333D01*
X125420571Y-76668333D01*
X125325333Y-76715952D01*
X125277714Y-76763571D01*
X125230095Y-76858809D01*
X125230095Y-77096904D01*
X125277714Y-77192142D01*
X125325333Y-77239761D01*
X125420571Y-77287380D01*
X125706285Y-77287380D01*
X125801523Y-77239761D01*
X125849142Y-77192142D01*
X228036357Y-65571642D02*
X228083976Y-65619261D01*
X228226833Y-65666880D01*
X228322071Y-65666880D01*
X228464928Y-65619261D01*
X228560166Y-65524023D01*
X228607785Y-65428785D01*
X228655404Y-65238309D01*
X228655404Y-65095452D01*
X228607785Y-64904976D01*
X228560166Y-64809738D01*
X228464928Y-64714500D01*
X228322071Y-64666880D01*
X228226833Y-64666880D01*
X228083976Y-64714500D01*
X228036357Y-64762119D01*
X227083976Y-65666880D02*
X227655404Y-65666880D01*
X227369690Y-65666880D02*
X227369690Y-64666880D01*
X227464928Y-64809738D01*
X227560166Y-64904976D01*
X227655404Y-64952595D01*
X226750642Y-64666880D02*
X226131595Y-64666880D01*
X226464928Y-65047833D01*
X226322071Y-65047833D01*
X226226833Y-65095452D01*
X226179214Y-65143071D01*
X226131595Y-65238309D01*
X226131595Y-65476404D01*
X226179214Y-65571642D01*
X226226833Y-65619261D01*
X226322071Y-65666880D01*
X226607785Y-65666880D01*
X226703023Y-65619261D01*
X226750642Y-65571642D01*
X213939357Y-65571642D02*
X213986976Y-65619261D01*
X214129833Y-65666880D01*
X214225071Y-65666880D01*
X214367928Y-65619261D01*
X214463166Y-65524023D01*
X214510785Y-65428785D01*
X214558404Y-65238309D01*
X214558404Y-65095452D01*
X214510785Y-64904976D01*
X214463166Y-64809738D01*
X214367928Y-64714500D01*
X214225071Y-64666880D01*
X214129833Y-64666880D01*
X213986976Y-64714500D01*
X213939357Y-64762119D01*
X212986976Y-65666880D02*
X213558404Y-65666880D01*
X213272690Y-65666880D02*
X213272690Y-64666880D01*
X213367928Y-64809738D01*
X213463166Y-64904976D01*
X213558404Y-64952595D01*
X212129833Y-65000214D02*
X212129833Y-65666880D01*
X212367928Y-64619261D02*
X212606023Y-65333547D01*
X211986976Y-65333547D01*
X218955857Y-65508142D02*
X219003476Y-65555761D01*
X219146333Y-65603380D01*
X219241571Y-65603380D01*
X219384428Y-65555761D01*
X219479666Y-65460523D01*
X219527285Y-65365285D01*
X219574904Y-65174809D01*
X219574904Y-65031952D01*
X219527285Y-64841476D01*
X219479666Y-64746238D01*
X219384428Y-64651000D01*
X219241571Y-64603380D01*
X219146333Y-64603380D01*
X219003476Y-64651000D01*
X218955857Y-64698619D01*
X218003476Y-65603380D02*
X218574904Y-65603380D01*
X218289190Y-65603380D02*
X218289190Y-64603380D01*
X218384428Y-64746238D01*
X218479666Y-64841476D01*
X218574904Y-64889095D01*
X217432047Y-65031952D02*
X217527285Y-64984333D01*
X217574904Y-64936714D01*
X217622523Y-64841476D01*
X217622523Y-64793857D01*
X217574904Y-64698619D01*
X217527285Y-64651000D01*
X217432047Y-64603380D01*
X217241571Y-64603380D01*
X217146333Y-64651000D01*
X217098714Y-64698619D01*
X217051095Y-64793857D01*
X217051095Y-64841476D01*
X217098714Y-64936714D01*
X217146333Y-64984333D01*
X217241571Y-65031952D01*
X217432047Y-65031952D01*
X217527285Y-65079571D01*
X217574904Y-65127190D01*
X217622523Y-65222428D01*
X217622523Y-65412904D01*
X217574904Y-65508142D01*
X217527285Y-65555761D01*
X217432047Y-65603380D01*
X217241571Y-65603380D01*
X217146333Y-65555761D01*
X217098714Y-65508142D01*
X217051095Y-65412904D01*
X217051095Y-65222428D01*
X217098714Y-65127190D01*
X217146333Y-65079571D01*
X217241571Y-65031952D01*
X224099357Y-65508142D02*
X224146976Y-65555761D01*
X224289833Y-65603380D01*
X224385071Y-65603380D01*
X224527928Y-65555761D01*
X224623166Y-65460523D01*
X224670785Y-65365285D01*
X224718404Y-65174809D01*
X224718404Y-65031952D01*
X224670785Y-64841476D01*
X224623166Y-64746238D01*
X224527928Y-64651000D01*
X224385071Y-64603380D01*
X224289833Y-64603380D01*
X224146976Y-64651000D01*
X224099357Y-64698619D01*
X223146976Y-65603380D02*
X223718404Y-65603380D01*
X223432690Y-65603380D02*
X223432690Y-64603380D01*
X223527928Y-64746238D01*
X223623166Y-64841476D01*
X223718404Y-64889095D01*
X222242214Y-64603380D02*
X222718404Y-64603380D01*
X222766023Y-65079571D01*
X222718404Y-65031952D01*
X222623166Y-64984333D01*
X222385071Y-64984333D01*
X222289833Y-65031952D01*
X222242214Y-65079571D01*
X222194595Y-65174809D01*
X222194595Y-65412904D01*
X222242214Y-65508142D01*
X222289833Y-65555761D01*
X222385071Y-65603380D01*
X222623166Y-65603380D01*
X222718404Y-65555761D01*
X222766023Y-65508142D01*
X227718857Y-53189142D02*
X227766476Y-53236761D01*
X227909333Y-53284380D01*
X228004571Y-53284380D01*
X228147428Y-53236761D01*
X228242666Y-53141523D01*
X228290285Y-53046285D01*
X228337904Y-52855809D01*
X228337904Y-52712952D01*
X228290285Y-52522476D01*
X228242666Y-52427238D01*
X228147428Y-52332000D01*
X228004571Y-52284380D01*
X227909333Y-52284380D01*
X227766476Y-52332000D01*
X227718857Y-52379619D01*
X226766476Y-53284380D02*
X227337904Y-53284380D01*
X227052190Y-53284380D02*
X227052190Y-52284380D01*
X227147428Y-52427238D01*
X227242666Y-52522476D01*
X227337904Y-52570095D01*
X225909333Y-52284380D02*
X226099809Y-52284380D01*
X226195047Y-52332000D01*
X226242666Y-52379619D01*
X226337904Y-52522476D01*
X226385523Y-52712952D01*
X226385523Y-53093904D01*
X226337904Y-53189142D01*
X226290285Y-53236761D01*
X226195047Y-53284380D01*
X226004571Y-53284380D01*
X225909333Y-53236761D01*
X225861714Y-53189142D01*
X225814095Y-53093904D01*
X225814095Y-52855809D01*
X225861714Y-52760571D01*
X225909333Y-52712952D01*
X226004571Y-52665333D01*
X226195047Y-52665333D01*
X226290285Y-52712952D01*
X226337904Y-52760571D01*
X226385523Y-52855809D01*
X208605357Y-65317642D02*
X208652976Y-65365261D01*
X208795833Y-65412880D01*
X208891071Y-65412880D01*
X209033928Y-65365261D01*
X209129166Y-65270023D01*
X209176785Y-65174785D01*
X209224404Y-64984309D01*
X209224404Y-64841452D01*
X209176785Y-64650976D01*
X209129166Y-64555738D01*
X209033928Y-64460500D01*
X208891071Y-64412880D01*
X208795833Y-64412880D01*
X208652976Y-64460500D01*
X208605357Y-64508119D01*
X207652976Y-65412880D02*
X208224404Y-65412880D01*
X207938690Y-65412880D02*
X207938690Y-64412880D01*
X208033928Y-64555738D01*
X208129166Y-64650976D01*
X208224404Y-64698595D01*
X207319642Y-64412880D02*
X206652976Y-64412880D01*
X207081547Y-65412880D01*
X227972857Y-63730142D02*
X228020476Y-63777761D01*
X228163333Y-63825380D01*
X228258571Y-63825380D01*
X228401428Y-63777761D01*
X228496666Y-63682523D01*
X228544285Y-63587285D01*
X228591904Y-63396809D01*
X228591904Y-63253952D01*
X228544285Y-63063476D01*
X228496666Y-62968238D01*
X228401428Y-62873000D01*
X228258571Y-62825380D01*
X228163333Y-62825380D01*
X228020476Y-62873000D01*
X227972857Y-62920619D01*
X227020476Y-63825380D02*
X227591904Y-63825380D01*
X227306190Y-63825380D02*
X227306190Y-62825380D01*
X227401428Y-62968238D01*
X227496666Y-63063476D01*
X227591904Y-63111095D01*
X226639523Y-62920619D02*
X226591904Y-62873000D01*
X226496666Y-62825380D01*
X226258571Y-62825380D01*
X226163333Y-62873000D01*
X226115714Y-62920619D01*
X226068095Y-63015857D01*
X226068095Y-63111095D01*
X226115714Y-63253952D01*
X226687142Y-63825380D01*
X226068095Y-63825380D01*
X208478357Y-60555142D02*
X208525976Y-60602761D01*
X208668833Y-60650380D01*
X208764071Y-60650380D01*
X208906928Y-60602761D01*
X209002166Y-60507523D01*
X209049785Y-60412285D01*
X209097404Y-60221809D01*
X209097404Y-60078952D01*
X209049785Y-59888476D01*
X209002166Y-59793238D01*
X208906928Y-59698000D01*
X208764071Y-59650380D01*
X208668833Y-59650380D01*
X208525976Y-59698000D01*
X208478357Y-59745619D01*
X207525976Y-60650380D02*
X208097404Y-60650380D01*
X207811690Y-60650380D02*
X207811690Y-59650380D01*
X207906928Y-59793238D01*
X208002166Y-59888476D01*
X208097404Y-59936095D01*
X206573595Y-60650380D02*
X207145023Y-60650380D01*
X206859309Y-60650380D02*
X206859309Y-59650380D01*
X206954547Y-59793238D01*
X207049785Y-59888476D01*
X207145023Y-59936095D01*
X218892357Y-46077142D02*
X218939976Y-46124761D01*
X219082833Y-46172380D01*
X219178071Y-46172380D01*
X219320928Y-46124761D01*
X219416166Y-46029523D01*
X219463785Y-45934285D01*
X219511404Y-45743809D01*
X219511404Y-45600952D01*
X219463785Y-45410476D01*
X219416166Y-45315238D01*
X219320928Y-45220000D01*
X219178071Y-45172380D01*
X219082833Y-45172380D01*
X218939976Y-45220000D01*
X218892357Y-45267619D01*
X218035214Y-45505714D02*
X218035214Y-46172380D01*
X218273309Y-45124761D02*
X218511404Y-45839047D01*
X217892357Y-45839047D01*
X217082833Y-45172380D02*
X217273309Y-45172380D01*
X217368547Y-45220000D01*
X217416166Y-45267619D01*
X217511404Y-45410476D01*
X217559023Y-45600952D01*
X217559023Y-45981904D01*
X217511404Y-46077142D01*
X217463785Y-46124761D01*
X217368547Y-46172380D01*
X217178071Y-46172380D01*
X217082833Y-46124761D01*
X217035214Y-46077142D01*
X216987595Y-45981904D01*
X216987595Y-45743809D01*
X217035214Y-45648571D01*
X217082833Y-45600952D01*
X217178071Y-45553333D01*
X217368547Y-45553333D01*
X217463785Y-45600952D01*
X217511404Y-45648571D01*
X217559023Y-45743809D01*
X223400857Y-44362642D02*
X223448476Y-44410261D01*
X223591333Y-44457880D01*
X223686571Y-44457880D01*
X223829428Y-44410261D01*
X223924666Y-44315023D01*
X223972285Y-44219785D01*
X224019904Y-44029309D01*
X224019904Y-43886452D01*
X223972285Y-43695976D01*
X223924666Y-43600738D01*
X223829428Y-43505500D01*
X223686571Y-43457880D01*
X223591333Y-43457880D01*
X223448476Y-43505500D01*
X223400857Y-43553119D01*
X222543714Y-43791214D02*
X222543714Y-44457880D01*
X222781809Y-43410261D02*
X223019904Y-44124547D01*
X222400857Y-44124547D01*
X222115142Y-43457880D02*
X221448476Y-43457880D01*
X221877047Y-44457880D01*
X208414857Y-55411642D02*
X208462476Y-55459261D01*
X208605333Y-55506880D01*
X208700571Y-55506880D01*
X208843428Y-55459261D01*
X208938666Y-55364023D01*
X208986285Y-55268785D01*
X209033904Y-55078309D01*
X209033904Y-54935452D01*
X208986285Y-54744976D01*
X208938666Y-54649738D01*
X208843428Y-54554500D01*
X208700571Y-54506880D01*
X208605333Y-54506880D01*
X208462476Y-54554500D01*
X208414857Y-54602119D01*
X207510095Y-54506880D02*
X207986285Y-54506880D01*
X208033904Y-54983071D01*
X207986285Y-54935452D01*
X207891047Y-54887833D01*
X207652952Y-54887833D01*
X207557714Y-54935452D01*
X207510095Y-54983071D01*
X207462476Y-55078309D01*
X207462476Y-55316404D01*
X207510095Y-55411642D01*
X207557714Y-55459261D01*
X207652952Y-55506880D01*
X207891047Y-55506880D01*
X207986285Y-55459261D01*
X208033904Y-55411642D01*
X206843428Y-54506880D02*
X206748190Y-54506880D01*
X206652952Y-54554500D01*
X206605333Y-54602119D01*
X206557714Y-54697357D01*
X206510095Y-54887833D01*
X206510095Y-55125928D01*
X206557714Y-55316404D01*
X206605333Y-55411642D01*
X206652952Y-55459261D01*
X206748190Y-55506880D01*
X206843428Y-55506880D01*
X206938666Y-55459261D01*
X206986285Y-55411642D01*
X207033904Y-55316404D01*
X207081523Y-55125928D01*
X207081523Y-54887833D01*
X207033904Y-54697357D01*
X206986285Y-54602119D01*
X206938666Y-54554500D01*
X206843428Y-54506880D01*
X137040857Y-30551380D02*
X137374190Y-30075190D01*
X137612285Y-30551380D02*
X137612285Y-29551380D01*
X137231333Y-29551380D01*
X137136095Y-29599000D01*
X137088476Y-29646619D01*
X137040857Y-29741857D01*
X137040857Y-29884714D01*
X137088476Y-29979952D01*
X137136095Y-30027571D01*
X137231333Y-30075190D01*
X137612285Y-30075190D01*
X136659904Y-29646619D02*
X136612285Y-29599000D01*
X136517047Y-29551380D01*
X136278952Y-29551380D01*
X136183714Y-29599000D01*
X136136095Y-29646619D01*
X136088476Y-29741857D01*
X136088476Y-29837095D01*
X136136095Y-29979952D01*
X136707523Y-30551380D01*
X136088476Y-30551380D01*
X135755142Y-29551380D02*
X135088476Y-29551380D01*
X135517047Y-30551380D01*
X148597857Y-30551380D02*
X148931190Y-30075190D01*
X149169285Y-30551380D02*
X149169285Y-29551380D01*
X148788333Y-29551380D01*
X148693095Y-29599000D01*
X148645476Y-29646619D01*
X148597857Y-29741857D01*
X148597857Y-29884714D01*
X148645476Y-29979952D01*
X148693095Y-30027571D01*
X148788333Y-30075190D01*
X149169285Y-30075190D01*
X148216904Y-29646619D02*
X148169285Y-29599000D01*
X148074047Y-29551380D01*
X147835952Y-29551380D01*
X147740714Y-29599000D01*
X147693095Y-29646619D01*
X147645476Y-29741857D01*
X147645476Y-29837095D01*
X147693095Y-29979952D01*
X148264523Y-30551380D01*
X147645476Y-30551380D01*
X147074047Y-29979952D02*
X147169285Y-29932333D01*
X147216904Y-29884714D01*
X147264523Y-29789476D01*
X147264523Y-29741857D01*
X147216904Y-29646619D01*
X147169285Y-29599000D01*
X147074047Y-29551380D01*
X146883571Y-29551380D01*
X146788333Y-29599000D01*
X146740714Y-29646619D01*
X146693095Y-29741857D01*
X146693095Y-29789476D01*
X146740714Y-29884714D01*
X146788333Y-29932333D01*
X146883571Y-29979952D01*
X147074047Y-29979952D01*
X147169285Y-30027571D01*
X147216904Y-30075190D01*
X147264523Y-30170428D01*
X147264523Y-30360904D01*
X147216904Y-30456142D01*
X147169285Y-30503761D01*
X147074047Y-30551380D01*
X146883571Y-30551380D01*
X146788333Y-30503761D01*
X146740714Y-30456142D01*
X146693095Y-30360904D01*
X146693095Y-30170428D01*
X146740714Y-30075190D01*
X146788333Y-30027571D01*
X146883571Y-29979952D01*
X207081380Y-44696142D02*
X206605190Y-44362809D01*
X207081380Y-44124714D02*
X206081380Y-44124714D01*
X206081380Y-44505666D01*
X206129000Y-44600904D01*
X206176619Y-44648523D01*
X206271857Y-44696142D01*
X206414714Y-44696142D01*
X206509952Y-44648523D01*
X206557571Y-44600904D01*
X206605190Y-44505666D01*
X206605190Y-44124714D01*
X207081380Y-45648523D02*
X207081380Y-45077095D01*
X207081380Y-45362809D02*
X206081380Y-45362809D01*
X206224238Y-45267571D01*
X206319476Y-45172333D01*
X206367095Y-45077095D01*
X206081380Y-46553285D02*
X206081380Y-46077095D01*
X206557571Y-46029476D01*
X206509952Y-46077095D01*
X206462333Y-46172333D01*
X206462333Y-46410428D01*
X206509952Y-46505666D01*
X206557571Y-46553285D01*
X206652809Y-46600904D01*
X206890904Y-46600904D01*
X206986142Y-46553285D01*
X207033761Y-46505666D01*
X207081380Y-46410428D01*
X207081380Y-46172333D01*
X207033761Y-46077095D01*
X206986142Y-46029476D01*
X213621857Y-46299380D02*
X213955190Y-45823190D01*
X214193285Y-46299380D02*
X214193285Y-45299380D01*
X213812333Y-45299380D01*
X213717095Y-45347000D01*
X213669476Y-45394619D01*
X213621857Y-45489857D01*
X213621857Y-45632714D01*
X213669476Y-45727952D01*
X213717095Y-45775571D01*
X213812333Y-45823190D01*
X214193285Y-45823190D01*
X212669476Y-46299380D02*
X213240904Y-46299380D01*
X212955190Y-46299380D02*
X212955190Y-45299380D01*
X213050428Y-45442238D01*
X213145666Y-45537476D01*
X213240904Y-45585095D01*
X211812333Y-45299380D02*
X212002809Y-45299380D01*
X212098047Y-45347000D01*
X212145666Y-45394619D01*
X212240904Y-45537476D01*
X212288523Y-45727952D01*
X212288523Y-46108904D01*
X212240904Y-46204142D01*
X212193285Y-46251761D01*
X212098047Y-46299380D01*
X211907571Y-46299380D01*
X211812333Y-46251761D01*
X211764714Y-46204142D01*
X211717095Y-46108904D01*
X211717095Y-45870809D01*
X211764714Y-45775571D01*
X211812333Y-45727952D01*
X211907571Y-45680333D01*
X212098047Y-45680333D01*
X212193285Y-45727952D01*
X212240904Y-45775571D01*
X212288523Y-45870809D01*
X211843857Y-49220380D02*
X212177190Y-48744190D01*
X212415285Y-49220380D02*
X212415285Y-48220380D01*
X212034333Y-48220380D01*
X211939095Y-48268000D01*
X211891476Y-48315619D01*
X211843857Y-48410857D01*
X211843857Y-48553714D01*
X211891476Y-48648952D01*
X211939095Y-48696571D01*
X212034333Y-48744190D01*
X212415285Y-48744190D01*
X210891476Y-49220380D02*
X211462904Y-49220380D01*
X211177190Y-49220380D02*
X211177190Y-48220380D01*
X211272428Y-48363238D01*
X211367666Y-48458476D01*
X211462904Y-48506095D01*
X210320047Y-48648952D02*
X210415285Y-48601333D01*
X210462904Y-48553714D01*
X210510523Y-48458476D01*
X210510523Y-48410857D01*
X210462904Y-48315619D01*
X210415285Y-48268000D01*
X210320047Y-48220380D01*
X210129571Y-48220380D01*
X210034333Y-48268000D01*
X209986714Y-48315619D01*
X209939095Y-48410857D01*
X209939095Y-48458476D01*
X209986714Y-48553714D01*
X210034333Y-48601333D01*
X210129571Y-48648952D01*
X210320047Y-48648952D01*
X210415285Y-48696571D01*
X210462904Y-48744190D01*
X210510523Y-48839428D01*
X210510523Y-49029904D01*
X210462904Y-49125142D01*
X210415285Y-49172761D01*
X210320047Y-49220380D01*
X210129571Y-49220380D01*
X210034333Y-49172761D01*
X209986714Y-49125142D01*
X209939095Y-49029904D01*
X209939095Y-48839428D01*
X209986714Y-48744190D01*
X210034333Y-48696571D01*
X210129571Y-48648952D01*
X208414857Y-53792380D02*
X208748190Y-53316190D01*
X208986285Y-53792380D02*
X208986285Y-52792380D01*
X208605333Y-52792380D01*
X208510095Y-52840000D01*
X208462476Y-52887619D01*
X208414857Y-52982857D01*
X208414857Y-53125714D01*
X208462476Y-53220952D01*
X208510095Y-53268571D01*
X208605333Y-53316190D01*
X208986285Y-53316190D01*
X208033904Y-52887619D02*
X207986285Y-52840000D01*
X207891047Y-52792380D01*
X207652952Y-52792380D01*
X207557714Y-52840000D01*
X207510095Y-52887619D01*
X207462476Y-52982857D01*
X207462476Y-53078095D01*
X207510095Y-53220952D01*
X208081523Y-53792380D01*
X207462476Y-53792380D01*
X206510095Y-53792380D02*
X207081523Y-53792380D01*
X206795809Y-53792380D02*
X206795809Y-52792380D01*
X206891047Y-52935238D01*
X206986285Y-53030476D01*
X207081523Y-53078095D01*
X136024857Y-77065142D02*
X136072476Y-77112761D01*
X136215333Y-77160380D01*
X136310571Y-77160380D01*
X136453428Y-77112761D01*
X136548666Y-77017523D01*
X136596285Y-76922285D01*
X136643904Y-76731809D01*
X136643904Y-76588952D01*
X136596285Y-76398476D01*
X136548666Y-76303238D01*
X136453428Y-76208000D01*
X136310571Y-76160380D01*
X136215333Y-76160380D01*
X136072476Y-76208000D01*
X136024857Y-76255619D01*
X135691523Y-76160380D02*
X135072476Y-76160380D01*
X135405809Y-76541333D01*
X135262952Y-76541333D01*
X135167714Y-76588952D01*
X135120095Y-76636571D01*
X135072476Y-76731809D01*
X135072476Y-76969904D01*
X135120095Y-77065142D01*
X135167714Y-77112761D01*
X135262952Y-77160380D01*
X135548666Y-77160380D01*
X135643904Y-77112761D01*
X135691523Y-77065142D01*
X134215333Y-76493714D02*
X134215333Y-77160380D01*
X134453428Y-76112761D02*
X134691523Y-76827047D01*
X134072476Y-76827047D01*
M02*
