G04 #@! TF.GenerationSoftware,KiCad,Pcbnew,(5.1.10-1-10_14)*
G04 #@! TF.CreationDate,2021-08-09T19:17:03+02:00*
G04 #@! TF.ProjectId,A3660_shanshe_mod2,41333636-305f-4736-9861-6e7368655f6d,rev?*
G04 #@! TF.SameCoordinates,Original*
G04 #@! TF.FileFunction,Paste,Top*
G04 #@! TF.FilePolarity,Positive*
%FSLAX46Y46*%
G04 Gerber Fmt 4.6, Leading zero omitted, Abs format (unit mm)*
G04 Created by KiCad (PCBNEW (5.1.10-1-10_14)) date 2021-08-09 19:17:03*
%MOMM*%
%LPD*%
G01*
G04 APERTURE LIST*
%ADD10R,2.300000X0.900000*%
%ADD11C,0.100000*%
%ADD12R,1.800000X2.000000*%
%ADD13R,1.060000X0.650000*%
%ADD14R,1.903000X2.790000*%
%ADD15R,2.500000X1.800000*%
%ADD16R,1.800000X2.500000*%
%ADD17R,0.300000X0.800000*%
G04 APERTURE END LIST*
G36*
G01*
X138273000Y-74969000D02*
X138273000Y-75119000D01*
G75*
G02*
X138198000Y-75194000I-75000J0D01*
G01*
X136873000Y-75194000D01*
G75*
G02*
X136798000Y-75119000I0J75000D01*
G01*
X136798000Y-74969000D01*
G75*
G02*
X136873000Y-74894000I75000J0D01*
G01*
X138198000Y-74894000D01*
G75*
G02*
X138273000Y-74969000I0J-75000D01*
G01*
G37*
G36*
G01*
X138273000Y-74469000D02*
X138273000Y-74619000D01*
G75*
G02*
X138198000Y-74694000I-75000J0D01*
G01*
X136873000Y-74694000D01*
G75*
G02*
X136798000Y-74619000I0J75000D01*
G01*
X136798000Y-74469000D01*
G75*
G02*
X136873000Y-74394000I75000J0D01*
G01*
X138198000Y-74394000D01*
G75*
G02*
X138273000Y-74469000I0J-75000D01*
G01*
G37*
G36*
G01*
X138273000Y-73969000D02*
X138273000Y-74119000D01*
G75*
G02*
X138198000Y-74194000I-75000J0D01*
G01*
X136873000Y-74194000D01*
G75*
G02*
X136798000Y-74119000I0J75000D01*
G01*
X136798000Y-73969000D01*
G75*
G02*
X136873000Y-73894000I75000J0D01*
G01*
X138198000Y-73894000D01*
G75*
G02*
X138273000Y-73969000I0J-75000D01*
G01*
G37*
G36*
G01*
X138273000Y-73469000D02*
X138273000Y-73619000D01*
G75*
G02*
X138198000Y-73694000I-75000J0D01*
G01*
X136873000Y-73694000D01*
G75*
G02*
X136798000Y-73619000I0J75000D01*
G01*
X136798000Y-73469000D01*
G75*
G02*
X136873000Y-73394000I75000J0D01*
G01*
X138198000Y-73394000D01*
G75*
G02*
X138273000Y-73469000I0J-75000D01*
G01*
G37*
G36*
G01*
X138273000Y-72969000D02*
X138273000Y-73119000D01*
G75*
G02*
X138198000Y-73194000I-75000J0D01*
G01*
X136873000Y-73194000D01*
G75*
G02*
X136798000Y-73119000I0J75000D01*
G01*
X136798000Y-72969000D01*
G75*
G02*
X136873000Y-72894000I75000J0D01*
G01*
X138198000Y-72894000D01*
G75*
G02*
X138273000Y-72969000I0J-75000D01*
G01*
G37*
G36*
G01*
X138273000Y-72469000D02*
X138273000Y-72619000D01*
G75*
G02*
X138198000Y-72694000I-75000J0D01*
G01*
X136873000Y-72694000D01*
G75*
G02*
X136798000Y-72619000I0J75000D01*
G01*
X136798000Y-72469000D01*
G75*
G02*
X136873000Y-72394000I75000J0D01*
G01*
X138198000Y-72394000D01*
G75*
G02*
X138273000Y-72469000I0J-75000D01*
G01*
G37*
G36*
G01*
X138273000Y-71969000D02*
X138273000Y-72119000D01*
G75*
G02*
X138198000Y-72194000I-75000J0D01*
G01*
X136873000Y-72194000D01*
G75*
G02*
X136798000Y-72119000I0J75000D01*
G01*
X136798000Y-71969000D01*
G75*
G02*
X136873000Y-71894000I75000J0D01*
G01*
X138198000Y-71894000D01*
G75*
G02*
X138273000Y-71969000I0J-75000D01*
G01*
G37*
G36*
G01*
X138273000Y-71469000D02*
X138273000Y-71619000D01*
G75*
G02*
X138198000Y-71694000I-75000J0D01*
G01*
X136873000Y-71694000D01*
G75*
G02*
X136798000Y-71619000I0J75000D01*
G01*
X136798000Y-71469000D01*
G75*
G02*
X136873000Y-71394000I75000J0D01*
G01*
X138198000Y-71394000D01*
G75*
G02*
X138273000Y-71469000I0J-75000D01*
G01*
G37*
G36*
G01*
X138273000Y-70969000D02*
X138273000Y-71119000D01*
G75*
G02*
X138198000Y-71194000I-75000J0D01*
G01*
X136873000Y-71194000D01*
G75*
G02*
X136798000Y-71119000I0J75000D01*
G01*
X136798000Y-70969000D01*
G75*
G02*
X136873000Y-70894000I75000J0D01*
G01*
X138198000Y-70894000D01*
G75*
G02*
X138273000Y-70969000I0J-75000D01*
G01*
G37*
G36*
G01*
X138273000Y-70469000D02*
X138273000Y-70619000D01*
G75*
G02*
X138198000Y-70694000I-75000J0D01*
G01*
X136873000Y-70694000D01*
G75*
G02*
X136798000Y-70619000I0J75000D01*
G01*
X136798000Y-70469000D01*
G75*
G02*
X136873000Y-70394000I75000J0D01*
G01*
X138198000Y-70394000D01*
G75*
G02*
X138273000Y-70469000I0J-75000D01*
G01*
G37*
G36*
G01*
X138273000Y-69969000D02*
X138273000Y-70119000D01*
G75*
G02*
X138198000Y-70194000I-75000J0D01*
G01*
X136873000Y-70194000D01*
G75*
G02*
X136798000Y-70119000I0J75000D01*
G01*
X136798000Y-69969000D01*
G75*
G02*
X136873000Y-69894000I75000J0D01*
G01*
X138198000Y-69894000D01*
G75*
G02*
X138273000Y-69969000I0J-75000D01*
G01*
G37*
G36*
G01*
X138273000Y-69469000D02*
X138273000Y-69619000D01*
G75*
G02*
X138198000Y-69694000I-75000J0D01*
G01*
X136873000Y-69694000D01*
G75*
G02*
X136798000Y-69619000I0J75000D01*
G01*
X136798000Y-69469000D01*
G75*
G02*
X136873000Y-69394000I75000J0D01*
G01*
X138198000Y-69394000D01*
G75*
G02*
X138273000Y-69469000I0J-75000D01*
G01*
G37*
G36*
G01*
X138273000Y-68969000D02*
X138273000Y-69119000D01*
G75*
G02*
X138198000Y-69194000I-75000J0D01*
G01*
X136873000Y-69194000D01*
G75*
G02*
X136798000Y-69119000I0J75000D01*
G01*
X136798000Y-68969000D01*
G75*
G02*
X136873000Y-68894000I75000J0D01*
G01*
X138198000Y-68894000D01*
G75*
G02*
X138273000Y-68969000I0J-75000D01*
G01*
G37*
G36*
G01*
X138273000Y-68469000D02*
X138273000Y-68619000D01*
G75*
G02*
X138198000Y-68694000I-75000J0D01*
G01*
X136873000Y-68694000D01*
G75*
G02*
X136798000Y-68619000I0J75000D01*
G01*
X136798000Y-68469000D01*
G75*
G02*
X136873000Y-68394000I75000J0D01*
G01*
X138198000Y-68394000D01*
G75*
G02*
X138273000Y-68469000I0J-75000D01*
G01*
G37*
G36*
G01*
X138273000Y-67969000D02*
X138273000Y-68119000D01*
G75*
G02*
X138198000Y-68194000I-75000J0D01*
G01*
X136873000Y-68194000D01*
G75*
G02*
X136798000Y-68119000I0J75000D01*
G01*
X136798000Y-67969000D01*
G75*
G02*
X136873000Y-67894000I75000J0D01*
G01*
X138198000Y-67894000D01*
G75*
G02*
X138273000Y-67969000I0J-75000D01*
G01*
G37*
G36*
G01*
X138273000Y-67469000D02*
X138273000Y-67619000D01*
G75*
G02*
X138198000Y-67694000I-75000J0D01*
G01*
X136873000Y-67694000D01*
G75*
G02*
X136798000Y-67619000I0J75000D01*
G01*
X136798000Y-67469000D01*
G75*
G02*
X136873000Y-67394000I75000J0D01*
G01*
X138198000Y-67394000D01*
G75*
G02*
X138273000Y-67469000I0J-75000D01*
G01*
G37*
G36*
G01*
X138273000Y-66969000D02*
X138273000Y-67119000D01*
G75*
G02*
X138198000Y-67194000I-75000J0D01*
G01*
X136873000Y-67194000D01*
G75*
G02*
X136798000Y-67119000I0J75000D01*
G01*
X136798000Y-66969000D01*
G75*
G02*
X136873000Y-66894000I75000J0D01*
G01*
X138198000Y-66894000D01*
G75*
G02*
X138273000Y-66969000I0J-75000D01*
G01*
G37*
G36*
G01*
X138273000Y-66469000D02*
X138273000Y-66619000D01*
G75*
G02*
X138198000Y-66694000I-75000J0D01*
G01*
X136873000Y-66694000D01*
G75*
G02*
X136798000Y-66619000I0J75000D01*
G01*
X136798000Y-66469000D01*
G75*
G02*
X136873000Y-66394000I75000J0D01*
G01*
X138198000Y-66394000D01*
G75*
G02*
X138273000Y-66469000I0J-75000D01*
G01*
G37*
G36*
G01*
X138273000Y-65969000D02*
X138273000Y-66119000D01*
G75*
G02*
X138198000Y-66194000I-75000J0D01*
G01*
X136873000Y-66194000D01*
G75*
G02*
X136798000Y-66119000I0J75000D01*
G01*
X136798000Y-65969000D01*
G75*
G02*
X136873000Y-65894000I75000J0D01*
G01*
X138198000Y-65894000D01*
G75*
G02*
X138273000Y-65969000I0J-75000D01*
G01*
G37*
G36*
G01*
X138273000Y-65469000D02*
X138273000Y-65619000D01*
G75*
G02*
X138198000Y-65694000I-75000J0D01*
G01*
X136873000Y-65694000D01*
G75*
G02*
X136798000Y-65619000I0J75000D01*
G01*
X136798000Y-65469000D01*
G75*
G02*
X136873000Y-65394000I75000J0D01*
G01*
X138198000Y-65394000D01*
G75*
G02*
X138273000Y-65469000I0J-75000D01*
G01*
G37*
G36*
G01*
X138273000Y-64969000D02*
X138273000Y-65119000D01*
G75*
G02*
X138198000Y-65194000I-75000J0D01*
G01*
X136873000Y-65194000D01*
G75*
G02*
X136798000Y-65119000I0J75000D01*
G01*
X136798000Y-64969000D01*
G75*
G02*
X136873000Y-64894000I75000J0D01*
G01*
X138198000Y-64894000D01*
G75*
G02*
X138273000Y-64969000I0J-75000D01*
G01*
G37*
G36*
G01*
X138273000Y-64469000D02*
X138273000Y-64619000D01*
G75*
G02*
X138198000Y-64694000I-75000J0D01*
G01*
X136873000Y-64694000D01*
G75*
G02*
X136798000Y-64619000I0J75000D01*
G01*
X136798000Y-64469000D01*
G75*
G02*
X136873000Y-64394000I75000J0D01*
G01*
X138198000Y-64394000D01*
G75*
G02*
X138273000Y-64469000I0J-75000D01*
G01*
G37*
G36*
G01*
X138273000Y-63969000D02*
X138273000Y-64119000D01*
G75*
G02*
X138198000Y-64194000I-75000J0D01*
G01*
X136873000Y-64194000D01*
G75*
G02*
X136798000Y-64119000I0J75000D01*
G01*
X136798000Y-63969000D01*
G75*
G02*
X136873000Y-63894000I75000J0D01*
G01*
X138198000Y-63894000D01*
G75*
G02*
X138273000Y-63969000I0J-75000D01*
G01*
G37*
G36*
G01*
X138273000Y-63469000D02*
X138273000Y-63619000D01*
G75*
G02*
X138198000Y-63694000I-75000J0D01*
G01*
X136873000Y-63694000D01*
G75*
G02*
X136798000Y-63619000I0J75000D01*
G01*
X136798000Y-63469000D01*
G75*
G02*
X136873000Y-63394000I75000J0D01*
G01*
X138198000Y-63394000D01*
G75*
G02*
X138273000Y-63469000I0J-75000D01*
G01*
G37*
G36*
G01*
X138273000Y-62969000D02*
X138273000Y-63119000D01*
G75*
G02*
X138198000Y-63194000I-75000J0D01*
G01*
X136873000Y-63194000D01*
G75*
G02*
X136798000Y-63119000I0J75000D01*
G01*
X136798000Y-62969000D01*
G75*
G02*
X136873000Y-62894000I75000J0D01*
G01*
X138198000Y-62894000D01*
G75*
G02*
X138273000Y-62969000I0J-75000D01*
G01*
G37*
G36*
G01*
X138273000Y-62469000D02*
X138273000Y-62619000D01*
G75*
G02*
X138198000Y-62694000I-75000J0D01*
G01*
X136873000Y-62694000D01*
G75*
G02*
X136798000Y-62619000I0J75000D01*
G01*
X136798000Y-62469000D01*
G75*
G02*
X136873000Y-62394000I75000J0D01*
G01*
X138198000Y-62394000D01*
G75*
G02*
X138273000Y-62469000I0J-75000D01*
G01*
G37*
G36*
G01*
X138273000Y-61969000D02*
X138273000Y-62119000D01*
G75*
G02*
X138198000Y-62194000I-75000J0D01*
G01*
X136873000Y-62194000D01*
G75*
G02*
X136798000Y-62119000I0J75000D01*
G01*
X136798000Y-61969000D01*
G75*
G02*
X136873000Y-61894000I75000J0D01*
G01*
X138198000Y-61894000D01*
G75*
G02*
X138273000Y-61969000I0J-75000D01*
G01*
G37*
G36*
G01*
X138273000Y-61469000D02*
X138273000Y-61619000D01*
G75*
G02*
X138198000Y-61694000I-75000J0D01*
G01*
X136873000Y-61694000D01*
G75*
G02*
X136798000Y-61619000I0J75000D01*
G01*
X136798000Y-61469000D01*
G75*
G02*
X136873000Y-61394000I75000J0D01*
G01*
X138198000Y-61394000D01*
G75*
G02*
X138273000Y-61469000I0J-75000D01*
G01*
G37*
G36*
G01*
X138273000Y-60969000D02*
X138273000Y-61119000D01*
G75*
G02*
X138198000Y-61194000I-75000J0D01*
G01*
X136873000Y-61194000D01*
G75*
G02*
X136798000Y-61119000I0J75000D01*
G01*
X136798000Y-60969000D01*
G75*
G02*
X136873000Y-60894000I75000J0D01*
G01*
X138198000Y-60894000D01*
G75*
G02*
X138273000Y-60969000I0J-75000D01*
G01*
G37*
G36*
G01*
X138273000Y-60469000D02*
X138273000Y-60619000D01*
G75*
G02*
X138198000Y-60694000I-75000J0D01*
G01*
X136873000Y-60694000D01*
G75*
G02*
X136798000Y-60619000I0J75000D01*
G01*
X136798000Y-60469000D01*
G75*
G02*
X136873000Y-60394000I75000J0D01*
G01*
X138198000Y-60394000D01*
G75*
G02*
X138273000Y-60469000I0J-75000D01*
G01*
G37*
G36*
G01*
X138273000Y-59969000D02*
X138273000Y-60119000D01*
G75*
G02*
X138198000Y-60194000I-75000J0D01*
G01*
X136873000Y-60194000D01*
G75*
G02*
X136798000Y-60119000I0J75000D01*
G01*
X136798000Y-59969000D01*
G75*
G02*
X136873000Y-59894000I75000J0D01*
G01*
X138198000Y-59894000D01*
G75*
G02*
X138273000Y-59969000I0J-75000D01*
G01*
G37*
G36*
G01*
X138273000Y-59469000D02*
X138273000Y-59619000D01*
G75*
G02*
X138198000Y-59694000I-75000J0D01*
G01*
X136873000Y-59694000D01*
G75*
G02*
X136798000Y-59619000I0J75000D01*
G01*
X136798000Y-59469000D01*
G75*
G02*
X136873000Y-59394000I75000J0D01*
G01*
X138198000Y-59394000D01*
G75*
G02*
X138273000Y-59469000I0J-75000D01*
G01*
G37*
G36*
G01*
X138273000Y-58969000D02*
X138273000Y-59119000D01*
G75*
G02*
X138198000Y-59194000I-75000J0D01*
G01*
X136873000Y-59194000D01*
G75*
G02*
X136798000Y-59119000I0J75000D01*
G01*
X136798000Y-58969000D01*
G75*
G02*
X136873000Y-58894000I75000J0D01*
G01*
X138198000Y-58894000D01*
G75*
G02*
X138273000Y-58969000I0J-75000D01*
G01*
G37*
G36*
G01*
X138273000Y-58469000D02*
X138273000Y-58619000D01*
G75*
G02*
X138198000Y-58694000I-75000J0D01*
G01*
X136873000Y-58694000D01*
G75*
G02*
X136798000Y-58619000I0J75000D01*
G01*
X136798000Y-58469000D01*
G75*
G02*
X136873000Y-58394000I75000J0D01*
G01*
X138198000Y-58394000D01*
G75*
G02*
X138273000Y-58469000I0J-75000D01*
G01*
G37*
G36*
G01*
X138273000Y-57969000D02*
X138273000Y-58119000D01*
G75*
G02*
X138198000Y-58194000I-75000J0D01*
G01*
X136873000Y-58194000D01*
G75*
G02*
X136798000Y-58119000I0J75000D01*
G01*
X136798000Y-57969000D01*
G75*
G02*
X136873000Y-57894000I75000J0D01*
G01*
X138198000Y-57894000D01*
G75*
G02*
X138273000Y-57969000I0J-75000D01*
G01*
G37*
G36*
G01*
X138273000Y-57469000D02*
X138273000Y-57619000D01*
G75*
G02*
X138198000Y-57694000I-75000J0D01*
G01*
X136873000Y-57694000D01*
G75*
G02*
X136798000Y-57619000I0J75000D01*
G01*
X136798000Y-57469000D01*
G75*
G02*
X136873000Y-57394000I75000J0D01*
G01*
X138198000Y-57394000D01*
G75*
G02*
X138273000Y-57469000I0J-75000D01*
G01*
G37*
G36*
G01*
X135773000Y-54969000D02*
X135773000Y-56294000D01*
G75*
G02*
X135698000Y-56369000I-75000J0D01*
G01*
X135548000Y-56369000D01*
G75*
G02*
X135473000Y-56294000I0J75000D01*
G01*
X135473000Y-54969000D01*
G75*
G02*
X135548000Y-54894000I75000J0D01*
G01*
X135698000Y-54894000D01*
G75*
G02*
X135773000Y-54969000I0J-75000D01*
G01*
G37*
G36*
G01*
X135273000Y-54969000D02*
X135273000Y-56294000D01*
G75*
G02*
X135198000Y-56369000I-75000J0D01*
G01*
X135048000Y-56369000D01*
G75*
G02*
X134973000Y-56294000I0J75000D01*
G01*
X134973000Y-54969000D01*
G75*
G02*
X135048000Y-54894000I75000J0D01*
G01*
X135198000Y-54894000D01*
G75*
G02*
X135273000Y-54969000I0J-75000D01*
G01*
G37*
G36*
G01*
X134773000Y-54969000D02*
X134773000Y-56294000D01*
G75*
G02*
X134698000Y-56369000I-75000J0D01*
G01*
X134548000Y-56369000D01*
G75*
G02*
X134473000Y-56294000I0J75000D01*
G01*
X134473000Y-54969000D01*
G75*
G02*
X134548000Y-54894000I75000J0D01*
G01*
X134698000Y-54894000D01*
G75*
G02*
X134773000Y-54969000I0J-75000D01*
G01*
G37*
G36*
G01*
X134273000Y-54969000D02*
X134273000Y-56294000D01*
G75*
G02*
X134198000Y-56369000I-75000J0D01*
G01*
X134048000Y-56369000D01*
G75*
G02*
X133973000Y-56294000I0J75000D01*
G01*
X133973000Y-54969000D01*
G75*
G02*
X134048000Y-54894000I75000J0D01*
G01*
X134198000Y-54894000D01*
G75*
G02*
X134273000Y-54969000I0J-75000D01*
G01*
G37*
G36*
G01*
X133773000Y-54969000D02*
X133773000Y-56294000D01*
G75*
G02*
X133698000Y-56369000I-75000J0D01*
G01*
X133548000Y-56369000D01*
G75*
G02*
X133473000Y-56294000I0J75000D01*
G01*
X133473000Y-54969000D01*
G75*
G02*
X133548000Y-54894000I75000J0D01*
G01*
X133698000Y-54894000D01*
G75*
G02*
X133773000Y-54969000I0J-75000D01*
G01*
G37*
G36*
G01*
X133273000Y-54969000D02*
X133273000Y-56294000D01*
G75*
G02*
X133198000Y-56369000I-75000J0D01*
G01*
X133048000Y-56369000D01*
G75*
G02*
X132973000Y-56294000I0J75000D01*
G01*
X132973000Y-54969000D01*
G75*
G02*
X133048000Y-54894000I75000J0D01*
G01*
X133198000Y-54894000D01*
G75*
G02*
X133273000Y-54969000I0J-75000D01*
G01*
G37*
G36*
G01*
X132773000Y-54969000D02*
X132773000Y-56294000D01*
G75*
G02*
X132698000Y-56369000I-75000J0D01*
G01*
X132548000Y-56369000D01*
G75*
G02*
X132473000Y-56294000I0J75000D01*
G01*
X132473000Y-54969000D01*
G75*
G02*
X132548000Y-54894000I75000J0D01*
G01*
X132698000Y-54894000D01*
G75*
G02*
X132773000Y-54969000I0J-75000D01*
G01*
G37*
G36*
G01*
X132273000Y-54969000D02*
X132273000Y-56294000D01*
G75*
G02*
X132198000Y-56369000I-75000J0D01*
G01*
X132048000Y-56369000D01*
G75*
G02*
X131973000Y-56294000I0J75000D01*
G01*
X131973000Y-54969000D01*
G75*
G02*
X132048000Y-54894000I75000J0D01*
G01*
X132198000Y-54894000D01*
G75*
G02*
X132273000Y-54969000I0J-75000D01*
G01*
G37*
G36*
G01*
X131773000Y-54969000D02*
X131773000Y-56294000D01*
G75*
G02*
X131698000Y-56369000I-75000J0D01*
G01*
X131548000Y-56369000D01*
G75*
G02*
X131473000Y-56294000I0J75000D01*
G01*
X131473000Y-54969000D01*
G75*
G02*
X131548000Y-54894000I75000J0D01*
G01*
X131698000Y-54894000D01*
G75*
G02*
X131773000Y-54969000I0J-75000D01*
G01*
G37*
G36*
G01*
X131273000Y-54969000D02*
X131273000Y-56294000D01*
G75*
G02*
X131198000Y-56369000I-75000J0D01*
G01*
X131048000Y-56369000D01*
G75*
G02*
X130973000Y-56294000I0J75000D01*
G01*
X130973000Y-54969000D01*
G75*
G02*
X131048000Y-54894000I75000J0D01*
G01*
X131198000Y-54894000D01*
G75*
G02*
X131273000Y-54969000I0J-75000D01*
G01*
G37*
G36*
G01*
X130773000Y-54969000D02*
X130773000Y-56294000D01*
G75*
G02*
X130698000Y-56369000I-75000J0D01*
G01*
X130548000Y-56369000D01*
G75*
G02*
X130473000Y-56294000I0J75000D01*
G01*
X130473000Y-54969000D01*
G75*
G02*
X130548000Y-54894000I75000J0D01*
G01*
X130698000Y-54894000D01*
G75*
G02*
X130773000Y-54969000I0J-75000D01*
G01*
G37*
G36*
G01*
X130273000Y-54969000D02*
X130273000Y-56294000D01*
G75*
G02*
X130198000Y-56369000I-75000J0D01*
G01*
X130048000Y-56369000D01*
G75*
G02*
X129973000Y-56294000I0J75000D01*
G01*
X129973000Y-54969000D01*
G75*
G02*
X130048000Y-54894000I75000J0D01*
G01*
X130198000Y-54894000D01*
G75*
G02*
X130273000Y-54969000I0J-75000D01*
G01*
G37*
G36*
G01*
X129773000Y-54969000D02*
X129773000Y-56294000D01*
G75*
G02*
X129698000Y-56369000I-75000J0D01*
G01*
X129548000Y-56369000D01*
G75*
G02*
X129473000Y-56294000I0J75000D01*
G01*
X129473000Y-54969000D01*
G75*
G02*
X129548000Y-54894000I75000J0D01*
G01*
X129698000Y-54894000D01*
G75*
G02*
X129773000Y-54969000I0J-75000D01*
G01*
G37*
G36*
G01*
X129273000Y-54969000D02*
X129273000Y-56294000D01*
G75*
G02*
X129198000Y-56369000I-75000J0D01*
G01*
X129048000Y-56369000D01*
G75*
G02*
X128973000Y-56294000I0J75000D01*
G01*
X128973000Y-54969000D01*
G75*
G02*
X129048000Y-54894000I75000J0D01*
G01*
X129198000Y-54894000D01*
G75*
G02*
X129273000Y-54969000I0J-75000D01*
G01*
G37*
G36*
G01*
X128773000Y-54969000D02*
X128773000Y-56294000D01*
G75*
G02*
X128698000Y-56369000I-75000J0D01*
G01*
X128548000Y-56369000D01*
G75*
G02*
X128473000Y-56294000I0J75000D01*
G01*
X128473000Y-54969000D01*
G75*
G02*
X128548000Y-54894000I75000J0D01*
G01*
X128698000Y-54894000D01*
G75*
G02*
X128773000Y-54969000I0J-75000D01*
G01*
G37*
G36*
G01*
X128273000Y-54969000D02*
X128273000Y-56294000D01*
G75*
G02*
X128198000Y-56369000I-75000J0D01*
G01*
X128048000Y-56369000D01*
G75*
G02*
X127973000Y-56294000I0J75000D01*
G01*
X127973000Y-54969000D01*
G75*
G02*
X128048000Y-54894000I75000J0D01*
G01*
X128198000Y-54894000D01*
G75*
G02*
X128273000Y-54969000I0J-75000D01*
G01*
G37*
G36*
G01*
X127773000Y-54969000D02*
X127773000Y-56294000D01*
G75*
G02*
X127698000Y-56369000I-75000J0D01*
G01*
X127548000Y-56369000D01*
G75*
G02*
X127473000Y-56294000I0J75000D01*
G01*
X127473000Y-54969000D01*
G75*
G02*
X127548000Y-54894000I75000J0D01*
G01*
X127698000Y-54894000D01*
G75*
G02*
X127773000Y-54969000I0J-75000D01*
G01*
G37*
G36*
G01*
X127273000Y-54969000D02*
X127273000Y-56294000D01*
G75*
G02*
X127198000Y-56369000I-75000J0D01*
G01*
X127048000Y-56369000D01*
G75*
G02*
X126973000Y-56294000I0J75000D01*
G01*
X126973000Y-54969000D01*
G75*
G02*
X127048000Y-54894000I75000J0D01*
G01*
X127198000Y-54894000D01*
G75*
G02*
X127273000Y-54969000I0J-75000D01*
G01*
G37*
G36*
G01*
X126773000Y-54969000D02*
X126773000Y-56294000D01*
G75*
G02*
X126698000Y-56369000I-75000J0D01*
G01*
X126548000Y-56369000D01*
G75*
G02*
X126473000Y-56294000I0J75000D01*
G01*
X126473000Y-54969000D01*
G75*
G02*
X126548000Y-54894000I75000J0D01*
G01*
X126698000Y-54894000D01*
G75*
G02*
X126773000Y-54969000I0J-75000D01*
G01*
G37*
G36*
G01*
X126273000Y-54969000D02*
X126273000Y-56294000D01*
G75*
G02*
X126198000Y-56369000I-75000J0D01*
G01*
X126048000Y-56369000D01*
G75*
G02*
X125973000Y-56294000I0J75000D01*
G01*
X125973000Y-54969000D01*
G75*
G02*
X126048000Y-54894000I75000J0D01*
G01*
X126198000Y-54894000D01*
G75*
G02*
X126273000Y-54969000I0J-75000D01*
G01*
G37*
G36*
G01*
X125773000Y-54969000D02*
X125773000Y-56294000D01*
G75*
G02*
X125698000Y-56369000I-75000J0D01*
G01*
X125548000Y-56369000D01*
G75*
G02*
X125473000Y-56294000I0J75000D01*
G01*
X125473000Y-54969000D01*
G75*
G02*
X125548000Y-54894000I75000J0D01*
G01*
X125698000Y-54894000D01*
G75*
G02*
X125773000Y-54969000I0J-75000D01*
G01*
G37*
G36*
G01*
X125273000Y-54969000D02*
X125273000Y-56294000D01*
G75*
G02*
X125198000Y-56369000I-75000J0D01*
G01*
X125048000Y-56369000D01*
G75*
G02*
X124973000Y-56294000I0J75000D01*
G01*
X124973000Y-54969000D01*
G75*
G02*
X125048000Y-54894000I75000J0D01*
G01*
X125198000Y-54894000D01*
G75*
G02*
X125273000Y-54969000I0J-75000D01*
G01*
G37*
G36*
G01*
X124773000Y-54969000D02*
X124773000Y-56294000D01*
G75*
G02*
X124698000Y-56369000I-75000J0D01*
G01*
X124548000Y-56369000D01*
G75*
G02*
X124473000Y-56294000I0J75000D01*
G01*
X124473000Y-54969000D01*
G75*
G02*
X124548000Y-54894000I75000J0D01*
G01*
X124698000Y-54894000D01*
G75*
G02*
X124773000Y-54969000I0J-75000D01*
G01*
G37*
G36*
G01*
X124273000Y-54969000D02*
X124273000Y-56294000D01*
G75*
G02*
X124198000Y-56369000I-75000J0D01*
G01*
X124048000Y-56369000D01*
G75*
G02*
X123973000Y-56294000I0J75000D01*
G01*
X123973000Y-54969000D01*
G75*
G02*
X124048000Y-54894000I75000J0D01*
G01*
X124198000Y-54894000D01*
G75*
G02*
X124273000Y-54969000I0J-75000D01*
G01*
G37*
G36*
G01*
X123773000Y-54969000D02*
X123773000Y-56294000D01*
G75*
G02*
X123698000Y-56369000I-75000J0D01*
G01*
X123548000Y-56369000D01*
G75*
G02*
X123473000Y-56294000I0J75000D01*
G01*
X123473000Y-54969000D01*
G75*
G02*
X123548000Y-54894000I75000J0D01*
G01*
X123698000Y-54894000D01*
G75*
G02*
X123773000Y-54969000I0J-75000D01*
G01*
G37*
G36*
G01*
X123273000Y-54969000D02*
X123273000Y-56294000D01*
G75*
G02*
X123198000Y-56369000I-75000J0D01*
G01*
X123048000Y-56369000D01*
G75*
G02*
X122973000Y-56294000I0J75000D01*
G01*
X122973000Y-54969000D01*
G75*
G02*
X123048000Y-54894000I75000J0D01*
G01*
X123198000Y-54894000D01*
G75*
G02*
X123273000Y-54969000I0J-75000D01*
G01*
G37*
G36*
G01*
X122773000Y-54969000D02*
X122773000Y-56294000D01*
G75*
G02*
X122698000Y-56369000I-75000J0D01*
G01*
X122548000Y-56369000D01*
G75*
G02*
X122473000Y-56294000I0J75000D01*
G01*
X122473000Y-54969000D01*
G75*
G02*
X122548000Y-54894000I75000J0D01*
G01*
X122698000Y-54894000D01*
G75*
G02*
X122773000Y-54969000I0J-75000D01*
G01*
G37*
G36*
G01*
X122273000Y-54969000D02*
X122273000Y-56294000D01*
G75*
G02*
X122198000Y-56369000I-75000J0D01*
G01*
X122048000Y-56369000D01*
G75*
G02*
X121973000Y-56294000I0J75000D01*
G01*
X121973000Y-54969000D01*
G75*
G02*
X122048000Y-54894000I75000J0D01*
G01*
X122198000Y-54894000D01*
G75*
G02*
X122273000Y-54969000I0J-75000D01*
G01*
G37*
G36*
G01*
X121773000Y-54969000D02*
X121773000Y-56294000D01*
G75*
G02*
X121698000Y-56369000I-75000J0D01*
G01*
X121548000Y-56369000D01*
G75*
G02*
X121473000Y-56294000I0J75000D01*
G01*
X121473000Y-54969000D01*
G75*
G02*
X121548000Y-54894000I75000J0D01*
G01*
X121698000Y-54894000D01*
G75*
G02*
X121773000Y-54969000I0J-75000D01*
G01*
G37*
G36*
G01*
X121273000Y-54969000D02*
X121273000Y-56294000D01*
G75*
G02*
X121198000Y-56369000I-75000J0D01*
G01*
X121048000Y-56369000D01*
G75*
G02*
X120973000Y-56294000I0J75000D01*
G01*
X120973000Y-54969000D01*
G75*
G02*
X121048000Y-54894000I75000J0D01*
G01*
X121198000Y-54894000D01*
G75*
G02*
X121273000Y-54969000I0J-75000D01*
G01*
G37*
G36*
G01*
X120773000Y-54969000D02*
X120773000Y-56294000D01*
G75*
G02*
X120698000Y-56369000I-75000J0D01*
G01*
X120548000Y-56369000D01*
G75*
G02*
X120473000Y-56294000I0J75000D01*
G01*
X120473000Y-54969000D01*
G75*
G02*
X120548000Y-54894000I75000J0D01*
G01*
X120698000Y-54894000D01*
G75*
G02*
X120773000Y-54969000I0J-75000D01*
G01*
G37*
G36*
G01*
X120273000Y-54969000D02*
X120273000Y-56294000D01*
G75*
G02*
X120198000Y-56369000I-75000J0D01*
G01*
X120048000Y-56369000D01*
G75*
G02*
X119973000Y-56294000I0J75000D01*
G01*
X119973000Y-54969000D01*
G75*
G02*
X120048000Y-54894000I75000J0D01*
G01*
X120198000Y-54894000D01*
G75*
G02*
X120273000Y-54969000I0J-75000D01*
G01*
G37*
G36*
G01*
X119773000Y-54969000D02*
X119773000Y-56294000D01*
G75*
G02*
X119698000Y-56369000I-75000J0D01*
G01*
X119548000Y-56369000D01*
G75*
G02*
X119473000Y-56294000I0J75000D01*
G01*
X119473000Y-54969000D01*
G75*
G02*
X119548000Y-54894000I75000J0D01*
G01*
X119698000Y-54894000D01*
G75*
G02*
X119773000Y-54969000I0J-75000D01*
G01*
G37*
G36*
G01*
X119273000Y-54969000D02*
X119273000Y-56294000D01*
G75*
G02*
X119198000Y-56369000I-75000J0D01*
G01*
X119048000Y-56369000D01*
G75*
G02*
X118973000Y-56294000I0J75000D01*
G01*
X118973000Y-54969000D01*
G75*
G02*
X119048000Y-54894000I75000J0D01*
G01*
X119198000Y-54894000D01*
G75*
G02*
X119273000Y-54969000I0J-75000D01*
G01*
G37*
G36*
G01*
X118773000Y-54969000D02*
X118773000Y-56294000D01*
G75*
G02*
X118698000Y-56369000I-75000J0D01*
G01*
X118548000Y-56369000D01*
G75*
G02*
X118473000Y-56294000I0J75000D01*
G01*
X118473000Y-54969000D01*
G75*
G02*
X118548000Y-54894000I75000J0D01*
G01*
X118698000Y-54894000D01*
G75*
G02*
X118773000Y-54969000I0J-75000D01*
G01*
G37*
G36*
G01*
X118273000Y-54969000D02*
X118273000Y-56294000D01*
G75*
G02*
X118198000Y-56369000I-75000J0D01*
G01*
X118048000Y-56369000D01*
G75*
G02*
X117973000Y-56294000I0J75000D01*
G01*
X117973000Y-54969000D01*
G75*
G02*
X118048000Y-54894000I75000J0D01*
G01*
X118198000Y-54894000D01*
G75*
G02*
X118273000Y-54969000I0J-75000D01*
G01*
G37*
G36*
G01*
X116948000Y-57469000D02*
X116948000Y-57619000D01*
G75*
G02*
X116873000Y-57694000I-75000J0D01*
G01*
X115548000Y-57694000D01*
G75*
G02*
X115473000Y-57619000I0J75000D01*
G01*
X115473000Y-57469000D01*
G75*
G02*
X115548000Y-57394000I75000J0D01*
G01*
X116873000Y-57394000D01*
G75*
G02*
X116948000Y-57469000I0J-75000D01*
G01*
G37*
G36*
G01*
X116948000Y-57969000D02*
X116948000Y-58119000D01*
G75*
G02*
X116873000Y-58194000I-75000J0D01*
G01*
X115548000Y-58194000D01*
G75*
G02*
X115473000Y-58119000I0J75000D01*
G01*
X115473000Y-57969000D01*
G75*
G02*
X115548000Y-57894000I75000J0D01*
G01*
X116873000Y-57894000D01*
G75*
G02*
X116948000Y-57969000I0J-75000D01*
G01*
G37*
G36*
G01*
X116948000Y-58469000D02*
X116948000Y-58619000D01*
G75*
G02*
X116873000Y-58694000I-75000J0D01*
G01*
X115548000Y-58694000D01*
G75*
G02*
X115473000Y-58619000I0J75000D01*
G01*
X115473000Y-58469000D01*
G75*
G02*
X115548000Y-58394000I75000J0D01*
G01*
X116873000Y-58394000D01*
G75*
G02*
X116948000Y-58469000I0J-75000D01*
G01*
G37*
G36*
G01*
X116948000Y-58969000D02*
X116948000Y-59119000D01*
G75*
G02*
X116873000Y-59194000I-75000J0D01*
G01*
X115548000Y-59194000D01*
G75*
G02*
X115473000Y-59119000I0J75000D01*
G01*
X115473000Y-58969000D01*
G75*
G02*
X115548000Y-58894000I75000J0D01*
G01*
X116873000Y-58894000D01*
G75*
G02*
X116948000Y-58969000I0J-75000D01*
G01*
G37*
G36*
G01*
X116948000Y-59469000D02*
X116948000Y-59619000D01*
G75*
G02*
X116873000Y-59694000I-75000J0D01*
G01*
X115548000Y-59694000D01*
G75*
G02*
X115473000Y-59619000I0J75000D01*
G01*
X115473000Y-59469000D01*
G75*
G02*
X115548000Y-59394000I75000J0D01*
G01*
X116873000Y-59394000D01*
G75*
G02*
X116948000Y-59469000I0J-75000D01*
G01*
G37*
G36*
G01*
X116948000Y-59969000D02*
X116948000Y-60119000D01*
G75*
G02*
X116873000Y-60194000I-75000J0D01*
G01*
X115548000Y-60194000D01*
G75*
G02*
X115473000Y-60119000I0J75000D01*
G01*
X115473000Y-59969000D01*
G75*
G02*
X115548000Y-59894000I75000J0D01*
G01*
X116873000Y-59894000D01*
G75*
G02*
X116948000Y-59969000I0J-75000D01*
G01*
G37*
G36*
G01*
X116948000Y-60469000D02*
X116948000Y-60619000D01*
G75*
G02*
X116873000Y-60694000I-75000J0D01*
G01*
X115548000Y-60694000D01*
G75*
G02*
X115473000Y-60619000I0J75000D01*
G01*
X115473000Y-60469000D01*
G75*
G02*
X115548000Y-60394000I75000J0D01*
G01*
X116873000Y-60394000D01*
G75*
G02*
X116948000Y-60469000I0J-75000D01*
G01*
G37*
G36*
G01*
X116948000Y-60969000D02*
X116948000Y-61119000D01*
G75*
G02*
X116873000Y-61194000I-75000J0D01*
G01*
X115548000Y-61194000D01*
G75*
G02*
X115473000Y-61119000I0J75000D01*
G01*
X115473000Y-60969000D01*
G75*
G02*
X115548000Y-60894000I75000J0D01*
G01*
X116873000Y-60894000D01*
G75*
G02*
X116948000Y-60969000I0J-75000D01*
G01*
G37*
G36*
G01*
X116948000Y-61469000D02*
X116948000Y-61619000D01*
G75*
G02*
X116873000Y-61694000I-75000J0D01*
G01*
X115548000Y-61694000D01*
G75*
G02*
X115473000Y-61619000I0J75000D01*
G01*
X115473000Y-61469000D01*
G75*
G02*
X115548000Y-61394000I75000J0D01*
G01*
X116873000Y-61394000D01*
G75*
G02*
X116948000Y-61469000I0J-75000D01*
G01*
G37*
G36*
G01*
X116948000Y-61969000D02*
X116948000Y-62119000D01*
G75*
G02*
X116873000Y-62194000I-75000J0D01*
G01*
X115548000Y-62194000D01*
G75*
G02*
X115473000Y-62119000I0J75000D01*
G01*
X115473000Y-61969000D01*
G75*
G02*
X115548000Y-61894000I75000J0D01*
G01*
X116873000Y-61894000D01*
G75*
G02*
X116948000Y-61969000I0J-75000D01*
G01*
G37*
G36*
G01*
X116948000Y-62469000D02*
X116948000Y-62619000D01*
G75*
G02*
X116873000Y-62694000I-75000J0D01*
G01*
X115548000Y-62694000D01*
G75*
G02*
X115473000Y-62619000I0J75000D01*
G01*
X115473000Y-62469000D01*
G75*
G02*
X115548000Y-62394000I75000J0D01*
G01*
X116873000Y-62394000D01*
G75*
G02*
X116948000Y-62469000I0J-75000D01*
G01*
G37*
G36*
G01*
X116948000Y-62969000D02*
X116948000Y-63119000D01*
G75*
G02*
X116873000Y-63194000I-75000J0D01*
G01*
X115548000Y-63194000D01*
G75*
G02*
X115473000Y-63119000I0J75000D01*
G01*
X115473000Y-62969000D01*
G75*
G02*
X115548000Y-62894000I75000J0D01*
G01*
X116873000Y-62894000D01*
G75*
G02*
X116948000Y-62969000I0J-75000D01*
G01*
G37*
G36*
G01*
X116948000Y-63469000D02*
X116948000Y-63619000D01*
G75*
G02*
X116873000Y-63694000I-75000J0D01*
G01*
X115548000Y-63694000D01*
G75*
G02*
X115473000Y-63619000I0J75000D01*
G01*
X115473000Y-63469000D01*
G75*
G02*
X115548000Y-63394000I75000J0D01*
G01*
X116873000Y-63394000D01*
G75*
G02*
X116948000Y-63469000I0J-75000D01*
G01*
G37*
G36*
G01*
X116948000Y-63969000D02*
X116948000Y-64119000D01*
G75*
G02*
X116873000Y-64194000I-75000J0D01*
G01*
X115548000Y-64194000D01*
G75*
G02*
X115473000Y-64119000I0J75000D01*
G01*
X115473000Y-63969000D01*
G75*
G02*
X115548000Y-63894000I75000J0D01*
G01*
X116873000Y-63894000D01*
G75*
G02*
X116948000Y-63969000I0J-75000D01*
G01*
G37*
G36*
G01*
X116948000Y-64469000D02*
X116948000Y-64619000D01*
G75*
G02*
X116873000Y-64694000I-75000J0D01*
G01*
X115548000Y-64694000D01*
G75*
G02*
X115473000Y-64619000I0J75000D01*
G01*
X115473000Y-64469000D01*
G75*
G02*
X115548000Y-64394000I75000J0D01*
G01*
X116873000Y-64394000D01*
G75*
G02*
X116948000Y-64469000I0J-75000D01*
G01*
G37*
G36*
G01*
X116948000Y-64969000D02*
X116948000Y-65119000D01*
G75*
G02*
X116873000Y-65194000I-75000J0D01*
G01*
X115548000Y-65194000D01*
G75*
G02*
X115473000Y-65119000I0J75000D01*
G01*
X115473000Y-64969000D01*
G75*
G02*
X115548000Y-64894000I75000J0D01*
G01*
X116873000Y-64894000D01*
G75*
G02*
X116948000Y-64969000I0J-75000D01*
G01*
G37*
G36*
G01*
X116948000Y-65469000D02*
X116948000Y-65619000D01*
G75*
G02*
X116873000Y-65694000I-75000J0D01*
G01*
X115548000Y-65694000D01*
G75*
G02*
X115473000Y-65619000I0J75000D01*
G01*
X115473000Y-65469000D01*
G75*
G02*
X115548000Y-65394000I75000J0D01*
G01*
X116873000Y-65394000D01*
G75*
G02*
X116948000Y-65469000I0J-75000D01*
G01*
G37*
G36*
G01*
X116948000Y-65969000D02*
X116948000Y-66119000D01*
G75*
G02*
X116873000Y-66194000I-75000J0D01*
G01*
X115548000Y-66194000D01*
G75*
G02*
X115473000Y-66119000I0J75000D01*
G01*
X115473000Y-65969000D01*
G75*
G02*
X115548000Y-65894000I75000J0D01*
G01*
X116873000Y-65894000D01*
G75*
G02*
X116948000Y-65969000I0J-75000D01*
G01*
G37*
G36*
G01*
X116948000Y-66469000D02*
X116948000Y-66619000D01*
G75*
G02*
X116873000Y-66694000I-75000J0D01*
G01*
X115548000Y-66694000D01*
G75*
G02*
X115473000Y-66619000I0J75000D01*
G01*
X115473000Y-66469000D01*
G75*
G02*
X115548000Y-66394000I75000J0D01*
G01*
X116873000Y-66394000D01*
G75*
G02*
X116948000Y-66469000I0J-75000D01*
G01*
G37*
G36*
G01*
X116948000Y-66969000D02*
X116948000Y-67119000D01*
G75*
G02*
X116873000Y-67194000I-75000J0D01*
G01*
X115548000Y-67194000D01*
G75*
G02*
X115473000Y-67119000I0J75000D01*
G01*
X115473000Y-66969000D01*
G75*
G02*
X115548000Y-66894000I75000J0D01*
G01*
X116873000Y-66894000D01*
G75*
G02*
X116948000Y-66969000I0J-75000D01*
G01*
G37*
G36*
G01*
X116948000Y-67469000D02*
X116948000Y-67619000D01*
G75*
G02*
X116873000Y-67694000I-75000J0D01*
G01*
X115548000Y-67694000D01*
G75*
G02*
X115473000Y-67619000I0J75000D01*
G01*
X115473000Y-67469000D01*
G75*
G02*
X115548000Y-67394000I75000J0D01*
G01*
X116873000Y-67394000D01*
G75*
G02*
X116948000Y-67469000I0J-75000D01*
G01*
G37*
G36*
G01*
X116948000Y-67969000D02*
X116948000Y-68119000D01*
G75*
G02*
X116873000Y-68194000I-75000J0D01*
G01*
X115548000Y-68194000D01*
G75*
G02*
X115473000Y-68119000I0J75000D01*
G01*
X115473000Y-67969000D01*
G75*
G02*
X115548000Y-67894000I75000J0D01*
G01*
X116873000Y-67894000D01*
G75*
G02*
X116948000Y-67969000I0J-75000D01*
G01*
G37*
G36*
G01*
X116948000Y-68469000D02*
X116948000Y-68619000D01*
G75*
G02*
X116873000Y-68694000I-75000J0D01*
G01*
X115548000Y-68694000D01*
G75*
G02*
X115473000Y-68619000I0J75000D01*
G01*
X115473000Y-68469000D01*
G75*
G02*
X115548000Y-68394000I75000J0D01*
G01*
X116873000Y-68394000D01*
G75*
G02*
X116948000Y-68469000I0J-75000D01*
G01*
G37*
G36*
G01*
X116948000Y-68969000D02*
X116948000Y-69119000D01*
G75*
G02*
X116873000Y-69194000I-75000J0D01*
G01*
X115548000Y-69194000D01*
G75*
G02*
X115473000Y-69119000I0J75000D01*
G01*
X115473000Y-68969000D01*
G75*
G02*
X115548000Y-68894000I75000J0D01*
G01*
X116873000Y-68894000D01*
G75*
G02*
X116948000Y-68969000I0J-75000D01*
G01*
G37*
G36*
G01*
X116948000Y-69469000D02*
X116948000Y-69619000D01*
G75*
G02*
X116873000Y-69694000I-75000J0D01*
G01*
X115548000Y-69694000D01*
G75*
G02*
X115473000Y-69619000I0J75000D01*
G01*
X115473000Y-69469000D01*
G75*
G02*
X115548000Y-69394000I75000J0D01*
G01*
X116873000Y-69394000D01*
G75*
G02*
X116948000Y-69469000I0J-75000D01*
G01*
G37*
G36*
G01*
X116948000Y-69969000D02*
X116948000Y-70119000D01*
G75*
G02*
X116873000Y-70194000I-75000J0D01*
G01*
X115548000Y-70194000D01*
G75*
G02*
X115473000Y-70119000I0J75000D01*
G01*
X115473000Y-69969000D01*
G75*
G02*
X115548000Y-69894000I75000J0D01*
G01*
X116873000Y-69894000D01*
G75*
G02*
X116948000Y-69969000I0J-75000D01*
G01*
G37*
G36*
G01*
X116948000Y-70469000D02*
X116948000Y-70619000D01*
G75*
G02*
X116873000Y-70694000I-75000J0D01*
G01*
X115548000Y-70694000D01*
G75*
G02*
X115473000Y-70619000I0J75000D01*
G01*
X115473000Y-70469000D01*
G75*
G02*
X115548000Y-70394000I75000J0D01*
G01*
X116873000Y-70394000D01*
G75*
G02*
X116948000Y-70469000I0J-75000D01*
G01*
G37*
G36*
G01*
X116948000Y-70969000D02*
X116948000Y-71119000D01*
G75*
G02*
X116873000Y-71194000I-75000J0D01*
G01*
X115548000Y-71194000D01*
G75*
G02*
X115473000Y-71119000I0J75000D01*
G01*
X115473000Y-70969000D01*
G75*
G02*
X115548000Y-70894000I75000J0D01*
G01*
X116873000Y-70894000D01*
G75*
G02*
X116948000Y-70969000I0J-75000D01*
G01*
G37*
G36*
G01*
X116948000Y-71469000D02*
X116948000Y-71619000D01*
G75*
G02*
X116873000Y-71694000I-75000J0D01*
G01*
X115548000Y-71694000D01*
G75*
G02*
X115473000Y-71619000I0J75000D01*
G01*
X115473000Y-71469000D01*
G75*
G02*
X115548000Y-71394000I75000J0D01*
G01*
X116873000Y-71394000D01*
G75*
G02*
X116948000Y-71469000I0J-75000D01*
G01*
G37*
G36*
G01*
X116948000Y-71969000D02*
X116948000Y-72119000D01*
G75*
G02*
X116873000Y-72194000I-75000J0D01*
G01*
X115548000Y-72194000D01*
G75*
G02*
X115473000Y-72119000I0J75000D01*
G01*
X115473000Y-71969000D01*
G75*
G02*
X115548000Y-71894000I75000J0D01*
G01*
X116873000Y-71894000D01*
G75*
G02*
X116948000Y-71969000I0J-75000D01*
G01*
G37*
G36*
G01*
X116948000Y-72469000D02*
X116948000Y-72619000D01*
G75*
G02*
X116873000Y-72694000I-75000J0D01*
G01*
X115548000Y-72694000D01*
G75*
G02*
X115473000Y-72619000I0J75000D01*
G01*
X115473000Y-72469000D01*
G75*
G02*
X115548000Y-72394000I75000J0D01*
G01*
X116873000Y-72394000D01*
G75*
G02*
X116948000Y-72469000I0J-75000D01*
G01*
G37*
G36*
G01*
X116948000Y-72969000D02*
X116948000Y-73119000D01*
G75*
G02*
X116873000Y-73194000I-75000J0D01*
G01*
X115548000Y-73194000D01*
G75*
G02*
X115473000Y-73119000I0J75000D01*
G01*
X115473000Y-72969000D01*
G75*
G02*
X115548000Y-72894000I75000J0D01*
G01*
X116873000Y-72894000D01*
G75*
G02*
X116948000Y-72969000I0J-75000D01*
G01*
G37*
G36*
G01*
X116948000Y-73469000D02*
X116948000Y-73619000D01*
G75*
G02*
X116873000Y-73694000I-75000J0D01*
G01*
X115548000Y-73694000D01*
G75*
G02*
X115473000Y-73619000I0J75000D01*
G01*
X115473000Y-73469000D01*
G75*
G02*
X115548000Y-73394000I75000J0D01*
G01*
X116873000Y-73394000D01*
G75*
G02*
X116948000Y-73469000I0J-75000D01*
G01*
G37*
G36*
G01*
X116948000Y-73969000D02*
X116948000Y-74119000D01*
G75*
G02*
X116873000Y-74194000I-75000J0D01*
G01*
X115548000Y-74194000D01*
G75*
G02*
X115473000Y-74119000I0J75000D01*
G01*
X115473000Y-73969000D01*
G75*
G02*
X115548000Y-73894000I75000J0D01*
G01*
X116873000Y-73894000D01*
G75*
G02*
X116948000Y-73969000I0J-75000D01*
G01*
G37*
G36*
G01*
X116948000Y-74469000D02*
X116948000Y-74619000D01*
G75*
G02*
X116873000Y-74694000I-75000J0D01*
G01*
X115548000Y-74694000D01*
G75*
G02*
X115473000Y-74619000I0J75000D01*
G01*
X115473000Y-74469000D01*
G75*
G02*
X115548000Y-74394000I75000J0D01*
G01*
X116873000Y-74394000D01*
G75*
G02*
X116948000Y-74469000I0J-75000D01*
G01*
G37*
G36*
G01*
X116948000Y-74969000D02*
X116948000Y-75119000D01*
G75*
G02*
X116873000Y-75194000I-75000J0D01*
G01*
X115548000Y-75194000D01*
G75*
G02*
X115473000Y-75119000I0J75000D01*
G01*
X115473000Y-74969000D01*
G75*
G02*
X115548000Y-74894000I75000J0D01*
G01*
X116873000Y-74894000D01*
G75*
G02*
X116948000Y-74969000I0J-75000D01*
G01*
G37*
G36*
G01*
X118273000Y-76294000D02*
X118273000Y-77619000D01*
G75*
G02*
X118198000Y-77694000I-75000J0D01*
G01*
X118048000Y-77694000D01*
G75*
G02*
X117973000Y-77619000I0J75000D01*
G01*
X117973000Y-76294000D01*
G75*
G02*
X118048000Y-76219000I75000J0D01*
G01*
X118198000Y-76219000D01*
G75*
G02*
X118273000Y-76294000I0J-75000D01*
G01*
G37*
G36*
G01*
X118773000Y-76294000D02*
X118773000Y-77619000D01*
G75*
G02*
X118698000Y-77694000I-75000J0D01*
G01*
X118548000Y-77694000D01*
G75*
G02*
X118473000Y-77619000I0J75000D01*
G01*
X118473000Y-76294000D01*
G75*
G02*
X118548000Y-76219000I75000J0D01*
G01*
X118698000Y-76219000D01*
G75*
G02*
X118773000Y-76294000I0J-75000D01*
G01*
G37*
G36*
G01*
X119273000Y-76294000D02*
X119273000Y-77619000D01*
G75*
G02*
X119198000Y-77694000I-75000J0D01*
G01*
X119048000Y-77694000D01*
G75*
G02*
X118973000Y-77619000I0J75000D01*
G01*
X118973000Y-76294000D01*
G75*
G02*
X119048000Y-76219000I75000J0D01*
G01*
X119198000Y-76219000D01*
G75*
G02*
X119273000Y-76294000I0J-75000D01*
G01*
G37*
G36*
G01*
X119773000Y-76294000D02*
X119773000Y-77619000D01*
G75*
G02*
X119698000Y-77694000I-75000J0D01*
G01*
X119548000Y-77694000D01*
G75*
G02*
X119473000Y-77619000I0J75000D01*
G01*
X119473000Y-76294000D01*
G75*
G02*
X119548000Y-76219000I75000J0D01*
G01*
X119698000Y-76219000D01*
G75*
G02*
X119773000Y-76294000I0J-75000D01*
G01*
G37*
G36*
G01*
X120273000Y-76294000D02*
X120273000Y-77619000D01*
G75*
G02*
X120198000Y-77694000I-75000J0D01*
G01*
X120048000Y-77694000D01*
G75*
G02*
X119973000Y-77619000I0J75000D01*
G01*
X119973000Y-76294000D01*
G75*
G02*
X120048000Y-76219000I75000J0D01*
G01*
X120198000Y-76219000D01*
G75*
G02*
X120273000Y-76294000I0J-75000D01*
G01*
G37*
G36*
G01*
X120773000Y-76294000D02*
X120773000Y-77619000D01*
G75*
G02*
X120698000Y-77694000I-75000J0D01*
G01*
X120548000Y-77694000D01*
G75*
G02*
X120473000Y-77619000I0J75000D01*
G01*
X120473000Y-76294000D01*
G75*
G02*
X120548000Y-76219000I75000J0D01*
G01*
X120698000Y-76219000D01*
G75*
G02*
X120773000Y-76294000I0J-75000D01*
G01*
G37*
G36*
G01*
X121273000Y-76294000D02*
X121273000Y-77619000D01*
G75*
G02*
X121198000Y-77694000I-75000J0D01*
G01*
X121048000Y-77694000D01*
G75*
G02*
X120973000Y-77619000I0J75000D01*
G01*
X120973000Y-76294000D01*
G75*
G02*
X121048000Y-76219000I75000J0D01*
G01*
X121198000Y-76219000D01*
G75*
G02*
X121273000Y-76294000I0J-75000D01*
G01*
G37*
G36*
G01*
X121773000Y-76294000D02*
X121773000Y-77619000D01*
G75*
G02*
X121698000Y-77694000I-75000J0D01*
G01*
X121548000Y-77694000D01*
G75*
G02*
X121473000Y-77619000I0J75000D01*
G01*
X121473000Y-76294000D01*
G75*
G02*
X121548000Y-76219000I75000J0D01*
G01*
X121698000Y-76219000D01*
G75*
G02*
X121773000Y-76294000I0J-75000D01*
G01*
G37*
G36*
G01*
X122273000Y-76294000D02*
X122273000Y-77619000D01*
G75*
G02*
X122198000Y-77694000I-75000J0D01*
G01*
X122048000Y-77694000D01*
G75*
G02*
X121973000Y-77619000I0J75000D01*
G01*
X121973000Y-76294000D01*
G75*
G02*
X122048000Y-76219000I75000J0D01*
G01*
X122198000Y-76219000D01*
G75*
G02*
X122273000Y-76294000I0J-75000D01*
G01*
G37*
G36*
G01*
X122773000Y-76294000D02*
X122773000Y-77619000D01*
G75*
G02*
X122698000Y-77694000I-75000J0D01*
G01*
X122548000Y-77694000D01*
G75*
G02*
X122473000Y-77619000I0J75000D01*
G01*
X122473000Y-76294000D01*
G75*
G02*
X122548000Y-76219000I75000J0D01*
G01*
X122698000Y-76219000D01*
G75*
G02*
X122773000Y-76294000I0J-75000D01*
G01*
G37*
G36*
G01*
X123273000Y-76294000D02*
X123273000Y-77619000D01*
G75*
G02*
X123198000Y-77694000I-75000J0D01*
G01*
X123048000Y-77694000D01*
G75*
G02*
X122973000Y-77619000I0J75000D01*
G01*
X122973000Y-76294000D01*
G75*
G02*
X123048000Y-76219000I75000J0D01*
G01*
X123198000Y-76219000D01*
G75*
G02*
X123273000Y-76294000I0J-75000D01*
G01*
G37*
G36*
G01*
X123773000Y-76294000D02*
X123773000Y-77619000D01*
G75*
G02*
X123698000Y-77694000I-75000J0D01*
G01*
X123548000Y-77694000D01*
G75*
G02*
X123473000Y-77619000I0J75000D01*
G01*
X123473000Y-76294000D01*
G75*
G02*
X123548000Y-76219000I75000J0D01*
G01*
X123698000Y-76219000D01*
G75*
G02*
X123773000Y-76294000I0J-75000D01*
G01*
G37*
G36*
G01*
X124273000Y-76294000D02*
X124273000Y-77619000D01*
G75*
G02*
X124198000Y-77694000I-75000J0D01*
G01*
X124048000Y-77694000D01*
G75*
G02*
X123973000Y-77619000I0J75000D01*
G01*
X123973000Y-76294000D01*
G75*
G02*
X124048000Y-76219000I75000J0D01*
G01*
X124198000Y-76219000D01*
G75*
G02*
X124273000Y-76294000I0J-75000D01*
G01*
G37*
G36*
G01*
X124773000Y-76294000D02*
X124773000Y-77619000D01*
G75*
G02*
X124698000Y-77694000I-75000J0D01*
G01*
X124548000Y-77694000D01*
G75*
G02*
X124473000Y-77619000I0J75000D01*
G01*
X124473000Y-76294000D01*
G75*
G02*
X124548000Y-76219000I75000J0D01*
G01*
X124698000Y-76219000D01*
G75*
G02*
X124773000Y-76294000I0J-75000D01*
G01*
G37*
G36*
G01*
X125273000Y-76294000D02*
X125273000Y-77619000D01*
G75*
G02*
X125198000Y-77694000I-75000J0D01*
G01*
X125048000Y-77694000D01*
G75*
G02*
X124973000Y-77619000I0J75000D01*
G01*
X124973000Y-76294000D01*
G75*
G02*
X125048000Y-76219000I75000J0D01*
G01*
X125198000Y-76219000D01*
G75*
G02*
X125273000Y-76294000I0J-75000D01*
G01*
G37*
G36*
G01*
X125773000Y-76294000D02*
X125773000Y-77619000D01*
G75*
G02*
X125698000Y-77694000I-75000J0D01*
G01*
X125548000Y-77694000D01*
G75*
G02*
X125473000Y-77619000I0J75000D01*
G01*
X125473000Y-76294000D01*
G75*
G02*
X125548000Y-76219000I75000J0D01*
G01*
X125698000Y-76219000D01*
G75*
G02*
X125773000Y-76294000I0J-75000D01*
G01*
G37*
G36*
G01*
X126273000Y-76294000D02*
X126273000Y-77619000D01*
G75*
G02*
X126198000Y-77694000I-75000J0D01*
G01*
X126048000Y-77694000D01*
G75*
G02*
X125973000Y-77619000I0J75000D01*
G01*
X125973000Y-76294000D01*
G75*
G02*
X126048000Y-76219000I75000J0D01*
G01*
X126198000Y-76219000D01*
G75*
G02*
X126273000Y-76294000I0J-75000D01*
G01*
G37*
G36*
G01*
X126773000Y-76294000D02*
X126773000Y-77619000D01*
G75*
G02*
X126698000Y-77694000I-75000J0D01*
G01*
X126548000Y-77694000D01*
G75*
G02*
X126473000Y-77619000I0J75000D01*
G01*
X126473000Y-76294000D01*
G75*
G02*
X126548000Y-76219000I75000J0D01*
G01*
X126698000Y-76219000D01*
G75*
G02*
X126773000Y-76294000I0J-75000D01*
G01*
G37*
G36*
G01*
X127273000Y-76294000D02*
X127273000Y-77619000D01*
G75*
G02*
X127198000Y-77694000I-75000J0D01*
G01*
X127048000Y-77694000D01*
G75*
G02*
X126973000Y-77619000I0J75000D01*
G01*
X126973000Y-76294000D01*
G75*
G02*
X127048000Y-76219000I75000J0D01*
G01*
X127198000Y-76219000D01*
G75*
G02*
X127273000Y-76294000I0J-75000D01*
G01*
G37*
G36*
G01*
X127773000Y-76294000D02*
X127773000Y-77619000D01*
G75*
G02*
X127698000Y-77694000I-75000J0D01*
G01*
X127548000Y-77694000D01*
G75*
G02*
X127473000Y-77619000I0J75000D01*
G01*
X127473000Y-76294000D01*
G75*
G02*
X127548000Y-76219000I75000J0D01*
G01*
X127698000Y-76219000D01*
G75*
G02*
X127773000Y-76294000I0J-75000D01*
G01*
G37*
G36*
G01*
X128273000Y-76294000D02*
X128273000Y-77619000D01*
G75*
G02*
X128198000Y-77694000I-75000J0D01*
G01*
X128048000Y-77694000D01*
G75*
G02*
X127973000Y-77619000I0J75000D01*
G01*
X127973000Y-76294000D01*
G75*
G02*
X128048000Y-76219000I75000J0D01*
G01*
X128198000Y-76219000D01*
G75*
G02*
X128273000Y-76294000I0J-75000D01*
G01*
G37*
G36*
G01*
X128773000Y-76294000D02*
X128773000Y-77619000D01*
G75*
G02*
X128698000Y-77694000I-75000J0D01*
G01*
X128548000Y-77694000D01*
G75*
G02*
X128473000Y-77619000I0J75000D01*
G01*
X128473000Y-76294000D01*
G75*
G02*
X128548000Y-76219000I75000J0D01*
G01*
X128698000Y-76219000D01*
G75*
G02*
X128773000Y-76294000I0J-75000D01*
G01*
G37*
G36*
G01*
X129273000Y-76294000D02*
X129273000Y-77619000D01*
G75*
G02*
X129198000Y-77694000I-75000J0D01*
G01*
X129048000Y-77694000D01*
G75*
G02*
X128973000Y-77619000I0J75000D01*
G01*
X128973000Y-76294000D01*
G75*
G02*
X129048000Y-76219000I75000J0D01*
G01*
X129198000Y-76219000D01*
G75*
G02*
X129273000Y-76294000I0J-75000D01*
G01*
G37*
G36*
G01*
X129773000Y-76294000D02*
X129773000Y-77619000D01*
G75*
G02*
X129698000Y-77694000I-75000J0D01*
G01*
X129548000Y-77694000D01*
G75*
G02*
X129473000Y-77619000I0J75000D01*
G01*
X129473000Y-76294000D01*
G75*
G02*
X129548000Y-76219000I75000J0D01*
G01*
X129698000Y-76219000D01*
G75*
G02*
X129773000Y-76294000I0J-75000D01*
G01*
G37*
G36*
G01*
X130273000Y-76294000D02*
X130273000Y-77619000D01*
G75*
G02*
X130198000Y-77694000I-75000J0D01*
G01*
X130048000Y-77694000D01*
G75*
G02*
X129973000Y-77619000I0J75000D01*
G01*
X129973000Y-76294000D01*
G75*
G02*
X130048000Y-76219000I75000J0D01*
G01*
X130198000Y-76219000D01*
G75*
G02*
X130273000Y-76294000I0J-75000D01*
G01*
G37*
G36*
G01*
X130773000Y-76294000D02*
X130773000Y-77619000D01*
G75*
G02*
X130698000Y-77694000I-75000J0D01*
G01*
X130548000Y-77694000D01*
G75*
G02*
X130473000Y-77619000I0J75000D01*
G01*
X130473000Y-76294000D01*
G75*
G02*
X130548000Y-76219000I75000J0D01*
G01*
X130698000Y-76219000D01*
G75*
G02*
X130773000Y-76294000I0J-75000D01*
G01*
G37*
G36*
G01*
X131273000Y-76294000D02*
X131273000Y-77619000D01*
G75*
G02*
X131198000Y-77694000I-75000J0D01*
G01*
X131048000Y-77694000D01*
G75*
G02*
X130973000Y-77619000I0J75000D01*
G01*
X130973000Y-76294000D01*
G75*
G02*
X131048000Y-76219000I75000J0D01*
G01*
X131198000Y-76219000D01*
G75*
G02*
X131273000Y-76294000I0J-75000D01*
G01*
G37*
G36*
G01*
X131773000Y-76294000D02*
X131773000Y-77619000D01*
G75*
G02*
X131698000Y-77694000I-75000J0D01*
G01*
X131548000Y-77694000D01*
G75*
G02*
X131473000Y-77619000I0J75000D01*
G01*
X131473000Y-76294000D01*
G75*
G02*
X131548000Y-76219000I75000J0D01*
G01*
X131698000Y-76219000D01*
G75*
G02*
X131773000Y-76294000I0J-75000D01*
G01*
G37*
G36*
G01*
X132273000Y-76294000D02*
X132273000Y-77619000D01*
G75*
G02*
X132198000Y-77694000I-75000J0D01*
G01*
X132048000Y-77694000D01*
G75*
G02*
X131973000Y-77619000I0J75000D01*
G01*
X131973000Y-76294000D01*
G75*
G02*
X132048000Y-76219000I75000J0D01*
G01*
X132198000Y-76219000D01*
G75*
G02*
X132273000Y-76294000I0J-75000D01*
G01*
G37*
G36*
G01*
X132773000Y-76294000D02*
X132773000Y-77619000D01*
G75*
G02*
X132698000Y-77694000I-75000J0D01*
G01*
X132548000Y-77694000D01*
G75*
G02*
X132473000Y-77619000I0J75000D01*
G01*
X132473000Y-76294000D01*
G75*
G02*
X132548000Y-76219000I75000J0D01*
G01*
X132698000Y-76219000D01*
G75*
G02*
X132773000Y-76294000I0J-75000D01*
G01*
G37*
G36*
G01*
X133273000Y-76294000D02*
X133273000Y-77619000D01*
G75*
G02*
X133198000Y-77694000I-75000J0D01*
G01*
X133048000Y-77694000D01*
G75*
G02*
X132973000Y-77619000I0J75000D01*
G01*
X132973000Y-76294000D01*
G75*
G02*
X133048000Y-76219000I75000J0D01*
G01*
X133198000Y-76219000D01*
G75*
G02*
X133273000Y-76294000I0J-75000D01*
G01*
G37*
G36*
G01*
X133773000Y-76294000D02*
X133773000Y-77619000D01*
G75*
G02*
X133698000Y-77694000I-75000J0D01*
G01*
X133548000Y-77694000D01*
G75*
G02*
X133473000Y-77619000I0J75000D01*
G01*
X133473000Y-76294000D01*
G75*
G02*
X133548000Y-76219000I75000J0D01*
G01*
X133698000Y-76219000D01*
G75*
G02*
X133773000Y-76294000I0J-75000D01*
G01*
G37*
G36*
G01*
X134273000Y-76294000D02*
X134273000Y-77619000D01*
G75*
G02*
X134198000Y-77694000I-75000J0D01*
G01*
X134048000Y-77694000D01*
G75*
G02*
X133973000Y-77619000I0J75000D01*
G01*
X133973000Y-76294000D01*
G75*
G02*
X134048000Y-76219000I75000J0D01*
G01*
X134198000Y-76219000D01*
G75*
G02*
X134273000Y-76294000I0J-75000D01*
G01*
G37*
G36*
G01*
X134773000Y-76294000D02*
X134773000Y-77619000D01*
G75*
G02*
X134698000Y-77694000I-75000J0D01*
G01*
X134548000Y-77694000D01*
G75*
G02*
X134473000Y-77619000I0J75000D01*
G01*
X134473000Y-76294000D01*
G75*
G02*
X134548000Y-76219000I75000J0D01*
G01*
X134698000Y-76219000D01*
G75*
G02*
X134773000Y-76294000I0J-75000D01*
G01*
G37*
G36*
G01*
X135273000Y-76294000D02*
X135273000Y-77619000D01*
G75*
G02*
X135198000Y-77694000I-75000J0D01*
G01*
X135048000Y-77694000D01*
G75*
G02*
X134973000Y-77619000I0J75000D01*
G01*
X134973000Y-76294000D01*
G75*
G02*
X135048000Y-76219000I75000J0D01*
G01*
X135198000Y-76219000D01*
G75*
G02*
X135273000Y-76294000I0J-75000D01*
G01*
G37*
G36*
G01*
X135773000Y-76294000D02*
X135773000Y-77619000D01*
G75*
G02*
X135698000Y-77694000I-75000J0D01*
G01*
X135548000Y-77694000D01*
G75*
G02*
X135473000Y-77619000I0J75000D01*
G01*
X135473000Y-76294000D01*
G75*
G02*
X135548000Y-76219000I75000J0D01*
G01*
X135698000Y-76219000D01*
G75*
G02*
X135773000Y-76294000I0J-75000D01*
G01*
G37*
G36*
G01*
X166603000Y-44111000D02*
X166603000Y-43011000D01*
G75*
G02*
X166853000Y-42761000I250000J0D01*
G01*
X169128000Y-42761000D01*
G75*
G02*
X169378000Y-43011000I0J-250000D01*
G01*
X169378000Y-44111000D01*
G75*
G02*
X169128000Y-44361000I-250000J0D01*
G01*
X166853000Y-44361000D01*
G75*
G02*
X166603000Y-44111000I0J250000D01*
G01*
G37*
G36*
G01*
X170728000Y-44111000D02*
X170728000Y-43011000D01*
G75*
G02*
X170978000Y-42761000I250000J0D01*
G01*
X173253000Y-42761000D01*
G75*
G02*
X173503000Y-43011000I0J-250000D01*
G01*
X173503000Y-44111000D01*
G75*
G02*
X173253000Y-44361000I-250000J0D01*
G01*
X170978000Y-44361000D01*
G75*
G02*
X170728000Y-44111000I0J250000D01*
G01*
G37*
G36*
G01*
X94307800Y-91781000D02*
X94007800Y-91781000D01*
G75*
G02*
X93857800Y-91631000I0J150000D01*
G01*
X93857800Y-89881000D01*
G75*
G02*
X94007800Y-89731000I150000J0D01*
G01*
X94307800Y-89731000D01*
G75*
G02*
X94457800Y-89881000I0J-150000D01*
G01*
X94457800Y-91631000D01*
G75*
G02*
X94307800Y-91781000I-150000J0D01*
G01*
G37*
G36*
G01*
X95577800Y-91781000D02*
X95277800Y-91781000D01*
G75*
G02*
X95127800Y-91631000I0J150000D01*
G01*
X95127800Y-89881000D01*
G75*
G02*
X95277800Y-89731000I150000J0D01*
G01*
X95577800Y-89731000D01*
G75*
G02*
X95727800Y-89881000I0J-150000D01*
G01*
X95727800Y-91631000D01*
G75*
G02*
X95577800Y-91781000I-150000J0D01*
G01*
G37*
G36*
G01*
X96847800Y-91781000D02*
X96547800Y-91781000D01*
G75*
G02*
X96397800Y-91631000I0J150000D01*
G01*
X96397800Y-89881000D01*
G75*
G02*
X96547800Y-89731000I150000J0D01*
G01*
X96847800Y-89731000D01*
G75*
G02*
X96997800Y-89881000I0J-150000D01*
G01*
X96997800Y-91631000D01*
G75*
G02*
X96847800Y-91781000I-150000J0D01*
G01*
G37*
G36*
G01*
X98117800Y-91781000D02*
X97817800Y-91781000D01*
G75*
G02*
X97667800Y-91631000I0J150000D01*
G01*
X97667800Y-89881000D01*
G75*
G02*
X97817800Y-89731000I150000J0D01*
G01*
X98117800Y-89731000D01*
G75*
G02*
X98267800Y-89881000I0J-150000D01*
G01*
X98267800Y-91631000D01*
G75*
G02*
X98117800Y-91781000I-150000J0D01*
G01*
G37*
G36*
G01*
X99387800Y-91781000D02*
X99087800Y-91781000D01*
G75*
G02*
X98937800Y-91631000I0J150000D01*
G01*
X98937800Y-89881000D01*
G75*
G02*
X99087800Y-89731000I150000J0D01*
G01*
X99387800Y-89731000D01*
G75*
G02*
X99537800Y-89881000I0J-150000D01*
G01*
X99537800Y-91631000D01*
G75*
G02*
X99387800Y-91781000I-150000J0D01*
G01*
G37*
G36*
G01*
X100657800Y-91781000D02*
X100357800Y-91781000D01*
G75*
G02*
X100207800Y-91631000I0J150000D01*
G01*
X100207800Y-89881000D01*
G75*
G02*
X100357800Y-89731000I150000J0D01*
G01*
X100657800Y-89731000D01*
G75*
G02*
X100807800Y-89881000I0J-150000D01*
G01*
X100807800Y-91631000D01*
G75*
G02*
X100657800Y-91781000I-150000J0D01*
G01*
G37*
G36*
G01*
X101927800Y-91781000D02*
X101627800Y-91781000D01*
G75*
G02*
X101477800Y-91631000I0J150000D01*
G01*
X101477800Y-89881000D01*
G75*
G02*
X101627800Y-89731000I150000J0D01*
G01*
X101927800Y-89731000D01*
G75*
G02*
X102077800Y-89881000I0J-150000D01*
G01*
X102077800Y-91631000D01*
G75*
G02*
X101927800Y-91781000I-150000J0D01*
G01*
G37*
G36*
G01*
X103197800Y-91781000D02*
X102897800Y-91781000D01*
G75*
G02*
X102747800Y-91631000I0J150000D01*
G01*
X102747800Y-89881000D01*
G75*
G02*
X102897800Y-89731000I150000J0D01*
G01*
X103197800Y-89731000D01*
G75*
G02*
X103347800Y-89881000I0J-150000D01*
G01*
X103347800Y-91631000D01*
G75*
G02*
X103197800Y-91781000I-150000J0D01*
G01*
G37*
G36*
G01*
X104467800Y-91781000D02*
X104167800Y-91781000D01*
G75*
G02*
X104017800Y-91631000I0J150000D01*
G01*
X104017800Y-89881000D01*
G75*
G02*
X104167800Y-89731000I150000J0D01*
G01*
X104467800Y-89731000D01*
G75*
G02*
X104617800Y-89881000I0J-150000D01*
G01*
X104617800Y-91631000D01*
G75*
G02*
X104467800Y-91781000I-150000J0D01*
G01*
G37*
G36*
G01*
X105737800Y-91781000D02*
X105437800Y-91781000D01*
G75*
G02*
X105287800Y-91631000I0J150000D01*
G01*
X105287800Y-89881000D01*
G75*
G02*
X105437800Y-89731000I150000J0D01*
G01*
X105737800Y-89731000D01*
G75*
G02*
X105887800Y-89881000I0J-150000D01*
G01*
X105887800Y-91631000D01*
G75*
G02*
X105737800Y-91781000I-150000J0D01*
G01*
G37*
G36*
G01*
X105737800Y-82481000D02*
X105437800Y-82481000D01*
G75*
G02*
X105287800Y-82331000I0J150000D01*
G01*
X105287800Y-80581000D01*
G75*
G02*
X105437800Y-80431000I150000J0D01*
G01*
X105737800Y-80431000D01*
G75*
G02*
X105887800Y-80581000I0J-150000D01*
G01*
X105887800Y-82331000D01*
G75*
G02*
X105737800Y-82481000I-150000J0D01*
G01*
G37*
G36*
G01*
X104467800Y-82481000D02*
X104167800Y-82481000D01*
G75*
G02*
X104017800Y-82331000I0J150000D01*
G01*
X104017800Y-80581000D01*
G75*
G02*
X104167800Y-80431000I150000J0D01*
G01*
X104467800Y-80431000D01*
G75*
G02*
X104617800Y-80581000I0J-150000D01*
G01*
X104617800Y-82331000D01*
G75*
G02*
X104467800Y-82481000I-150000J0D01*
G01*
G37*
G36*
G01*
X103197800Y-82481000D02*
X102897800Y-82481000D01*
G75*
G02*
X102747800Y-82331000I0J150000D01*
G01*
X102747800Y-80581000D01*
G75*
G02*
X102897800Y-80431000I150000J0D01*
G01*
X103197800Y-80431000D01*
G75*
G02*
X103347800Y-80581000I0J-150000D01*
G01*
X103347800Y-82331000D01*
G75*
G02*
X103197800Y-82481000I-150000J0D01*
G01*
G37*
G36*
G01*
X101927800Y-82481000D02*
X101627800Y-82481000D01*
G75*
G02*
X101477800Y-82331000I0J150000D01*
G01*
X101477800Y-80581000D01*
G75*
G02*
X101627800Y-80431000I150000J0D01*
G01*
X101927800Y-80431000D01*
G75*
G02*
X102077800Y-80581000I0J-150000D01*
G01*
X102077800Y-82331000D01*
G75*
G02*
X101927800Y-82481000I-150000J0D01*
G01*
G37*
G36*
G01*
X100657800Y-82481000D02*
X100357800Y-82481000D01*
G75*
G02*
X100207800Y-82331000I0J150000D01*
G01*
X100207800Y-80581000D01*
G75*
G02*
X100357800Y-80431000I150000J0D01*
G01*
X100657800Y-80431000D01*
G75*
G02*
X100807800Y-80581000I0J-150000D01*
G01*
X100807800Y-82331000D01*
G75*
G02*
X100657800Y-82481000I-150000J0D01*
G01*
G37*
G36*
G01*
X99387800Y-82481000D02*
X99087800Y-82481000D01*
G75*
G02*
X98937800Y-82331000I0J150000D01*
G01*
X98937800Y-80581000D01*
G75*
G02*
X99087800Y-80431000I150000J0D01*
G01*
X99387800Y-80431000D01*
G75*
G02*
X99537800Y-80581000I0J-150000D01*
G01*
X99537800Y-82331000D01*
G75*
G02*
X99387800Y-82481000I-150000J0D01*
G01*
G37*
G36*
G01*
X98117800Y-82481000D02*
X97817800Y-82481000D01*
G75*
G02*
X97667800Y-82331000I0J150000D01*
G01*
X97667800Y-80581000D01*
G75*
G02*
X97817800Y-80431000I150000J0D01*
G01*
X98117800Y-80431000D01*
G75*
G02*
X98267800Y-80581000I0J-150000D01*
G01*
X98267800Y-82331000D01*
G75*
G02*
X98117800Y-82481000I-150000J0D01*
G01*
G37*
G36*
G01*
X96847800Y-82481000D02*
X96547800Y-82481000D01*
G75*
G02*
X96397800Y-82331000I0J150000D01*
G01*
X96397800Y-80581000D01*
G75*
G02*
X96547800Y-80431000I150000J0D01*
G01*
X96847800Y-80431000D01*
G75*
G02*
X96997800Y-80581000I0J-150000D01*
G01*
X96997800Y-82331000D01*
G75*
G02*
X96847800Y-82481000I-150000J0D01*
G01*
G37*
G36*
G01*
X95577800Y-82481000D02*
X95277800Y-82481000D01*
G75*
G02*
X95127800Y-82331000I0J150000D01*
G01*
X95127800Y-80581000D01*
G75*
G02*
X95277800Y-80431000I150000J0D01*
G01*
X95577800Y-80431000D01*
G75*
G02*
X95727800Y-80581000I0J-150000D01*
G01*
X95727800Y-82331000D01*
G75*
G02*
X95577800Y-82481000I-150000J0D01*
G01*
G37*
G36*
G01*
X94307800Y-82481000D02*
X94007800Y-82481000D01*
G75*
G02*
X93857800Y-82331000I0J150000D01*
G01*
X93857800Y-80581000D01*
G75*
G02*
X94007800Y-80431000I150000J0D01*
G01*
X94307800Y-80431000D01*
G75*
G02*
X94457800Y-80581000I0J-150000D01*
G01*
X94457800Y-82331000D01*
G75*
G02*
X94307800Y-82481000I-150000J0D01*
G01*
G37*
G36*
G01*
X173297001Y-38176000D02*
X172396999Y-38176000D01*
G75*
G02*
X172147000Y-37926001I0J249999D01*
G01*
X172147000Y-37225999D01*
G75*
G02*
X172396999Y-36976000I249999J0D01*
G01*
X173297001Y-36976000D01*
G75*
G02*
X173547000Y-37225999I0J-249999D01*
G01*
X173547000Y-37926001D01*
G75*
G02*
X173297001Y-38176000I-249999J0D01*
G01*
G37*
G36*
G01*
X173297001Y-36176000D02*
X172396999Y-36176000D01*
G75*
G02*
X172147000Y-35926001I0J249999D01*
G01*
X172147000Y-35225999D01*
G75*
G02*
X172396999Y-34976000I249999J0D01*
G01*
X173297001Y-34976000D01*
G75*
G02*
X173547000Y-35225999I0J-249999D01*
G01*
X173547000Y-35926001D01*
G75*
G02*
X173297001Y-36176000I-249999J0D01*
G01*
G37*
G36*
G01*
X247690000Y-61891000D02*
X247690000Y-60791000D01*
G75*
G02*
X247940000Y-60541000I250000J0D01*
G01*
X250215000Y-60541000D01*
G75*
G02*
X250465000Y-60791000I0J-250000D01*
G01*
X250465000Y-61891000D01*
G75*
G02*
X250215000Y-62141000I-250000J0D01*
G01*
X247940000Y-62141000D01*
G75*
G02*
X247690000Y-61891000I0J250000D01*
G01*
G37*
G36*
G01*
X243565000Y-61891000D02*
X243565000Y-60791000D01*
G75*
G02*
X243815000Y-60541000I250000J0D01*
G01*
X246090000Y-60541000D01*
G75*
G02*
X246340000Y-60791000I0J-250000D01*
G01*
X246340000Y-61891000D01*
G75*
G02*
X246090000Y-62141000I-250000J0D01*
G01*
X243815000Y-62141000D01*
G75*
G02*
X243565000Y-61891000I0J250000D01*
G01*
G37*
G36*
G01*
X210208000Y-85148000D02*
X209908000Y-85148000D01*
G75*
G02*
X209758000Y-84998000I0J150000D01*
G01*
X209758000Y-83248000D01*
G75*
G02*
X209908000Y-83098000I150000J0D01*
G01*
X210208000Y-83098000D01*
G75*
G02*
X210358000Y-83248000I0J-150000D01*
G01*
X210358000Y-84998000D01*
G75*
G02*
X210208000Y-85148000I-150000J0D01*
G01*
G37*
G36*
G01*
X211478000Y-85148000D02*
X211178000Y-85148000D01*
G75*
G02*
X211028000Y-84998000I0J150000D01*
G01*
X211028000Y-83248000D01*
G75*
G02*
X211178000Y-83098000I150000J0D01*
G01*
X211478000Y-83098000D01*
G75*
G02*
X211628000Y-83248000I0J-150000D01*
G01*
X211628000Y-84998000D01*
G75*
G02*
X211478000Y-85148000I-150000J0D01*
G01*
G37*
G36*
G01*
X212748000Y-85148000D02*
X212448000Y-85148000D01*
G75*
G02*
X212298000Y-84998000I0J150000D01*
G01*
X212298000Y-83248000D01*
G75*
G02*
X212448000Y-83098000I150000J0D01*
G01*
X212748000Y-83098000D01*
G75*
G02*
X212898000Y-83248000I0J-150000D01*
G01*
X212898000Y-84998000D01*
G75*
G02*
X212748000Y-85148000I-150000J0D01*
G01*
G37*
G36*
G01*
X214018000Y-85148000D02*
X213718000Y-85148000D01*
G75*
G02*
X213568000Y-84998000I0J150000D01*
G01*
X213568000Y-83248000D01*
G75*
G02*
X213718000Y-83098000I150000J0D01*
G01*
X214018000Y-83098000D01*
G75*
G02*
X214168000Y-83248000I0J-150000D01*
G01*
X214168000Y-84998000D01*
G75*
G02*
X214018000Y-85148000I-150000J0D01*
G01*
G37*
G36*
G01*
X215288000Y-85148000D02*
X214988000Y-85148000D01*
G75*
G02*
X214838000Y-84998000I0J150000D01*
G01*
X214838000Y-83248000D01*
G75*
G02*
X214988000Y-83098000I150000J0D01*
G01*
X215288000Y-83098000D01*
G75*
G02*
X215438000Y-83248000I0J-150000D01*
G01*
X215438000Y-84998000D01*
G75*
G02*
X215288000Y-85148000I-150000J0D01*
G01*
G37*
G36*
G01*
X216558000Y-85148000D02*
X216258000Y-85148000D01*
G75*
G02*
X216108000Y-84998000I0J150000D01*
G01*
X216108000Y-83248000D01*
G75*
G02*
X216258000Y-83098000I150000J0D01*
G01*
X216558000Y-83098000D01*
G75*
G02*
X216708000Y-83248000I0J-150000D01*
G01*
X216708000Y-84998000D01*
G75*
G02*
X216558000Y-85148000I-150000J0D01*
G01*
G37*
G36*
G01*
X217828000Y-85148000D02*
X217528000Y-85148000D01*
G75*
G02*
X217378000Y-84998000I0J150000D01*
G01*
X217378000Y-83248000D01*
G75*
G02*
X217528000Y-83098000I150000J0D01*
G01*
X217828000Y-83098000D01*
G75*
G02*
X217978000Y-83248000I0J-150000D01*
G01*
X217978000Y-84998000D01*
G75*
G02*
X217828000Y-85148000I-150000J0D01*
G01*
G37*
G36*
G01*
X219098000Y-85148000D02*
X218798000Y-85148000D01*
G75*
G02*
X218648000Y-84998000I0J150000D01*
G01*
X218648000Y-83248000D01*
G75*
G02*
X218798000Y-83098000I150000J0D01*
G01*
X219098000Y-83098000D01*
G75*
G02*
X219248000Y-83248000I0J-150000D01*
G01*
X219248000Y-84998000D01*
G75*
G02*
X219098000Y-85148000I-150000J0D01*
G01*
G37*
G36*
G01*
X220368000Y-85148000D02*
X220068000Y-85148000D01*
G75*
G02*
X219918000Y-84998000I0J150000D01*
G01*
X219918000Y-83248000D01*
G75*
G02*
X220068000Y-83098000I150000J0D01*
G01*
X220368000Y-83098000D01*
G75*
G02*
X220518000Y-83248000I0J-150000D01*
G01*
X220518000Y-84998000D01*
G75*
G02*
X220368000Y-85148000I-150000J0D01*
G01*
G37*
G36*
G01*
X221638000Y-85148000D02*
X221338000Y-85148000D01*
G75*
G02*
X221188000Y-84998000I0J150000D01*
G01*
X221188000Y-83248000D01*
G75*
G02*
X221338000Y-83098000I150000J0D01*
G01*
X221638000Y-83098000D01*
G75*
G02*
X221788000Y-83248000I0J-150000D01*
G01*
X221788000Y-84998000D01*
G75*
G02*
X221638000Y-85148000I-150000J0D01*
G01*
G37*
G36*
G01*
X222908000Y-85148000D02*
X222608000Y-85148000D01*
G75*
G02*
X222458000Y-84998000I0J150000D01*
G01*
X222458000Y-83248000D01*
G75*
G02*
X222608000Y-83098000I150000J0D01*
G01*
X222908000Y-83098000D01*
G75*
G02*
X223058000Y-83248000I0J-150000D01*
G01*
X223058000Y-84998000D01*
G75*
G02*
X222908000Y-85148000I-150000J0D01*
G01*
G37*
G36*
G01*
X224178000Y-85148000D02*
X223878000Y-85148000D01*
G75*
G02*
X223728000Y-84998000I0J150000D01*
G01*
X223728000Y-83248000D01*
G75*
G02*
X223878000Y-83098000I150000J0D01*
G01*
X224178000Y-83098000D01*
G75*
G02*
X224328000Y-83248000I0J-150000D01*
G01*
X224328000Y-84998000D01*
G75*
G02*
X224178000Y-85148000I-150000J0D01*
G01*
G37*
G36*
G01*
X224178000Y-94448000D02*
X223878000Y-94448000D01*
G75*
G02*
X223728000Y-94298000I0J150000D01*
G01*
X223728000Y-92548000D01*
G75*
G02*
X223878000Y-92398000I150000J0D01*
G01*
X224178000Y-92398000D01*
G75*
G02*
X224328000Y-92548000I0J-150000D01*
G01*
X224328000Y-94298000D01*
G75*
G02*
X224178000Y-94448000I-150000J0D01*
G01*
G37*
G36*
G01*
X222908000Y-94448000D02*
X222608000Y-94448000D01*
G75*
G02*
X222458000Y-94298000I0J150000D01*
G01*
X222458000Y-92548000D01*
G75*
G02*
X222608000Y-92398000I150000J0D01*
G01*
X222908000Y-92398000D01*
G75*
G02*
X223058000Y-92548000I0J-150000D01*
G01*
X223058000Y-94298000D01*
G75*
G02*
X222908000Y-94448000I-150000J0D01*
G01*
G37*
G36*
G01*
X221638000Y-94448000D02*
X221338000Y-94448000D01*
G75*
G02*
X221188000Y-94298000I0J150000D01*
G01*
X221188000Y-92548000D01*
G75*
G02*
X221338000Y-92398000I150000J0D01*
G01*
X221638000Y-92398000D01*
G75*
G02*
X221788000Y-92548000I0J-150000D01*
G01*
X221788000Y-94298000D01*
G75*
G02*
X221638000Y-94448000I-150000J0D01*
G01*
G37*
G36*
G01*
X220368000Y-94448000D02*
X220068000Y-94448000D01*
G75*
G02*
X219918000Y-94298000I0J150000D01*
G01*
X219918000Y-92548000D01*
G75*
G02*
X220068000Y-92398000I150000J0D01*
G01*
X220368000Y-92398000D01*
G75*
G02*
X220518000Y-92548000I0J-150000D01*
G01*
X220518000Y-94298000D01*
G75*
G02*
X220368000Y-94448000I-150000J0D01*
G01*
G37*
G36*
G01*
X219098000Y-94448000D02*
X218798000Y-94448000D01*
G75*
G02*
X218648000Y-94298000I0J150000D01*
G01*
X218648000Y-92548000D01*
G75*
G02*
X218798000Y-92398000I150000J0D01*
G01*
X219098000Y-92398000D01*
G75*
G02*
X219248000Y-92548000I0J-150000D01*
G01*
X219248000Y-94298000D01*
G75*
G02*
X219098000Y-94448000I-150000J0D01*
G01*
G37*
G36*
G01*
X217828000Y-94448000D02*
X217528000Y-94448000D01*
G75*
G02*
X217378000Y-94298000I0J150000D01*
G01*
X217378000Y-92548000D01*
G75*
G02*
X217528000Y-92398000I150000J0D01*
G01*
X217828000Y-92398000D01*
G75*
G02*
X217978000Y-92548000I0J-150000D01*
G01*
X217978000Y-94298000D01*
G75*
G02*
X217828000Y-94448000I-150000J0D01*
G01*
G37*
G36*
G01*
X216558000Y-94448000D02*
X216258000Y-94448000D01*
G75*
G02*
X216108000Y-94298000I0J150000D01*
G01*
X216108000Y-92548000D01*
G75*
G02*
X216258000Y-92398000I150000J0D01*
G01*
X216558000Y-92398000D01*
G75*
G02*
X216708000Y-92548000I0J-150000D01*
G01*
X216708000Y-94298000D01*
G75*
G02*
X216558000Y-94448000I-150000J0D01*
G01*
G37*
G36*
G01*
X215288000Y-94448000D02*
X214988000Y-94448000D01*
G75*
G02*
X214838000Y-94298000I0J150000D01*
G01*
X214838000Y-92548000D01*
G75*
G02*
X214988000Y-92398000I150000J0D01*
G01*
X215288000Y-92398000D01*
G75*
G02*
X215438000Y-92548000I0J-150000D01*
G01*
X215438000Y-94298000D01*
G75*
G02*
X215288000Y-94448000I-150000J0D01*
G01*
G37*
G36*
G01*
X214018000Y-94448000D02*
X213718000Y-94448000D01*
G75*
G02*
X213568000Y-94298000I0J150000D01*
G01*
X213568000Y-92548000D01*
G75*
G02*
X213718000Y-92398000I150000J0D01*
G01*
X214018000Y-92398000D01*
G75*
G02*
X214168000Y-92548000I0J-150000D01*
G01*
X214168000Y-94298000D01*
G75*
G02*
X214018000Y-94448000I-150000J0D01*
G01*
G37*
G36*
G01*
X212748000Y-94448000D02*
X212448000Y-94448000D01*
G75*
G02*
X212298000Y-94298000I0J150000D01*
G01*
X212298000Y-92548000D01*
G75*
G02*
X212448000Y-92398000I150000J0D01*
G01*
X212748000Y-92398000D01*
G75*
G02*
X212898000Y-92548000I0J-150000D01*
G01*
X212898000Y-94298000D01*
G75*
G02*
X212748000Y-94448000I-150000J0D01*
G01*
G37*
G36*
G01*
X211478000Y-94448000D02*
X211178000Y-94448000D01*
G75*
G02*
X211028000Y-94298000I0J150000D01*
G01*
X211028000Y-92548000D01*
G75*
G02*
X211178000Y-92398000I150000J0D01*
G01*
X211478000Y-92398000D01*
G75*
G02*
X211628000Y-92548000I0J-150000D01*
G01*
X211628000Y-94298000D01*
G75*
G02*
X211478000Y-94448000I-150000J0D01*
G01*
G37*
G36*
G01*
X210208000Y-94448000D02*
X209908000Y-94448000D01*
G75*
G02*
X209758000Y-94298000I0J150000D01*
G01*
X209758000Y-92548000D01*
G75*
G02*
X209908000Y-92398000I150000J0D01*
G01*
X210208000Y-92398000D01*
G75*
G02*
X210358000Y-92548000I0J-150000D01*
G01*
X210358000Y-94298000D01*
G75*
G02*
X210208000Y-94448000I-150000J0D01*
G01*
G37*
G36*
G01*
X173124000Y-58952000D02*
X172824000Y-58952000D01*
G75*
G02*
X172674000Y-58802000I0J150000D01*
G01*
X172674000Y-57152000D01*
G75*
G02*
X172824000Y-57002000I150000J0D01*
G01*
X173124000Y-57002000D01*
G75*
G02*
X173274000Y-57152000I0J-150000D01*
G01*
X173274000Y-58802000D01*
G75*
G02*
X173124000Y-58952000I-150000J0D01*
G01*
G37*
G36*
G01*
X174394000Y-58952000D02*
X174094000Y-58952000D01*
G75*
G02*
X173944000Y-58802000I0J150000D01*
G01*
X173944000Y-57152000D01*
G75*
G02*
X174094000Y-57002000I150000J0D01*
G01*
X174394000Y-57002000D01*
G75*
G02*
X174544000Y-57152000I0J-150000D01*
G01*
X174544000Y-58802000D01*
G75*
G02*
X174394000Y-58952000I-150000J0D01*
G01*
G37*
G36*
G01*
X175664000Y-58952000D02*
X175364000Y-58952000D01*
G75*
G02*
X175214000Y-58802000I0J150000D01*
G01*
X175214000Y-57152000D01*
G75*
G02*
X175364000Y-57002000I150000J0D01*
G01*
X175664000Y-57002000D01*
G75*
G02*
X175814000Y-57152000I0J-150000D01*
G01*
X175814000Y-58802000D01*
G75*
G02*
X175664000Y-58952000I-150000J0D01*
G01*
G37*
G36*
G01*
X176934000Y-58952000D02*
X176634000Y-58952000D01*
G75*
G02*
X176484000Y-58802000I0J150000D01*
G01*
X176484000Y-57152000D01*
G75*
G02*
X176634000Y-57002000I150000J0D01*
G01*
X176934000Y-57002000D01*
G75*
G02*
X177084000Y-57152000I0J-150000D01*
G01*
X177084000Y-58802000D01*
G75*
G02*
X176934000Y-58952000I-150000J0D01*
G01*
G37*
G36*
G01*
X178204000Y-58952000D02*
X177904000Y-58952000D01*
G75*
G02*
X177754000Y-58802000I0J150000D01*
G01*
X177754000Y-57152000D01*
G75*
G02*
X177904000Y-57002000I150000J0D01*
G01*
X178204000Y-57002000D01*
G75*
G02*
X178354000Y-57152000I0J-150000D01*
G01*
X178354000Y-58802000D01*
G75*
G02*
X178204000Y-58952000I-150000J0D01*
G01*
G37*
G36*
G01*
X179474000Y-58952000D02*
X179174000Y-58952000D01*
G75*
G02*
X179024000Y-58802000I0J150000D01*
G01*
X179024000Y-57152000D01*
G75*
G02*
X179174000Y-57002000I150000J0D01*
G01*
X179474000Y-57002000D01*
G75*
G02*
X179624000Y-57152000I0J-150000D01*
G01*
X179624000Y-58802000D01*
G75*
G02*
X179474000Y-58952000I-150000J0D01*
G01*
G37*
G36*
G01*
X180744000Y-58952000D02*
X180444000Y-58952000D01*
G75*
G02*
X180294000Y-58802000I0J150000D01*
G01*
X180294000Y-57152000D01*
G75*
G02*
X180444000Y-57002000I150000J0D01*
G01*
X180744000Y-57002000D01*
G75*
G02*
X180894000Y-57152000I0J-150000D01*
G01*
X180894000Y-58802000D01*
G75*
G02*
X180744000Y-58952000I-150000J0D01*
G01*
G37*
G36*
G01*
X180744000Y-63902000D02*
X180444000Y-63902000D01*
G75*
G02*
X180294000Y-63752000I0J150000D01*
G01*
X180294000Y-62102000D01*
G75*
G02*
X180444000Y-61952000I150000J0D01*
G01*
X180744000Y-61952000D01*
G75*
G02*
X180894000Y-62102000I0J-150000D01*
G01*
X180894000Y-63752000D01*
G75*
G02*
X180744000Y-63902000I-150000J0D01*
G01*
G37*
G36*
G01*
X179474000Y-63902000D02*
X179174000Y-63902000D01*
G75*
G02*
X179024000Y-63752000I0J150000D01*
G01*
X179024000Y-62102000D01*
G75*
G02*
X179174000Y-61952000I150000J0D01*
G01*
X179474000Y-61952000D01*
G75*
G02*
X179624000Y-62102000I0J-150000D01*
G01*
X179624000Y-63752000D01*
G75*
G02*
X179474000Y-63902000I-150000J0D01*
G01*
G37*
G36*
G01*
X178204000Y-63902000D02*
X177904000Y-63902000D01*
G75*
G02*
X177754000Y-63752000I0J150000D01*
G01*
X177754000Y-62102000D01*
G75*
G02*
X177904000Y-61952000I150000J0D01*
G01*
X178204000Y-61952000D01*
G75*
G02*
X178354000Y-62102000I0J-150000D01*
G01*
X178354000Y-63752000D01*
G75*
G02*
X178204000Y-63902000I-150000J0D01*
G01*
G37*
G36*
G01*
X176934000Y-63902000D02*
X176634000Y-63902000D01*
G75*
G02*
X176484000Y-63752000I0J150000D01*
G01*
X176484000Y-62102000D01*
G75*
G02*
X176634000Y-61952000I150000J0D01*
G01*
X176934000Y-61952000D01*
G75*
G02*
X177084000Y-62102000I0J-150000D01*
G01*
X177084000Y-63752000D01*
G75*
G02*
X176934000Y-63902000I-150000J0D01*
G01*
G37*
G36*
G01*
X175664000Y-63902000D02*
X175364000Y-63902000D01*
G75*
G02*
X175214000Y-63752000I0J150000D01*
G01*
X175214000Y-62102000D01*
G75*
G02*
X175364000Y-61952000I150000J0D01*
G01*
X175664000Y-61952000D01*
G75*
G02*
X175814000Y-62102000I0J-150000D01*
G01*
X175814000Y-63752000D01*
G75*
G02*
X175664000Y-63902000I-150000J0D01*
G01*
G37*
G36*
G01*
X174394000Y-63902000D02*
X174094000Y-63902000D01*
G75*
G02*
X173944000Y-63752000I0J150000D01*
G01*
X173944000Y-62102000D01*
G75*
G02*
X174094000Y-61952000I150000J0D01*
G01*
X174394000Y-61952000D01*
G75*
G02*
X174544000Y-62102000I0J-150000D01*
G01*
X174544000Y-63752000D01*
G75*
G02*
X174394000Y-63902000I-150000J0D01*
G01*
G37*
G36*
G01*
X173124000Y-63902000D02*
X172824000Y-63902000D01*
G75*
G02*
X172674000Y-63752000I0J150000D01*
G01*
X172674000Y-62102000D01*
G75*
G02*
X172824000Y-61952000I150000J0D01*
G01*
X173124000Y-61952000D01*
G75*
G02*
X173274000Y-62102000I0J-150000D01*
G01*
X173274000Y-63752000D01*
G75*
G02*
X173124000Y-63902000I-150000J0D01*
G01*
G37*
G36*
G01*
X159842000Y-29648999D02*
X159842000Y-30549001D01*
G75*
G02*
X159592001Y-30799000I-249999J0D01*
G01*
X158891999Y-30799000D01*
G75*
G02*
X158642000Y-30549001I0J249999D01*
G01*
X158642000Y-29648999D01*
G75*
G02*
X158891999Y-29399000I249999J0D01*
G01*
X159592001Y-29399000D01*
G75*
G02*
X159842000Y-29648999I0J-249999D01*
G01*
G37*
G36*
G01*
X157842000Y-29648999D02*
X157842000Y-30549001D01*
G75*
G02*
X157592001Y-30799000I-249999J0D01*
G01*
X156891999Y-30799000D01*
G75*
G02*
X156642000Y-30549001I0J249999D01*
G01*
X156642000Y-29648999D01*
G75*
G02*
X156891999Y-29399000I249999J0D01*
G01*
X157592001Y-29399000D01*
G75*
G02*
X157842000Y-29648999I0J-249999D01*
G01*
G37*
G36*
G01*
X167305000Y-31003002D02*
X167305000Y-29702998D01*
G75*
G02*
X167554998Y-29453000I249998J0D01*
G01*
X168630002Y-29453000D01*
G75*
G02*
X168880000Y-29702998I0J-249998D01*
G01*
X168880000Y-31003002D01*
G75*
G02*
X168630002Y-31253000I-249998J0D01*
G01*
X167554998Y-31253000D01*
G75*
G02*
X167305000Y-31003002I0J249998D01*
G01*
G37*
G36*
G01*
X171480000Y-31003002D02*
X171480000Y-29702998D01*
G75*
G02*
X171729998Y-29453000I249998J0D01*
G01*
X172805002Y-29453000D01*
G75*
G02*
X173055000Y-29702998I0J-249998D01*
G01*
X173055000Y-31003002D01*
G75*
G02*
X172805002Y-31253000I-249998J0D01*
G01*
X171729998Y-31253000D01*
G75*
G02*
X171480000Y-31003002I0J249998D01*
G01*
G37*
G36*
G01*
X90022000Y-104798000D02*
X90022000Y-104498000D01*
G75*
G02*
X90172000Y-104348000I150000J0D01*
G01*
X91822000Y-104348000D01*
G75*
G02*
X91972000Y-104498000I0J-150000D01*
G01*
X91972000Y-104798000D01*
G75*
G02*
X91822000Y-104948000I-150000J0D01*
G01*
X90172000Y-104948000D01*
G75*
G02*
X90022000Y-104798000I0J150000D01*
G01*
G37*
G36*
G01*
X90022000Y-106068000D02*
X90022000Y-105768000D01*
G75*
G02*
X90172000Y-105618000I150000J0D01*
G01*
X91822000Y-105618000D01*
G75*
G02*
X91972000Y-105768000I0J-150000D01*
G01*
X91972000Y-106068000D01*
G75*
G02*
X91822000Y-106218000I-150000J0D01*
G01*
X90172000Y-106218000D01*
G75*
G02*
X90022000Y-106068000I0J150000D01*
G01*
G37*
G36*
G01*
X90022000Y-107338000D02*
X90022000Y-107038000D01*
G75*
G02*
X90172000Y-106888000I150000J0D01*
G01*
X91822000Y-106888000D01*
G75*
G02*
X91972000Y-107038000I0J-150000D01*
G01*
X91972000Y-107338000D01*
G75*
G02*
X91822000Y-107488000I-150000J0D01*
G01*
X90172000Y-107488000D01*
G75*
G02*
X90022000Y-107338000I0J150000D01*
G01*
G37*
G36*
G01*
X90022000Y-108608000D02*
X90022000Y-108308000D01*
G75*
G02*
X90172000Y-108158000I150000J0D01*
G01*
X91822000Y-108158000D01*
G75*
G02*
X91972000Y-108308000I0J-150000D01*
G01*
X91972000Y-108608000D01*
G75*
G02*
X91822000Y-108758000I-150000J0D01*
G01*
X90172000Y-108758000D01*
G75*
G02*
X90022000Y-108608000I0J150000D01*
G01*
G37*
G36*
G01*
X94972000Y-108608000D02*
X94972000Y-108308000D01*
G75*
G02*
X95122000Y-108158000I150000J0D01*
G01*
X96772000Y-108158000D01*
G75*
G02*
X96922000Y-108308000I0J-150000D01*
G01*
X96922000Y-108608000D01*
G75*
G02*
X96772000Y-108758000I-150000J0D01*
G01*
X95122000Y-108758000D01*
G75*
G02*
X94972000Y-108608000I0J150000D01*
G01*
G37*
G36*
G01*
X94972000Y-107338000D02*
X94972000Y-107038000D01*
G75*
G02*
X95122000Y-106888000I150000J0D01*
G01*
X96772000Y-106888000D01*
G75*
G02*
X96922000Y-107038000I0J-150000D01*
G01*
X96922000Y-107338000D01*
G75*
G02*
X96772000Y-107488000I-150000J0D01*
G01*
X95122000Y-107488000D01*
G75*
G02*
X94972000Y-107338000I0J150000D01*
G01*
G37*
G36*
G01*
X94972000Y-106068000D02*
X94972000Y-105768000D01*
G75*
G02*
X95122000Y-105618000I150000J0D01*
G01*
X96772000Y-105618000D01*
G75*
G02*
X96922000Y-105768000I0J-150000D01*
G01*
X96922000Y-106068000D01*
G75*
G02*
X96772000Y-106218000I-150000J0D01*
G01*
X95122000Y-106218000D01*
G75*
G02*
X94972000Y-106068000I0J150000D01*
G01*
G37*
G36*
G01*
X94972000Y-104798000D02*
X94972000Y-104498000D01*
G75*
G02*
X95122000Y-104348000I150000J0D01*
G01*
X96772000Y-104348000D01*
G75*
G02*
X96922000Y-104498000I0J-150000D01*
G01*
X96922000Y-104798000D01*
G75*
G02*
X96772000Y-104948000I-150000J0D01*
G01*
X95122000Y-104948000D01*
G75*
G02*
X94972000Y-104798000I0J150000D01*
G01*
G37*
G36*
G01*
X89937500Y-119801000D02*
X91037500Y-119801000D01*
G75*
G02*
X91287500Y-120051000I0J-250000D01*
G01*
X91287500Y-122326000D01*
G75*
G02*
X91037500Y-122576000I-250000J0D01*
G01*
X89937500Y-122576000D01*
G75*
G02*
X89687500Y-122326000I0J250000D01*
G01*
X89687500Y-120051000D01*
G75*
G02*
X89937500Y-119801000I250000J0D01*
G01*
G37*
G36*
G01*
X89937500Y-115676000D02*
X91037500Y-115676000D01*
G75*
G02*
X91287500Y-115926000I0J-250000D01*
G01*
X91287500Y-118201000D01*
G75*
G02*
X91037500Y-118451000I-250000J0D01*
G01*
X89937500Y-118451000D01*
G75*
G02*
X89687500Y-118201000I0J250000D01*
G01*
X89687500Y-115926000D01*
G75*
G02*
X89937500Y-115676000I250000J0D01*
G01*
G37*
G36*
G01*
X149331000Y-36618000D02*
X149331000Y-35518000D01*
G75*
G02*
X149581000Y-35268000I250000J0D01*
G01*
X151856000Y-35268000D01*
G75*
G02*
X152106000Y-35518000I0J-250000D01*
G01*
X152106000Y-36618000D01*
G75*
G02*
X151856000Y-36868000I-250000J0D01*
G01*
X149581000Y-36868000D01*
G75*
G02*
X149331000Y-36618000I0J250000D01*
G01*
G37*
G36*
G01*
X153456000Y-36618000D02*
X153456000Y-35518000D01*
G75*
G02*
X153706000Y-35268000I250000J0D01*
G01*
X155981000Y-35268000D01*
G75*
G02*
X156231000Y-35518000I0J-250000D01*
G01*
X156231000Y-36618000D01*
G75*
G02*
X155981000Y-36868000I-250000J0D01*
G01*
X153706000Y-36868000D01*
G75*
G02*
X153456000Y-36618000I0J250000D01*
G01*
G37*
G36*
G01*
X249597000Y-71143500D02*
X248497000Y-71143500D01*
G75*
G02*
X248247000Y-70893500I0J250000D01*
G01*
X248247000Y-68618500D01*
G75*
G02*
X248497000Y-68368500I250000J0D01*
G01*
X249597000Y-68368500D01*
G75*
G02*
X249847000Y-68618500I0J-250000D01*
G01*
X249847000Y-70893500D01*
G75*
G02*
X249597000Y-71143500I-250000J0D01*
G01*
G37*
G36*
G01*
X249597000Y-75268500D02*
X248497000Y-75268500D01*
G75*
G02*
X248247000Y-75018500I0J250000D01*
G01*
X248247000Y-72743500D01*
G75*
G02*
X248497000Y-72493500I250000J0D01*
G01*
X249597000Y-72493500D01*
G75*
G02*
X249847000Y-72743500I0J-250000D01*
G01*
X249847000Y-75018500D01*
G75*
G02*
X249597000Y-75268500I-250000J0D01*
G01*
G37*
G36*
G01*
X244200000Y-118787000D02*
X244200000Y-117687000D01*
G75*
G02*
X244450000Y-117437000I250000J0D01*
G01*
X246725000Y-117437000D01*
G75*
G02*
X246975000Y-117687000I0J-250000D01*
G01*
X246975000Y-118787000D01*
G75*
G02*
X246725000Y-119037000I-250000J0D01*
G01*
X244450000Y-119037000D01*
G75*
G02*
X244200000Y-118787000I0J250000D01*
G01*
G37*
G36*
G01*
X248325000Y-118787000D02*
X248325000Y-117687000D01*
G75*
G02*
X248575000Y-117437000I250000J0D01*
G01*
X250850000Y-117437000D01*
G75*
G02*
X251100000Y-117687000I0J-250000D01*
G01*
X251100000Y-118787000D01*
G75*
G02*
X250850000Y-119037000I-250000J0D01*
G01*
X248575000Y-119037000D01*
G75*
G02*
X248325000Y-118787000I0J250000D01*
G01*
G37*
G36*
G01*
X81052000Y-54969800D02*
X81052000Y-55919800D01*
G75*
G02*
X80802000Y-56169800I-250000J0D01*
G01*
X80127000Y-56169800D01*
G75*
G02*
X79877000Y-55919800I0J250000D01*
G01*
X79877000Y-54969800D01*
G75*
G02*
X80127000Y-54719800I250000J0D01*
G01*
X80802000Y-54719800D01*
G75*
G02*
X81052000Y-54969800I0J-250000D01*
G01*
G37*
G36*
G01*
X83127000Y-54969800D02*
X83127000Y-55919800D01*
G75*
G02*
X82877000Y-56169800I-250000J0D01*
G01*
X82202000Y-56169800D01*
G75*
G02*
X81952000Y-55919800I0J250000D01*
G01*
X81952000Y-54969800D01*
G75*
G02*
X82202000Y-54719800I250000J0D01*
G01*
X82877000Y-54719800D01*
G75*
G02*
X83127000Y-54969800I0J-250000D01*
G01*
G37*
G36*
G01*
X95859000Y-102014000D02*
X95859000Y-102964000D01*
G75*
G02*
X95609000Y-103214000I-250000J0D01*
G01*
X94934000Y-103214000D01*
G75*
G02*
X94684000Y-102964000I0J250000D01*
G01*
X94684000Y-102014000D01*
G75*
G02*
X94934000Y-101764000I250000J0D01*
G01*
X95609000Y-101764000D01*
G75*
G02*
X95859000Y-102014000I0J-250000D01*
G01*
G37*
G36*
G01*
X93784000Y-102014000D02*
X93784000Y-102964000D01*
G75*
G02*
X93534000Y-103214000I-250000J0D01*
G01*
X92859000Y-103214000D01*
G75*
G02*
X92609000Y-102964000I0J250000D01*
G01*
X92609000Y-102014000D01*
G75*
G02*
X92859000Y-101764000I250000J0D01*
G01*
X93534000Y-101764000D01*
G75*
G02*
X93784000Y-102014000I0J-250000D01*
G01*
G37*
G36*
G01*
X206383000Y-99903000D02*
X207333000Y-99903000D01*
G75*
G02*
X207583000Y-100153000I0J-250000D01*
G01*
X207583000Y-100828000D01*
G75*
G02*
X207333000Y-101078000I-250000J0D01*
G01*
X206383000Y-101078000D01*
G75*
G02*
X206133000Y-100828000I0J250000D01*
G01*
X206133000Y-100153000D01*
G75*
G02*
X206383000Y-99903000I250000J0D01*
G01*
G37*
G36*
G01*
X206383000Y-101978000D02*
X207333000Y-101978000D01*
G75*
G02*
X207583000Y-102228000I0J-250000D01*
G01*
X207583000Y-102903000D01*
G75*
G02*
X207333000Y-103153000I-250000J0D01*
G01*
X206383000Y-103153000D01*
G75*
G02*
X206133000Y-102903000I0J250000D01*
G01*
X206133000Y-102228000D01*
G75*
G02*
X206383000Y-101978000I250000J0D01*
G01*
G37*
G36*
G01*
X246279000Y-123157000D02*
X246279000Y-122207000D01*
G75*
G02*
X246529000Y-121957000I250000J0D01*
G01*
X247204000Y-121957000D01*
G75*
G02*
X247454000Y-122207000I0J-250000D01*
G01*
X247454000Y-123157000D01*
G75*
G02*
X247204000Y-123407000I-250000J0D01*
G01*
X246529000Y-123407000D01*
G75*
G02*
X246279000Y-123157000I0J250000D01*
G01*
G37*
G36*
G01*
X248354000Y-123157000D02*
X248354000Y-122207000D01*
G75*
G02*
X248604000Y-121957000I250000J0D01*
G01*
X249279000Y-121957000D01*
G75*
G02*
X249529000Y-122207000I0J-250000D01*
G01*
X249529000Y-123157000D01*
G75*
G02*
X249279000Y-123407000I-250000J0D01*
G01*
X248604000Y-123407000D01*
G75*
G02*
X248354000Y-123157000I0J250000D01*
G01*
G37*
G36*
G01*
X113333000Y-31565001D02*
X113333000Y-30664999D01*
G75*
G02*
X113582999Y-30415000I249999J0D01*
G01*
X114283001Y-30415000D01*
G75*
G02*
X114533000Y-30664999I0J-249999D01*
G01*
X114533000Y-31565001D01*
G75*
G02*
X114283001Y-31815000I-249999J0D01*
G01*
X113582999Y-31815000D01*
G75*
G02*
X113333000Y-31565001I0J249999D01*
G01*
G37*
G36*
G01*
X111333000Y-31565001D02*
X111333000Y-30664999D01*
G75*
G02*
X111582999Y-30415000I249999J0D01*
G01*
X112283001Y-30415000D01*
G75*
G02*
X112533000Y-30664999I0J-249999D01*
G01*
X112533000Y-31565001D01*
G75*
G02*
X112283001Y-31815000I-249999J0D01*
G01*
X111582999Y-31815000D01*
G75*
G02*
X111333000Y-31565001I0J249999D01*
G01*
G37*
G36*
G01*
X162865000Y-30549001D02*
X162865000Y-29648999D01*
G75*
G02*
X163114999Y-29399000I249999J0D01*
G01*
X163815001Y-29399000D01*
G75*
G02*
X164065000Y-29648999I0J-249999D01*
G01*
X164065000Y-30549001D01*
G75*
G02*
X163815001Y-30799000I-249999J0D01*
G01*
X163114999Y-30799000D01*
G75*
G02*
X162865000Y-30549001I0J249999D01*
G01*
G37*
G36*
G01*
X164865000Y-30549001D02*
X164865000Y-29648999D01*
G75*
G02*
X165114999Y-29399000I249999J0D01*
G01*
X165815001Y-29399000D01*
G75*
G02*
X166065000Y-29648999I0J-249999D01*
G01*
X166065000Y-30549001D01*
G75*
G02*
X165815001Y-30799000I-249999J0D01*
G01*
X165114999Y-30799000D01*
G75*
G02*
X164865000Y-30549001I0J249999D01*
G01*
G37*
G36*
G01*
X106910999Y-29460000D02*
X109811001Y-29460000D01*
G75*
G02*
X110061000Y-29709999I0J-249999D01*
G01*
X110061000Y-30785001D01*
G75*
G02*
X109811001Y-31035000I-249999J0D01*
G01*
X106910999Y-31035000D01*
G75*
G02*
X106661000Y-30785001I0J249999D01*
G01*
X106661000Y-29709999D01*
G75*
G02*
X106910999Y-29460000I249999J0D01*
G01*
G37*
G36*
G01*
X106910999Y-33735000D02*
X109811001Y-33735000D01*
G75*
G02*
X110061000Y-33984999I0J-249999D01*
G01*
X110061000Y-35060001D01*
G75*
G02*
X109811001Y-35310000I-249999J0D01*
G01*
X106910999Y-35310000D01*
G75*
G02*
X106661000Y-35060001I0J249999D01*
G01*
X106661000Y-33984999D01*
G75*
G02*
X106910999Y-33735000I249999J0D01*
G01*
G37*
D10*
X100369000Y-31075500D03*
X100369000Y-34075500D03*
D11*
G36*
X105819000Y-33442000D02*
G01*
X101694000Y-33442000D01*
X101694000Y-33025500D01*
X99219000Y-33025500D01*
X99219000Y-32125500D01*
X101694000Y-32125500D01*
X101694000Y-31709000D01*
X105819000Y-31709000D01*
X105819000Y-33442000D01*
G37*
G36*
G01*
X169949000Y-79462000D02*
X169649000Y-79462000D01*
G75*
G02*
X169499000Y-79312000I0J150000D01*
G01*
X169499000Y-77562000D01*
G75*
G02*
X169649000Y-77412000I150000J0D01*
G01*
X169949000Y-77412000D01*
G75*
G02*
X170099000Y-77562000I0J-150000D01*
G01*
X170099000Y-79312000D01*
G75*
G02*
X169949000Y-79462000I-150000J0D01*
G01*
G37*
G36*
G01*
X171219000Y-79462000D02*
X170919000Y-79462000D01*
G75*
G02*
X170769000Y-79312000I0J150000D01*
G01*
X170769000Y-77562000D01*
G75*
G02*
X170919000Y-77412000I150000J0D01*
G01*
X171219000Y-77412000D01*
G75*
G02*
X171369000Y-77562000I0J-150000D01*
G01*
X171369000Y-79312000D01*
G75*
G02*
X171219000Y-79462000I-150000J0D01*
G01*
G37*
G36*
G01*
X172489000Y-79462000D02*
X172189000Y-79462000D01*
G75*
G02*
X172039000Y-79312000I0J150000D01*
G01*
X172039000Y-77562000D01*
G75*
G02*
X172189000Y-77412000I150000J0D01*
G01*
X172489000Y-77412000D01*
G75*
G02*
X172639000Y-77562000I0J-150000D01*
G01*
X172639000Y-79312000D01*
G75*
G02*
X172489000Y-79462000I-150000J0D01*
G01*
G37*
G36*
G01*
X173759000Y-79462000D02*
X173459000Y-79462000D01*
G75*
G02*
X173309000Y-79312000I0J150000D01*
G01*
X173309000Y-77562000D01*
G75*
G02*
X173459000Y-77412000I150000J0D01*
G01*
X173759000Y-77412000D01*
G75*
G02*
X173909000Y-77562000I0J-150000D01*
G01*
X173909000Y-79312000D01*
G75*
G02*
X173759000Y-79462000I-150000J0D01*
G01*
G37*
G36*
G01*
X175029000Y-79462000D02*
X174729000Y-79462000D01*
G75*
G02*
X174579000Y-79312000I0J150000D01*
G01*
X174579000Y-77562000D01*
G75*
G02*
X174729000Y-77412000I150000J0D01*
G01*
X175029000Y-77412000D01*
G75*
G02*
X175179000Y-77562000I0J-150000D01*
G01*
X175179000Y-79312000D01*
G75*
G02*
X175029000Y-79462000I-150000J0D01*
G01*
G37*
G36*
G01*
X176299000Y-79462000D02*
X175999000Y-79462000D01*
G75*
G02*
X175849000Y-79312000I0J150000D01*
G01*
X175849000Y-77562000D01*
G75*
G02*
X175999000Y-77412000I150000J0D01*
G01*
X176299000Y-77412000D01*
G75*
G02*
X176449000Y-77562000I0J-150000D01*
G01*
X176449000Y-79312000D01*
G75*
G02*
X176299000Y-79462000I-150000J0D01*
G01*
G37*
G36*
G01*
X177569000Y-79462000D02*
X177269000Y-79462000D01*
G75*
G02*
X177119000Y-79312000I0J150000D01*
G01*
X177119000Y-77562000D01*
G75*
G02*
X177269000Y-77412000I150000J0D01*
G01*
X177569000Y-77412000D01*
G75*
G02*
X177719000Y-77562000I0J-150000D01*
G01*
X177719000Y-79312000D01*
G75*
G02*
X177569000Y-79462000I-150000J0D01*
G01*
G37*
G36*
G01*
X178839000Y-79462000D02*
X178539000Y-79462000D01*
G75*
G02*
X178389000Y-79312000I0J150000D01*
G01*
X178389000Y-77562000D01*
G75*
G02*
X178539000Y-77412000I150000J0D01*
G01*
X178839000Y-77412000D01*
G75*
G02*
X178989000Y-77562000I0J-150000D01*
G01*
X178989000Y-79312000D01*
G75*
G02*
X178839000Y-79462000I-150000J0D01*
G01*
G37*
G36*
G01*
X180109000Y-79462000D02*
X179809000Y-79462000D01*
G75*
G02*
X179659000Y-79312000I0J150000D01*
G01*
X179659000Y-77562000D01*
G75*
G02*
X179809000Y-77412000I150000J0D01*
G01*
X180109000Y-77412000D01*
G75*
G02*
X180259000Y-77562000I0J-150000D01*
G01*
X180259000Y-79312000D01*
G75*
G02*
X180109000Y-79462000I-150000J0D01*
G01*
G37*
G36*
G01*
X181379000Y-79462000D02*
X181079000Y-79462000D01*
G75*
G02*
X180929000Y-79312000I0J150000D01*
G01*
X180929000Y-77562000D01*
G75*
G02*
X181079000Y-77412000I150000J0D01*
G01*
X181379000Y-77412000D01*
G75*
G02*
X181529000Y-77562000I0J-150000D01*
G01*
X181529000Y-79312000D01*
G75*
G02*
X181379000Y-79462000I-150000J0D01*
G01*
G37*
G36*
G01*
X182649000Y-79462000D02*
X182349000Y-79462000D01*
G75*
G02*
X182199000Y-79312000I0J150000D01*
G01*
X182199000Y-77562000D01*
G75*
G02*
X182349000Y-77412000I150000J0D01*
G01*
X182649000Y-77412000D01*
G75*
G02*
X182799000Y-77562000I0J-150000D01*
G01*
X182799000Y-79312000D01*
G75*
G02*
X182649000Y-79462000I-150000J0D01*
G01*
G37*
G36*
G01*
X183919000Y-79462000D02*
X183619000Y-79462000D01*
G75*
G02*
X183469000Y-79312000I0J150000D01*
G01*
X183469000Y-77562000D01*
G75*
G02*
X183619000Y-77412000I150000J0D01*
G01*
X183919000Y-77412000D01*
G75*
G02*
X184069000Y-77562000I0J-150000D01*
G01*
X184069000Y-79312000D01*
G75*
G02*
X183919000Y-79462000I-150000J0D01*
G01*
G37*
G36*
G01*
X183919000Y-70162000D02*
X183619000Y-70162000D01*
G75*
G02*
X183469000Y-70012000I0J150000D01*
G01*
X183469000Y-68262000D01*
G75*
G02*
X183619000Y-68112000I150000J0D01*
G01*
X183919000Y-68112000D01*
G75*
G02*
X184069000Y-68262000I0J-150000D01*
G01*
X184069000Y-70012000D01*
G75*
G02*
X183919000Y-70162000I-150000J0D01*
G01*
G37*
G36*
G01*
X182649000Y-70162000D02*
X182349000Y-70162000D01*
G75*
G02*
X182199000Y-70012000I0J150000D01*
G01*
X182199000Y-68262000D01*
G75*
G02*
X182349000Y-68112000I150000J0D01*
G01*
X182649000Y-68112000D01*
G75*
G02*
X182799000Y-68262000I0J-150000D01*
G01*
X182799000Y-70012000D01*
G75*
G02*
X182649000Y-70162000I-150000J0D01*
G01*
G37*
G36*
G01*
X181379000Y-70162000D02*
X181079000Y-70162000D01*
G75*
G02*
X180929000Y-70012000I0J150000D01*
G01*
X180929000Y-68262000D01*
G75*
G02*
X181079000Y-68112000I150000J0D01*
G01*
X181379000Y-68112000D01*
G75*
G02*
X181529000Y-68262000I0J-150000D01*
G01*
X181529000Y-70012000D01*
G75*
G02*
X181379000Y-70162000I-150000J0D01*
G01*
G37*
G36*
G01*
X180109000Y-70162000D02*
X179809000Y-70162000D01*
G75*
G02*
X179659000Y-70012000I0J150000D01*
G01*
X179659000Y-68262000D01*
G75*
G02*
X179809000Y-68112000I150000J0D01*
G01*
X180109000Y-68112000D01*
G75*
G02*
X180259000Y-68262000I0J-150000D01*
G01*
X180259000Y-70012000D01*
G75*
G02*
X180109000Y-70162000I-150000J0D01*
G01*
G37*
G36*
G01*
X178839000Y-70162000D02*
X178539000Y-70162000D01*
G75*
G02*
X178389000Y-70012000I0J150000D01*
G01*
X178389000Y-68262000D01*
G75*
G02*
X178539000Y-68112000I150000J0D01*
G01*
X178839000Y-68112000D01*
G75*
G02*
X178989000Y-68262000I0J-150000D01*
G01*
X178989000Y-70012000D01*
G75*
G02*
X178839000Y-70162000I-150000J0D01*
G01*
G37*
G36*
G01*
X177569000Y-70162000D02*
X177269000Y-70162000D01*
G75*
G02*
X177119000Y-70012000I0J150000D01*
G01*
X177119000Y-68262000D01*
G75*
G02*
X177269000Y-68112000I150000J0D01*
G01*
X177569000Y-68112000D01*
G75*
G02*
X177719000Y-68262000I0J-150000D01*
G01*
X177719000Y-70012000D01*
G75*
G02*
X177569000Y-70162000I-150000J0D01*
G01*
G37*
G36*
G01*
X176299000Y-70162000D02*
X175999000Y-70162000D01*
G75*
G02*
X175849000Y-70012000I0J150000D01*
G01*
X175849000Y-68262000D01*
G75*
G02*
X175999000Y-68112000I150000J0D01*
G01*
X176299000Y-68112000D01*
G75*
G02*
X176449000Y-68262000I0J-150000D01*
G01*
X176449000Y-70012000D01*
G75*
G02*
X176299000Y-70162000I-150000J0D01*
G01*
G37*
G36*
G01*
X175029000Y-70162000D02*
X174729000Y-70162000D01*
G75*
G02*
X174579000Y-70012000I0J150000D01*
G01*
X174579000Y-68262000D01*
G75*
G02*
X174729000Y-68112000I150000J0D01*
G01*
X175029000Y-68112000D01*
G75*
G02*
X175179000Y-68262000I0J-150000D01*
G01*
X175179000Y-70012000D01*
G75*
G02*
X175029000Y-70162000I-150000J0D01*
G01*
G37*
G36*
G01*
X173759000Y-70162000D02*
X173459000Y-70162000D01*
G75*
G02*
X173309000Y-70012000I0J150000D01*
G01*
X173309000Y-68262000D01*
G75*
G02*
X173459000Y-68112000I150000J0D01*
G01*
X173759000Y-68112000D01*
G75*
G02*
X173909000Y-68262000I0J-150000D01*
G01*
X173909000Y-70012000D01*
G75*
G02*
X173759000Y-70162000I-150000J0D01*
G01*
G37*
G36*
G01*
X172489000Y-70162000D02*
X172189000Y-70162000D01*
G75*
G02*
X172039000Y-70012000I0J150000D01*
G01*
X172039000Y-68262000D01*
G75*
G02*
X172189000Y-68112000I150000J0D01*
G01*
X172489000Y-68112000D01*
G75*
G02*
X172639000Y-68262000I0J-150000D01*
G01*
X172639000Y-70012000D01*
G75*
G02*
X172489000Y-70162000I-150000J0D01*
G01*
G37*
G36*
G01*
X171219000Y-70162000D02*
X170919000Y-70162000D01*
G75*
G02*
X170769000Y-70012000I0J150000D01*
G01*
X170769000Y-68262000D01*
G75*
G02*
X170919000Y-68112000I150000J0D01*
G01*
X171219000Y-68112000D01*
G75*
G02*
X171369000Y-68262000I0J-150000D01*
G01*
X171369000Y-70012000D01*
G75*
G02*
X171219000Y-70162000I-150000J0D01*
G01*
G37*
G36*
G01*
X169949000Y-70162000D02*
X169649000Y-70162000D01*
G75*
G02*
X169499000Y-70012000I0J150000D01*
G01*
X169499000Y-68262000D01*
G75*
G02*
X169649000Y-68112000I150000J0D01*
G01*
X169949000Y-68112000D01*
G75*
G02*
X170099000Y-68262000I0J-150000D01*
G01*
X170099000Y-70012000D01*
G75*
G02*
X169949000Y-70162000I-150000J0D01*
G01*
G37*
G36*
G01*
X169949000Y-94448000D02*
X169649000Y-94448000D01*
G75*
G02*
X169499000Y-94298000I0J150000D01*
G01*
X169499000Y-92548000D01*
G75*
G02*
X169649000Y-92398000I150000J0D01*
G01*
X169949000Y-92398000D01*
G75*
G02*
X170099000Y-92548000I0J-150000D01*
G01*
X170099000Y-94298000D01*
G75*
G02*
X169949000Y-94448000I-150000J0D01*
G01*
G37*
G36*
G01*
X171219000Y-94448000D02*
X170919000Y-94448000D01*
G75*
G02*
X170769000Y-94298000I0J150000D01*
G01*
X170769000Y-92548000D01*
G75*
G02*
X170919000Y-92398000I150000J0D01*
G01*
X171219000Y-92398000D01*
G75*
G02*
X171369000Y-92548000I0J-150000D01*
G01*
X171369000Y-94298000D01*
G75*
G02*
X171219000Y-94448000I-150000J0D01*
G01*
G37*
G36*
G01*
X172489000Y-94448000D02*
X172189000Y-94448000D01*
G75*
G02*
X172039000Y-94298000I0J150000D01*
G01*
X172039000Y-92548000D01*
G75*
G02*
X172189000Y-92398000I150000J0D01*
G01*
X172489000Y-92398000D01*
G75*
G02*
X172639000Y-92548000I0J-150000D01*
G01*
X172639000Y-94298000D01*
G75*
G02*
X172489000Y-94448000I-150000J0D01*
G01*
G37*
G36*
G01*
X173759000Y-94448000D02*
X173459000Y-94448000D01*
G75*
G02*
X173309000Y-94298000I0J150000D01*
G01*
X173309000Y-92548000D01*
G75*
G02*
X173459000Y-92398000I150000J0D01*
G01*
X173759000Y-92398000D01*
G75*
G02*
X173909000Y-92548000I0J-150000D01*
G01*
X173909000Y-94298000D01*
G75*
G02*
X173759000Y-94448000I-150000J0D01*
G01*
G37*
G36*
G01*
X175029000Y-94448000D02*
X174729000Y-94448000D01*
G75*
G02*
X174579000Y-94298000I0J150000D01*
G01*
X174579000Y-92548000D01*
G75*
G02*
X174729000Y-92398000I150000J0D01*
G01*
X175029000Y-92398000D01*
G75*
G02*
X175179000Y-92548000I0J-150000D01*
G01*
X175179000Y-94298000D01*
G75*
G02*
X175029000Y-94448000I-150000J0D01*
G01*
G37*
G36*
G01*
X176299000Y-94448000D02*
X175999000Y-94448000D01*
G75*
G02*
X175849000Y-94298000I0J150000D01*
G01*
X175849000Y-92548000D01*
G75*
G02*
X175999000Y-92398000I150000J0D01*
G01*
X176299000Y-92398000D01*
G75*
G02*
X176449000Y-92548000I0J-150000D01*
G01*
X176449000Y-94298000D01*
G75*
G02*
X176299000Y-94448000I-150000J0D01*
G01*
G37*
G36*
G01*
X177569000Y-94448000D02*
X177269000Y-94448000D01*
G75*
G02*
X177119000Y-94298000I0J150000D01*
G01*
X177119000Y-92548000D01*
G75*
G02*
X177269000Y-92398000I150000J0D01*
G01*
X177569000Y-92398000D01*
G75*
G02*
X177719000Y-92548000I0J-150000D01*
G01*
X177719000Y-94298000D01*
G75*
G02*
X177569000Y-94448000I-150000J0D01*
G01*
G37*
G36*
G01*
X178839000Y-94448000D02*
X178539000Y-94448000D01*
G75*
G02*
X178389000Y-94298000I0J150000D01*
G01*
X178389000Y-92548000D01*
G75*
G02*
X178539000Y-92398000I150000J0D01*
G01*
X178839000Y-92398000D01*
G75*
G02*
X178989000Y-92548000I0J-150000D01*
G01*
X178989000Y-94298000D01*
G75*
G02*
X178839000Y-94448000I-150000J0D01*
G01*
G37*
G36*
G01*
X180109000Y-94448000D02*
X179809000Y-94448000D01*
G75*
G02*
X179659000Y-94298000I0J150000D01*
G01*
X179659000Y-92548000D01*
G75*
G02*
X179809000Y-92398000I150000J0D01*
G01*
X180109000Y-92398000D01*
G75*
G02*
X180259000Y-92548000I0J-150000D01*
G01*
X180259000Y-94298000D01*
G75*
G02*
X180109000Y-94448000I-150000J0D01*
G01*
G37*
G36*
G01*
X181379000Y-94448000D02*
X181079000Y-94448000D01*
G75*
G02*
X180929000Y-94298000I0J150000D01*
G01*
X180929000Y-92548000D01*
G75*
G02*
X181079000Y-92398000I150000J0D01*
G01*
X181379000Y-92398000D01*
G75*
G02*
X181529000Y-92548000I0J-150000D01*
G01*
X181529000Y-94298000D01*
G75*
G02*
X181379000Y-94448000I-150000J0D01*
G01*
G37*
G36*
G01*
X182649000Y-94448000D02*
X182349000Y-94448000D01*
G75*
G02*
X182199000Y-94298000I0J150000D01*
G01*
X182199000Y-92548000D01*
G75*
G02*
X182349000Y-92398000I150000J0D01*
G01*
X182649000Y-92398000D01*
G75*
G02*
X182799000Y-92548000I0J-150000D01*
G01*
X182799000Y-94298000D01*
G75*
G02*
X182649000Y-94448000I-150000J0D01*
G01*
G37*
G36*
G01*
X183919000Y-94448000D02*
X183619000Y-94448000D01*
G75*
G02*
X183469000Y-94298000I0J150000D01*
G01*
X183469000Y-92548000D01*
G75*
G02*
X183619000Y-92398000I150000J0D01*
G01*
X183919000Y-92398000D01*
G75*
G02*
X184069000Y-92548000I0J-150000D01*
G01*
X184069000Y-94298000D01*
G75*
G02*
X183919000Y-94448000I-150000J0D01*
G01*
G37*
G36*
G01*
X183919000Y-85148000D02*
X183619000Y-85148000D01*
G75*
G02*
X183469000Y-84998000I0J150000D01*
G01*
X183469000Y-83248000D01*
G75*
G02*
X183619000Y-83098000I150000J0D01*
G01*
X183919000Y-83098000D01*
G75*
G02*
X184069000Y-83248000I0J-150000D01*
G01*
X184069000Y-84998000D01*
G75*
G02*
X183919000Y-85148000I-150000J0D01*
G01*
G37*
G36*
G01*
X182649000Y-85148000D02*
X182349000Y-85148000D01*
G75*
G02*
X182199000Y-84998000I0J150000D01*
G01*
X182199000Y-83248000D01*
G75*
G02*
X182349000Y-83098000I150000J0D01*
G01*
X182649000Y-83098000D01*
G75*
G02*
X182799000Y-83248000I0J-150000D01*
G01*
X182799000Y-84998000D01*
G75*
G02*
X182649000Y-85148000I-150000J0D01*
G01*
G37*
G36*
G01*
X181379000Y-85148000D02*
X181079000Y-85148000D01*
G75*
G02*
X180929000Y-84998000I0J150000D01*
G01*
X180929000Y-83248000D01*
G75*
G02*
X181079000Y-83098000I150000J0D01*
G01*
X181379000Y-83098000D01*
G75*
G02*
X181529000Y-83248000I0J-150000D01*
G01*
X181529000Y-84998000D01*
G75*
G02*
X181379000Y-85148000I-150000J0D01*
G01*
G37*
G36*
G01*
X180109000Y-85148000D02*
X179809000Y-85148000D01*
G75*
G02*
X179659000Y-84998000I0J150000D01*
G01*
X179659000Y-83248000D01*
G75*
G02*
X179809000Y-83098000I150000J0D01*
G01*
X180109000Y-83098000D01*
G75*
G02*
X180259000Y-83248000I0J-150000D01*
G01*
X180259000Y-84998000D01*
G75*
G02*
X180109000Y-85148000I-150000J0D01*
G01*
G37*
G36*
G01*
X178839000Y-85148000D02*
X178539000Y-85148000D01*
G75*
G02*
X178389000Y-84998000I0J150000D01*
G01*
X178389000Y-83248000D01*
G75*
G02*
X178539000Y-83098000I150000J0D01*
G01*
X178839000Y-83098000D01*
G75*
G02*
X178989000Y-83248000I0J-150000D01*
G01*
X178989000Y-84998000D01*
G75*
G02*
X178839000Y-85148000I-150000J0D01*
G01*
G37*
G36*
G01*
X177569000Y-85148000D02*
X177269000Y-85148000D01*
G75*
G02*
X177119000Y-84998000I0J150000D01*
G01*
X177119000Y-83248000D01*
G75*
G02*
X177269000Y-83098000I150000J0D01*
G01*
X177569000Y-83098000D01*
G75*
G02*
X177719000Y-83248000I0J-150000D01*
G01*
X177719000Y-84998000D01*
G75*
G02*
X177569000Y-85148000I-150000J0D01*
G01*
G37*
G36*
G01*
X176299000Y-85148000D02*
X175999000Y-85148000D01*
G75*
G02*
X175849000Y-84998000I0J150000D01*
G01*
X175849000Y-83248000D01*
G75*
G02*
X175999000Y-83098000I150000J0D01*
G01*
X176299000Y-83098000D01*
G75*
G02*
X176449000Y-83248000I0J-150000D01*
G01*
X176449000Y-84998000D01*
G75*
G02*
X176299000Y-85148000I-150000J0D01*
G01*
G37*
G36*
G01*
X175029000Y-85148000D02*
X174729000Y-85148000D01*
G75*
G02*
X174579000Y-84998000I0J150000D01*
G01*
X174579000Y-83248000D01*
G75*
G02*
X174729000Y-83098000I150000J0D01*
G01*
X175029000Y-83098000D01*
G75*
G02*
X175179000Y-83248000I0J-150000D01*
G01*
X175179000Y-84998000D01*
G75*
G02*
X175029000Y-85148000I-150000J0D01*
G01*
G37*
G36*
G01*
X173759000Y-85148000D02*
X173459000Y-85148000D01*
G75*
G02*
X173309000Y-84998000I0J150000D01*
G01*
X173309000Y-83248000D01*
G75*
G02*
X173459000Y-83098000I150000J0D01*
G01*
X173759000Y-83098000D01*
G75*
G02*
X173909000Y-83248000I0J-150000D01*
G01*
X173909000Y-84998000D01*
G75*
G02*
X173759000Y-85148000I-150000J0D01*
G01*
G37*
G36*
G01*
X172489000Y-85148000D02*
X172189000Y-85148000D01*
G75*
G02*
X172039000Y-84998000I0J150000D01*
G01*
X172039000Y-83248000D01*
G75*
G02*
X172189000Y-83098000I150000J0D01*
G01*
X172489000Y-83098000D01*
G75*
G02*
X172639000Y-83248000I0J-150000D01*
G01*
X172639000Y-84998000D01*
G75*
G02*
X172489000Y-85148000I-150000J0D01*
G01*
G37*
G36*
G01*
X171219000Y-85148000D02*
X170919000Y-85148000D01*
G75*
G02*
X170769000Y-84998000I0J150000D01*
G01*
X170769000Y-83248000D01*
G75*
G02*
X170919000Y-83098000I150000J0D01*
G01*
X171219000Y-83098000D01*
G75*
G02*
X171369000Y-83248000I0J-150000D01*
G01*
X171369000Y-84998000D01*
G75*
G02*
X171219000Y-85148000I-150000J0D01*
G01*
G37*
G36*
G01*
X169949000Y-85148000D02*
X169649000Y-85148000D01*
G75*
G02*
X169499000Y-84998000I0J150000D01*
G01*
X169499000Y-83248000D01*
G75*
G02*
X169649000Y-83098000I150000J0D01*
G01*
X169949000Y-83098000D01*
G75*
G02*
X170099000Y-83248000I0J-150000D01*
G01*
X170099000Y-84998000D01*
G75*
G02*
X169949000Y-85148000I-150000J0D01*
G01*
G37*
G36*
G01*
X169949000Y-110958000D02*
X169649000Y-110958000D01*
G75*
G02*
X169499000Y-110808000I0J150000D01*
G01*
X169499000Y-109058000D01*
G75*
G02*
X169649000Y-108908000I150000J0D01*
G01*
X169949000Y-108908000D01*
G75*
G02*
X170099000Y-109058000I0J-150000D01*
G01*
X170099000Y-110808000D01*
G75*
G02*
X169949000Y-110958000I-150000J0D01*
G01*
G37*
G36*
G01*
X171219000Y-110958000D02*
X170919000Y-110958000D01*
G75*
G02*
X170769000Y-110808000I0J150000D01*
G01*
X170769000Y-109058000D01*
G75*
G02*
X170919000Y-108908000I150000J0D01*
G01*
X171219000Y-108908000D01*
G75*
G02*
X171369000Y-109058000I0J-150000D01*
G01*
X171369000Y-110808000D01*
G75*
G02*
X171219000Y-110958000I-150000J0D01*
G01*
G37*
G36*
G01*
X172489000Y-110958000D02*
X172189000Y-110958000D01*
G75*
G02*
X172039000Y-110808000I0J150000D01*
G01*
X172039000Y-109058000D01*
G75*
G02*
X172189000Y-108908000I150000J0D01*
G01*
X172489000Y-108908000D01*
G75*
G02*
X172639000Y-109058000I0J-150000D01*
G01*
X172639000Y-110808000D01*
G75*
G02*
X172489000Y-110958000I-150000J0D01*
G01*
G37*
G36*
G01*
X173759000Y-110958000D02*
X173459000Y-110958000D01*
G75*
G02*
X173309000Y-110808000I0J150000D01*
G01*
X173309000Y-109058000D01*
G75*
G02*
X173459000Y-108908000I150000J0D01*
G01*
X173759000Y-108908000D01*
G75*
G02*
X173909000Y-109058000I0J-150000D01*
G01*
X173909000Y-110808000D01*
G75*
G02*
X173759000Y-110958000I-150000J0D01*
G01*
G37*
G36*
G01*
X175029000Y-110958000D02*
X174729000Y-110958000D01*
G75*
G02*
X174579000Y-110808000I0J150000D01*
G01*
X174579000Y-109058000D01*
G75*
G02*
X174729000Y-108908000I150000J0D01*
G01*
X175029000Y-108908000D01*
G75*
G02*
X175179000Y-109058000I0J-150000D01*
G01*
X175179000Y-110808000D01*
G75*
G02*
X175029000Y-110958000I-150000J0D01*
G01*
G37*
G36*
G01*
X176299000Y-110958000D02*
X175999000Y-110958000D01*
G75*
G02*
X175849000Y-110808000I0J150000D01*
G01*
X175849000Y-109058000D01*
G75*
G02*
X175999000Y-108908000I150000J0D01*
G01*
X176299000Y-108908000D01*
G75*
G02*
X176449000Y-109058000I0J-150000D01*
G01*
X176449000Y-110808000D01*
G75*
G02*
X176299000Y-110958000I-150000J0D01*
G01*
G37*
G36*
G01*
X177569000Y-110958000D02*
X177269000Y-110958000D01*
G75*
G02*
X177119000Y-110808000I0J150000D01*
G01*
X177119000Y-109058000D01*
G75*
G02*
X177269000Y-108908000I150000J0D01*
G01*
X177569000Y-108908000D01*
G75*
G02*
X177719000Y-109058000I0J-150000D01*
G01*
X177719000Y-110808000D01*
G75*
G02*
X177569000Y-110958000I-150000J0D01*
G01*
G37*
G36*
G01*
X178839000Y-110958000D02*
X178539000Y-110958000D01*
G75*
G02*
X178389000Y-110808000I0J150000D01*
G01*
X178389000Y-109058000D01*
G75*
G02*
X178539000Y-108908000I150000J0D01*
G01*
X178839000Y-108908000D01*
G75*
G02*
X178989000Y-109058000I0J-150000D01*
G01*
X178989000Y-110808000D01*
G75*
G02*
X178839000Y-110958000I-150000J0D01*
G01*
G37*
G36*
G01*
X180109000Y-110958000D02*
X179809000Y-110958000D01*
G75*
G02*
X179659000Y-110808000I0J150000D01*
G01*
X179659000Y-109058000D01*
G75*
G02*
X179809000Y-108908000I150000J0D01*
G01*
X180109000Y-108908000D01*
G75*
G02*
X180259000Y-109058000I0J-150000D01*
G01*
X180259000Y-110808000D01*
G75*
G02*
X180109000Y-110958000I-150000J0D01*
G01*
G37*
G36*
G01*
X181379000Y-110958000D02*
X181079000Y-110958000D01*
G75*
G02*
X180929000Y-110808000I0J150000D01*
G01*
X180929000Y-109058000D01*
G75*
G02*
X181079000Y-108908000I150000J0D01*
G01*
X181379000Y-108908000D01*
G75*
G02*
X181529000Y-109058000I0J-150000D01*
G01*
X181529000Y-110808000D01*
G75*
G02*
X181379000Y-110958000I-150000J0D01*
G01*
G37*
G36*
G01*
X182649000Y-110958000D02*
X182349000Y-110958000D01*
G75*
G02*
X182199000Y-110808000I0J150000D01*
G01*
X182199000Y-109058000D01*
G75*
G02*
X182349000Y-108908000I150000J0D01*
G01*
X182649000Y-108908000D01*
G75*
G02*
X182799000Y-109058000I0J-150000D01*
G01*
X182799000Y-110808000D01*
G75*
G02*
X182649000Y-110958000I-150000J0D01*
G01*
G37*
G36*
G01*
X183919000Y-110958000D02*
X183619000Y-110958000D01*
G75*
G02*
X183469000Y-110808000I0J150000D01*
G01*
X183469000Y-109058000D01*
G75*
G02*
X183619000Y-108908000I150000J0D01*
G01*
X183919000Y-108908000D01*
G75*
G02*
X184069000Y-109058000I0J-150000D01*
G01*
X184069000Y-110808000D01*
G75*
G02*
X183919000Y-110958000I-150000J0D01*
G01*
G37*
G36*
G01*
X183919000Y-101658000D02*
X183619000Y-101658000D01*
G75*
G02*
X183469000Y-101508000I0J150000D01*
G01*
X183469000Y-99758000D01*
G75*
G02*
X183619000Y-99608000I150000J0D01*
G01*
X183919000Y-99608000D01*
G75*
G02*
X184069000Y-99758000I0J-150000D01*
G01*
X184069000Y-101508000D01*
G75*
G02*
X183919000Y-101658000I-150000J0D01*
G01*
G37*
G36*
G01*
X182649000Y-101658000D02*
X182349000Y-101658000D01*
G75*
G02*
X182199000Y-101508000I0J150000D01*
G01*
X182199000Y-99758000D01*
G75*
G02*
X182349000Y-99608000I150000J0D01*
G01*
X182649000Y-99608000D01*
G75*
G02*
X182799000Y-99758000I0J-150000D01*
G01*
X182799000Y-101508000D01*
G75*
G02*
X182649000Y-101658000I-150000J0D01*
G01*
G37*
G36*
G01*
X181379000Y-101658000D02*
X181079000Y-101658000D01*
G75*
G02*
X180929000Y-101508000I0J150000D01*
G01*
X180929000Y-99758000D01*
G75*
G02*
X181079000Y-99608000I150000J0D01*
G01*
X181379000Y-99608000D01*
G75*
G02*
X181529000Y-99758000I0J-150000D01*
G01*
X181529000Y-101508000D01*
G75*
G02*
X181379000Y-101658000I-150000J0D01*
G01*
G37*
G36*
G01*
X180109000Y-101658000D02*
X179809000Y-101658000D01*
G75*
G02*
X179659000Y-101508000I0J150000D01*
G01*
X179659000Y-99758000D01*
G75*
G02*
X179809000Y-99608000I150000J0D01*
G01*
X180109000Y-99608000D01*
G75*
G02*
X180259000Y-99758000I0J-150000D01*
G01*
X180259000Y-101508000D01*
G75*
G02*
X180109000Y-101658000I-150000J0D01*
G01*
G37*
G36*
G01*
X178839000Y-101658000D02*
X178539000Y-101658000D01*
G75*
G02*
X178389000Y-101508000I0J150000D01*
G01*
X178389000Y-99758000D01*
G75*
G02*
X178539000Y-99608000I150000J0D01*
G01*
X178839000Y-99608000D01*
G75*
G02*
X178989000Y-99758000I0J-150000D01*
G01*
X178989000Y-101508000D01*
G75*
G02*
X178839000Y-101658000I-150000J0D01*
G01*
G37*
G36*
G01*
X177569000Y-101658000D02*
X177269000Y-101658000D01*
G75*
G02*
X177119000Y-101508000I0J150000D01*
G01*
X177119000Y-99758000D01*
G75*
G02*
X177269000Y-99608000I150000J0D01*
G01*
X177569000Y-99608000D01*
G75*
G02*
X177719000Y-99758000I0J-150000D01*
G01*
X177719000Y-101508000D01*
G75*
G02*
X177569000Y-101658000I-150000J0D01*
G01*
G37*
G36*
G01*
X176299000Y-101658000D02*
X175999000Y-101658000D01*
G75*
G02*
X175849000Y-101508000I0J150000D01*
G01*
X175849000Y-99758000D01*
G75*
G02*
X175999000Y-99608000I150000J0D01*
G01*
X176299000Y-99608000D01*
G75*
G02*
X176449000Y-99758000I0J-150000D01*
G01*
X176449000Y-101508000D01*
G75*
G02*
X176299000Y-101658000I-150000J0D01*
G01*
G37*
G36*
G01*
X175029000Y-101658000D02*
X174729000Y-101658000D01*
G75*
G02*
X174579000Y-101508000I0J150000D01*
G01*
X174579000Y-99758000D01*
G75*
G02*
X174729000Y-99608000I150000J0D01*
G01*
X175029000Y-99608000D01*
G75*
G02*
X175179000Y-99758000I0J-150000D01*
G01*
X175179000Y-101508000D01*
G75*
G02*
X175029000Y-101658000I-150000J0D01*
G01*
G37*
G36*
G01*
X173759000Y-101658000D02*
X173459000Y-101658000D01*
G75*
G02*
X173309000Y-101508000I0J150000D01*
G01*
X173309000Y-99758000D01*
G75*
G02*
X173459000Y-99608000I150000J0D01*
G01*
X173759000Y-99608000D01*
G75*
G02*
X173909000Y-99758000I0J-150000D01*
G01*
X173909000Y-101508000D01*
G75*
G02*
X173759000Y-101658000I-150000J0D01*
G01*
G37*
G36*
G01*
X172489000Y-101658000D02*
X172189000Y-101658000D01*
G75*
G02*
X172039000Y-101508000I0J150000D01*
G01*
X172039000Y-99758000D01*
G75*
G02*
X172189000Y-99608000I150000J0D01*
G01*
X172489000Y-99608000D01*
G75*
G02*
X172639000Y-99758000I0J-150000D01*
G01*
X172639000Y-101508000D01*
G75*
G02*
X172489000Y-101658000I-150000J0D01*
G01*
G37*
G36*
G01*
X171219000Y-101658000D02*
X170919000Y-101658000D01*
G75*
G02*
X170769000Y-101508000I0J150000D01*
G01*
X170769000Y-99758000D01*
G75*
G02*
X170919000Y-99608000I150000J0D01*
G01*
X171219000Y-99608000D01*
G75*
G02*
X171369000Y-99758000I0J-150000D01*
G01*
X171369000Y-101508000D01*
G75*
G02*
X171219000Y-101658000I-150000J0D01*
G01*
G37*
G36*
G01*
X169949000Y-101658000D02*
X169649000Y-101658000D01*
G75*
G02*
X169499000Y-101508000I0J150000D01*
G01*
X169499000Y-99758000D01*
G75*
G02*
X169649000Y-99608000I150000J0D01*
G01*
X169949000Y-99608000D01*
G75*
G02*
X170099000Y-99758000I0J-150000D01*
G01*
X170099000Y-101508000D01*
G75*
G02*
X169949000Y-101658000I-150000J0D01*
G01*
G37*
G36*
G01*
X230274000Y-101658000D02*
X229974000Y-101658000D01*
G75*
G02*
X229824000Y-101508000I0J150000D01*
G01*
X229824000Y-99758000D01*
G75*
G02*
X229974000Y-99608000I150000J0D01*
G01*
X230274000Y-99608000D01*
G75*
G02*
X230424000Y-99758000I0J-150000D01*
G01*
X230424000Y-101508000D01*
G75*
G02*
X230274000Y-101658000I-150000J0D01*
G01*
G37*
G36*
G01*
X231544000Y-101658000D02*
X231244000Y-101658000D01*
G75*
G02*
X231094000Y-101508000I0J150000D01*
G01*
X231094000Y-99758000D01*
G75*
G02*
X231244000Y-99608000I150000J0D01*
G01*
X231544000Y-99608000D01*
G75*
G02*
X231694000Y-99758000I0J-150000D01*
G01*
X231694000Y-101508000D01*
G75*
G02*
X231544000Y-101658000I-150000J0D01*
G01*
G37*
G36*
G01*
X232814000Y-101658000D02*
X232514000Y-101658000D01*
G75*
G02*
X232364000Y-101508000I0J150000D01*
G01*
X232364000Y-99758000D01*
G75*
G02*
X232514000Y-99608000I150000J0D01*
G01*
X232814000Y-99608000D01*
G75*
G02*
X232964000Y-99758000I0J-150000D01*
G01*
X232964000Y-101508000D01*
G75*
G02*
X232814000Y-101658000I-150000J0D01*
G01*
G37*
G36*
G01*
X234084000Y-101658000D02*
X233784000Y-101658000D01*
G75*
G02*
X233634000Y-101508000I0J150000D01*
G01*
X233634000Y-99758000D01*
G75*
G02*
X233784000Y-99608000I150000J0D01*
G01*
X234084000Y-99608000D01*
G75*
G02*
X234234000Y-99758000I0J-150000D01*
G01*
X234234000Y-101508000D01*
G75*
G02*
X234084000Y-101658000I-150000J0D01*
G01*
G37*
G36*
G01*
X235354000Y-101658000D02*
X235054000Y-101658000D01*
G75*
G02*
X234904000Y-101508000I0J150000D01*
G01*
X234904000Y-99758000D01*
G75*
G02*
X235054000Y-99608000I150000J0D01*
G01*
X235354000Y-99608000D01*
G75*
G02*
X235504000Y-99758000I0J-150000D01*
G01*
X235504000Y-101508000D01*
G75*
G02*
X235354000Y-101658000I-150000J0D01*
G01*
G37*
G36*
G01*
X236624000Y-101658000D02*
X236324000Y-101658000D01*
G75*
G02*
X236174000Y-101508000I0J150000D01*
G01*
X236174000Y-99758000D01*
G75*
G02*
X236324000Y-99608000I150000J0D01*
G01*
X236624000Y-99608000D01*
G75*
G02*
X236774000Y-99758000I0J-150000D01*
G01*
X236774000Y-101508000D01*
G75*
G02*
X236624000Y-101658000I-150000J0D01*
G01*
G37*
G36*
G01*
X237894000Y-101658000D02*
X237594000Y-101658000D01*
G75*
G02*
X237444000Y-101508000I0J150000D01*
G01*
X237444000Y-99758000D01*
G75*
G02*
X237594000Y-99608000I150000J0D01*
G01*
X237894000Y-99608000D01*
G75*
G02*
X238044000Y-99758000I0J-150000D01*
G01*
X238044000Y-101508000D01*
G75*
G02*
X237894000Y-101658000I-150000J0D01*
G01*
G37*
G36*
G01*
X239164000Y-101658000D02*
X238864000Y-101658000D01*
G75*
G02*
X238714000Y-101508000I0J150000D01*
G01*
X238714000Y-99758000D01*
G75*
G02*
X238864000Y-99608000I150000J0D01*
G01*
X239164000Y-99608000D01*
G75*
G02*
X239314000Y-99758000I0J-150000D01*
G01*
X239314000Y-101508000D01*
G75*
G02*
X239164000Y-101658000I-150000J0D01*
G01*
G37*
G36*
G01*
X240434000Y-101658000D02*
X240134000Y-101658000D01*
G75*
G02*
X239984000Y-101508000I0J150000D01*
G01*
X239984000Y-99758000D01*
G75*
G02*
X240134000Y-99608000I150000J0D01*
G01*
X240434000Y-99608000D01*
G75*
G02*
X240584000Y-99758000I0J-150000D01*
G01*
X240584000Y-101508000D01*
G75*
G02*
X240434000Y-101658000I-150000J0D01*
G01*
G37*
G36*
G01*
X241704000Y-101658000D02*
X241404000Y-101658000D01*
G75*
G02*
X241254000Y-101508000I0J150000D01*
G01*
X241254000Y-99758000D01*
G75*
G02*
X241404000Y-99608000I150000J0D01*
G01*
X241704000Y-99608000D01*
G75*
G02*
X241854000Y-99758000I0J-150000D01*
G01*
X241854000Y-101508000D01*
G75*
G02*
X241704000Y-101658000I-150000J0D01*
G01*
G37*
G36*
G01*
X242974000Y-101658000D02*
X242674000Y-101658000D01*
G75*
G02*
X242524000Y-101508000I0J150000D01*
G01*
X242524000Y-99758000D01*
G75*
G02*
X242674000Y-99608000I150000J0D01*
G01*
X242974000Y-99608000D01*
G75*
G02*
X243124000Y-99758000I0J-150000D01*
G01*
X243124000Y-101508000D01*
G75*
G02*
X242974000Y-101658000I-150000J0D01*
G01*
G37*
G36*
G01*
X244244000Y-101658000D02*
X243944000Y-101658000D01*
G75*
G02*
X243794000Y-101508000I0J150000D01*
G01*
X243794000Y-99758000D01*
G75*
G02*
X243944000Y-99608000I150000J0D01*
G01*
X244244000Y-99608000D01*
G75*
G02*
X244394000Y-99758000I0J-150000D01*
G01*
X244394000Y-101508000D01*
G75*
G02*
X244244000Y-101658000I-150000J0D01*
G01*
G37*
G36*
G01*
X244244000Y-110958000D02*
X243944000Y-110958000D01*
G75*
G02*
X243794000Y-110808000I0J150000D01*
G01*
X243794000Y-109058000D01*
G75*
G02*
X243944000Y-108908000I150000J0D01*
G01*
X244244000Y-108908000D01*
G75*
G02*
X244394000Y-109058000I0J-150000D01*
G01*
X244394000Y-110808000D01*
G75*
G02*
X244244000Y-110958000I-150000J0D01*
G01*
G37*
G36*
G01*
X242974000Y-110958000D02*
X242674000Y-110958000D01*
G75*
G02*
X242524000Y-110808000I0J150000D01*
G01*
X242524000Y-109058000D01*
G75*
G02*
X242674000Y-108908000I150000J0D01*
G01*
X242974000Y-108908000D01*
G75*
G02*
X243124000Y-109058000I0J-150000D01*
G01*
X243124000Y-110808000D01*
G75*
G02*
X242974000Y-110958000I-150000J0D01*
G01*
G37*
G36*
G01*
X241704000Y-110958000D02*
X241404000Y-110958000D01*
G75*
G02*
X241254000Y-110808000I0J150000D01*
G01*
X241254000Y-109058000D01*
G75*
G02*
X241404000Y-108908000I150000J0D01*
G01*
X241704000Y-108908000D01*
G75*
G02*
X241854000Y-109058000I0J-150000D01*
G01*
X241854000Y-110808000D01*
G75*
G02*
X241704000Y-110958000I-150000J0D01*
G01*
G37*
G36*
G01*
X240434000Y-110958000D02*
X240134000Y-110958000D01*
G75*
G02*
X239984000Y-110808000I0J150000D01*
G01*
X239984000Y-109058000D01*
G75*
G02*
X240134000Y-108908000I150000J0D01*
G01*
X240434000Y-108908000D01*
G75*
G02*
X240584000Y-109058000I0J-150000D01*
G01*
X240584000Y-110808000D01*
G75*
G02*
X240434000Y-110958000I-150000J0D01*
G01*
G37*
G36*
G01*
X239164000Y-110958000D02*
X238864000Y-110958000D01*
G75*
G02*
X238714000Y-110808000I0J150000D01*
G01*
X238714000Y-109058000D01*
G75*
G02*
X238864000Y-108908000I150000J0D01*
G01*
X239164000Y-108908000D01*
G75*
G02*
X239314000Y-109058000I0J-150000D01*
G01*
X239314000Y-110808000D01*
G75*
G02*
X239164000Y-110958000I-150000J0D01*
G01*
G37*
G36*
G01*
X237894000Y-110958000D02*
X237594000Y-110958000D01*
G75*
G02*
X237444000Y-110808000I0J150000D01*
G01*
X237444000Y-109058000D01*
G75*
G02*
X237594000Y-108908000I150000J0D01*
G01*
X237894000Y-108908000D01*
G75*
G02*
X238044000Y-109058000I0J-150000D01*
G01*
X238044000Y-110808000D01*
G75*
G02*
X237894000Y-110958000I-150000J0D01*
G01*
G37*
G36*
G01*
X236624000Y-110958000D02*
X236324000Y-110958000D01*
G75*
G02*
X236174000Y-110808000I0J150000D01*
G01*
X236174000Y-109058000D01*
G75*
G02*
X236324000Y-108908000I150000J0D01*
G01*
X236624000Y-108908000D01*
G75*
G02*
X236774000Y-109058000I0J-150000D01*
G01*
X236774000Y-110808000D01*
G75*
G02*
X236624000Y-110958000I-150000J0D01*
G01*
G37*
G36*
G01*
X235354000Y-110958000D02*
X235054000Y-110958000D01*
G75*
G02*
X234904000Y-110808000I0J150000D01*
G01*
X234904000Y-109058000D01*
G75*
G02*
X235054000Y-108908000I150000J0D01*
G01*
X235354000Y-108908000D01*
G75*
G02*
X235504000Y-109058000I0J-150000D01*
G01*
X235504000Y-110808000D01*
G75*
G02*
X235354000Y-110958000I-150000J0D01*
G01*
G37*
G36*
G01*
X234084000Y-110958000D02*
X233784000Y-110958000D01*
G75*
G02*
X233634000Y-110808000I0J150000D01*
G01*
X233634000Y-109058000D01*
G75*
G02*
X233784000Y-108908000I150000J0D01*
G01*
X234084000Y-108908000D01*
G75*
G02*
X234234000Y-109058000I0J-150000D01*
G01*
X234234000Y-110808000D01*
G75*
G02*
X234084000Y-110958000I-150000J0D01*
G01*
G37*
G36*
G01*
X232814000Y-110958000D02*
X232514000Y-110958000D01*
G75*
G02*
X232364000Y-110808000I0J150000D01*
G01*
X232364000Y-109058000D01*
G75*
G02*
X232514000Y-108908000I150000J0D01*
G01*
X232814000Y-108908000D01*
G75*
G02*
X232964000Y-109058000I0J-150000D01*
G01*
X232964000Y-110808000D01*
G75*
G02*
X232814000Y-110958000I-150000J0D01*
G01*
G37*
G36*
G01*
X231544000Y-110958000D02*
X231244000Y-110958000D01*
G75*
G02*
X231094000Y-110808000I0J150000D01*
G01*
X231094000Y-109058000D01*
G75*
G02*
X231244000Y-108908000I150000J0D01*
G01*
X231544000Y-108908000D01*
G75*
G02*
X231694000Y-109058000I0J-150000D01*
G01*
X231694000Y-110808000D01*
G75*
G02*
X231544000Y-110958000I-150000J0D01*
G01*
G37*
G36*
G01*
X230274000Y-110958000D02*
X229974000Y-110958000D01*
G75*
G02*
X229824000Y-110808000I0J150000D01*
G01*
X229824000Y-109058000D01*
G75*
G02*
X229974000Y-108908000I150000J0D01*
G01*
X230274000Y-108908000D01*
G75*
G02*
X230424000Y-109058000I0J-150000D01*
G01*
X230424000Y-110808000D01*
G75*
G02*
X230274000Y-110958000I-150000J0D01*
G01*
G37*
G36*
G01*
X230401000Y-94448000D02*
X230101000Y-94448000D01*
G75*
G02*
X229951000Y-94298000I0J150000D01*
G01*
X229951000Y-92548000D01*
G75*
G02*
X230101000Y-92398000I150000J0D01*
G01*
X230401000Y-92398000D01*
G75*
G02*
X230551000Y-92548000I0J-150000D01*
G01*
X230551000Y-94298000D01*
G75*
G02*
X230401000Y-94448000I-150000J0D01*
G01*
G37*
G36*
G01*
X231671000Y-94448000D02*
X231371000Y-94448000D01*
G75*
G02*
X231221000Y-94298000I0J150000D01*
G01*
X231221000Y-92548000D01*
G75*
G02*
X231371000Y-92398000I150000J0D01*
G01*
X231671000Y-92398000D01*
G75*
G02*
X231821000Y-92548000I0J-150000D01*
G01*
X231821000Y-94298000D01*
G75*
G02*
X231671000Y-94448000I-150000J0D01*
G01*
G37*
G36*
G01*
X232941000Y-94448000D02*
X232641000Y-94448000D01*
G75*
G02*
X232491000Y-94298000I0J150000D01*
G01*
X232491000Y-92548000D01*
G75*
G02*
X232641000Y-92398000I150000J0D01*
G01*
X232941000Y-92398000D01*
G75*
G02*
X233091000Y-92548000I0J-150000D01*
G01*
X233091000Y-94298000D01*
G75*
G02*
X232941000Y-94448000I-150000J0D01*
G01*
G37*
G36*
G01*
X234211000Y-94448000D02*
X233911000Y-94448000D01*
G75*
G02*
X233761000Y-94298000I0J150000D01*
G01*
X233761000Y-92548000D01*
G75*
G02*
X233911000Y-92398000I150000J0D01*
G01*
X234211000Y-92398000D01*
G75*
G02*
X234361000Y-92548000I0J-150000D01*
G01*
X234361000Y-94298000D01*
G75*
G02*
X234211000Y-94448000I-150000J0D01*
G01*
G37*
G36*
G01*
X235481000Y-94448000D02*
X235181000Y-94448000D01*
G75*
G02*
X235031000Y-94298000I0J150000D01*
G01*
X235031000Y-92548000D01*
G75*
G02*
X235181000Y-92398000I150000J0D01*
G01*
X235481000Y-92398000D01*
G75*
G02*
X235631000Y-92548000I0J-150000D01*
G01*
X235631000Y-94298000D01*
G75*
G02*
X235481000Y-94448000I-150000J0D01*
G01*
G37*
G36*
G01*
X236751000Y-94448000D02*
X236451000Y-94448000D01*
G75*
G02*
X236301000Y-94298000I0J150000D01*
G01*
X236301000Y-92548000D01*
G75*
G02*
X236451000Y-92398000I150000J0D01*
G01*
X236751000Y-92398000D01*
G75*
G02*
X236901000Y-92548000I0J-150000D01*
G01*
X236901000Y-94298000D01*
G75*
G02*
X236751000Y-94448000I-150000J0D01*
G01*
G37*
G36*
G01*
X238021000Y-94448000D02*
X237721000Y-94448000D01*
G75*
G02*
X237571000Y-94298000I0J150000D01*
G01*
X237571000Y-92548000D01*
G75*
G02*
X237721000Y-92398000I150000J0D01*
G01*
X238021000Y-92398000D01*
G75*
G02*
X238171000Y-92548000I0J-150000D01*
G01*
X238171000Y-94298000D01*
G75*
G02*
X238021000Y-94448000I-150000J0D01*
G01*
G37*
G36*
G01*
X239291000Y-94448000D02*
X238991000Y-94448000D01*
G75*
G02*
X238841000Y-94298000I0J150000D01*
G01*
X238841000Y-92548000D01*
G75*
G02*
X238991000Y-92398000I150000J0D01*
G01*
X239291000Y-92398000D01*
G75*
G02*
X239441000Y-92548000I0J-150000D01*
G01*
X239441000Y-94298000D01*
G75*
G02*
X239291000Y-94448000I-150000J0D01*
G01*
G37*
G36*
G01*
X240561000Y-94448000D02*
X240261000Y-94448000D01*
G75*
G02*
X240111000Y-94298000I0J150000D01*
G01*
X240111000Y-92548000D01*
G75*
G02*
X240261000Y-92398000I150000J0D01*
G01*
X240561000Y-92398000D01*
G75*
G02*
X240711000Y-92548000I0J-150000D01*
G01*
X240711000Y-94298000D01*
G75*
G02*
X240561000Y-94448000I-150000J0D01*
G01*
G37*
G36*
G01*
X241831000Y-94448000D02*
X241531000Y-94448000D01*
G75*
G02*
X241381000Y-94298000I0J150000D01*
G01*
X241381000Y-92548000D01*
G75*
G02*
X241531000Y-92398000I150000J0D01*
G01*
X241831000Y-92398000D01*
G75*
G02*
X241981000Y-92548000I0J-150000D01*
G01*
X241981000Y-94298000D01*
G75*
G02*
X241831000Y-94448000I-150000J0D01*
G01*
G37*
G36*
G01*
X243101000Y-94448000D02*
X242801000Y-94448000D01*
G75*
G02*
X242651000Y-94298000I0J150000D01*
G01*
X242651000Y-92548000D01*
G75*
G02*
X242801000Y-92398000I150000J0D01*
G01*
X243101000Y-92398000D01*
G75*
G02*
X243251000Y-92548000I0J-150000D01*
G01*
X243251000Y-94298000D01*
G75*
G02*
X243101000Y-94448000I-150000J0D01*
G01*
G37*
G36*
G01*
X244371000Y-94448000D02*
X244071000Y-94448000D01*
G75*
G02*
X243921000Y-94298000I0J150000D01*
G01*
X243921000Y-92548000D01*
G75*
G02*
X244071000Y-92398000I150000J0D01*
G01*
X244371000Y-92398000D01*
G75*
G02*
X244521000Y-92548000I0J-150000D01*
G01*
X244521000Y-94298000D01*
G75*
G02*
X244371000Y-94448000I-150000J0D01*
G01*
G37*
G36*
G01*
X244371000Y-85148000D02*
X244071000Y-85148000D01*
G75*
G02*
X243921000Y-84998000I0J150000D01*
G01*
X243921000Y-83248000D01*
G75*
G02*
X244071000Y-83098000I150000J0D01*
G01*
X244371000Y-83098000D01*
G75*
G02*
X244521000Y-83248000I0J-150000D01*
G01*
X244521000Y-84998000D01*
G75*
G02*
X244371000Y-85148000I-150000J0D01*
G01*
G37*
G36*
G01*
X243101000Y-85148000D02*
X242801000Y-85148000D01*
G75*
G02*
X242651000Y-84998000I0J150000D01*
G01*
X242651000Y-83248000D01*
G75*
G02*
X242801000Y-83098000I150000J0D01*
G01*
X243101000Y-83098000D01*
G75*
G02*
X243251000Y-83248000I0J-150000D01*
G01*
X243251000Y-84998000D01*
G75*
G02*
X243101000Y-85148000I-150000J0D01*
G01*
G37*
G36*
G01*
X241831000Y-85148000D02*
X241531000Y-85148000D01*
G75*
G02*
X241381000Y-84998000I0J150000D01*
G01*
X241381000Y-83248000D01*
G75*
G02*
X241531000Y-83098000I150000J0D01*
G01*
X241831000Y-83098000D01*
G75*
G02*
X241981000Y-83248000I0J-150000D01*
G01*
X241981000Y-84998000D01*
G75*
G02*
X241831000Y-85148000I-150000J0D01*
G01*
G37*
G36*
G01*
X240561000Y-85148000D02*
X240261000Y-85148000D01*
G75*
G02*
X240111000Y-84998000I0J150000D01*
G01*
X240111000Y-83248000D01*
G75*
G02*
X240261000Y-83098000I150000J0D01*
G01*
X240561000Y-83098000D01*
G75*
G02*
X240711000Y-83248000I0J-150000D01*
G01*
X240711000Y-84998000D01*
G75*
G02*
X240561000Y-85148000I-150000J0D01*
G01*
G37*
G36*
G01*
X239291000Y-85148000D02*
X238991000Y-85148000D01*
G75*
G02*
X238841000Y-84998000I0J150000D01*
G01*
X238841000Y-83248000D01*
G75*
G02*
X238991000Y-83098000I150000J0D01*
G01*
X239291000Y-83098000D01*
G75*
G02*
X239441000Y-83248000I0J-150000D01*
G01*
X239441000Y-84998000D01*
G75*
G02*
X239291000Y-85148000I-150000J0D01*
G01*
G37*
G36*
G01*
X238021000Y-85148000D02*
X237721000Y-85148000D01*
G75*
G02*
X237571000Y-84998000I0J150000D01*
G01*
X237571000Y-83248000D01*
G75*
G02*
X237721000Y-83098000I150000J0D01*
G01*
X238021000Y-83098000D01*
G75*
G02*
X238171000Y-83248000I0J-150000D01*
G01*
X238171000Y-84998000D01*
G75*
G02*
X238021000Y-85148000I-150000J0D01*
G01*
G37*
G36*
G01*
X236751000Y-85148000D02*
X236451000Y-85148000D01*
G75*
G02*
X236301000Y-84998000I0J150000D01*
G01*
X236301000Y-83248000D01*
G75*
G02*
X236451000Y-83098000I150000J0D01*
G01*
X236751000Y-83098000D01*
G75*
G02*
X236901000Y-83248000I0J-150000D01*
G01*
X236901000Y-84998000D01*
G75*
G02*
X236751000Y-85148000I-150000J0D01*
G01*
G37*
G36*
G01*
X235481000Y-85148000D02*
X235181000Y-85148000D01*
G75*
G02*
X235031000Y-84998000I0J150000D01*
G01*
X235031000Y-83248000D01*
G75*
G02*
X235181000Y-83098000I150000J0D01*
G01*
X235481000Y-83098000D01*
G75*
G02*
X235631000Y-83248000I0J-150000D01*
G01*
X235631000Y-84998000D01*
G75*
G02*
X235481000Y-85148000I-150000J0D01*
G01*
G37*
G36*
G01*
X234211000Y-85148000D02*
X233911000Y-85148000D01*
G75*
G02*
X233761000Y-84998000I0J150000D01*
G01*
X233761000Y-83248000D01*
G75*
G02*
X233911000Y-83098000I150000J0D01*
G01*
X234211000Y-83098000D01*
G75*
G02*
X234361000Y-83248000I0J-150000D01*
G01*
X234361000Y-84998000D01*
G75*
G02*
X234211000Y-85148000I-150000J0D01*
G01*
G37*
G36*
G01*
X232941000Y-85148000D02*
X232641000Y-85148000D01*
G75*
G02*
X232491000Y-84998000I0J150000D01*
G01*
X232491000Y-83248000D01*
G75*
G02*
X232641000Y-83098000I150000J0D01*
G01*
X232941000Y-83098000D01*
G75*
G02*
X233091000Y-83248000I0J-150000D01*
G01*
X233091000Y-84998000D01*
G75*
G02*
X232941000Y-85148000I-150000J0D01*
G01*
G37*
G36*
G01*
X231671000Y-85148000D02*
X231371000Y-85148000D01*
G75*
G02*
X231221000Y-84998000I0J150000D01*
G01*
X231221000Y-83248000D01*
G75*
G02*
X231371000Y-83098000I150000J0D01*
G01*
X231671000Y-83098000D01*
G75*
G02*
X231821000Y-83248000I0J-150000D01*
G01*
X231821000Y-84998000D01*
G75*
G02*
X231671000Y-85148000I-150000J0D01*
G01*
G37*
G36*
G01*
X230401000Y-85148000D02*
X230101000Y-85148000D01*
G75*
G02*
X229951000Y-84998000I0J150000D01*
G01*
X229951000Y-83248000D01*
G75*
G02*
X230101000Y-83098000I150000J0D01*
G01*
X230401000Y-83098000D01*
G75*
G02*
X230551000Y-83248000I0J-150000D01*
G01*
X230551000Y-84998000D01*
G75*
G02*
X230401000Y-85148000I-150000J0D01*
G01*
G37*
G36*
G01*
X190142000Y-85148000D02*
X189842000Y-85148000D01*
G75*
G02*
X189692000Y-84998000I0J150000D01*
G01*
X189692000Y-83248000D01*
G75*
G02*
X189842000Y-83098000I150000J0D01*
G01*
X190142000Y-83098000D01*
G75*
G02*
X190292000Y-83248000I0J-150000D01*
G01*
X190292000Y-84998000D01*
G75*
G02*
X190142000Y-85148000I-150000J0D01*
G01*
G37*
G36*
G01*
X191412000Y-85148000D02*
X191112000Y-85148000D01*
G75*
G02*
X190962000Y-84998000I0J150000D01*
G01*
X190962000Y-83248000D01*
G75*
G02*
X191112000Y-83098000I150000J0D01*
G01*
X191412000Y-83098000D01*
G75*
G02*
X191562000Y-83248000I0J-150000D01*
G01*
X191562000Y-84998000D01*
G75*
G02*
X191412000Y-85148000I-150000J0D01*
G01*
G37*
G36*
G01*
X192682000Y-85148000D02*
X192382000Y-85148000D01*
G75*
G02*
X192232000Y-84998000I0J150000D01*
G01*
X192232000Y-83248000D01*
G75*
G02*
X192382000Y-83098000I150000J0D01*
G01*
X192682000Y-83098000D01*
G75*
G02*
X192832000Y-83248000I0J-150000D01*
G01*
X192832000Y-84998000D01*
G75*
G02*
X192682000Y-85148000I-150000J0D01*
G01*
G37*
G36*
G01*
X193952000Y-85148000D02*
X193652000Y-85148000D01*
G75*
G02*
X193502000Y-84998000I0J150000D01*
G01*
X193502000Y-83248000D01*
G75*
G02*
X193652000Y-83098000I150000J0D01*
G01*
X193952000Y-83098000D01*
G75*
G02*
X194102000Y-83248000I0J-150000D01*
G01*
X194102000Y-84998000D01*
G75*
G02*
X193952000Y-85148000I-150000J0D01*
G01*
G37*
G36*
G01*
X195222000Y-85148000D02*
X194922000Y-85148000D01*
G75*
G02*
X194772000Y-84998000I0J150000D01*
G01*
X194772000Y-83248000D01*
G75*
G02*
X194922000Y-83098000I150000J0D01*
G01*
X195222000Y-83098000D01*
G75*
G02*
X195372000Y-83248000I0J-150000D01*
G01*
X195372000Y-84998000D01*
G75*
G02*
X195222000Y-85148000I-150000J0D01*
G01*
G37*
G36*
G01*
X196492000Y-85148000D02*
X196192000Y-85148000D01*
G75*
G02*
X196042000Y-84998000I0J150000D01*
G01*
X196042000Y-83248000D01*
G75*
G02*
X196192000Y-83098000I150000J0D01*
G01*
X196492000Y-83098000D01*
G75*
G02*
X196642000Y-83248000I0J-150000D01*
G01*
X196642000Y-84998000D01*
G75*
G02*
X196492000Y-85148000I-150000J0D01*
G01*
G37*
G36*
G01*
X197762000Y-85148000D02*
X197462000Y-85148000D01*
G75*
G02*
X197312000Y-84998000I0J150000D01*
G01*
X197312000Y-83248000D01*
G75*
G02*
X197462000Y-83098000I150000J0D01*
G01*
X197762000Y-83098000D01*
G75*
G02*
X197912000Y-83248000I0J-150000D01*
G01*
X197912000Y-84998000D01*
G75*
G02*
X197762000Y-85148000I-150000J0D01*
G01*
G37*
G36*
G01*
X199032000Y-85148000D02*
X198732000Y-85148000D01*
G75*
G02*
X198582000Y-84998000I0J150000D01*
G01*
X198582000Y-83248000D01*
G75*
G02*
X198732000Y-83098000I150000J0D01*
G01*
X199032000Y-83098000D01*
G75*
G02*
X199182000Y-83248000I0J-150000D01*
G01*
X199182000Y-84998000D01*
G75*
G02*
X199032000Y-85148000I-150000J0D01*
G01*
G37*
G36*
G01*
X200302000Y-85148000D02*
X200002000Y-85148000D01*
G75*
G02*
X199852000Y-84998000I0J150000D01*
G01*
X199852000Y-83248000D01*
G75*
G02*
X200002000Y-83098000I150000J0D01*
G01*
X200302000Y-83098000D01*
G75*
G02*
X200452000Y-83248000I0J-150000D01*
G01*
X200452000Y-84998000D01*
G75*
G02*
X200302000Y-85148000I-150000J0D01*
G01*
G37*
G36*
G01*
X201572000Y-85148000D02*
X201272000Y-85148000D01*
G75*
G02*
X201122000Y-84998000I0J150000D01*
G01*
X201122000Y-83248000D01*
G75*
G02*
X201272000Y-83098000I150000J0D01*
G01*
X201572000Y-83098000D01*
G75*
G02*
X201722000Y-83248000I0J-150000D01*
G01*
X201722000Y-84998000D01*
G75*
G02*
X201572000Y-85148000I-150000J0D01*
G01*
G37*
G36*
G01*
X202842000Y-85148000D02*
X202542000Y-85148000D01*
G75*
G02*
X202392000Y-84998000I0J150000D01*
G01*
X202392000Y-83248000D01*
G75*
G02*
X202542000Y-83098000I150000J0D01*
G01*
X202842000Y-83098000D01*
G75*
G02*
X202992000Y-83248000I0J-150000D01*
G01*
X202992000Y-84998000D01*
G75*
G02*
X202842000Y-85148000I-150000J0D01*
G01*
G37*
G36*
G01*
X204112000Y-85148000D02*
X203812000Y-85148000D01*
G75*
G02*
X203662000Y-84998000I0J150000D01*
G01*
X203662000Y-83248000D01*
G75*
G02*
X203812000Y-83098000I150000J0D01*
G01*
X204112000Y-83098000D01*
G75*
G02*
X204262000Y-83248000I0J-150000D01*
G01*
X204262000Y-84998000D01*
G75*
G02*
X204112000Y-85148000I-150000J0D01*
G01*
G37*
G36*
G01*
X204112000Y-94448000D02*
X203812000Y-94448000D01*
G75*
G02*
X203662000Y-94298000I0J150000D01*
G01*
X203662000Y-92548000D01*
G75*
G02*
X203812000Y-92398000I150000J0D01*
G01*
X204112000Y-92398000D01*
G75*
G02*
X204262000Y-92548000I0J-150000D01*
G01*
X204262000Y-94298000D01*
G75*
G02*
X204112000Y-94448000I-150000J0D01*
G01*
G37*
G36*
G01*
X202842000Y-94448000D02*
X202542000Y-94448000D01*
G75*
G02*
X202392000Y-94298000I0J150000D01*
G01*
X202392000Y-92548000D01*
G75*
G02*
X202542000Y-92398000I150000J0D01*
G01*
X202842000Y-92398000D01*
G75*
G02*
X202992000Y-92548000I0J-150000D01*
G01*
X202992000Y-94298000D01*
G75*
G02*
X202842000Y-94448000I-150000J0D01*
G01*
G37*
G36*
G01*
X201572000Y-94448000D02*
X201272000Y-94448000D01*
G75*
G02*
X201122000Y-94298000I0J150000D01*
G01*
X201122000Y-92548000D01*
G75*
G02*
X201272000Y-92398000I150000J0D01*
G01*
X201572000Y-92398000D01*
G75*
G02*
X201722000Y-92548000I0J-150000D01*
G01*
X201722000Y-94298000D01*
G75*
G02*
X201572000Y-94448000I-150000J0D01*
G01*
G37*
G36*
G01*
X200302000Y-94448000D02*
X200002000Y-94448000D01*
G75*
G02*
X199852000Y-94298000I0J150000D01*
G01*
X199852000Y-92548000D01*
G75*
G02*
X200002000Y-92398000I150000J0D01*
G01*
X200302000Y-92398000D01*
G75*
G02*
X200452000Y-92548000I0J-150000D01*
G01*
X200452000Y-94298000D01*
G75*
G02*
X200302000Y-94448000I-150000J0D01*
G01*
G37*
G36*
G01*
X199032000Y-94448000D02*
X198732000Y-94448000D01*
G75*
G02*
X198582000Y-94298000I0J150000D01*
G01*
X198582000Y-92548000D01*
G75*
G02*
X198732000Y-92398000I150000J0D01*
G01*
X199032000Y-92398000D01*
G75*
G02*
X199182000Y-92548000I0J-150000D01*
G01*
X199182000Y-94298000D01*
G75*
G02*
X199032000Y-94448000I-150000J0D01*
G01*
G37*
G36*
G01*
X197762000Y-94448000D02*
X197462000Y-94448000D01*
G75*
G02*
X197312000Y-94298000I0J150000D01*
G01*
X197312000Y-92548000D01*
G75*
G02*
X197462000Y-92398000I150000J0D01*
G01*
X197762000Y-92398000D01*
G75*
G02*
X197912000Y-92548000I0J-150000D01*
G01*
X197912000Y-94298000D01*
G75*
G02*
X197762000Y-94448000I-150000J0D01*
G01*
G37*
G36*
G01*
X196492000Y-94448000D02*
X196192000Y-94448000D01*
G75*
G02*
X196042000Y-94298000I0J150000D01*
G01*
X196042000Y-92548000D01*
G75*
G02*
X196192000Y-92398000I150000J0D01*
G01*
X196492000Y-92398000D01*
G75*
G02*
X196642000Y-92548000I0J-150000D01*
G01*
X196642000Y-94298000D01*
G75*
G02*
X196492000Y-94448000I-150000J0D01*
G01*
G37*
G36*
G01*
X195222000Y-94448000D02*
X194922000Y-94448000D01*
G75*
G02*
X194772000Y-94298000I0J150000D01*
G01*
X194772000Y-92548000D01*
G75*
G02*
X194922000Y-92398000I150000J0D01*
G01*
X195222000Y-92398000D01*
G75*
G02*
X195372000Y-92548000I0J-150000D01*
G01*
X195372000Y-94298000D01*
G75*
G02*
X195222000Y-94448000I-150000J0D01*
G01*
G37*
G36*
G01*
X193952000Y-94448000D02*
X193652000Y-94448000D01*
G75*
G02*
X193502000Y-94298000I0J150000D01*
G01*
X193502000Y-92548000D01*
G75*
G02*
X193652000Y-92398000I150000J0D01*
G01*
X193952000Y-92398000D01*
G75*
G02*
X194102000Y-92548000I0J-150000D01*
G01*
X194102000Y-94298000D01*
G75*
G02*
X193952000Y-94448000I-150000J0D01*
G01*
G37*
G36*
G01*
X192682000Y-94448000D02*
X192382000Y-94448000D01*
G75*
G02*
X192232000Y-94298000I0J150000D01*
G01*
X192232000Y-92548000D01*
G75*
G02*
X192382000Y-92398000I150000J0D01*
G01*
X192682000Y-92398000D01*
G75*
G02*
X192832000Y-92548000I0J-150000D01*
G01*
X192832000Y-94298000D01*
G75*
G02*
X192682000Y-94448000I-150000J0D01*
G01*
G37*
G36*
G01*
X191412000Y-94448000D02*
X191112000Y-94448000D01*
G75*
G02*
X190962000Y-94298000I0J150000D01*
G01*
X190962000Y-92548000D01*
G75*
G02*
X191112000Y-92398000I150000J0D01*
G01*
X191412000Y-92398000D01*
G75*
G02*
X191562000Y-92548000I0J-150000D01*
G01*
X191562000Y-94298000D01*
G75*
G02*
X191412000Y-94448000I-150000J0D01*
G01*
G37*
G36*
G01*
X190142000Y-94448000D02*
X189842000Y-94448000D01*
G75*
G02*
X189692000Y-94298000I0J150000D01*
G01*
X189692000Y-92548000D01*
G75*
G02*
X189842000Y-92398000I150000J0D01*
G01*
X190142000Y-92398000D01*
G75*
G02*
X190292000Y-92548000I0J-150000D01*
G01*
X190292000Y-94298000D01*
G75*
G02*
X190142000Y-94448000I-150000J0D01*
G01*
G37*
G36*
G01*
X190142000Y-110958000D02*
X189842000Y-110958000D01*
G75*
G02*
X189692000Y-110808000I0J150000D01*
G01*
X189692000Y-109058000D01*
G75*
G02*
X189842000Y-108908000I150000J0D01*
G01*
X190142000Y-108908000D01*
G75*
G02*
X190292000Y-109058000I0J-150000D01*
G01*
X190292000Y-110808000D01*
G75*
G02*
X190142000Y-110958000I-150000J0D01*
G01*
G37*
G36*
G01*
X191412000Y-110958000D02*
X191112000Y-110958000D01*
G75*
G02*
X190962000Y-110808000I0J150000D01*
G01*
X190962000Y-109058000D01*
G75*
G02*
X191112000Y-108908000I150000J0D01*
G01*
X191412000Y-108908000D01*
G75*
G02*
X191562000Y-109058000I0J-150000D01*
G01*
X191562000Y-110808000D01*
G75*
G02*
X191412000Y-110958000I-150000J0D01*
G01*
G37*
G36*
G01*
X192682000Y-110958000D02*
X192382000Y-110958000D01*
G75*
G02*
X192232000Y-110808000I0J150000D01*
G01*
X192232000Y-109058000D01*
G75*
G02*
X192382000Y-108908000I150000J0D01*
G01*
X192682000Y-108908000D01*
G75*
G02*
X192832000Y-109058000I0J-150000D01*
G01*
X192832000Y-110808000D01*
G75*
G02*
X192682000Y-110958000I-150000J0D01*
G01*
G37*
G36*
G01*
X193952000Y-110958000D02*
X193652000Y-110958000D01*
G75*
G02*
X193502000Y-110808000I0J150000D01*
G01*
X193502000Y-109058000D01*
G75*
G02*
X193652000Y-108908000I150000J0D01*
G01*
X193952000Y-108908000D01*
G75*
G02*
X194102000Y-109058000I0J-150000D01*
G01*
X194102000Y-110808000D01*
G75*
G02*
X193952000Y-110958000I-150000J0D01*
G01*
G37*
G36*
G01*
X195222000Y-110958000D02*
X194922000Y-110958000D01*
G75*
G02*
X194772000Y-110808000I0J150000D01*
G01*
X194772000Y-109058000D01*
G75*
G02*
X194922000Y-108908000I150000J0D01*
G01*
X195222000Y-108908000D01*
G75*
G02*
X195372000Y-109058000I0J-150000D01*
G01*
X195372000Y-110808000D01*
G75*
G02*
X195222000Y-110958000I-150000J0D01*
G01*
G37*
G36*
G01*
X196492000Y-110958000D02*
X196192000Y-110958000D01*
G75*
G02*
X196042000Y-110808000I0J150000D01*
G01*
X196042000Y-109058000D01*
G75*
G02*
X196192000Y-108908000I150000J0D01*
G01*
X196492000Y-108908000D01*
G75*
G02*
X196642000Y-109058000I0J-150000D01*
G01*
X196642000Y-110808000D01*
G75*
G02*
X196492000Y-110958000I-150000J0D01*
G01*
G37*
G36*
G01*
X197762000Y-110958000D02*
X197462000Y-110958000D01*
G75*
G02*
X197312000Y-110808000I0J150000D01*
G01*
X197312000Y-109058000D01*
G75*
G02*
X197462000Y-108908000I150000J0D01*
G01*
X197762000Y-108908000D01*
G75*
G02*
X197912000Y-109058000I0J-150000D01*
G01*
X197912000Y-110808000D01*
G75*
G02*
X197762000Y-110958000I-150000J0D01*
G01*
G37*
G36*
G01*
X199032000Y-110958000D02*
X198732000Y-110958000D01*
G75*
G02*
X198582000Y-110808000I0J150000D01*
G01*
X198582000Y-109058000D01*
G75*
G02*
X198732000Y-108908000I150000J0D01*
G01*
X199032000Y-108908000D01*
G75*
G02*
X199182000Y-109058000I0J-150000D01*
G01*
X199182000Y-110808000D01*
G75*
G02*
X199032000Y-110958000I-150000J0D01*
G01*
G37*
G36*
G01*
X200302000Y-110958000D02*
X200002000Y-110958000D01*
G75*
G02*
X199852000Y-110808000I0J150000D01*
G01*
X199852000Y-109058000D01*
G75*
G02*
X200002000Y-108908000I150000J0D01*
G01*
X200302000Y-108908000D01*
G75*
G02*
X200452000Y-109058000I0J-150000D01*
G01*
X200452000Y-110808000D01*
G75*
G02*
X200302000Y-110958000I-150000J0D01*
G01*
G37*
G36*
G01*
X201572000Y-110958000D02*
X201272000Y-110958000D01*
G75*
G02*
X201122000Y-110808000I0J150000D01*
G01*
X201122000Y-109058000D01*
G75*
G02*
X201272000Y-108908000I150000J0D01*
G01*
X201572000Y-108908000D01*
G75*
G02*
X201722000Y-109058000I0J-150000D01*
G01*
X201722000Y-110808000D01*
G75*
G02*
X201572000Y-110958000I-150000J0D01*
G01*
G37*
G36*
G01*
X202842000Y-110958000D02*
X202542000Y-110958000D01*
G75*
G02*
X202392000Y-110808000I0J150000D01*
G01*
X202392000Y-109058000D01*
G75*
G02*
X202542000Y-108908000I150000J0D01*
G01*
X202842000Y-108908000D01*
G75*
G02*
X202992000Y-109058000I0J-150000D01*
G01*
X202992000Y-110808000D01*
G75*
G02*
X202842000Y-110958000I-150000J0D01*
G01*
G37*
G36*
G01*
X204112000Y-110958000D02*
X203812000Y-110958000D01*
G75*
G02*
X203662000Y-110808000I0J150000D01*
G01*
X203662000Y-109058000D01*
G75*
G02*
X203812000Y-108908000I150000J0D01*
G01*
X204112000Y-108908000D01*
G75*
G02*
X204262000Y-109058000I0J-150000D01*
G01*
X204262000Y-110808000D01*
G75*
G02*
X204112000Y-110958000I-150000J0D01*
G01*
G37*
G36*
G01*
X204112000Y-101658000D02*
X203812000Y-101658000D01*
G75*
G02*
X203662000Y-101508000I0J150000D01*
G01*
X203662000Y-99758000D01*
G75*
G02*
X203812000Y-99608000I150000J0D01*
G01*
X204112000Y-99608000D01*
G75*
G02*
X204262000Y-99758000I0J-150000D01*
G01*
X204262000Y-101508000D01*
G75*
G02*
X204112000Y-101658000I-150000J0D01*
G01*
G37*
G36*
G01*
X202842000Y-101658000D02*
X202542000Y-101658000D01*
G75*
G02*
X202392000Y-101508000I0J150000D01*
G01*
X202392000Y-99758000D01*
G75*
G02*
X202542000Y-99608000I150000J0D01*
G01*
X202842000Y-99608000D01*
G75*
G02*
X202992000Y-99758000I0J-150000D01*
G01*
X202992000Y-101508000D01*
G75*
G02*
X202842000Y-101658000I-150000J0D01*
G01*
G37*
G36*
G01*
X201572000Y-101658000D02*
X201272000Y-101658000D01*
G75*
G02*
X201122000Y-101508000I0J150000D01*
G01*
X201122000Y-99758000D01*
G75*
G02*
X201272000Y-99608000I150000J0D01*
G01*
X201572000Y-99608000D01*
G75*
G02*
X201722000Y-99758000I0J-150000D01*
G01*
X201722000Y-101508000D01*
G75*
G02*
X201572000Y-101658000I-150000J0D01*
G01*
G37*
G36*
G01*
X200302000Y-101658000D02*
X200002000Y-101658000D01*
G75*
G02*
X199852000Y-101508000I0J150000D01*
G01*
X199852000Y-99758000D01*
G75*
G02*
X200002000Y-99608000I150000J0D01*
G01*
X200302000Y-99608000D01*
G75*
G02*
X200452000Y-99758000I0J-150000D01*
G01*
X200452000Y-101508000D01*
G75*
G02*
X200302000Y-101658000I-150000J0D01*
G01*
G37*
G36*
G01*
X199032000Y-101658000D02*
X198732000Y-101658000D01*
G75*
G02*
X198582000Y-101508000I0J150000D01*
G01*
X198582000Y-99758000D01*
G75*
G02*
X198732000Y-99608000I150000J0D01*
G01*
X199032000Y-99608000D01*
G75*
G02*
X199182000Y-99758000I0J-150000D01*
G01*
X199182000Y-101508000D01*
G75*
G02*
X199032000Y-101658000I-150000J0D01*
G01*
G37*
G36*
G01*
X197762000Y-101658000D02*
X197462000Y-101658000D01*
G75*
G02*
X197312000Y-101508000I0J150000D01*
G01*
X197312000Y-99758000D01*
G75*
G02*
X197462000Y-99608000I150000J0D01*
G01*
X197762000Y-99608000D01*
G75*
G02*
X197912000Y-99758000I0J-150000D01*
G01*
X197912000Y-101508000D01*
G75*
G02*
X197762000Y-101658000I-150000J0D01*
G01*
G37*
G36*
G01*
X196492000Y-101658000D02*
X196192000Y-101658000D01*
G75*
G02*
X196042000Y-101508000I0J150000D01*
G01*
X196042000Y-99758000D01*
G75*
G02*
X196192000Y-99608000I150000J0D01*
G01*
X196492000Y-99608000D01*
G75*
G02*
X196642000Y-99758000I0J-150000D01*
G01*
X196642000Y-101508000D01*
G75*
G02*
X196492000Y-101658000I-150000J0D01*
G01*
G37*
G36*
G01*
X195222000Y-101658000D02*
X194922000Y-101658000D01*
G75*
G02*
X194772000Y-101508000I0J150000D01*
G01*
X194772000Y-99758000D01*
G75*
G02*
X194922000Y-99608000I150000J0D01*
G01*
X195222000Y-99608000D01*
G75*
G02*
X195372000Y-99758000I0J-150000D01*
G01*
X195372000Y-101508000D01*
G75*
G02*
X195222000Y-101658000I-150000J0D01*
G01*
G37*
G36*
G01*
X193952000Y-101658000D02*
X193652000Y-101658000D01*
G75*
G02*
X193502000Y-101508000I0J150000D01*
G01*
X193502000Y-99758000D01*
G75*
G02*
X193652000Y-99608000I150000J0D01*
G01*
X193952000Y-99608000D01*
G75*
G02*
X194102000Y-99758000I0J-150000D01*
G01*
X194102000Y-101508000D01*
G75*
G02*
X193952000Y-101658000I-150000J0D01*
G01*
G37*
G36*
G01*
X192682000Y-101658000D02*
X192382000Y-101658000D01*
G75*
G02*
X192232000Y-101508000I0J150000D01*
G01*
X192232000Y-99758000D01*
G75*
G02*
X192382000Y-99608000I150000J0D01*
G01*
X192682000Y-99608000D01*
G75*
G02*
X192832000Y-99758000I0J-150000D01*
G01*
X192832000Y-101508000D01*
G75*
G02*
X192682000Y-101658000I-150000J0D01*
G01*
G37*
G36*
G01*
X191412000Y-101658000D02*
X191112000Y-101658000D01*
G75*
G02*
X190962000Y-101508000I0J150000D01*
G01*
X190962000Y-99758000D01*
G75*
G02*
X191112000Y-99608000I150000J0D01*
G01*
X191412000Y-99608000D01*
G75*
G02*
X191562000Y-99758000I0J-150000D01*
G01*
X191562000Y-101508000D01*
G75*
G02*
X191412000Y-101658000I-150000J0D01*
G01*
G37*
G36*
G01*
X190142000Y-101658000D02*
X189842000Y-101658000D01*
G75*
G02*
X189692000Y-101508000I0J150000D01*
G01*
X189692000Y-99758000D01*
G75*
G02*
X189842000Y-99608000I150000J0D01*
G01*
X190142000Y-99608000D01*
G75*
G02*
X190292000Y-99758000I0J-150000D01*
G01*
X190292000Y-101508000D01*
G75*
G02*
X190142000Y-101658000I-150000J0D01*
G01*
G37*
G36*
G01*
X210208000Y-101658000D02*
X209908000Y-101658000D01*
G75*
G02*
X209758000Y-101508000I0J150000D01*
G01*
X209758000Y-99758000D01*
G75*
G02*
X209908000Y-99608000I150000J0D01*
G01*
X210208000Y-99608000D01*
G75*
G02*
X210358000Y-99758000I0J-150000D01*
G01*
X210358000Y-101508000D01*
G75*
G02*
X210208000Y-101658000I-150000J0D01*
G01*
G37*
G36*
G01*
X211478000Y-101658000D02*
X211178000Y-101658000D01*
G75*
G02*
X211028000Y-101508000I0J150000D01*
G01*
X211028000Y-99758000D01*
G75*
G02*
X211178000Y-99608000I150000J0D01*
G01*
X211478000Y-99608000D01*
G75*
G02*
X211628000Y-99758000I0J-150000D01*
G01*
X211628000Y-101508000D01*
G75*
G02*
X211478000Y-101658000I-150000J0D01*
G01*
G37*
G36*
G01*
X212748000Y-101658000D02*
X212448000Y-101658000D01*
G75*
G02*
X212298000Y-101508000I0J150000D01*
G01*
X212298000Y-99758000D01*
G75*
G02*
X212448000Y-99608000I150000J0D01*
G01*
X212748000Y-99608000D01*
G75*
G02*
X212898000Y-99758000I0J-150000D01*
G01*
X212898000Y-101508000D01*
G75*
G02*
X212748000Y-101658000I-150000J0D01*
G01*
G37*
G36*
G01*
X214018000Y-101658000D02*
X213718000Y-101658000D01*
G75*
G02*
X213568000Y-101508000I0J150000D01*
G01*
X213568000Y-99758000D01*
G75*
G02*
X213718000Y-99608000I150000J0D01*
G01*
X214018000Y-99608000D01*
G75*
G02*
X214168000Y-99758000I0J-150000D01*
G01*
X214168000Y-101508000D01*
G75*
G02*
X214018000Y-101658000I-150000J0D01*
G01*
G37*
G36*
G01*
X215288000Y-101658000D02*
X214988000Y-101658000D01*
G75*
G02*
X214838000Y-101508000I0J150000D01*
G01*
X214838000Y-99758000D01*
G75*
G02*
X214988000Y-99608000I150000J0D01*
G01*
X215288000Y-99608000D01*
G75*
G02*
X215438000Y-99758000I0J-150000D01*
G01*
X215438000Y-101508000D01*
G75*
G02*
X215288000Y-101658000I-150000J0D01*
G01*
G37*
G36*
G01*
X216558000Y-101658000D02*
X216258000Y-101658000D01*
G75*
G02*
X216108000Y-101508000I0J150000D01*
G01*
X216108000Y-99758000D01*
G75*
G02*
X216258000Y-99608000I150000J0D01*
G01*
X216558000Y-99608000D01*
G75*
G02*
X216708000Y-99758000I0J-150000D01*
G01*
X216708000Y-101508000D01*
G75*
G02*
X216558000Y-101658000I-150000J0D01*
G01*
G37*
G36*
G01*
X217828000Y-101658000D02*
X217528000Y-101658000D01*
G75*
G02*
X217378000Y-101508000I0J150000D01*
G01*
X217378000Y-99758000D01*
G75*
G02*
X217528000Y-99608000I150000J0D01*
G01*
X217828000Y-99608000D01*
G75*
G02*
X217978000Y-99758000I0J-150000D01*
G01*
X217978000Y-101508000D01*
G75*
G02*
X217828000Y-101658000I-150000J0D01*
G01*
G37*
G36*
G01*
X219098000Y-101658000D02*
X218798000Y-101658000D01*
G75*
G02*
X218648000Y-101508000I0J150000D01*
G01*
X218648000Y-99758000D01*
G75*
G02*
X218798000Y-99608000I150000J0D01*
G01*
X219098000Y-99608000D01*
G75*
G02*
X219248000Y-99758000I0J-150000D01*
G01*
X219248000Y-101508000D01*
G75*
G02*
X219098000Y-101658000I-150000J0D01*
G01*
G37*
G36*
G01*
X220368000Y-101658000D02*
X220068000Y-101658000D01*
G75*
G02*
X219918000Y-101508000I0J150000D01*
G01*
X219918000Y-99758000D01*
G75*
G02*
X220068000Y-99608000I150000J0D01*
G01*
X220368000Y-99608000D01*
G75*
G02*
X220518000Y-99758000I0J-150000D01*
G01*
X220518000Y-101508000D01*
G75*
G02*
X220368000Y-101658000I-150000J0D01*
G01*
G37*
G36*
G01*
X221638000Y-101658000D02*
X221338000Y-101658000D01*
G75*
G02*
X221188000Y-101508000I0J150000D01*
G01*
X221188000Y-99758000D01*
G75*
G02*
X221338000Y-99608000I150000J0D01*
G01*
X221638000Y-99608000D01*
G75*
G02*
X221788000Y-99758000I0J-150000D01*
G01*
X221788000Y-101508000D01*
G75*
G02*
X221638000Y-101658000I-150000J0D01*
G01*
G37*
G36*
G01*
X222908000Y-101658000D02*
X222608000Y-101658000D01*
G75*
G02*
X222458000Y-101508000I0J150000D01*
G01*
X222458000Y-99758000D01*
G75*
G02*
X222608000Y-99608000I150000J0D01*
G01*
X222908000Y-99608000D01*
G75*
G02*
X223058000Y-99758000I0J-150000D01*
G01*
X223058000Y-101508000D01*
G75*
G02*
X222908000Y-101658000I-150000J0D01*
G01*
G37*
G36*
G01*
X224178000Y-101658000D02*
X223878000Y-101658000D01*
G75*
G02*
X223728000Y-101508000I0J150000D01*
G01*
X223728000Y-99758000D01*
G75*
G02*
X223878000Y-99608000I150000J0D01*
G01*
X224178000Y-99608000D01*
G75*
G02*
X224328000Y-99758000I0J-150000D01*
G01*
X224328000Y-101508000D01*
G75*
G02*
X224178000Y-101658000I-150000J0D01*
G01*
G37*
G36*
G01*
X224178000Y-110958000D02*
X223878000Y-110958000D01*
G75*
G02*
X223728000Y-110808000I0J150000D01*
G01*
X223728000Y-109058000D01*
G75*
G02*
X223878000Y-108908000I150000J0D01*
G01*
X224178000Y-108908000D01*
G75*
G02*
X224328000Y-109058000I0J-150000D01*
G01*
X224328000Y-110808000D01*
G75*
G02*
X224178000Y-110958000I-150000J0D01*
G01*
G37*
G36*
G01*
X222908000Y-110958000D02*
X222608000Y-110958000D01*
G75*
G02*
X222458000Y-110808000I0J150000D01*
G01*
X222458000Y-109058000D01*
G75*
G02*
X222608000Y-108908000I150000J0D01*
G01*
X222908000Y-108908000D01*
G75*
G02*
X223058000Y-109058000I0J-150000D01*
G01*
X223058000Y-110808000D01*
G75*
G02*
X222908000Y-110958000I-150000J0D01*
G01*
G37*
G36*
G01*
X221638000Y-110958000D02*
X221338000Y-110958000D01*
G75*
G02*
X221188000Y-110808000I0J150000D01*
G01*
X221188000Y-109058000D01*
G75*
G02*
X221338000Y-108908000I150000J0D01*
G01*
X221638000Y-108908000D01*
G75*
G02*
X221788000Y-109058000I0J-150000D01*
G01*
X221788000Y-110808000D01*
G75*
G02*
X221638000Y-110958000I-150000J0D01*
G01*
G37*
G36*
G01*
X220368000Y-110958000D02*
X220068000Y-110958000D01*
G75*
G02*
X219918000Y-110808000I0J150000D01*
G01*
X219918000Y-109058000D01*
G75*
G02*
X220068000Y-108908000I150000J0D01*
G01*
X220368000Y-108908000D01*
G75*
G02*
X220518000Y-109058000I0J-150000D01*
G01*
X220518000Y-110808000D01*
G75*
G02*
X220368000Y-110958000I-150000J0D01*
G01*
G37*
G36*
G01*
X219098000Y-110958000D02*
X218798000Y-110958000D01*
G75*
G02*
X218648000Y-110808000I0J150000D01*
G01*
X218648000Y-109058000D01*
G75*
G02*
X218798000Y-108908000I150000J0D01*
G01*
X219098000Y-108908000D01*
G75*
G02*
X219248000Y-109058000I0J-150000D01*
G01*
X219248000Y-110808000D01*
G75*
G02*
X219098000Y-110958000I-150000J0D01*
G01*
G37*
G36*
G01*
X217828000Y-110958000D02*
X217528000Y-110958000D01*
G75*
G02*
X217378000Y-110808000I0J150000D01*
G01*
X217378000Y-109058000D01*
G75*
G02*
X217528000Y-108908000I150000J0D01*
G01*
X217828000Y-108908000D01*
G75*
G02*
X217978000Y-109058000I0J-150000D01*
G01*
X217978000Y-110808000D01*
G75*
G02*
X217828000Y-110958000I-150000J0D01*
G01*
G37*
G36*
G01*
X216558000Y-110958000D02*
X216258000Y-110958000D01*
G75*
G02*
X216108000Y-110808000I0J150000D01*
G01*
X216108000Y-109058000D01*
G75*
G02*
X216258000Y-108908000I150000J0D01*
G01*
X216558000Y-108908000D01*
G75*
G02*
X216708000Y-109058000I0J-150000D01*
G01*
X216708000Y-110808000D01*
G75*
G02*
X216558000Y-110958000I-150000J0D01*
G01*
G37*
G36*
G01*
X215288000Y-110958000D02*
X214988000Y-110958000D01*
G75*
G02*
X214838000Y-110808000I0J150000D01*
G01*
X214838000Y-109058000D01*
G75*
G02*
X214988000Y-108908000I150000J0D01*
G01*
X215288000Y-108908000D01*
G75*
G02*
X215438000Y-109058000I0J-150000D01*
G01*
X215438000Y-110808000D01*
G75*
G02*
X215288000Y-110958000I-150000J0D01*
G01*
G37*
G36*
G01*
X214018000Y-110958000D02*
X213718000Y-110958000D01*
G75*
G02*
X213568000Y-110808000I0J150000D01*
G01*
X213568000Y-109058000D01*
G75*
G02*
X213718000Y-108908000I150000J0D01*
G01*
X214018000Y-108908000D01*
G75*
G02*
X214168000Y-109058000I0J-150000D01*
G01*
X214168000Y-110808000D01*
G75*
G02*
X214018000Y-110958000I-150000J0D01*
G01*
G37*
G36*
G01*
X212748000Y-110958000D02*
X212448000Y-110958000D01*
G75*
G02*
X212298000Y-110808000I0J150000D01*
G01*
X212298000Y-109058000D01*
G75*
G02*
X212448000Y-108908000I150000J0D01*
G01*
X212748000Y-108908000D01*
G75*
G02*
X212898000Y-109058000I0J-150000D01*
G01*
X212898000Y-110808000D01*
G75*
G02*
X212748000Y-110958000I-150000J0D01*
G01*
G37*
G36*
G01*
X211478000Y-110958000D02*
X211178000Y-110958000D01*
G75*
G02*
X211028000Y-110808000I0J150000D01*
G01*
X211028000Y-109058000D01*
G75*
G02*
X211178000Y-108908000I150000J0D01*
G01*
X211478000Y-108908000D01*
G75*
G02*
X211628000Y-109058000I0J-150000D01*
G01*
X211628000Y-110808000D01*
G75*
G02*
X211478000Y-110958000I-150000J0D01*
G01*
G37*
G36*
G01*
X210208000Y-110958000D02*
X209908000Y-110958000D01*
G75*
G02*
X209758000Y-110808000I0J150000D01*
G01*
X209758000Y-109058000D01*
G75*
G02*
X209908000Y-108908000I150000J0D01*
G01*
X210208000Y-108908000D01*
G75*
G02*
X210358000Y-109058000I0J-150000D01*
G01*
X210358000Y-110808000D01*
G75*
G02*
X210208000Y-110958000I-150000J0D01*
G01*
G37*
G36*
G01*
X174440000Y-55720000D02*
X174440000Y-54770000D01*
G75*
G02*
X174690000Y-54520000I250000J0D01*
G01*
X175365000Y-54520000D01*
G75*
G02*
X175615000Y-54770000I0J-250000D01*
G01*
X175615000Y-55720000D01*
G75*
G02*
X175365000Y-55970000I-250000J0D01*
G01*
X174690000Y-55970000D01*
G75*
G02*
X174440000Y-55720000I0J250000D01*
G01*
G37*
G36*
G01*
X172365000Y-55720000D02*
X172365000Y-54770000D01*
G75*
G02*
X172615000Y-54520000I250000J0D01*
G01*
X173290000Y-54520000D01*
G75*
G02*
X173540000Y-54770000I0J-250000D01*
G01*
X173540000Y-55720000D01*
G75*
G02*
X173290000Y-55970000I-250000J0D01*
G01*
X172615000Y-55970000D01*
G75*
G02*
X172365000Y-55720000I0J250000D01*
G01*
G37*
G36*
G01*
X166022000Y-68352000D02*
X166972000Y-68352000D01*
G75*
G02*
X167222000Y-68602000I0J-250000D01*
G01*
X167222000Y-69277000D01*
G75*
G02*
X166972000Y-69527000I-250000J0D01*
G01*
X166022000Y-69527000D01*
G75*
G02*
X165772000Y-69277000I0J250000D01*
G01*
X165772000Y-68602000D01*
G75*
G02*
X166022000Y-68352000I250000J0D01*
G01*
G37*
G36*
G01*
X166022000Y-70427000D02*
X166972000Y-70427000D01*
G75*
G02*
X167222000Y-70677000I0J-250000D01*
G01*
X167222000Y-71352000D01*
G75*
G02*
X166972000Y-71602000I-250000J0D01*
G01*
X166022000Y-71602000D01*
G75*
G02*
X165772000Y-71352000I0J250000D01*
G01*
X165772000Y-70677000D01*
G75*
G02*
X166022000Y-70427000I250000J0D01*
G01*
G37*
G36*
G01*
X165895000Y-85413000D02*
X166845000Y-85413000D01*
G75*
G02*
X167095000Y-85663000I0J-250000D01*
G01*
X167095000Y-86338000D01*
G75*
G02*
X166845000Y-86588000I-250000J0D01*
G01*
X165895000Y-86588000D01*
G75*
G02*
X165645000Y-86338000I0J250000D01*
G01*
X165645000Y-85663000D01*
G75*
G02*
X165895000Y-85413000I250000J0D01*
G01*
G37*
G36*
G01*
X165895000Y-83338000D02*
X166845000Y-83338000D01*
G75*
G02*
X167095000Y-83588000I0J-250000D01*
G01*
X167095000Y-84263000D01*
G75*
G02*
X166845000Y-84513000I-250000J0D01*
G01*
X165895000Y-84513000D01*
G75*
G02*
X165645000Y-84263000I0J250000D01*
G01*
X165645000Y-83588000D01*
G75*
G02*
X165895000Y-83338000I250000J0D01*
G01*
G37*
G36*
G01*
X206662000Y-83570500D02*
X207612000Y-83570500D01*
G75*
G02*
X207862000Y-83820500I0J-250000D01*
G01*
X207862000Y-84495500D01*
G75*
G02*
X207612000Y-84745500I-250000J0D01*
G01*
X206662000Y-84745500D01*
G75*
G02*
X206412000Y-84495500I0J250000D01*
G01*
X206412000Y-83820500D01*
G75*
G02*
X206662000Y-83570500I250000J0D01*
G01*
G37*
G36*
G01*
X206662000Y-85645500D02*
X207612000Y-85645500D01*
G75*
G02*
X207862000Y-85895500I0J-250000D01*
G01*
X207862000Y-86570500D01*
G75*
G02*
X207612000Y-86820500I-250000J0D01*
G01*
X206662000Y-86820500D01*
G75*
G02*
X206412000Y-86570500I0J250000D01*
G01*
X206412000Y-85895500D01*
G75*
G02*
X206662000Y-85645500I250000J0D01*
G01*
G37*
G36*
G01*
X165641000Y-99721000D02*
X166591000Y-99721000D01*
G75*
G02*
X166841000Y-99971000I0J-250000D01*
G01*
X166841000Y-100646000D01*
G75*
G02*
X166591000Y-100896000I-250000J0D01*
G01*
X165641000Y-100896000D01*
G75*
G02*
X165391000Y-100646000I0J250000D01*
G01*
X165391000Y-99971000D01*
G75*
G02*
X165641000Y-99721000I250000J0D01*
G01*
G37*
G36*
G01*
X165641000Y-101796000D02*
X166591000Y-101796000D01*
G75*
G02*
X166841000Y-102046000I0J-250000D01*
G01*
X166841000Y-102721000D01*
G75*
G02*
X166591000Y-102971000I-250000J0D01*
G01*
X165641000Y-102971000D01*
G75*
G02*
X165391000Y-102721000I0J250000D01*
G01*
X165391000Y-102046000D01*
G75*
G02*
X165641000Y-101796000I250000J0D01*
G01*
G37*
G36*
G01*
X231590000Y-98138000D02*
X231590000Y-97188000D01*
G75*
G02*
X231840000Y-96938000I250000J0D01*
G01*
X232515000Y-96938000D01*
G75*
G02*
X232765000Y-97188000I0J-250000D01*
G01*
X232765000Y-98138000D01*
G75*
G02*
X232515000Y-98388000I-250000J0D01*
G01*
X231840000Y-98388000D01*
G75*
G02*
X231590000Y-98138000I0J250000D01*
G01*
G37*
G36*
G01*
X229515000Y-98138000D02*
X229515000Y-97188000D01*
G75*
G02*
X229765000Y-96938000I250000J0D01*
G01*
X230440000Y-96938000D01*
G75*
G02*
X230690000Y-97188000I0J-250000D01*
G01*
X230690000Y-98138000D01*
G75*
G02*
X230440000Y-98388000I-250000J0D01*
G01*
X229765000Y-98388000D01*
G75*
G02*
X229515000Y-98138000I0J250000D01*
G01*
G37*
G36*
G01*
X226601000Y-83338000D02*
X227551000Y-83338000D01*
G75*
G02*
X227801000Y-83588000I0J-250000D01*
G01*
X227801000Y-84263000D01*
G75*
G02*
X227551000Y-84513000I-250000J0D01*
G01*
X226601000Y-84513000D01*
G75*
G02*
X226351000Y-84263000I0J250000D01*
G01*
X226351000Y-83588000D01*
G75*
G02*
X226601000Y-83338000I250000J0D01*
G01*
G37*
G36*
G01*
X226601000Y-85413000D02*
X227551000Y-85413000D01*
G75*
G02*
X227801000Y-85663000I0J-250000D01*
G01*
X227801000Y-86338000D01*
G75*
G02*
X227551000Y-86588000I-250000J0D01*
G01*
X226601000Y-86588000D01*
G75*
G02*
X226351000Y-86338000I0J250000D01*
G01*
X226351000Y-85663000D01*
G75*
G02*
X226601000Y-85413000I250000J0D01*
G01*
G37*
G36*
G01*
X186469000Y-85540000D02*
X187419000Y-85540000D01*
G75*
G02*
X187669000Y-85790000I0J-250000D01*
G01*
X187669000Y-86465000D01*
G75*
G02*
X187419000Y-86715000I-250000J0D01*
G01*
X186469000Y-86715000D01*
G75*
G02*
X186219000Y-86465000I0J250000D01*
G01*
X186219000Y-85790000D01*
G75*
G02*
X186469000Y-85540000I250000J0D01*
G01*
G37*
G36*
G01*
X186469000Y-83465000D02*
X187419000Y-83465000D01*
G75*
G02*
X187669000Y-83715000I0J-250000D01*
G01*
X187669000Y-84390000D01*
G75*
G02*
X187419000Y-84640000I-250000J0D01*
G01*
X186469000Y-84640000D01*
G75*
G02*
X186219000Y-84390000I0J250000D01*
G01*
X186219000Y-83715000D01*
G75*
G02*
X186469000Y-83465000I250000J0D01*
G01*
G37*
G36*
G01*
X186469000Y-99975000D02*
X187419000Y-99975000D01*
G75*
G02*
X187669000Y-100225000I0J-250000D01*
G01*
X187669000Y-100900000D01*
G75*
G02*
X187419000Y-101150000I-250000J0D01*
G01*
X186469000Y-101150000D01*
G75*
G02*
X186219000Y-100900000I0J250000D01*
G01*
X186219000Y-100225000D01*
G75*
G02*
X186469000Y-99975000I250000J0D01*
G01*
G37*
G36*
G01*
X186469000Y-102050000D02*
X187419000Y-102050000D01*
G75*
G02*
X187669000Y-102300000I0J-250000D01*
G01*
X187669000Y-102975000D01*
G75*
G02*
X187419000Y-103225000I-250000J0D01*
G01*
X186469000Y-103225000D01*
G75*
G02*
X186219000Y-102975000I0J250000D01*
G01*
X186219000Y-102300000D01*
G75*
G02*
X186469000Y-102050000I250000J0D01*
G01*
G37*
G36*
G01*
X175159000Y-123538000D02*
X175159000Y-122588000D01*
G75*
G02*
X175409000Y-122338000I250000J0D01*
G01*
X176084000Y-122338000D01*
G75*
G02*
X176334000Y-122588000I0J-250000D01*
G01*
X176334000Y-123538000D01*
G75*
G02*
X176084000Y-123788000I-250000J0D01*
G01*
X175409000Y-123788000D01*
G75*
G02*
X175159000Y-123538000I0J250000D01*
G01*
G37*
G36*
G01*
X177234000Y-123538000D02*
X177234000Y-122588000D01*
G75*
G02*
X177484000Y-122338000I250000J0D01*
G01*
X178159000Y-122338000D01*
G75*
G02*
X178409000Y-122588000I0J-250000D01*
G01*
X178409000Y-123538000D01*
G75*
G02*
X178159000Y-123788000I-250000J0D01*
G01*
X177484000Y-123788000D01*
G75*
G02*
X177234000Y-123538000I0J250000D01*
G01*
G37*
G36*
G01*
X109652000Y-54552001D02*
X109652000Y-53651999D01*
G75*
G02*
X109901999Y-53402000I249999J0D01*
G01*
X110602001Y-53402000D01*
G75*
G02*
X110852000Y-53651999I0J-249999D01*
G01*
X110852000Y-54552001D01*
G75*
G02*
X110602001Y-54802000I-249999J0D01*
G01*
X109901999Y-54802000D01*
G75*
G02*
X109652000Y-54552001I0J249999D01*
G01*
G37*
G36*
G01*
X111652000Y-54552001D02*
X111652000Y-53651999D01*
G75*
G02*
X111901999Y-53402000I249999J0D01*
G01*
X112602001Y-53402000D01*
G75*
G02*
X112852000Y-53651999I0J-249999D01*
G01*
X112852000Y-54552001D01*
G75*
G02*
X112602001Y-54802000I-249999J0D01*
G01*
X111901999Y-54802000D01*
G75*
G02*
X111652000Y-54552001I0J249999D01*
G01*
G37*
G36*
G01*
X112845001Y-61163000D02*
X111944999Y-61163000D01*
G75*
G02*
X111695000Y-60913001I0J249999D01*
G01*
X111695000Y-60212999D01*
G75*
G02*
X111944999Y-59963000I249999J0D01*
G01*
X112845001Y-59963000D01*
G75*
G02*
X113095000Y-60212999I0J-249999D01*
G01*
X113095000Y-60913001D01*
G75*
G02*
X112845001Y-61163000I-249999J0D01*
G01*
G37*
G36*
G01*
X112845001Y-59163000D02*
X111944999Y-59163000D01*
G75*
G02*
X111695000Y-58913001I0J249999D01*
G01*
X111695000Y-58212999D01*
G75*
G02*
X111944999Y-57963000I249999J0D01*
G01*
X112845001Y-57963000D01*
G75*
G02*
X113095000Y-58212999I0J-249999D01*
G01*
X113095000Y-58913001D01*
G75*
G02*
X112845001Y-59163000I-249999J0D01*
G01*
G37*
G36*
G01*
X99999000Y-64585001D02*
X99999000Y-63684999D01*
G75*
G02*
X100248999Y-63435000I249999J0D01*
G01*
X100949001Y-63435000D01*
G75*
G02*
X101199000Y-63684999I0J-249999D01*
G01*
X101199000Y-64585001D01*
G75*
G02*
X100949001Y-64835000I-249999J0D01*
G01*
X100248999Y-64835000D01*
G75*
G02*
X99999000Y-64585001I0J249999D01*
G01*
G37*
G36*
G01*
X101999000Y-64585001D02*
X101999000Y-63684999D01*
G75*
G02*
X102248999Y-63435000I249999J0D01*
G01*
X102949001Y-63435000D01*
G75*
G02*
X103199000Y-63684999I0J-249999D01*
G01*
X103199000Y-64585001D01*
G75*
G02*
X102949001Y-64835000I-249999J0D01*
G01*
X102248999Y-64835000D01*
G75*
G02*
X101999000Y-64585001I0J249999D01*
G01*
G37*
G36*
G01*
X229400000Y-30930001D02*
X229400000Y-30029999D01*
G75*
G02*
X229649999Y-29780000I249999J0D01*
G01*
X230350001Y-29780000D01*
G75*
G02*
X230600000Y-30029999I0J-249999D01*
G01*
X230600000Y-30930001D01*
G75*
G02*
X230350001Y-31180000I-249999J0D01*
G01*
X229649999Y-31180000D01*
G75*
G02*
X229400000Y-30930001I0J249999D01*
G01*
G37*
G36*
G01*
X231400000Y-30930001D02*
X231400000Y-30029999D01*
G75*
G02*
X231649999Y-29780000I249999J0D01*
G01*
X232350001Y-29780000D01*
G75*
G02*
X232600000Y-30029999I0J-249999D01*
G01*
X232600000Y-30930001D01*
G75*
G02*
X232350001Y-31180000I-249999J0D01*
G01*
X231649999Y-31180000D01*
G75*
G02*
X231400000Y-30930001I0J249999D01*
G01*
G37*
G36*
G01*
X233715000Y-30930001D02*
X233715000Y-30029999D01*
G75*
G02*
X233964999Y-29780000I249999J0D01*
G01*
X234665001Y-29780000D01*
G75*
G02*
X234915000Y-30029999I0J-249999D01*
G01*
X234915000Y-30930001D01*
G75*
G02*
X234665001Y-31180000I-249999J0D01*
G01*
X233964999Y-31180000D01*
G75*
G02*
X233715000Y-30930001I0J249999D01*
G01*
G37*
G36*
G01*
X235715000Y-30930001D02*
X235715000Y-30029999D01*
G75*
G02*
X235964999Y-29780000I249999J0D01*
G01*
X236665001Y-29780000D01*
G75*
G02*
X236915000Y-30029999I0J-249999D01*
G01*
X236915000Y-30930001D01*
G75*
G02*
X236665001Y-31180000I-249999J0D01*
G01*
X235964999Y-31180000D01*
G75*
G02*
X235715000Y-30930001I0J249999D01*
G01*
G37*
G36*
G01*
X191027000Y-60775001D02*
X191027000Y-59874999D01*
G75*
G02*
X191276999Y-59625000I249999J0D01*
G01*
X191977001Y-59625000D01*
G75*
G02*
X192227000Y-59874999I0J-249999D01*
G01*
X192227000Y-60775001D01*
G75*
G02*
X191977001Y-61025000I-249999J0D01*
G01*
X191276999Y-61025000D01*
G75*
G02*
X191027000Y-60775001I0J249999D01*
G01*
G37*
G36*
G01*
X189027000Y-60775001D02*
X189027000Y-59874999D01*
G75*
G02*
X189276999Y-59625000I249999J0D01*
G01*
X189977001Y-59625000D01*
G75*
G02*
X190227000Y-59874999I0J-249999D01*
G01*
X190227000Y-60775001D01*
G75*
G02*
X189977001Y-61025000I-249999J0D01*
G01*
X189276999Y-61025000D01*
G75*
G02*
X189027000Y-60775001I0J249999D01*
G01*
G37*
G36*
G01*
X191011000Y-57219001D02*
X191011000Y-56318999D01*
G75*
G02*
X191260999Y-56069000I249999J0D01*
G01*
X191961001Y-56069000D01*
G75*
G02*
X192211000Y-56318999I0J-249999D01*
G01*
X192211000Y-57219001D01*
G75*
G02*
X191961001Y-57469000I-249999J0D01*
G01*
X191260999Y-57469000D01*
G75*
G02*
X191011000Y-57219001I0J249999D01*
G01*
G37*
G36*
G01*
X189011000Y-57219001D02*
X189011000Y-56318999D01*
G75*
G02*
X189260999Y-56069000I249999J0D01*
G01*
X189961001Y-56069000D01*
G75*
G02*
X190211000Y-56318999I0J-249999D01*
G01*
X190211000Y-57219001D01*
G75*
G02*
X189961001Y-57469000I-249999J0D01*
G01*
X189260999Y-57469000D01*
G75*
G02*
X189011000Y-57219001I0J249999D01*
G01*
G37*
G36*
G01*
X95358000Y-122485999D02*
X95358000Y-123386001D01*
G75*
G02*
X95108001Y-123636000I-249999J0D01*
G01*
X94407999Y-123636000D01*
G75*
G02*
X94158000Y-123386001I0J249999D01*
G01*
X94158000Y-122485999D01*
G75*
G02*
X94407999Y-122236000I249999J0D01*
G01*
X95108001Y-122236000D01*
G75*
G02*
X95358000Y-122485999I0J-249999D01*
G01*
G37*
G36*
G01*
X97358000Y-122485999D02*
X97358000Y-123386001D01*
G75*
G02*
X97108001Y-123636000I-249999J0D01*
G01*
X96407999Y-123636000D01*
G75*
G02*
X96158000Y-123386001I0J249999D01*
G01*
X96158000Y-122485999D01*
G75*
G02*
X96407999Y-122236000I249999J0D01*
G01*
X97108001Y-122236000D01*
G75*
G02*
X97358000Y-122485999I0J-249999D01*
G01*
G37*
G36*
G01*
X97358000Y-120326999D02*
X97358000Y-121227001D01*
G75*
G02*
X97108001Y-121477000I-249999J0D01*
G01*
X96407999Y-121477000D01*
G75*
G02*
X96158000Y-121227001I0J249999D01*
G01*
X96158000Y-120326999D01*
G75*
G02*
X96407999Y-120077000I249999J0D01*
G01*
X97108001Y-120077000D01*
G75*
G02*
X97358000Y-120326999I0J-249999D01*
G01*
G37*
G36*
G01*
X95358000Y-120326999D02*
X95358000Y-121227001D01*
G75*
G02*
X95108001Y-121477000I-249999J0D01*
G01*
X94407999Y-121477000D01*
G75*
G02*
X94158000Y-121227001I0J249999D01*
G01*
X94158000Y-120326999D01*
G75*
G02*
X94407999Y-120077000I249999J0D01*
G01*
X95108001Y-120077000D01*
G75*
G02*
X95358000Y-120326999I0J-249999D01*
G01*
G37*
G36*
G01*
X164400000Y-123513001D02*
X164400000Y-122612999D01*
G75*
G02*
X164649999Y-122363000I249999J0D01*
G01*
X165350001Y-122363000D01*
G75*
G02*
X165600000Y-122612999I0J-249999D01*
G01*
X165600000Y-123513001D01*
G75*
G02*
X165350001Y-123763000I-249999J0D01*
G01*
X164649999Y-123763000D01*
G75*
G02*
X164400000Y-123513001I0J249999D01*
G01*
G37*
G36*
G01*
X162400000Y-123513001D02*
X162400000Y-122612999D01*
G75*
G02*
X162649999Y-122363000I249999J0D01*
G01*
X163350001Y-122363000D01*
G75*
G02*
X163600000Y-122612999I0J-249999D01*
G01*
X163600000Y-123513001D01*
G75*
G02*
X163350001Y-123763000I-249999J0D01*
G01*
X162649999Y-123763000D01*
G75*
G02*
X162400000Y-123513001I0J249999D01*
G01*
G37*
G36*
G01*
X102311000Y-109912999D02*
X102311000Y-110813001D01*
G75*
G02*
X102061001Y-111063000I-249999J0D01*
G01*
X101360999Y-111063000D01*
G75*
G02*
X101111000Y-110813001I0J249999D01*
G01*
X101111000Y-109912999D01*
G75*
G02*
X101360999Y-109663000I249999J0D01*
G01*
X102061001Y-109663000D01*
G75*
G02*
X102311000Y-109912999I0J-249999D01*
G01*
G37*
G36*
G01*
X100311000Y-109912999D02*
X100311000Y-110813001D01*
G75*
G02*
X100061001Y-111063000I-249999J0D01*
G01*
X99360999Y-111063000D01*
G75*
G02*
X99111000Y-110813001I0J249999D01*
G01*
X99111000Y-109912999D01*
G75*
G02*
X99360999Y-109663000I249999J0D01*
G01*
X100061001Y-109663000D01*
G75*
G02*
X100311000Y-109912999I0J-249999D01*
G01*
G37*
G36*
G01*
X100311000Y-107944499D02*
X100311000Y-108844501D01*
G75*
G02*
X100061001Y-109094500I-249999J0D01*
G01*
X99360999Y-109094500D01*
G75*
G02*
X99111000Y-108844501I0J249999D01*
G01*
X99111000Y-107944499D01*
G75*
G02*
X99360999Y-107694500I249999J0D01*
G01*
X100061001Y-107694500D01*
G75*
G02*
X100311000Y-107944499I0J-249999D01*
G01*
G37*
G36*
G01*
X102311000Y-107944499D02*
X102311000Y-108844501D01*
G75*
G02*
X102061001Y-109094500I-249999J0D01*
G01*
X101360999Y-109094500D01*
G75*
G02*
X101111000Y-108844501I0J249999D01*
G01*
X101111000Y-107944499D01*
G75*
G02*
X101360999Y-107694500I249999J0D01*
G01*
X102061001Y-107694500D01*
G75*
G02*
X102311000Y-107944499I0J-249999D01*
G01*
G37*
G36*
G01*
X100311000Y-105975999D02*
X100311000Y-106876001D01*
G75*
G02*
X100061001Y-107126000I-249999J0D01*
G01*
X99360999Y-107126000D01*
G75*
G02*
X99111000Y-106876001I0J249999D01*
G01*
X99111000Y-105975999D01*
G75*
G02*
X99360999Y-105726000I249999J0D01*
G01*
X100061001Y-105726000D01*
G75*
G02*
X100311000Y-105975999I0J-249999D01*
G01*
G37*
G36*
G01*
X102311000Y-105975999D02*
X102311000Y-106876001D01*
G75*
G02*
X102061001Y-107126000I-249999J0D01*
G01*
X101360999Y-107126000D01*
G75*
G02*
X101111000Y-106876001I0J249999D01*
G01*
X101111000Y-105975999D01*
G75*
G02*
X101360999Y-105726000I249999J0D01*
G01*
X102061001Y-105726000D01*
G75*
G02*
X102311000Y-105975999I0J-249999D01*
G01*
G37*
G36*
G01*
X100311000Y-104007499D02*
X100311000Y-104907501D01*
G75*
G02*
X100061001Y-105157500I-249999J0D01*
G01*
X99360999Y-105157500D01*
G75*
G02*
X99111000Y-104907501I0J249999D01*
G01*
X99111000Y-104007499D01*
G75*
G02*
X99360999Y-103757500I249999J0D01*
G01*
X100061001Y-103757500D01*
G75*
G02*
X100311000Y-104007499I0J-249999D01*
G01*
G37*
G36*
G01*
X102311000Y-104007499D02*
X102311000Y-104907501D01*
G75*
G02*
X102061001Y-105157500I-249999J0D01*
G01*
X101360999Y-105157500D01*
G75*
G02*
X101111000Y-104907501I0J249999D01*
G01*
X101111000Y-104007499D01*
G75*
G02*
X101360999Y-103757500I249999J0D01*
G01*
X102061001Y-103757500D01*
G75*
G02*
X102311000Y-104007499I0J-249999D01*
G01*
G37*
G36*
G01*
X102311000Y-102038999D02*
X102311000Y-102939001D01*
G75*
G02*
X102061001Y-103189000I-249999J0D01*
G01*
X101360999Y-103189000D01*
G75*
G02*
X101111000Y-102939001I0J249999D01*
G01*
X101111000Y-102038999D01*
G75*
G02*
X101360999Y-101789000I249999J0D01*
G01*
X102061001Y-101789000D01*
G75*
G02*
X102311000Y-102038999I0J-249999D01*
G01*
G37*
G36*
G01*
X100311000Y-102038999D02*
X100311000Y-102939001D01*
G75*
G02*
X100061001Y-103189000I-249999J0D01*
G01*
X99360999Y-103189000D01*
G75*
G02*
X99111000Y-102939001I0J249999D01*
G01*
X99111000Y-102038999D01*
G75*
G02*
X99360999Y-101789000I249999J0D01*
G01*
X100061001Y-101789000D01*
G75*
G02*
X100311000Y-102038999I0J-249999D01*
G01*
G37*
G36*
G01*
X246427000Y-114394000D02*
X246427000Y-113444000D01*
G75*
G02*
X246677000Y-113194000I250000J0D01*
G01*
X247352000Y-113194000D01*
G75*
G02*
X247602000Y-113444000I0J-250000D01*
G01*
X247602000Y-114394000D01*
G75*
G02*
X247352000Y-114644000I-250000J0D01*
G01*
X246677000Y-114644000D01*
G75*
G02*
X246427000Y-114394000I0J250000D01*
G01*
G37*
G36*
G01*
X248502000Y-114394000D02*
X248502000Y-113444000D01*
G75*
G02*
X248752000Y-113194000I250000J0D01*
G01*
X249427000Y-113194000D01*
G75*
G02*
X249677000Y-113444000I0J-250000D01*
G01*
X249677000Y-114394000D01*
G75*
G02*
X249427000Y-114644000I-250000J0D01*
G01*
X248752000Y-114644000D01*
G75*
G02*
X248502000Y-114394000I0J250000D01*
G01*
G37*
G36*
G01*
X170757000Y-48227000D02*
X170757000Y-47277000D01*
G75*
G02*
X171007000Y-47027000I250000J0D01*
G01*
X171682000Y-47027000D01*
G75*
G02*
X171932000Y-47277000I0J-250000D01*
G01*
X171932000Y-48227000D01*
G75*
G02*
X171682000Y-48477000I-250000J0D01*
G01*
X171007000Y-48477000D01*
G75*
G02*
X170757000Y-48227000I0J250000D01*
G01*
G37*
G36*
G01*
X168682000Y-48227000D02*
X168682000Y-47277000D01*
G75*
G02*
X168932000Y-47027000I250000J0D01*
G01*
X169607000Y-47027000D01*
G75*
G02*
X169857000Y-47277000I0J-250000D01*
G01*
X169857000Y-48227000D01*
G75*
G02*
X169607000Y-48477000I-250000J0D01*
G01*
X168932000Y-48477000D01*
G75*
G02*
X168682000Y-48227000I0J250000D01*
G01*
G37*
G36*
G01*
X100311000Y-111881499D02*
X100311000Y-112781501D01*
G75*
G02*
X100061001Y-113031500I-249999J0D01*
G01*
X99360999Y-113031500D01*
G75*
G02*
X99111000Y-112781501I0J249999D01*
G01*
X99111000Y-111881499D01*
G75*
G02*
X99360999Y-111631500I249999J0D01*
G01*
X100061001Y-111631500D01*
G75*
G02*
X100311000Y-111881499I0J-249999D01*
G01*
G37*
G36*
G01*
X102311000Y-111881499D02*
X102311000Y-112781501D01*
G75*
G02*
X102061001Y-113031500I-249999J0D01*
G01*
X101360999Y-113031500D01*
G75*
G02*
X101111000Y-112781501I0J249999D01*
G01*
X101111000Y-111881499D01*
G75*
G02*
X101360999Y-111631500I249999J0D01*
G01*
X102061001Y-111631500D01*
G75*
G02*
X102311000Y-111881499I0J-249999D01*
G01*
G37*
G36*
G01*
X93595700Y-78757800D02*
X93595700Y-77807800D01*
G75*
G02*
X93845700Y-77557800I250000J0D01*
G01*
X94520700Y-77557800D01*
G75*
G02*
X94770700Y-77807800I0J-250000D01*
G01*
X94770700Y-78757800D01*
G75*
G02*
X94520700Y-79007800I-250000J0D01*
G01*
X93845700Y-79007800D01*
G75*
G02*
X93595700Y-78757800I0J250000D01*
G01*
G37*
G36*
G01*
X95670700Y-78757800D02*
X95670700Y-77807800D01*
G75*
G02*
X95920700Y-77557800I250000J0D01*
G01*
X96595700Y-77557800D01*
G75*
G02*
X96845700Y-77807800I0J-250000D01*
G01*
X96845700Y-78757800D01*
G75*
G02*
X96595700Y-79007800I-250000J0D01*
G01*
X95920700Y-79007800D01*
G75*
G02*
X95670700Y-78757800I0J250000D01*
G01*
G37*
G36*
G01*
X207524999Y-110227000D02*
X208425001Y-110227000D01*
G75*
G02*
X208675000Y-110476999I0J-249999D01*
G01*
X208675000Y-111177001D01*
G75*
G02*
X208425001Y-111427000I-249999J0D01*
G01*
X207524999Y-111427000D01*
G75*
G02*
X207275000Y-111177001I0J249999D01*
G01*
X207275000Y-110476999D01*
G75*
G02*
X207524999Y-110227000I249999J0D01*
G01*
G37*
G36*
G01*
X207524999Y-112227000D02*
X208425001Y-112227000D01*
G75*
G02*
X208675000Y-112476999I0J-249999D01*
G01*
X208675000Y-113177001D01*
G75*
G02*
X208425001Y-113427000I-249999J0D01*
G01*
X207524999Y-113427000D01*
G75*
G02*
X207275000Y-113177001I0J249999D01*
G01*
X207275000Y-112476999D01*
G75*
G02*
X207524999Y-112227000I249999J0D01*
G01*
G37*
G36*
G01*
X210966000Y-30422001D02*
X210966000Y-29521999D01*
G75*
G02*
X211215999Y-29272000I249999J0D01*
G01*
X211916001Y-29272000D01*
G75*
G02*
X212166000Y-29521999I0J-249999D01*
G01*
X212166000Y-30422001D01*
G75*
G02*
X211916001Y-30672000I-249999J0D01*
G01*
X211215999Y-30672000D01*
G75*
G02*
X210966000Y-30422001I0J249999D01*
G01*
G37*
G36*
G01*
X208966000Y-30422001D02*
X208966000Y-29521999D01*
G75*
G02*
X209215999Y-29272000I249999J0D01*
G01*
X209916001Y-29272000D01*
G75*
G02*
X210166000Y-29521999I0J-249999D01*
G01*
X210166000Y-30422001D01*
G75*
G02*
X209916001Y-30672000I-249999J0D01*
G01*
X209215999Y-30672000D01*
G75*
G02*
X208966000Y-30422001I0J249999D01*
G01*
G37*
G36*
G01*
X190822000Y-43655000D02*
X190822000Y-42705000D01*
G75*
G02*
X191072000Y-42455000I250000J0D01*
G01*
X191747000Y-42455000D01*
G75*
G02*
X191997000Y-42705000I0J-250000D01*
G01*
X191997000Y-43655000D01*
G75*
G02*
X191747000Y-43905000I-250000J0D01*
G01*
X191072000Y-43905000D01*
G75*
G02*
X190822000Y-43655000I0J250000D01*
G01*
G37*
G36*
G01*
X192897000Y-43655000D02*
X192897000Y-42705000D01*
G75*
G02*
X193147000Y-42455000I250000J0D01*
G01*
X193822000Y-42455000D01*
G75*
G02*
X194072000Y-42705000I0J-250000D01*
G01*
X194072000Y-43655000D01*
G75*
G02*
X193822000Y-43905000I-250000J0D01*
G01*
X193147000Y-43905000D01*
G75*
G02*
X192897000Y-43655000I0J250000D01*
G01*
G37*
G36*
G01*
X184691000Y-49450500D02*
X185641000Y-49450500D01*
G75*
G02*
X185891000Y-49700500I0J-250000D01*
G01*
X185891000Y-50375500D01*
G75*
G02*
X185641000Y-50625500I-250000J0D01*
G01*
X184691000Y-50625500D01*
G75*
G02*
X184441000Y-50375500I0J250000D01*
G01*
X184441000Y-49700500D01*
G75*
G02*
X184691000Y-49450500I250000J0D01*
G01*
G37*
G36*
G01*
X184691000Y-47375500D02*
X185641000Y-47375500D01*
G75*
G02*
X185891000Y-47625500I0J-250000D01*
G01*
X185891000Y-48300500D01*
G75*
G02*
X185641000Y-48550500I-250000J0D01*
G01*
X184691000Y-48550500D01*
G75*
G02*
X184441000Y-48300500I0J250000D01*
G01*
X184441000Y-47625500D01*
G75*
G02*
X184691000Y-47375500I250000J0D01*
G01*
G37*
G36*
G01*
X226027000Y-123919000D02*
X226027000Y-122969000D01*
G75*
G02*
X226277000Y-122719000I250000J0D01*
G01*
X226952000Y-122719000D01*
G75*
G02*
X227202000Y-122969000I0J-250000D01*
G01*
X227202000Y-123919000D01*
G75*
G02*
X226952000Y-124169000I-250000J0D01*
G01*
X226277000Y-124169000D01*
G75*
G02*
X226027000Y-123919000I0J250000D01*
G01*
G37*
G36*
G01*
X228102000Y-123919000D02*
X228102000Y-122969000D01*
G75*
G02*
X228352000Y-122719000I250000J0D01*
G01*
X229027000Y-122719000D01*
G75*
G02*
X229277000Y-122969000I0J-250000D01*
G01*
X229277000Y-123919000D01*
G75*
G02*
X229027000Y-124169000I-250000J0D01*
G01*
X228352000Y-124169000D01*
G75*
G02*
X228102000Y-123919000I0J250000D01*
G01*
G37*
G36*
G01*
X187358000Y-49472000D02*
X188308000Y-49472000D01*
G75*
G02*
X188558000Y-49722000I0J-250000D01*
G01*
X188558000Y-50397000D01*
G75*
G02*
X188308000Y-50647000I-250000J0D01*
G01*
X187358000Y-50647000D01*
G75*
G02*
X187108000Y-50397000I0J250000D01*
G01*
X187108000Y-49722000D01*
G75*
G02*
X187358000Y-49472000I250000J0D01*
G01*
G37*
G36*
G01*
X187358000Y-47397000D02*
X188308000Y-47397000D01*
G75*
G02*
X188558000Y-47647000I0J-250000D01*
G01*
X188558000Y-48322000D01*
G75*
G02*
X188308000Y-48572000I-250000J0D01*
G01*
X187358000Y-48572000D01*
G75*
G02*
X187108000Y-48322000I0J250000D01*
G01*
X187108000Y-47647000D01*
G75*
G02*
X187358000Y-47397000I250000J0D01*
G01*
G37*
G36*
G01*
X79977000Y-41904500D02*
X79027000Y-41904500D01*
G75*
G02*
X78777000Y-41654500I0J250000D01*
G01*
X78777000Y-40979500D01*
G75*
G02*
X79027000Y-40729500I250000J0D01*
G01*
X79977000Y-40729500D01*
G75*
G02*
X80227000Y-40979500I0J-250000D01*
G01*
X80227000Y-41654500D01*
G75*
G02*
X79977000Y-41904500I-250000J0D01*
G01*
G37*
G36*
G01*
X79977000Y-43979500D02*
X79027000Y-43979500D01*
G75*
G02*
X78777000Y-43729500I0J250000D01*
G01*
X78777000Y-43054500D01*
G75*
G02*
X79027000Y-42804500I250000J0D01*
G01*
X79977000Y-42804500D01*
G75*
G02*
X80227000Y-43054500I0J-250000D01*
G01*
X80227000Y-43729500D01*
G75*
G02*
X79977000Y-43979500I-250000J0D01*
G01*
G37*
G36*
G01*
X81738000Y-92133000D02*
X80788000Y-92133000D01*
G75*
G02*
X80538000Y-91883000I0J250000D01*
G01*
X80538000Y-91208000D01*
G75*
G02*
X80788000Y-90958000I250000J0D01*
G01*
X81738000Y-90958000D01*
G75*
G02*
X81988000Y-91208000I0J-250000D01*
G01*
X81988000Y-91883000D01*
G75*
G02*
X81738000Y-92133000I-250000J0D01*
G01*
G37*
G36*
G01*
X81738000Y-94208000D02*
X80788000Y-94208000D01*
G75*
G02*
X80538000Y-93958000I0J250000D01*
G01*
X80538000Y-93283000D01*
G75*
G02*
X80788000Y-93033000I250000J0D01*
G01*
X81738000Y-93033000D01*
G75*
G02*
X81988000Y-93283000I0J-250000D01*
G01*
X81988000Y-93958000D01*
G75*
G02*
X81738000Y-94208000I-250000J0D01*
G01*
G37*
G36*
G01*
X83770000Y-92111500D02*
X82820000Y-92111500D01*
G75*
G02*
X82570000Y-91861500I0J250000D01*
G01*
X82570000Y-91186500D01*
G75*
G02*
X82820000Y-90936500I250000J0D01*
G01*
X83770000Y-90936500D01*
G75*
G02*
X84020000Y-91186500I0J-250000D01*
G01*
X84020000Y-91861500D01*
G75*
G02*
X83770000Y-92111500I-250000J0D01*
G01*
G37*
G36*
G01*
X83770000Y-94186500D02*
X82820000Y-94186500D01*
G75*
G02*
X82570000Y-93936500I0J250000D01*
G01*
X82570000Y-93261500D01*
G75*
G02*
X82820000Y-93011500I250000J0D01*
G01*
X83770000Y-93011500D01*
G75*
G02*
X84020000Y-93261500I0J-250000D01*
G01*
X84020000Y-93936500D01*
G75*
G02*
X83770000Y-94186500I-250000J0D01*
G01*
G37*
G36*
G01*
X90772000Y-41312500D02*
X89822000Y-41312500D01*
G75*
G02*
X89572000Y-41062500I0J250000D01*
G01*
X89572000Y-40387500D01*
G75*
G02*
X89822000Y-40137500I250000J0D01*
G01*
X90772000Y-40137500D01*
G75*
G02*
X91022000Y-40387500I0J-250000D01*
G01*
X91022000Y-41062500D01*
G75*
G02*
X90772000Y-41312500I-250000J0D01*
G01*
G37*
G36*
G01*
X90772000Y-39237500D02*
X89822000Y-39237500D01*
G75*
G02*
X89572000Y-38987500I0J250000D01*
G01*
X89572000Y-38312500D01*
G75*
G02*
X89822000Y-38062500I250000J0D01*
G01*
X90772000Y-38062500D01*
G75*
G02*
X91022000Y-38312500I0J-250000D01*
G01*
X91022000Y-38987500D01*
G75*
G02*
X90772000Y-39237500I-250000J0D01*
G01*
G37*
G36*
G01*
X100015000Y-62426001D02*
X100015000Y-61525999D01*
G75*
G02*
X100264999Y-61276000I249999J0D01*
G01*
X100965001Y-61276000D01*
G75*
G02*
X101215000Y-61525999I0J-249999D01*
G01*
X101215000Y-62426001D01*
G75*
G02*
X100965001Y-62676000I-249999J0D01*
G01*
X100264999Y-62676000D01*
G75*
G02*
X100015000Y-62426001I0J249999D01*
G01*
G37*
G36*
G01*
X102015000Y-62426001D02*
X102015000Y-61525999D01*
G75*
G02*
X102264999Y-61276000I249999J0D01*
G01*
X102965001Y-61276000D01*
G75*
G02*
X103215000Y-61525999I0J-249999D01*
G01*
X103215000Y-62426001D01*
G75*
G02*
X102965001Y-62676000I-249999J0D01*
G01*
X102264999Y-62676000D01*
G75*
G02*
X102015000Y-62426001I0J249999D01*
G01*
G37*
G36*
G01*
X97739000Y-111817999D02*
X97739000Y-112718001D01*
G75*
G02*
X97489001Y-112968000I-249999J0D01*
G01*
X96788999Y-112968000D01*
G75*
G02*
X96539000Y-112718001I0J249999D01*
G01*
X96539000Y-111817999D01*
G75*
G02*
X96788999Y-111568000I249999J0D01*
G01*
X97489001Y-111568000D01*
G75*
G02*
X97739000Y-111817999I0J-249999D01*
G01*
G37*
G36*
G01*
X95739000Y-111817999D02*
X95739000Y-112718001D01*
G75*
G02*
X95489001Y-112968000I-249999J0D01*
G01*
X94788999Y-112968000D01*
G75*
G02*
X94539000Y-112718001I0J249999D01*
G01*
X94539000Y-111817999D01*
G75*
G02*
X94788999Y-111568000I249999J0D01*
G01*
X95489001Y-111568000D01*
G75*
G02*
X95739000Y-111817999I0J-249999D01*
G01*
G37*
G36*
G01*
X110686001Y-61163000D02*
X109785999Y-61163000D01*
G75*
G02*
X109536000Y-60913001I0J249999D01*
G01*
X109536000Y-60212999D01*
G75*
G02*
X109785999Y-59963000I249999J0D01*
G01*
X110686001Y-59963000D01*
G75*
G02*
X110936000Y-60212999I0J-249999D01*
G01*
X110936000Y-60913001D01*
G75*
G02*
X110686001Y-61163000I-249999J0D01*
G01*
G37*
G36*
G01*
X110686001Y-59163000D02*
X109785999Y-59163000D01*
G75*
G02*
X109536000Y-58913001I0J249999D01*
G01*
X109536000Y-58212999D01*
G75*
G02*
X109785999Y-57963000I249999J0D01*
G01*
X110686001Y-57963000D01*
G75*
G02*
X110936000Y-58212999I0J-249999D01*
G01*
X110936000Y-58913001D01*
G75*
G02*
X110686001Y-59163000I-249999J0D01*
G01*
G37*
G36*
G01*
X100015000Y-60140001D02*
X100015000Y-59239999D01*
G75*
G02*
X100264999Y-58990000I249999J0D01*
G01*
X100965001Y-58990000D01*
G75*
G02*
X101215000Y-59239999I0J-249999D01*
G01*
X101215000Y-60140001D01*
G75*
G02*
X100965001Y-60390000I-249999J0D01*
G01*
X100264999Y-60390000D01*
G75*
G02*
X100015000Y-60140001I0J249999D01*
G01*
G37*
G36*
G01*
X102015000Y-60140001D02*
X102015000Y-59239999D01*
G75*
G02*
X102264999Y-58990000I249999J0D01*
G01*
X102965001Y-58990000D01*
G75*
G02*
X103215000Y-59239999I0J-249999D01*
G01*
X103215000Y-60140001D01*
G75*
G02*
X102965001Y-60390000I-249999J0D01*
G01*
X102264999Y-60390000D01*
G75*
G02*
X102015000Y-60140001I0J249999D01*
G01*
G37*
D12*
X99060000Y-51262000D03*
X93980000Y-51262000D03*
X93980000Y-55462000D03*
X99060000Y-55462000D03*
G36*
G01*
X178663000Y-32164000D02*
X178663000Y-33114000D01*
G75*
G02*
X178413000Y-33364000I-250000J0D01*
G01*
X177738000Y-33364000D01*
G75*
G02*
X177488000Y-33114000I0J250000D01*
G01*
X177488000Y-32164000D01*
G75*
G02*
X177738000Y-31914000I250000J0D01*
G01*
X178413000Y-31914000D01*
G75*
G02*
X178663000Y-32164000I0J-250000D01*
G01*
G37*
G36*
G01*
X176588000Y-32164000D02*
X176588000Y-33114000D01*
G75*
G02*
X176338000Y-33364000I-250000J0D01*
G01*
X175663000Y-33364000D01*
G75*
G02*
X175413000Y-33114000I0J250000D01*
G01*
X175413000Y-32164000D01*
G75*
G02*
X175663000Y-31914000I250000J0D01*
G01*
X176338000Y-31914000D01*
G75*
G02*
X176588000Y-32164000I0J-250000D01*
G01*
G37*
G36*
G01*
X174658000Y-39947000D02*
X175608000Y-39947000D01*
G75*
G02*
X175858000Y-40197000I0J-250000D01*
G01*
X175858000Y-40872000D01*
G75*
G02*
X175608000Y-41122000I-250000J0D01*
G01*
X174658000Y-41122000D01*
G75*
G02*
X174408000Y-40872000I0J250000D01*
G01*
X174408000Y-40197000D01*
G75*
G02*
X174658000Y-39947000I250000J0D01*
G01*
G37*
G36*
G01*
X174658000Y-37872000D02*
X175608000Y-37872000D01*
G75*
G02*
X175858000Y-38122000I0J-250000D01*
G01*
X175858000Y-38797000D01*
G75*
G02*
X175608000Y-39047000I-250000J0D01*
G01*
X174658000Y-39047000D01*
G75*
G02*
X174408000Y-38797000I0J250000D01*
G01*
X174408000Y-38122000D01*
G75*
G02*
X174658000Y-37872000I250000J0D01*
G01*
G37*
G36*
G01*
X170364999Y-36976000D02*
X171265001Y-36976000D01*
G75*
G02*
X171515000Y-37225999I0J-249999D01*
G01*
X171515000Y-37926001D01*
G75*
G02*
X171265001Y-38176000I-249999J0D01*
G01*
X170364999Y-38176000D01*
G75*
G02*
X170115000Y-37926001I0J249999D01*
G01*
X170115000Y-37225999D01*
G75*
G02*
X170364999Y-36976000I249999J0D01*
G01*
G37*
G36*
G01*
X170364999Y-34976000D02*
X171265001Y-34976000D01*
G75*
G02*
X171515000Y-35225999I0J-249999D01*
G01*
X171515000Y-35926001D01*
G75*
G02*
X171265001Y-36176000I-249999J0D01*
G01*
X170364999Y-36176000D01*
G75*
G02*
X170115000Y-35926001I0J249999D01*
G01*
X170115000Y-35225999D01*
G75*
G02*
X170364999Y-34976000I249999J0D01*
G01*
G37*
D13*
X177630000Y-36637000D03*
X177630000Y-35687000D03*
X177630000Y-34737000D03*
X175430000Y-34737000D03*
X175430000Y-36637000D03*
X175430000Y-35687000D03*
D14*
X180594000Y-35814000D03*
X185447000Y-35814000D03*
G36*
G01*
X176734500Y-29702999D02*
X176734500Y-31003001D01*
G75*
G02*
X176484501Y-31253000I-249999J0D01*
G01*
X175659499Y-31253000D01*
G75*
G02*
X175409500Y-31003001I0J249999D01*
G01*
X175409500Y-29702999D01*
G75*
G02*
X175659499Y-29453000I249999J0D01*
G01*
X176484501Y-29453000D01*
G75*
G02*
X176734500Y-29702999I0J-249999D01*
G01*
G37*
G36*
G01*
X179859500Y-29702999D02*
X179859500Y-31003001D01*
G75*
G02*
X179609501Y-31253000I-249999J0D01*
G01*
X178784499Y-31253000D01*
G75*
G02*
X178534500Y-31003001I0J249999D01*
G01*
X178534500Y-29702999D01*
G75*
G02*
X178784499Y-29453000I249999J0D01*
G01*
X179609501Y-29453000D01*
G75*
G02*
X179859500Y-29702999I0J-249999D01*
G01*
G37*
G36*
G01*
X189697000Y-40782001D02*
X189697000Y-39481999D01*
G75*
G02*
X189946999Y-39232000I249999J0D01*
G01*
X190772001Y-39232000D01*
G75*
G02*
X191022000Y-39481999I0J-249999D01*
G01*
X191022000Y-40782001D01*
G75*
G02*
X190772001Y-41032000I-249999J0D01*
G01*
X189946999Y-41032000D01*
G75*
G02*
X189697000Y-40782001I0J249999D01*
G01*
G37*
G36*
G01*
X192822000Y-40782001D02*
X192822000Y-39481999D01*
G75*
G02*
X193071999Y-39232000I249999J0D01*
G01*
X193897001Y-39232000D01*
G75*
G02*
X194147000Y-39481999I0J-249999D01*
G01*
X194147000Y-40782001D01*
G75*
G02*
X193897001Y-41032000I-249999J0D01*
G01*
X193071999Y-41032000D01*
G75*
G02*
X192822000Y-40782001I0J249999D01*
G01*
G37*
G36*
G01*
X185994000Y-41640999D02*
X185994000Y-42941001D01*
G75*
G02*
X185744001Y-43191000I-249999J0D01*
G01*
X184918999Y-43191000D01*
G75*
G02*
X184669000Y-42941001I0J249999D01*
G01*
X184669000Y-41640999D01*
G75*
G02*
X184918999Y-41391000I249999J0D01*
G01*
X185744001Y-41391000D01*
G75*
G02*
X185994000Y-41640999I0J-249999D01*
G01*
G37*
G36*
G01*
X182869000Y-41640999D02*
X182869000Y-42941001D01*
G75*
G02*
X182619001Y-43191000I-249999J0D01*
G01*
X181793999Y-43191000D01*
G75*
G02*
X181544000Y-42941001I0J249999D01*
G01*
X181544000Y-41640999D01*
G75*
G02*
X181793999Y-41391000I249999J0D01*
G01*
X182619001Y-41391000D01*
G75*
G02*
X182869000Y-41640999I0J-249999D01*
G01*
G37*
G36*
G01*
X182869000Y-39227999D02*
X182869000Y-40528001D01*
G75*
G02*
X182619001Y-40778000I-249999J0D01*
G01*
X181793999Y-40778000D01*
G75*
G02*
X181544000Y-40528001I0J249999D01*
G01*
X181544000Y-39227999D01*
G75*
G02*
X181793999Y-38978000I249999J0D01*
G01*
X182619001Y-38978000D01*
G75*
G02*
X182869000Y-39227999I0J-249999D01*
G01*
G37*
G36*
G01*
X185994000Y-39227999D02*
X185994000Y-40528001D01*
G75*
G02*
X185744001Y-40778000I-249999J0D01*
G01*
X184918999Y-40778000D01*
G75*
G02*
X184669000Y-40528001I0J249999D01*
G01*
X184669000Y-39227999D01*
G75*
G02*
X184918999Y-38978000I249999J0D01*
G01*
X185744001Y-38978000D01*
G75*
G02*
X185994000Y-39227999I0J-249999D01*
G01*
G37*
D15*
X178594000Y-52451000D03*
X182594000Y-52451000D03*
D16*
X175260000Y-52673000D03*
X175260000Y-48673000D03*
D15*
X182594000Y-48895000D03*
X178594000Y-48895000D03*
G36*
G01*
X104724000Y-53143999D02*
X104724000Y-54044001D01*
G75*
G02*
X104474001Y-54294000I-249999J0D01*
G01*
X103773999Y-54294000D01*
G75*
G02*
X103524000Y-54044001I0J249999D01*
G01*
X103524000Y-53143999D01*
G75*
G02*
X103773999Y-52894000I249999J0D01*
G01*
X104474001Y-52894000D01*
G75*
G02*
X104724000Y-53143999I0J-249999D01*
G01*
G37*
G36*
G01*
X102724000Y-53143999D02*
X102724000Y-54044001D01*
G75*
G02*
X102474001Y-54294000I-249999J0D01*
G01*
X101773999Y-54294000D01*
G75*
G02*
X101524000Y-54044001I0J249999D01*
G01*
X101524000Y-53143999D01*
G75*
G02*
X101773999Y-52894000I249999J0D01*
G01*
X102474001Y-52894000D01*
G75*
G02*
X102724000Y-53143999I0J-249999D01*
G01*
G37*
G36*
G01*
X102724000Y-51111999D02*
X102724000Y-52012001D01*
G75*
G02*
X102474001Y-52262000I-249999J0D01*
G01*
X101773999Y-52262000D01*
G75*
G02*
X101524000Y-52012001I0J249999D01*
G01*
X101524000Y-51111999D01*
G75*
G02*
X101773999Y-50862000I249999J0D01*
G01*
X102474001Y-50862000D01*
G75*
G02*
X102724000Y-51111999I0J-249999D01*
G01*
G37*
G36*
G01*
X104724000Y-51111999D02*
X104724000Y-52012001D01*
G75*
G02*
X104474001Y-52262000I-249999J0D01*
G01*
X103773999Y-52262000D01*
G75*
G02*
X103524000Y-52012001I0J249999D01*
G01*
X103524000Y-51111999D01*
G75*
G02*
X103773999Y-50862000I249999J0D01*
G01*
X104474001Y-50862000D01*
G75*
G02*
X104724000Y-51111999I0J-249999D01*
G01*
G37*
D17*
X173256000Y-66813000D03*
X173256000Y-65013000D03*
X176756000Y-66813000D03*
X176756000Y-65013000D03*
X173756000Y-66813000D03*
X174256000Y-66813000D03*
X174756000Y-66813000D03*
X175256000Y-66813000D03*
X175756000Y-66813000D03*
X176256000Y-66813000D03*
X173756000Y-65013000D03*
X174256000Y-65013000D03*
X174756000Y-65013000D03*
X175756000Y-65013000D03*
X175256000Y-65013000D03*
X176256000Y-65013000D03*
G36*
G01*
X92990000Y-30955000D02*
X92990000Y-30005000D01*
G75*
G02*
X93240000Y-29755000I250000J0D01*
G01*
X93915000Y-29755000D01*
G75*
G02*
X94165000Y-30005000I0J-250000D01*
G01*
X94165000Y-30955000D01*
G75*
G02*
X93915000Y-31205000I-250000J0D01*
G01*
X93240000Y-31205000D01*
G75*
G02*
X92990000Y-30955000I0J250000D01*
G01*
G37*
G36*
G01*
X95065000Y-30955000D02*
X95065000Y-30005000D01*
G75*
G02*
X95315000Y-29755000I250000J0D01*
G01*
X95990000Y-29755000D01*
G75*
G02*
X96240000Y-30005000I0J-250000D01*
G01*
X96240000Y-30955000D01*
G75*
G02*
X95990000Y-31205000I-250000J0D01*
G01*
X95315000Y-31205000D01*
G75*
G02*
X95065000Y-30955000I0J250000D01*
G01*
G37*
G36*
G01*
X89697000Y-31438001D02*
X89697000Y-30537999D01*
G75*
G02*
X89946999Y-30288000I249999J0D01*
G01*
X90647001Y-30288000D01*
G75*
G02*
X90897000Y-30537999I0J-249999D01*
G01*
X90897000Y-31438001D01*
G75*
G02*
X90647001Y-31688000I-249999J0D01*
G01*
X89946999Y-31688000D01*
G75*
G02*
X89697000Y-31438001I0J249999D01*
G01*
G37*
G36*
G01*
X87697000Y-31438001D02*
X87697000Y-30537999D01*
G75*
G02*
X87946999Y-30288000I249999J0D01*
G01*
X88647001Y-30288000D01*
G75*
G02*
X88897000Y-30537999I0J-249999D01*
G01*
X88897000Y-31438001D01*
G75*
G02*
X88647001Y-31688000I-249999J0D01*
G01*
X87946999Y-31688000D01*
G75*
G02*
X87697000Y-31438001I0J249999D01*
G01*
G37*
G36*
G01*
X87681000Y-33470001D02*
X87681000Y-32569999D01*
G75*
G02*
X87930999Y-32320000I249999J0D01*
G01*
X88631001Y-32320000D01*
G75*
G02*
X88881000Y-32569999I0J-249999D01*
G01*
X88881000Y-33470001D01*
G75*
G02*
X88631001Y-33720000I-249999J0D01*
G01*
X87930999Y-33720000D01*
G75*
G02*
X87681000Y-33470001I0J249999D01*
G01*
G37*
G36*
G01*
X89681000Y-33470001D02*
X89681000Y-32569999D01*
G75*
G02*
X89930999Y-32320000I249999J0D01*
G01*
X90631001Y-32320000D01*
G75*
G02*
X90881000Y-32569999I0J-249999D01*
G01*
X90881000Y-33470001D01*
G75*
G02*
X90631001Y-33720000I-249999J0D01*
G01*
X89930999Y-33720000D01*
G75*
G02*
X89681000Y-33470001I0J249999D01*
G01*
G37*
G36*
G01*
X87681000Y-35502001D02*
X87681000Y-34601999D01*
G75*
G02*
X87930999Y-34352000I249999J0D01*
G01*
X88631001Y-34352000D01*
G75*
G02*
X88881000Y-34601999I0J-249999D01*
G01*
X88881000Y-35502001D01*
G75*
G02*
X88631001Y-35752000I-249999J0D01*
G01*
X87930999Y-35752000D01*
G75*
G02*
X87681000Y-35502001I0J249999D01*
G01*
G37*
G36*
G01*
X89681000Y-35502001D02*
X89681000Y-34601999D01*
G75*
G02*
X89930999Y-34352000I249999J0D01*
G01*
X90631001Y-34352000D01*
G75*
G02*
X90881000Y-34601999I0J-249999D01*
G01*
X90881000Y-35502001D01*
G75*
G02*
X90631001Y-35752000I-249999J0D01*
G01*
X89930999Y-35752000D01*
G75*
G02*
X89681000Y-35502001I0J249999D01*
G01*
G37*
G36*
G01*
X92352000Y-39010000D02*
X92052000Y-39010000D01*
G75*
G02*
X91902000Y-38860000I0J150000D01*
G01*
X91902000Y-37210000D01*
G75*
G02*
X92052000Y-37060000I150000J0D01*
G01*
X92352000Y-37060000D01*
G75*
G02*
X92502000Y-37210000I0J-150000D01*
G01*
X92502000Y-38860000D01*
G75*
G02*
X92352000Y-39010000I-150000J0D01*
G01*
G37*
G36*
G01*
X93622000Y-39010000D02*
X93322000Y-39010000D01*
G75*
G02*
X93172000Y-38860000I0J150000D01*
G01*
X93172000Y-37210000D01*
G75*
G02*
X93322000Y-37060000I150000J0D01*
G01*
X93622000Y-37060000D01*
G75*
G02*
X93772000Y-37210000I0J-150000D01*
G01*
X93772000Y-38860000D01*
G75*
G02*
X93622000Y-39010000I-150000J0D01*
G01*
G37*
G36*
G01*
X94892000Y-39010000D02*
X94592000Y-39010000D01*
G75*
G02*
X94442000Y-38860000I0J150000D01*
G01*
X94442000Y-37210000D01*
G75*
G02*
X94592000Y-37060000I150000J0D01*
G01*
X94892000Y-37060000D01*
G75*
G02*
X95042000Y-37210000I0J-150000D01*
G01*
X95042000Y-38860000D01*
G75*
G02*
X94892000Y-39010000I-150000J0D01*
G01*
G37*
G36*
G01*
X96162000Y-39010000D02*
X95862000Y-39010000D01*
G75*
G02*
X95712000Y-38860000I0J150000D01*
G01*
X95712000Y-37210000D01*
G75*
G02*
X95862000Y-37060000I150000J0D01*
G01*
X96162000Y-37060000D01*
G75*
G02*
X96312000Y-37210000I0J-150000D01*
G01*
X96312000Y-38860000D01*
G75*
G02*
X96162000Y-39010000I-150000J0D01*
G01*
G37*
G36*
G01*
X96162000Y-34060000D02*
X95862000Y-34060000D01*
G75*
G02*
X95712000Y-33910000I0J150000D01*
G01*
X95712000Y-32260000D01*
G75*
G02*
X95862000Y-32110000I150000J0D01*
G01*
X96162000Y-32110000D01*
G75*
G02*
X96312000Y-32260000I0J-150000D01*
G01*
X96312000Y-33910000D01*
G75*
G02*
X96162000Y-34060000I-150000J0D01*
G01*
G37*
G36*
G01*
X94892000Y-34060000D02*
X94592000Y-34060000D01*
G75*
G02*
X94442000Y-33910000I0J150000D01*
G01*
X94442000Y-32260000D01*
G75*
G02*
X94592000Y-32110000I150000J0D01*
G01*
X94892000Y-32110000D01*
G75*
G02*
X95042000Y-32260000I0J-150000D01*
G01*
X95042000Y-33910000D01*
G75*
G02*
X94892000Y-34060000I-150000J0D01*
G01*
G37*
G36*
G01*
X93622000Y-34060000D02*
X93322000Y-34060000D01*
G75*
G02*
X93172000Y-33910000I0J150000D01*
G01*
X93172000Y-32260000D01*
G75*
G02*
X93322000Y-32110000I150000J0D01*
G01*
X93622000Y-32110000D01*
G75*
G02*
X93772000Y-32260000I0J-150000D01*
G01*
X93772000Y-33910000D01*
G75*
G02*
X93622000Y-34060000I-150000J0D01*
G01*
G37*
G36*
G01*
X92352000Y-34060000D02*
X92052000Y-34060000D01*
G75*
G02*
X91902000Y-33910000I0J150000D01*
G01*
X91902000Y-32260000D01*
G75*
G02*
X92052000Y-32110000I150000J0D01*
G01*
X92352000Y-32110000D01*
G75*
G02*
X92502000Y-32260000I0J-150000D01*
G01*
X92502000Y-33910000D01*
G75*
G02*
X92352000Y-34060000I-150000J0D01*
G01*
G37*
G36*
G01*
X91697500Y-41217001D02*
X91697500Y-40316999D01*
G75*
G02*
X91947499Y-40067000I249999J0D01*
G01*
X92647501Y-40067000D01*
G75*
G02*
X92897500Y-40316999I0J-249999D01*
G01*
X92897500Y-41217001D01*
G75*
G02*
X92647501Y-41467000I-249999J0D01*
G01*
X91947499Y-41467000D01*
G75*
G02*
X91697500Y-41217001I0J249999D01*
G01*
G37*
G36*
G01*
X93697500Y-41217001D02*
X93697500Y-40316999D01*
G75*
G02*
X93947499Y-40067000I249999J0D01*
G01*
X94647501Y-40067000D01*
G75*
G02*
X94897500Y-40316999I0J-249999D01*
G01*
X94897500Y-41217001D01*
G75*
G02*
X94647501Y-41467000I-249999J0D01*
G01*
X93947499Y-41467000D01*
G75*
G02*
X93697500Y-41217001I0J249999D01*
G01*
G37*
G36*
G01*
X159842000Y-31553999D02*
X159842000Y-32454001D01*
G75*
G02*
X159592001Y-32704000I-249999J0D01*
G01*
X158891999Y-32704000D01*
G75*
G02*
X158642000Y-32454001I0J249999D01*
G01*
X158642000Y-31553999D01*
G75*
G02*
X158891999Y-31304000I249999J0D01*
G01*
X159592001Y-31304000D01*
G75*
G02*
X159842000Y-31553999I0J-249999D01*
G01*
G37*
G36*
G01*
X157842000Y-31553999D02*
X157842000Y-32454001D01*
G75*
G02*
X157592001Y-32704000I-249999J0D01*
G01*
X156891999Y-32704000D01*
G75*
G02*
X156642000Y-32454001I0J249999D01*
G01*
X156642000Y-31553999D01*
G75*
G02*
X156891999Y-31304000I249999J0D01*
G01*
X157592001Y-31304000D01*
G75*
G02*
X157842000Y-31553999I0J-249999D01*
G01*
G37*
G36*
G01*
X85639000Y-113675000D02*
X85639000Y-114925000D01*
G75*
G02*
X85389000Y-115175000I-250000J0D01*
G01*
X84464000Y-115175000D01*
G75*
G02*
X84214000Y-114925000I0J250000D01*
G01*
X84214000Y-113675000D01*
G75*
G02*
X84464000Y-113425000I250000J0D01*
G01*
X85389000Y-113425000D01*
G75*
G02*
X85639000Y-113675000I0J-250000D01*
G01*
G37*
G36*
G01*
X82664000Y-113675000D02*
X82664000Y-114925000D01*
G75*
G02*
X82414000Y-115175000I-250000J0D01*
G01*
X81489000Y-115175000D01*
G75*
G02*
X81239000Y-114925000I0J250000D01*
G01*
X81239000Y-113675000D01*
G75*
G02*
X81489000Y-113425000I250000J0D01*
G01*
X82414000Y-113425000D01*
G75*
G02*
X82664000Y-113675000I0J-250000D01*
G01*
G37*
G36*
G01*
X82474000Y-116972501D02*
X82474000Y-116072499D01*
G75*
G02*
X82723999Y-115822500I249999J0D01*
G01*
X83424001Y-115822500D01*
G75*
G02*
X83674000Y-116072499I0J-249999D01*
G01*
X83674000Y-116972501D01*
G75*
G02*
X83424001Y-117222500I-249999J0D01*
G01*
X82723999Y-117222500D01*
G75*
G02*
X82474000Y-116972501I0J249999D01*
G01*
G37*
G36*
G01*
X84474000Y-116972501D02*
X84474000Y-116072499D01*
G75*
G02*
X84723999Y-115822500I249999J0D01*
G01*
X85424001Y-115822500D01*
G75*
G02*
X85674000Y-116072499I0J-249999D01*
G01*
X85674000Y-116972501D01*
G75*
G02*
X85424001Y-117222500I-249999J0D01*
G01*
X84723999Y-117222500D01*
G75*
G02*
X84474000Y-116972501I0J249999D01*
G01*
G37*
G36*
G01*
X85665987Y-120039416D02*
X85665987Y-121289416D01*
G75*
G02*
X85415987Y-121539416I-250000J0D01*
G01*
X84490987Y-121539416D01*
G75*
G02*
X84240987Y-121289416I0J250000D01*
G01*
X84240987Y-120039416D01*
G75*
G02*
X84490987Y-119789416I250000J0D01*
G01*
X85415987Y-119789416D01*
G75*
G02*
X85665987Y-120039416I0J-250000D01*
G01*
G37*
G36*
G01*
X82690987Y-120039416D02*
X82690987Y-121289416D01*
G75*
G02*
X82440987Y-121539416I-250000J0D01*
G01*
X81515987Y-121539416D01*
G75*
G02*
X81265987Y-121289416I0J250000D01*
G01*
X81265987Y-120039416D01*
G75*
G02*
X81515987Y-119789416I250000J0D01*
G01*
X82440987Y-119789416D01*
G75*
G02*
X82690987Y-120039416I0J-250000D01*
G01*
G37*
G36*
G01*
X82474000Y-118941001D02*
X82474000Y-118040999D01*
G75*
G02*
X82723999Y-117791000I249999J0D01*
G01*
X83424001Y-117791000D01*
G75*
G02*
X83674000Y-118040999I0J-249999D01*
G01*
X83674000Y-118941001D01*
G75*
G02*
X83424001Y-119191000I-249999J0D01*
G01*
X82723999Y-119191000D01*
G75*
G02*
X82474000Y-118941001I0J249999D01*
G01*
G37*
G36*
G01*
X84474000Y-118941001D02*
X84474000Y-118040999D01*
G75*
G02*
X84723999Y-117791000I249999J0D01*
G01*
X85424001Y-117791000D01*
G75*
G02*
X85674000Y-118040999I0J-249999D01*
G01*
X85674000Y-118941001D01*
G75*
G02*
X85424001Y-119191000I-249999J0D01*
G01*
X84723999Y-119191000D01*
G75*
G02*
X84474000Y-118941001I0J249999D01*
G01*
G37*
M02*
