G04 #@! TF.GenerationSoftware,KiCad,Pcbnew,(5.1.10-1-10_14)*
G04 #@! TF.CreationDate,2021-08-09T19:17:03+02:00*
G04 #@! TF.ProjectId,A3660_shanshe_mod2,41333636-305f-4736-9861-6e7368655f6d,rev?*
G04 #@! TF.SameCoordinates,Original*
G04 #@! TF.FileFunction,Paste,Bot*
G04 #@! TF.FilePolarity,Positive*
%FSLAX46Y46*%
G04 Gerber Fmt 4.6, Leading zero omitted, Abs format (unit mm)*
G04 Created by KiCad (PCBNEW (5.1.10-1-10_14)) date 2021-08-09 19:17:03*
%MOMM*%
%LPD*%
G01*
G04 APERTURE LIST*
%ADD10R,0.800000X0.300000*%
%ADD11R,0.300000X0.800000*%
G04 APERTURE END LIST*
G36*
G01*
X229395000Y-56604500D02*
X230345000Y-56604500D01*
G75*
G02*
X230595000Y-56854500I0J-250000D01*
G01*
X230595000Y-57529500D01*
G75*
G02*
X230345000Y-57779500I-250000J0D01*
G01*
X229395000Y-57779500D01*
G75*
G02*
X229145000Y-57529500I0J250000D01*
G01*
X229145000Y-56854500D01*
G75*
G02*
X229395000Y-56604500I250000J0D01*
G01*
G37*
G36*
G01*
X229395000Y-58679500D02*
X230345000Y-58679500D01*
G75*
G02*
X230595000Y-58929500I0J-250000D01*
G01*
X230595000Y-59604500D01*
G75*
G02*
X230345000Y-59854500I-250000J0D01*
G01*
X229395000Y-59854500D01*
G75*
G02*
X229145000Y-59604500I0J250000D01*
G01*
X229145000Y-58929500D01*
G75*
G02*
X229395000Y-58679500I250000J0D01*
G01*
G37*
D10*
X208015000Y-108176000D03*
X209815000Y-108176000D03*
X208015000Y-104676000D03*
X209815000Y-104676000D03*
X208015000Y-107676000D03*
X208015000Y-107176000D03*
X208015000Y-106676000D03*
X208015000Y-106176000D03*
X208015000Y-105676000D03*
X208015000Y-105176000D03*
X209815000Y-107676000D03*
X209815000Y-107176000D03*
X209815000Y-106676000D03*
X209815000Y-105676000D03*
X209815000Y-106176000D03*
X209815000Y-105176000D03*
G36*
G01*
X119474000Y-73612500D02*
X118524000Y-73612500D01*
G75*
G02*
X118274000Y-73362500I0J250000D01*
G01*
X118274000Y-72687500D01*
G75*
G02*
X118524000Y-72437500I250000J0D01*
G01*
X119474000Y-72437500D01*
G75*
G02*
X119724000Y-72687500I0J-250000D01*
G01*
X119724000Y-73362500D01*
G75*
G02*
X119474000Y-73612500I-250000J0D01*
G01*
G37*
G36*
G01*
X119474000Y-75687500D02*
X118524000Y-75687500D01*
G75*
G02*
X118274000Y-75437500I0J250000D01*
G01*
X118274000Y-74762500D01*
G75*
G02*
X118524000Y-74512500I250000J0D01*
G01*
X119474000Y-74512500D01*
G75*
G02*
X119724000Y-74762500I0J-250000D01*
G01*
X119724000Y-75437500D01*
G75*
G02*
X119474000Y-75687500I-250000J0D01*
G01*
G37*
D11*
X135735000Y-110209000D03*
X136735000Y-110209000D03*
X136235000Y-110209000D03*
X137235000Y-110209000D03*
X137735000Y-110209000D03*
X138235000Y-110209000D03*
X135735000Y-112009000D03*
X136235000Y-112009000D03*
X136735000Y-112009000D03*
X137235000Y-112009000D03*
X137735000Y-112009000D03*
X138235000Y-112009000D03*
X135235000Y-110209000D03*
X135235000Y-112009000D03*
X138735000Y-110209000D03*
X138735000Y-112009000D03*
X129004000Y-112009000D03*
X129004000Y-110209000D03*
X125504000Y-112009000D03*
X125504000Y-110209000D03*
X128504000Y-112009000D03*
X128004000Y-112009000D03*
X127504000Y-112009000D03*
X127004000Y-112009000D03*
X126504000Y-112009000D03*
X126004000Y-112009000D03*
X128504000Y-110209000D03*
X128004000Y-110209000D03*
X127504000Y-110209000D03*
X126504000Y-110209000D03*
X127004000Y-110209000D03*
X126004000Y-110209000D03*
D10*
X243531000Y-105636000D03*
X245331000Y-105636000D03*
X243531000Y-102136000D03*
X245331000Y-102136000D03*
X243531000Y-105136000D03*
X243531000Y-104636000D03*
X243531000Y-104136000D03*
X243531000Y-103636000D03*
X243531000Y-103136000D03*
X243531000Y-102636000D03*
X245331000Y-105136000D03*
X245331000Y-104636000D03*
X245331000Y-104136000D03*
X245331000Y-103136000D03*
X245331000Y-103636000D03*
X245331000Y-102636000D03*
X203189000Y-107676000D03*
X203189000Y-106676000D03*
X203189000Y-107176000D03*
X203189000Y-106176000D03*
X203189000Y-105676000D03*
X203189000Y-105176000D03*
X204989000Y-107676000D03*
X204989000Y-107176000D03*
X204989000Y-106676000D03*
X204989000Y-106176000D03*
X204989000Y-105676000D03*
X204989000Y-105176000D03*
X203189000Y-108176000D03*
X204989000Y-108176000D03*
X203189000Y-104676000D03*
X204989000Y-104676000D03*
D11*
X193020000Y-53478000D03*
X192020000Y-53478000D03*
X192520000Y-53478000D03*
X191520000Y-53478000D03*
X191020000Y-53478000D03*
X190520000Y-53478000D03*
X193020000Y-51678000D03*
X192520000Y-51678000D03*
X192020000Y-51678000D03*
X191520000Y-51678000D03*
X191020000Y-51678000D03*
X190520000Y-51678000D03*
X193520000Y-53478000D03*
X193520000Y-51678000D03*
X190020000Y-53478000D03*
X190020000Y-51678000D03*
D10*
X244232000Y-30254000D03*
X242432000Y-30254000D03*
X244232000Y-33754000D03*
X242432000Y-33754000D03*
X244232000Y-30754000D03*
X244232000Y-31254000D03*
X244232000Y-31754000D03*
X244232000Y-32254000D03*
X244232000Y-32754000D03*
X244232000Y-33254000D03*
X242432000Y-30754000D03*
X242432000Y-31254000D03*
X242432000Y-31754000D03*
X242432000Y-32754000D03*
X242432000Y-32254000D03*
X242432000Y-33254000D03*
X185917000Y-75029000D03*
X187717000Y-75029000D03*
X185917000Y-71529000D03*
X187717000Y-71529000D03*
X185917000Y-74529000D03*
X185917000Y-74029000D03*
X185917000Y-73529000D03*
X185917000Y-73029000D03*
X185917000Y-72529000D03*
X185917000Y-72029000D03*
X187717000Y-74529000D03*
X187717000Y-74029000D03*
X187717000Y-73529000D03*
X187717000Y-72529000D03*
X187717000Y-73029000D03*
X187717000Y-72029000D03*
G36*
G01*
X229395000Y-43438500D02*
X230345000Y-43438500D01*
G75*
G02*
X230595000Y-43688500I0J-250000D01*
G01*
X230595000Y-44363500D01*
G75*
G02*
X230345000Y-44613500I-250000J0D01*
G01*
X229395000Y-44613500D01*
G75*
G02*
X229145000Y-44363500I0J250000D01*
G01*
X229145000Y-43688500D01*
G75*
G02*
X229395000Y-43438500I250000J0D01*
G01*
G37*
G36*
G01*
X229395000Y-45513500D02*
X230345000Y-45513500D01*
G75*
G02*
X230595000Y-45763500I0J-250000D01*
G01*
X230595000Y-46438500D01*
G75*
G02*
X230345000Y-46688500I-250000J0D01*
G01*
X229395000Y-46688500D01*
G75*
G02*
X229145000Y-46438500I0J250000D01*
G01*
X229145000Y-45763500D01*
G75*
G02*
X229395000Y-45513500I250000J0D01*
G01*
G37*
G36*
G01*
X213252000Y-58108001D02*
X213252000Y-57207999D01*
G75*
G02*
X213501999Y-56958000I249999J0D01*
G01*
X214202001Y-56958000D01*
G75*
G02*
X214452000Y-57207999I0J-249999D01*
G01*
X214452000Y-58108001D01*
G75*
G02*
X214202001Y-58358000I-249999J0D01*
G01*
X213501999Y-58358000D01*
G75*
G02*
X213252000Y-58108001I0J249999D01*
G01*
G37*
G36*
G01*
X211252000Y-58108001D02*
X211252000Y-57207999D01*
G75*
G02*
X211501999Y-56958000I249999J0D01*
G01*
X212202001Y-56958000D01*
G75*
G02*
X212452000Y-57207999I0J-249999D01*
G01*
X212452000Y-58108001D01*
G75*
G02*
X212202001Y-58358000I-249999J0D01*
G01*
X211501999Y-58358000D01*
G75*
G02*
X211252000Y-58108001I0J249999D01*
G01*
G37*
G36*
G01*
X213268000Y-55822001D02*
X213268000Y-54921999D01*
G75*
G02*
X213517999Y-54672000I249999J0D01*
G01*
X214218001Y-54672000D01*
G75*
G02*
X214468000Y-54921999I0J-249999D01*
G01*
X214468000Y-55822001D01*
G75*
G02*
X214218001Y-56072000I-249999J0D01*
G01*
X213517999Y-56072000D01*
G75*
G02*
X213268000Y-55822001I0J249999D01*
G01*
G37*
G36*
G01*
X211268000Y-55822001D02*
X211268000Y-54921999D01*
G75*
G02*
X211517999Y-54672000I249999J0D01*
G01*
X212218001Y-54672000D01*
G75*
G02*
X212468000Y-54921999I0J-249999D01*
G01*
X212468000Y-55822001D01*
G75*
G02*
X212218001Y-56072000I-249999J0D01*
G01*
X211517999Y-56072000D01*
G75*
G02*
X211268000Y-55822001I0J249999D01*
G01*
G37*
G36*
G01*
X211268000Y-53536001D02*
X211268000Y-52635999D01*
G75*
G02*
X211517999Y-52386000I249999J0D01*
G01*
X212218001Y-52386000D01*
G75*
G02*
X212468000Y-52635999I0J-249999D01*
G01*
X212468000Y-53536001D01*
G75*
G02*
X212218001Y-53786000I-249999J0D01*
G01*
X211517999Y-53786000D01*
G75*
G02*
X211268000Y-53536001I0J249999D01*
G01*
G37*
G36*
G01*
X213268000Y-53536001D02*
X213268000Y-52635999D01*
G75*
G02*
X213517999Y-52386000I249999J0D01*
G01*
X214218001Y-52386000D01*
G75*
G02*
X214468000Y-52635999I0J-249999D01*
G01*
X214468000Y-53536001D01*
G75*
G02*
X214218001Y-53786000I-249999J0D01*
G01*
X213517999Y-53786000D01*
G75*
G02*
X213268000Y-53536001I0J249999D01*
G01*
G37*
G36*
G01*
X113995000Y-112198999D02*
X113995000Y-113099001D01*
G75*
G02*
X113745001Y-113349000I-249999J0D01*
G01*
X113044999Y-113349000D01*
G75*
G02*
X112795000Y-113099001I0J249999D01*
G01*
X112795000Y-112198999D01*
G75*
G02*
X113044999Y-111949000I249999J0D01*
G01*
X113745001Y-111949000D01*
G75*
G02*
X113995000Y-112198999I0J-249999D01*
G01*
G37*
G36*
G01*
X111995000Y-112198999D02*
X111995000Y-113099001D01*
G75*
G02*
X111745001Y-113349000I-249999J0D01*
G01*
X111044999Y-113349000D01*
G75*
G02*
X110795000Y-113099001I0J249999D01*
G01*
X110795000Y-112198999D01*
G75*
G02*
X111044999Y-111949000I249999J0D01*
G01*
X111745001Y-111949000D01*
G75*
G02*
X111995000Y-112198999I0J-249999D01*
G01*
G37*
D11*
X138029000Y-85101000D03*
X137029000Y-85101000D03*
X137529000Y-85101000D03*
X136529000Y-85101000D03*
X136029000Y-85101000D03*
X135529000Y-85101000D03*
X138029000Y-83301000D03*
X137529000Y-83301000D03*
X137029000Y-83301000D03*
X136529000Y-83301000D03*
X136029000Y-83301000D03*
X135529000Y-83301000D03*
X138529000Y-85101000D03*
X138529000Y-83301000D03*
X135029000Y-85101000D03*
X135029000Y-83301000D03*
D10*
X190732000Y-47212000D03*
X192532000Y-47212000D03*
X190732000Y-43712000D03*
X192532000Y-43712000D03*
X190732000Y-46712000D03*
X190732000Y-46212000D03*
X190732000Y-45712000D03*
X190732000Y-45212000D03*
X190732000Y-44712000D03*
X190732000Y-44212000D03*
X192532000Y-46712000D03*
X192532000Y-46212000D03*
X192532000Y-45712000D03*
X192532000Y-44712000D03*
X192532000Y-45212000D03*
X192532000Y-44212000D03*
D11*
X152928000Y-106463000D03*
X153928000Y-106463000D03*
X153428000Y-106463000D03*
X154428000Y-106463000D03*
X154928000Y-106463000D03*
X155428000Y-106463000D03*
X152928000Y-108263000D03*
X153428000Y-108263000D03*
X153928000Y-108263000D03*
X154428000Y-108263000D03*
X154928000Y-108263000D03*
X155428000Y-108263000D03*
X152428000Y-106463000D03*
X152428000Y-108263000D03*
X155928000Y-106463000D03*
X155928000Y-108263000D03*
X150594000Y-108263000D03*
X150594000Y-106463000D03*
X147094000Y-108263000D03*
X147094000Y-106463000D03*
X150094000Y-108263000D03*
X149594000Y-108263000D03*
X149094000Y-108263000D03*
X148594000Y-108263000D03*
X148094000Y-108263000D03*
X147594000Y-108263000D03*
X150094000Y-106463000D03*
X149594000Y-106463000D03*
X149094000Y-106463000D03*
X148094000Y-106463000D03*
X148594000Y-106463000D03*
X147594000Y-106463000D03*
G36*
G01*
X230345000Y-50520000D02*
X229395000Y-50520000D01*
G75*
G02*
X229145000Y-50270000I0J250000D01*
G01*
X229145000Y-49595000D01*
G75*
G02*
X229395000Y-49345000I250000J0D01*
G01*
X230345000Y-49345000D01*
G75*
G02*
X230595000Y-49595000I0J-250000D01*
G01*
X230595000Y-50270000D01*
G75*
G02*
X230345000Y-50520000I-250000J0D01*
G01*
G37*
G36*
G01*
X230345000Y-48445000D02*
X229395000Y-48445000D01*
G75*
G02*
X229145000Y-48195000I0J250000D01*
G01*
X229145000Y-47520000D01*
G75*
G02*
X229395000Y-47270000I250000J0D01*
G01*
X230345000Y-47270000D01*
G75*
G02*
X230595000Y-47520000I0J-250000D01*
G01*
X230595000Y-48195000D01*
G75*
G02*
X230345000Y-48445000I-250000J0D01*
G01*
G37*
G36*
G01*
X211252000Y-51250001D02*
X211252000Y-50349999D01*
G75*
G02*
X211501999Y-50100000I249999J0D01*
G01*
X212202001Y-50100000D01*
G75*
G02*
X212452000Y-50349999I0J-249999D01*
G01*
X212452000Y-51250001D01*
G75*
G02*
X212202001Y-51500000I-249999J0D01*
G01*
X211501999Y-51500000D01*
G75*
G02*
X211252000Y-51250001I0J249999D01*
G01*
G37*
G36*
G01*
X213252000Y-51250001D02*
X213252000Y-50349999D01*
G75*
G02*
X213501999Y-50100000I249999J0D01*
G01*
X214202001Y-50100000D01*
G75*
G02*
X214452000Y-50349999I0J-249999D01*
G01*
X214452000Y-51250001D01*
G75*
G02*
X214202001Y-51500000I-249999J0D01*
G01*
X213501999Y-51500000D01*
G75*
G02*
X213252000Y-51250001I0J249999D01*
G01*
G37*
G36*
G01*
X129101000Y-58133000D02*
X129101000Y-57183000D01*
G75*
G02*
X129351000Y-56933000I250000J0D01*
G01*
X130026000Y-56933000D01*
G75*
G02*
X130276000Y-57183000I0J-250000D01*
G01*
X130276000Y-58133000D01*
G75*
G02*
X130026000Y-58383000I-250000J0D01*
G01*
X129351000Y-58383000D01*
G75*
G02*
X129101000Y-58133000I0J250000D01*
G01*
G37*
G36*
G01*
X127026000Y-58133000D02*
X127026000Y-57183000D01*
G75*
G02*
X127276000Y-56933000I250000J0D01*
G01*
X127951000Y-56933000D01*
G75*
G02*
X128201000Y-57183000I0J-250000D01*
G01*
X128201000Y-58133000D01*
G75*
G02*
X127951000Y-58383000I-250000J0D01*
G01*
X127276000Y-58383000D01*
G75*
G02*
X127026000Y-58133000I0J250000D01*
G01*
G37*
G36*
G01*
X135070000Y-58133000D02*
X135070000Y-57183000D01*
G75*
G02*
X135320000Y-56933000I250000J0D01*
G01*
X135995000Y-56933000D01*
G75*
G02*
X136245000Y-57183000I0J-250000D01*
G01*
X136245000Y-58133000D01*
G75*
G02*
X135995000Y-58383000I-250000J0D01*
G01*
X135320000Y-58383000D01*
G75*
G02*
X135070000Y-58133000I0J250000D01*
G01*
G37*
G36*
G01*
X132995000Y-58133000D02*
X132995000Y-57183000D01*
G75*
G02*
X133245000Y-56933000I250000J0D01*
G01*
X133920000Y-56933000D01*
G75*
G02*
X134170000Y-57183000I0J-250000D01*
G01*
X134170000Y-58133000D01*
G75*
G02*
X133920000Y-58383000I-250000J0D01*
G01*
X133245000Y-58383000D01*
G75*
G02*
X132995000Y-58133000I0J250000D01*
G01*
G37*
G36*
G01*
X119406000Y-58133000D02*
X119406000Y-57183000D01*
G75*
G02*
X119656000Y-56933000I250000J0D01*
G01*
X120331000Y-56933000D01*
G75*
G02*
X120581000Y-57183000I0J-250000D01*
G01*
X120581000Y-58133000D01*
G75*
G02*
X120331000Y-58383000I-250000J0D01*
G01*
X119656000Y-58383000D01*
G75*
G02*
X119406000Y-58133000I0J250000D01*
G01*
G37*
G36*
G01*
X121481000Y-58133000D02*
X121481000Y-57183000D01*
G75*
G02*
X121731000Y-56933000I250000J0D01*
G01*
X122406000Y-56933000D01*
G75*
G02*
X122656000Y-57183000I0J-250000D01*
G01*
X122656000Y-58133000D01*
G75*
G02*
X122406000Y-58383000I-250000J0D01*
G01*
X121731000Y-58383000D01*
G75*
G02*
X121481000Y-58133000I0J250000D01*
G01*
G37*
G36*
G01*
X118651000Y-63250500D02*
X119601000Y-63250500D01*
G75*
G02*
X119851000Y-63500500I0J-250000D01*
G01*
X119851000Y-64175500D01*
G75*
G02*
X119601000Y-64425500I-250000J0D01*
G01*
X118651000Y-64425500D01*
G75*
G02*
X118401000Y-64175500I0J250000D01*
G01*
X118401000Y-63500500D01*
G75*
G02*
X118651000Y-63250500I250000J0D01*
G01*
G37*
G36*
G01*
X118651000Y-65325500D02*
X119601000Y-65325500D01*
G75*
G02*
X119851000Y-65575500I0J-250000D01*
G01*
X119851000Y-66250500D01*
G75*
G02*
X119601000Y-66500500I-250000J0D01*
G01*
X118651000Y-66500500D01*
G75*
G02*
X118401000Y-66250500I0J250000D01*
G01*
X118401000Y-65575500D01*
G75*
G02*
X118651000Y-65325500I250000J0D01*
G01*
G37*
G36*
G01*
X126906000Y-65220000D02*
X127856000Y-65220000D01*
G75*
G02*
X128106000Y-65470000I0J-250000D01*
G01*
X128106000Y-66145000D01*
G75*
G02*
X127856000Y-66395000I-250000J0D01*
G01*
X126906000Y-66395000D01*
G75*
G02*
X126656000Y-66145000I0J250000D01*
G01*
X126656000Y-65470000D01*
G75*
G02*
X126906000Y-65220000I250000J0D01*
G01*
G37*
G36*
G01*
X126906000Y-63145000D02*
X127856000Y-63145000D01*
G75*
G02*
X128106000Y-63395000I0J-250000D01*
G01*
X128106000Y-64070000D01*
G75*
G02*
X127856000Y-64320000I-250000J0D01*
G01*
X126906000Y-64320000D01*
G75*
G02*
X126656000Y-64070000I0J250000D01*
G01*
X126656000Y-63395000D01*
G75*
G02*
X126906000Y-63145000I250000J0D01*
G01*
G37*
G36*
G01*
X134907000Y-63123500D02*
X135857000Y-63123500D01*
G75*
G02*
X136107000Y-63373500I0J-250000D01*
G01*
X136107000Y-64048500D01*
G75*
G02*
X135857000Y-64298500I-250000J0D01*
G01*
X134907000Y-64298500D01*
G75*
G02*
X134657000Y-64048500I0J250000D01*
G01*
X134657000Y-63373500D01*
G75*
G02*
X134907000Y-63123500I250000J0D01*
G01*
G37*
G36*
G01*
X134907000Y-65198500D02*
X135857000Y-65198500D01*
G75*
G02*
X136107000Y-65448500I0J-250000D01*
G01*
X136107000Y-66123500D01*
G75*
G02*
X135857000Y-66373500I-250000J0D01*
G01*
X134907000Y-66373500D01*
G75*
G02*
X134657000Y-66123500I0J250000D01*
G01*
X134657000Y-65448500D01*
G75*
G02*
X134907000Y-65198500I250000J0D01*
G01*
G37*
G36*
G01*
X126967000Y-75644500D02*
X126017000Y-75644500D01*
G75*
G02*
X125767000Y-75394500I0J250000D01*
G01*
X125767000Y-74719500D01*
G75*
G02*
X126017000Y-74469500I250000J0D01*
G01*
X126967000Y-74469500D01*
G75*
G02*
X127217000Y-74719500I0J-250000D01*
G01*
X127217000Y-75394500D01*
G75*
G02*
X126967000Y-75644500I-250000J0D01*
G01*
G37*
G36*
G01*
X126967000Y-73569500D02*
X126017000Y-73569500D01*
G75*
G02*
X125767000Y-73319500I0J250000D01*
G01*
X125767000Y-72644500D01*
G75*
G02*
X126017000Y-72394500I250000J0D01*
G01*
X126967000Y-72394500D01*
G75*
G02*
X127217000Y-72644500I0J-250000D01*
G01*
X127217000Y-73319500D01*
G75*
G02*
X126967000Y-73569500I-250000J0D01*
G01*
G37*
G36*
G01*
X228404000Y-66454000D02*
X228404000Y-67404000D01*
G75*
G02*
X228154000Y-67654000I-250000J0D01*
G01*
X227479000Y-67654000D01*
G75*
G02*
X227229000Y-67404000I0J250000D01*
G01*
X227229000Y-66454000D01*
G75*
G02*
X227479000Y-66204000I250000J0D01*
G01*
X228154000Y-66204000D01*
G75*
G02*
X228404000Y-66454000I0J-250000D01*
G01*
G37*
G36*
G01*
X230479000Y-66454000D02*
X230479000Y-67404000D01*
G75*
G02*
X230229000Y-67654000I-250000J0D01*
G01*
X229554000Y-67654000D01*
G75*
G02*
X229304000Y-67404000I0J250000D01*
G01*
X229304000Y-66454000D01*
G75*
G02*
X229554000Y-66204000I250000J0D01*
G01*
X230229000Y-66204000D01*
G75*
G02*
X230479000Y-66454000I0J-250000D01*
G01*
G37*
G36*
G01*
X211608000Y-67404000D02*
X211608000Y-66454000D01*
G75*
G02*
X211858000Y-66204000I250000J0D01*
G01*
X212533000Y-66204000D01*
G75*
G02*
X212783000Y-66454000I0J-250000D01*
G01*
X212783000Y-67404000D01*
G75*
G02*
X212533000Y-67654000I-250000J0D01*
G01*
X211858000Y-67654000D01*
G75*
G02*
X211608000Y-67404000I0J250000D01*
G01*
G37*
G36*
G01*
X213683000Y-67404000D02*
X213683000Y-66454000D01*
G75*
G02*
X213933000Y-66204000I250000J0D01*
G01*
X214608000Y-66204000D01*
G75*
G02*
X214858000Y-66454000I0J-250000D01*
G01*
X214858000Y-67404000D01*
G75*
G02*
X214608000Y-67654000I-250000J0D01*
G01*
X213933000Y-67654000D01*
G75*
G02*
X213683000Y-67404000I0J250000D01*
G01*
G37*
G36*
G01*
X216688000Y-67404000D02*
X216688000Y-66454000D01*
G75*
G02*
X216938000Y-66204000I250000J0D01*
G01*
X217613000Y-66204000D01*
G75*
G02*
X217863000Y-66454000I0J-250000D01*
G01*
X217863000Y-67404000D01*
G75*
G02*
X217613000Y-67654000I-250000J0D01*
G01*
X216938000Y-67654000D01*
G75*
G02*
X216688000Y-67404000I0J250000D01*
G01*
G37*
G36*
G01*
X218763000Y-67404000D02*
X218763000Y-66454000D01*
G75*
G02*
X219013000Y-66204000I250000J0D01*
G01*
X219688000Y-66204000D01*
G75*
G02*
X219938000Y-66454000I0J-250000D01*
G01*
X219938000Y-67404000D01*
G75*
G02*
X219688000Y-67654000I-250000J0D01*
G01*
X219013000Y-67654000D01*
G75*
G02*
X218763000Y-67404000I0J250000D01*
G01*
G37*
G36*
G01*
X223843000Y-67404000D02*
X223843000Y-66454000D01*
G75*
G02*
X224093000Y-66204000I250000J0D01*
G01*
X224768000Y-66204000D01*
G75*
G02*
X225018000Y-66454000I0J-250000D01*
G01*
X225018000Y-67404000D01*
G75*
G02*
X224768000Y-67654000I-250000J0D01*
G01*
X224093000Y-67654000D01*
G75*
G02*
X223843000Y-67404000I0J250000D01*
G01*
G37*
G36*
G01*
X221768000Y-67404000D02*
X221768000Y-66454000D01*
G75*
G02*
X222018000Y-66204000I250000J0D01*
G01*
X222693000Y-66204000D01*
G75*
G02*
X222943000Y-66454000I0J-250000D01*
G01*
X222943000Y-67404000D01*
G75*
G02*
X222693000Y-67654000I-250000J0D01*
G01*
X222018000Y-67654000D01*
G75*
G02*
X221768000Y-67404000I0J250000D01*
G01*
G37*
G36*
G01*
X229395000Y-51080000D02*
X230345000Y-51080000D01*
G75*
G02*
X230595000Y-51330000I0J-250000D01*
G01*
X230595000Y-52005000D01*
G75*
G02*
X230345000Y-52255000I-250000J0D01*
G01*
X229395000Y-52255000D01*
G75*
G02*
X229145000Y-52005000I0J250000D01*
G01*
X229145000Y-51330000D01*
G75*
G02*
X229395000Y-51080000I250000J0D01*
G01*
G37*
G36*
G01*
X229395000Y-53155000D02*
X230345000Y-53155000D01*
G75*
G02*
X230595000Y-53405000I0J-250000D01*
G01*
X230595000Y-54080000D01*
G75*
G02*
X230345000Y-54330000I-250000J0D01*
G01*
X229395000Y-54330000D01*
G75*
G02*
X229145000Y-54080000I0J250000D01*
G01*
X229145000Y-53405000D01*
G75*
G02*
X229395000Y-53155000I250000J0D01*
G01*
G37*
G36*
G01*
X208244000Y-67404000D02*
X208244000Y-66454000D01*
G75*
G02*
X208494000Y-66204000I250000J0D01*
G01*
X209169000Y-66204000D01*
G75*
G02*
X209419000Y-66454000I0J-250000D01*
G01*
X209419000Y-67404000D01*
G75*
G02*
X209169000Y-67654000I-250000J0D01*
G01*
X208494000Y-67654000D01*
G75*
G02*
X208244000Y-67404000I0J250000D01*
G01*
G37*
G36*
G01*
X206169000Y-67404000D02*
X206169000Y-66454000D01*
G75*
G02*
X206419000Y-66204000I250000J0D01*
G01*
X207094000Y-66204000D01*
G75*
G02*
X207344000Y-66454000I0J-250000D01*
G01*
X207344000Y-67404000D01*
G75*
G02*
X207094000Y-67654000I-250000J0D01*
G01*
X206419000Y-67654000D01*
G75*
G02*
X206169000Y-67404000I0J250000D01*
G01*
G37*
G36*
G01*
X229395000Y-63759500D02*
X230345000Y-63759500D01*
G75*
G02*
X230595000Y-64009500I0J-250000D01*
G01*
X230595000Y-64684500D01*
G75*
G02*
X230345000Y-64934500I-250000J0D01*
G01*
X229395000Y-64934500D01*
G75*
G02*
X229145000Y-64684500I0J250000D01*
G01*
X229145000Y-64009500D01*
G75*
G02*
X229395000Y-63759500I250000J0D01*
G01*
G37*
G36*
G01*
X229395000Y-61684500D02*
X230345000Y-61684500D01*
G75*
G02*
X230595000Y-61934500I0J-250000D01*
G01*
X230595000Y-62609500D01*
G75*
G02*
X230345000Y-62859500I-250000J0D01*
G01*
X229395000Y-62859500D01*
G75*
G02*
X229145000Y-62609500I0J250000D01*
G01*
X229145000Y-61934500D01*
G75*
G02*
X229395000Y-61684500I250000J0D01*
G01*
G37*
G36*
G01*
X206147000Y-62324000D02*
X206147000Y-61374000D01*
G75*
G02*
X206397000Y-61124000I250000J0D01*
G01*
X207072000Y-61124000D01*
G75*
G02*
X207322000Y-61374000I0J-250000D01*
G01*
X207322000Y-62324000D01*
G75*
G02*
X207072000Y-62574000I-250000J0D01*
G01*
X206397000Y-62574000D01*
G75*
G02*
X206147000Y-62324000I0J250000D01*
G01*
G37*
G36*
G01*
X208222000Y-62324000D02*
X208222000Y-61374000D01*
G75*
G02*
X208472000Y-61124000I250000J0D01*
G01*
X209147000Y-61124000D01*
G75*
G02*
X209397000Y-61374000I0J-250000D01*
G01*
X209397000Y-62324000D01*
G75*
G02*
X209147000Y-62574000I-250000J0D01*
G01*
X208472000Y-62574000D01*
G75*
G02*
X208222000Y-62324000I0J250000D01*
G01*
G37*
G36*
G01*
X216583000Y-44480500D02*
X216583000Y-43530500D01*
G75*
G02*
X216833000Y-43280500I250000J0D01*
G01*
X217508000Y-43280500D01*
G75*
G02*
X217758000Y-43530500I0J-250000D01*
G01*
X217758000Y-44480500D01*
G75*
G02*
X217508000Y-44730500I-250000J0D01*
G01*
X216833000Y-44730500D01*
G75*
G02*
X216583000Y-44480500I0J250000D01*
G01*
G37*
G36*
G01*
X218658000Y-44480500D02*
X218658000Y-43530500D01*
G75*
G02*
X218908000Y-43280500I250000J0D01*
G01*
X219583000Y-43280500D01*
G75*
G02*
X219833000Y-43530500I0J-250000D01*
G01*
X219833000Y-44480500D01*
G75*
G02*
X219583000Y-44730500I-250000J0D01*
G01*
X218908000Y-44730500D01*
G75*
G02*
X218658000Y-44480500I0J250000D01*
G01*
G37*
G36*
G01*
X225864000Y-43530500D02*
X225864000Y-44480500D01*
G75*
G02*
X225614000Y-44730500I-250000J0D01*
G01*
X224939000Y-44730500D01*
G75*
G02*
X224689000Y-44480500I0J250000D01*
G01*
X224689000Y-43530500D01*
G75*
G02*
X224939000Y-43280500I250000J0D01*
G01*
X225614000Y-43280500D01*
G75*
G02*
X225864000Y-43530500I0J-250000D01*
G01*
G37*
G36*
G01*
X227939000Y-43530500D02*
X227939000Y-44480500D01*
G75*
G02*
X227689000Y-44730500I-250000J0D01*
G01*
X227014000Y-44730500D01*
G75*
G02*
X226764000Y-44480500I0J250000D01*
G01*
X226764000Y-43530500D01*
G75*
G02*
X227014000Y-43280500I250000J0D01*
G01*
X227689000Y-43280500D01*
G75*
G02*
X227939000Y-43530500I0J-250000D01*
G01*
G37*
G36*
G01*
X206210500Y-57180500D02*
X206210500Y-56230500D01*
G75*
G02*
X206460500Y-55980500I250000J0D01*
G01*
X207135500Y-55980500D01*
G75*
G02*
X207385500Y-56230500I0J-250000D01*
G01*
X207385500Y-57180500D01*
G75*
G02*
X207135500Y-57430500I-250000J0D01*
G01*
X206460500Y-57430500D01*
G75*
G02*
X206210500Y-57180500I0J250000D01*
G01*
G37*
G36*
G01*
X208285500Y-57180500D02*
X208285500Y-56230500D01*
G75*
G02*
X208535500Y-55980500I250000J0D01*
G01*
X209210500Y-55980500D01*
G75*
G02*
X209460500Y-56230500I0J-250000D01*
G01*
X209460500Y-57180500D01*
G75*
G02*
X209210500Y-57430500I-250000J0D01*
G01*
X208535500Y-57430500D01*
G75*
G02*
X208285500Y-57180500I0J250000D01*
G01*
G37*
G36*
G01*
X141681000Y-29648999D02*
X141681000Y-30549001D01*
G75*
G02*
X141431001Y-30799000I-249999J0D01*
G01*
X140730999Y-30799000D01*
G75*
G02*
X140481000Y-30549001I0J249999D01*
G01*
X140481000Y-29648999D01*
G75*
G02*
X140730999Y-29399000I249999J0D01*
G01*
X141431001Y-29399000D01*
G75*
G02*
X141681000Y-29648999I0J-249999D01*
G01*
G37*
G36*
G01*
X139681000Y-29648999D02*
X139681000Y-30549001D01*
G75*
G02*
X139431001Y-30799000I-249999J0D01*
G01*
X138730999Y-30799000D01*
G75*
G02*
X138481000Y-30549001I0J249999D01*
G01*
X138481000Y-29648999D01*
G75*
G02*
X138730999Y-29399000I249999J0D01*
G01*
X139431001Y-29399000D01*
G75*
G02*
X139681000Y-29648999I0J-249999D01*
G01*
G37*
G36*
G01*
X144926000Y-30549001D02*
X144926000Y-29648999D01*
G75*
G02*
X145175999Y-29399000I249999J0D01*
G01*
X145876001Y-29399000D01*
G75*
G02*
X146126000Y-29648999I0J-249999D01*
G01*
X146126000Y-30549001D01*
G75*
G02*
X145876001Y-30799000I-249999J0D01*
G01*
X145175999Y-30799000D01*
G75*
G02*
X144926000Y-30549001I0J249999D01*
G01*
G37*
G36*
G01*
X142926000Y-30549001D02*
X142926000Y-29648999D01*
G75*
G02*
X143175999Y-29399000I249999J0D01*
G01*
X143876001Y-29399000D01*
G75*
G02*
X144126000Y-29648999I0J-249999D01*
G01*
X144126000Y-30549001D01*
G75*
G02*
X143876001Y-30799000I-249999J0D01*
G01*
X143175999Y-30799000D01*
G75*
G02*
X142926000Y-30549001I0J249999D01*
G01*
G37*
G36*
G01*
X206178999Y-49168000D02*
X207079001Y-49168000D01*
G75*
G02*
X207329000Y-49417999I0J-249999D01*
G01*
X207329000Y-50118001D01*
G75*
G02*
X207079001Y-50368000I-249999J0D01*
G01*
X206178999Y-50368000D01*
G75*
G02*
X205929000Y-50118001I0J249999D01*
G01*
X205929000Y-49417999D01*
G75*
G02*
X206178999Y-49168000I249999J0D01*
G01*
G37*
G36*
G01*
X206178999Y-47168000D02*
X207079001Y-47168000D01*
G75*
G02*
X207329000Y-47417999I0J-249999D01*
G01*
X207329000Y-48118001D01*
G75*
G02*
X207079001Y-48368000I-249999J0D01*
G01*
X206178999Y-48368000D01*
G75*
G02*
X205929000Y-48118001I0J249999D01*
G01*
X205929000Y-47417999D01*
G75*
G02*
X206178999Y-47168000I249999J0D01*
G01*
G37*
G36*
G01*
X207950000Y-46297001D02*
X207950000Y-45396999D01*
G75*
G02*
X208199999Y-45147000I249999J0D01*
G01*
X208900001Y-45147000D01*
G75*
G02*
X209150000Y-45396999I0J-249999D01*
G01*
X209150000Y-46297001D01*
G75*
G02*
X208900001Y-46547000I-249999J0D01*
G01*
X208199999Y-46547000D01*
G75*
G02*
X207950000Y-46297001I0J249999D01*
G01*
G37*
G36*
G01*
X209950000Y-46297001D02*
X209950000Y-45396999D01*
G75*
G02*
X210199999Y-45147000I249999J0D01*
G01*
X210900001Y-45147000D01*
G75*
G02*
X211150000Y-45396999I0J-249999D01*
G01*
X211150000Y-46297001D01*
G75*
G02*
X210900001Y-46547000I-249999J0D01*
G01*
X210199999Y-46547000D01*
G75*
G02*
X209950000Y-46297001I0J249999D01*
G01*
G37*
G36*
G01*
X208210999Y-49168000D02*
X209111001Y-49168000D01*
G75*
G02*
X209361000Y-49417999I0J-249999D01*
G01*
X209361000Y-50118001D01*
G75*
G02*
X209111001Y-50368000I-249999J0D01*
G01*
X208210999Y-50368000D01*
G75*
G02*
X207961000Y-50118001I0J249999D01*
G01*
X207961000Y-49417999D01*
G75*
G02*
X208210999Y-49168000I249999J0D01*
G01*
G37*
G36*
G01*
X208210999Y-47168000D02*
X209111001Y-47168000D01*
G75*
G02*
X209361000Y-47417999I0J-249999D01*
G01*
X209361000Y-48118001D01*
G75*
G02*
X209111001Y-48368000I-249999J0D01*
G01*
X208210999Y-48368000D01*
G75*
G02*
X207961000Y-48118001I0J249999D01*
G01*
X207961000Y-47417999D01*
G75*
G02*
X208210999Y-47168000I249999J0D01*
G01*
G37*
G36*
G01*
X206156000Y-52139001D02*
X206156000Y-51238999D01*
G75*
G02*
X206405999Y-50989000I249999J0D01*
G01*
X207106001Y-50989000D01*
G75*
G02*
X207356000Y-51238999I0J-249999D01*
G01*
X207356000Y-52139001D01*
G75*
G02*
X207106001Y-52389000I-249999J0D01*
G01*
X206405999Y-52389000D01*
G75*
G02*
X206156000Y-52139001I0J249999D01*
G01*
G37*
G36*
G01*
X208156000Y-52139001D02*
X208156000Y-51238999D01*
G75*
G02*
X208405999Y-50989000I249999J0D01*
G01*
X209106001Y-50989000D01*
G75*
G02*
X209356000Y-51238999I0J-249999D01*
G01*
X209356000Y-52139001D01*
G75*
G02*
X209106001Y-52389000I-249999J0D01*
G01*
X208405999Y-52389000D01*
G75*
G02*
X208156000Y-52139001I0J249999D01*
G01*
G37*
G36*
G01*
X135857000Y-75666000D02*
X134907000Y-75666000D01*
G75*
G02*
X134657000Y-75416000I0J250000D01*
G01*
X134657000Y-74741000D01*
G75*
G02*
X134907000Y-74491000I250000J0D01*
G01*
X135857000Y-74491000D01*
G75*
G02*
X136107000Y-74741000I0J-250000D01*
G01*
X136107000Y-75416000D01*
G75*
G02*
X135857000Y-75666000I-250000J0D01*
G01*
G37*
G36*
G01*
X135857000Y-73591000D02*
X134907000Y-73591000D01*
G75*
G02*
X134657000Y-73341000I0J250000D01*
G01*
X134657000Y-72666000D01*
G75*
G02*
X134907000Y-72416000I250000J0D01*
G01*
X135857000Y-72416000D01*
G75*
G02*
X136107000Y-72666000I0J-250000D01*
G01*
X136107000Y-73341000D01*
G75*
G02*
X135857000Y-73591000I-250000J0D01*
G01*
G37*
M02*
