M48
; DRILL file {KiCad (5.1.10-1-10_14)} date Monday, August 09, 2021 at 07:16:36 PM
; FORMAT={-:-/ absolute / inch / decimal}
; #@! TF.CreationDate,2021-08-09T19:16:36+02:00
; #@! TF.GenerationSoftware,Kicad,Pcbnew,(5.1.10-1-10_14)
; #@! TF.FileFunction,Plated,1,4,PTH
FMAT,2
INCH
T1C0.0118
T2C0.0157
T3C0.0236
T4C0.0300
T5C0.0315
T6C0.0394
T7C0.0433
%
G90
G05
T1
X3.475Y-1.1675
X3.51Y-4.12
X3.598Y-3.675
X3.6075Y-1.3575
X3.63Y-1.22
X3.6375Y-3.6751
X3.675Y-3.1425
X3.675Y-3.6909
X3.6774Y-1.9291
X3.6775Y-1.9611
X3.78Y-1.6
X3.8Y-1.9559
X3.8175Y-1.1975
X3.83Y-1.42
X3.83Y-2.97
X3.845Y-1.9559
X3.8618Y-2.9016
X3.92Y-1.9509
X3.965Y-2.29
X3.9749Y-3.2848
X3.975Y-3.328
X3.99Y-1.9509
X4.0274Y-1.9509
X4.0325Y-3.3725
X4.035Y-3.4875
X4.045Y-4.7716
X4.06Y-3.28
X4.0648Y-1.951
X4.0836Y-3.9995
X4.1204Y-3.9995
X4.1371Y-2.5029
X4.1575Y-3.9995
X4.1813Y-3.2537
X4.1925Y-4.0
X4.2Y-1.9725
X4.2125Y-3.1465
X4.2131Y-2.7208
X4.2275Y-3.9995
X4.25Y-1.975
X4.2533Y-2.4498
X4.2559Y-1.5509
X4.2625Y-3.1307
X4.275Y-2.1725
X4.2975Y-2.1925
X4.3Y-1.9776
X4.3Y-2.515
X4.3011Y-1.5457
X4.32Y-2.0003
X4.32Y-2.2125
X4.3447Y-2.232
X4.35Y-1.545
X4.35Y-3.3234
X4.3843Y-2.9808
X4.418Y-2.4981
X4.4827Y-2.8815
X4.5011Y-1.5461
X4.5025Y-2.4475
X4.503Y-2.4135
X4.551Y-3.3324
X4.555Y-1.545
X4.575Y-1.91
X4.5796Y-3.1304
X4.6Y-1.545
X4.6054Y-1.9104
X4.635Y-2.7325
X4.6433Y-2.0685
X4.6534Y-1.5484
X4.6617Y-1.9986
X4.6825Y-2.795
X4.685Y-2.8275
X4.7034Y-2.4216
X4.7085Y-1.981
X4.7101Y-4.3976
X4.7273Y-2.0901
X4.739Y-2.9384
X4.7399Y-1.9608
X4.7438Y-2.1199
X4.7522Y-2.903
X4.76Y-1.567
X4.7799Y-1.9478
X4.78Y-3.4525
X4.785Y-3.51
X4.799Y-2.1092
X4.805Y-1.58
X4.8099Y-2.6625
X4.81Y-2.9275
X4.815Y-2.9608
X4.8391Y-2.6161
X4.8443Y-3.4569
X4.847Y-3.5469
X4.8538Y-4.3062
X4.8602Y-2.96
X4.9Y-2.3275
X4.9005Y-2.4201
X4.9051Y-2.1377
X4.9179Y-2.8056
X4.9231Y-2.2655
X4.9292Y-2.8329
X4.9325Y-4.2275
X4.9425Y-1.6675
X4.9659Y-3.2467
X4.9676Y-3.5254
X4.9684Y-2.31
X4.9814Y-2.6437
X4.9932Y-2.135
X4.9963Y-3.2685
X4.9975Y-3.3734
X5.014Y-4.4682
X5.04Y-2.131
X5.0456Y-2.4685
X5.05Y-1.6675
X5.065Y-4.48
X5.0785Y-2.5397
X5.0867Y-3.342
X5.1Y-1.6675
X5.1061Y-2.5674
X5.1102Y-2.4758
X5.1147Y-4.4652
X5.1321Y-2.5405
X5.145Y-4.44
X5.1494Y-4.4026
X5.15Y-1.6675
X5.1521Y-3.4848
X5.1613Y-2.5181
X5.181Y-3.514
X5.1825Y-2.3731
X5.1933Y-1.5926
X5.2188Y-2.8056
X5.2371Y-2.8998
X5.2831Y-3.5148
X5.2975Y-3.4149
X5.3089Y-1.5966
X5.3091Y-1.634
X5.3205Y-3.515
X5.3209Y-1.76
X5.3579Y-3.5142
X5.3673Y-2.3478
X5.3696Y-2.9979
X5.374Y-1.7866
X5.3953Y-3.5147
X5.3966Y-1.5966
X5.4354Y-1.6772
X5.445Y-1.82
X5.4537Y-3.2213
X5.4561Y-2.2137
X5.4758Y-1.703
X5.4775Y-2.8727
X5.4792Y-2.3371
X5.4856Y-2.2144
X5.5024Y-2.1881
X5.5029Y-1.6772
X5.5075Y-3.2775
X5.519Y-2.5992
X5.52Y-2.87
X5.5373Y-3.2476
X5.5475Y-2.945
X5.555Y-2.85
X5.5556Y-1.5139
X5.5675Y-3.2213
X5.5825Y-2.8275
X5.5884Y-2.2203
X5.5945Y-2.6307
X5.611Y-2.1928
X5.6284Y-4.4707
X5.6316Y-1.5454
X5.6327Y-1.6626
X5.6378Y-1.9154
X5.64Y-3.4134
X5.6575Y-2.5926
X5.6647Y-1.8016
X5.6821Y-1.4726
X5.6887Y-2.0044
X5.69Y-2.555
X5.6922Y-1.8282
X5.6931Y-2.2071
X5.6933Y-1.5494
X5.6954Y-4.1087
X5.7151Y-4.0836
X5.7179Y-1.7445
X5.7205Y-1.3988
X5.7213Y-1.4362
X5.7284Y-1.8543
X5.73Y-4.11
X5.7566Y-1.7593
X5.7601Y-1.3992
X5.7604Y-4.0875
X5.77Y-3.12
X5.7895Y-4.099
X5.8133Y-1.4048
X5.8156Y-1.8707
X5.8186Y-2.5464
X5.8255Y-1.7733
X5.8437Y-4.3243
X5.8602Y-1.8365
X5.8769Y-4.3415
X5.8781Y-1.9271
X5.88Y-1.66
X5.8858Y-2.137
X5.9074Y-3.11
X5.9104Y-4.3248
X5.92Y-1.6601
X5.9241Y-3.8948
X5.925Y-2.725
X5.9275Y-2.7924
X5.94Y-4.355
X5.9566Y-3.2075
X5.965Y-2.2547
X5.9656Y-2.5756
X5.9722Y-4.3272
X5.9827Y-3.9059
X5.9846Y-2.0991
X5.99Y-3.2075
X6.0055Y-4.3845
X6.01Y-2.3
X6.0329Y-1.5846
X6.04Y-4.41
X6.08Y-4.385
X6.0851Y-2.3686
X6.115Y-4.415
X6.1444Y-2.2684
X6.15Y-4.385
X6.1534Y-3.1399
X6.1849Y-2.4562
X6.185Y-1.4268
X6.185Y-4.415
X6.1857Y-2.1376
X6.2075Y-2.3525
X6.215Y-4.385
X6.225Y-2.56
X6.2375Y-2.0325
X6.25Y-4.415
X6.252Y-4.103
X6.2619Y-3.101
X6.2634Y-2.7264
X6.2758Y-2.2494
X6.2774Y-4.1832
X6.2794Y-4.1223
X6.283Y-4.1516
X6.2848Y-4.2227
X6.2982Y-2.7201
X6.3075Y-2.0425
X6.3276Y-3.1454
X6.3286Y-2.7647
X6.3455Y-3.1159
X6.3542Y-4.1597
X6.365Y-2.815
X6.3844Y-3.9054
X6.3995Y-2.7625
X6.4024Y-2.8146
X6.411Y-4.1064
X6.4175Y-4.4033
X6.4325Y-1.9941
X6.45Y-4.435
X6.46Y-2.19
X6.4875Y-2.2125
X6.503Y-1.8321
X6.5255Y-3.7961
X6.5402Y-1.5823
X6.57Y-3.7843
X6.5812Y-3.8115
X6.5993Y-3.8349
X6.6191Y-3.7854
X6.6414Y-3.8291
X6.6835Y-2.5316
X6.6845Y-2.4595
X6.6949Y-3.7854
X6.7038Y-2.5637
X6.705Y-1.2031
X6.71Y-4.83
X6.7301Y-4.6225
X6.7311Y-4.248
X6.7348Y-3.5966
X6.735Y-3.555
X6.735Y-3.795
X6.7592Y-4.0179
X6.7616Y-2.8084
X6.7693Y-3.5052
X6.7787Y-4.2096
X6.8061Y-2.8482
X6.81Y-4.02
X6.8118Y-3.5526
X6.82Y-4.6925
X6.8301Y-2.4074
X6.8318Y-4.1963
X6.835Y-3.0175
X6.8382Y-3.5
X6.8413Y-1.5174
X6.8551Y-4.0201
X6.8617Y-2.8651
X6.8625Y-4.0725
X6.8686Y-3.4826
X6.8691Y-3.5454
X6.8763Y-4.1964
X6.8956Y-3.4149
X6.898Y-4.0233
X6.9221Y-3.4826
X6.9234Y-2.8848
X6.935Y-4.1878
X6.9487Y-3.4149
X6.9542Y-4.0768
X6.9753Y-3.4826
X6.9779Y-4.1704
X6.9784Y-2.9046
X7.0Y-2.4168
X7.0019Y-3.4149
X7.0116Y-2.7812
X7.012Y-4.3919
X7.0311Y-4.1436
X7.0316Y-2.9242
X7.0333Y-3.4826
X7.0435Y-4.0436
X7.045Y-1.4058
X7.0576Y-3.2504
X7.0613Y-3.4149
X7.0723Y-2.6532
X7.0736Y-4.3969
X7.0809Y-4.1179
X7.0843Y-2.9417
X7.0909Y-3.4826
X7.11Y-3.24
X7.1137Y-2.7793
X7.1184Y-4.2675
X7.12Y-3.4325
X7.125Y-4.035
X7.134Y-4.1039
X7.1365Y-2.947
X7.1446Y-2.243
X7.15Y-2.5383
X7.15Y-3.4826
X7.1846Y-2.3139
X7.2012Y-2.2566
X7.215Y-3.8191
X7.235Y-4.2575
X7.2601Y-2.2693
X7.2611Y-2.127
X7.2624Y-3.5533
X7.2624Y-3.5853
X7.2684Y-3.2945
X7.2728Y-2.4249
X7.298Y-3.2945
X7.3016Y-3.7854
X7.3026Y-2.2477
X7.3322Y-2.248
X7.3358Y-4.318
X7.3375Y-2.1395
X7.3433Y-2.6925
X7.3449Y-2.6105
X7.3509Y-2.2708
X7.3625Y-4.335
X7.3635Y-2.4691
X7.3918Y-3.9166
X7.4007Y-4.3526
X7.4054Y-2.5168
X7.4067Y-2.7129
X7.4104Y-4.06
X7.42Y-2.6401
X7.437Y-2.5164
X7.4425Y-3.2681
X7.445Y-2.135
X7.4643Y-2.5006
X7.4699Y-2.6089
X7.4699Y-2.171
X7.48Y-4.3977
X7.4936Y-3.0475
X7.5017Y-2.5921
X7.5199Y-3.581
X7.5219Y-3.9166
X7.5256Y-3.7828
X7.533Y-2.1741
X7.545Y-4.06
X7.5525Y-2.7905
X7.5566Y-3.4078
X7.56Y-3.2075
X7.56Y-4.3975
X7.5625Y-2.175
X7.58Y-3.0475
X7.5801Y-4.2476
X7.5825Y-4.4469
X7.5973Y-1.2149
X7.6022Y-3.5674
X7.6023Y-3.7709
X7.6274Y-4.2322
X7.6281Y-3.7853
X7.6336Y-1.2386
X7.6438Y-3.5467
X7.6525Y-1.2025
X7.6548Y-2.133
X7.655Y-2.165
X7.6684Y-3.5221
X7.6743Y-2.0894
X7.6751Y-4.2166
X7.679Y-3.7895
X7.6825Y-1.4811
X7.683Y-1.519
X7.6836Y-1.6478
X7.695Y-1.7625
X7.7Y-2.12
X7.7142Y-3.4974
X7.7276Y-4.197
X7.73Y-3.825
X7.7702Y-3.4769
X7.78Y-4.1772
X7.78Y-3.825
X7.79Y-3.195
X7.7988Y-3.4695
X7.8222Y-4.4292
X7.83Y-3.825
X7.83Y-4.1576
X7.8534Y-3.3625
X7.8597Y-3.4736
X7.8715Y-4.4471
X7.8799Y-4.1393
X7.88Y-3.8225
X7.8972Y-4.4728
X7.9068Y-3.3638
X7.9276Y-4.1181
X7.93Y-3.82
X7.9308Y-4.3892
X7.955Y-3.3625
X7.9564Y-3.4808
X7.98Y-4.3975
X8.0296Y-3.4597
X8.03Y-4.0575
X8.085Y-3.4775
X8.09Y-4.48
X8.0947Y-3.2505
X8.0952Y-1.2798
X8.1325Y-2.6925
X8.156Y-1.2798
X8.2481Y-3.1624
X8.265Y-2.725
X8.2831Y-1.8724
X8.3084Y-3.1539
X8.3086Y-1.8456
X8.32Y-3.7475
X8.32Y-3.882
X8.3291Y-1.9188
X8.3425Y-3.1325
X8.35Y-1.765
X8.3663Y-4.11
X8.3675Y-2.5325
X8.37Y-4.0725
X8.396Y-3.1288
X8.4007Y-3.6032
X8.405Y-2.7925
X8.4151Y-2.7645
X8.4167Y-1.8459
X8.42Y-4.1276
X8.425Y-1.805
X8.4264Y-4.1565
X8.4568Y-2.1364
X8.4582Y-3.5925
X8.47Y-4.1434
X8.4725Y-2.175
X8.4739Y-4.1727
X8.475Y-2.0
X8.4852Y-3.09
X8.4928Y-3.5616
X8.4975Y-2.4825
X8.4975Y-2.5951
X8.5102Y-2.3568
X8.5109Y-3.0663
X8.52Y-4.1591
X8.5203Y-1.9282
X8.5247Y-4.1883
X8.539Y-3.5774
X8.5571Y-2.3206
X8.565Y-4.46
X8.57Y-4.1749
X8.5739Y-4.2041
X8.5782Y-2.3
X8.5841Y-3.0678
X8.589Y-3.2578
X8.59Y-3.2125
X8.5935Y-3.562
X8.6091Y-3.0836
X8.6137Y-3.2345
X8.62Y-4.1906
X8.6208Y-4.2202
X8.6279Y-3.5721
X8.6683Y-4.2359
X8.6688Y-3.1735
X8.67Y-4.2064
X8.6809Y-3.5786
X8.6869Y-2.3725
X8.7188Y-4.2221
X8.723Y-4.2514
X8.7341Y-3.0874
X8.7418Y-2.3951
X8.7422Y-3.588
X8.77Y-4.2475
X8.7992Y-3.6183
X8.855Y-4.2536
X8.8871Y-3.4546
X8.917Y-3.4707
X8.9419Y-3.5008
X8.9713Y-3.524
X8.9875Y-1.2125
X8.99Y-2.2
X9.0011Y-3.5466
X9.0271Y-3.5735
X9.0593Y-3.5934
X9.06Y-4.415
X9.0804Y-3.7503
X9.09Y-3.615
X9.0927Y-2.6996
X9.1Y-3.89
X9.1106Y-4.406
X9.1131Y-3.7276
X9.1575Y-4.0417
X9.165Y-3.4449
X9.1867Y-4.0217
X9.19Y-3.16
X9.2093Y-4.0618
X9.215Y-3.47
X9.2374Y-4.0451
X9.24Y-3.175
X9.2573Y-4.0914
X9.2625Y-3.4925
X9.2849Y-4.0634
X9.29Y-3.1875
X9.3097Y-4.1101
X9.315Y-3.5175
X9.33Y-4.44
X9.3347Y-4.0822
X9.34Y-3.2
X9.3528Y-1.1943
X9.3546Y-4.1259
X9.365Y-3.535
X9.375Y-4.44
X9.3846Y-4.1028
X9.39Y-3.215
X9.3944Y-1.2209
X9.41Y-4.1416
X9.415Y-3.5525
X9.4374Y-4.1225
X9.4398Y-3.2248
X9.46Y-4.1574
X9.465Y-3.5725
X9.4854Y-4.1424
X9.49Y-3.2375
X9.51Y-4.18
X9.515Y-3.595
X9.5341Y-3.2411
X9.535Y-4.1619
X9.585Y-3.0325
X9.585Y-4.2025
X9.5988Y-3.6088
X9.61Y-3.105
X9.6134Y-3.78
X9.6134Y-4.3957
T2
X3.13Y-1.5725
X3.2175Y-4.62
X3.285Y-4.75
X3.3474Y-3.6011
X3.555Y-1.4675
X3.5625Y-4.51
X3.5625Y-4.865
X3.6Y-4.035
X3.6349Y-2.0182
X3.646Y-3.082
X3.655Y-4.755
X3.805Y-3.99
X3.85Y-3.05
X3.86Y-3.135
X3.8612Y-1.285
X3.8612Y-1.34
X3.955Y-3.135
X4.1045Y-2.1698
X4.17Y-3.505
X4.275Y-2.0276
X4.385Y-1.36
X4.5566Y-2.2228
X4.5612Y-1.225
X4.6023Y-2.9926
X4.6275Y-2.27
X4.63Y-2.94
X4.635Y-2.595
X4.638Y-2.482
X4.6383Y-2.7764
X4.6747Y-2.3984
X4.75Y-2.97
X4.8125Y-2.32
X4.9193Y-2.5576
X4.92Y-2.975
X4.9425Y-2.6225
X4.9964Y-2.2797
X5.04Y-2.955
X5.0475Y-2.875
X5.055Y-1.5926
X5.155Y-2.2678
X5.2098Y-2.2678
X5.2225Y-2.0837
X5.2228Y-3.342
X5.26Y-2.8732
X5.2612Y-2.9462
X5.2775Y-2.59
X5.2935Y-2.4005
X5.2998Y-2.5029
X5.377Y-3.0425
X5.3874Y-2.2541
X5.47Y-2.9534
X5.4771Y-2.8235
X5.955Y-1.35
X6.1Y-1.26
X6.1005Y-1.2181
X6.18Y-1.375
X6.435Y-2.735
X6.4472Y-2.7801
X6.4976Y-1.6854
X6.515Y-1.245
X6.5157Y-3.423
X6.5775Y-4.065
X6.6122Y-3.8992
X6.6273Y-3.3114
X6.665Y-1.265
X6.665Y-1.305
X6.665Y-1.345
X6.705Y-1.265
X6.705Y-1.305
X6.745Y-1.265
X6.835Y-2.3589
X6.8523Y-1.7024
X6.8598Y-1.4061
X6.86Y-1.205
X6.955Y-1.495
X6.9574Y-2.1923
X6.995Y-1.495
X7.035Y-1.495
X7.0725Y-2.4025
X7.075Y-1.495
X7.115Y-1.4953
X7.125Y-1.2075
X7.155Y-1.495
X7.165Y-1.2075
X7.1854Y-2.6643
X7.1927Y-4.0372
X7.195Y-1.495
X7.205Y-1.2075
X7.2323Y-3.7893
X7.245Y-1.2075
X7.2735Y-3.029
X7.28Y-4.335
X7.285Y-1.2075
X7.325Y-1.2075
X7.338Y-1.968
X7.3604Y-3.2748
X7.365Y-1.2075
X7.4025Y-2.035
X7.405Y-1.2075
X7.42Y-4.01
X7.4249Y-3.9215
X7.4325Y-3.4411
X7.44Y-2.035
X7.445Y-1.2075
X7.445Y-2.875
X7.485Y-1.2075
X7.525Y-1.2075
X7.6021Y-1.6478
X7.6833Y-2.0385
X7.9757Y-3.8888
X7.9816Y-3.2203
X8.0329Y-4.3989
X8.041Y-3.7986
X8.0948Y-3.4013
X8.144Y-3.891
X8.1457Y-3.2367
X8.188Y-4.307
X8.19Y-4.08
X8.195Y-4.035
X8.2334Y-2.5698
X8.2438Y-3.7613
X8.25Y-1.2653
X8.27Y-4.404
X8.2825Y-2.09
X8.2836Y-2.4241
X8.7693Y-3.8723
X8.77Y-3.375
X8.802Y-3.758
X8.8191Y-4.2642
X8.88Y-3.3075
X8.9182Y-2.6185
X9.0101Y-3.385
X9.03Y-3.3125
X9.035Y-3.77
X9.15Y-3.895
X9.525Y-2.4134
X9.525Y-2.365
X9.525Y-2.465
X9.5616Y-3.8847
X9.565Y-4.655
X9.5675Y-3.245
X9.5938Y-3.7482
X9.6077Y-4.265
X9.616Y-1.372
X9.75Y-3.0025
X9.755Y-2.6375
X9.755Y-2.59
X9.805Y-2.59
X9.805Y-2.6375
X9.805Y-3.0025
X9.855Y-2.59
X9.855Y-2.6375
X9.8575Y-3.0025
X9.9084Y-4.6416
T3
X3.1993Y-1.7818
X3.1993Y-1.8318
X3.1993Y-3.8659
X3.1993Y-3.9159
X3.2493Y-1.7818
X3.2493Y-1.8318
X3.2493Y-3.8659
X3.2493Y-3.9159
X3.2993Y-1.7818
X3.2993Y-1.8318
X3.2993Y-3.8659
X3.2993Y-3.9159
X3.3493Y-1.7818
X3.3493Y-1.8318
X3.3493Y-3.8659
X3.3493Y-3.9159
X3.3993Y-1.7818
X3.3993Y-1.8318
X3.3993Y-3.8659
X3.3993Y-3.9159
X3.4493Y-1.7818
X3.4493Y-1.8318
X3.4493Y-3.8659
X3.4493Y-3.9159
X3.4993Y-1.7818
X3.4993Y-1.8318
X3.4993Y-3.8659
X3.4993Y-3.9159
X3.5493Y-1.7818
X3.5493Y-1.8318
X3.5493Y-3.8659
X3.5493Y-3.9159
X3.5993Y-1.7818
X3.5993Y-1.8318
X3.5993Y-3.8659
X3.5993Y-3.9159
X3.6493Y-1.7818
X3.6493Y-1.8318
X3.6493Y-3.8659
X3.6493Y-3.9159
X3.6993Y-1.7818
X3.6993Y-1.8318
X3.6993Y-3.8659
X3.6993Y-3.9159
X3.7493Y-1.7818
X3.7493Y-1.8318
X3.7493Y-3.8659
X3.7493Y-3.9159
X3.7993Y-1.7818
X3.7993Y-1.8318
X3.7993Y-3.8659
X3.7993Y-3.9159
X3.8493Y-1.7818
X3.8493Y-1.8318
X3.8493Y-3.8659
X3.8493Y-3.9159
X3.8993Y-1.7818
X3.8993Y-1.8318
X3.8993Y-3.8659
X3.8993Y-3.9159
X3.9493Y-1.7818
X3.9493Y-1.8318
X3.9493Y-3.8659
X3.9493Y-3.9159
X3.9993Y-1.7818
X3.9993Y-1.8318
X3.9993Y-3.8659
X3.9993Y-3.9159
X4.0493Y-1.7818
X4.0493Y-1.8318
X4.0493Y-3.8659
X4.0493Y-3.9159
X4.0993Y-1.7818
X4.0993Y-1.8318
X4.0993Y-3.8659
X4.0993Y-3.9159
X4.1493Y-1.7818
X4.1493Y-1.8318
X4.1493Y-3.8659
X4.1493Y-3.9159
X4.1993Y-1.7818
X4.1993Y-1.8318
X4.1993Y-3.8659
X4.1993Y-3.9159
X4.2493Y-1.7818
X4.2493Y-1.8318
X4.2493Y-3.8659
X4.2493Y-3.9159
X4.2993Y-1.7818
X4.2993Y-1.8318
X4.2993Y-3.8659
X4.2993Y-3.9159
X4.3493Y-1.7818
X4.3493Y-1.8318
X4.3493Y-3.8659
X4.3493Y-3.9159
X4.3993Y-1.7818
X4.3993Y-1.8318
X4.3993Y-3.8659
X4.3993Y-3.9159
X4.4493Y-1.7818
X4.4493Y-1.8318
X4.4493Y-3.8659
X4.4493Y-3.9159
X4.4993Y-1.7818
X4.4993Y-1.8318
X4.4993Y-3.8659
X4.4993Y-3.9159
X4.5493Y-1.7818
X4.5493Y-1.8318
X4.5493Y-3.8659
X4.5493Y-3.9159
X4.5993Y-1.7818
X4.5993Y-1.8318
X4.5993Y-3.8659
X4.5993Y-3.9159
X4.6493Y-1.7818
X4.6493Y-1.8318
X4.6493Y-3.8659
X4.6493Y-3.9159
X4.6993Y-1.7818
X4.6993Y-1.8318
X4.6993Y-3.8659
X4.6993Y-3.9159
X4.7493Y-1.7818
X4.7493Y-1.8318
X4.7493Y-3.8659
X4.7493Y-3.9159
X4.7993Y-1.7818
X4.7993Y-1.8318
X4.7993Y-3.8659
X4.7993Y-3.9159
X4.8493Y-1.7818
X4.8493Y-1.8318
X4.8493Y-3.8659
X4.8493Y-3.9159
X4.8993Y-1.7818
X4.8993Y-1.8318
X4.8993Y-3.8659
X4.8993Y-3.9159
X4.9493Y-1.7818
X4.9493Y-1.8318
X4.9493Y-3.8659
X4.9493Y-3.9159
X4.9993Y-1.7818
X4.9993Y-1.8318
X4.9993Y-3.8659
X4.9993Y-3.9159
X5.0493Y-1.7818
X5.0493Y-1.8318
X5.0493Y-3.8659
X5.0493Y-3.9159
X5.0993Y-1.7818
X5.0993Y-1.8318
X5.0993Y-3.8659
X5.0993Y-3.9159
X5.1493Y-1.7818
X5.1493Y-1.8318
X5.1493Y-3.8659
X5.1493Y-3.9159
T4
X3.5037Y-2.3459
X3.5037Y-2.6459
X7.751Y-1.3335
X7.751Y-1.4335
X7.751Y-1.5335
X7.751Y-1.6335
X7.751Y-1.7335
X7.751Y-1.8335
X7.751Y-1.9335
X7.751Y-2.0335
X7.751Y-2.1335
X7.751Y-2.2335
X7.751Y-2.3335
X7.751Y-2.4335
X7.751Y-2.5335
X7.751Y-2.6335
X7.751Y-2.7335
X7.751Y-2.8335
X7.751Y-2.9335
X7.751Y-3.0335
X7.851Y-1.3335
X7.851Y-1.4335
X7.851Y-1.5335
X7.851Y-1.6335
X7.851Y-1.7335
X7.851Y-1.8335
X7.851Y-1.9335
X7.851Y-2.0335
X7.851Y-2.1335
X7.851Y-2.2335
X7.851Y-2.3335
X7.851Y-2.4335
X7.851Y-2.5335
X7.851Y-2.6335
X7.851Y-2.7335
X7.851Y-2.8335
X7.851Y-2.9335
X7.851Y-3.0335
X7.951Y-1.3335
X7.951Y-1.4335
X7.951Y-1.5335
X7.951Y-1.6335
X7.951Y-1.7335
X7.951Y-1.8335
X7.951Y-1.9335
X7.951Y-2.0335
X7.951Y-2.1335
X7.951Y-2.2335
X7.951Y-2.3335
X7.951Y-2.4335
X7.951Y-2.5335
X7.951Y-2.6335
X7.951Y-2.7335
X7.951Y-2.8335
X7.951Y-2.9335
X7.951Y-3.0335
X8.051Y-1.3335
X8.051Y-1.4335
X8.051Y-1.5335
X8.051Y-1.6335
X8.051Y-1.7335
X8.051Y-1.8335
X8.051Y-1.9335
X8.051Y-2.0335
X8.051Y-2.1335
X8.051Y-2.2335
X8.051Y-2.3335
X8.051Y-2.4335
X8.051Y-2.5335
X8.051Y-2.6335
X8.051Y-2.7335
X8.051Y-2.8335
X8.051Y-2.9335
X8.051Y-3.0335
X8.151Y-1.3335
X8.151Y-1.4335
X8.151Y-1.5335
X8.151Y-1.6335
X8.151Y-2.8335
X8.151Y-2.9335
X8.151Y-3.0335
X8.251Y-1.3335
X8.251Y-1.4335
X8.251Y-1.5335
X8.251Y-1.6335
X8.251Y-2.8335
X8.251Y-2.9335
X8.251Y-3.0335
X8.351Y-1.3335
X8.351Y-1.4335
X8.351Y-1.5335
X8.351Y-1.6335
X8.351Y-2.7335
X8.351Y-2.8335
X8.351Y-2.9335
X8.351Y-3.0335
X8.451Y-1.3335
X8.451Y-1.4335
X8.451Y-1.5335
X8.451Y-1.6335
X8.451Y-2.8335
X8.451Y-2.9335
X8.451Y-3.0335
X8.551Y-1.3335
X8.551Y-1.4335
X8.551Y-1.5335
X8.551Y-1.6335
X8.551Y-2.7335
X8.551Y-2.8335
X8.551Y-2.9335
X8.551Y-3.0335
X8.651Y-1.3335
X8.651Y-1.4335
X8.651Y-1.5335
X8.651Y-1.6335
X8.651Y-2.8335
X8.651Y-2.9335
X8.651Y-3.0335
X8.751Y-1.3335
X8.751Y-1.4335
X8.751Y-1.5335
X8.751Y-1.6335
X8.751Y-2.7335
X8.751Y-2.8335
X8.751Y-2.9335
X8.751Y-3.0335
X8.851Y-1.3335
X8.851Y-1.4335
X8.851Y-1.5335
X8.851Y-1.6335
X8.851Y-2.8335
X8.851Y-2.9335
X8.851Y-3.0335
X8.951Y-1.3335
X8.951Y-1.4335
X8.951Y-1.5335
X8.951Y-1.6335
X8.951Y-2.8335
X8.951Y-2.9335
X8.951Y-3.0335
X9.051Y-1.3335
X9.051Y-1.4335
X9.051Y-1.5335
X9.051Y-1.6335
X9.051Y-2.8335
X9.051Y-2.9335
X9.051Y-3.0335
X9.151Y-1.3335
X9.151Y-1.4335
X9.151Y-1.5335
X9.151Y-1.6335
X9.151Y-1.7335
X9.151Y-2.0335
X9.151Y-2.2335
X9.151Y-2.3335
X9.151Y-2.4335
X9.151Y-2.5335
X9.151Y-2.6335
X9.151Y-2.8335
X9.151Y-2.9335
X9.151Y-3.0335
X9.251Y-1.3335
X9.251Y-1.4335
X9.251Y-1.5335
X9.251Y-1.6335
X9.251Y-1.7335
X9.251Y-1.8335
X9.251Y-1.9335
X9.251Y-2.0335
X9.251Y-2.1335
X9.251Y-2.2335
X9.251Y-2.3335
X9.251Y-2.4335
X9.251Y-2.5335
X9.251Y-2.6335
X9.251Y-2.7335
X9.251Y-2.8335
X9.251Y-2.9335
X9.251Y-3.0335
X9.351Y-1.3335
X9.351Y-1.4335
X9.351Y-1.5335
X9.351Y-1.6335
X9.351Y-1.7335
X9.351Y-1.8335
X9.351Y-1.9335
X9.351Y-2.0335
X9.351Y-2.1335
X9.351Y-2.2335
X9.351Y-2.3335
X9.351Y-2.4335
X9.351Y-2.5335
X9.351Y-2.6335
X9.351Y-2.7335
X9.351Y-2.8335
X9.351Y-2.9335
X9.351Y-3.0335
X9.451Y-1.4335
X9.451Y-1.5335
X9.451Y-1.6335
X9.451Y-1.7335
X9.451Y-1.8335
X9.451Y-1.9335
X9.451Y-2.0335
X9.451Y-2.1335
X9.451Y-2.2335
X9.451Y-2.3335
X9.451Y-2.4335
X9.451Y-2.5335
X9.451Y-2.6335
X9.451Y-2.7335
X9.451Y-2.8335
X9.451Y-2.9335
X9.451Y-3.0335
T5
X3.2037Y-2.3459
X3.2037Y-2.6459
X3.8037Y-2.3459
X3.8037Y-2.6459
X4.1718Y-4.5285
X4.1718Y-4.6795
X4.2218Y-4.7535
X4.222Y-4.6045
X4.2718Y-4.5285
X4.2718Y-4.6795
X4.3218Y-4.6045
X4.3218Y-4.7535
X4.3718Y-4.5285
X4.3718Y-4.6795
X4.4218Y-4.6035
X4.4218Y-4.7535
X4.4718Y-4.5285
X4.4718Y-4.6785
X4.5218Y-4.6045
X4.5218Y-4.7535
X4.5718Y-4.5285
X4.5718Y-4.6795
X4.6218Y-4.6045
X4.6218Y-4.7535
X4.6718Y-4.5285
X4.6718Y-4.6795
X4.7218Y-4.6045
X4.7218Y-4.7535
X4.7718Y-4.5285
X4.7718Y-4.6785
X4.8218Y-4.6045
X4.8218Y-4.7535
X4.8718Y-4.5285
X4.8718Y-4.6795
X4.9218Y-4.6045
X4.9218Y-4.7535
X4.9718Y-4.5285
X4.9718Y-4.6785
X5.0218Y-4.6045
X5.0218Y-4.7535
X5.0718Y-4.5285
X5.0718Y-4.6795
X5.1218Y-4.6045
X5.1218Y-4.7535
X5.1718Y-4.5285
X5.1718Y-4.6785
X5.2218Y-4.6035
X5.2218Y-4.7535
X5.2718Y-4.5285
X5.2718Y-4.6795
X5.3218Y-4.6045
X5.3218Y-4.7535
X5.3718Y-4.5285
X5.3718Y-4.6795
X5.4218Y-4.6035
X5.4218Y-4.7535
X5.4718Y-4.5285
X5.4718Y-4.6795
X5.5218Y-4.6045
X5.5218Y-4.7535
X5.5718Y-4.5285
X5.5718Y-4.6785
X5.6218Y-4.6045
X5.6218Y-4.7535
X5.6718Y-4.5285
X5.6718Y-4.6795
X5.7218Y-4.6045
X5.7218Y-4.7535
X5.7718Y-4.5285
X5.7718Y-4.6795
X5.8218Y-4.6045
X5.8218Y-4.7535
X5.8718Y-4.5285
X5.8718Y-4.6785
X5.9218Y-4.6045
X5.9218Y-4.7535
X5.9718Y-4.5285
X5.9718Y-4.6795
X6.0218Y-4.6045
X6.0218Y-4.7535
X6.0718Y-4.5285
X6.0718Y-4.6785
X6.1218Y-4.6045
X6.1218Y-4.7535
X6.1718Y-4.5285
X6.1718Y-4.6795
X6.2218Y-4.6045
X6.2218Y-4.7535
X6.2718Y-4.5285
X6.2718Y-4.6785
X6.3218Y-4.6045
X6.3218Y-4.7535
X6.3718Y-4.5285
X6.3718Y-4.6795
X6.4218Y-4.6045
X6.4218Y-4.7535
X6.4718Y-4.5285
X6.4718Y-4.6785
X6.5218Y-4.6045
X6.5218Y-4.7535
X6.5718Y-4.5285
X6.5718Y-4.6795
X6.6218Y-4.6035
X6.6218Y-4.7535
X6.7718Y-4.5285
X6.7718Y-4.6795
X6.8218Y-4.6035
X6.8218Y-4.7535
X6.8718Y-4.5285
X6.8718Y-4.6785
X6.9218Y-4.6035
X6.9218Y-4.7535
X6.9718Y-4.5285
X6.9718Y-4.6795
X7.0218Y-4.6035
X7.0218Y-4.7535
X7.0718Y-4.5285
X7.0718Y-4.6795
X7.1218Y-4.6045
X7.1218Y-4.7535
X7.1718Y-4.5285
X7.1718Y-4.6785
X7.2218Y-4.6045
X7.2218Y-4.7535
X7.2718Y-4.5285
X7.2718Y-4.6795
X7.3218Y-4.6035
X7.3218Y-4.7535
X7.3718Y-4.5285
X7.3718Y-4.6795
X7.4218Y-4.6045
X7.4218Y-4.7535
X7.4718Y-4.5285
X7.4718Y-4.6795
X7.5218Y-4.6035
X7.5218Y-4.7535
X7.5718Y-4.5285
X7.5718Y-4.6785
X7.6218Y-4.6035
X7.6218Y-4.7535
X7.6718Y-4.5285
X7.6718Y-4.6795
X7.7218Y-4.6035
X7.7218Y-4.7535
X7.7718Y-4.5285
X7.7718Y-4.6795
X7.8218Y-4.6045
X7.8218Y-4.7535
X7.8718Y-4.5285
X7.8718Y-4.6795
X7.9218Y-4.7535
X7.922Y-4.6045
X7.9718Y-4.5285
X7.9718Y-4.6795
X8.0218Y-4.6035
X8.0218Y-4.7535
X8.0718Y-4.5285
X8.0718Y-4.6785
X8.1218Y-4.6045
X8.1218Y-4.7535
X8.1718Y-4.5285
X8.1718Y-4.6795
X8.2218Y-4.6045
X8.2218Y-4.7535
X8.2718Y-4.5285
X8.2718Y-4.6795
X8.3218Y-4.7535
X8.322Y-4.6045
X8.3718Y-4.5285
X8.3718Y-4.6795
X8.4218Y-4.7535
X8.422Y-4.6045
X8.4718Y-4.5285
X8.4718Y-4.6795
X8.5218Y-4.6045
X8.5218Y-4.7535
X8.5718Y-4.5285
X8.5718Y-4.6795
X8.6218Y-4.6045
X8.6218Y-4.7535
X8.6718Y-4.5285
X8.6718Y-4.6795
X8.7218Y-4.6045
X8.7218Y-4.7535
X8.7718Y-4.5285
X8.7718Y-4.6795
X8.8218Y-4.6045
X8.8218Y-4.7535
X8.8718Y-4.5285
X8.8718Y-4.6795
X8.9218Y-4.6045
X8.9218Y-4.7535
X8.9718Y-4.5285
X8.9718Y-4.6785
X9.0218Y-4.6045
X9.0218Y-4.7535
X9.0718Y-4.5285
X9.0718Y-4.6785
X9.1218Y-4.6045
X9.1218Y-4.7535
X9.1718Y-4.5285
X9.1718Y-4.6795
X9.2218Y-4.6045
X9.2218Y-4.7535
T6
X3.785Y-4.56
X4.055Y-1.455
X4.055Y-1.555
X4.075Y-2.24
X4.105Y-2.74
X4.655Y-1.27
X4.655Y-4.1675
X4.99Y-1.28
X4.99Y-1.38
X5.09Y-1.28
X5.09Y-1.38
X5.19Y-1.28
X5.19Y-1.38
X5.29Y-1.28
X5.29Y-1.38
X5.39Y-1.28
X5.39Y-1.38
X5.49Y-1.28
X5.49Y-1.38
X5.59Y-1.28
X5.59Y-1.38
X6.278Y-1.371
X6.378Y-1.371
X6.39Y-2.555
X6.478Y-1.371
X9.77Y-1.215
X9.77Y-1.81
X9.87Y-1.215
X9.87Y-1.81
T7
X7.195Y-1.79
X7.295Y-1.79
X7.395Y-1.79
T0
M30
